<?xml version="1.0" standalone="no"?>
<!DOCTYPE svg PUBLIC "-//W3C//DTD SVG 1.1//EN" "http://www.w3.org/Graphics/SVG/1.1/DTD/svg11.dtd" >
<svg xmlns="http://www.w3.org/2000/svg" xmlns:xlink="http://www.w3.org/1999/xlink" version="1.1">
<metadata>
Created by FontForge 20201107 at Mon Apr 30 11:38:55 2007
 By Unknown
Copr.1991 FontFontRevival; FontShop International
</metadata>
<defs>
<font id="Schoensperger" horiz-adv-x="540" >
  <font-face 
    font-family="Schoensperger"
    font-weight="500"
    font-stretch="normal"
    units-per-em="1000"
    panose-1="0 0 0 0 0 0 0 0 0 0"
    ascent="800"
    descent="-200"
    x-height="525"
    cap-height="728"
    bbox="-39.6458 -524 1085.47 923.492"
    underline-thickness="20"
    underline-position="-190"
    stemh="54"
    stemv="63"
    unicode-range="U+0020-FB02"
  />
<missing-glyph horiz-adv-x="280" 
 />
    <glyph glyph-name=".notdef" horiz-adv-x="280" 
 />
    <glyph glyph-name="space" unicode=" " horiz-adv-x="320" 
d="M68 448z" />
    <glyph glyph-name="exclam" unicode="!" horiz-adv-x="224" 
d="M101 615c30 24 71 48 97 20c45 -48 -24 -302 -27 -484l-69 -16c3 95 10 229 10 310c0 69 -61 129 -11 170zM90 74l77 16l-7 -78l-74 -17z" />
    <glyph glyph-name="quotedbl" unicode="&#x22;" horiz-adv-x="301" 
d="M58 470v176h59v-176h-59zM184 470v176h59v-176h-59z" />
    <glyph glyph-name="numbersign" unicode="#" horiz-adv-x="468" 
d="M69 176v54h91l15 113h-82v54h91l25 175h54l-25 -175h101l25 176h54l-25 -176h83v-54h-91l-15 -113h83v-54h-91l-25 -175h-54l25 175h-102l-25 -176h-54l25 176h-83zM331 343h-102l-15 -113h101z" />
    <glyph glyph-name="dollar" unicode="$" horiz-adv-x="293" 
d="M39 10c-5 2 -15 -15 -22 -10l1 16c0 14 1 33 2 49c2 25 9 47 14 69v0h6c0 -24 10 -45 28 -61c26 -25 55 -33 85 -46c24 -6 48 -8 70 7c21 15 28 36 29 62c3 41 -23 69 -53 92c-21 17 -41 30 -68 47c-10 6 -16 11 -26 18s-27 22 -28 23c-22 21 -37 41 -44 72
c-9 36 -6 66 10 94c16 27 38 45 69 60c39 17 68 11 112 12c19 0 34 -4 50 0c-4 -9 -2 -34 -2 -42c0 -25 -7 -34 -3 -60c-3 -3 -18 -10 -18 -13h-6c3 30 -13 50 -37 69c-32 26 -74 36 -108 14c-9 -6 -16 -10 -20 -19c-2 -3 -3 -7 -4 -10c-12 -40 7 -77 31 -105
c36 -43 88 -58 134 -103c40 -38 60 -81 48 -135c-9 -46 -38 -80 -77 -96c-38 -16 -89 -18 -130 -10c-15 0 -28 3 -43 6zM158 559l30 18l-17 -64h-13v46zM146 0h14v-46l-27 -20z" />
    <glyph glyph-name="percent" unicode="%" horiz-adv-x="767" 
d="M282 -16h-62c91 206 177 411 258 617h60c-97 -198 -178 -406 -256 -617zM308 421c0 -107 -53 -194 -88 -221c-13 -8 -57 -16 -67 -16c-11 0 -71 27 -98 70c-19 30 -31 71 -30 128c2 94 23 171 68 189c33 15 71 25 86 25c90 0 129 -79 129 -175zM742 227
c0 -107 -54 -195 -89 -222c-12 -8 -56 -16 -66 -16c-11 0 -71 27 -98 70c-19 31 -31 71 -30 128c2 95 22 171 67 190c34 14 72 24 87 24c90 0 129 -78 129 -174zM248 383c0 115 -38 170 -78 191c-55 -45 -80 -77 -80 -186c0 -144 75 -177 94 -177c20 13 64 86 64 172z
M682 189c0 114 -39 170 -78 191c-55 -45 -80 -78 -80 -187c0 -144 74 -177 94 -177c20 14 64 87 64 173z" />
    <glyph glyph-name="ampersand" unicode="&#x26;" horiz-adv-x="561" 
d="M266 -30h6c43 0 86 20 86 81c0 28 -17 53 -39 68c-35 -77 -70 -127 -159 -127c-72 0 -142 63 -142 137s51 117 113 144c-12 20 -21 42 -21 66c0 78 67 135 137 135c55 0 90 -38 90 -85c0 -36 -59 -85 -91 -91c26 -20 60 -45 86 -63c14 59 54 172 131 172
c42 0 78 -31 78 -76c0 -39 -23 -66 -63 -66l-4 8c9 10 32 28 32 46c0 47 -3 38 -17 55c-4 5 -27 17 -34 17c-62 0 -102 -115 -114 -163c54 -41 91 -52 91 -126c0 -111 -62 -144 -130 -144c-12 0 -25 1 -36 2v10zM207 398c0 -36 4 -75 33 -94c26 19 69 72 69 105
c0 21 -8 49 -38 49c-31 0 -64 -30 -64 -60zM241 70c27 0 59 31 69 55c-60 44 -124 84 -173 140c-19 -11 -31 -37 -32 -58c-3 -167 97 -137 136 -137z" />
    <glyph glyph-name="quoteright" unicode="&#x2019;" horiz-adv-x="234" 
d="M52 470c0 0 1 148 69 171c22 7 38 11 61 5c66 -17 -6 -109 -65 -165c-17 -17 -43 -4 -65 -11z" />
    <glyph glyph-name="parenleft" unicode="(" horiz-adv-x="250" 
d="M198 -41l-34 -42c-69 99 -92 222 -92 348c0 138 32 276 100 387l65 -34c-61 -103 -106 -238 -106 -368c0 -106 23 -203 67 -291z" />
    <glyph glyph-name="parenright" unicode=")" horiz-adv-x="250" 
d="M78 -83l-65 34c61 103 106 238 106 368c0 106 -23 203 -67 291l34 42c69 -99 92 -222 92 -349c0 -137 -32 -275 -100 -386z" />
    <glyph glyph-name="asterisk" unicode="*" horiz-adv-x="367" 
d="M333 549c-39 -19 -79 -38 -116 -59c36 -27 84 -48 129 -69l4 -4c-4 -14 -22 -46 -33 -51c-53 44 -98 76 -116 88c-1 -27 3 -97 10 -122c0 -12 -35 -4 -64 -21l-6 5l-1 8c5 22 15 104 14 128c-27 -25 -62 -53 -94 -89c-20 18 -40 39 -43 55c14 16 90 36 123 59
c-39 20 -82 42 -121 59c3 25 21 43 37 53c30 -18 74 -58 101 -77c-1 49 0 88 -9 130c20 1 36 4 70 4c-5 -39 -12 -84 -12 -133c43 39 72 62 102 88c6 -10 20 -35 25 -52z" />
    <glyph glyph-name="plus" unicode="+" 
d="M238 260v195h64v-195h196v-65h-196v-195h-64v195h-196v65h196z" />
    <glyph glyph-name="comma" unicode="," horiz-adv-x="255" 
d="M98 101c13 17 26 47 55 51c51 -8 90 -49 90 -85c0 -41 -10 -84 -53 -105c-25 -26 -55 -26 -93 -30c-17 13 -59 8 -55 42c13 9 26 17 43 9c101 42 -4 51 13 118z" />
    <glyph glyph-name="hyphen" unicode="-" horiz-adv-x="219" 
d="M176 416l3 -16c9 -31 -97 -59 -19 -77c16 -16 -3 -25 -6 -41c-37 -24 -62 -77 -109 -83c-22 0 -22 28 -12 40c21 25 77 43 68 81c-22 -4 -34 -44 -59 -25c-6 9 -9 21 -3 31c53 25 68 109 137 90z" />
    <glyph glyph-name="period" unicode="." horiz-adv-x="229" 
d="M88 12c-17 -1 -35 -12 -48 1s-1 28 1 45c2 20 -4 43 12 55c10 8 28 -6 40 -4c25 4 45 15 58 -6c10 -15 -7 -34 -12 -50c-3 -12 8 -22 -2 -32c-13 -14 -31 -7 -49 -9z" />
    <glyph glyph-name="slash" unicode="/" horiz-adv-x="366" 
d="M382 610l-309 -595c-10 -7 -41 -10 -89 -15c112 196 213 399 320 598z" />
    <glyph glyph-name="zero" unicode="0" horiz-adv-x="477" 
d="M227 555c83 11 144 -50 205 -123c26 -90 31 -208 9 -304c-44 -62 -88 -146 -161 -140c-67 -18 -128 5 -181 45c-69 61 -91 185 -69 298c18 117 109 203 197 224zM322 409c-30 46 -67 66 -120 48c-60 -14 -79 -80 -93 -145c-16 -76 11 -121 39 -198c19 -53 64 -45 107 -39
c53 8 93 47 96 100c5 102 -4 196 -29 234z" />
    <glyph glyph-name="one" unicode="1" horiz-adv-x="361" 
d="M308 544l-21 -43c-25 -146 -5 -302 -30 -448c14 -29 23 -58 -12 -69c-39 29 -78 -34 -107 20c18 137 28 252 28 375c0 30 -143 0 -141 30c1 23 148 107 152 131c34 33 87 9 131 4z" />
    <glyph glyph-name="two" unicode="2" horiz-adv-x="409" 
d="M328 540c0 0 40 -42 49 -51c15 -32 33 -66 24 -103c0 -64 -258 -294 -258 -294c99 -11 185 11 268 6c-15 -47 -9 -69 -33 -100c-120 -25 -208 51 -342 -9c-10 0 -20 19 -33 34c11 116 151 128 224 227c29 34 83 119 48 183c-46 84 -231 -19 -246 -14c-19 9 -15 40 -3 51
c74 76 195 97 302 70z" />
    <glyph glyph-name="three" unicode="3" horiz-adv-x="319" 
d="M186 559c37 -12 74 -42 94 -76c15 -23 11 -53 4 -80c-38 -61 -118 -54 -160 -103l8 -18c61 -27 137 -35 163 -103c15 -35 8 -61 -4 -91c-56 -77 -172 -175 -260 -226c-7 7 -18 7 -22 19c27 49 130 145 149 214c12 39 -3 72 -26 103c-27 53 -148 11 -111 99
c42 42 145 45 126 125c-23 65 -146 15 -143 84c43 26 124 68 182 53z" />
    <glyph glyph-name="four" unicode="4" horiz-adv-x="497" 
d="M298 541c27 19 68 34 94 7c-22 -82 -22 -157 -15 -244c23 -44 79 8 97 -33c-15 -23 4 -68 -30 -75c-26 0 -52 11 -71 -11c-7 -57 0 -121 7 -173c-18 -38 -67 -30 -101 -30c-37 64 12 135 0 206l-19 19c-78 11 -149 -8 -232 4c-11 11 -3 29 4 45c87 90 191 188 266 285z
M272 319c7 30 19 68 3 102c-40 -30 -89 -72 -112 -112c31 -27 75 -12 109 10z" />
    <glyph glyph-name="five" unicode="5" horiz-adv-x="470" 
d="M168 554c91 36 172 -59 255 -8c19 8 41 4 48 -10c-4 -48 -29 -88 -51 -125c-62 0 -124 25 -190 37c-29 11 -69 8 -94 -12c-15 -17 0 -39 14 -50c84 -18 191 -141 206 -221c4 -117 -193 -280 -276 -327c-4 0 -19 0 -15 11v11c40 47 189 169 185 242
c4 80 -122 189 -191 225c-19 -3 -33 8 -36 22c21 84 116 124 145 205z" />
    <glyph glyph-name="six" unicode="6" horiz-adv-x="457" 
d="M381 556c16 7 59 15 55 -20c-20 -70 -102 -100 -152 -151c-38 -31 -93 -54 -112 -97c58 0 128 43 186 0c39 -55 66 -136 31 -202c-66 -54 -143 -74 -221 -104c-47 19 -78 58 -120 89c-16 31 -35 70 -23 112c69 171 248 229 356 373zM292 152c8 81 -82 97 -128 128
l-35 -38c-3 -51 -15 -106 23 -144c35 -8 78 -43 113 -23c16 19 39 42 27 77z" />
    <glyph glyph-name="seven" unicode="7" horiz-adv-x="593" 
d="M133 521c169 -31 259 -81 434 -34c10 -11 26 -36 10 -51c-195 -109 -362 -388 -489 -590c-21 -5 -42 11 -42 26c31 103 146 316 213 410c30 30 77 51 72 91c-88 21 -106 -12 -183 4c-36 -16 -72 5 -97 15c-16 47 -52 93 -27 145c36 36 73 -10 109 -16z" />
    <glyph glyph-name="eight" unicode="8" horiz-adv-x="395" 
d="M195 562c80 -3 154 -56 182 -135c0 -23 7 -68 -31 -76c-22 -3 -49 -18 -60 -41c-8 -64 83 -76 71 -143c-8 -72 -75 -121 -113 -181c-75 -23 -120 56 -189 68c-48 41 -22 97 -18 150c15 38 87 38 56 87c-30 26 -56 42 -75 75c-4 106 98 151 177 196zM282 419
c-42 45 -102 76 -158 41c-19 -60 48 -87 78 -127c28 -12 53 0 69 18c11 19 30 45 11 68zM263 211c-30 13 -61 42 -98 27c-34 -11 -53 -45 -49 -79c27 -49 64 -82 121 -87c22 20 26 38 45 57c19 30 -4 60 -19 82z" />
    <glyph glyph-name="nine" unicode="9" horiz-adv-x="438" 
d="M268 562c73 -65 188 -142 139 -260c-44 -93 -195 -286 -268 -356c-29 -28 -49 -60 -61 -93c-13 -8 -24 -16 -37 -8c-40 110 146 278 178 368c-53 16 -93 -25 -138 20c-33 33 -56 65 -61 110c-8 86 65 150 135 187c36 16 73 28 113 32zM293 416c-29 44 -94 98 -143 53
c-12 -33 -28 -65 -20 -102c28 -45 69 -106 130 -98c44 33 24 90 33 147z" />
    <glyph glyph-name="colon" unicode=":" horiz-adv-x="229" 
d="M80 264c-17 -1 -31 -16 -44 -3s-1 28 1 45c2 20 -4 43 12 55c10 8 28 -6 40 -4c25 4 45 15 58 -6c10 -15 -7 -26 -12 -42c-3 -12 8 -30 -2 -40c-13 -14 -35 -3 -53 -5zM84 20c-17 -1 -35 -12 -48 1s-1 28 1 45c2 20 -4 43 12 55c10 8 28 -6 40 -4c25 4 45 15 58 -6
c10 -15 -7 -34 -12 -50c-3 -12 8 -22 -2 -32c-13 -14 -31 -7 -49 -9z" />
    <glyph glyph-name="semicolon" unicode=";" horiz-adv-x="229" 
d="M61 75c9 11 18 31 37 33c33 -5 50 -33 75 -56c11 -21 17 -55 -11 -69c-17 -17 -41 -65 -66 -68c-11 9 -39 6 -36 28c9 6 17 27 28 22c67 28 -38 66 -27 110zM112 260c-17 -1 -31 -16 -44 -3s-1 28 1 45c2 20 -4 43 12 55c10 8 28 -6 40 -4c25 4 45 15 58 -6
c10 -15 -7 -26 -12 -42c-3 -12 8 -30 -2 -40c-13 -14 -35 -3 -53 -5z" />
    <glyph glyph-name="less" unicode="&#x3c;" 
d="M498 60v-67l-456 204v61l456 205v-68l-373 -167z" />
    <glyph glyph-name="equal" unicode="=" horiz-adv-x="219" 
d="M202 416l3 -16c9 -31 -97 -59 -19 -77c16 -16 -3 -25 -6 -41c-37 -24 -62 -77 -109 -83c-22 0 -22 28 -12 40c21 25 77 43 68 81c-22 -4 -34 -44 -59 -25c-6 9 -9 21 -3 31c53 25 68 109 137 90z" />
    <glyph glyph-name="greater" unicode="&#x3e;" 
d="M42 395v68l456 -205v-61l-456 -204v67l373 168z" />
    <glyph glyph-name="question" unicode="?" horiz-adv-x="301" 
d="M179 159c0 -22 -49 -37 -49 -37c-35 35 -77 84 -77 136c0 35 49 75 66 113s42 119 42 150c0 16 -31 18 -65 4c-22 -9 -45 -34 -63 -35c-23 -2 -32 30 -32 46c-1 44 83 74 127 77c62 5 118 -50 118 -108c0 -37 -26 -91 -50 -126c-30 -44 -79 -62 -79 -102
c0 -33 62 -57 62 -118zM115 76l76 16l-6 -81l-75 -16z" />
    <glyph glyph-name="A" unicode="A" horiz-adv-x="675" 
d="M444 755c35 -28 6 -74 21 -113c-15 -25 -25 -59 -21 -81c-7 -24 3 -56 0 -85c-21 -105 17 -215 3 -317c25 -50 14 -102 39 -152c-4 -7 -4 -17 -14 -21l-22 4c-35 49 4 119 -38 162c-71 -14 -134 -77 -166 -145c-17 -14 -35 -10 -46 11c3 42 -14 84 -39 120
c-35 46 -88 24 -130 56c7 60 71 25 109 42c92 25 183 100 212 191c21 81 -14 141 -74 187c-32 25 -67 46 -113 43c-25 0 -50 -22 -63 -43c-8 -14 -15 -31 -8 -49c32 -32 99 7 131 -32c46 -43 7 -95 14 -148c-10 -39 -57 -56 -88 -74c-29 3 -64 0 -75 28c-3 10 0 28 18 28
c28 -7 64 -4 85 25c-10 81 -120 38 -130 120c-4 35 -18 74 0 105c38 57 98 100 162 117c88 14 141 -50 194 -106c25 22 0 82 14 113c7 7 14 18 25 14zM588 741c14 11 50 28 56 -7c-112 -155 -60 -360 -60 -547c8 -14 11 -39 33 -39l7 7c27 -28 -25 -56 -32 -88
c-25 -18 -25 -70 -64 -63c7 151 -56 289 -31 441c24 88 -40 254 91 296zM412 240l3 131l-14 3c-38 -67 -105 -95 -155 -152c-10 -28 14 -53 28 -74c53 -10 103 50 138 92z" />
    <glyph glyph-name="B" unicode="B" horiz-adv-x="862" 
d="M364 741c59 -20 98 -80 140 -126c60 25 95 84 147 119c17 4 39 0 42 -20c18 -53 91 -70 105 -130c38 -91 -196 -154 -35 -228c70 -55 70 -164 45 -248c-20 -52 -80 -97 -129 -118l-206 -4c-77 49 -150 95 -220 161c-39 11 -71 7 -109 3c-35 -7 -21 -73 -66 -48
c-14 10 -11 34 -4 48c129 99 360 105 364 322c-7 52 -11 105 -42 147c-63 42 -147 70 -214 21c-70 -49 -108 -126 -94 -210c7 -28 35 -63 67 -74c24 -10 55 4 66 29c-3 59 -77 94 -45 161c17 28 45 41 73 48c53 0 91 -31 115 -77c14 -17 11 -52 4 -70
c-11 -17 -32 -21 -45 -14c-32 39 10 123 -70 120c-32 3 -43 -25 -50 -43c0 -66 95 -104 39 -167c-32 -28 -77 -42 -116 -25c-48 28 -73 81 -87 133c14 109 53 203 143 277c50 52 123 17 182 13zM711 517c-21 46 -67 77 -116 88c-108 -21 -41 -119 -59 -185
c7 -7 18 -18 28 -7c59 7 126 38 147 104zM668 318h-17c-119 88 -224 -35 -325 -84c-14 -52 60 -35 74 -73c90 -42 154 -168 268 -136c36 27 60 56 77 94c0 53 4 112 -41 153c-14 7 3 46 -21 29c-8 7 -11 10 -15 17zM473 45h11l-7 7z" />
    <glyph glyph-name="C" unicode="C" horiz-adv-x="822" 
d="M670 742c22 -34 64 -45 108 -45c16 -11 -3 -26 0 -37c-67 -34 -104 -120 -183 -124c-11 34 60 49 30 86c-19 38 -52 52 -86 64c-105 -42 56 -127 -8 -191c-18 -4 -30 11 -30 26c12 41 -30 56 -41 90c-15 11 -37 15 -52 -4c-11 -124 59 -266 -23 -378
c-18 -37 -79 -67 -56 -113c45 -48 98 -45 161 -52c75 4 142 38 188 101c10 0 30 0 30 -19c-20 -75 -109 -108 -173 -138c-105 -49 -213 -7 -303 41c-60 8 -102 -38 -161 -11c-34 19 -38 56 -30 90c7 11 30 26 41 11c15 -19 22 -60 48 -60l23 4c19 30 -30 45 -26 71
c-79 116 -45 292 11 408c71 68 168 139 281 124c71 48 165 94 251 56zM363 622c-4 15 -19 4 -27 8c-67 -15 -108 -83 -134 -139c-4 -105 -45 -255 74 -315c30 8 30 42 34 68c0 131 -34 273 53 378z" />
    <glyph glyph-name="D" unicode="D" horiz-adv-x="1047" 
d="M530 724c151 -13 289 -78 374 -206c0 0 57 -72 73 -127c27 -96 20 -173 -35 -257c-60 -94 -151 -137 -250 -141c-168 11 -313 110 -481 117c-41 -10 -86 -24 -109 -68c-11 -25 -21 -63 0 -87c13 -13 30 -24 51 -17c38 11 17 76 61 63c18 -22 8 -52 0 -77
c-20 -31 -51 -48 -85 -48c-52 4 -79 55 -89 96c10 100 85 182 182 210c116 6 244 -35 359 -72c90 -20 207 -65 286 17c31 30 71 60 82 114c11 49 -4 81 -17 129c-71 245 -374 279 -600 258c-79 -18 -172 -31 -203 -117c-38 -72 17 -131 62 -178c44 -51 106 -79 171 -58
c158 27 334 158 480 31c21 -24 32 -65 18 -97c-18 -37 -55 -45 -85 -55c-25 18 -69 24 -56 62c34 18 100 -44 107 25c-7 24 -28 44 -48 47c-172 -3 -302 -93 -474 -64c-76 27 -161 61 -202 140c-35 62 -38 144 0 205c105 128 267 182 428 155z" />
    <glyph glyph-name="E" unicode="E" horiz-adv-x="739" 
d="M412 728c25 20 64 42 95 17c-7 -39 -73 -21 -77 -71c-4 -10 -4 -28 10 -35c57 35 120 64 170 109c49 0 10 -49 21 -77c28 -28 42 -74 24 -110c-11 -56 -138 -45 -71 -109c22 4 33 -21 54 -7c24 11 35 49 67 32c10 -46 -57 -50 -78 -84c-43 -25 -28 -89 -74 -103
c-39 28 31 60 -3 88c-36 28 -74 25 -116 28c-40 -38 -18 -102 -57 -137c-39 -14 -67 -50 -99 -74c7 -50 67 -39 89 -70c73 -36 172 -85 250 -18c24 25 49 42 81 42c10 -7 10 -28 0 -35c-74 -60 -145 -149 -251 -123c-84 10 -162 59 -229 105c-25 11 -46 -11 -70 -14
c-25 -17 -29 -71 -71 -53c-18 14 0 29 7 42c98 64 208 155 219 282c-14 22 -78 0 -46 43c21 14 46 24 56 49c0 49 21 116 -28 149c28 52 106 70 127 134zM320 745c7 -7 22 -7 22 -14c-8 -60 -82 -46 -113 -92c-39 -25 -39 -63 -50 -99c3 -123 92 -314 -53 -402
c-17 -21 -53 -46 -81 -28c-14 11 -14 28 -7 39c35 7 77 18 95 56c-18 138 -116 325 39 434c43 46 99 71 148 106zM560 594c-21 77 -92 17 -126 -8c-4 -35 -29 -88 -4 -130c28 -7 49 7 70 24c28 29 74 60 60 114z" />
    <glyph glyph-name="F" unicode="F" horiz-adv-x="690" 
d="M547 776c14 3 39 0 36 -21c-8 -33 -50 -64 -11 -92c24 -40 71 -74 119 -53c11 -3 19 -17 11 -28c-57 -17 -109 -99 -172 -39c-46 14 -31 92 -85 78c-64 -85 -28 -177 -7 -268c78 -18 80 144 166 59c35 -13 67 56 91 7c-32 -41 -60 -88 -106 -112c-31 15 -73 28 -112 15
c-49 -41 -32 -106 -56 -156c-4 -77 -43 -155 -58 -229c67 -50 167 -78 244 -42c36 24 60 63 53 112c-11 24 -21 61 -56 61c-15 0 -32 -12 -32 -26c7 -20 3 -42 -14 -63c-31 0 -42 24 -56 49c-3 31 14 61 42 74c35 7 77 11 113 -10c34 -24 34 -67 53 -98
c-8 -50 -15 -99 -56 -127c-50 -36 -107 -15 -164 -19c-56 4 -99 50 -151 50c-73 -42 -180 -91 -258 -35c-20 21 -28 56 -13 84c28 39 71 50 116 60c43 -7 85 -13 119 -32c36 43 26 106 36 159c-4 15 0 35 -14 43c-74 -32 -123 -103 -186 -155c-54 18 9 63 0 105
c-8 53 -64 56 -95 89c6 35 48 41 76 59c47 32 68 81 82 131c-3 38 -14 84 -60 102c-24 10 -46 -7 -67 -18c-7 -22 -28 -38 -22 -71c11 -9 28 -9 47 -9c18 9 14 48 39 37c28 -9 17 -41 7 -56c-22 -28 -65 -28 -96 -20c-28 11 -38 41 -45 67c0 56 14 112 70 141
c49 20 116 25 158 -5c50 -28 57 -77 64 -127c-7 -76 -70 -123 -113 -183c7 -39 28 -73 57 -98c34 7 70 39 88 63c6 121 -32 268 34 381c58 56 117 119 184 166zM269 -85c4 19 -11 26 -22 29c-45 0 -91 39 -129 -7c-15 -18 0 -42 13 -57c49 -7 99 0 138 35z" />
    <glyph glyph-name="G" unicode="G" horiz-adv-x="829" 
d="M406 705c31 17 70 80 101 35c-10 -25 -73 -39 -42 -77c22 -18 39 -39 42 -63c-3 -21 -10 -46 -31 -60c-25 3 -32 84 -66 42c10 -70 55 -122 63 -196c10 -7 14 -24 31 -17c49 42 119 97 112 168c-32 21 -66 56 -56 98c0 52 52 84 94 101c14 0 35 0 35 -17
c-10 -28 -35 -60 -17 -92c28 -27 46 -73 14 -104c-18 -21 -42 -39 -42 -67c49 -38 144 -28 147 -108c-3 -81 -3 -175 -63 -235c-49 -35 -87 -102 -154 -109c-80 -31 -193 -16 -277 0c-118 11 -192 131 -245 221c-41 158 7 329 130 420c67 39 140 67 224 60zM367 631
c-41 36 -94 11 -129 -21c-84 -70 -95 -185 -77 -291c14 -129 126 -248 249 -279c90 -4 178 7 241 77c42 41 38 105 38 161c-14 24 -24 49 -52 66c-28 11 -60 7 -91 4c-88 -18 -91 -113 -143 -165c-22 -14 -46 -52 -70 -25c0 11 0 22 7 32c34 11 45 49 66 77
c4 63 -46 112 -66 172c-39 66 -4 136 27 192z" />
    <glyph glyph-name="H" unicode="H" horiz-adv-x="787" 
d="M351 756c90 39 226 82 289 -15c39 0 35 89 82 39c-4 -32 -8 -67 -39 -82c-43 -16 -86 -16 -133 -12c-35 27 -70 78 -121 51c-19 -8 -7 -28 -4 -39c24 -4 32 -31 32 -51c4 -35 -24 -62 -51 -78c-23 0 -43 -4 -58 20c-4 46 70 11 70 62c-4 27 -20 43 -43 54
c-43 12 -70 -38 -90 -70c-39 -101 -27 -218 -23 -327c8 -8 11 -16 19 -12c74 59 78 238 215 187c93 -15 191 -58 222 -152c54 -81 31 -187 8 -272c-36 -90 -110 -145 -184 -203c-70 -23 -148 -23 -226 -4c-62 -23 -148 -90 -214 -23c-19 23 -39 66 -12 93
c63 86 172 35 258 35c50 35 116 78 179 51c11 -12 27 -20 23 -39c-39 -35 -97 58 -132 -12c-12 -27 11 -50 35 -50c35 -4 82 0 113 19c58 86 117 183 70 292c-35 78 -105 121 -183 141c-59 0 -113 -43 -144 -90c-28 -31 -32 -70 -32 -109c20 -23 43 -35 71 -39
c50 19 74 101 136 70c-47 -66 -156 -105 -136 -206c-32 -8 -51 27 -71 42c-66 20 -163 32 -218 -23c-8 0 -19 4 -23 16c15 58 47 120 39 187c-4 85 0 167 4 265c4 82 23 163 81 222c63 39 117 62 191 62zM262 674c-31 16 -55 -39 -63 -62c-19 -129 -19 -288 -15 -421
c-4 -31 -51 -43 -35 -78c27 12 54 31 74 55c19 156 -43 362 39 506zM273 -113c-19 35 -66 47 -105 35c-19 -8 -27 -23 -27 -43c19 -27 39 -23 66 -31c24 8 63 12 66 39z" />
    <glyph glyph-name="I" unicode="I" horiz-adv-x="634" 
d="M417 691l63 -3c40 13 85 64 124 30c7 -51 -57 -51 -57 -97c-15 -191 131 -379 12 -557c-48 -39 -105 -73 -169 -76c-77 -18 -140 94 -207 21c-39 -15 -88 -12 -121 6c-15 16 -34 30 -34 52c16 30 34 55 64 70c52 8 113 18 158 -19c52 4 73 76 127 55c25 -9 55 -9 64 -34
c3 -27 -9 -57 -36 -72c-9 0 -25 0 -28 12c-9 24 33 24 16 52c-13 11 -33 17 -46 11c-18 -11 -45 -20 -51 -45c24 -49 81 -60 133 -72c25 6 51 17 67 42c21 78 -42 145 -103 188c-58 70 -134 -27 -197 27c-22 12 -52 21 -76 18c-15 -12 -21 -27 -21 -45c12 -43 45 -16 75 -24
c9 -12 -3 -28 -15 -31c-27 -9 -54 -3 -76 15c-14 18 -30 43 -24 70c6 24 30 37 49 42c69 16 133 -54 194 -8c-25 75 -28 175 33 233c25 9 45 3 70 -6c30 -25 36 -73 36 -116c13 -39 -45 -97 15 -111c64 -46 76 -107 97 -171c31 13 0 49 3 74c-57 100 -91 208 -91 333
c-6 42 42 63 49 103l-7 6c-94 -94 -202 -12 -293 21c-31 9 -79 16 -106 -3c-16 -21 -39 -39 -28 -70c34 -54 122 -30 134 -105c9 -34 3 -71 -3 -98c-19 -21 -42 -27 -67 -27c-24 -3 -45 15 -52 37c-3 14 3 33 22 33c24 -6 18 -67 57 -39c18 11 12 36 6 54
c-51 33 -121 57 -139 124c-10 58 27 106 73 137c100 66 215 0 306 -37zM405 479c-9 28 -48 64 -70 24c-19 -24 -15 -57 -3 -84c12 -16 21 -61 55 -46c18 30 23 70 18 106zM192 58c-18 24 -51 42 -87 36c-16 -6 -30 -15 -30 -30c0 -24 24 -22 33 -30c33 6 72 -9 84 24z" />
    <glyph glyph-name="J" unicode="J" horiz-adv-x="775" 
d="M172 800c134 0 224 -123 358 -87c40 18 87 62 134 25c15 -29 -18 -50 -32 -72c-55 -210 156 -355 98 -576c-11 -113 -80 -229 -200 -268c-61 -15 -127 -37 -188 -8c-29 29 -84 44 -94 91c-8 58 21 98 50 141c15 0 26 7 37 0c0 -51 -69 -87 -29 -145
c25 -43 76 -69 130 -65c87 7 138 80 185 141c-7 116 -116 174 -192 254c-55 25 -127 -22 -196 4c-32 7 -76 29 -105 7c-14 -18 -7 -44 7 -62c33 -43 84 62 91 -7c-18 -22 -44 -40 -69 -47c-33 4 -69 11 -83 47c-18 29 3 58 21 83c77 77 156 -10 247 19c22 39 -33 65 -22 108
c-4 84 11 149 80 196c47 25 101 -11 127 -47c32 32 32 98 65 138c-25 29 -58 -22 -87 -29c-112 -19 -221 0 -312 61c-32 4 -69 0 -90 -29c-22 -22 -33 -58 -18 -90c54 -102 250 -84 188 -229c-18 -32 -65 -29 -98 -29c-32 0 -7 47 -43 37c-11 10 -26 32 -11 47
c3 10 11 7 18 7c18 -29 18 -69 65 -58c11 0 18 4 26 14c18 40 -33 66 -55 87c-47 26 -94 58 -130 105c-26 69 3 138 47 189zM480 514c-19 7 -33 32 -58 25c-19 0 -26 -22 -33 -36c-22 -51 7 -98 40 -138c14 -7 29 -32 51 -18c14 51 29 120 0 167zM643 246
c-40 50 -66 112 -105 159l-26 -94c65 -80 123 -142 142 -239h7c25 58 18 123 -18 174z" />
    <glyph glyph-name="K" unicode="K" horiz-adv-x="621" 
d="M439 732c50 -19 78 -54 105 -92c45 -70 70 -171 30 -245c-23 -43 -47 -89 -90 -117c-5 2 -12 2 -10 11c53 65 99 139 84 233c-12 73 -31 142 -101 163c-55 -2 -94 -50 -112 -95c-5 -30 -8 -58 2 -84h20c37 37 69 78 100 119c10 2 17 -5 14 -11c-7 -30 -34 -58 -12 -84
c19 -37 58 -44 75 -73c-31 -14 -72 -19 -91 -54l-49 -71c27 -83 17 -159 65 -234c17 -27 49 -53 80 -39c12 10 23 17 38 12c14 -6 0 -14 0 -21c-39 -29 -72 -84 -130 -58c-84 32 -90 163 -137 245l-11 -5l-94 -98c-5 -12 0 -24 5 -36c7 -20 67 -3 31 -31
c-36 0 -72 -42 -101 -64c-10 -4 -19 3 -21 13c-2 14 27 32 14 43c-24 36 -71 32 -110 36c-10 8 -2 17 2 24c44 22 87 63 134 24c13 5 34 12 34 29c7 77 -57 125 -87 205c-22 58 -50 110 -38 181c16 97 70 159 164 194c67 12 122 9 197 -20zM410 707c-84 29 -187 29 -252 -39
c-49 -59 -58 -153 -24 -225c33 -86 100 -156 98 -256c24 28 55 57 77 89c0 0 -46 94 -57 158c-6 34 -12 57 -8 91c12 93 96 146 166 177v5zM436 438c-17 19 -39 77 -67 29c-12 -26 2 -55 4 -84c7 -7 7 -26 24 -24c15 27 41 46 39 79z" />
    <glyph glyph-name="L" unicode="L" horiz-adv-x="749" 
d="M612 733l8 -20c-11 -42 -47 0 -73 -5c-40 0 -79 -28 -93 -63c-33 -89 152 -184 137 -274c-5 -81 -134 -124 -196 -176c-19 -11 -46 -31 -52 -48c30 -21 37 -29 63 -41c65 -32 118 -47 186 -30c53 0 33 90 98 62c5 -9 5 -20 3 -28c-57 -42 -94 -95 -172 -110
c-69 -13 -129 -2 -180 24c-59 22 -108 70 -173 41c-67 -30 -120 -100 -131 -171c-9 -6 -15 -8 -23 -2c-3 86 43 176 120 218c48 28 101 48 158 48c70 45 138 103 154 186c-5 86 -101 153 -101 248c11 56 46 112 99 146c39 28 120 8 168 -5z" />
    <glyph glyph-name="M" unicode="M" horiz-adv-x="1113" 
d="M93 68c-16 -12 -31 -37 -50 -31c-21 16 3 37 10 50c80 110 308 128 299 307c21 86 -70 180 102 256c49 21 83 71 123 104c12 7 21 -6 24 -12c-34 -77 -40 -154 -37 -243c10 -46 3 -105 28 -148c34 18 17 95 40 151c50 118 113 238 218 250c111 3 174 -118 214 -208
c59 -176 -9 -431 -138 -557c-13 -3 -18 4 -24 13c41 46 54 82 73 125c49 130 19 356 -61 461c-37 40 -93 80 -146 62c-101 -99 -157 -309 -142 -452c25 -61 83 -108 99 -169c-22 -31 -56 0 -87 -19c-27 -3 -49 -37 -80 -15c-12 65 -21 129 -40 191c-37 25 -86 0 -123 -9
c-59 -22 -134 -113 -152 -175c-34 6 -27 65 -70 71c-25 16 -59 6 -80 -3zM481 496c3 43 22 89 -3 123c-52 -71 -15 -160 -43 -240c6 -103 -127 -169 -192 -215v-16c25 -3 18 -36 46 -24c83 109 161 88 220 125c-6 80 -28 164 -28 247z" />
    <glyph glyph-name="N" unicode="N" horiz-adv-x="920" 
d="M287 756c65 -19 126 -53 157 -115c45 50 95 130 179 107c102 0 91 -121 152 -171c27 3 42 30 50 57c0 15 -16 34 0 50c11 15 27 0 38 0c69 -122 -111 -180 -138 -286c-37 -72 12 -145 35 -210c23 -76 114 65 92 -34c-77 -42 -111 -107 -180 -149c-31 12 -15 38 -15 57
c-61 73 -73 187 -42 278c19 69 57 111 114 149c4 8 16 15 8 23c-49 -12 -99 11 -122 57c-23 23 -15 65 -54 80c-41 8 -76 -22 -87 -53c0 -84 -15 -172 -30 -252c-16 -80 -130 -53 -141 -125c64 -24 45 -161 129 -81c8 16 27 16 38 16c4 0 8 -8 8 -12v-11
c-84 -27 -134 -114 -218 -145c-14 0 -22 15 -22 31c11 22 0 49 -4 72c-15 30 -46 61 -80 65c-46 23 -107 -107 -95 4c72 91 224 68 270 198c46 64 46 164 7 236c-18 46 -68 61 -106 80c-50 4 -84 -19 -115 -53c-7 -19 -26 -39 -11 -57c46 -39 115 -27 145 -84
c4 -46 7 -99 -15 -138c-27 -45 -76 -41 -119 -41c-22 15 -49 23 -64 49c-4 15 8 31 15 38c34 -15 61 -60 107 -38c11 11 23 23 19 42c-42 34 -88 16 -126 61c-34 53 -31 126 0 187c53 73 133 114 221 118z" />
    <glyph glyph-name="O" unicode="O" horiz-adv-x="808" 
d="M428 763c7 -4 17 -4 24 -14c-10 -42 -60 -64 -60 -110c3 -14 -3 -42 18 -45c45 24 74 74 109 116c-3 15 14 18 25 29c74 -22 -39 -82 21 -121c78 -42 170 -113 188 -204c31 -110 -60 -174 -103 -254c-88 -68 -148 -198 -279 -160c-113 11 -216 64 -276 163
c-45 88 -81 204 -21 297c71 145 212 243 354 303zM275 516c-7 32 36 78 -14 85c-88 -56 -124 -156 -116 -265c17 -46 14 -116 74 -134c36 31 56 78 85 116c28 67 -4 138 -29 198zM495 534c-25 11 -15 42 -46 38c-54 -27 -36 -84 -36 -130c0 -64 74 -35 106 -75
c11 -27 18 -70 7 -98c-4 -25 -14 -49 -39 -57c-25 4 -67 -10 -85 21c0 18 -3 39 18 50c15 7 32 4 42 -3c25 3 18 31 22 49c-11 14 -29 18 -46 21c-39 0 -60 -25 -85 -50c-18 -60 -95 -98 -81 -162c70 -53 183 -63 258 -18c85 57 155 138 127 247c-17 78 -84 142 -162 167z
" />
    <glyph glyph-name="P" unicode="P" horiz-adv-x="992" 
d="M699 793c66 0 111 -66 153 -108c8 -4 16 -4 29 -4c8 12 12 37 33 41c20 0 29 -16 33 -29c8 -70 -79 -90 -83 -156c-45 -100 66 -157 66 -248c-21 -116 -82 -248 -202 -289c-58 -9 -116 -21 -170 -42c-41 -4 -33 62 -78 46c-33 -54 -33 -133 -54 -195
c-12 -4 -20 -16 -33 -4l-16 29c12 75 8 157 4 232c-17 33 -54 24 -83 33c-45 -9 -91 -33 -111 -75c-17 -37 24 -82 -9 -107c-33 -12 -49 21 -66 41c4 83 66 153 145 190c33 37 115 8 120 75c12 20 -33 37 -5 49c17 112 17 265 -33 372c-28 41 -70 45 -115 54
c-42 -21 -83 -54 -108 -100c-12 -57 38 -90 75 -111c29 -4 53 -29 70 -54c21 -53 4 -111 -29 -153c-41 -29 -74 -82 -128 -57c-17 70 103 37 83 115c-50 50 -141 75 -141 161c-8 91 33 170 108 219c66 42 144 58 218 58c75 8 91 -157 149 -54c46 54 103 95 178 71zM831 611
c-91 -8 -140 78 -227 95c-42 -8 -66 -50 -91 -79c-21 -132 -29 -280 -25 -409c-45 -111 103 -119 157 -173c50 -17 91 12 124 41c50 108 8 232 -37 331c-4 82 74 124 99 194z" />
    <glyph glyph-name="Q" unicode="Q" horiz-adv-x="788" 
d="M421 756c7 -4 17 -4 25 -14c-11 -42 -60 -64 -60 -110c3 -14 -4 -42 17 -45c46 24 74 74 110 116c-4 14 14 18 24 28c74 -21 -39 -81 21 -120c78 -42 170 -113 188 -205c32 -109 -60 -173 -103 -254c-19 -14 143 -141 125 -159c-29 -31 -120 78 -196 72
c-87 -7 -153 -88 -208 -72c-113 11 -215 64 -275 162c-46 89 -81 205 -21 298c71 144 212 243 353 303zM269 509c-7 31 35 78 -14 85c-89 -57 -124 -156 -116 -265c17 -47 13 -117 74 -134c35 31 56 77 84 116c29 67 -4 138 -28 198zM488 527c-24 10 -14 42 -46 38
c-53 -28 -35 -85 -35 -130c0 -64 73 -36 106 -75c11 -28 18 -70 7 -98c-4 -25 -14 -50 -40 -57c-24 4 -67 -10 -84 21c0 18 -3 39 17 50c15 6 33 3 43 -4c24 4 18 32 21 50c-10 14 -28 17 -46 21c-38 0 -60 -25 -85 -50c-17 -60 -95 -98 -80 -162c70 -53 183 -63 258 -18
c26 18 -21 67 0 89c10 10 53 -15 66 -6c49 36 76 103 61 164c-18 78 -85 142 -163 167z" />
    <glyph glyph-name="R" unicode="R" horiz-adv-x="738" 
d="M546 756c48 -17 14 -102 82 -105c23 -17 26 -47 23 -71c-7 -68 -64 -102 -105 -149c41 -95 75 -190 102 -288c13 -21 77 10 50 -34l-128 -105c-17 -3 -34 4 -34 17c54 101 -27 200 -41 298c-24 20 -41 67 -85 57c-33 -77 -108 -104 -159 -165c-3 -55 58 -62 89 -99
c37 -14 53 51 87 20c-20 -34 -64 -44 -91 -74c-37 -10 -44 -98 -95 -64c41 51 -24 87 -58 108l-57 13c-21 -13 -34 -44 -61 -34c-13 7 -7 28 -3 34c114 79 244 174 250 326c7 47 -6 105 -34 149c-34 27 -71 61 -119 37c-20 -7 -44 -17 -60 -37c-10 -44 27 -81 60 -102
c45 -17 62 -64 62 -108c-14 -51 -58 -108 -112 -118c-27 0 -54 6 -74 30c-4 17 3 37 23 40c24 -6 51 -36 74 -13c24 13 7 40 0 61c-33 27 -77 47 -94 95c0 92 34 203 121 247c48 14 102 17 147 -7c34 -17 47 -54 74 -75c50 38 105 89 166 116zM560 573
c-48 21 -99 67 -150 34c-30 -27 -7 -71 3 -98c0 -34 -16 -68 14 -92c58 -10 88 48 126 78c17 21 24 58 7 78z" />
    <glyph glyph-name="S" unicode="S" horiz-adv-x="832" 
d="M346 756c118 0 268 -13 333 -137c16 -22 39 4 59 7c6 -7 6 -20 3 -26c-56 -23 -104 -69 -140 -117c-7 -10 -17 -10 -27 -10c-29 32 34 61 4 104c-62 104 -179 124 -283 107c-79 -32 -137 -114 -140 -201c0 -23 22 -63 -7 -76l-19 26c-33 -84 19 -159 58 -228
c85 -84 183 -130 293 -162c72 -10 147 6 195 55c36 49 60 101 36 163c-81 127 -254 95 -378 75c-42 10 -100 -7 -130 49c-22 45 -29 117 3 162c20 27 47 43 72 53c30 6 46 -13 68 -20c24 -29 40 -75 27 -110c-59 -40 -16 55 -46 77c-23 27 -49 10 -74 0
c-24 -22 -43 -55 -27 -87c0 -17 17 -27 30 -30c74 -3 146 23 214 23c95 -10 212 0 277 -78c49 -62 36 -170 0 -234c-6 0 -16 -7 -22 -13c-7 -69 -82 -101 -131 -130c-176 -34 -358 3 -475 139c-111 147 -69 368 7 518c19 3 26 -7 32 -16c48 65 117 98 188 117z" />
    <glyph glyph-name="T" unicode="T" horiz-adv-x="1031" 
d="M337 754c154 14 268 -47 383 -132c78 -29 164 -50 250 -32c14 0 18 -18 11 -29c-104 -32 -233 -21 -347 -8c-64 22 -129 40 -190 65c-107 -86 -161 -225 -128 -361c25 -79 64 -146 139 -186c86 -50 168 -14 243 32c65 47 94 115 125 179c11 10 26 10 36 0
c-28 -132 -154 -271 -293 -290c-111 -21 -225 11 -303 97c-54 57 -65 136 -58 211c25 132 104 240 197 329c-22 46 -93 46 -143 50c-65 -7 -126 -39 -161 -93c-29 -64 71 -104 39 -175c-18 -25 -15 -65 -46 -72c-15 0 -22 11 -26 22c11 32 47 71 15 103
c-28 29 -36 68 -32 111c43 122 182 143 289 179z" />
    <glyph glyph-name="U" unicode="U" horiz-adv-x="687" 
d="M152 755c47 -5 129 18 143 -31c5 -6 -6 -20 -23 -23c-19 0 -47 12 -66 0c-40 -17 5 -43 5 -63c61 -77 122 -177 58 -265c-40 -47 -70 -98 -110 -141c16 -17 63 -3 86 -11c81 -17 90 -89 172 -100c35 60 120 120 71 188c-51 55 -61 117 -36 181c29 37 59 71 79 108
c-56 26 -98 57 -148 92c-9 37 50 43 77 57c28 3 51 -6 71 -17c23 -35 82 -52 126 -72c3 -37 -63 -54 -75 -88c-35 -29 -56 -69 -35 -106c38 -46 66 -98 66 -155c-28 -125 -168 -205 -253 -314c-13 -11 -27 -9 -45 -9c-26 32 -15 75 -46 106c-58 49 -145 57 -227 54
c-16 9 -12 29 -4 38c54 60 141 111 156 185c19 138 -195 258 -42 386z" />
    <glyph glyph-name="V" unicode="V" horiz-adv-x="797" 
d="M593 746c32 -18 79 -37 98 -76c84 -139 87 -313 36 -465c-106 -73 -218 -127 -316 -207c-18 -4 -36 -22 -54 -4c-15 47 -11 98 -55 127c-36 25 -79 51 -127 33c-15 -11 -26 -44 -47 -33c-36 40 21 62 36 94c80 4 80 95 123 142c29 69 26 160 -3 225
c-33 55 -95 69 -145 62c-22 -18 -47 -47 -37 -76c11 -62 91 -22 102 -88c-4 -47 29 -87 -4 -127c-28 -28 -65 -68 -112 -54c-15 7 -15 26 -4 33c29 7 73 21 76 57c-28 44 -105 30 -123 95c-7 98 36 182 116 247c55 30 113 15 160 -18c26 -15 51 -80 87 -47
c62 32 109 120 193 80zM636 470c-28 73 -62 185 -163 185c-33 -15 -62 -44 -70 -80c23 -58 19 -127 8 -189c-14 -69 -120 -69 -112 -141c32 -19 76 -19 101 -51c22 -33 40 -87 84 -99c47 30 76 70 120 106c47 76 50 171 32 269z" />
    <glyph glyph-name="W" unicode="W" horiz-adv-x="801" 
d="M406 744c106 48 177 -58 264 -90c22 6 12 51 48 54c20 0 39 -3 45 -22c10 -49 -42 -65 -74 -81c-71 -19 -135 26 -180 74c-32 23 -71 35 -106 13c-30 -32 -59 -65 -46 -109c10 -16 16 -39 33 -49c35 6 38 68 84 77c35 10 77 7 102 -19c23 -32 55 -42 81 -71
c38 -9 51 75 84 29c3 -29 -33 -41 -26 -70c-42 -17 -26 -71 -20 -97c36 -71 87 -151 43 -232c-59 -77 -162 -106 -239 -164c-29 -6 -16 29 -29 41c-32 40 -80 55 -123 46c-35 -16 -51 -65 -96 -55c-3 32 -35 58 -65 68c-28 3 -54 -16 -83 -7c-13 13 -26 32 -13 52
c39 22 109 -7 116 61c10 64 13 126 -32 170c-16 23 -42 26 -55 0c-26 -16 -29 -41 -32 -64c6 -42 93 -48 61 -103c-13 -13 -33 -10 -52 -6c-22 19 -41 32 -51 58c-20 64 13 115 51 158c-19 60 -87 122 -48 196c20 55 55 112 116 129c39 -3 74 -7 103 -33
c19 -22 23 -58 45 -74c23 46 42 93 94 120zM254 640c-16 42 -96 68 -112 14c-13 -62 9 -123 57 -149c42 26 65 84 55 135zM628 450c-71 0 -97 78 -164 84c-20 -6 -33 -19 -42 -35c-19 -61 38 -100 58 -152c32 -77 -58 -122 -46 -196c10 -13 20 7 33 3c38 0 61 -32 80 -61
c33 -19 58 16 91 25c67 94 -55 155 -52 245c-3 40 42 49 42 87zM393 215c32 120 -100 200 -107 319l-51 -45c-16 -39 16 -71 26 -103c15 -51 35 -116 0 -164c-7 -13 -4 -29 6 -36c33 -6 55 -35 77 -58c49 0 33 58 49 87z" />
    <glyph glyph-name="X" unicode="X" horiz-adv-x="461" 
d="M168 21l-9 -7c-41 -10 -86 -24 -109 -68c-11 -25 -21 -63 0 -87c13 -13 30 -24 51 -17c38 11 17 76 61 63c18 -22 8 -52 0 -77c-20 -31 -51 -48 -85 -48c-52 4 -79 55 -89 96c14 -25 -93 150 116 183c55 20 48 89 50 106c4 45 22 144 22 195l-148 -4l24 76h128
c0 40 -4 148 -13 184c-29 25 -121 -24 -102 25c50 44 25 166 118 142l74 -138c5 -19 19 0 34 0c34 40 10 148 93 118l20 -29c5 5 5 10 10 5c-5 -49 72 -49 43 -112c-25 -30 -39 -74 -83 -64c-20 24 -45 64 -74 39c-18 -38 -29 -124 -29 -170h173l-40 -76h-124
c6 -27 11 -176 22 -197c24 -49 64 47 93 27c29 -74 -83 -108 -68 -186c-24 -20 -50 -25 -69 -5c-10 24 -16 162 -45 181c-18 -33 -6 -115 -45 -155z" />
    <glyph glyph-name="Y" unicode="Y" horiz-adv-x="762" 
d="M224 800c77 -8 131 -58 169 -123c46 0 46 69 77 100c54 35 96 -19 142 -35c73 -69 100 -153 115 -242c0 -107 -23 -192 -34 -291c-93 -108 -200 -185 -296 -285c38 -53 115 -69 180 -88c31 12 66 27 77 62c-4 19 12 53 -11 69c-16 7 -39 15 -39 -8c19 -19 31 -50 19 -77
c-11 -15 -26 -4 -42 0c-34 23 -42 69 -38 108c15 19 31 50 61 46c39 -4 77 -23 100 -62c19 -42 -8 -96 -31 -130c-65 -62 -157 -46 -230 -27l-108 77c-61 -27 -119 -77 -195 -46c-20 11 -43 23 -54 46c-16 42 27 61 42 88c42 31 100 42 150 27c34 -4 61 -61 100 -23
c134 77 249 211 245 380c-3 111 -15 254 -142 296c-123 -39 -27 -188 -69 -281c-30 -46 -84 -76 -92 -130c50 -15 50 -131 115 -73c23 15 39 46 69 42c16 -8 20 -23 12 -34c-77 -35 -150 -96 -215 -142c-54 11 11 69 -42 96c-46 57 -116 -4 -173 23c-12 38 34 30 54 46
c65 11 146 57 161 130c27 96 19 211 -46 284c-23 35 -62 35 -96 43c-23 -4 -50 -16 -58 -43c16 -107 169 -111 146 -234c0 -34 -27 -57 -54 -77c-30 -7 -73 -34 -107 -4c8 39 92 35 46 93c-50 50 -123 103 -88 195c30 85 76 185 180 204zM282 -60c-23 23 -77 42 -108 11
c-4 -19 -19 -42 4 -57c15 -12 42 -4 58 0c15 15 50 19 46 46z" />
    <glyph glyph-name="Z" unicode="Z" horiz-adv-x="600" 
d="M356 800c67 -20 145 -55 181 -118c47 -94 0 -197 -67 -267c-36 -55 -102 -51 -126 -110c39 -48 102 -83 122 -146c35 -35 114 91 106 -8c-28 -47 -87 -35 -102 -86c-4 -79 -28 -158 -99 -205c-82 -67 -192 -70 -294 -47c-32 16 -40 47 -44 79c12 86 87 157 165 192
c40 20 103 0 134 32c-4 55 -55 102 -98 130c-59 23 -130 0 -193 7c-12 8 -16 28 -12 44c32 27 71 0 107 12c110 0 247 62 294 184c0 63 8 126 -47 169c-51 32 -118 52 -173 28c-23 -24 -59 -51 -43 -87c20 -39 94 -70 67 -129c-8 -51 -67 -71 -102 -99
c-36 4 -87 -19 -103 20c-7 16 8 24 16 28c32 -8 63 -12 91 3c15 8 15 24 15 40c-27 27 -74 16 -86 55c0 82 39 141 102 193c55 51 130 43 189 86zM348 29l-4 24c-47 -8 -83 0 -126 -16c-55 -27 -98 -82 -102 -145c23 -106 106 4 161 0c43 39 59 86 71 137z" />
    <glyph glyph-name="backslash" unicode="\" horiz-adv-x="559" 
d="M139 532c53 -8 79 -49 98 -94c30 -75 -11 -151 -68 -207c-4 -35 23 -49 41 -72c16 -15 49 -4 61 -11c0 -46 -49 -42 -72 -72c-34 -19 -41 -68 -75 -64c-42 19 -4 60 -23 83c-19 30 -64 34 -68 68c23 45 72 71 106 117c15 18 19 45 11 67c-19 53 -132 42 -83 117
c27 19 34 64 72 68zM471 524c33 4 56 -22 71 -45c0 -34 -15 -60 -34 -86c-26 -16 -49 41 -72 0c-34 -76 -30 -185 19 -253c27 19 42 49 75 27c12 -12 12 -34 0 -46c-82 -22 -59 -124 -135 -139c-19 19 -4 49 -15 75c-113 80 -68 226 -49 343c45 49 98 71 140 124z" />
    <glyph glyph-name="quoteleft" unicode="&#x2018;" horiz-adv-x="234" 
d="M182 646c0 0 -1 -148 -69 -171c-22 -7 -38 -11 -61 -5c-66 17 3 135 65 164c23 10 43 5 65 12z" />
    <glyph glyph-name="a" unicode="a" horiz-adv-x="478" 
d="M288 551c49 -8 33 -86 94 -86c41 -29 -16 -54 -16 -82c-17 -70 -4 -152 20 -218c17 -24 45 -20 70 -24c-12 -45 -45 -83 -70 -123c-74 -33 -65 73 -102 106c4 12 -5 17 -8 25c-74 -25 -79 -111 -136 -148c-61 12 -61 86 -94 127c-62 107 8 218 69 296
c46 65 119 77 173 127zM284 371c-5 36 -54 32 -82 53c-25 -17 -46 -37 -58 -66c-37 -78 17 -139 41 -205c103 28 41 143 99 218z" />
    <glyph glyph-name="b" unicode="b" horiz-adv-x="360" 
d="M173 793c16 0 39 -4 36 -24c-5 -42 -52 -46 -68 -82c-23 -55 -23 -121 -27 -187c4 -9 11 -12 20 -20c55 0 47 97 109 70c5 -66 87 -94 87 -164c39 -91 -19 -182 -64 -255c-57 -36 -96 -105 -157 -130c-25 28 -23 91 -77 71l-15 23c0 102 35 241 -31 330
c18 141 34 307 187 368zM236 261c-11 62 -32 136 -95 159c-16 -2 -23 -18 -32 -34c13 -66 29 -150 29 -220c3 -16 16 -35 35 -32c47 24 67 79 63 127z" />
    <glyph glyph-name="c" unicode="c" horiz-adv-x="312" 
d="M194 548c41 12 79 -17 104 -46c-4 -37 -21 -79 -63 -87c-29 0 -33 41 -67 37c-45 -58 -37 -142 -33 -213c21 -38 42 -83 83 -104c17 8 34 16 50 12c13 -8 13 -25 0 -33c-50 -34 -66 -105 -129 -113c-58 100 -117 112 -117 317c-46 126 117 155 172 230z" />
    <glyph glyph-name="d" unicode="d" horiz-adv-x="438" 
d="M221 745c50 -17 105 -38 130 -88c54 -100 91 -233 46 -350c4 -142 -133 -238 -226 -321c-62 0 -20 79 -54 109c-24 53 -104 70 -91 133c29 38 104 79 91 125c-46 21 -100 37 -129 83c-38 80 -42 192 21 259c46 66 142 71 212 50zM288 632c-50 55 -137 79 -204 38
c-41 -25 -75 -63 -62 -113c12 -29 37 -58 75 -62c54 -16 96 -25 146 -38c29 -24 37 -50 75 -58c29 79 -9 162 -30 233zM305 257c-25 50 -87 88 -134 50c-20 -67 55 -108 84 -162c37 24 42 70 50 112z" />
    <glyph glyph-name="e" unicode="e" horiz-adv-x="348" 
d="M295 551c12 0 28 -4 28 -16c-59 -63 70 -157 -32 -193c-59 -35 -149 -34 -141 -120c15 -40 47 -103 90 -103c19 20 39 44 67 35c31 -55 -51 -55 -75 -94c-12 -19 -19 -47 -43 -58c-70 -8 -75 70 -110 106c-39 66 -32 148 -32 231c0 230 173 149 248 212zM256 454
c-4 7 -51 -21 -63 -21c-16 -15 -59 -59 -44 -90l88 28c20 15 27 55 19 83z" />
    <glyph glyph-name="f" unicode="f" horiz-adv-x="319" 
d="M362 793c24 -14 61 -28 70 -61c-4 -42 -51 -56 -84 -65c-42 23 -88 46 -140 37c-46 -23 -42 -84 -37 -131c9 -32 37 -65 70 -74c19 -5 37 0 51 -24c5 -18 -14 -32 -28 -42c-28 10 -51 -14 -56 -37c-9 -200 -37 -382 -42 -574c-14 -18 -32 -28 -51 -18
c-42 116 -23 224 -28 350c-33 93 33 228 -61 289c-9 9 -4 18 -4 28c102 42 37 158 112 224c60 70 130 126 228 98z" />
    <glyph glyph-name="g" unicode="g" horiz-adv-x="419" 
d="M296 534c87 75 66 -62 92 -100c3 -37 -47 -33 -50 -71c-4 -186 140 -415 -54 -555c-54 -34 -150 -25 -208 3c-33 30 -46 71 -29 109c13 12 25 28 41 16c29 -24 17 -87 67 -99c49 4 120 8 149 66c25 71 -20 141 -58 199c-91 25 -62 -141 -153 -87
c-92 104 -113 291 -50 407c83 25 149 158 253 112zM242 393c-25 37 -87 66 -120 8c-25 -87 -5 -182 54 -249c16 -13 41 4 45 25c-4 75 21 137 21 216z" />
    <glyph glyph-name="h" unicode="h" horiz-adv-x="446" 
d="M133 727c54 71 157 96 232 50c37 -50 70 -99 58 -166c-13 -20 -25 -41 -50 -49c-21 0 -45 4 -50 -21c13 -71 79 -112 67 -191c16 -62 20 -153 -25 -207c-50 -58 -141 -108 -153 -195c-5 -41 41 -82 4 -120c-21 -12 -50 -37 -75 -25c-4 13 -4 29 4 38c71 33 -25 91 25 141
c21 66 87 95 120 157c0 12 9 29 -8 37c-83 -16 -119 -226 -219 -176c-91 75 24 255 -13 359c25 58 -70 107 -8 157c41 66 41 149 91 211zM282 682c-8 20 -33 49 -62 45c-17 -16 -42 -33 -46 -54c0 -49 -20 -116 21 -149c33 25 79 38 104 75c4 29 0 58 -17 83zM282 317
c-12 54 -29 104 -70 145c-13 4 -25 17 -42 8c-12 -82 -44 -230 -36 -312c12 -13 57 -11 86 18c29 46 79 75 62 141z" />
    <glyph glyph-name="i" unicode="i" horiz-adv-x="238" 
d="M167 753c15 0 46 -68 50 -84c-4 -31 -34 -66 -61 -70c-9 -3 -52 4 -45 19c5 27 32 119 56 135zM101 529c19 4 43 -12 50 -35c5 -28 27 -59 5 -86l-12 -252c3 -27 34 -24 54 -27v-32c-47 -31 -63 -78 -101 -105c-35 15 -44 62 -71 89c-11 66 5 137 12 202
c-7 40 40 117 -39 129c4 63 71 74 102 117z" />
    <glyph glyph-name="j" unicode="j" horiz-adv-x="238" 
d="M205 744c17 0 46 -48 50 -65c-4 -35 -26 -74 -56 -78c-10 -4 -51 24 -43 41c5 30 22 85 49 102zM142 544c21 4 44 -34 52 -60c5 -31 30 -65 5 -95l-13 -281c3 -30 -11 -118 -49 -178c-40 -64 -122 -155 -152 -125c-5 25 77 191 78 217c2 50 0 180 5 228
c-8 44 44 130 -43 143c4 70 82 103 117 151z" />
    <glyph glyph-name="k" unicode="k" horiz-adv-x="346" 
d="M276 770c58 -8 136 -4 161 -62c8 -37 -10 -74 -37 -93c-21 0 -25 23 -21 41c3 19 7 44 -16 55c-29 15 -66 15 -95 4c-48 -37 -122 -92 -103 -159c41 -22 66 26 99 34c22 3 56 11 63 -16c3 -33 -4 -73 -18 -99c-15 -18 -104 -69 -17 -66c26 -8 15 -37 4 -45
c-29 -33 -127 1 -131 -58c29 -56 -23 -147 44 -184c18 7 34 18 51 18c12 -8 8 -26 4 -33c-51 -37 -88 -103 -147 -107c-15 29 -41 48 -59 74c-22 99 51 225 -37 302c-3 29 34 29 34 59c3 143 84 283 221 335zM239 490c-8 15 -15 22 -30 22c-18 -4 -44 -15 -40 -37
c0 -29 22 -11 37 -21c14 10 29 14 33 36z" />
    <glyph glyph-name="l" unicode="l" horiz-adv-x="335" 
d="M270 768c27 -8 59 -8 82 -27c15 -43 35 -113 -8 -148c-58 -70 -186 -81 -205 -186l19 -221c4 -12 15 -19 23 -32c31 0 55 55 82 16c0 -50 -59 -50 -82 -85s-50 -97 -97 -85c-15 23 -15 50 -23 73c-36 101 4 225 -19 334c-17 19 -36 43 -17 62c36 31 28 82 47 117
c59 66 94 186 198 182zM263 644c-8 15 -12 46 -35 39c-51 -31 -86 -90 -66 -148h11c43 24 93 58 90 109z" />
    <glyph glyph-name="m" unicode="m" horiz-adv-x="686" 
d="M100 551c20 -4 43 -8 47 -28c-12 -35 4 -66 27 -89c59 15 86 66 137 97c67 8 32 -113 106 -82c35 28 58 122 109 95c4 -63 82 -36 90 -86c-20 -90 -35 -204 -16 -294c12 -39 47 0 55 -35c-51 -39 -47 -148 -129 -125c-55 94 -23 207 -27 313c-4 23 15 90 -16 106
c-27 0 -55 -9 -71 -40c-26 -74 -15 -156 -11 -230c16 -24 51 -32 31 -63c-43 -27 -62 -93 -121 -86c-20 36 -35 71 -78 82c-63 4 -63 -113 -133 -74c-8 39 -82 63 -43 113c28 51 28 117 28 176c11 59 -78 86 -47 148c19 35 23 78 62 102zM280 360c-4 19 -15 66 -51 50
c-23 -11 -39 -39 -47 -62c20 -74 -35 -207 59 -230c70 62 43 160 39 242z" />
    <glyph glyph-name="n" unicode="n" horiz-adv-x="524" 
d="M33 472c62 9 91 120 157 62c0 -29 -4 -57 8 -78c70 -46 100 54 145 87c54 24 50 -58 95 -58c45 -30 14 -60 0 -97c-10 -25 -15 -175 8 -212c8 -13 31 -21 46 -30c16 -9 4 -29 0 -38c-71 -20 -33 -136 -116 -99c-50 38 -66 87 -58 141c25 66 -12 153 0 223
c-4 17 -20 37 -37 42c-29 3 -58 -17 -70 -42c-17 -78 0 -157 -17 -236c0 -33 50 -37 37 -74c-33 -21 -53 -62 -91 -62c-37 17 -58 54 -91 74c6 18 23 37 27 57c16 84 2 182 2 262c-17 20 -70 49 -45 78z" />
    <glyph glyph-name="o" unicode="o" horiz-adv-x="374" 
d="M226 551c30 -8 7 -38 30 -53c84 -46 107 -138 99 -233c-38 -100 -148 -164 -190 -260c-61 -23 -31 50 -54 73c-72 57 -110 148 -87 244c41 99 126 153 202 229zM260 288c-19 50 -46 111 -107 118c-19 -11 -38 -34 -45 -57c-19 -69 38 -123 68 -164c23 -4 46 -12 65 4
c23 26 19 64 19 99z" />
    <glyph glyph-name="p" unicode="p" horiz-adv-x="395" 
d="M274 544l72 -104c43 -87 39 -187 4 -274c-53 -57 -107 -115 -179 -127c-23 -84 -8 -168 -27 -252c-8 -11 -26 -11 -34 0c-54 108 22 241 -88 322c3 33 38 57 42 91c-4 80 19 176 -46 237c-3 50 50 69 73 99c23 4 41 -8 45 -27c0 -22 16 -38 31 -53c61 8 31 118 107 88z
M297 296c-23 41 -31 114 -95 114c-62 -57 -12 -145 -31 -225c8 -35 45 -43 68 -54c54 31 69 99 58 165z" />
    <glyph glyph-name="q" unicode="q" horiz-adv-x="395" 
d="M42 425l72 103c76 31 46 -80 107 -87c15 15 31 30 31 53c4 19 22 30 45 27c23 -30 76 -50 73 -100c-65 -61 -42 -156 -46 -236c4 -35 39 -58 42 -92c-110 -80 -34 -214 -88 -321c-8 -11 -26 -11 -34 0c-19 84 -4 168 -27 252c-72 11 -119 -62 -172 -5
c-35 87 -46 318 -3 406zM186 395c-64 0 -63 -112 -86 -154c19 -77 -5 -95 49 -125c23 11 60 19 68 53c-19 81 31 168 -31 226z" />
    <glyph glyph-name="r" unicode="r" horiz-adv-x="324" 
d="M278 545l31 -106c-11 -23 -4 -82 -51 -59c-15 13 -31 28 -55 16l-15 -23c4 -74 -16 -157 15 -219c16 -16 63 -12 40 -47l-82 -106c-47 15 -52 109 -122 94c-31 39 35 59 51 90c-11 66 32 180 -63 211c-39 51 24 86 32 134c8 7 35 7 43 0c35 -28 39 -71 78 -83
c47 28 23 129 98 98z" />
    <glyph glyph-name="s" unicode="s" horiz-adv-x="339" 
d="M150 254c-2 1 -84 2 -84 2s1 -9 1 0c-3 39 -41 51 -52 92c54 69 135 106 168 192c16 16 33 12 49 4c24 -33 28 -69 57 -98c-2 -2 -78 -69 -78 -69s-1 -10 0 0c-8 24 -32 32 -53 32c-16 -8 -24 -29 -24 -49c8 -16 4 -49 33 -45c14 5 1 1 1 1s98 9 100 7
c49 -32 61 -81 54 -138c-21 -90 -115 -143 -192 -184c-41 12 -78 41 -98 74c3 38 20 86 29 128c2 9 -2 2 -2 2s75 7 78 7c-3 -34 6 -70 17 -101c16 -12 45 -20 62 -4c20 29 16 66 3 98c-16 20 -36 49 -69 49z" />
    <glyph glyph-name="t" unicode="t" horiz-adv-x="298" 
d="M153 672l20 -19c-5 -21 -14 -41 -9 -60c19 -35 136 -19 142 -63c-6 -30 -21 -64 -59 -64c-30 5 -88 12 -99 -22l4 -309c26 -44 83 18 121 14c-8 -54 -53 -99 -79 -149c-49 -45 -59 30 -103 45c-65 29 -45 114 -55 168c0 80 37 178 -13 253c-9 34 20 68 45 78
c63 53 17 103 85 128z" />
    <glyph glyph-name="u" unicode="u" horiz-adv-x="441" 
d="M320 549c37 11 22 -30 26 -52c11 -30 71 -19 44 -59c-33 -30 -7 -82 -25 -116c-4 -52 -11 -100 7 -149c15 -18 52 -3 48 -37c-26 -44 -44 -123 -100 -126c-4 41 -37 63 -63 85c-74 12 -82 -171 -153 -55c-26 22 -67 -19 -81 22c-8 37 3 67 22 93c-4 93 37 190 -22 264
c-12 59 48 78 78 115c14 11 36 0 40 -15c-7 -22 11 -37 15 -52c-7 -89 -4 -197 -15 -282c8 -27 23 -49 49 -56c52 -4 52 56 71 89c3 71 37 171 -42 205c0 52 68 89 101 126z" />
    <glyph glyph-name="v" unicode="v" horiz-adv-x="339" 
d="M65 546c23 18 61 49 90 22c-8 -42 -83 -45 -83 -100c3 -38 14 -79 45 -110c38 21 57 98 93 129c7 18 13 42 38 49c16 7 37 -10 37 -28c-11 -45 24 -79 35 -116c23 -80 17 -217 -21 -286c-47 -45 -100 -110 -165 -137c-21 -4 -28 20 -34 38c0 48 -63 20 -66 65
c90 166 -144 333 31 474zM234 247c-20 31 -11 127 -56 140c-17 -6 -34 -64 -44 -81c21 -86 -38 -196 69 -234c44 40 34 114 31 175z" />
    <glyph glyph-name="w" unicode="w" 
d="M132 552c13 4 31 -6 31 -23c-11 -40 -70 -90 -14 -129c47 -4 61 103 91 127c17 17 37 7 50 -7c27 -23 30 -53 60 -77c37 27 20 101 76 101c21 -27 40 -60 70 -87c53 -53 29 -201 6 -260c-30 -67 -97 -153 -157 -197c-49 -6 -60 106 -119 77c-34 -24 -40 -90 -87 -70
c10 66 -100 60 -60 133c20 86 -17 169 -46 246c0 73 36 133 99 166zM262 197c-3 59 11 197 -55 217c-13 -7 -25 -74 -31 -84c-4 -64 6 -104 -7 -164c3 -26 27 -43 50 -50c27 14 43 47 43 81zM433 370c-7 14 -27 34 -50 31c-6 -7 -23 -4 -23 -20c-4 -57 -15 -174 -15 -234
c3 -17 14 -67 37 -60c60 43 71 210 51 283z" />
    <glyph glyph-name="x" unicode="x" horiz-adv-x="355" 
d="M126 552l56 -107c4 -14 15 0 27 0c26 31 7 114 71 91l16 -22c4 4 4 8 7 4c-3 -38 53 -69 30 -117c-19 -23 -30 -57 -64 -50c-15 19 -34 50 -56 31c-31 -64 -23 -159 7 -215c19 -38 49 -4 72 -20c22 -57 -61 -83 -49 -143c-19 -15 -42 -19 -57 -4c-7 19 -15 42 -37 57
c-42 3 -42 -46 -61 -72c-30 -79 71 -109 53 -185c-15 -19 -42 -19 -61 -11c-38 34 -52 87 -64 140c8 68 30 128 72 181c7 79 7 181 -12 260c-22 19 -56 35 -41 72c38 34 19 128 91 110z" />
    <glyph glyph-name="y" unicode="y" horiz-adv-x="460" 
d="M294 544c30 -44 78 -89 96 -144c18 -89 55 -204 -4 -285c-107 -70 -210 -246 -303 -323c-15 -5 -23 15 -23 25l4 22c70 49 160 203 226 254c8 92 67 206 -7 288c-26 -3 -59 0 -70 -29c-4 -67 -27 -152 15 -215c25 0 44 48 66 12c-41 -53 -100 -104 -130 -163
c-62 4 -3 96 -77 93c-7 47 44 85 25 139c0 71 -25 134 -62 185c11 52 33 108 74 141c62 -3 30 -85 66 -111c63 15 15 140 104 111z" />
    <glyph glyph-name="z" unicode="z" horiz-adv-x="286" 
d="M17 476c61 41 208 113 240 49l4 -110c-27 -50 -69 -95 -111 -137c0 -23 12 -50 34 -54c23 0 47 23 65 4c19 -15 8 -42 -4 -53c-30 -39 0 -103 0 -153c0 -87 -41 -160 -102 -221c-16 -15 -43 -19 -61 -11c-42 27 -50 84 -66 129c0 76 24 141 58 203c4 49 -103 30 -64 94
c41 54 169 114 146 198c-4 34 -72 25 -136 35c7 4 -15 19 -3 27zM143 68c-84 -12 -65 -110 -57 -167c11 -12 11 -35 30 -31c61 49 31 129 27 198z" />
    <glyph glyph-name="braceleft" unicode="{" horiz-adv-x="301" 
d="M263 -29v-54h-59c-46 0 -92 43 -92 117v108c0 66 -31 114 -74 115v54c43 2 74 50 74 116v108c0 74 46 117 92 117h59v-54h-45c-32 0 -42 -40 -42 -81v-106c1 -88 -55 -121 -73 -126v-2c18 -4 74 -37 73 -126v-106c0 -40 10 -80 42 -80h45z" />
    <glyph glyph-name="bar" unicode="|" horiz-adv-x="200" 
d="M67 -5v687h65v-687h-65z" />
    <glyph glyph-name="braceright" unicode="}" horiz-adv-x="301" 
d="M38 598v54h58c46 0 93 -43 93 -117v-108c0 -66 31 -114 74 -116v-54c-43 -1 -74 -49 -74 -115v-108c0 -74 -47 -117 -93 -117h-58v54h45c31 0 41 40 41 80v106c-1 89 56 122 74 126v2c-18 5 -75 38 -74 126v106c0 41 -10 81 -41 81h-45z" />
    <glyph glyph-name="asciitilde" unicode="~" 
d="M445 293l33 -54c-26 -40 -60 -76 -112 -76c-37 0 -67 15 -98 31c-30 16 -61 31 -99 31c-39 0 -60 -34 -75 -67l-32 54c23 44 57 78 109 78c36 0 72 -16 104 -30c34 -15 63 -31 88 -31c39 0 64 33 82 64z" />
    <glyph glyph-name="fraction" unicode="&#x2044;" horiz-adv-x="453" 
d="M268 797c58 14 97 -26 128 -66c9 -13 1 -103 1 -116c-27 -40 -112 -2 -104 78c-22 22 -65 29 -91 -2c-35 -35 -49 -75 -62 -114c93 -212 -26 -459 -9 -684c-4 -27 9 -80 -31 -93l-26 35c0 190 -26 375 -22 565c-102 102 66 146 53 243c22 75 106 115 163 154zM341 529
c19 4 43 -12 50 -35c5 -28 27 -59 5 -86l-12 -252c3 -27 34 -24 54 -27v-32c-47 -31 -63 -78 -101 -105c-35 15 -44 62 -71 89c-11 66 5 137 12 202c-7 40 40 117 -39 129c4 63 71 74 102 117z" />
    <glyph glyph-name="florin" unicode="&#x192;" horiz-adv-x="658" 
d="M409 767c67 25 155 29 217 -17c13 -38 -42 -71 -67 -88c-45 0 -66 55 -112 50c-29 -4 -63 -16 -75 -50c-21 -75 -4 -137 37 -195c25 4 63 4 75 -17c-4 -50 -70 -33 -83 -79c-21 -179 -33 -367 -37 -554c-9 -13 -17 -17 -30 -17c-50 58 -16 154 -29 221
c-16 104 -16 212 -8 316c-13 25 -17 59 -50 59c-29 4 -58 -9 -71 -38l-33 -521c-4 -8 -17 -12 -29 -8l-21 21c8 167 -9 350 -29 512c-21 21 -55 59 -17 88c33 83 29 179 87 250c25 42 71 83 117 100c54 -8 108 -17 158 -33zM314 654c-17 46 -88 92 -125 38
c-42 -42 -38 -109 -25 -159c0 -50 50 -71 95 -62c42 54 59 116 55 183z" />
    <glyph glyph-name="currency" unicode="&#xa4;" horiz-adv-x="468" 
d="M7 103l50 52c-31 38 -46 83 -46 134c0 48 13 99 47 134l-51 51l42 42l51 -50c35 30 86 46 134 46c50 0 99 -16 133 -46l51 51l44 -44l-50 -48c31 -35 45 -86 45 -136c0 -49 -14 -97 -45 -135l49 -51l-41 -40l-49 52c-36 -33 -86 -49 -137 -49c-50 0 -99 15 -137 48
l-48 -52zM392 289c0 87 -71 158 -158 158s-158 -71 -158 -158s71 -159 158 -159s158 72 158 159z" />
    <glyph glyph-name="quotesingle" unicode="'" horiz-adv-x="234" 
d="M87 470v176h60v-176h-60z" />
    <glyph glyph-name="quotedblleft" unicode="&#x201c;" horiz-adv-x="301" 
d="M313 646c0 0 -1 -148 -69 -171c-22 -7 -38 -11 -61 -5c-66 17 3 135 65 164c23 10 43 5 65 12zM157 646c0 0 0 -148 -68 -171c-22 -7 -38 -11 -61 -5c-66 17 3 135 65 164c22 10 43 5 64 12z" />
    <glyph glyph-name="guillemotleft" unicode="&#xab;" horiz-adv-x="350" 
d="M328 96l-38 -34l-140 167l146 126l41 -27l-119 -99zM233 56l-42 -33c-54 71 -119 137 -178 206l195 174l41 -28l-165 -146c49 -57 94 -122 149 -173z" />
    <glyph glyph-name="guilsinglleft" unicode="&#x2039;" horiz-adv-x="283" 
d="M219 403l41 -28l-166 -146c50 -57 95 -122 150 -173l-42 -33c-54 71 -119 137 -179 206z" />
    <glyph glyph-name="guilsinglright" unicode="&#x203a;" horiz-adv-x="283" 
d="M23 375l42 28l195 -174c-59 -69 -124 -135 -178 -206l-42 33c54 51 99 116 149 173z" />
    <glyph glyph-name="fl" unicode="&#xfb02;" horiz-adv-x="571" 
d="M330 407c-8 9 -30 21 -48 32c-8 0 -18 -6 -18 -6c-28 10 -51 -14 -56 -37c-9 -200 -37 -382 -42 -574c-14 -18 -32 -28 -51 -18c-42 116 -23 224 -28 350c-33 93 33 228 -61 289c-9 9 -4 18 -4 28c102 42 37 158 112 224c60 70 130 126 228 98c24 -14 61 -28 70 -61
c-4 -42 -51 -56 -84 -65c-42 23 -88 46 -140 37c-46 -23 -42 -84 -37 -131c9 -32 33 -75 66 -84c10 0 35 -4 58 -8c44 21 50 77 65 105c59 66 94 186 198 182c27 -8 59 -8 82 -27c15 -43 35 -113 -8 -148c-58 -70 -186 -81 -205 -186l19 -221c4 -12 15 -19 23 -32
c31 0 55 55 82 16c0 -50 -59 -50 -82 -85s-50 -97 -97 -85c-15 23 -15 50 -23 73c-36 101 4 225 -19 334zM551 644c-8 15 -12 46 -35 39c-51 -31 -86 -90 -66 -148h11c43 24 90 58 90 109z" />
    <glyph glyph-name="endash" unicode="&#x2013;" horiz-adv-x="450" 
d="M-4 141l4 105s71 21 116 30c128 26 334 26 334 26v-121s-52 17 -86 23c-142 25 -368 -63 -368 -63z" />
    <glyph glyph-name="dagger" unicode="&#x2020;" horiz-adv-x="592" 
d="M164 593c18 -34 126 -21 141 -58c17 5 32 10 39 16c48 48 9 67 55 120c85 -21 -21 -90 83 -153c31 -14 62 22 80 -14c13 -26 -18 -39 -18 -61c-31 -35 -105 5 -110 -57c-17 -57 22 -109 0 -162c5 -31 14 -66 40 -92c17 -26 83 31 70 -35c-53 -26 -75 -105 -136 -101
c-13 53 -66 79 -79 136c-23 102 62 295 -59 347c-4 0 -9 -1 -15 -1c-30 5 -96 0 -107 -34l4 -309c26 -44 83 18 121 14c-8 -54 -53 -99 -79 -149c-49 -45 -59 30 -103 45c-65 29 -45 114 -55 168c0 80 37 178 -13 253c-9 34 20 68 45 78c63 53 17 103 85 128l20 -19
c-5 -21 -14 -41 -9 -60z" />
    <glyph glyph-name="paragraph" unicode="&#xb6;" 
d="M384 -122c0 49 -18 126 -18 126c-102 0 -298 -66 -298 386c0 108 73 168 186 155c0 0 68 -13 111 -13c36 0 92 13 92 13s-73 -406 -18 -656c4 -31 18 -79 18 -79l-79 -22s6 55 6 90zM309 341c0 -115 -4 -193 64 -281v425c-37 -50 -64 -73 -64 -144z" />
    <glyph glyph-name="bullet" unicode="&#x2022;" horiz-adv-x="229" 
d="M194 378c13 -45 -13 -93 -58 -106s-93 13 -106 58s13 93 58 106s93 -13 106 -58z" />
    <glyph glyph-name="quotesinglbase" unicode="&#x201a;" horiz-adv-x="227" 
d="M268 797c58 14 97 -26 128 -66c9 -13 5 -31 5 -44c-27 -40 -84 -22 -120 -18c-22 22 -53 53 -79 22c-35 -35 -49 -75 -62 -114c93 -212 -26 -459 -9 -684c-4 -27 9 -80 -31 -93l-26 35c0 190 -26 375 -22 565c-102 102 66 146 53 243c22 75 106 115 163 154z" />
    <glyph glyph-name="quotedblbase" unicode="&#x201e;" horiz-adv-x="344" 
d="M175 -92c0 0 1 147 68 171c22 8 39 11 62 6c67 -17 -3 -136 -65 -165c-23 -10 -43 -5 -65 -12zM28 -92c0 0 1 147 68 171c22 8 38 11 61 6c67 -17 -2 -136 -64 -165c-23 -10 -44 -5 -65 -12z" />
    <glyph glyph-name="quotedblright" unicode="&#x201d;" horiz-adv-x="336" 
d="M175 470c0 0 0 148 68 171c21 7 36 10 58 5c66 -16 0 -137 -61 -165c-22 -10 -43 -4 -65 -11zM28 470c0 0 0 148 68 171c22 7 38 11 61 5c66 -17 -2 -137 -64 -165c-22 -9 -44 -4 -65 -11z" />
    <glyph glyph-name="guillemotright" unicode="&#xbb;" horiz-adv-x="350" 
d="M60 62l-38 34l110 133l-119 99l41 27l146 -126zM159 23l-42 33c55 51 100 116 149 173l-165 146l41 28l195 -174c-59 -69 -124 -135 -178 -206z" />
    <glyph glyph-name="ellipsis" unicode="&#x2026;" horiz-adv-x="900" 
d="M94 81l78 76l35 -98l-74 -64zM393 81l79 76l35 -98l-74 -64zM693 81l78 76l35 -98l-73 -64z" />
    <glyph glyph-name="questiondown" unicode="&#xbf;" horiz-adv-x="556" 
d="M322 800c62 4 86 -94 152 -45c45 20 94 53 143 37c29 -41 148 4 99 -82c-41 -33 -82 -107 -140 -70c-24 33 -69 82 -114 62c-62 0 -66 -62 -74 -103c-4 -53 0 -102 12 -147c21 -226 -16 -427 -53 -644c-8 -8 -25 -8 -33 -8c-33 25 -4 61 -4 94c12 168 -8 328 -29 492
c-16 20 -57 25 -41 57c25 21 58 17 74 50c0 73 70 176 -37 221c-32 8 -65 0 -90 -21c-102 -98 -8 -221 -12 -340c-4 -176 -49 -336 -45 -520c-12 -17 -25 -41 -45 -25c-17 37 -37 90 -13 135c-4 136 -24 291 -32 431c-17 28 -62 57 -37 94c65 20 57 94 74 143
c36 111 147 160 245 189z" />
    <glyph glyph-name="acute" unicode="&#xb4;" horiz-adv-x="233" 
d="M212 595l-134 -115l-29 32c41 43 82 87 118 134z" />
    <glyph glyph-name="dotaccent" unicode="&#x2d9;" horiz-adv-x="990" 
d="M591 550c72 0 114 -33 133 -65c21 -35 27 -79 27 -141c0 -71 12 -111 19 -128c10 -21 28 -34 50 -34c26 0 49 21 49 52c0 35 -13 50 -28 63c-9 5 -9 8 -4 15c6 8 20 17 38 17c32 0 65 -29 65 -80c0 -74 -74 -98 -133 -98c-18 0 -53 -16 -105 -44
c-56 -29 -128 -59 -191 -59c-114 0 -177 98 -177 152c0 60 34 87 84 108v2c-45 14 -108 43 -161 90c-15 -17 -35 -40 -51 -60c21 -6 42 -29 42 -53c0 -30 -17 -51 -36 -78c-27 -39 -38 -63 -38 -99c0 -26 8 -50 26 -65c10 -6 8 -11 -2 -10c-52 6 -114 36 -114 120
c0 22 6 45 10 57c2 8 0 12 -9 12c-7 0 -22 -6 -27 -12c-4 -3 -8 -3 -8 6c0 72 72 122 118 124c25 23 44 41 73 73c-47 46 -82 106 -82 182c0 102 65 155 110 155c27 0 37 -22 40 -41c8 -6 12 -12 14 -17c4 -11 -7 -15 -9 -10c-5 10 -14 15 -33 15c-28 0 -82 -35 -82 -116
c0 -19 2 -36 5 -52h2c7 50 41 69 70 69c38 0 65 -24 65 -64c0 -29 -18 -57 -37 -83c-6 -8 -15 -18 -28 -32c48 -43 126 -76 168 -78c-12 25 -16 46 -16 65c0 94 89 142 163 142zM267 574c-22 0 -48 -19 -48 -82c10 -20 24 -38 41 -55c29 34 42 68 42 91c0 25 -10 46 -35 46z
" />
    <glyph glyph-name="dieresis" unicode="&#xa8;" horiz-adv-x="374" 
d="M80 264c-17 -1 -31 -16 -44 -3s-1 28 1 45c2 20 -4 43 12 55c10 8 28 -6 40 -4c25 4 45 15 58 -6c10 -15 -7 -26 -12 -42c-3 -12 8 -30 -2 -40c-13 -14 -35 -3 -53 -5zM272 252c-17 -1 -35 -12 -48 1s-1 28 1 45c2 20 -4 43 12 55c10 8 28 -6 40 -4c25 4 45 15 58 -6
c10 -15 -7 -34 -12 -50c-3 -12 8 -22 -2 -32c-13 -14 -31 -7 -49 -9z" />
    <glyph glyph-name="ring" unicode="&#x2da;" horiz-adv-x="763" 
d="M503 456c50 0 136 -53 136 -141c0 -104 -64 -152 -145 -206c-51 -34 -85 -90 -118 -160c-38 -81 -84 -96 -117 -96c-40 0 -80 35 -80 77c0 15 5 29 14 41c12 17 19 14 22 -2c2 -15 26 -50 70 -50c33 0 68 14 68 68c0 55 -28 73 -136 128c-95 48 -145 92 -145 160
c0 31 5 60 29 101c28 47 77 73 116 73c24 0 39 -7 61 -20c21 -12 42 -30 53 -32c6 -1 12 -2 13 6c3 22 14 62 40 114c13 26 23 45 29 62c-11 -4 -29 -12 -49 -20c-116 -48 -174 -57 -214 -57c-54 0 -100 26 -100 77c0 57 48 72 66 72c11 7 26 10 30 10c7 0 15 -1 22 -5
c6 -3 5 -9 -6 -10c-20 -2 -31 -24 -31 -44c0 -32 31 -56 79 -56c40 0 77 9 116 22c9 3 19 7 29 12c-21 11 -32 28 -32 51c0 35 27 71 71 71c54 0 66 -45 61 -81c15 6 24 10 32 13c60 26 89 33 107 33c54 0 68 -40 68 -59c0 -66 12 -70 21 -70c7 0 14 4 18 8c9 10 15 6 10 -5
c-9 -19 -35 -35 -59 -35c-20 0 -35 10 -43 22c-9 12 -13 36 -14 55c-2 31 -22 41 -46 41c-20 0 -50 -10 -103 -32c-7 -20 -22 -51 -37 -87c-15 -37 -26 -74 -28 -102c0 -10 10 -9 22 1c5 5 40 52 100 52zM386 671c-35 0 -37 -34 -37 -47c0 -16 8 -32 19 -39
c20 7 40 15 52 22c2 7 2 12 2 18c0 33 -16 46 -36 46z" />
    <glyph glyph-name="emdash" unicode="&#x2014;" horiz-adv-x="900" 
d="M0 181v65s422 79 692 66c77 -3 200 -18 200 -18v-65s-454 12 -740 -25c-59 -7 -152 -23 -152 -23z" />
    <glyph glyph-name="ordfeminine" unicode="&#xaa;" horiz-adv-x="688" 
d="M476 800c13 0 34 -4 34 -21c-80 -84 -63 -205 -55 -310c29 -29 50 21 75 38c5 17 17 33 34 46c17 4 46 0 38 -25v-46c79 -118 54 -293 25 -423c-38 -122 -168 -176 -256 -256c-16 -8 -37 0 -42 21c13 25 42 38 67 46c55 59 160 126 134 218c-87 4 -121 -226 -192 -71
c-21 8 -59 -4 -63 29c38 122 84 281 4 394c34 63 30 125 25 192c42 67 109 109 172 168zM190 548c41 12 79 -17 104 -46c-4 -37 -21 -79 -63 -87c-29 0 -33 41 -67 37c-45 -58 -37 -142 -33 -213c21 -38 42 -83 83 -104c17 8 34 16 50 12c13 -8 13 -25 0 -33
c-50 -34 -66 -105 -129 -113c-58 100 -121 192 -117 317c-46 126 117 155 172 230zM547 251c-17 55 0 134 -63 155c-96 -46 -21 -184 -46 -268c17 -58 63 -4 101 -12c25 42 0 79 8 125z" />
    <glyph glyph-name="germandbls" unicode="&#xdf;" horiz-adv-x="542" 
d="M432 777c12 -16 41 -24 45 -49c-25 -45 -86 -45 -127 -78c-37 13 -33 70 -82 62c-49 -17 -94 -53 -106 -103c16 -118 45 -273 4 -400c12 -45 57 -17 86 -4c37 61 77 89 86 180c4 44 47 109 -129 82c6 10 -21 18 -4 31c52 39 181 88 219 91c8 -33 23 -80 20 -131
c-3 -50 -25 -118 -37 -122c-20 -29 -49 -49 -45 -86c25 -25 42 -21 90 -49c37 -32 53 8 66 -17c-45 -114 -5 -249 -107 -343c-32 -16 -65 -53 -110 -37c-37 25 -49 66 -57 106c4 74 73 127 114 184c0 45 -57 41 -82 62c-36 -8 -77 20 -106 -13c-45 -53 -47 -118 -49 -196
c-1 -51 12 -122 -20 -142c-21 0 -29 12 -33 28c-8 180 20 380 -4 560c-21 20 -57 53 -29 82c66 49 53 139 98 200c90 53 184 176 299 102zM407 4c0 13 -8 37 -28 29c-45 -29 -78 -78 -74 -135c4 -20 24 -45 45 -41c41 33 69 90 57 147z" />
    <glyph glyph-name="Adieresis" unicode="&#xc4;" horiz-adv-x="619" 
d="M413 770c36 -29 7 -74 22 -113c-15 -25 -26 -60 -22 -81c-7 -25 4 -57 0 -85c-21 -106 18 -216 4 -317c25 -50 14 -103 38 -153c-3 -7 -3 -17 -13 -21l-22 4c-35 50 4 120 -38 162c-71 -14 -134 -77 -167 -145c-17 -14 -34 -10 -45 11c3 42 -14 85 -39 120
c-35 46 -88 25 -131 56c7 60 71 25 110 43c91 24 183 99 211 191c21 81 -13 141 -73 187c-33 24 -67 45 -114 42c-24 0 -49 -21 -63 -42c-7 -15 -14 -32 -7 -49c32 -33 99 6 130 -33c47 -42 7 -95 14 -148c-10 -39 -56 -56 -87 -74c-29 3 -64 0 -75 28c-3 11 0 29 18 29
c28 -7 63 -4 84 24c-10 81 -119 39 -130 120c-4 36 -18 74 0 106c39 57 99 99 163 117c87 14 140 -50 194 -106c24 21 0 81 13 113c7 7 14 18 25 14zM558 756c14 11 49 28 56 -7c-112 -156 -60 -360 -60 -548c8 -13 11 -38 32 -38l7 7c28 -29 -24 -56 -31 -89
c-26 -17 -26 -70 -64 -63c7 152 -56 290 -32 441c25 88 -39 254 92 297zM260 824c-17 -1 -31 -16 -44 -3s-1 28 1 45c2 20 -4 43 12 55c10 8 28 -6 40 -4c25 4 45 15 58 -6c10 -15 -7 -26 -12 -42c-3 -12 8 -30 -2 -40c-13 -14 -35 -3 -53 -5zM452 812c-17 -1 -35 -12 -48 1
s-1 28 1 45c2 20 -4 43 12 55c10 8 28 -6 40 -4c25 4 45 15 58 -6c10 -15 -7 -34 -12 -50c-3 -12 8 -22 -2 -32c-13 -14 -31 -7 -49 -9zM382 255l3 130l-14 4c-39 -67 -106 -96 -156 -152c-10 -29 15 -53 29 -74c53 -11 102 49 138 92z" />
    <glyph glyph-name="Odieresis" unicode="&#xd6;" horiz-adv-x="808" 
d="M428 763c7 -4 17 -4 24 -14c-10 -42 -60 -64 -60 -110c3 -14 -3 -42 18 -45c45 24 74 74 109 116c-3 15 14 18 25 29c74 -22 -39 -82 21 -121c78 -42 170 -113 188 -204c31 -110 -60 -174 -103 -254c-88 -68 -148 -198 -279 -160c-113 11 -216 64 -276 163
c-45 88 -81 204 -21 297c71 145 212 243 354 303zM352 824c-17 -1 -31 -16 -44 -3s-1 28 1 45c2 20 -4 43 12 55c10 8 28 -6 40 -4c25 4 45 15 58 -6c10 -15 -7 -26 -12 -42c-3 -12 8 -30 -2 -40c-13 -14 -35 -3 -53 -5zM544 812c-17 -1 -35 -12 -48 1s-1 28 1 45
c2 20 -4 43 12 55c10 8 28 -6 40 -4c25 4 45 15 58 -6c10 -15 -7 -34 -12 -50c-3 -12 8 -22 -2 -32c-13 -14 -31 -7 -49 -9zM275 516c-7 32 36 78 -14 85c-88 -56 -124 -156 -116 -265c17 -46 14 -116 74 -134c36 31 56 78 85 116c28 67 -4 138 -29 198zM495 534
c-25 11 -15 42 -46 38c-54 -27 -36 -84 -36 -130c0 -64 74 -35 106 -75c11 -27 18 -70 7 -98c-4 -25 -14 -49 -39 -57c-25 4 -67 -10 -85 21c0 18 -3 39 18 50c15 7 32 4 42 -3c25 3 18 31 22 49c-11 14 -29 18 -46 21c-39 0 -60 -25 -85 -50c-18 -60 -95 -98 -81 -162
c70 -53 183 -63 258 -18c85 57 155 138 127 247c-17 78 -84 142 -162 167z" />
    <glyph glyph-name="Udieresis" unicode="&#xdc;" horiz-adv-x="660" 
d="M152 755c47 -5 129 18 143 -31c5 -6 -6 -20 -23 -23c-19 0 -47 12 -66 0c-40 -17 5 -43 5 -63c61 -77 94 -157 38 -261c-24 -63 -50 -102 -90 -145c16 -17 63 -3 86 -11c81 -17 90 -89 172 -100c35 60 120 120 71 188c-51 55 -61 117 -36 181c29 37 59 71 79 108
c-56 26 -98 57 -148 92c-9 37 50 43 77 57c28 3 51 -6 71 -17c23 -35 82 -52 126 -72c3 -37 -63 -54 -75 -88c-35 -29 -56 -69 -35 -106c38 -46 66 -98 66 -155c-28 -125 -168 -205 -253 -314c-13 -11 -27 -9 -45 -9c-26 32 -15 75 -46 106c-58 49 -145 57 -227 54
c-16 9 -12 29 -4 38c54 60 121 115 136 189c19 138 -175 254 -22 382zM264 820c-17 -1 -31 -16 -44 -3s-1 28 1 45c2 20 -4 43 12 55c10 8 28 -6 40 -4c25 4 45 15 58 -6c10 -15 -7 -26 -12 -42c-3 -12 8 -30 -2 -40c-13 -14 -35 -3 -53 -5zM456 808c-17 -1 -35 -12 -48 1
s-1 28 1 45c2 20 -4 43 12 55c10 8 28 -6 40 -4c25 4 45 15 58 -6c10 -15 -7 -34 -12 -50c-3 -12 8 -22 -2 -32c-13 -14 -31 -7 -49 -9z" />
    <glyph glyph-name="agrave" unicode="&#xe0;" horiz-adv-x="351" 
d="M207 414c0 48 -30 88 -68 88c-17 0 -32 -5 -41 -18c-6 -8 -14 -8 -23 2c-11 11 -18 23 -18 38c0 17 17 37 46 37c16 0 49 -10 81 -53c35 -45 46 -84 49 -129c78 -94 91 -171 91 -225c0 -60 -19 -113 -30 -140c-9 -25 -48 -119 -78 -186c-26 -62 -46 -129 -46 -174
c0 -25 9 -80 46 -80c17 0 28 7 35 15c5 5 11 9 16 9c17 0 40 -14 40 -40s-28 -40 -48 -40c-53 0 -90 60 -107 101c-80 74 -111 148 -111 220c0 53 14 104 38 171c19 51 82 211 103 274c19 60 25 98 25 130zM294 214c0 55 -26 95 -61 115c0 -26 -6 -72 -32 -141
c-22 -70 -77 -199 -93 -244c-16 -47 -32 -96 -32 -147c0 -53 18 -103 62 -125c-7 69 2 100 27 164c21 55 88 201 105 250c14 42 24 82 24 128z" />
    <glyph glyph-name="acircumflex" unicode="&#xe2;" horiz-adv-x="264" 
d="M230 281c0 -71 -24 -148 -36 -191c-18 -58 -65 -186 -90 -256c-23 -69 -35 -113 -35 -173c0 -95 36 -124 77 -124c12 0 22 7 26 10c4 4 11 9 21 9c13 0 38 -12 38 -40c0 -23 -18 -40 -47 -40c-32 0 -79 30 -120 94c-27 41 -39 87 -39 134c0 63 19 131 39 186
c16 41 40 111 81 235c24 74 39 136 39 218c0 75 -20 111 -37 133c-16 19 -33 25 -47 25c-16 0 -25 -6 -33 -12c-5 -3 -11 -7 -20 -7c-31 0 -38 28 -38 39c0 27 17 43 44 43c21 0 60 -12 113 -85c50 -69 64 -145 64 -198z" />
    <glyph glyph-name="adieresis" unicode="&#xe4;" horiz-adv-x="478" 
d="M288 551c49 -8 33 -86 94 -86c41 -29 -16 -54 -16 -82c-17 -70 -4 -152 20 -218c17 -24 45 -20 70 -24c-12 -45 -45 -83 -70 -123c-74 -33 -65 73 -102 106c4 12 -5 17 -8 25c-74 -25 -79 -111 -136 -148c-61 12 -61 86 -94 127c-62 107 8 218 69 296
c46 65 119 77 173 127zM264 808c26 -4 52 -8 67 -26c7 -15 22 -37 7 -56c-15 -14 -56 -10 -48 -44c18 -48 92 37 74 -40c-41 -8 -78 -78 -126 -37c-41 33 -30 77 -44 121c3 41 33 67 70 82zM284 371c-5 36 -54 32 -82 53c-25 -17 -46 -37 -58 -66c-37 -78 17 -139 41 -205
c103 28 41 143 99 218zM259 767c-16 -8 -15 -41 2 -47c13 -4 26 3 32 15c4 11 4 24 -6 31c-8 6 -19 6 -28 1z" />
    <glyph glyph-name="ccedilla" unicode="&#xe7;" horiz-adv-x="912" 
d="M278 797c58 14 97 -26 128 -66c9 -13 5 -31 5 -44c-27 -40 -84 -22 -120 -18c-22 22 -53 53 -79 22c-35 -35 -49 -75 -62 -114c93 -212 -26 -459 -9 -684c-4 -27 9 -80 -31 -93l-26 35c0 190 -26 375 -22 565c-102 102 66 146 53 243c22 75 106 115 163 154zM428 548
c41 12 79 -17 104 -46c-4 -37 -21 -79 -63 -87c-29 0 -33 41 -67 37c-45 -58 -37 -142 -33 -213c21 -38 42 -83 83 -104c17 8 34 16 50 12c13 -8 13 -25 0 -33c-50 -34 -66 -105 -129 -113c-58 100 -121 192 -117 317c-46 126 117 155 172 230zM714 800c13 0 34 -4 34 -21
c-80 -84 -63 -205 -55 -310c29 -29 50 21 75 38c5 17 17 33 34 46c17 4 46 0 38 -25v-46c79 -118 54 -293 25 -423c-38 -122 -168 -176 -256 -256c-16 -8 -37 0 -42 21c13 25 42 38 67 46c55 59 160 126 134 218c-87 4 -121 -226 -192 -71c-21 8 -59 -4 -63 29
c38 122 84 281 4 394c34 63 30 125 25 192c42 67 109 109 172 168zM785 251c-17 55 0 134 -63 155c-96 -46 -21 -184 -46 -268c17 -58 63 -4 101 -12c25 42 0 79 8 125z" />
    <glyph glyph-name="odieresis" unicode="&#xf6;" horiz-adv-x="374" 
d="M226 551c30 -8 7 -38 30 -53c84 -46 107 -138 99 -233c-38 -100 -148 -164 -190 -260c-61 -23 -31 50 -54 73c-72 57 -110 148 -87 244c41 99 126 153 202 229zM196 800c26 -4 52 -8 67 -26c7 -15 22 -37 7 -56c-15 -14 -56 -10 -48 -44c18 -48 92 37 74 -40
c-41 -8 -78 -78 -126 -37c-41 33 -30 77 -44 121c3 41 33 67 70 82zM260 288c-19 50 -46 111 -107 118c-19 -11 -38 -34 -45 -57c-19 -69 38 -123 68 -164c23 -4 46 -12 65 4c23 26 19 64 19 99zM191 759c-16 -8 -15 -41 2 -47c13 -4 26 3 32 15c4 11 4 24 -6 31
c-8 6 -19 6 -28 1z" />
    <glyph glyph-name="udieresis" unicode="&#xfc;" horiz-adv-x="457" 
d="M236 819c26 -4 52 -8 67 -26c7 -15 22 -37 7 -56c-15 -14 -56 -10 -48 -44c18 -48 92 37 74 -40c-41 -8 -78 -78 -126 -37c-41 33 -30 77 -44 121c3 41 33 67 70 82zM328 567c49 0 22 -63 63 -74c4 -100 -37 -256 -4 -352c16 -15 45 0 49 -26c-33 -34 -52 -89 -93 -115
c-59 7 -18 111 -85 104c-59 -23 -66 -89 -119 -115c-33 15 -37 100 -92 74c-8 0 -22 -4 -26 8c-3 37 26 59 44 84c0 78 45 238 -26 294c-11 44 34 52 56 77c44 12 52 -51 74 -81c15 -81 7 -212 7 -290c8 -18 23 -25 34 -37c29 8 52 34 63 60c-19 77 63 245 -37 289
c3 49 67 59 92 100zM231 778c-16 -8 -15 -41 2 -47c13 -4 26 3 32 15c4 11 4 24 -6 31c-8 6 -19 6 -28 1z" />
    <glyph glyph-name="registered" unicode="&#xae;" horiz-adv-x="282" 
d="M80 534c7 12 24 24 40 12c16 -24 38 -46 58 -70c5 -7 62 79 67 72c2 -4 51 -43 53 -68c-35 -20 -89 -68 -87 -74c10 -23 7 -26 -6 -57c-4 -69 -125 -149 -13 -202c33 -16 49 44 77 8c-20 -64 -97 -101 -137 -153c-12 -4 -36 4 -40 24c16 28 -8 49 -17 73
c-19 20 -72 24 -48 64c44 37 97 85 97 145c4 41 -24 73 -56 93c-16 -4 -37 4 -49 16c-32 56 68 60 61 117z" />
    <glyph glyph-name="copyright" unicode="&#xa9;" horiz-adv-x="720" 
d="M31 323c0 182 147 329 329 329s328 -147 328 -329s-146 -328 -328 -328s-329 146 -329 328zM360 49c140 0 264 123 264 274s-124 275 -264 275s-264 -124 -264 -275s124 -274 264 -274zM464 260h60c-17 -86 -81 -139 -163 -139c-115 0 -192 87 -192 201
c0 115 73 200 191 200c83 0 150 -48 163 -135h-59c-10 46 -49 81 -105 81c-81 0 -125 -65 -125 -145c0 -77 49 -148 127 -148c57 0 96 36 103 85z" />
    <glyph glyph-name="trademark" unicode="&#x2122;" horiz-adv-x="900" 
d="M731 275v302h-3l-116 -302h-45l-116 302h-3v-302h-65v371h101l106 -273l105 273h101v-371h-65zM139 275v317h-115v54h295v-54h-115v-317h-65z" />
    <glyph glyph-name="mu" unicode="&#xb5;" horiz-adv-x="718" 
d="M337 551l20 -29c-12 -24 8 -44 12 -65c81 -65 106 86 191 74c13 -21 -20 -82 33 -82c13 4 25 12 41 8c28 -24 0 -48 -4 -73v-199c0 -45 89 -25 40 -77c-40 -25 -61 -106 -113 -70c-90 102 -21 220 -46 330c-12 37 -56 28 -81 12c-24 -20 -24 -57 -28 -85
c8 -17 -4 -49 -4 -73c16 -37 -21 -98 32 -119c13 -40 -32 -73 -61 -101c-45 -9 -65 61 -97 85c36 86 8 187 12 277c-12 20 -37 36 -57 36c-33 -40 -33 -89 -33 -134c-32 -90 90 -183 -20 -252c-28 -8 -53 -21 -69 12c-102 49 4 110 -20 187c-21 61 28 147 -45 175
c-29 53 36 106 61 159c73 4 12 -90 85 -106c61 16 81 106 151 110z" />
    <glyph glyph-name="partialdiff" unicode="&#x2202;" horiz-adv-x="482" 
d="M271 718c42 56 144 56 182 0c38 -101 -85 -147 -93 -237c67 -29 89 -110 89 -181c0 -178 -200 -200 -288 -310c-39 5 -9 51 -30 72c-51 77 -63 204 -17 284c17 30 68 42 72 84c-50 56 -199 22 -157 144c22 51 73 119 132 119c21 -17 0 -34 0 -51c-25 -21 -51 -51 -30 -76
c47 -29 102 -42 152 -51c39 26 98 73 60 132c-21 34 -85 17 -72 71zM305 388c-34 39 -85 25 -106 -21c-43 -81 -13 -174 42 -237c17 -4 39 -4 47 9c38 67 76 177 17 249z" />
    <glyph glyph-name="Omega" unicode="&#x3a9;" horiz-adv-x="591" 
d="M100 563c30 30 13 155 81 95c13 -35 -26 -78 26 -95c34 -4 60 -4 90 9c39 26 47 68 81 103c70 -8 0 -99 60 -125c31 -81 -20 -155 -30 -227c22 -30 61 -26 91 -39c21 13 39 51 73 34c4 -64 -43 -107 -13 -167c-17 -64 22 -151 -39 -202c-30 -30 -68 -56 -112 -39
c-60 17 -38 78 -60 117c-8 68 121 124 48 175c-65 18 -116 -55 -168 -85c-38 -39 -43 -117 -98 -117c-22 22 4 52 -9 78c-118 80 -21 248 -47 369c-3 16 -59 27 -67 42c-4 44 84 40 93 74zM366 405c-26 38 -52 81 -99 90c-34 -22 -94 -39 -103 -90c4 -78 -17 -160 34 -220
c26 -4 43 5 60 17c30 61 112 121 108 203zM499 18c-4 39 30 99 -30 116c-34 -34 -73 -82 -56 -134c13 -16 30 -25 47 -25c18 4 30 25 39 43z" />
    <glyph glyph-name="logicalnot" unicode="&#xac;" horiz-adv-x="587" 
d="M403 716c43 27 112 50 151 4c42 -54 27 -116 0 -166c-58 -57 -151 -57 -189 -134c19 -97 -4 -197 19 -289c8 -54 116 -23 50 -85c-23 -19 -50 -65 -88 -46c-30 11 -50 46 -84 23c-39 -23 -77 -65 -123 -39c-127 70 -47 231 -70 332c-65 104 31 207 58 304
c39 61 100 115 173 115c39 0 65 -54 103 -19zM477 608c-4 27 -23 66 -62 54c-50 -19 -35 -77 -38 -123c3 -19 23 -31 42 -23c27 19 73 46 58 92zM277 608c-15 19 -38 31 -61 31c-35 -39 -50 -100 -43 -154c4 -19 27 -31 50 -31c66 27 54 93 54 154zM277 385
c-4 58 -77 23 -100 4c-23 -97 -15 -189 8 -285c4 -23 31 -27 50 -31c11 12 34 4 34 27c4 89 12 192 8 285z" />
    <glyph glyph-name="Delta" unicode="&#x394;" horiz-adv-x="576" 
d="M190 548c41 12 79 -17 104 -46c-4 -37 -21 -79 -63 -87c-29 0 -33 41 -67 37c-45 -58 -37 -142 -33 -213c21 -38 42 -83 83 -104c17 8 34 16 50 12c13 -8 13 -25 0 -33c-50 -34 -66 -105 -129 -113c-58 100 -121 192 -117 317c-46 126 117 155 172 230zM508 770
c58 -8 136 -4 161 -62c8 -37 -10 -74 -37 -93c-21 0 -25 23 -21 41c3 19 7 44 -16 55c-29 15 -66 15 -95 4c-48 -37 -122 -92 -103 -159c41 -22 66 26 99 34c22 3 56 11 63 -16c3 -33 -4 -73 -18 -99c-15 -18 -104 -69 -17 -66c26 -8 15 -37 4 -45c-29 -33 -127 1 -131 -58
c29 -56 -23 -147 44 -184c18 7 34 18 51 18c12 -8 8 -26 4 -33c-51 -37 -88 -103 -147 -107c-15 29 -41 48 -59 74c-22 99 51 225 -37 302c-3 29 34 29 34 59c3 143 84 283 221 335zM471 490c-8 15 -15 22 -30 22c-18 -4 -44 -15 -40 -37c0 -29 22 -11 37 -21
c14 10 29 14 33 36z" />
    <glyph glyph-name="nbspace" unicode="&#xa0;" horiz-adv-x="250" 
d="M0 0z" />
    <glyph glyph-name="divide" unicode="&#xf7;" 
d="M42 195v65h456v-65h-456zM211 407c0 32 27 59 59 59s59 -27 59 -59c0 -33 -27 -60 -59 -60s-59 27 -59 60zM211 49c0 32 27 59 59 59s59 -27 59 -59c0 -33 -27 -60 -59 -60s-59 27 -59 60z" />
    <glyph glyph-name="Iacute" unicode="&#xcd;" horiz-adv-x="578" 
d="M316 800c79 -9 136 -31 215 -44c26 -44 -31 -61 -44 -96c-35 -58 -109 -99 -5 -162c31 -14 62 22 80 -14c13 -26 -18 -39 -18 -61c-31 -35 -105 5 -110 -57c-17 -57 22 -109 0 -162c5 -31 14 -66 40 -92c17 -26 83 31 70 -35c-53 -26 -75 -105 -136 -101
c-13 53 -66 79 -79 136c-26 114 84 302 -76 372c9 30 93 21 115 39c48 48 53 67 31 128c-39 48 -92 53 -149 66c-52 -27 -74 -88 -83 -145c97 -158 4 -355 18 -521l-27 -233c-8 -8 -17 -22 -35 -17c-17 66 -13 153 -26 223c-53 132 25 326 -90 432c28 27 46 8 68 37
c26 132 96 276 241 307z" />
    <glyph glyph-name="Idieresis" unicode="&#xcf;" horiz-adv-x="568" 
d="M329 112c-22 97 44 250 -31 336c-45 -6 -88 -13 -88 -19c9 -125 -35 -259 -25 -378l-27 -233c-8 -8 -17 -22 -35 -17c-17 66 -13 153 -26 223c-42 102 0 270 -35 376c-5 17 -56 5 -65 20c-8 13 10 37 -2 48c28 27 58 -4 80 25c26 132 96 276 241 307
c79 -9 136 -31 215 -44c0 -44 -31 -61 -44 -96c-35 -58 -57 -111 -5 -162c31 -14 62 22 80 -14c13 -26 -18 -39 -18 -61c-31 -35 -105 5 -110 -57c-17 -57 22 -109 0 -162c5 -31 14 -66 40 -92c17 -26 83 31 70 -35c-53 -26 -75 -105 -136 -101c-13 53 -66 79 -79 136z
M247 490c21 21 101 17 121 33c48 48 31 67 31 128c-39 48 -92 53 -149 66c-52 -27 -74 -88 -83 -145c15 -23 25 -47 32 -72c1 -4 21 -7 48 -10z" />
    <glyph glyph-name="Ucircumflex" unicode="&#xdb;" horiz-adv-x="453" 
d="M278 283c-6 37 -1 124 -61 148c-16 -4 -31 -10 -31 -20c-23 -159 -67 -356 -55 -518c-4 -27 9 -80 -31 -93l-26 35c0 190 -26 375 -22 565c-10 10 5 30 -6 38c-9 6 -48 0 -48 5c-16 24 1 41 20 65c43 -8 93 87 87 135c22 75 106 115 163 154c58 14 97 -26 128 -66
c9 -13 1 -103 1 -116c-27 -40 -112 -2 -104 78c-22 22 -65 29 -91 -2c-35 -35 -49 -75 -62 -114c5 -10 11 -58 29 -70c20 -14 46 -20 67 -26c36 16 86 21 105 48c19 4 43 -12 50 -35c5 -28 27 -59 5 -86l-12 -252c0 -27 34 -27 54 -27v-32c-47 -31 -63 -78 -101 -105
c-35 15 -44 62 -71 89c-11 66 5 137 12 202z" />
  </font>
</defs>
</svg>
