<!-- Generated by IcoMoon.io -->
<svg version="1.1" xmlns="http://www.w3.org/2000/svg" width="512" height="512" viewBox="0 0 512 512">
<title>The Blades of the Hollow King</title>
<g id="icomoon-ignore">
</g>
<path fill="#FFF" d="M87.493 1.616c-9.829 1.93-13.113 4.785-20.23 17.578-3.544 6.374-8.906 14.367-11.91 17.763-7.592 8.581-8.92 11.642-8.92 20.573 0 9.070-5.474 17.237-25.985 38.778-16.144 16.954-17.017 23.097-6.3 44.285 6.736 13.312 9.425 15.202 9.305 6.536-0.131-9.519 3.123-14.647 9.393-14.805 7.742-0.194 7.699-0.141 5.172-6.454-1.527-3.818-2.176-9.436-1.88-16.276l0.453-10.445 4.947-0.477c4.361-0.42 5.487-1.543 9.486-9.463 5.368-10.637 5.876-10.724 17.776-3.033 12.691 8.204 13.108 9.372 7.781 21.857-6.254 14.662-11.909 22.446-18.838 25.938-3.307 1.665-6.301 3.206-6.658 3.422-0.356 0.218 1.178 2.298 3.406 4.626 5.301 5.532 5.25 5.774-3.026 14.177-7.626 7.743-6.675 11.014 2.187 7.531 2.276-0.893 6.18-1.822 8.678-2.065 4.122-0.398 4.966-1.489 9.114-11.794 8.63-21.436 15.043-30.281 21.96-30.281 7.662 0 12.091-2.668 14.427-8.695 1.213-3.129 3.297-7.733 4.634-10.231s4.137-7.79 6.222-11.757c16.771-31.924 50.755 2.859 63.262 64.747 6.71 33.206-0.643 70.68-19.397 98.871-10.021 15.065-47.701 52.76-78.266 78.3-47.392 39.599-56.518 53.082-60.834 89.878-7.116 60.644 59.28 107.51 121.804 85.98 13.633-4.696 18.095-5.024 20.979-1.548 10.464 12.619 57.969 4.521 71.055-12.115 5.482-6.971-7.040-7.442-28.856-1.086-10.744 3.132-28.514 3.883-31.084 1.315-0.506-0.505 1.456-4.029 4.357-7.828 20.506-26.865 14.877-72.971-10.304-84.411-35.937-16.324-63.892 34.599-39.165 71.34 5.37 7.98 2.309 9.644-15.555 8.457-41.043-2.728-69.102-25.841-64.493-53.12 3.077-18.207 4.525-19.168 21.22-14.094 7.274 2.212 7.34 0.912 0.413-8.259-7.801-10.332-7.746-11.602 0.835-19.154 8.258-7.269 10.897-7.517 23.191-2.185 11.304 4.901 11.858 4.428 8.35-7.159l-2.797-9.235 5.96-5.109c8.574-7.348 9.906-7.446 19.804-1.469 10.268 6.202 11.335 5.233 7.373-6.7-3.055-9.198-1.967-11.692 9.493-21.786 9.43-8.306 7.631-8.015 18.715-3.039 11.11 4.986 11.745 4.337 7.508-7.666-6.556-18.57 7.893-35.851 24.715-29.56 12.238 4.579 13.572 3.627 9.891-7.070-4.197-12.199-3.862-18.598 1.35-25.722 8.094-11.060 9.449-11.729 21.379-10.553 13.235 1.304 13.196-0.869-0.26-14.533-13.731-13.946-6.679-30.023 13.167-30.023 15.966 0 13.31-5.745-7.345-15.897-10.369-5.095-11.191-6.632-11.429-21.37-0.194-11.91 2.441-15.36 17.382-22.744 13.459-6.651 13.511-6.566-8.538-13.928-19.853-6.629-19.365-6.090-23.89-26.396l-2.939-13.198 4.281-6.442c2.356-3.543 7.050-9.136 10.433-12.428 3.381-3.291 6.149-6.528 6.149-7.191 0-2.349-12.981-1.163-21.115 1.928-9.358 3.556-11.506 3.062-20.333-4.689-8.211-7.211-7.445-17.453 2.526-33.724 5.22-8.517 4.88-9.283-3.488-7.87-4.833 0.817-8.775 3.322-17.134 10.894-20.902 18.934-28.523 17.653-35.357-5.942-4.516-15.585-5.1-16.169-11.686-11.658-6.128 4.199-6.914 6.371-6.943 19.194-0.042 19.569-18.575 21.683-25.662 2.929-4.084-10.809-2.216-19.239 5.959-26.915 10.297-9.666 9.727-10.376-5.874-7.311zM417.079 7.221c9.094 8.076 11.024 14.293 7.967 25.65-6.133 22.775-24.708 21.478-26.652-1.861-0.984-11.809-1.45-13.213-5.551-16.665-7.385-6.213-8.86-4.9-12.772 11.373-5.638 23.445-14.677 24.527-36.464 4.367-7.649-7.078-10.709-8.902-16.345-9.747-8.964-1.345-8.957-1.364-2.946 8.412 10.968 17.834 10.651 27.48-1.183 35.979l-7.173 5.154-9.764-3.249c-5.676-1.888-12.452-3.053-16.186-2.779l-6.423 0.47 10.17 10.561c12.454 12.936 12.877 14.496 8.666 31.959-4.32 17.921-3.815 17.426-24.728 24.213-20.75 6.733-20.705 6.663-8.142 12.657 16.219 7.743 19.594 12.281 18.642 25.075-1.071 14.361-1.449 14.989-11.825 19.646-8.918 4.001-19.492 11.91-19.492 14.577 0 0.746 5.402 1.357 12.003 1.357 12.832 0 15.607 1.306 18.402 8.661 3.228 8.487 1.764 13.425-6.94 23.405-11.062 12.683-10.918 13.872 1.511 12.542 20.010-2.143 30.662 14.026 23.212 35.237-4.137 11.781-3.392 12.492 8.576 8.201 11.226-4.027 12.813-3.57 21.049 6.051 6.74 7.875 8.136 14.448 4.878 22.976-4.776 12.509-3.722 13.236 10.176 7.013 7.363-3.296 9.26-2.581 19.545 7.373 7.985 7.727 8.681 10.794 4.89 21.539-3.2 9.070-1.224 9.844 8.92 3.498 9.728-6.084 10.456-5.996 20.435 2.459l5.103 4.325-2.453 7.199c-4.651 13.649-4.211 14.131 8.146 8.93 12.026-5.063 14.228-4.83 22.878 2.412 8.959 7.5 9.048 8.712 1.345 18.386-7.184 9.022-7.577 10.981-1.892 9.433 7.866-2.142 17.79-3.443 18.719-2.455 4.334 4.612 5.616 29.7 1.916 37.498-5.638 11.882-32.844 28.233-51.293 30.827-26.266 3.695-32.269 1.446-25.334-9.49 22-34.69-1.795-80.498-36.736-70.714-28.494 7.976-35.803 62.871-11.74 88.175 7.601 7.993-9.298 9.927-31.387 3.591-21.748-6.238-31.855-5.228-25.72 2.572 12.686 16.13 63.707 23.334 71.856 10.15 1.489-2.409 6.627-1.803 19.458 2.295 58.788 18.772 119.974-17.439 121.876-72.132 1.4-40.233-9.738-60.694-52.35-96.165-99.62-82.928-121.707-125.952-102.534-199.741 8.925-34.351 25.434-57.109 44.797-61.752 6.291-1.509 10.438 3.11 20.094 22.374 9.29 18.533 11.195 20.543 19.478 20.543 6.315 0 15.729 11.574 20.7 25.448 4.982 13.904 6.528 16.142 11.495 16.627 2.473 0.243 6.356 1.171 8.63 2.065 8.339 3.277 9.235 0.293 1.932-6.439-7.843-7.229-8.421-10.361-2.854-15.522l3.971-3.682-7.304-3.642c-7.567-3.774-14.748-14.29-21.285-31.172-3.002-7.752-0.805-11.080 12.32-18.65 10.138-5.849 10.6-5.72 15.462 4.311 3.239 6.68 5.099 8.827 8.005 9.228 7.92 1.096 10.506 14.031 5.298 26.495-3.438 8.23-3.080 8.964 3.806 7.801 6.921-1.169 10.578 4.048 10.578 15.094 0 7.965 2.394 6.531 8.134-4.871 12.136-24.102 11.548-29.004-5.627-47.087-21.954-23.11-24.263-26.602-25.337-38.324-0.855-9.334-1.544-10.959-7.727-18.245-3.734-4.399-9.302-12.521-12.373-18.046-7.736-13.916-11.443-17.215-21.663-19.266-15.15-3.043-15.849-2.479-6.848 5.516zM60.274 49.053c2.538 5.568-0.154 15.142-4.428 15.758-2.989 0.431-3.356-0.182-3.356-5.606 0-11.2 4.584-17.176 7.785-10.151zM459.402 57.401c0.674 7.021 0.466 7.682-2.429 7.682-3.889 0-6.301-4.193-6.301-10.953 0-12.331 7.502-9.523 8.731 3.27zM18.88 113.835c2.453 2.453 2.291 6.502-0.349 8.693-2.762 2.291-6.050-3.064-4.629-7.54 1.084-3.418 2.408-3.724 4.979-1.153zM497.735 120.035c-1.729 4.678-4.42 4.87-5.543 0.397-1.361-5.418 2.138-9.843 4.851-6.132 1.136 1.555 1.407 3.801 0.691 5.735zM166.16 423.457c15.175 8.964 9.441 45.327-7.829 49.635-5.298 1.322-12.054-4.469-17.153-14.702-11.199-22.473 5.812-46.257 24.983-34.933zM367.123 425.37c15.669 15.668 1.228 54.833-17.024 46.173-11.944-5.668-17.978-30.855-10.25-42.786 5.774-8.915 19.981-10.68 27.274-3.387z"></path>
</svg>
