<!-- Generated by IcoMoon.io -->
<svg version="1.1" xmlns="http://www.w3.org/2000/svg" width="1024" height="1024" viewBox="0 0 1024 1024">
<title></title>
<g id="icomoon-ignore">
</g>
<path fill="#FFF" d="M204.28 196.735c-16.915 10.795-35.195 22.26-40.619 25.467-9.373 5.557-9.851 9.369-9.851 79.27 0 81.599 1.824 86.638 35.696 98.451 29.123 10.16 59.842 55.893 73.409 109.307l8.356 32.889-14.286 36.744c-7.86 20.205-20.686 48.23-28.485 62.273-7.817 14.044-15.6 28.401-17.302 31.923s-0.585 13.352 2.494 21.862c7.529 20.838 0.213 47.076-18.005 64.535-7.696 7.376-14 16.496-14 20.269s-6.651 17.215-14.788 29.901c-23.077 35.964-23.832 35.779 142.174 35.883 76.744 0.053 229.37 0.719 339.16 1.488 228.402 1.593 236.185 0.189 206.697-37.289-5.043-6.403-10.501-18.764-12.136-27.479-2.015-10.73-7.321-18.396-16.505-23.826-21.17-12.512-27.269-39.15-14.183-61.897 13.483-23.438 12.987-28.611-5.474-56.876-56.731-86.827-50.284-185.856 14.8-227.316 50.364-32.086 48.705-27.924 48.148-121.37-0.744-126.184 35.151-114.034-336.476-113.909l-298.039 0.105-30.768 19.635zM580.852 215.204c-0.021 3.193-16.741 23.891-37.135 46.008-47.503 51.474-53.256 85.939-6.649 39.882 39.846-39.389 65.501-58.794 83.498-63.19 10.095-2.452 25.071-7.172 33.264-10.471 29.433-11.843 16.737 17.918-17.924 42.026-21.575 15.011-38.756 36.974-33.226 42.494 2.82 2.82 10.675-1.631 21.568-12.206 9.416-9.156 29.114-22.197 43.759-28.987 14.651-6.788 28.193-13.1 30.12-14.025 11.242-5.442 0.347 16.765-17.67 36.031-18.898 20.205-21.652 25.99-25.875 54.35-2.591 17.459-6.649 35.36-9.026 39.797-14.735 27.598 2.73 27.322 18.089-0.272 20.882-37.505 25.084-12.526 8.003 47.601-3.673 12.944-11.348 41.061-17.047 62.483-10.082 37.875-11.108 39.518-37.392 59.926-30.359 23.58-27.948 14.565-29.95 112.338-1.581 77.784-11.469 98.056-58.92 120.744l-28.682 13.712-23.476-9.68c-35.016-14.442-43.87-33.819-43.852-95.982 0.015-34.689-2.018-51.744-7.389-62.117-5.343-10.327-6.519-20.143-4.255-35.234 3.518-23.455-0.566-28.726-22.365-28.841-13.981-0.075-49.534-31.956-49.534-44.415 0-3.542-5.371-18.182-11.926-32.533-10.513-22.992-11.555-29.749-8.803-57 4.218-41.726 25.382-73.772 25.382-38.458 0 44.18 21.694 22.784 23.956-23.625 1.919-39.429 20.618-68.645 43.944-68.645 12.416 0 19.455-6.561 37.123-34.594 13.781-21.862 15.563-22.97 44.496-27.849 10.886-1.832 20.829-7.525 27.074-15.49 14.335-18.298 50.95-28.193 50.835-13.756zM567.131 479.812c-33.326 33.831-26.541 43.283 18.647 25.97 31.923-12.225 40.894-22.469 29.582-33.767-12.113-12.113-31.752-8.942-48.23 7.804zM395.124 477.772c-15.28 12.367-8.849 25.119 18.728 37.163 47.843 20.894 64.813 6.769 29.699-24.712-25.382-22.742-33.222-24.754-48.427-12.447zM502.966 538.29c-16.396 10.387-12.398 37.845 5.511 37.845 20.209 0 26.091-9.745 16.328-27.053-7.525-13.34-13.31-16.202-21.827-10.795zM482.182 645.329c-17.292 16.843-22.128 36.28-17.382 69.835 6.416 45.38 17.409 49.775 41.313 16.48 16.966-23.628 19.179-24.572 27.269-11.601 13.729 21.987 24.293 8.574 24.293-30.862 0-35.654-17.891-58.646-30.171-38.775-5.010 8.108-11.338 5.033-14.345-6.965-3.719-14.834-14.484-14.183-30.973 1.888z"></path>
</svg>
