<!-- Generated by IcoMoon.io -->
<svg version="1.1" xmlns="http://www.w3.org/2000/svg" width="1024" height="1024" viewBox="0 0 1024 1024">
<title></title>
<g id="icomoon-ignore">
</g>
<path fill="#FFF" d="M663.077 357.378c0 1.542 0 12.823-2.521 23.945-2.319 16.324 1.959 21.986 18.068 21.424 2.521 0 7.419-5.46 7.002-6.44-9.941-20.804-2.319-38.929 2.939-59.935 1.801-11.843 2.781-25.544 2.781-39.447 0-9.941-0.518-19.768-1.542-29.506l0.101 1.239c0-6.642-1.182-13.227-1.757-19.464 8.241 0.101 16.007 1.757 23.225 4.639l-0.461-0.158c32.23 18.485 59.417 41.868 81.504 69.516l0.417 0.562c19.464 28.786 42.228 55.657 49.994 90.68 2.623 9.005 4.12 19.407 4.12 30.126 0 0.98 0 1.959-0.057 2.939v-0.158c0 5.82-7.002 12.26-12.462 16.166-5.979 3.198-13.126 6.282-20.545 8.803l-1.081 0.303c-15.761 7.982-18.068 15.963-8.399 29.19 4.164 5.1 8.601 9.625 13.486 13.701l0.158 0.101c13.025 11.281 12.664 22.966-1.34 31.149s-29.19 13.644-28.988 34.246c0 3.084-8.961 8.399-14.004 8.961-12.823 1.182-25.904 0-38.929 0-27.029 1.182-41.033 12.664-41.868 40.673 0 21.006-6.8 28.786-27.806 27.806-12.823 0-19.464 8.961-21.569 21.569-2.262 15.085-6.541 28.729-12.62 41.292l0.36-0.821c-10.042 15.344-20.488 28.685-31.927 41.090l0.202-0.202c-14.567-14.567-2.939-32.906-6.44-49.015 0-4.683 0-10.143 0-14.421s-5.043-9.524-7.982-9.726-14.782 0-16.943 4.481c-5.46 9.321-7.204 20.804-11.9 30.745-4.221 6.901-8.803 12.867-13.903 18.384l0.057-0.057c-2.781-5.561-5.1-12.045-6.699-18.845l-0.101-0.619c-1.182-9.524 0-19.464 0-28.988-1.542-19.464-8.544-24.925-27.446-25.904-10.503 0-19.464 0.98-19.464 14.984 0.158 1.441 0.202 3.084 0.202 4.784s-0.101 3.343-0.259 4.999v-0.202c-1.959 14.004-4.063 27.806-6.225 41.653-20.804-1.542-19.464-21.424-27.244-33.671-2.477-4.221-5.979-7.621-10.2-9.84l-0.158-0.057c-3.501-1.397-7.564-2.218-11.843-2.218-2.262 0-4.538 0.259-6.699 0.663l0.202-0.057c-2.724 0-6.023 8.184-5.46 11.9 3.501 19.464 8.184 40.111 12.26 60.137 0.101 1.757 0.158 3.861 0.158 5.921s-0.057 4.164-0.158 6.225v-0.303c-5.043-2.521-12.26-3.501-14.567-7.419-16.886-25.127-32.805-53.913-46.234-84.14l-1.441-3.659c-5.82-15.761-10.301-21.208-25.285-19.464-18.283 2.161-26.884-4.683-25.487-24.305 0-10.705 0-28.211-5.043-31.149-16.943-8.961-34.246-21.784-55.872-14.782-11.281 3.501-21.569 5.46-26.669-10.301-5.82-14.927-16.482-26.928-30.025-34.29l-0.36-0.158c-9.941-6.023-9.941-15.761-1.182-24.305 4.942-4.323 9.423-8.904 13.442-13.802l0.158-0.202c15.546-19.464 10.503-37.747-15.546-38.929s-26.264-13.025-24.147-30.745c0.879-11.843 3.242-22.807 6.901-33.21l-0.259 0.923c20.286-51.694 52.055-95.104 92.323-128.63l0.518-0.417c3.558-2.68 7.679-4.898 12.102-6.484l0.303-0.101c12.823-5.662 29.766-19.464 37.949-14.984 18.068 8.961-1.182 24.507-1.182 37.387 0 21.424-9.524 45.154 9.941 64.214 2.939 2.939 1.959 10.503 1.757 15.761-1.397 6.484-2.161 13.96-2.161 21.626 0 0.663 0 1.34 0 2.003v-0.101c1.959 5.258 6.339 9.22 11.742 10.503h0.101c4.481 0 13.227-5.662 13.227-8.759-0.461-17.202-1.858-33.526-4.164-49.59l0.259 2.262c-1.757-6.743-3.040-14.567-3.501-22.649v-0.303c0.923-6.945 6.8-12.203 13.903-12.203 4.019 0 7.679 1.7 10.244 4.424v0c22.966 19.464 47.113 38.929 68.694 59.518 17.145 16.526 47.271 10.503 58.393 35.99 0 0 6.44 1.182 8.759 0 25.904-15.401 52.371-29.968 77.858-46.911 18.283-12.462 34.65-28.008 52.156-41.868 5.82-4.481 12.462-8.184 19.464-12.26 1.182 7.78 2.521 15.546 3.501 23.383-1.182 3.918-1.182 8.759-1.182 23.168zM411.234 608.444c15.186-13.025 30.745-25.689 44.749-38.929 2.319-2.319 0-13.227-3.703-17.303-13.745-16.007-28.268-30.429-43.814-43.713l-0.562-0.461c-15.401-12.462-31.51-4.481-41.45 13.442-13.442 23.945 2.161 43.612 9.163 62.874 2.939 9.726 21.006 14.984 34.448 24.147zM614.567 605.707s4.481 0 6.225-2.161c12.304-13.385 23.844-28.008 34.189-43.454l0.821-1.34c1.757-4.639 2.724-10.042 2.724-15.647 0-15.761-7.881-29.607-19.926-37.949l-0.158-0.101c-17.145-9.321-26.467 4.063-36.61 14.206-11.224 9.264-21.063 19.566-29.664 30.89l-0.303 0.461c-5.043 8.399-8.184 26.669-3.703 30.53 13.082 9.321 28.008 17.562 43.871 23.989l1.498 0.518zM553.507 540.325c-0.518-14.32-12.26-25.689-26.625-25.689-2.262 0-4.481 0.303-6.642 0.821l0.202-0.057c-4.221 2.161-9.22 3.444-14.523 3.444-4.063 0-7.982-0.777-11.584-2.161l0.202 0.057c-2.319-1.182-5.043-1.858-7.925-1.858-9.783 0-17.707 7.925-17.707 17.707 0 1.757 0.259 3.501 0.72 5.1l-0.057-0.101c7.881 20.545 17.202 38.253 28.268 54.677l-0.619-0.98c2.939 4.481 19.464 7.419 20.804 4.898 11.9-17.303 22.403-36.407 34.448-55.872z"></path>
</svg>
