<!-- Generated by IcoMoon.io -->
<svg version="1.1" xmlns="http://www.w3.org/2000/svg" width="1024" height="1024" viewBox="0 0 1024 1024">
<title></title>
<g id="icomoon-ignore">
</g>
<path fill="#FFF" d="M621.385 458.649c-38.493-14.223-74.737-11.771-103.539 18.702-12.867 13.626-23.175 12.531-33.82-1.134-25.963-33.254-58.68-30.474-93.432-18.702l-2.788 2.625c-22.416 3.183-45.39 5.010-67.476 9.885-18.702 3.914-25.963 21.684-31.032 35.907s-9.348 30.078-29.34 28.185c-22.184-1.058-39.821-19.299-39.821-41.61 0-0.201 0-0.395 0-0.634v0.038c0-2.982 0-6.165 0-9.154 0-40.38 0-41.118-40.38-50.466-13.626-3.183-22.617-8.789-24.666-22.974-5.606-38.292 41.118-93.432 79.969-90.45 15.519 2.819 28.879 10.384 39.024 21.088l0.038 0.038c10.086 9.885 3.183 22.215-6.165 32.724-3.72 4.279-5.971 16.608-3.384 18.702 6.366 5.211 18.702 11.376 23.57 8.789 9.185-3.616 19.791-5.77 30.935-5.77s21.722 2.087 31.531 5.971l-0.596-0.201c32.859 7.462 67.632 8.058 91.546-26.358 8.058-11.376 14.223-18.702 4.473-31.763-1.432-2.722-2.288-5.971-2.288-9.348 0-1.432 0.135-2.819 0.433-4.213v0.135c9.154-63.361-30.272-105.963-63.361-151.553-2.423-4.116-4.577-8.886-6.203-13.865l-0.135-0.499c6.463 0.693 12.135 1.588 17.704 2.819l-1.058-0.201c41.773 9.982 76.786 34.215 100.394 67.14l0.336 0.499c7.462 11.040 11.972 11.972 20.387 3.72s22.617-21.282 32.859-32.859c16.809-21.58 42.609-35.543 71.651-36.243h15.058c-2.423 5.405-3.384 12.337-7.298 15.849-17.107 16.906-31.233 36.735-41.513 58.718l-0.537 1.231c-9.549 16.712-15.155 36.704-15.155 57.986 0 1.231 0 2.423 0.038 3.682v-0.201c0.038 0.857 0.038 1.827 0.038 2.885 0 11.875-2.191 23.213-6.203 33.657l0.201-0.634c-1.529 3.183-2.423 6.903-2.423 10.877 0 7.26 3.020 13.761 7.857 18.435v0c9.154 10.086 15.714 28.050 25.8 30.078 10.384 2.49 22.319 3.914 34.551 3.914s24.167-1.432 35.609-4.116l-1.058 0.201c8.886-3.876 19.233-6.165 30.175-6.165 9.847 0 19.233 1.827 27.887 5.211l-0.537-0.201c4.116 2.028 11.241 0 16.251-2.625s18.702-4.875 8.058-17.406c-4.414-5.405-8.394-11.577-11.674-18.099l-0.239-0.596c-1.827-2.625-2.923-5.905-2.923-9.452 0-0.693 0.038-1.328 0.097-2.028v0.097c11.934-15.519 29.34-26.358 49.235-29.638l0.433-0.038c26.157 1.893 73.641 44.1 78.315 69.726 5.211 28.58-2.982 40.38-31.233 44.301-33.060 4.674-45.955 22.020-42.408 56.034 0.693 2.625 1.058 5.703 1.058 8.855 0 20.627-16.75 37.398-37.398 37.398-2.028 0-4.018-0.135-5.971-0.433l0.201 0.038c-11.241-0.961-14.76-5.971-17.347-16.809-8.588-34.946-22.416-45.591-56.034-48.975-17.503-2.521-32.464-5.672-47.148-9.587l2.819 0.634z"></path>
<path fill="#FFF" d="M624.030 461.274c13.231 36.937 26.559 83.883 37.138 131.828l1.529 8.29c5.107 17.607 8.058 37.831 8.058 58.784s-2.923 41.177-8.453 60.313l0.395-1.529c-7.857 26.157-12.732 53.052-19.791 79.41-3.183 12.732-7.992 23.973-14.32 34.156l0.298-0.499c-3.183 5.211-12.337 6.702-18.702 9.885-2.982-4.473-5.211-9.75-6.463-15.356l-0.038-0.298c0-15.519 0-31.233 0-46.745-2.982-33.455-7.857-66.738-11.241-100.162-4.279-42.207-31.233-72.15-56.034-103.345-37.398-46.551-33.060-59.217 9.348-99.26 24.465-22.974 50.071-15.519 76.092-18.702z"></path>
<path fill="#FFF" d="M390.615 458.649c23.907 1.692 46.888-2.423 69.726 16.050 36.437 29.541 45.053 64.293 15.318 100.893-8.588 10.839-18.702 20.193-28.185 30.637-26.358 30.272-31.368 68.766-37.398 105.768s-6.567 70.056-10.086 105.030c-1.827 8.692-4.279 16.348-7.396 23.608l0.298-0.797c-6.702-6.165-16.050-11.241-18.702-18.702-6.567-15.117-9.549-31.964-14.559-47.841-10.54-32.225-16.646-69.324-16.646-107.856 0-25.8 2.722-50.965 7.895-75.191l-0.395 2.326c1.626-30.675 8.356-59.38 19.33-85.835l-0.634 1.73c-10.086-22.416 21.126-28.050 18.702-47.082z"></path>
<path fill="#FFF" d="M622.338 395.854c-1.789 0.298-3.817 0.433-5.971 0.433-19.791 0-36.243-14.358-39.426-33.254l-0.038-0.239c-4.875-15.519 4.875-45.986 22.416-50.823 48.573-13.269 82.257-45.591 115.116-80.17 1.893-1.692 6.366-3.183 7.857-2.222 2.191 1.827 3.578 4.615 3.578 7.694 0 0.097 0 0.239 0 0.336v0c-2.087 18.099-5.77 34.551-10.981 50.331l0.499-1.73c-11.577 28.945-24.108 53.552-38.591 76.824l1.193-2.087c-12.337 19.628-27.648 40.917-55.698 34.946z"></path>
<path fill="#FFF" d="M377.353 395.296c-6.567-0.336-12.531-2.625-17.444-6.203l0.097 0.038c-41.014-36.302-68.565-87.066-74.699-144.196l-0.097-0.992c0-4.875 3.914-9.885 5.971-14.76 4.175 2.288 7.76 5.010 10.839 8.193v0c22.281 31.427 52.948 55.601 88.758 69.428l1.328 0.433c8.99 2.923 16.608 7.954 22.579 14.521l0.038 0.038c8.588 10.28 28.782 15.849 16.809 37.398s-18.897 38.695-54.207 36.042z"></path>
</svg>
