<!-- Generated by IcoMoon.io -->
<svg version="1.1" xmlns="http://www.w3.org/2000/svg" width="1024" height="1024" viewBox="0 0 1024 1024">
<title></title>
<g id="icomoon-ignore">
</g>
<path fill="#FFF" d="M503.654 841.982c-73.015 16.924-140.291-13.368-204.683-45.826-24.949-16.106-44.919-37.921-58.388-63.631l-0.453-0.938c-12.518-20.468 2.87-42.767 16.924-58.829 32.269-38.814 73.645-69.019 120.862-87.51l2.020-0.717c45.826-15.71 93.615-21.141 139.252-34.831 52.547-15.71 106.134-29.927 150.921-65.739 15.754-10.322 26.032-27.863 26.032-47.833 0-1.611-0.044-3.191-0.176-4.758v0.22c-0.894-23.426-17.012-42.855-38.682-48.74l-0.365-0.088c-57.979-17.73-118.3-33.792-178.652-27.731-47.481 4.89-95.812 12.166-137.056 40.747-27.378 18.945-28.536 35.68 0 50.716 22.299 12.386 48.243 21.727 75.753 26.472l1.479 0.22c16.106 1.347 34.875 2.152 53.806 2.152 13.733 0 27.334-0.409 40.835-1.215l-1.844 0.088c16.924 0 30.601-4.393 31.274-24.993 0.132-1.039 0.176-2.241 0.176-3.455 0-16.647-12.84-30.248-29.166-31.507h-0.088c-20.424 0.453-40.029 2.958-58.93 7.32l1.932-0.365c-5.066-0.176-9.869-1.171-14.363-2.826l0.308 0.088c1.844-4.89 2.373-11.669 5.929-14.363 17.189-14.715 39.721-23.646 64.304-23.646 32.722 0 61.756 15.842 79.838 40.306l0.176 0.264c18.403 24.993 5.066 73.337-23.338 92.268-28.184 18.447-62.649 29.399-99.72 29.399-12.695 0-25.037-1.303-37.027-3.72l1.171 0.22c-42.093-8.17-79.297-19.838-114.523-35.139l3.499 1.347c-33.484-11.889-60.629-34.641-77.862-63.864l-0.365-0.673c-10.146-18.58-12.166-33.792 4.041-47.349 21.405-20.336 45.826-37.833 72.43-51.698l1.8-0.85c55.959-22.664 49.18-19.253 39.897-78.944 0-2.518-3.72-4.89-3.72-7.276 0-7.949 1.039-15.886 1.523-23.835 4.217 5.256 8.125 10.819 12.518 15.71 12.122 14.627 24.465 27.775 37.511 40.205l0.176 0.176c7.276 7.32 17.321 11.801 28.404 11.801 19.209 0 35.227-13.513 39.135-31.507l0.044-0.264c6.602-19.605 10.322-40.073 15.533-60 2.518-10.731 5.476-19.838 9.063-28.681l-0.453 1.259c1.171-3.046 5.564-4.714 8.623-6.911 1.976 2.87 3.72 6.149 5.11 9.649l0.132 0.365c3.235 14.715 6.413 29.575 8.799 44.611 6.413 39.532 26.208 67.584 49.18 69.78s57.13-24.319 71.668-55.959c0-1.171 0-3.367 0-4.041 3.72-3.72 7.584-7.087 11.493-10.454 1.215 4.305 1.932 9.283 1.932 14.407 0 0.894 0 1.756-0.044 2.65v-0.132c-3.191 20.059-7.408 37.612-12.884 54.568l0.717-2.562c-7.584 20.952 0 29.751 19.429 36.851 36.12 11.172 66.778 31.098 90.613 57.306l0.132 0.176c26.34 30.922 25.182 47.833 2.87 81.638-51.566 76.735-130.994 103.088-214.653 119.149-65.739 12.752-123.864 31.23-178.885 55.518l5.3-2.108c-18.756 10.41-34.157 24.861-45.329 42.27l-0.308 0.497c-3.865 7.131-6.149 15.666-6.149 24.685 0 20.688 11.977 38.594 29.355 47.173l0.308 0.132c46.398 22.62 100.979 35.812 158.637 35.812 59.15 0 115.065-13.909 164.61-38.638l-2.152 0.982c28.536-13.192 32.137-38.858 5.256-52.239-25.988-13.148-56.192-23.074-87.963-28.14l-1.8-0.22c-29.078-4.393-60.176-16.924-89.077 0-11.537 8.623-21.582 18.271-30.336 28.946l-0.22 0.308c10.454 10.146 20.103 27.555 31.595 28.902 21.626-0.264 42.459-3.455 62.152-9.195l-1.655 0.409c2.196-0.176 4.758-0.264 7.364-0.264s5.154 0.088 7.672 0.264h-0.365c-1.756 5.476-3.953 10.234-6.735 14.627l0.132-0.264c-8.17 12.884-22.343 21.361-38.55 21.361-1.523 0-3.090-0.088-4.582-0.22h0.176c-6.281-0.453-13.645-0.717-21.053-0.717s-14.759 0.264-22.035 0.762l0.982-0.044c-32.986-0.629-60.994-21.229-72.474-50.175l-0.176-0.541c-5.388-20.6 14.715-60.321 39.721-72.839 56.764-28.052 115.241-38.858 176.776-14.187 16.924 7.087 38.682 7.584 55.417 16.924 28.946 13.865 53.894 30.116 76.427 49.092l-0.541-0.453c31.771 28.536 27.378 63.732-7.949 88.051-72.839 47.833-151.594 78.755-245.575 64.89z"></path>
</svg>
