<!-- Generated by IcoMoon.io -->
<svg version="1.1" xmlns="http://www.w3.org/2000/svg" width="512" height="512" viewBox="0 0 512 512">
<title>Borgit's Beastgrabbaz</title>
<g id="icomoon-ignore">
</g>
<path fill="#FFF" d="M257.884 46.587c-17.695 18.082-60.877 41.882-85.117 46.916-11.122 2.308-11.941 4.091-9.672 21.004l1.784 13.279-10.88 33.387 2.356 7.476c2.918 9.257 2.948 14.321 0.17 28.838-1.202 6.282-2.184 18.247-2.184 26.59v15.171h7.011c53.489 0 94.733 51.603 84.094 105.218-3.635 18.317-3.387 18.983 7.899 21.216 5.168 1.022 10.598 2.945 12.068 4.274 1.841 1.666 5.712 2.507 12.459 2.709 11.906 0.355 26.945 4.952 34.793 10.637l5.817 4.214 10.085-3.381c10.875-3.645 27.962-6.853 29.953-5.622 2.336 1.443 31.245-2.499 54.442-7.426 12.822-2.723 28.539-5.8 34.929-6.836 14.045-2.28 14.75-3.212 24.044-31.817 8.714-26.818 26.229-53.497 39.845-60.692 2.451-1.294-16.2-56.007-20.62-60.497-1.003-1.016-43.581 10.904-48.695 13.631-4.259 2.274-2.981 3.886 7.625 9.609l10.175 5.491 0.024 6.866c0.041 11.096-24.606 60.55-36.611 73.462l-2.888 3.105-16.15-7.139c-8.884-3.928-16.264-6.964-16.401-6.748s-1.099 3.339-2.135 6.94c-3.977 13.813-19.164 23.319-37.255 23.319-6.697 0-10.406-1.555-35.069-14.703-32.502-17.327-29.012-14.506-35-28.279-13.526-31.106-23.052-44.747-45.031-64.492-24.351-21.874-23.23-20.216-21.795-32.23 0.635-5.301 1.216-15.901 1.294-23.553 0.316-31.001 39.793-73.433 64.013-68.803l3.981 0.763-0.986 10.014c-1.192 12.093-1.979 12.025 15.337 1.323 22.298-13.781 29.132-16.362 45.245-17.094 23.24-1.057 28.957 4.859 21.93 22.688-3.151 7.993-3.832 14.062-1.724 15.365 2.719 1.681 53.373-26.082 53.373-29.253 0-1.868-9.507-13.12-25.313-29.96l-25.315-26.969-16.211-0.779c-16.264-0.781-37.632-5.505-67.11-14.834l-11.563-3.659-11.021 11.261zM45.52 206.875c-3.849 2.462-9.96 24.599-7.582 27.463 0.868 1.047 9.874 4.583 20.016 7.859 30.83 9.96 30.359 9.27 31.296 45.861 1.704 66.519 28.578 101.026 97.598 125.318 21.243 7.476 21.899 8.658 21.571 38.852l-0.233 21.445 5.496 1.526c7.516 2.087 19.75 1.935 22.513-0.279 2.040-1.634 5.35-26.587 11.831-89.18 0.422-4.091-9.911-7.642-34.673-11.916-36.605-6.317-47.663-12.104-65.332-34.185-17.796-22.243-20.81-43.36-12.2-85.465 2.174-10.624 3.948-20.786 3.946-22.584-0.006-3.081-2.57-3.886-44.804-14.047-24.638-5.927-45.453-11.002-46.255-11.277s-2.235 0-3.187 0.609zM178.162 271.377c-17.912 8.963-31.202 27.19-28.28 38.789 11.8 46.862 68.953 45.12 75.242-2.292 3.292-24.81-25.537-47.214-46.961-36.498zM68.275 317.563c-4.424 13.334-5.372 14.883-15.418 25.238-7.767 8.005-10.705 12.079-10.705 14.848 0 4.421-10.681 18.255-29.646 38.394l-12.505 13.277 17.069 8.396c36.666 18.035 44.447 18.199 57.382 1.209 12.469-16.378 21.582-19.104 43.047-12.88 21.385 6.2 25.949 3.846 11.536-5.949-6.886-4.68-11.456-11.652-25.063-38.243-6.297-12.303-13.847-25.094-16.778-28.425-4.859-5.522-8.319-13.885-10.777-26.064-1.383-6.858-3.261-4.507-8.141 10.2z"></path>
</svg>
