<!-- Generated by IcoMoon.io -->
<svg version="1.1" xmlns="http://www.w3.org/2000/svg" width="1024" height="1024" viewBox="0 0 1024 1024">
<title></title>
<g id="icomoon-ignore">
</g>
<path fill="#FFF" d="M543.259 838.707c-20.186 14.651-41.587 23.545-64.796 8.365-8.942-5.902-21.418-15.499-21.593-23.401 0.655-13.276 6.814-25.048 16.171-33.125l0.048-0.048c34.645-25.72 121.003-16.395 154.368 11.965 17.866 14.988 19.29 45.33-9.964 68.539-24.104 22.409-56.334 36.34-91.796 36.965h-0.144c-42.499-1.791-85.51 5.006-124.921-21.785-29.639-20.33-56.574-60.493-42.307-82.614 17.163-21.274 37.524-39.092 60.541-52.992l1.040-0.559c11.484-7.422 24.76-13.516 38.9-17.578l1.040-0.288c16.971-5.727 25.72-17.866 19.994-33.75-5.583-13.227-15.228-23.864-27.368-30.535l-0.336-0.144c-13.708-5.583-29.543-9.261-46.13-10.301h-0.432c-48.497-7.981-85.030-49.585-85.030-99.729 0-2.608 0.096-5.15 0.288-7.662v0.336c0-13.564 2.687-20.33 16.587-6.238 9.261 8.461 21.178 14.171 34.309 15.835l0.336 0.048c42.451 1.743 77.32 32.086 85.925 72.217l0.096 0.607c1.791 6.941 17.866 17.866 20.505 15.547 8.029-6.893 14.699-15.132 19.754-24.345l0.24-0.48c0.559-1.28 0.848-2.735 0.848-4.303s-0.336-3.023-0.896-4.351l0.048 0.096c-11.292-28.551-23.672-52.848-38.052-75.817l1.136 1.935c-10.829-10.541-25.48-17.259-41.635-17.866h-0.096c-59.933-2.368-107.631-51.52-107.631-111.838 0-3.774 0.192-7.566 0.559-11.244l-0.048 0.48c1.599-7.422 3.967-13.996 6.989-20.138l-0.24 0.511c5.006 3.919 10.541 7.518 15.355 11.773 11.436 10.541 21.418 28.743 34.086 30.871 42.818 7.326 64.796 34.261 82.806 69.627 4.447 8.75 15.691 14.092 23.912 21.082 5.854-8.942 10.781-19.242 14.219-30.15l0.24-0.896c0.048-0.751 0.048-1.599 0.048-2.464 0-30.15-17.434-56.238-42.77-68.731l-0.432-0.192c-28.215-13.756-61.405-17.866-79.080-50.672-16.075-29.255-27.831-57.47-12.476-90.66 6.941-14.988 9.117-14.267 18.906 0 13.324 14.699 27.127 28.215 41.683 40.883l0.559 0.511c12.428 13.1 24.152 27.175 34.885 42.019l0.8 1.184c2.831 4.111-0.896 13.052 1.983 17.866 7.278 9.501 14.747 17.963 22.777 25.848l0.048 0.048c7.518-8.75 21.226-17.866 21.593-25.848 0-21.418 2.687-51.232-9.645-63.004-52.127-50.336-18.714-98.305-3.215-147.427 4.447-11.773 9.645-21.881 15.739-31.334l-0.384 0.655c3.967-5.95 7.981-11.148 12.428-15.979l-0.096 0.096c3.647 4.207 6.941 8.894 9.789 13.852l0.24 0.432c8.942 19.994 17.866 39.988 25.528 60.318 15.18 39.796 24.808 78.184-12.476 113.485-23.401 22.313-11.773 53.551-8.75 80.311 2.223 7.47 9.069 12.86 17.115 12.86 5.438 0 10.253-2.416 13.564-6.238v-0.048c6.286-7.326 10.829-16.298 12.812-26.232l0.048-0.384c4.495-25.384 20.889-46.178 43.059-56.718l0.48-0.192c14.94-8.702 27.031-20.745 35.445-35.205l0.24-0.48c9.837-16.971 12.14-4.111 15.355 1.599 5.854 9.069 9.357 20.138 9.357 32.038 0 9.597-2.271 18.666-6.334 26.664l0.144-0.336c-13.179 31.43-38.1 55.679-69.098 67.722l-0.848 0.288c-49.056 20.505-69.627 41.779-65.516 87.109 0.896 9.837 10.157 18.906 15.547 28.551 8.029-7.518 19.802-13.372 23.209-22.505 13.564-37.668 35.685-61.917 77.8-67.259 13.372-1.599 24.633-19.802 36.965-29.958 4.639-3.919 9.837-7.326 14.795-10.877 3.678 5.583 6.718 12.061 8.798 18.954l0.144 0.511c7.326 53.551-40.18 111.869-97.265 119.019-45.841 5.342-82.103 40.451-89.14 85.27l-0.096 0.559c-0.432 2.56-0.655 5.438-0.655 8.413 0 7.854 1.599 15.307 4.543 22.121l-0.144-0.384c2.687 6.67 9.117 11.292 16.587 11.292s13.9-4.639 16.539-11.148l0.048-0.144c7.278-10.253 13.324-22.073 17.578-34.741l0.288-0.944c6.43-28.359 28.551-34.453 51.232-42.115 18.906-6.43 37.284-14.651 56.063-21.929l14.267-5.727c0.751 3.678 1.424 8.221 1.743 12.812v0.384c-0.896 67.451-38.564 109.23-103.503 109.422-1.568-0.192-3.407-0.288-5.246-0.288-23.017 0-42.53 14.892-49.441 35.589l-0.096 0.384c-11.965 47.457-47.65 65.324-86.021 79.783-28.359 10.541-55.679 25.528-55.871 54.783s31.238 41.923 58.19 49.633c48.161 13.756 92.259-3.407 135.462-21.418 14.795-6.046 14.651-28.215 2.127-40.499-17.866-17.866-71.37-20.33-91.923-5.535-14.459 9.964-6.43 19.61 2.127 23.72 10.253 3.455 22.025 5.583 34.309 5.902h0.144z"></path>
<path fill="#FFF" d="M542.731 839.603l2.831-1.424h-2.319z"></path>
</svg>
