<!-- Generated by IcoMoon.io -->
<svg version="1.1" xmlns="http://www.w3.org/2000/svg" width="1024" height="1024" viewBox="0 0 1024 1024">
<title>The Thricefold Discord</title>
<g id="icomoon-ignore">
</g>
<path fill="#FFF" d="M745.888 45.361c-2.981 2.619-7.4 9.062-10.187 14.856-6.941 14.434-15.715 21.933-23.328 19.944-14.895-3.896-25.286 5.452-25.428 22.874-0.060 7.206-0.222 14.227-0.357 15.603-0.4 3.984-10.45 14.171-16.737 16.963-14.163 6.289-17.122 18.571-7.254 30.099 9.393 10.975 6.263 20.418-9.989 30.138-7.703 4.608-10.56 10.639-6.289 13.278 3.988 2.465 9.040 16.208 10.071 27.387 0.988 10.715 1.545 12.267 6.802 18.915 8.263 10.452 13.336 26.563 13.278 42.168-0.121 32.267-11.651 40.39-35.192 24.791-6.502-4.309-13.132-7.355-18.943-8.7-29.419-6.808-36.343-16.462-35.769-49.869 0.474-27.574-1.044-33.971-8.061-33.971-10.172 0-25.060 19.875-31.513 42.073-6.545 22.514-22.335 20.764-30.633-3.396-5.004-14.57-16.494-13.756-22.639 1.601-3.793 9.479-12.118 13.784-18.138 9.382-2.406-1.761-3.851-5.96-6.733-19.561-4.471-21.104-16.483-17.602-29.624 8.633-11.679 23.328-32.499 27.269-52.28 9.901-13.849-12.159-23.616-6.313-26.608 15.923-3.211 23.857-15.624 32.968-29.133 21.386-15.069-12.919-25.555-7.421-27.030 14.167-0.745 10.908-2.043 13.732-9.186 20.007-14.258 12.516-21.741 11.905-36.212-2.96-17.85-18.334-23.84-14.044-22.305 15.977 0.786 15.362 0.629 16.855-2.144 20.381-4.182 5.316-11.655 5.304-15.23-0.028-5.052-7.527-15.773-17.622-18.719-17.622-5.235 0-10.034 2.6-11.070 5.997-6.877 22.579-23.618 31.087-26.965 13.704-5.975-31.035-10.489-34.092-23.438-15.872-8.306 11.688-25.65 7.546-32.902-7.856-4.686-9.948-13.115-5.424-13.164 7.066-0.054 13.3 4.914 20.2 29.232 40.59 4.684 3.928 9.617 8.214 10.962 9.522 22.355 21.761 72.2 31.763 113.528 22.783 21.845-4.748 44.804-14.744 58.365-25.411 6.33-4.979 30.134-16.010 48.758-22.594 16.048-5.674 33.601-9.925 75.222-18.218 77.954-15.532 180.718 26.645 156.318 64.155-5.056 7.772-17.579 7.923-34.038 0.407-47.394-21.645-103.085-24.961-166.615-9.923-19.273 4.561-39.835 12.409-61.156 23.341-21.367 10.951-59.269 47.727-73.739 71.548-21.748 35.797-27.534 48.857-35.259 79.598-9.212 36.662-9.059 63.126 0.626 108.694 13.747 64.671 32.568 96.512 80.362 135.961 63.238 52.194 157.298 67.57 236.39 38.644 6.64-2.43 13.016-4.417 14.169-4.417 3.269 0 26.662-11.145 34.589-16.479 17.988-12.105 37.4-30.381 63.384-59.678 12.090-13.627 19.26-1.877 16.345 26.784-4.768 46.869 31.625 113.053 73.248 133.21 85.037 41.18 153.021 1.315 153.027-89.734 0.004-51.348-27.622-80.358-74.409-78.141-61.516 2.914-81.847 73.959-28.136 98.311 26.068 11.819 43.627-11.431 18.293-24.221-8.547-4.316-10.138-6.259-10.138-12.383 0-27.318 41.225-25.609 49.55 2.051 9.234 30.68-6.436 58.050-36.916 64.484-27.738 5.857-74.109-33.457-76.641-64.975-3.084-38.42 29.172-82.179 60.605-82.217 18.778-0.024 22.239-0.93 30.086-7.867l6.924-6.121-3.429-3.683c-1.886-2.025-5.566-4.389-8.177-5.25-10.641-3.513-14.942-14.29-8.338-20.893 3.995-3.995 9.877-3.887 18.035 0.331 14.518 7.508 41.445-2.953 43.638-16.95 0.889-5.689-2.768-10.837-7.981-11.236-1.257-0.095-4.537-0.282-7.29-0.415s-7.449-0.377-10.435-0.54c-19.841-1.093-16.145-20.721 4.221-22.417 16.419-1.369 17.917-1.806 27.441-7.994 21.066-13.687 20.426-33.222-0.941-28.81-20.366 4.206-30.297 0.616-30.297-10.956 0-6.341 3.554-9.561 15.28-13.838 18.054-6.584 30.306-21.459 22.803-27.684-2.247-1.868-21.063-6.644-31.647-8.035-13.534-1.78-28.1-23.379-23.248-34.473 2.99-6.836 7.013-12.025 10.947-14.124 9.445-5.039 24.458-21.324 24.458-26.533 0-11.175-6.216-13.468-26.414-9.746-16.78 3.091-25.054-1.87-25.067-15.032-0.006-6.149 4.505-11.436 17.861-20.926 15.144-10.762 21.233-24.847 12.335-28.534-4.294-1.778-6.696-1.496-30.203 3.551-20.297 4.356-38.278-2.901-58.182-23.489-33.683-34.837-25.665-54.404 23.143-56.485 39.959-1.703 79.527-23.59 82.863-45.84 2.032-13.552-2.503-15.357-23.085-9.202-56.176 16.804-91.684-12.342-94.308-77.409-1.399-34.66 4.143-49.637 26.457-71.509 46.374-45.452 110.33-34.695 110.33 18.56 0 26.744-15.893 36.201-47.082 28.016-15.816-4.15-28.076 3.836-25.103 16.352 2.452 10.321 33.407 20.42 53.063 17.312 33.597-5.31 49.802-15.063 60.848-36.619 19.221-37.51 17.316-60.945-8.203-100.827-3.269-5.112-7.107-11.774-8.526-14.802-7.411-15.827-15.024-18.418-35.302-12.017-11.498 3.631-14.946 2.637-20.306-5.852-11.192-17.729-32.94-22.14-41.468-8.409-5.282 8.504-19.858 5.745-27.079-5.125-9.948-14.976-21.382-18.442-31.505-9.555zM479.119 477.338c39.619 5.994 73.649 23.793 106.154 55.519 19.326 18.862 42.064 56.662 45.497 75.638 0.816 4.511 2.053 11.1 2.749 14.638 23.651 120.429-67.456 233.187-183.161 226.685-9.832-0.553-19.486-1.029-21.453-1.057-21.279-0.31-46.32-9.322-78.66-28.306-11.016-6.468-34.29-28.797-42.26-40.547-5.646-8.321-24.957-39.609-24.957-40.433 0-0.239-2.264-5.273-5.032-11.186-17.163-36.658-15.984-96.26 2.738-138.432 18.235-41.079 49.090-75.756 80.463-90.433 4.595-2.15 9.322-4.688 10.502-5.637 3.485-2.809 24.187-10.319 35.754-12.973 5.9-1.354 12.658-2.942 15.017-3.532 6.901-1.724 45.136-1.687 56.649 0.056zM679.523 500.114c22.566 23.765 32.714 41.042 44.936 76.496 7.863 22.813 12.884 57.857 10.325 72.067-7.234 40.17-21.623 61.477-33.496 49.604-3.461-3.461-3.511-3.861-3.536-28.961-0.030-29.133-2.2-47.071-8.53-70.543-7.137-26.455-9.275-30.932-29.335-61.455-15.969-24.301-18.087-31.328-11.898-39.494 1.72-2.269 3.28-4.346 3.47-4.615 4.821-6.892 18.061-3.635 28.065 6.901z"></path>
</svg>
