<!-- Generated by IcoMoon.io -->
<svg version="1.1" xmlns="http://www.w3.org/2000/svg" width="1024" height="1024" viewBox="0 0 1024 1024">
<title></title>
<g id="icomoon-ignore">
</g>
<path fill="#FFF" d="M749.661 448.239c-6.106 39.861-12.432 77.87-17.517 115.821-0.788 4.474-1.254 9.634-1.254 14.909 0 8.147 1.122 16.017 3.163 23.522l-0.145-0.611c2.332 6.049 3.629 12.999 3.629 20.302 0 14.852-5.539 28.405-14.72 38.708l0.044-0.044c-13.831 24.499-39.729 40.75-69.388 40.75-3.207 0-6.427-0.189-9.546-0.554l0.378 0.044c-16.251-1.588-26.087 9.968-27.807 29.905-1.399 15.929 1.21 32.18 0 47.92-1.21 8.759-8.248 23.289-13.642 23.799-32.69 2.987-60.365 28.872-95.519 20.302-28.872-6.982-58.456-11.367-87.46-19.748-6.805-1.909-13.132-15.041-14.341-23.61-2.287-17.517 0-34.978 0-52.482 0-20.636-5.583-25.198-25.52-26.597-5.772 0-11.733 0-17.517 0-13.976 0-27.662 2.464-40.75-9.458-19.048-18.67-34.511-40.895-45.311-65.671l-0.51-1.355c-0.189-0.788-0.277-1.72-0.277-2.653 0-3.541 1.355-6.704 3.585-9.080v0c21.512-20.636 13.132-44.946 9.080-68.746-6.049-24.266-10.624-52.948-12.665-82.344l-0.088-1.632c0-51.417 5.583-102.514 39.029-145.538 0.977-1.021 1.764-2.23 2.23-3.585l0.044-0.088c14.72-68.412 74.707-80.478 127.189-99.527 19.004-5.961 40.895-9.414 63.572-9.414 2.93 0 5.816 0.044 8.759 0.189h-0.422c21.512 1.298 41.638 4.474 61.008 9.414l-2.23-0.466c1.399 0 3.497 8.248 2.464 9.080-9.968 8.059-19.048 15.551-15.419 30.97 0 2.098-11.367 6.805-17.517 10.857-3.73 2.609-6.982 5.217-10.057 7.958l0.088-0.088c4.562 0.233 8.891 1.021 12.942 2.376l-0.321-0.088c1.997 1.953 3.352 4.562 3.673 7.448v0.044c-3.308 2.287-7.681 3.673-11.178 5.772-7.171 4.562-14.152 9.458-21.147 14.341 3.163 3.863 6.282 7.87 9.269 11.878 0 0-1.764 2.098-2.798 3.163l-20.447 19.427c11.557 4.896 18.727-4.707 27.807-8.248 11.878-4.707 24.31-7.87 34.978-13.132 3.863-1.764 5.772-7.681 8.759-11.733-30.082-14.53 0-17.517 4.373-26.408s4.008-16.44 7.87-23.989 15.419-15.23 13.976-19.048c-4.896-11.733 1.588-14.852 8.248-11.178 18.494 7.681 34.366 16.528 49.086 26.963l-0.788-0.51c30.271 24.587 52.394 58.223 62.363 96.685l0.277 1.254c4.896 18.903 19.748 33.768 20.302 54.915 1.72 18.393 4.606 35.066 8.715 51.272l-0.51-2.287zM553.361 562.12c0.422 13.554 2.142 26.496 4.984 38.985l-0.277-1.355c2.609 8.103 7.549 14.808 14.064 19.515l0.088 0.088c11.557 4.43 24.864 7.039 38.796 7.039 16.818 0 32.791-3.73 47.045-10.435l-0.699 0.277c11.134-6.005 18.538-17.561 18.538-30.882 0-0.277 0-0.554 0-0.845v0.044c0-0.554 0-1.254 0-1.909 0-18.727-2.93-36.799-8.38-53.705l0.321 1.254c-4.197-10.857-9.269-10.857-17.517-13.277-28.172-8.248-47.92 13.642-72.098 19.238-15.929 3.497-29.905 13.831-25.009 26.087zM415.504 628.943c31.859 0 39.54-7.36 50.907-44.436 2.798-6.282 4.373-13.598 4.373-21.336 0-0.554 0-1.122-0.044-1.676v0.088c-2.653-11.367-11.222-20.258-22.167-23.377l-0.233-0.044c-16.118-5.772-31.159-14.341-47.41-18.727-4.984-1.72-10.712-2.754-16.717-2.754s-11.733 0.977-17.095 2.842l0.378-0.088c-23.799 11.878-29.382 59.288-12.432 80.1 15.419 16.251 36.465 27.108 59.987 29.338l0.378 0.044zM544.413 693.316c-4.896-15.23-11.367-33.768-17.517-52.482-3.308-12.067-12.577-9.269-20.813-9.634s-11.033 4.707-13.132 12.942c-4.373 16.251-12.432 31.67-16.251 47.92 0.088 8.57 1.953 16.673 5.217 23.989l-0.145-0.378c7.492-1.078 14.209-2.842 20.579-5.305l-0.655 0.233c6.66-3.163 9.458-13.466 20.813-4.562s21.89 3.308 21.89-12.766z"></path>
</svg>
