<!-- Generated by IcoMoon.io -->
<svg version="1.1" xmlns="http://www.w3.org/2000/svg" width="1024" height="1024" viewBox="0 0 1024 1024">
<title></title>
<g id="icomoon-ignore">
</g>
<path fill="#FFF" d="M850.036 363.796c0.282 2.712 0.423 5.835 0.423 9.013 0 36.91-20.836 68.961-51.346 85.035l-0.509 0.239c-12.798 7.571-19.48 26.866-26.682 41.953s-10.89 17.571-18.786 0c-8.037-15.976-15.933-29.296-24.578-42.094l0.847 1.356c-2.798-5.368-8.319-8.927-14.676-8.927-5.424 0-10.185 2.614-13.222 6.638l-0.043 0.043c-15.087 15.467-14.903 29.86 0 48.831s15.283 18.97-1.779 38.266c-8.405 9.675-15.087 20.891-23.179 30.934s-18.59 22.842-35.131 20.369c-22.983-3.319-28.081 10.89-33.548 30.044-12.289 43.548 4.577 70.219 49.524 72.887 12.994 0 26.161 0 39.34 0h17.571c-1.92 5.706-4.295 10.651-7.191 15.185l0.184-0.282c-6.681 7.712-14.903 14.068-21.443 21.964-8.829 12.050-22.897 19.805-38.83 19.805-2.43 0-4.761-0.184-7.105-0.509l0.282 0.043c-1.681-0.141-3.644-0.184-5.651-0.184-18.872 0-36.161 6.724-49.622 17.897l0.141-0.098c-47.236 32.474-98.539 38.125-148.020 0-7.614-7.007-16.443-12.896-26.075-17.289l-0.607-0.239c-4.577-0.748-9.816-1.215-15.185-1.215s-10.608 0.423-15.749 1.258l0.564-0.098c-28.732-0.184-53.353-17.571-64.102-42.376l-0.184-0.466c-3.319-6.313-3.319-11.074 5.098-11.399 5.227-0.368 11.399-0.607 17.571-0.607s12.289 0.239 18.363 0.65l-0.792-0.043c3.221 0.65 6.92 1.031 10.694 1.031 20.836 0 39.014-11.301 48.69-28.124l0.141-0.282c4.393-8.264 12.473-15.608 3.503-27.376-4.577-5.976-2.288-17.571-3.687-25.271-2.994-19.48-8.264-23.547-28.787-21.964-3.884 0-10 4.718-11.074 3.503-17.94-18.97-35.186-39.198-51.346-60.371l-1.313-1.822c-10.694-14.903 1.399-30.37 7.007-44.947 2.571-4.491 4.62-9.718 5.89-15.228l0.098-0.368c0-3.178-4.209-7.712-7.896-9.479-0.466-0.098-1.031-0.141-1.583-0.141-3.135 0-5.976 1.399-7.853 3.644v0c-6.681 11.074-11.78 22.983-17.571 34.253-2.104 3.319-6.681 5.282-10.185 7.896-2.104-3.687-4.209-7.191-6.172-10.89-2.387-4.111-4.902-9.111-7.148-14.295l-0.368-0.976c-10.185-25.836-10.185-25.836-35.131-14.903-22.658 9.816-41.628 2.104-42.333-22.289-2.245-22.756-9.393-43.45-20.369-61.586l0.368 0.65c-4.62-9.534-7.332-20.694-7.332-32.517 0-10.792 2.245-21.020 6.313-30.272l-0.184 0.466c15.651-44.763 52.702-70.219 85.686-99.57 3.503-2.994 10.89-1.583 17.571-2.104 0.043 0.89 0.098 1.963 0.098 3.037 0 5.141-0.607 10.185-1.724 14.946l0.098-0.423c-5.282 13.547-11.172 25.087-18.081 35.977l0.509-0.847c-15.283 23.547-8.080 44.058 7.191 63.592 6.822 9.761 18.038 16.117 30.738 16.117 10.283 0 19.578-4.154 26.357-10.835v0c16.357-15.283 30.934-30.738 56.205-26.541 4.393 0 10.185-4.902 14.393-8.405 21.768-18.461 43.364-36.867 64.623-55.641 33.548-29.86 60.23-31.075 95.361-3.884l75.176 57.8c4.068 3.46 8.602 6.822 13.32 10l0.564 0.368c10.185 5.976 20.369-12.798 31.259 0 7.191 8.405 16.16 15.283 23.363 23.547 6.497 8.602 16.682 14.111 28.179 14.111 7.007 0 13.547-2.061 19.068-5.608l-0.141 0.098c11.031-10.283 18.461-24.253 20.326-39.904l0.043-0.325c4.902-26.682-9.479-50.033-18.786-74.102-0.89-3.178-1.497-6.92-1.724-10.749v-0.141c4.013 0 8.786-1.074 11.964 0 34.72 19.111 62.703 46.726 81.63 80.078l0.564 1.031c4.957 16.031 7.939 34.48 8.264 53.592v0.141zM415.24 438.082c-17.571 0-36.867 26.161-29.664 38.83 11.215 17.375 23.731 32.474 37.843 45.923l0.098 0.098c13.363 13.872 28.971 3.503 43.548 0 19.86-4.013 21.075-6.681 13.504-24.762-2.798-6.681-8.786-12.657-9.295-19.296-3.319-38.266-35.468-33.873-56.021-40.738zM571.199 523.584c2.939 0.705 6.313 1.117 9.761 1.117 14.209 0 26.768-6.92 34.578-17.516l0.098-0.141c9.816-17.571 21.584-33.732 14.393-59.015-4.718-17.571-14.209-14.068-20.891-13.504-35.131 2.798-54.242 27.572-66.39 58.126-9.111 22.983-3.319 30.37 28.449 30.879zM472.28 615.962c0 2.614-2.994 5.792-2.288 8.080 6.442 25.228 13.645 46.487 22.234 67.096l-1.172-3.135c2.798 6.313 16.498 9.295 25.652 10.369s17.571-6.681 20.749-17.571 6.497-18.786 8.786-28.265c2.614-12.105 4.013-24.253 6.172-36.346-8.602 7.712-17.571 14.903-25.652 23.363-3.221 4.577-8.46 7.528-14.393 7.528s-11.172-2.939-14.338-7.473l-0.043-0.043c-5.651-6.215-11.356-11.909-17.332-17.375l-0.184-0.184c-2.387-2.104-5.043-4.068-7.798-5.792l-0.282-0.141z"></path>
</svg>
