<!-- Generated by IcoMoon.io -->
<svg version="1.1" xmlns="http://www.w3.org/2000/svg" width="1024" height="1024" viewBox="0 0 1024 1024">
<title></title>
<g id="icomoon-ignore">
</g>
<path fill="#FFF" d="M383.671 460.545c-0.482 3.766-0.735 8.151-0.735 12.567 0 31.713 13.952 60.173 36.003 79.59l0.126 0.126c12.127 10.218 19.785 25.418 19.785 42.455 0 11.266-3.368 21.778-9.169 30.527l0.126-0.199c-12.001 19.544-10.134 57.215-51.54 43.997-3.084-0.934-9.368 7.7-13.826 12.169s-10.459 10.627-15.368 15.368c1.699-6.934 3.368-13.983 5.392-20.918 2.675-11.35 5.717-20.918 9.284-30.171l-0.524 1.542c2.759-6.452 7.983-17.393 11.561-17.236 29.845 1.982 27.369-18.61 25.995-36.454-1.699-22.303-21.086-33.852-39.213-20.761-29.52 21.526-63.047 16.302-95.085 21.526-0.766 0-4.458-7.375-3.525-8.308 12.284-13.061 24.936-25.701 37.996-37.996 2.151-2.151 8.76-3.693 9.85-2.476 28.135 31.713 33.695-6.609 41.846-16.743 11.235-13.826 0-33.087-25.827-42.003-18.809-5.675-42.329-11.025-66.331-14.917l-3.368-0.451c-15.368-3.241-30.779-7.091-46.147-10.627 11.634-6 25.46-11.634 39.78-16.092l1.909-0.524c22.135-4.626 44.931-6.452 67.505-9.085s36.611-16.627 34.136-36.611c-2.759-23.52-15.368-30.779-40.136-30.779-14.718-2.916-27.695-9.001-38.636-17.519l0.199 0.157c-5.392-3.368-7.826-11.676-11.561-17.676 5.266 2.067 11.561 3.85 18.001 4.983l0.608 0.084c5.843 0 15.368 0 17.068-2.633 7.091-16.785 17.676-10.018 27.086-5.067s18.61 13.218 28.46 18.61c22.628 12.001 32.761 9.085 47.070-11.676 2.843-6.525 4.458-14.152 4.458-22.177 0-11.592-3.452-22.387-9.368-31.418l0.126 0.199c-1.783-1.626-4.060-2.759-6.567-3.084h-0.084c-8.917-1.542-23.393 0-25.995-4.301-6.651-13.91-12.567-30.286-16.953-47.28l-0.409-1.951c0-1.867 1.217-4.458 1.867-6.609 1.867 1.867 3.368 3.85 5.235 5.56 12.284 11.067 21.526 23.236 42.895 22.911 9.85 0 22.135 22.46 29.52 36.779s18.285 24.453 32.604 17.844c11.718-6.169 20.519-16.501 24.526-29.027l0.084-0.367c7.826-30.779 11.067-61.547 16.459-92.284 1.657-10.061 3.567-18.568 5.958-26.918l-0.409 1.657c1.867-4.175 3.934-7.784 6.284-11.109l-0.126 0.199c2.591 2.916 6.766 5.392 7.543 8.591 3.525 15.368 6.934 31.996 9.242 48.13 1.867 25.387 5.025 48.413 9.525 71.041l-0.608-3.651c4.018 14.351 12.893 26.237 24.694 34.020l0.241 0.126c13.543 7.375 25.544-2.916 32.153-18.17 3.368-7.826 15.368-12.935 16.627-20.309 3.084-21.243 16.302-22.743 32.604-21.526 0.566 0.084 1.259 0.126 1.909 0.126s1.343-0.042 1.982-0.126h-0.084l25.701-8.917c2.476 12.169-16.627 49.221-27.369 48.455-30.779-2.308-20.309 25.701-29.237 38.762-2.308 3.368 4.133 16.627 9.85 20.477 12.609 8.591 25.219 18.17 43.063 5.392s38.93-33.978 62.932-6.326c1.374 1.699 7.375 1.091 10.459 0 7.217-3.241 13.218-6.483 18.977-10.092l-0.693 0.409c-5.067 6.609-8.76 15.368-15.368 19.386-13.7 8.308-24.285 23.236-46.147 16.302-6.452-1.982-26.478 19.386-30.779 32.761-4.784 17.519 13.7 31.828 35.069 36.286 29.394 6 58.474 13.543 87.542 20.592 4.060 1.259 7.501 2.717 10.784 4.458l-0.325-0.157c-3.157 1.374-6.976 2.675-10.952 3.735l-0.608 0.126c-24.61 5.235-49.221 9.525-73.517 15.368-13.061 1.825-24.779 6.452-34.912 13.26l0.283-0.199c-10.459 9.368-20.592 21.526-9.368 39.696 9.525 15.368 15.368 28.303 37.063 17.844 1.259-0.241 2.717-0.409 4.217-0.409 5.308 0 10.176 1.909 13.983 5.067l-0.042-0.042c9.892 8.434 18.851 17.236 27.128 26.635l0.241 0.283c4.657 5.193 9.284 10.784 13.585 16.627l0.409 0.608c-4.868-2.675-10.983-5.633-17.278-8.266l-1.343-0.482c-4.626-1.699-11.067-4.458-14.477-2.591-30.779 16.627-51.823-6.766-75.373-19.061-5.675-2.916-15.368-7.983-17.844-6-9.693 10.302-24.61 22.628-24.17 33.852s-4.784 41.353 28.912 36.454c6-0.934 17.393 22.303 23.393 35.678 3.609 10.417 6.368 22.586 7.784 35.195l0.084 0.808c-7.7-8.591-15.368-17.236-23.068-25.701-3.325-3.693-7.018-6.976-11.025-9.85l-0.199-0.126c-26.761 23.236-26.761-1.982-33.37-17.519-5.193-9.609-10.627-17.886-16.743-25.586l0.283 0.367c-6.651-8.109-10.669-18.61-10.669-30.044 0-14.236 6.242-27.002 16.134-35.762l0.042-0.042c54.896-57.823 59.691-127.196 14.152-188.586-32.436-43.829-106.436-61.547-153.831-36.003-15.484 7.417-28.828 16.019-40.913 26.111l0.325-0.241c-36.286 34.136-37.545 39.37-37.545 97.351z"></path>
<path fill="#FFF" d="M516.868 397.781c5.067 0 10.302 0 15.368 0l71.366 4.91c0 32.93 1.699 65.974 1.699 98.893 0 1.699-8.591 5.392-12.778 4.91-58.914-7.826-61.505-4.784-62.932 56.155-1.217 81.982-3.693 163.976-4.784 246.115 0.65 23.393 2.56 45.612 5.591 67.474l-0.367-3.157c1.091 10.018 6.326 20.918-10.302 22.303s-25.387-2.916-26.153-19.827c-0.367-2.308-0.608-4.983-0.608-7.7s0.199-5.392 0.65-7.983l-0.042 0.283c4.626-22.219 7.259-47.763 7.259-73.915 0-24.453-2.308-48.329-6.735-71.481l0.367 2.35c-1.825-19.502-2.843-42.214-2.843-65.156 0-18.851 0.693-37.545 2.067-56.082l-0.157 2.476c0-18.17 4.784-36.171 5.675-54.13 1.542-30.779-19.386-48.455-53.239-39.213-22.628 6.326-23.068-0.934-22.46-17.844 1.091-27.852 1.699-55.83 2.476-83.85l90.133-7.983z"></path>
<path fill="#FFF" d="M682.868 211.954l-1.217 2.916-2.916-4.018 2.476-1.699z"></path>
</svg>
