<!-- Generated by IcoMoon.io -->
<svg version="1.1" xmlns="http://www.w3.org/2000/svg" width="512" height="512" viewBox="0 0 512 512">
<title>Kurnoth's Heralds</title>
<g id="icomoon-ignore">
</g>
<path fill="#FFF" d="M251.449 85.388c-0.685 0.956-5.21 5.3-10.055 9.653-4.846 4.353-9.768 9.462-10.935 11.355-1.168 1.891-4.916 6.267-8.329 9.723-10.408 10.539-13.782 14.438-14.775 17.078-0.524 1.391-2.772 4.631-4.995 7.2-7.38 8.528-13.421 16.492-14.077 18.565-0.357 1.125-1.901 3.816-3.432 5.98-1.532 2.163-4.165 6.101-5.852 8.75-1.689 2.649-3.608 5.649-4.266 6.666-0.659 1.016-1.67 2.92-2.248 4.23s-3.334 7.095-6.127 12.856c-4.787 9.88-7.925 18.185-9.394 24.879-1.196 5.447-4.741 7.581-14.803 8.91-4.955 0.655-11.073 1.804-13.596 2.552-12.897 3.831-29.697 3.349-37.232-1.069-14.774-8.657-23.794-30.88-20.629-50.822 2.642-16.657 1.532-20.641-3.564-12.777-6.897 10.643-10.148 29.885-7.992 47.291 1.443 11.649-0.453 13.655-8.070 8.546-19.002-12.746-28.473-50.602-19.564-78.207 1.729-5.362 3.485-9.959 3.902-10.215 0.416-0.258 1.025-2.137 1.35-4.174 0.325-2.039 1.239-4.244 2.029-4.898 1.308-1.087 2.087-5.722 0.961-5.722-0.456 0-2.1 1.408-7.003 5.997-1.232 1.154-2.844 3.488-3.581 5.188-0.737 1.698-3.047 5.341-5.131 8.094-8.486 11.204-12.585 35.415-10.714 63.279 1.188 17.686 2.42 20.947 11.473 30.395 2.567 2.678 5.27 5.69 6.003 6.69 1.362 1.856 10.401 7.96 11.789 7.96 0.42 0 2.526 0.815 4.678 1.811 16.326 7.559 47.118 11.556 67.056 8.706 38.715-5.536 43.495-5.685 63.508-1.979 12.991 2.404 20.1 5.174 25.383 9.885 2.44 2.175 6.096 5.223 8.125 6.767 5.388 4.108 11.843 12.406 13.617 17.504 0.85 2.443 2.796 6.798 4.323 9.68 8.637 16.295 12.829 39.973 12.829 72.473v12.375l-3.333 1.392c-4.041 1.689-4.093 0.647 0.477 9.58 2.094 4.096 3.806 7.888 3.805 8.426-0.010 3.476 10.842 22.405 12.847 22.405 2.379 0 3.727-1.286 4.708-4.488 0.355-1.159 2.337-5.182 4.401-8.941 2.066-3.757 3.757-7.315 3.757-7.902s1.702-4.491 3.784-8.675c4.6-9.246 4.574-8.702 0.5-10.404l-3.333-1.392 0.019-10.762c0.059-32.812 4.366-57.149 13.113-74.113 2.033-3.943 3.986-8.32 4.338-9.727 1.031-4.108 5.978-10.722 11.712-15.661 2.926-2.52 7.127-6.177 9.337-8.127 6.511-5.748 15.967-9.007 33.11-11.411 16.411-2.302 16.233-2.31 48.832 2.075 36.981 4.974 81.041-3.65 91.695-17.948 1.413-1.899 4.339-5.163 6.502-7.26 9.010-8.732 11.587-20.525 10.507-48.088-0.918-23.407-6.389-43.327-13.084-47.644-0.432-0.279-1.355-1.859-2.050-3.513-1.374-3.266-6.904-9.788-8.301-9.788-0.475 0-1.139-0.862-1.474-1.918-0.336-1.054-1.007-1.671-1.493-1.371-1.361 0.84-1.048 3.942 0.557 5.547 0.793 0.793 1.702 2.859 2.021 4.591s1.102 4.006 1.743 5.054c13.413 21.954 7.144 67.626-11.663 84.96-9.189 8.47-14.382 7.822-12.599-1.576 2.983-15.732-0.68-41.922-6.937-49.605-1.154-1.417-2.589-3.384-3.19-4.37-2.734-4.493-3.619 0.048-1.92 9.85 7.281 42.004-17.687 69.386-53.649 58.84-2.88-0.844-10.048-2.264-15.931-3.157-12.915-1.958-14.384-3.094-16.884-13.048-0.922-3.667-4.413-12.311-7.76-19.211-3.348-6.899-6.086-13.022-6.086-13.607s-0.796-2.227-1.769-3.644c-6.639-9.684-14.419-21.938-14.419-22.713 0-1.081-9.772-14.083-14.761-19.639-1.892-2.107-3.949-5.038-4.575-6.514s-5.844-7.681-11.599-13.787c-5.753-6.106-11.147-12.23-11.983-13.608-0.839-1.379-5.303-5.932-9.924-10.121-4.62-4.189-9.267-8.579-10.328-9.757-2.414-2.686-7.594-2.907-9.385-0.403zM262.19 93.409c4.269 3.989 9.724 10.966 11.097 14.19 0.591 1.388 3.031 5.099 5.423 8.242 2.39 3.145 4.348 6.135 4.348 6.644s0.632 1.451 1.405 2.091c0.774 0.641 2.744 4.016 4.379 7.496 1.635 3.482 5.329 10.292 8.207 15.133s6.080 11.031 7.114 13.755c1.034 2.721 2.601 6.047 3.481 7.385 7.204 10.96 19.084 46.862 19.181 57.966 0.050 5.528-1.070 7.27-5.887 9.179-2.243 0.888-5.361 2.802-6.933 4.253-1.572 1.453-4.785 3.705-7.141 5.007-12.436 6.87-15.178 8.65-22.077 14.323-6.724 5.533-18.546 24.274-20.707 32.833-0.502 1.99-1.565 5.545-2.361 7.904-0.796 2.357-1.909 6.106-2.472 8.332-1.603 6.342-5.112 5.842-6.663-0.952-2.923-12.798-8.192-25.873-13.337-33.098-1.064-1.494-2.892-4.403-4.065-6.466-3.162-5.57-13.843-14.047-26.403-20.96-3.928-2.162-8.329-5.041-9.78-6.399s-4.236-3.126-6.189-3.93c-7.596-3.129-9.133-6.719-6.864-16.040 0.51-2.095 1.607-7.014 2.443-10.932 0.833-3.918 1.917-7.875 2.41-8.796 0.492-0.92 2.53-6.286 4.527-11.922 1.999-5.636 5.577-13.891 7.952-18.343s4.627-9.097 5.001-10.322c0.376-1.226 3.016-6.155 5.865-10.951 2.85-4.797 6.637-11.791 8.416-15.54 2.999-6.323 9.994-17.297 13.865-21.751 0.911-1.048 1.958-2.899 2.327-4.115 0.775-2.55 8.185-12.030 11.832-15.133 3.643-3.102 7.643-2.787 11.605 0.918zM254.757 153.186c-1.162 0.465-2.303 1.829-2.532 3.030-0.644 3.363-2.228 10.166-3.825 16.424-6.261 24.543-1.67 73.294 7.027 74.631 10.204 1.567 15.331-54.871 7.218-79.467-0.842-2.554-2.058-6.967-2.7-9.809-1.252-5.535-1.896-6.131-5.188-4.81z"></path>
</svg>
