<!-- Generated by IcoMoon.io -->
<svg version="1.1" xmlns="http://www.w3.org/2000/svg" width="1024" height="1024" viewBox="0 0 1024 1024">
<title></title>
<g id="icomoon-ignore">
</g>
<path fill="#FFF" d="M528.966 103.575c0 14.342-0.119 15.161-2.411 15.161-2.358 0-2.411 0.819-2.411 27.877 0 23.977-0.261 27.877-1.829 27.877-1.457 0-1.829 1.745-1.829 8.5 0 7.682-0.237 8.5-2.411 8.5-1.947 0-2.411 0.819-2.411 4.25 0 2.968-0.556 4.25-1.829 4.25s-1.829 1.282-1.829 4.25c0 3.431-0.463 4.25-2.411 4.25-1.627 0-2.411 0.819-2.411 2.411 0 2.303-0.819 2.411-14.544 2.411-12.134 0-14.544 0.291-14.544 1.829 0 1.457-1.745 1.829-8.5 1.829s-8.5-0.38-8.5-1.829c0-1.021-1.080-1.829-2.411-1.829-2.007 0-2.411-0.819-2.411-4.856s-0.404-4.856-2.411-4.856c-1.341 0-2.411-0.819-2.411-1.829s-0.819-1.829-1.829-1.829c-1.282 0-1.829-1.282-1.829-4.25 0-3.431-0.463-4.25-2.411-4.25-1.627 0-2.411-0.819-2.411-2.411 0-1.947-0.819-2.411-4.25-2.411s-4.25 0.463-4.25 2.411c0 1.341-0.819 2.411-1.829 2.411-1.51 0-1.829 2.505-1.829 15.161 0 14.342-0.119 15.161-2.411 15.161-1.947 0-2.411 0.819-2.411 4.25 0 2.968-0.556 4.25-1.829 4.25-0.986 0-1.829 0.819-1.829 1.829s-1.080 1.829-2.411 1.829c-1.627 0-2.411 0.819-2.411 2.411 0 2.184-0.819 2.411-8.5 2.411s-8.5-0.237-8.5-2.411c0-1.947-0.819-2.411-4.25-2.411-2.968 0-4.25-0.556-4.25-1.829 0-0.986-0.819-1.829-1.829-1.829-1.282 0-1.829-1.282-1.829-4.25 0-3.431-0.463-4.25-2.411-4.25s-2.411-0.819-2.411-4.25c0-2.968-0.556-4.25-1.829-4.25-1.401 0-1.829-1.543-1.829-6.661 0-5.853-0.291-6.661-2.411-6.661-1.982 0-2.411-0.819-2.411-4.25s-0.463-4.25-2.411-4.25c-2.125 0-2.411-0.819-2.411-6.661 0-5.117-0.439-6.661-1.829-6.661-0.986 0-1.829-0.819-1.829-1.829 0-1.282-1.282-1.829-4.25-1.829s-4.25 0.556-4.25 1.829c0 1.021-1.080 1.829-2.411 1.829-2.358 0-2.411 0.819-2.411 34.572 0 29.912-0.237 34.538-1.829 34.538-1.366 0-1.829 1.484-1.829 6.055 0 5.271-0.321 6.055-2.411 6.055-1.627 0-2.411 0.819-2.411 2.411 0 1.341-0.819 2.411-1.829 2.411s-1.829 0.819-1.829 1.829c0 1.282-1.282 1.829-4.25 1.829-3.431 0-4.25 0.463-4.25 2.411 0 1.627-0.819 2.411-2.411 2.411-1.947 0-2.411 0.819-2.411 4.25 0 2.968-0.556 4.25-1.829 4.25s-1.829 1.282-1.829 4.25c0 3.431-0.463 4.25-2.411 4.25-2.209 0-3.258 3.146-2.564 7.563 0.083 0.498-0.665 0.902-1.686 0.902s-1.829 1.080-1.829 2.411c0 2.125-0.819 2.411-6.661 2.411-5.117 0-6.661 0.404-6.661 1.829 0 1.021-1.080 1.829-2.411 1.829-1.627 0-2.411 0.819-2.411 2.411 0 1.341-0.819 2.411-1.829 2.411s-1.829 0.819-1.829 1.829c0 1.021-1.080 1.829-2.411 1.829-1.627 0-2.411 0.819-2.411 2.411 0 1.341-0.819 2.411-1.829 2.411s-1.829 0.819-1.829 1.829c0 1.021-1.080 1.829-2.411 1.829-1.627 0-2.411 0.819-2.411 2.411 0 1.341-0.819 2.411-1.829 2.411-1.282 0-1.829 1.282-1.829 4.25 0 3.431-0.463 4.25-2.411 4.25s-2.411 0.819-2.411 4.25c0 2.968-0.556 4.25-1.829 4.25s-1.829 1.282-1.829 4.25c0 3.431-0.463 4.25-2.411 4.25s-2.411 0.819-2.411 4.25c0 2.968-0.556 4.25-1.829 4.25-1.021 0-1.829 1.080-1.829 2.411 0 1.627-0.819 2.411-2.411 2.411-1.341 0-2.411 0.819-2.411 1.829s-0.819 1.829-1.829 1.829c-1.282 0-1.829 1.282-1.829 4.25 0 3.431-0.463 4.25-2.411 4.25-2.303 0-2.411 0.819-2.411 15.161 0 12.656-0.291 15.161-1.829 15.161-1.457 0-1.829 1.745-1.829 8.5 0 7.682-0.237 8.5-2.411 8.5-2.268 0-2.411 0.819-2.411 12.743 0 10.507-0.321 12.743-1.829 12.743-1.401 0-1.829 1.543-1.829 6.661 0 5.853-0.291 6.661-2.411 6.661s-2.411 0.819-2.411 6.055c0 4.571-0.439 6.055-1.829 6.055-1.282 0-1.829 1.282-1.829 4.25 0 3.431-0.463 4.25-2.411 4.25s-2.411 0.819-2.411 4.25-0.463 4.25-2.411 4.25c-2.125 0-2.411 0.819-2.411 6.661 0 5.117-0.404 6.661-1.829 6.661-1.457 0-1.829 1.745-1.829 8.5 0 7.682-0.237 8.5-2.411 8.5-1.627 0-2.411 0.819-2.411 2.411 0 2.303-0.819 2.411-14.544 2.411h-14.544v6.055c0 4.571 0.439 6.055 1.829 6.055 1.021 0 1.829 1.080 1.829 2.411 0 1.627 0.819 2.411 2.411 2.411 1.341 0 2.411 0.819 2.411 1.829s0.819 1.829 1.829 1.829c1.021 0 1.829 1.080 1.829 2.411 0 1.947 0.819 2.411 4.25 2.411 2.968 0 4.25 0.556 4.25 1.829 0 1.021 1.080 1.829 2.411 1.829 1.627 0 2.411 0.819 2.411 2.411 0 1.341 0.819 2.411 1.829 2.411s1.829 0.819 1.829 1.829c0 1.021 1.080 1.829 2.411 1.829 1.627 0 2.411 0.819 2.411 2.411 0 1.341 0.819 2.411 1.829 2.411 1.543 0 1.829 2.707 1.829 16.966 0 16.182 0.119 16.966 2.411 16.966 2.125 0 2.411 0.819 2.411 6.661s0.291 6.661 2.411 6.661c2.303 0 2.411 0.819 2.411 16.966 0 14.283 0.291 16.966 1.829 16.966 1.457 0 1.829 1.888 1.829 9.688 0 6.020 0.498 9.688 1.282 9.688 0.7 0 1.021-0.463 0.665-1.021s0.083-1.021 0.927-1.021c0.874 0 1.567 0.7 1.567 1.567s-0.345 1.341-0.76 1.104c-0.404-0.261-1.567 0.026-2.529 0.641-1.366 0.874-1.164 1.104 0.962 1.139 2.47 0.026 2.731 0.609 2.731 6.079 0 4.571 0.439 6.055 1.829 6.055 1.282 0 1.829 1.282 1.829 4.25 0 3.431 0.463 4.25 2.411 4.25 2.268 0 2.411 0.819 2.411 12.743 0 10.507 0.321 12.716 1.829 12.716 1.021 0 1.829 1.080 1.829 2.411 0 1.627 0.819 2.411 2.411 2.411 1.341 0 2.411 0.819 2.411 1.829s0.819 1.829 1.829 1.829c1.080 0 1.829 1.104 1.829 2.79 0 3.55 2.149 5.699 5.699 5.699 1.982 0 2.79 0.7 2.79 2.411 0 1.947 0.819 2.411 4.25 2.411s4.25 0.463 4.25 2.411c0 1.627 0.819 2.411 2.411 2.411 1.341 0 2.411 0.819 2.411 1.829s0.819 1.829 1.829 1.829c1.021 0 1.829 1.080 1.829 2.411 0 1.627 0.819 2.411 2.411 2.411 1.341 0 2.411 0.819 2.411 1.829s0.819 1.829 1.829 1.829c1.282 0 1.829 1.282 1.829 4.25 0 3.431 0.463 4.25 2.411 4.25 1.627 0 2.411 0.819 2.411 2.411 0 1.341 0.819 2.411 1.829 2.411s1.829 0.819 1.829 1.829c0 1.021 1.080 1.829 2.411 1.829 1.627 0 2.411 0.819 2.411 2.411s0.819 2.411 2.411 2.411c1.341 0 2.411 0.819 2.411 1.829s0.819 1.829 1.829 1.829c1.021 0 1.829 1.080 1.829 2.411 0 1.627 0.819 2.411 2.411 2.411 1.341 0 2.411 0.819 2.411 1.829s0.819 1.829 1.829 1.829c1.51 0 1.829 2.209 1.829 12.743s-0.321 12.716-1.829 12.716c-1.021 0-1.829 1.080-1.829 2.411 0 1.627-0.819 2.411-2.411 2.411s-2.411 0.819-2.411 2.411c0 1.947-0.819 2.411-4.25 2.411-2.968 0-4.25 0.556-4.25 1.829s-1.282 1.829-4.25 1.829c-3.431 0-4.25 0.463-4.25 2.411 0 2.184-0.819 2.411-8.5 2.411-6.72 0-8.5 0.38-8.5 1.829 0 1.282-1.282 1.829-4.25 1.829-3.431 0-4.25 0.463-4.25 2.411 0 1.627-0.819 2.411-2.411 2.411-1.947 0-2.411 0.819-2.411 4.25s0.463 4.25 2.411 4.25c1.341 0 2.411 0.819 2.411 1.829s0.819 1.829 1.829 1.829c1.021 0 1.829 1.080 1.829 2.411 0 1.947 0.819 2.411 4.25 2.411 2.968 0 4.25 0.556 4.25 1.829s1.282 1.829 4.25 1.829c3.431 0 4.25 0.463 4.25 2.411 0 1.627 0.819 2.411 2.411 2.411 1.341 0 2.411 0.819 2.411 1.829 0 1.282 1.282 1.829 4.25 1.829 3.431 0 4.25 0.463 4.25 2.411 0 1.627 0.819 2.411 2.411 2.411 1.341 0 2.411 0.819 2.411 1.829 0 1.282 1.282 1.829 4.25 1.829 3.431 0 4.25 0.463 4.25 2.411s0.819 2.411 4.25 2.411c2.968 0 4.25 0.556 4.25 1.829s1.282 1.829 4.25 1.829c3.431 0 4.25 0.463 4.25 2.411 0 1.341 0.819 2.411 1.829 2.411s1.829 1.080 1.829 2.411c0 1.947 0.819 2.411 4.25 2.411 2.968 0 4.25 0.556 4.25 1.829s1.282 1.829 4.25 1.829c3.431 0 4.25 0.463 4.25 2.411 0 1.627 0.819 2.411 2.411 2.411 1.341 0 2.411 0.819 2.411 1.829 0 1.282 1.282 1.829 4.25 1.829 3.431 0 4.25 0.463 4.25 2.411s0.819 2.411 4.25 2.411c2.968 0 4.25 0.556 4.25 1.829s1.282 1.829 4.25 1.829 4.25-0.556 4.25-1.829c0-1.457 1.745-1.829 8.5-1.829s8.5 0.38 8.5 1.829c0 1.282 1.282 1.829 4.25 1.829 3.431 0 4.25 0.463 4.25 2.411 0 2.125 0.819 2.411 6.661 2.411 5.117 0 6.661 0.404 6.661 1.829 0 1.567 3.895 1.829 27.877 1.829 27.093 0 27.877 0.059 27.877 2.411s0.819 2.411 30.204 2.411c29.8 0 30.204-0.026 29.563-2.47-0.345-1.366-0.178-2.386 0.404-2.268 6.696 1.223 38.028-0.345 38.028-1.923 0-1.51 2.505-1.829 15.161-1.829 14.342 0 15.161-0.143 15.161-2.411s0.819-2.411 16.966-2.411c14.283 0 16.966-0.291 16.966-1.829 0-1.457 1.745-1.829 8.5-1.829 7.682 0 8.5-0.237 8.5-2.411s0.819-2.411 8.5-2.411c6.755 0 8.5-0.38 8.5-1.829 0-1.401 1.543-1.829 6.661-1.829 5.853 0 6.661-0.291 6.661-2.411s0.819-2.411 6.055-2.411c4.571 0 6.055-0.439 6.055-1.829 0-1.282 1.282-1.829 4.25-1.829 3.431 0 4.25-0.463 4.25-2.411 0-2.125 0.819-2.411 6.661-2.411s6.661-0.291 6.661-2.411c0-1.947 0.819-2.411 4.25-2.411 2.968 0 4.25-0.556 4.25-1.829s1.282-1.829 4.25-1.829c3.348 0 4.25-0.498 4.25-2.303 0-1.247 0.665-2.268 1.51-2.244 4.713 0.178 6.981-0.522 6.981-2.149 0-0.986 0.819-1.829 1.829-1.829s1.829-1.080 1.829-2.411c0-1.627 0.819-2.411 2.411-2.411 1.341 0 2.411-0.819 2.411-1.829s1.080-1.829 2.411-1.829c1.627 0 2.411-0.819 2.411-2.411 0-1.341 0.819-2.411 1.829-2.411 1.282 0 1.829-1.282 1.829-4.25s-0.556-4.25-1.829-4.25c-0.986 0-1.829-0.819-1.829-1.829s-1.080-1.829-2.411-1.829c-1.627 0-2.411-0.819-2.411-2.411 0-1.805-0.819-2.411-3.111-2.411-2.149 0-2.825-0.463-2.184-1.51s0.261-0.986-1.139 0.143c-1.864 1.51-2.040 1.247-2.040-2.731 0-3.576-0.439-4.393-2.411-4.393s-2.411-0.819-2.411-4.25c0-2.968-0.556-4.25-1.829-4.25s-1.829-1.282-1.829-4.25c0-3.431-0.463-4.25-2.411-4.25-2.268 0-2.411-0.819-2.411-12.743s0.143-12.743 2.411-12.743c1.947 0 2.411-0.819 2.411-4.25 0-2.968 0.556-4.25 1.829-4.25 1.021 0 1.829-1.080 1.829-2.411 0-1.627 0.819-2.411 2.411-2.411 1.947 0 2.411-0.819 2.411-4.25 0-2.968 0.556-4.25 1.829-4.25 0.986 0 1.829-0.819 1.829-1.829 0-1.306 1.341-1.829 4.856-1.829 4.048 0 4.856-0.404 4.856-2.411 0-1.341 0.819-2.411 1.829-2.411s1.829-0.819 1.829-1.829c0-1.021 1.080-1.829 2.411-1.829 1.627 0 2.411-0.819 2.411-2.411 0-1.341 0.819-2.411 1.829-2.411 1.282 0 1.829-1.282 1.829-4.25 0-3.431 0.463-4.25 2.411-4.25 1.341 0 2.411-0.819 2.411-1.829s0.819-1.829 1.829-1.829c1.021 0 1.829-1.080 1.829-2.411 0-1.627 0.819-2.411 2.411-2.411s2.411-0.819 2.411-2.411c0-1.341 0.819-2.411 1.829-2.411 1.282 0 1.829-1.282 1.829-4.25 0-3.431 0.463-4.25 2.411-4.25 2.184 0 2.411-0.819 2.411-8.5 0-6.72 0.38-8.5 1.829-8.5 0.986 0 1.829-0.819 1.829-1.829s1.080-1.829 2.411-1.829c1.627 0 2.411-0.819 2.411-2.411 0-1.341 0.819-2.411 1.829-2.411 1.282 0 1.829-1.282 1.829-4.25 0-3.431 0.463-4.25 2.411-4.25 2.303 0 2.411-0.819 2.411-15.161 0-12.656 0.291-15.161 1.829-15.161 1.662 0 2.446-2.885 1.923-6.981-0.119-0.843 0.927-1.51 2.268-1.51 2.040 0 2.47-0.784 2.47-4.25s-0.463-4.25-2.411-4.25c-2.303 0-2.411-0.819-2.411-14.544s0.143-14.544 2.411-14.544c1.627 0 2.411-0.819 2.411-2.411 0-1.341 0.819-2.411 1.829-2.411s1.829-0.819 1.829-1.829c0-1.021 1.080-1.829 2.411-1.829 1.627 0 2.411-0.819 2.411-2.411 0-1.341 0.819-2.411 1.829-2.411s1.829-0.819 1.829-1.829c0-1.021 1.080-1.829 2.411-1.829 2.327 0 2.411-0.819 2.411-19.317 0-17.37 0.202-19.376 2.125-19.875 2.007-0.522 2.007-0.556 0-0.7-2.623-0.178-2.85-3.787-0.237-3.787 1.045 0 1.543 0.556 1.139 1.223s-0.178 1.223 0.522 1.223c0.843 0 1.282-7.444 1.282-22.438 0-19.115 0.261-22.438 1.829-22.438s1.829-2.707 1.829-16.966c0-14.283-0.291-16.966-1.829-16.966-1.457 0-1.829-1.745-1.829-8.5 0-7.682-0.237-8.5-2.411-8.5-1.627 0-2.411-0.819-2.411-2.411s-0.819-2.411-2.411-2.411c-1.341 0-2.411-0.819-2.411-1.829s-0.819-1.829-1.829-1.829c-1.021 0-1.829-1.080-1.829-2.411 0-1.627-0.819-2.411-2.411-2.411-2.303 0-2.411-0.819-2.411-15.161s0.119-15.161 2.411-15.161c1.341 0 2.411-0.819 2.411-1.829s0.819-1.829 1.829-1.829c1.484 0 1.829-2.007 1.829-10.911v-10.911h-8.347c-6.316 0-8.525-0.439-9.047-1.829-0.404-1.080-2.209-1.829-4.369-1.829-3.633 0-3.668-0.059-3.668-6.661 0-5.853 0.291-6.661 2.411-6.661 1.947 0 2.411-0.819 2.411-4.25 0-2.968 0.556-4.25 1.829-4.25s1.829-1.282 1.829-4.25c0-3.431 0.463-4.25 2.411-4.25s2.411-0.819 2.411-4.25c0-2.968 0.556-4.25 1.829-4.25 1.021 0 1.829-1.080 1.829-2.411 0-1.627 0.819-2.411 2.411-2.411 1.947 0 2.411-0.819 2.411-4.25 0-2.968 0.556-4.25 1.829-4.25s1.829-1.282 1.829-4.25c0-3.431 0.463-4.25 2.411-4.25s2.411-0.819 2.411-4.25 0.463-4.25 2.411-4.25c2.184 0 2.411-0.819 2.411-8.5v-8.5h-9.106c-8.292 0-9.082 0.202-9.082 2.411 0 1.982-0.819 2.411-4.25 2.411-2.968 0-4.25 0.556-4.25 1.829 0 0.986-0.819 1.829-1.829 1.829s-1.829 1.080-1.829 2.411c0 1.627-0.819 2.411-2.411 2.411-1.341 0-2.411 0.819-2.411 1.829 0 1.282-1.282 1.829-4.25 1.829-3.431 0-4.25 0.463-4.25 2.411 0 1.341-0.819 2.411-1.829 2.411s-1.829 0.819-1.829 1.829c0 1.484-2.040 1.829-10.911 1.829s-10.911-0.345-10.911-1.829c0-0.986-0.819-1.829-1.829-1.829-1.484 0-1.829-2.007-1.829-10.911v-10.911h-6.661c-5.853 0-6.661 0.291-6.661 2.411s-0.819 2.411-6.661 2.411c-5.853 0-6.661-0.291-6.661-2.411 0-1.341-0.819-2.411-1.829-2.411-1.282 0-1.829-1.282-1.829-4.25s0.556-4.25 1.829-4.25c1.282 0 1.829-1.282 1.829-4.25 0-3.431 0.463-4.25 2.411-4.25 2.125 0 2.411-0.819 2.411-6.661v-6.661h-4.742c-4.132 0-4.654 0.321-4.106 2.411 0.609 2.303 0.026 2.411-12.252 2.411h-12.858v-4.25c0-3.431-0.463-4.25-2.411-4.25s-2.411-0.819-2.411-4.25c0-2.968-0.556-4.25-1.829-4.25-1.021 0-1.829-1.080-1.829-2.411 0-1.627-0.819-2.411-2.411-2.411-1.341 0-2.411-0.819-2.411-1.829s-0.819-1.829-1.829-1.829c-1.021 0-1.829-1.080-1.829-2.411 0-1.627-0.819-2.411-2.411-2.411-1.341 0-2.411-0.819-2.411-1.829 0-1.401-1.543-1.829-6.661-1.829-5.853 0-6.661-0.291-6.661-2.411s-0.819-2.411-6.055-2.411c-4.571 0-6.055-0.439-6.055-1.829 0-1.282-1.282-1.829-4.25-1.829-3.431 0-4.25-0.463-4.25-2.411s-0.819-2.411-4.25-2.411c-2.968 0-4.25-0.556-4.25-1.829s-1.282-1.829-4.25-1.829c-3.431 0-4.25-0.463-4.25-2.411 0-2.125-0.819-2.411-6.661-2.411-5.117 0-6.661-0.404-6.661-1.829 0-1.457-1.745-1.829-8.5-1.829-7.682 0-8.5-0.237-8.5-2.411 0-2.244-0.819-2.411-10.911-2.411-8.875 0-10.911-0.345-10.911-1.829 0-1.282-1.282-1.829-4.25-1.829-3.431 0-4.25-0.463-4.25-2.411 0-1.341-0.819-2.411-1.829-2.411-1.282 0-1.829-1.282-1.829-4.25 0-3.431-0.463-4.25-2.411-4.25-2.184 0-2.411-0.819-2.411-8.5 0-6.72-0.38-8.5-1.829-8.5-1.401 0-1.829-1.543-1.829-6.661 0-5.853-0.291-6.661-2.411-6.661s-2.411-0.819-2.411-6.055c0-4.571-0.439-6.055-1.829-6.055s-1.829-1.543-1.829-6.661c0-5.853-0.291-6.661-2.411-6.661-2.244 0-2.411-0.819-2.411-10.911 0-8.875-0.345-10.911-1.829-10.911s-1.829-1.745-1.829-8.5c0-7.682-0.237-8.5-2.411-8.5-1.947 0-2.411-0.819-2.411-4.25 0-2.968-0.556-4.25-1.829-4.25s-1.829-1.282-1.829-4.25v-4.25h-13.325v15.161zM542.322 236.351c0 1.947 0.819 2.411 4.25 2.411 2.968 0 4.25 0.556 4.25 1.829 0 0.986 0.819 1.829 1.829 1.829 1.484 0 1.829 2.007 1.829 10.911s-0.345 10.911-1.829 10.911c-0.986 0-1.829 0.819-1.829 1.829s-1.080 1.829-2.411 1.829c-1.627 0-2.411 0.819-2.411 2.411 0 2.244-0.819 2.411-10.911 2.411s-10.911-0.178-10.911-2.411c0-1.341-0.819-2.411-1.829-2.411-2.184 0-2.47-2.386-0.291-2.529 1.223-0.083 1.223-0.237 0-0.7-1.104-0.439-1.51-4.742-1.51-15.657v-15.043h10.911c10.093 0 10.911 0.178 10.911 2.411zM391.968 266.061c0 1.282 1.282 1.829 4.25 1.829h4.25v6.661c0 5.853 0.291 6.661 2.411 6.661 2.184 0 2.411 0.819 2.411 8.5s-0.237 8.5-2.411 8.5c-1.627 0-2.411 0.819-2.411 2.411 0 1.341-0.819 2.411-1.829 2.411s-1.829 0.819-1.829 1.829c0 1.457-1.745 1.829-8.5 1.829s-8.5-0.38-8.5-1.829c0-1.021-1.080-1.829-2.411-1.829-1.627 0-2.411-0.819-2.411-2.411s-0.819-2.411-2.411-2.411c-1.982 0-2.411-0.819-2.411-4.25 0-2.968-0.556-4.25-1.829-4.25-1.401 0-1.829-1.543-1.829-6.661s0.439-6.661 1.829-6.661c0.986 0 1.829-0.819 1.829-1.829s1.080-1.829 2.411-1.829c1.627 0 2.411-0.819 2.411-2.411s0.819-2.411 2.411-2.411c1.341 0 2.411-0.819 2.411-1.829 0-1.366 1.484-1.829 6.055-1.829s6.055 0.439 6.055 1.829zM674.457 270.279c0 1.947 0.819 2.411 4.25 2.411 4.048 0 4.25 0.202 4.25 4.25 0 3.431 0.463 4.25 2.411 4.25 2.184 0 2.411 0.819 2.411 8.5s-0.237 8.5-2.411 8.5c-1.627 0-2.411 0.819-2.411 2.411 0 1.982-0.819 2.411-4.25 2.411-2.968 0-4.25 0.556-4.25 1.829 0 1.401-1.543 1.829-6.661 1.829s-6.661-0.439-6.661-1.829c0-1.282-1.282-1.829-4.25-1.829-3.431 0-4.25-0.463-4.25-2.411 0-1.341-0.819-2.411-1.829-2.411-1.484 0-1.829-2.007-1.829-10.911s0.345-10.911 1.829-10.911c0.986 0 1.829-0.819 1.829-1.829 0-1.282 1.282-1.829 4.25-1.829 3.431 0 4.25-0.463 4.25-2.411 0-2.125 0.819-2.411 6.661-2.411s6.661 0.291 6.661 2.411zM789.658 364.85c0 1.627 0.819 2.411 2.411 2.411 1.341 0 2.411 0.819 2.411 1.829s0.819 1.829 1.829 1.829c1.484 0 1.829 2.007 1.829 10.911v10.911h-4.25c-2.968 0-4.25 0.556-4.25 1.829 0 1.366-1.484 1.829-6.055 1.829s-6.055-0.439-6.055-1.829c0-1.021-1.080-1.829-2.411-1.829-1.627 0-2.411-0.819-2.411-2.411 0-1.341-0.819-2.411-1.829-2.411-1.457 0-1.829-1.745-1.829-8.5s0.38-8.5 1.829-8.5c0.986 0 1.829-0.819 1.829-1.829s1.080-1.829 2.411-1.829c1.627 0 2.411-0.819 2.411-2.411 0-2.093 0.819-2.411 6.055-2.411s6.055 0.321 6.055 2.411zM297.398 371.542c0 3.431 0.463 4.25 2.411 4.25 2.093 0 2.411 0.819 2.411 6.055s-0.321 6.055-2.411 6.055c-1.947 0-2.411 0.819-2.411 4.25 0 2.327-0.404 4.191-0.902 4.106-5.699-0.902-11.206 0.345-11.206 2.564 0 1.627-0.819 2.411-2.411 2.411s-2.411-0.819-2.411-2.411c0-1.947-0.819-2.411-4.25-2.411-4.048 0-4.25-0.202-4.25-4.25 0-2.968-0.556-4.25-1.829-4.25s-1.829-1.282-1.829-4.25 0.556-4.25 1.829-4.25c1.282 0 1.829-1.282 1.829-4.25 0-3.431 0.463-4.25 2.411-4.25 1.341 0 2.411-0.819 2.411-1.829 0-1.484 1.947-1.829 10.305-1.829h10.305v4.25zM640.527 409.718c0 7.682-0.237 8.5-2.411 8.5-1.341 0-2.411 0.819-2.411 1.829s-0.819 1.829-1.829 1.829c-1.021 0-1.829 1.080-1.829 2.411 0 1.947-0.819 2.411-4.25 2.411-2.968 0-4.25 0.556-4.25 1.829 0 1.401-1.543 1.829-6.661 1.829-5.853 0-6.661 0.291-6.661 2.411 0 1.982-0.819 2.411-4.25 2.411-2.968 0-4.25 0.556-4.25 1.829 0 1.021-1.080 1.829-2.411 1.829-1.627 0-2.411 0.819-2.411 2.411 0 1.947-0.819 2.411-4.25 2.411s-4.25 0.463-4.25 2.411c0 1.341-0.819 2.411-1.829 2.411s-1.829 0.819-1.829 1.829c0 1.021-1.080 1.829-2.411 1.829-1.947 0-2.411 0.819-2.411 4.25 0 2.968-0.556 4.25-1.829 4.25-1.457 0-1.829 1.745-1.829 8.5s0.38 8.5 1.829 8.5c1.282 0 1.829 1.282 1.829 4.25 0 3.431 0.463 4.25 2.411 4.25 1.627 0 2.411 0.819 2.411 2.411 0 1.341 0.819 2.411 1.829 2.411s1.829 0.819 1.829 1.829c0 1.457 1.829 1.829 9.082 1.829s9.106-0.38 9.106-1.829c0-1.457 1.745-1.829 8.5-1.829 7.682 0 8.5-0.237 8.5-2.411 0-1.982 0.819-2.411 4.25-2.411 2.968 0 4.25-0.556 4.25-1.829 0-0.986 0.819-1.829 1.829-1.829s1.829-1.080 1.829-2.411c0-1.627 0.819-2.411 2.411-2.411 1.341 0 2.411-0.819 2.411-1.829s0.819-1.829 1.829-1.829c1.282 0 1.829-1.282 1.829-4.25 0-3.431 0.463-4.25 2.411-4.25 1.627 0 2.411-0.819 2.411-2.411 0-1.341 0.819-2.411 1.829-2.411s1.829-0.819 1.829-1.829c0-1.021 1.080-1.829 2.411-1.829 1.627 0 2.411-0.819 2.411-2.411 0-1.341 0.819-2.411 1.829-2.411 1.282 0 1.829-1.282 1.829-4.25 0-3.431 0.463-4.25 2.411-4.25 1.627 0 2.411-0.819 2.411-2.411 0-1.341 0.819-2.411 1.829-2.411s1.829-0.819 1.829-1.829c0-1.282 1.282-1.829 4.25-1.829 3.431 0 4.25-0.463 4.25-2.411 0-1.627 0.819-2.411 2.411-2.411 1.341 0 2.411-0.819 2.411-1.829 0-1.282 1.282-1.829 4.25-1.829 3.431 0 4.25-0.463 4.25-2.411 0-1.627 0.819-2.411 2.411-2.411 1.341 0 2.411-0.819 2.411-1.829s0.819-1.829 1.829-1.829c1.021 0 1.829-1.080 1.829-2.411 0-1.627 0.819-2.411 2.411-2.411 1.341 0 2.411-0.819 2.411-1.829 0-1.282 1.282-1.829 4.25-1.829 3.431 0 4.25-0.463 4.25-2.411 0-2.093 0.819-2.411 6.055-2.411h6.055v8.5c0 6.755-0.38 8.5-1.829 8.5-1.021 0-1.829 1.080-1.829 2.411 0 1.627-0.819 2.411-2.411 2.411-2.093 0-2.411 0.819-2.411 6.055 0 4.571-0.439 6.055-1.829 6.055-1.021 0-1.829 1.080-1.829 2.411s0.819 2.411 1.829 2.411c1.401 0 1.829 1.543 1.829 6.661 0 5.853 0.291 6.661 2.411 6.661 2.184 0 2.411 0.819 2.411 8.5s-0.237 8.5-2.411 8.5c-1.947 0-2.411 0.819-2.411 4.25 0 2.968-0.556 4.25-1.829 4.25s-1.829 1.282-1.829 4.25c0 4.048-0.202 4.25-4.25 4.25-2.968 0-4.25 0.556-4.25 1.829 0 1.021-1.080 1.829-2.411 1.829-1.627 0-2.411 0.819-2.411 2.411 0 1.982-0.819 2.411-4.25 2.411-2.968 0-4.25 0.556-4.25 1.829 0 0.986-0.819 1.829-1.829 1.829s-1.829 1.080-1.829 2.411c0 1.627-0.819 2.411-2.411 2.411-1.341 0-2.411 0.819-2.411 1.829 0 1.543-2.707 1.829-16.966 1.829s-16.966-0.291-16.966-1.829c0-1.457-1.745-1.829-8.5-1.829h-8.5v8.5c0 6.755 0.38 8.5 1.829 8.5 1.021 0 1.829 1.080 1.829 2.411 0 1.947 0.819 2.411 4.25 2.411h4.25v10.305c0 8.347-0.345 10.305-1.829 10.305-1.104 0-1.829 1.139-1.829 2.909 0 2.327-0.498 2.79-2.411 2.303-2.093-0.556-2.411-0.026-2.411 3.752 0 3.087-0.522 4.393-1.829 4.393s-1.829 1.282-1.829 4.25c0 3.431-0.463 4.25-2.411 4.25-1.341 0-2.411 0.819-2.411 1.829s-0.819 1.829-1.829 1.829c-1.282 0-1.829 1.282-1.829 4.25v4.25h-13.325c-11.054 0-13.325-0.321-13.325-1.829 0-1.366-1.484-1.829-6.055-1.829s-6.055 0.439-6.055 1.829c0 1.021-1.080 1.829-2.411 1.829-1.627 0-2.411 0.819-2.411 2.411 0 1.341-0.819 2.411-1.829 2.411s-1.829 1.080-1.829 2.411c0 1.627-0.819 2.411-2.411 2.411-1.341 0-2.411 0.819-2.411 1.829 0 1.282-1.306 1.829-4.393 1.829-3.787 0-4.31 0.321-3.752 2.411 0.463 1.805 0.026 2.411-1.686 2.411-1.282 0-2.303 0.819-2.303 1.829 0 1.401-1.543 1.829-6.661 1.829h-6.661v4.25c0 3.431 0.463 4.25 2.411 4.25 1.627 0 2.411 0.819 2.411 2.411 0 1.341 0.819 2.411 1.829 2.411s1.829 0.819 1.829 1.829c0 1.021 1.080 1.829 2.411 1.829 1.627 0 2.411 0.819 2.411 2.411 0 1.341 0.819 2.411 1.829 2.411s1.829 0.819 1.829 1.829c0 1.401 1.543 1.829 6.661 1.829h6.661v-6.055c0-4.571 0.439-6.055 1.829-6.055 1.021 0 1.829-1.080 1.829-2.411 0-1.627 0.819-2.411 2.411-2.411 1.341 0 2.411-0.819 2.411-1.829 0-1.484 2.040-1.829 10.911-1.829h10.911v4.25c0 2.968 0.556 4.25 1.829 4.25 1.543 0 1.829 2.707 1.829 16.966s-0.291 16.966-1.829 16.966c-1.366 0-1.829 1.484-1.829 6.055 0 5.271-0.321 6.055-2.411 6.055-1.627 0-2.411 0.819-2.411 2.411 0 2.184-0.819 2.411-8.5 2.411h-8.5v-6.661c0-5.853-0.291-6.661-2.411-6.661-1.947 0-2.411-0.819-2.411-4.25 0-2.968-0.556-4.25-1.829-4.25-0.986 0-1.829-0.819-1.829-1.829s-1.080-1.829-2.411-1.829c-1.341 0-2.411 0.819-2.411 1.829s-0.819 1.829-1.829 1.829c-1.021 0-1.829 1.080-1.829 2.411 0 1.627-0.819 2.411-2.411 2.411-2.093 0-2.411 0.819-2.411 6.055 0 4.571-0.439 6.055-1.829 6.055-1.306 0-1.829 1.341-1.829 4.856v4.856h-6.661c-5.853 0-6.661-0.291-6.661-2.411 0-1.341-0.819-2.411-1.829-2.411s-1.829-1.080-1.829-2.411c0-1.627-0.819-2.411-2.411-2.411-2.093 0-2.411-0.819-2.411-6.055 0-4.571-0.439-6.055-1.829-6.055-1.282 0-1.829-1.282-1.829-4.25 0-3.431-0.463-4.25-2.411-4.25s-2.411-0.819-2.411-4.25c0-3.431 0.463-4.25 2.411-4.25s2.411-0.819 2.411-4.25c0-2.968 0.556-4.25 1.829-4.25 1.457 0 1.829-1.745 1.829-8.5v-8.5h-30.322v6.055c0 5.271 0.321 6.055 2.411 6.055 1.947 0 2.411 0.819 2.411 4.25 0 2.968 0.556 4.25 1.829 4.25s1.829 1.282 1.829 4.25c0 3.431 0.463 4.25 2.411 4.25 2.125 0 2.411 0.819 2.411 6.661s-0.291 6.661-2.411 6.661c-1.947 0-2.411 0.819-2.411 4.25 0 2.968-0.556 4.25-1.829 4.25-1.401 0-1.829 1.543-1.829 6.661 0 5.853-0.291 6.661-2.411 6.661-1.341 0-2.411 0.819-2.411 1.829 0 1.484-1.947 1.829-10.305 1.829h-10.305v-16.966c0-16.182-0.119-16.966-2.411-16.966s-2.411-0.819-2.411-12.743 0.143-12.743 2.411-12.743c1.627 0 2.411-0.819 2.411-2.411 0-1.341 0.819-2.411 1.829-2.411s1.829-0.819 1.829-1.829c0-1.021 1.080-1.829 2.411-1.829 1.982 0 2.411-0.819 2.411-4.25s-0.463-4.25-2.411-4.25c-1.627 0-2.411-0.819-2.411-2.411 0-1.341-0.819-2.411-1.829-2.411s-1.829-0.819-1.829-1.829c0-1.021-1.080-1.829-2.411-1.829-1.627 0-2.411-0.819-2.411-2.411 0-1.947-0.819-2.411-4.25-2.411s-4.25-0.463-4.25-2.411c0-1.341-0.819-2.411-1.829-2.411s-1.829-0.819-1.829-1.829c0-1.282-1.282-1.829-4.25-1.829-3.431 0-4.25-0.463-4.25-2.411 0-2.268-0.819-2.411-13.325-2.411-11.054 0-13.325-0.321-13.325-1.829 0-0.986-0.819-1.829-1.829-1.829s-1.829-1.080-1.829-2.411c0-1.627-0.819-2.411-2.411-2.411-1.947 0-2.411-0.819-2.411-4.25 0-4.048-0.202-4.25-4.25-4.25-2.968 0-4.25-0.556-4.25-1.829s-1.282-1.829-4.25-1.829c-3.431 0-4.25-0.463-4.25-2.411 0-1.341-0.819-2.411-1.829-2.411-1.457 0-1.829-1.745-1.829-8.5s0.38-8.5 1.829-8.5c1.282 0 1.829-1.282 1.829-4.25 0-3.431 0.463-4.25 2.411-4.25 1.341 0 2.411-0.819 2.411-1.829 0-1.401-1.543-1.829-6.661-1.829s-6.661 0.439-6.661 1.829c0 1.51-2.505 1.829-15.161 1.829s-15.161-0.291-15.161-1.829c0-1.282-1.282-1.829-4.25-1.829-3.431 0-4.25-0.463-4.25-2.411 0-1.341-0.819-2.411-1.829-2.411s-1.829-1.080-1.829-2.411c0-1.627-0.819-2.411-2.411-2.411-2.066 0-2.411-0.819-2.411-5.379 0-2.968-0.556-5.734-1.192-6.114s-0.902 0.059-0.463 1.139c0.404 1.045 0.119 1.888-0.609 1.888s-1.282-0.404-1.192-0.902c1.51-9.629-0.463-41.521-2.564-41.521s-2.411-0.819-2.411-5.532c0-3.431-0.463-5.236-1.223-4.773-0.665 0.404-1.567-0.902-1.982-2.968-0.665-3.289-1.223-3.728-4.975-3.728-3.841 0-4.072-0.202-2.588-2.040 1.139-1.401 1.192-1.745 0.143-1.139-0.843 0.498-1.51 0.321-1.51-0.38s-1.923-1.282-4.25-1.282c-4.048 0-4.25-0.202-4.25-4.25v-4.25h16.966c16.182 0 16.966 0.119 16.966 2.411 0 2.093 0.819 2.411 6.055 2.411 4.571 0 6.055 0.439 6.055 1.829 0 1.021 1.080 1.829 2.411 1.829 1.627 0 2.411 0.819 2.411 2.411s0.819 2.411 2.411 2.411c1.627 0 2.411 0.819 2.411 2.411 0 1.341 0.819 2.411 1.829 2.411s1.829 0.819 1.829 1.829c0 1.021 1.080 1.829 2.411 1.829 1.627 0 2.411 0.819 2.411 2.411 0 1.341 0.819 2.411 1.829 2.411s1.829 0.819 1.829 1.829c0 1.021 1.080 1.829 2.411 1.829 1.627 0 2.411 0.819 2.411 2.411 0 1.341 0.819 2.411 1.829 2.411s1.829 0.819 1.829 1.829c0 1.021 1.080 1.829 2.411 1.829 1.982 0 2.411 0.819 2.411 4.25 0 2.968 0.556 4.25 1.829 4.25 1.021 0 1.829 1.080 1.829 2.411 0 1.627 0.819 2.411 2.411 2.411 1.341 0 2.411 0.819 2.411 1.829 0 1.366 1.484 1.829 6.055 1.829 5.271 0 6.055 0.321 6.055 2.411 0 2.327 0.819 2.411 17.572 2.411s17.572-0.119 17.572-2.411c0-1.341 0.819-2.411 1.829-2.411s1.829-0.819 1.829-1.829c0-1.021 1.080-1.829 2.411-1.829 1.627 0 2.411-0.819 2.411-2.411 0-1.341 0.819-2.411 1.829-2.411 1.51 0 1.829-2.209 1.829-12.743s-0.321-12.743-1.829-12.743c-0.986 0-1.829-0.819-1.829-1.829s-1.080-1.829-2.411-1.829c-1.627 0-2.411-0.819-2.411-2.411 0-1.341-0.819-2.411-1.829-2.411s-1.829-1.080-1.829-2.411c0-1.627-0.819-2.411-2.411-2.411-1.341 0-2.411-0.819-2.411-1.829 0-1.543-2.707-1.829-16.966-1.829-16.182 0-16.966-0.119-16.966-2.411 0-1.627-0.819-2.411-2.411-2.411-1.341 0-2.411-0.819-2.411-1.829s-0.819-1.829-1.829-1.829c-1.021 0-1.829-1.080-1.829-2.411 0-1.627-0.819-2.411-2.411-2.411-2.093 0-2.411-0.819-2.411-6.055v-6.055h4.25c2.968 0 4.25 0.556 4.25 1.829s1.282 1.829 4.25 1.829c3.431 0 4.25 0.463 4.25 2.411 0 2.184 0.819 2.411 8.5 2.411s8.5-0.237 8.5-2.411c0-2.125 0.819-2.411 6.661-2.411s6.661 0.291 6.661 2.411c0 1.627 0.819 2.411 2.411 2.411 1.341 0 2.411 0.819 2.411 1.829s0.819 1.829 1.829 1.829c1.021 0 1.829 1.080 1.829 2.411 0 1.627 0.819 2.411 2.411 2.411 1.341 0 2.411 0.819 2.411 1.829 0 1.366 1.484 1.829 6.055 1.829 5.271 0 6.055 0.321 6.055 2.411 0 1.627 0.819 2.411 2.411 2.411 1.341 0 2.411 0.819 2.411 1.829s0.819 1.829 1.829 1.829c1.306 0 1.829 1.341 1.829 4.856 0 4.742 0.083 4.856 4.25 4.856 2.968 0 4.25 0.556 4.25 1.829s1.282 1.829 4.25 1.829c2.968 0 4.25-0.556 4.25-1.829s1.282-1.829 4.25-1.829c3.431 0 4.25-0.463 4.25-2.411 0-2.244 0.819-2.411 10.911-2.411s10.911 0.178 10.911 2.411c0 2.244 0.819 2.411 10.911 2.411s10.911-0.178 10.911-2.411c0-1.982 0.819-2.411 4.25-2.411s4.25-0.463 4.25-2.411c0-1.341 0.819-2.411 1.829-2.411s1.829-0.819 1.829-1.829c0-1.021 1.080-1.829 2.411-1.829 1.627 0 2.411-0.819 2.411-2.411 0-1.341 0.819-2.411 1.829-2.411s1.829-0.819 1.829-1.829c0-1.282 1.282-1.829 4.25-1.829 3.431 0 4.25-0.463 4.25-2.411 0-1.627 0.819-2.411 2.411-2.411 1.341 0 2.411-0.819 2.411-1.829s0.819-1.829 1.829-1.829c1.021 0 1.829-1.080 1.829-2.411 0-2.007 0.819-2.411 4.856-2.411 3.491 0 4.856-0.498 4.856-1.829 0-1.282 1.282-1.829 4.25-1.829 3.431 0 4.25-0.463 4.25-2.411 0-2.093 0.819-2.411 6.055-2.411 4.571 0 6.055-0.439 6.055-1.829s1.543-1.829 6.661-1.829h6.661v8.5zM674.457 463.059c0 1.627-0.819 2.411-2.411 2.411-1.341 0-2.411 0.819-2.411 1.829s-0.819 1.829-1.829 1.829c-1.401 0-1.829 1.543-1.829 6.661s0.439 6.661 1.829 6.661c0.986 0 1.829 0.819 1.829 1.829 0 1.401 1.543 1.829 6.661 1.829s6.661-0.404 6.661-1.829c0-1.021 1.080-1.829 2.411-1.829 1.627 0 2.411-0.819 2.411-2.411 0-1.341 0.819-2.411 1.829-2.411 1.282 0 1.829-1.282 1.829-4.25s-0.556-4.25-1.829-4.25c-0.986 0-1.829-0.819-1.829-1.829s-1.080-1.829-2.411-1.829c-1.627 0-2.411-0.819-2.411-2.411 0-1.947-0.819-2.411-4.25-2.411s-4.25 0.463-4.25 2.411zM503.5 467.304c0 1.021-1.080 1.829-2.411 1.829-1.947 0-2.411 0.819-2.411 4.25 0 2.968-0.556 4.25-1.829 4.25-1.021 0-1.829 1.080-1.829 2.411 0 1.627-0.819 2.411-2.411 2.411-2.093 0-2.411 0.819-2.411 6.055 0 4.571-0.439 6.055-1.829 6.055-1.282 0-1.829 1.282-1.829 4.25 0 3.491-0.439 4.25-2.529 4.25-2.411 0-2.529 0.556-2.268 10.623 0.439 17.194 0.874 16.064-6.079 16.064-5.271 0-6.055-0.321-6.055-2.411 0-1.627-0.819-2.411-2.411-2.411-1.341 0-2.411-0.819-2.411-1.829 0-1.51-2.505-1.829-15.161-1.829s-15.161 0.291-15.161 1.829c0 0.986-0.819 1.829-1.829 1.829-1.51 0-1.829 2.209-1.829 12.743v12.743h12.743c10.507 0 12.743-0.321 12.743-1.829 0-1.021 1.080-1.829 2.411-1.829s2.411 0.819 2.411 1.829c0 1.282 1.282 1.829 4.25 1.829 3.431 0 4.25 0.463 4.25 2.411 0 1.341 0.819 2.411 1.829 2.411s1.829 0.819 1.829 1.829c0 1.021 1.080 1.829 2.411 1.829 1.947 0 2.411 0.819 2.411 4.25 0 2.968 0.556 4.25 1.829 4.25 1.021 0 1.829 1.080 1.829 2.411 0 1.627 0.819 2.411 2.411 2.411 1.341 0 2.411 0.819 2.411 1.829s0.819 1.829 1.829 1.829c1.021 0 1.829 1.080 1.829 2.411 0 1.947 0.819 2.411 4.25 2.411 2.968 0 4.25 0.556 4.25 1.829 0 1.543 3.431 1.829 23.658 1.829s23.627-0.261 23.627-1.829c0-1.282 1.282-1.829 4.25-1.829 3.431 0 4.25-0.463 4.25-2.411 0-1.627 0.819-2.411 2.411-2.411 1.341 0 2.411-0.819 2.411-1.829s0.819-1.829 1.829-1.829c1.021 0 1.829-1.080 1.829-2.411 0-1.627 0.819-2.411 2.411-2.411 1.341 0 2.411-0.819 2.411-1.829s0.819-1.829 1.829-1.829c1.021 0 1.829-1.080 1.829-2.411 0-1.627 0.819-2.411 2.411-2.411 1.341 0 2.411-0.819 2.411-1.829 0-1.282 1.282-1.829 4.25-1.829 3.431 0 4.25-0.463 4.25-2.411s0.819-2.411 4.25-2.411 4.25 0.463 4.25 2.411c0 2.244 0.819 2.411 10.911 2.411s10.911-0.178 10.911-2.411c0-1.341 0.819-2.411 1.829-2.411s1.829-0.819 1.829-1.829c0-1.021 1.080-1.829 2.411-1.829 2.244 0 2.411-0.819 2.411-10.911v-10.911h-8.5c-6.755 0-8.5-0.38-8.5-1.829 0-1.306-1.341-1.829-4.856-1.829s-4.856 0.498-4.856 1.829c0 1.401-1.543 1.829-6.543 1.829-5.961 0-6.49 0.237-5.908 2.411 0.582 2.268 0.026 2.411-8.002 2.411h-8.643v-6.661c0-5.117 0.439-6.661 1.829-6.661s1.829-1.543 1.829-6.661c0-5.117-0.439-6.661-1.829-6.661s-1.829-1.484-1.829-6.055c0-5.271-0.321-6.055-2.411-6.055-1.627 0-2.411-0.819-2.411-2.411 0-1.341-0.819-2.411-1.829-2.411-1.282 0-1.829-1.282-1.829-4.25 0-3.431-0.463-4.25-2.411-4.25-1.341 0-2.411-0.819-2.411-1.829 0-1.282-1.282-1.829-4.25-1.829-3.431 0-4.25-0.463-4.25-2.411 0-1.341-0.819-2.411-1.829-2.411s-1.829-0.819-1.829-1.829c0-1.543-2.968-1.829-19.411-1.829s-19.411 0.291-19.411 1.829zM811.481 475.801c0 0.986 0.819 1.829 1.829 1.829s1.829 1.080 1.829 2.411c0 1.947 0.819 2.411 4.25 2.411 4.048 0 4.25 0.202 4.25 4.25 0 3.431 0.463 4.25 2.411 4.25s2.411 0.819 2.411 4.25-0.463 4.25-2.411 4.25c-1.947 0-2.411 0.819-2.411 4.25 0 2.968-0.556 4.25-1.829 4.25-0.986 0-1.829 0.819-1.829 1.829 0 1.401-1.543 1.829-6.661 1.829s-6.661-0.439-6.661-1.829c0-0.986-0.819-1.829-1.829-1.829s-1.829-1.080-1.829-2.411c0-1.627-0.819-2.411-2.411-2.411-1.947 0-2.411-0.819-2.411-4.25 0-2.968-0.556-4.25-1.829-4.25-1.366 0-1.829-1.484-1.829-6.055s0.439-6.055 1.829-6.055c1.021 0 1.829-1.080 1.829-2.411 0-1.627 0.819-2.411 2.411-2.411 1.341 0 2.411-0.819 2.411-1.829 0-1.282 1.282-1.829 4.25-1.829s4.25 0.556 4.25 1.829zM379.834 480.051c0 1.627-0.819 2.411-2.411 2.411-1.982 0-2.411 0.819-2.411 4.25s0.463 4.25 2.411 4.25c1.341 0 2.411 0.819 2.411 1.829s0.819 1.829 1.829 1.829c0.986 0 1.829-0.927 1.829-2.066 0-1.603 0.321-1.745 1.457-0.609 0.784 0.819 2.040 1.457 2.731 1.425s0.463-0.556-0.556-1.192c-1.223-0.784-1.306-1.192-0.291-1.192 0.927 0 1.51-1.686 1.51-4.25 0-3.431-0.463-4.25-2.411-4.25-1.627 0-2.411-0.819-2.411-2.411 0-1.341-0.819-2.411-1.829-2.411s-1.829 1.080-1.829 2.411zM366.508 576.421c0 18.041 0.261 21.216 1.829 21.216 1.401 0 1.829 1.543 1.829 6.661 0 5.853 0.291 6.661 2.411 6.661s2.411 0.819 2.411 6.055 0.321 6.055 2.411 6.055c2.184 0 2.411 0.819 2.411 8.5 0 6.755 0.38 8.5 1.829 8.5 1.282 0 1.829 1.282 1.829 4.25 0 3.431 0.463 4.25 2.411 4.25 1.627 0 2.411 0.819 2.411 2.411 0 1.341 0.819 2.411 1.829 2.411 1.282 0 1.829 1.282 1.829 4.25 0 3.431 0.463 4.25 2.411 4.25s2.411 0.819 2.411 4.25c0 2.968 0.556 4.25 1.829 4.25 1.021 0 1.829 1.080 1.829 2.411 0 1.627 0.819 2.411 2.411 2.411 1.341 0 2.411 0.819 2.411 1.829s0.819 1.829 1.829 1.829c1.567 0 1.829 3.895 1.829 27.877s-0.261 27.877-1.829 27.877c-1.282 0-1.829 1.282-1.829 4.25 0 3.431-0.463 4.25-2.411 4.25-1.627 0-2.411 0.819-2.411 2.411 0 1.947-0.819 2.411-4.25 2.411-2.968 0-4.25 0.556-4.25 1.829 0 0.986-0.819 1.829-1.829 1.829s-1.829 1.080-1.829 2.411c0 2.244-0.819 2.411-10.911 2.411s-10.911-0.178-10.911-2.411c0-1.627-0.819-2.411-2.411-2.411-1.341 0-2.411-0.819-2.411-1.829s-0.819-1.829-1.829-1.829c-1.021 0-1.829-1.080-1.829-2.411 0-1.627-0.819-2.411-2.411-2.411s-2.411-0.819-2.411-2.411c0-1.341-0.819-2.411-1.829-2.411-1.282 0-1.829-1.282-1.829-4.25 0-3.431-0.463-4.25-2.411-4.25s-2.411-0.819-2.411-4.25c0-2.968-0.556-4.25-1.829-4.25-1.366 0-1.829-1.484-1.829-6.055 0-5.271-0.321-6.055-2.411-6.055-1.982 0-2.411-0.819-2.411-4.25 0-2.968-0.556-4.25-1.829-4.25-1.51 0-1.829-2.209-1.829-12.743 0-11.932-0.143-12.743-2.411-12.743-2.327 0-2.411-0.819-2.411-21.822s0.083-21.822 2.411-21.822c2.327 0 2.411-0.819 2.411-18.795 0-15.886 0.291-18.795 1.829-18.795 1.401 0 1.829-1.543 1.829-6.661 0-5.853 0.291-6.661 2.411-6.661 1.947 0 2.411-0.819 2.411-4.25 0-2.968 0.556-4.25 1.829-4.25s1.829-1.282 1.829-4.25c0-3.431 0.463-4.25 2.411-4.25 1.627 0 2.411-0.819 2.411-2.411 0-1.341 0.819-2.411 1.829-2.411s1.829-0.819 1.829-1.829c0-1.401 1.543-1.829 6.661-1.829h6.661v21.216zM691.45 557.045c0 1.021 1.080 1.829 2.411 1.829 1.627 0 2.411 0.819 2.411 2.411 0 1.947 0.819 2.411 4.25 2.411 2.968 0 4.25 0.556 4.25 1.829 0 0.986 0.819 1.829 1.829 1.829 1.282 0 1.829 1.282 1.829 4.25 0 3.431 0.463 4.25 2.411 4.25 1.627 0 2.411 0.819 2.411 2.411 0 1.341 0.819 2.411 1.829 2.411s1.829 0.819 1.829 1.829c0 1.021 1.080 1.829 2.411 1.829 1.627 0 2.411 0.819 2.411 2.411 0 1.341 0.819 2.411 1.829 2.411 1.282 0 1.829 1.282 1.829 4.25 0 3.431 0.463 4.25 2.411 4.25 1.627 0 2.411 0.819 2.411 2.411 0 1.341 0.819 2.411 1.829 2.411s1.829 0.819 1.829 1.829c0 1.021 1.080 1.829 2.411 1.829 1.947 0 2.411 0.819 2.411 4.25 0 2.968 0.556 4.25 1.829 4.25 1.401 0 1.829 1.543 1.829 6.661 0 5.853 0.291 6.661 2.411 6.661 2.327 0 2.411 0.819 2.411 23.658 0 20.195 0.261 23.658 1.829 23.658 1.51 0 1.829 2.411 1.829 14.544s-0.291 14.544-1.829 14.544c-1.021 0-1.829 1.080-1.829 2.411 0 1.627-0.819 2.411-2.411 2.411-1.341 0-2.411 0.819-2.411 1.829s-0.819 1.829-1.829 1.829c-1.021 0-1.829 1.080-1.829 2.411 0 1.627-0.819 2.411-2.411 2.411-1.341 0-2.411 0.819-2.411 1.829s-0.819 1.829-1.829 1.829c-1.282 0-1.829 1.282-1.829 4.25 0 3.431-0.463 4.25-2.411 4.25-1.627 0-2.411 0.819-2.411 2.411 0 1.341-0.819 2.411-1.829 2.411s-1.829 0.819-1.829 1.829c0 1.282-1.282 1.829-4.25 1.829-3.431 0-4.25 0.463-4.25 2.411 0 2.125-0.819 2.411-6.661 2.411s-6.661-0.291-6.661-2.411c0-1.947-0.819-2.411-4.25-2.411-2.968 0-4.25-0.556-4.25-1.829 0-0.986-0.819-1.829-1.829-1.829-1.401 0-1.829-1.543-1.829-6.661 0-5.853-0.291-6.661-2.411-6.661-1.341 0-2.411-0.819-2.411-1.829s-1.080-1.829-2.411-1.829c-1.947 0-2.411-0.819-2.411-4.25 0-2.968-0.556-4.25-1.829-4.25-1.021 0-1.829-1.080-1.829-2.411 0-1.627-0.819-2.411-2.411-2.411-1.947 0-2.411-0.819-2.411-4.25 0-2.85-0.556-4.25-1.721-4.25s-1.829-1.923-2.125-6.518c-0.522-8.204-0.083-10.472 2.093-10.472 0.962 0 1.721-0.819 1.721-1.829s1.080-1.829 2.411-1.829c1.627 0 2.411-0.819 2.411-2.411 0-1.341 0.819-2.411 1.829-2.411 1.401 0 1.829-1.543 1.829-6.661 0-5.853 0.291-6.661 2.411-6.661s2.411-0.819 2.411-6.055 0.321-6.055 2.411-6.055c2.327 0 2.411-0.819 2.411-19.411 0-16.443 0.291-19.411 1.829-19.411 1.366 0 1.829-1.484 1.829-6.055s-0.439-6.055-1.829-6.055c-1.484 0-1.829-2.007-1.829-10.911 0-10.093-0.178-10.911-2.411-10.911-2.184 0-2.411-0.819-2.411-8.5v-8.5h4.25c2.968 0 4.25 0.556 4.25 1.829zM425.926 586.726c0 1.627 0.819 2.411 2.411 2.411s2.411 0.819 2.411 2.411c0 1.341 0.819 2.411 1.829 2.411 1.282 0 1.829 1.282 1.829 4.25 0 3.431 0.463 4.25 2.411 4.25 2.093 0 2.411 0.819 2.411 6.055 0 4.571 0.439 6.055 1.829 6.055 1.282 0 1.829 1.282 1.829 4.25s-0.556 4.25-1.829 4.25c-1.282 0-1.829 1.282-1.829 4.25 0 3.431-0.463 4.25-2.411 4.25-2.125 0-2.411 0.819-2.411 6.661 0 5.117-0.439 6.661-1.829 6.661-1.51 0-1.829 2.209-1.829 12.743 0 11.932-0.143 12.743-2.411 12.743-1.627 0-2.411 0.819-2.411 2.411 0 2.093-0.819 2.411-6.055 2.411s-6.055-0.321-6.055-2.411c0-1.627-0.819-2.411-2.411-2.411-2.125 0-2.411-0.819-2.411-6.661 0-5.117-0.439-6.661-1.829-6.661s-1.829-1.484-1.829-6.055c0-5.271-0.321-6.055-2.411-6.055-2.184 0-2.411-0.819-2.411-8.5 0-6.755-0.38-8.5-1.829-8.5-1.51 0-1.829-2.209-1.829-12.716s0.321-12.743 1.829-12.743c1.282 0 1.829-1.282 1.829-4.25 0-3.431 0.463-4.25 2.411-4.25 1.627 0 2.411-0.819 2.411-2.411 0-1.341 0.819-2.411 1.829-2.411s1.829-1.080 1.829-2.411c0-2.184 0.819-2.411 8.5-2.411s8.5 0.237 8.5 2.411zM657.492 591.582c0 1.341 0.819 2.411 1.829 2.411 1.282 0 1.829 1.282 1.829 4.25 0 3.431 0.463 4.25 2.411 4.25 2.358 0 2.411 0.819 2.411 31.51s-0.059 31.51-2.411 31.51c-1.627 0-2.411 0.819-2.411 2.411 0 1.662 0.819 2.411 2.588 2.411 2.968 0 2.79 9.747-0.202 12.538-1.192 1.104-1.306 1.021-0.556-0.404 0.784-1.484 0.665-1.543-0.665-0.291-1.021 0.962-5.325 1.51-11.695 1.51h-10.068v-4.25c0-3.431-0.463-4.25-2.411-4.25-2.209 0-2.411-0.819-2.411-9.106 0-7.278-0.38-9.082-1.829-9.082-1.282 0-1.829-1.282-1.829-4.25 0-3.431-0.463-4.25-2.411-4.25-2.093 0-2.411-0.819-2.411-6.055 0-4.571-0.439-6.055-1.829-6.055s-1.829-1.543-1.829-6.543c0-4.689 0.522-6.755 1.829-7.243 1.366-0.522 1.829-2.707 1.829-8.61 0-7.1 0.261-7.919 2.411-7.919 1.947 0 2.411-0.819 2.411-4.25 0-2.968 0.556-4.25 1.829-4.25 0.986 0 1.829-0.819 1.829-1.829s1.080-1.829 2.411-1.829c1.627 0 2.411-0.819 2.411-2.411 0-2.184 0.819-2.411 8.5-2.411s8.5 0.237 8.5 2.411zM469.578 661.304c0 2.968 0.556 4.25 1.829 4.25s1.829 1.341 1.829 4.856c0 4.048 0.404 4.856 2.411 4.856 1.947 0 2.411 0.819 2.411 4.25 0 2.968 0.556 4.25 1.829 4.25 1.543 0 1.829 2.909 1.829 18.795s-0.291 18.795-1.829 18.795c-1.021 0-1.829 1.080-1.829 2.411 0 1.627-0.819 2.411-2.411 2.411-1.982 0-2.411 0.819-2.411 4.25 0 2.968-0.556 4.25-1.829 4.25-0.986 0-1.829 0.819-1.829 1.829s-1.080 1.829-2.411 1.829c-1.627 0-2.411 0.819-2.411 2.411 0 2.125-0.819 2.411-6.661 2.411s-6.661-0.291-6.661-2.411c0-1.947-0.819-2.411-4.25-2.411-4.048 0-4.25-0.202-4.25-4.25 0-2.968-0.556-4.25-1.829-4.25-0.986 0-1.829-0.819-1.829-1.829s-1.080-1.829-2.411-1.829c-2.303 0-2.411-0.819-2.411-15.161s0.119-15.161 2.411-15.161c2.093 0 2.411-0.819 2.411-6.055 0-4.571 0.439-6.055 1.829-6.055 1.282 0 1.829-1.282 1.829-4.25 0-3.431 0.463-4.25 2.411-4.25 1.627 0 2.411-0.819 2.411-2.411 0-1.341 0.819-2.411 1.829-2.411 1.282 0 1.829-1.282 1.829-4.25 0-3.431 0.463-4.25 2.411-4.25 1.627 0 2.411-0.819 2.411-2.411 0-2.125 0.819-2.411 6.661-2.411h6.661v4.25zM571.421 685.544c0 1.021 1.080 1.829 2.411 1.829 1.947 0 2.411 0.819 2.411 4.25 0 2.968 0.556 4.25 1.829 4.25 1.484 0 1.829 2.007 1.829 10.911 0 10.093 0.178 10.911 2.411 10.911s2.411 0.819 2.411 10.305-0.202 10.305-2.411 10.305c-1.627 0-2.411 0.819-2.411 2.411 0 1.947-0.819 2.411-4.25 2.411s-4.25 0.463-4.25 2.411c0 1.947-0.819 2.411-4.25 2.411s-4.25-0.463-4.25-2.411c0-1.947-0.819-2.411-4.25-2.411-4.048 0-4.25-0.202-4.25-4.25 0-2.968-0.556-4.25-1.829-4.25-1.401 0-1.829-1.543-1.829-6.661 0-5.853-0.291-6.661-2.411-6.661-1.341 0-2.411-0.819-2.411-1.829s1.080-1.829 2.411-1.829c2.125 0 2.411-0.819 2.411-6.661 0-5.117 0.439-6.661 1.829-6.661 1.282 0 1.829-1.282 1.829-4.25 0-3.431 0.463-4.25 2.411-4.25s2.411-0.819 2.411-4.25c0-2.968 0.556-4.25 1.829-4.25 0.986 0 1.829-0.819 1.829-1.829 0-1.282 1.282-1.829 4.25-1.829s4.25 0.556 4.25 1.829zM627.172 685.544c0 1.021 1.080 1.829 2.411 1.829 2.244 0 2.411 0.819 2.411 10.911 0 8.904 0.345 10.911 1.829 10.911s1.829 2.411 1.829 14.544-0.291 14.544-1.829 14.544c-1.021 0-1.829 1.080-1.829 2.411 0 1.947-0.819 2.411-4.25 2.411s-4.25 0.463-4.25 2.411c0 1.947-0.819 2.411-4.25 2.411s-4.25-0.463-4.25-2.411c0-1.947-0.819-2.411-4.25-2.411-4.048 0-4.25-0.202-4.25-4.25 0-3.431-0.463-4.25-2.411-4.25-2.244 0-2.411-0.819-2.411-10.911s0.178-10.911 2.411-10.911c2.093 0 2.411-0.819 2.411-6.055 0-4.571 0.439-6.055 1.829-6.055s1.829-1.543 1.829-6.661c0-5.853 0.291-6.661 2.411-6.661 1.341 0 2.411-0.819 2.411-1.829 0-1.366 1.484-1.829 6.055-1.829s6.055 0.439 6.055 1.829zM524.134 689.791c0 1.627 0.819 2.411 2.411 2.411 2.327 0 2.411 0.819 2.411 18.795s-0.119 18.795-2.411 18.795c-1.947 0-2.411 0.819-2.411 4.25 0 2.968-0.556 4.25-1.829 4.25-1.021 0-1.829 1.080-1.829 2.411 0 1.627-0.819 2.411-2.411 2.411s-2.411 0.819-2.411 2.411c0 2.093-0.819 2.411-6.055 2.411s-6.055-0.321-6.055-2.411c0-1.947-0.819-2.411-4.25-2.411h-4.25v-15.161c0-12.656 0.291-15.161 1.829-15.161 1.282 0 1.829-1.282 1.829-4.25 0-3.431 0.463-4.25 2.411-4.25 1.662 0 2.411-0.819 2.411-2.564 0-1.923 0.522-2.358 2.125-1.805 2.007 0.7 2.007 0.665 0-0.902-2.588-2.040-2.707-3.205-0.291-3.205 1.282 0 1.829-1.282 1.829-4.25v-4.25h8.5c7.682 0 8.5 0.237 8.5 2.411zM332.55 848.028c0 0.986 0.819 1.829 1.829 1.829s1.829 1.080 1.829 2.411c0 1.627 0.819 2.411 2.411 2.411 2.093 0 2.411 0.819 2.411 6.055s-0.321 6.055-2.411 6.055c-1.627 0-2.411 0.819-2.411 2.411 0 1.341-0.819 2.411-1.829 2.411s-1.829 0.819-1.829 1.829c0 1.401-1.543 1.829-6.661 1.829s-6.661-0.439-6.661-1.829c0-0.986-0.819-1.829-1.829-1.829s-1.829-1.080-1.829-2.411c0-1.627-0.819-2.411-2.411-2.411-2.184 0-2.411-0.819-2.411-8.5s0.237-8.5 2.411-8.5c1.341 0 2.411-0.819 2.411-1.829 0-1.457 1.745-1.829 8.5-1.829s8.5 0.38 8.5 1.829zM721.741 856.496c0 0.986 0.819 1.829 1.829 1.829 1.401 0 1.829 1.543 1.829 6.661s-0.439 6.661-1.829 6.661c-0.986 0-1.829 0.819-1.829 1.829s-1.080 1.829-2.411 1.829c-1.627 0-2.411 0.819-2.411 2.411 0 2.184-0.819 2.411-8.5 2.411s-8.5-0.237-8.5-2.411c0-1.341-0.819-2.411-1.829-2.411-1.457 0-1.829-1.745-1.829-8.5s0.38-8.5 1.829-8.5c0.986 0 1.829-0.819 1.829-1.829 0-1.484 2.007-1.829 10.911-1.829s10.911 0.345 10.911 1.829zM669.626 864.994c0 1.021 1.080 1.829 2.411 1.829 1.627 0 2.411 0.819 2.411 2.411 0 1.341 0.819 2.411 1.829 2.411 1.457 0 1.829 1.745 1.829 8.5s-0.38 8.5-1.829 8.5c-0.986 0-1.829 0.819-1.829 1.829 0 1.484-2.007 1.829-10.911 1.829s-10.911-0.345-10.911-1.829c0-0.986-0.819-1.829-1.829-1.829s-1.829-1.080-1.829-2.411c0-1.627-0.819-2.411-2.411-2.411-1.947 0-2.411-0.819-2.411-4.25s0.463-4.25 2.411-4.25c1.947 0 2.411-0.819 2.411-4.25 0-4.048 0.202-4.25 4.25-4.25 2.968 0 4.25-0.556 4.25-1.829 0-1.366 1.484-1.829 6.055-1.829s6.055 0.439 6.055 1.829zM383.473 869.241c0 1.627 0.819 2.411 2.411 2.411 1.341 0 2.411 0.819 2.411 1.829s0.819 1.829 1.829 1.829c1.021 0 1.829 1.080 1.829 2.411 0 1.627 0.819 2.411 2.411 2.411 1.982 0 2.411 0.819 2.411 4.25s-0.463 4.25-2.411 4.25c-1.947 0-2.411 0.819-2.411 4.25 0 2.968-0.556 4.25-1.829 4.25-1.021 0-1.829 1.080-1.829 2.411 0 2.209-0.819 2.411-9.082 2.411s-9.106-0.202-9.106-2.411c0-1.341-0.819-2.411-1.829-2.411s-1.829-1.080-1.829-2.411c0-1.627-0.819-2.411-2.411-2.411-2.184 0-2.411-0.819-2.411-8.5s0.237-8.5 2.411-8.5c1.341 0 2.411-0.819 2.411-1.829 0-1.282 1.282-1.829 4.25-1.829 3.431 0 4.25-0.463 4.25-2.411s0.819-2.411 4.25-2.411 4.25 0.463 4.25 2.411zM579.887 877.71c0 1.947 0.819 2.411 4.25 2.411 4.048 0 4.25 0.202 4.25 4.25 0 3.431 0.463 4.25 2.411 4.25 1.341 0 2.411 0.819 2.411 1.829s0.819 1.829 1.829 1.829c1.306 0 1.829 1.341 1.829 4.856s-0.498 4.856-1.829 4.856c-0.986 0-1.829 0.819-1.829 1.829s-1.080 1.829-2.411 1.829c-1.627 0-2.411 0.819-2.411 2.411 0 1.341-0.819 2.411-1.829 2.411s-1.829 0.819-1.829 1.829c0 1.282-1.282 1.829-4.25 1.829s-4.25-0.556-4.25-1.829c0-1.282-1.282-1.829-4.25-1.829-4.048 0-4.25-0.202-4.25-4.25 0-3.431-0.463-4.25-2.411-4.25-2.209 0-2.411-0.819-2.411-9.106s0.202-9.106 2.411-9.106c1.341 0 2.411-0.819 2.411-1.829s0.819-1.829 1.829-1.829c1.021 0 1.829-1.080 1.829-2.411 0-1.947 0.819-2.411 4.25-2.411s4.25 0.463 4.25 2.411zM473.212 886.206c0 1.947 0.819 2.411 4.25 2.411 2.968 0 4.25 0.556 4.25 1.829 0 1.021 1.080 1.829 2.411 1.829 2.125 0 2.411 0.819 2.411 6.661s-0.291 6.661-2.411 6.661c-1.627 0-2.411 0.819-2.411 2.411 0 1.341-0.819 2.411-1.829 2.411s-1.829 0.819-1.829 1.829c0 1.401-1.543 1.829-6.661 1.829s-6.661-0.439-6.661-1.829c0-1.282-1.282-1.829-4.25-1.829h-4.25v-21.822h4.25c3.431 0 4.25-0.463 4.25-2.411s0.819-2.411 4.25-2.411c3.431 0 4.25 0.463 4.25 2.411z"></path>
</svg>
