<!-- Generated by IcoMoon.io -->
<svg version="1.1" xmlns="http://www.w3.org/2000/svg" width="1024" height="1024" viewBox="0 0 1024 1024">
<title></title>
<g id="icomoon-ignore">
</g>
<path fill="#FFF" d="M514.936 97.682c0 1.482-1.482 2.262-4.342 2.262-4.592 0-6.162 2.138-6.162 8.396 0 2.637-0.814 3.614-3.018 3.614-1.666 0-2.99 1.010-2.99 2.262s-1.010 2.262-2.262 2.262c-1.259 0-2.262 1.325-2.262 2.99 0 2.008-1.010 2.99-2.99 2.99-2.418 0-3.018 1.010-3.018 5.248s0.564 5.248 3.018 5.248c2.611 0 2.99 1.010 2.99 7.514 0 5.655 0.564 7.514 2.262 7.514 1.259 0 2.262 1.325 2.262 3.018 0 2.008 1.010 3.018 2.99 3.018 2.611 0 3.018 1.010 3.018 7.514 0 5.655 0.538 7.514 2.262 7.514 1.889 0 2.262 3.424 2.262 21.752s-0.342 21.752-2.262 21.752c-1.222 0-2.262 1.010-2.262 2.262s-1.325 2.262-3.018 2.262c-2.008 0-2.99 1.010-2.99 3.018 0 2.418-1.010 3.018-5.248 3.018s-5.248-0.564-5.248-3.018c0-2.795-1.010-3.018-15.744-3.018-13.014 0-15.781-0.407-15.781-2.262 0-1.693-1.824-2.262-7.514-2.262-6.507 0-7.514-0.407-7.514-3.018s-1.010-3.018-8.265-3.018-8.265-0.38-8.265-3.018c0-2.008-1.010-3.018-2.99-3.018-1.666 0-2.99-1.010-2.99-2.262 0-1.574-1.574-2.262-5.248-2.262-4.238 0-5.248-0.564-5.248-3.018s-1.010-3.018-5.248-3.018c-3.674 0-5.248-0.695-5.248-2.262 0-1.222-1.010-2.262-2.262-2.262s-2.262-1.325-2.262-3.018c0-1.666-0.852-3.018-1.889-3.018-1.259 0-1.129-0.499 0.38-1.482 1.222-0.787 1.535-1.482 0.656-1.482s-2.48 0.814-3.582 1.85c-1.666 1.535-1.85 1.378-1.102-0.754 0.695-1.916 0.13-2.637-2.046-2.637-1.95 0-2.952-1.010-2.952-3.018 0-2.418-1.010-3.018-5.248-3.018-4.998 0-5.248-0.249-5.248-5.248 0-4.238-0.564-5.248-2.99-5.248-1.666 0-2.99-1.010-2.99-2.262 0-1.574-1.574-2.262-5.248-2.262s-5.248 0.695-5.248 2.262c0 1.574-1.574 2.262-5.248 2.262-4.238 0-5.248 0.564-5.248 3.018 0 2.008 1.010 3.018 3.018 3.018 1.666 0 2.99 1.010 2.99 2.262s1.010 2.262 2.262 2.262c1.259 0 2.262 1.325 2.262 3.018 0 2.008 1.010 3.018 2.99 3.018 2.418 0 3.018 1.010 3.018 5.248 0 3.674 0.695 5.248 2.262 5.248 1.222 0 2.262 1.010 2.262 2.262s1.325 2.262 2.99 2.262c2.418 0 2.99 1.010 2.99 5.248 0 3.674 0.695 5.248 2.262 5.248 1.259 0 2.262 1.325 2.262 3.018 0 2.008 1.010 3.018 3.018 3.018s2.99 1.010 2.99 3.018c0 1.666 1.010 3.018 2.262 3.018s2.262 1.010 2.262 2.262c0 1.259 1.325 2.262 2.99 2.262 2.008 0 3.018 1.010 3.018 3.018 0 1.666 1.010 3.018 2.262 3.018s2.262 1.010 2.262 2.262c0 1.574 1.574 2.262 5.248 2.262 4.238 0 5.248 0.564 5.248 3.018 0 2.008 1.010 3.018 2.99 3.018 1.666 0 3.018 1.010 3.018 2.262s1.010 2.262 2.262 2.262c1.259 0 2.262 1.325 2.262 3.018 0 2.204 1.010 3.018 3.713 3.018s3.458 0.63 2.833 2.262c-0.656 1.758 0.342 2.262 4.553 2.262 4.396 0 5.405 0.564 5.405 3.018 0 2.008 1.010 3.018 3.018 3.018 1.666 0 2.99 1.010 2.99 2.262 0 1.574 1.574 2.262 5.248 2.262 4.238 0 5.248 0.564 5.248 3.018 0 2.703 1.010 2.99 10.496 2.99 8.331 0 10.496 0.472 10.496 2.262 0 1.824 2.418 2.262 12.765 2.262 11.755 0 12.765 0.249 12.765 2.99 0 2.008 1.010 3.018 2.99 3.018 2.611 0 3.018 1.010 3.018 7.514 0 5.655 0.538 7.514 2.262 7.514 1.824 0 2.262 2.519 2.262 13.513s-0.407 13.513-2.262 13.513c-1.574 0-2.262 1.574-2.262 5.248 0 4.238-0.564 5.248-3.018 5.248-2.703 0-2.99 1.010-2.99 10.496 0 8.331-0.472 10.496-2.262 10.496-1.732 0-2.262 1.916-2.262 8.265 0 7.256-0.38 8.265-2.99 8.265-1.666 0-3.018 1.010-3.018 2.262s-1.010 2.262-2.262 2.262c-1.259 0-2.262 1.325-2.262 3.018 0 2.768-1.010 2.99-13.513 2.99s-13.513-0.223-13.513-2.99c0-2.418-1.010-3.018-5.248-3.018-3.674 0-5.248-0.695-5.248-2.262s-1.574-2.262-5.248-2.262c-4.238 0-5.248-0.564-5.248-3.018 0-2.637-1.010-2.99-8.265-2.99-6.35 0-8.265-0.538-8.265-2.262s-1.824-2.262-7.514-2.262c-6.507 0-7.514-0.407-7.514-2.99 0-2.418-1.010-3.018-5.248-3.018-3.674 0-5.248-0.695-5.248-2.262 0-1.482-1.482-2.262-4.396-2.262-4.998 0-7.514-2.676-4.396-4.654 1.417-0.91 0.564-1.325-2.795-1.325-3.332-0.027-4.868-0.754-4.868-2.262 0-1.574-1.574-2.262-5.248-2.262-4.238 0-5.248-0.564-5.248-3.018 0-1.666-1.010-2.99-2.262-2.99s-2.262-1.010-2.262-2.262c0-1.574-1.574-2.262-5.248-2.262-4.238 0-5.248-0.564-5.248-2.99 0-2.637-1.010-3.018-8.265-3.018-6.35 0-8.265-0.538-8.265-2.262 0-1.259-1.325-2.262-3.018-2.262-2.008 0-2.99-1.010-2.99-3.018 0-2.418-1.010-2.99-5.248-2.99-3.674 0-5.248-0.695-5.248-2.262s-1.574-2.262-5.248-2.262c-4.238 0-5.248-0.564-5.248-2.99s-1.010-3.018-5.248-3.018-5.248-0.564-5.248-2.99c0-1.666-1.010-3.018-2.262-3.018s-2.262-1.010-2.262-2.262c0-1.574-1.574-2.262-5.248-2.262-2.887 0-5.248-0.722-5.248-1.574s-0.63-1.222-1.378-0.754c-0.754 0.472-2.262-1.194-3.359-3.674-1.638-3.674-2.887-4.526-6.887-4.526h-4.868v10.496c0 9.525 0.286 10.496 3.018 10.496 2.008 0 2.99 1.010 2.99 3.018 0 2.418 1.010 2.99 5.248 2.99 4.998 0 5.248 0.249 5.248 5.248 0 3.674 0.695 5.248 2.262 5.248 1.222 0 2.262 1.010 2.262 2.262s1.325 2.262 3.018 2.262c2.008 0 2.99 1.010 2.99 3.018 0 2.418 1.010 2.99 5.248 2.99 3.674 0 5.248 0.695 5.248 2.262 0 1.222 1.010 2.262 2.262 2.262s2.262 1.325 2.262 2.99c0 2.008 1.010 3.018 2.99 3.018 1.666 0 2.99 1.010 2.99 2.262s1.010 2.262 2.262 2.262c1.259 0 2.262 1.351 2.262 3.018 0 2.008 1.010 2.99 3.018 2.99 1.666 0 2.99 1.010 2.99 2.262 0 1.574 1.574 2.262 5.248 2.262 4.238 0 5.248 0.564 5.248 3.018 0 2.008 1.010 2.99 2.99 2.99 1.666 0 3.018 1.010 3.018 2.262 0 1.574 1.574 2.262 5.248 2.262 4.238 0 5.248 0.564 5.248 2.99s1.010 3.018 5.248 3.018c3.674 0 5.248 0.695 5.248 2.262 0 1.222 1.010 2.262 2.262 2.262s2.262 1.325 2.262 3.018c0 2.418 1.010 2.99 5.248 2.99 3.674 0 5.248 0.695 5.248 2.262s1.574 2.262 5.248 2.262c4.238 0 5.248 0.564 5.248 2.99 0 2.008 1.010 3.018 2.99 3.018 1.666 0 3.018 1.010 3.018 2.262s1.010 2.262 2.262 2.262c1.259 0 2.262 1.325 2.262 2.99 0 2.637 1.010 2.99 8.265 2.99s8.265 0.38 8.265 3.018c0 1.666 1.010 2.99 2.262 2.99s2.262 1.010 2.262 2.262c0 1.574 1.574 2.262 5.248 2.262 4.238 0 5.248 0.564 5.248 3.018 0 2.73 1.010 2.99 11.256 2.99 9.022 0 11.256 0.442 11.256 2.262 0 1.574 1.574 2.262 5.248 2.262 4.238 0 5.248 0.564 5.248 2.99 0 1.666 1.010 3.018 2.262 3.018 1.85 0 2.262 2.768 2.262 15.744s-0.38 15.744-2.262 15.744c-1.693 0-2.262 1.824-2.262 7.514 0 6.507-0.407 7.514-2.99 7.514-2.008 0-3.018 1.010-3.018 2.99 0 1.666-1.010 3.018-2.262 3.018-1.574 0-2.262 1.574-2.262 5.248 0 4.238-0.564 5.248-3.018 5.248-2.008 0-2.99 1.010-2.99 3.018 0 2.86-1.010 2.99-21.030 2.99s-21.030-0.157-21.030-2.99-1.010-3.018-21.030-3.018-21.030-0.157-21.030-2.99c0-2.768-1.010-3.018-13.513-3.018-10.998 0-13.513-0.407-13.513-2.262 0-1.889-3.083-2.262-18.761-2.262-17.757 0-18.761-0.157-18.761-3.018 0-2.768-1.010-2.99-12.765-2.99-10.338 0-12.765-0.442-12.765-2.262 0-1.732-1.916-2.262-8.265-2.262-7.256 0-8.265-0.38-8.265-2.99 0-2.418-1.010-3.018-5.248-3.018-3.674 0-5.248-0.695-5.248-2.262 0-1.824-2.519-2.262-13.513-2.262-12.505 0-13.513-0.223-13.513-2.99 0-2.418-1.010-3.018-5.248-3.018-3.674 0-5.248-0.695-5.248-2.262 0-1.222-1.010-2.262-2.262-2.262s-2.262-1.325-2.262-3.018c0-2.008-1.010-2.99-3.018-2.99-1.666 0-3.018-1.010-3.018-2.262 0-1.693-1.824-2.262-7.514-2.262-6.507 0-7.514-0.407-7.514-2.99 0-2.008-1.010-3.018-3.018-3.018s-3.018 1.010-3.018 3.018c0 1.666-1.010 2.99-2.262 2.99-1.574 0-2.262 1.574-2.262 5.248s0.695 5.248 2.262 5.248c1.222 0 2.262 1.010 2.262 2.262 0 1.574 1.574 2.262 5.248 2.262 4.238 0 5.248 0.564 5.248 3.018 0 2.008 1.010 2.99 3.018 2.99 1.666 0 3.018 1.010 3.018 2.262 0 1.574 1.574 2.262 5.248 2.262 4.238 0 5.248 0.564 5.248 3.018s1.010 2.99 5.248 2.99c3.674 0 5.248 0.695 5.248 2.262s1.574 2.262 5.248 2.262c4.238 0 5.248 0.564 5.248 2.99 0 1.666 1.010 3.018 2.262 3.018s2.262 1.010 2.262 2.262c0 1.259 1.325 2.262 3.018 2.262 2.008 0 3.018 1.010 3.018 3.018 0 2.418 1.010 2.99 5.248 2.99s5.248 0.564 5.248 3.018c0 2.418 1.010 2.99 5.248 2.99 3.674 0 5.248 0.695 5.248 2.262 0 1.259 1.325 2.262 3.018 2.262 2.008 0 2.99 1.010 2.99 2.99 0 2.418 1.010 3.018 5.248 3.018 3.674 0 5.248 0.695 5.248 2.262 0 1.824 2.418 2.262 12.765 2.262 11.755 0 12.765 0.249 12.765 3.018 0 2.418 1.010 3.018 5.248 3.018 3.674 0 5.248 0.695 5.248 2.262 0 1.732 1.916 2.262 8.265 2.262 7.256 0 8.265 0.38 8.265 3.018s1.010 3.018 8.265 3.018c6.35 0 8.265 0.538 8.265 2.262 0 1.824 2.418 2.262 12.765 2.262 11.755 0 12.765 0.223 12.765 3.018 0 2.703 1.010 3.018 10.496 3.018 8.331 0 10.496 0.472 10.496 2.262s2.418 2.262 12.385 2.361c6.822 0.065 11.57 0.442 10.588 0.852s-1.378 1.794-0.91 3.044c0.722 1.889 1.286 1.666 3.018-1.222 2.106-3.516 2.106-3.516 1.417-0.184-0.656 3.202-0.249 3.359 8.738 3.359 11.31 0 19.076 1.378 17.948 3.175-0.442 0.722 0.564 1.325 2.262 1.325 2.73 0 3.083 0.91 3.083 8.265 0 7.256 0.38 8.265 2.99 8.265s3.018 1.010 3.018 8.265c0 7.256-0.38 8.265-3.018 8.265-2.418 0-2.99 1.010-2.99 5.248s0.564 5.248 2.99 5.248c2.611 0 3.018 1.010 3.018 7.514 0 5.655 0.538 7.514 2.262 7.514 1.259 0 2.262 1.325 2.262 3.018s-1.010 3.018-2.262 3.018c-1.693 0-2.262 1.824-2.262 7.514v7.514h-5.248c-4.238 0-5.248 0.564-5.248 3.018 0 2.637-1.010 3.018-8.265 3.018-6.35 0-8.265 0.538-8.265 2.262 0 1.824-2.519 2.262-13.513 2.262-12.505 0-13.513 0.223-13.513 3.018 0 2.833-1.037 3.018-17.633 3.11-9.709 0.065-16.78 0.472-15.781 0.879 5.497 2.204-0.249 3.24-19.142 3.424-17.974 0.157-21.030-0.13-21.030-2.106 0-1.916-2.361-2.296-13.513-2.296-12.505 0-13.513-0.223-13.513-3.018s-1.010-3.018-15.744-3.018c-13.014 0-15.781-0.407-15.781-2.262 0-1.794-2.165-2.262-10.496-2.262-9.525 0-10.496-0.286-10.496-3.018 0-2.637-1.010-3.018-8.265-3.018-6.35 0-8.265-0.538-8.265-2.262s-1.824-2.262-7.514-2.262c-6.507 0-7.514-0.407-7.514-3.018 0-2.637-1.010-3.018-8.265-3.018-6.35 0-8.265-0.538-8.265-2.262s-1.824-2.262-7.514-2.262c-6.507 0-7.514-0.407-7.514-3.018 0-2.418-1.010-3.018-5.248-3.018-3.674 0-5.248-0.695-5.248-2.262 0-1.732-1.916-2.262-8.265-2.262-7.67 0-8.922-0.695-8.515-4.618 0.065-0.472-3.582-1.010-8.081-1.194-7.358-0.286-8.173-0.027-8.173 2.73 0 1.732-0.971 3.083-2.262 3.083s-2.262 1.010-2.262 2.262c0 1.222 1.010 2.262 2.262 2.262s2.262 1.325 2.262 3.018c0 2.519 1.010 3.018 6.006 3.018 4.342 0 6.006 0.63 6.006 2.262 0 1.222 1.010 2.262 2.262 2.262s2.262 1.351 2.262 3.018c0 2.008 1.010 3.018 3.018 3.018 1.666 0 3.018 1.010 3.018 2.262 0 1.574 1.574 2.262 5.248 2.262 4.238 0 5.248 0.564 5.248 3.018s1.010 3.018 5.248 3.018c3.674 0 5.248 0.695 5.248 2.262s1.574 2.262 5.248 2.262c4.238 0 5.248 0.564 5.248 3.018s1.010 3.018 5.248 3.018c3.674 0 5.248 0.695 5.248 2.262s1.574 2.262 5.248 2.262c4.238 0 5.248 0.564 5.248 3.018 0 2.768 1.010 3.018 13.605 3.018 10.431 0 13.356 0.442 12.542 1.889-0.852 1.509-0.656 1.509 0.971 0 2.703-2.519 4.434-2.361 4.434 0.38 0 1.794 2.165 2.262 10.496 2.262 9.49 0 10.496 0.286 10.496 3.018 0 2.418 1.010 3.018 5.248 3.018 3.674 0 5.248 0.695 5.248 2.262 0 1.794 2.165 2.262 10.496 2.262 9.525 0 10.496 0.286 10.496 3.018s1.010 3.018 10.496 3.018c9.49 0 10.496 0.286 10.496 3.018 0 2.952 1.010 3.018 72.067 3.018h72.067v5.248c0 3.674 0.695 5.248 2.262 5.248 1.85 0 2.262 2.768 2.262 15.744 0 14.773 0.184 15.781 2.99 15.781 2.418 0 3.018 1.010 3.018 5.248 0 3.674 0.695 5.248 2.262 5.248s2.262 1.574 2.262 5.248c0 4.238 0.564 5.248 2.99 5.248 2.86 0 2.99 1.010 2.99 21.030 0 17.698 0.342 21.030 2.262 21.030 1.574 0 2.262 1.574 2.262 5.248 0 4.238 0.564 5.248 3.018 5.248 2.008 0 2.99 1.010 2.99 3.018 0 1.666 1.010 3.018 2.262 3.018 1.693 0 2.262 1.824 2.262 7.514 0 6.507 0.407 7.514 2.99 7.514 2.637 0 3.018 1.010 3.018 8.265 0 6.35 0.538 8.265 2.262 8.265 1.574 0 2.262 1.574 2.262 5.248 0 4.238 0.564 5.248 3.018 5.248 1.666 0 3.018 1.010 3.018 2.262s1.010 2.262 2.262 2.262c1.259 0 2.262 1.325 2.262 3.018 0 2.008 1.010 3.018 3.018 3.018 1.666 0 3.018 1.010 3.018 2.262s1.325 2.262 3.018 2.262c2.008 0 3.018 1.010 3.018 3.018 0 1.666 1.010 3.018 2.262 3.018s2.262 1.325 2.262 3.018c0 2.008 1.010 3.018 3.018 3.018 2.703 0 3.018 1.010 3.018 10.496 0 8.331 0.472 10.496 2.262 10.496 1.693 0 2.262 1.824 2.262 7.514v7.514h5.248c4.238 0 5.248 0.564 5.248 3.018 0 2.637 1.010 3.018 8.265 3.018 6.35 0 8.265 0.538 8.265 2.262 0 1.222 1.010 2.262 2.262 2.262s2.262 1.325 2.262 3.018c0 2.795 1.010 3.018 15.744 3.018h15.781v-10.496c0-8.331-0.472-10.496-2.262-10.496-1.732 0-2.262-1.916-2.262-8.265 0-7.256-0.38-8.265-3.018-8.265-2.611 0-3.018-1.010-3.018-7.514 0-5.655-0.538-7.514-2.262-7.514-1.638 0-2.262-1.666-2.262-6.006 0-4.998-0.499-6.006-3.018-6.006-1.666 0-3.018-1.010-3.018-2.262s-1.010-2.262-2.262-2.262c-1.574 0-2.262-1.574-2.262-5.248 0-4.238-0.564-5.248-3.018-5.248-2.768 0-3.018-1.010-3.018-13.513 0-10.998-0.407-13.513-2.262-13.513-1.794 0-2.262-2.165-2.262-10.496 0-9.49-0.286-10.496-3.018-10.496-2.795 0-3.018-1.010-3.018-15.744 0-13.014-0.38-15.781-2.262-15.781-1.574 0-2.262-1.574-2.262-5.248 0-4.238-0.564-5.248-3.018-5.248-2.86 0-3.018-1.010-3.018-21.030s0.157-21.030 3.018-21.030c2.418 0 3.018-1.010 3.018-5.248 0-3.674 0.695-5.248 2.262-5.248 1.794 0 2.262-2.165 2.262-10.496 0-9.49 0.286-10.496 3.018-10.496 2.008 0 3.018-1.010 3.018-3.018 0-1.666 1.010-3.018 2.262-3.018s2.262-1.325 2.262-3.018c0-2.008 1.010-3.018 3.018-3.018 1.666 0 3.018-1.010 3.018-2.262 0-1.916 80.267-3.989 92.687-2.361 1.037 0.13 1.824-0.971 1.758-2.453-0.065-1.601-0.442-1.916-0.879-0.814-0.407 1.037-1.378 1.509-2.165 1.010-3.77-2.322 1.732-3.647 15.245-3.647 13.92 0 14.93 0.184 14.93 3.018 0 2.637 1.010 3.018 8.265 3.018s8.265-0.38 8.265-3.018c0-2.703 1.010-3.018 10.496-3.018 8.331 0 10.496-0.472 10.496-2.262 0-1.693 1.824-2.262 7.514-2.262 6.507 0 7.514-0.407 7.514-3.018 0-2.418 1.010-3.018 5.248-3.018 3.674 0 5.248-0.695 5.248-2.262s1.574-2.262 5.248-2.262c4.238 0 5.248-0.564 5.248-3.018 0-2.637 1.010-3.018 8.265-3.018 6.35 0 8.265-0.538 8.265-2.262 0-1.574 1.574-2.262 5.248-2.262 4.396 0 5.278-0.538 5.405-3.398 0.13-3.146 0.223-3.175 1.129-0.38 0.538 1.666 1.95 3.202 3.11 3.458 1.732 0.38 1.794 0.027 0.249-1.824-1.574-1.916-1.259-2.418 2.008-3.24 2.138-0.538 3.897-1.916 3.897-3.083s1.351-2.073 3.018-2.073c2.008 0 3.018-1.010 3.018-3.018 0-2.418 1.010-3.018 5.248-3.018 3.674 0 5.248-0.695 5.248-2.262 0-1.222 1.010-2.262 2.262-2.262s2.262-1.325 2.262-3.018c0-2.008 1.010-3.018 3.018-3.018 1.666 0 3.018-1.010 3.018-2.262 0-1.574 1.574-2.262 5.248-2.262 4.238 0 5.248-0.564 5.248-3.018 0-1.666 1.010-3.018 2.262-3.018s2.262-1.010 2.262-2.262c0-1.259 1.325-2.262 3.018-2.262 2.008 0 3.018-1.010 3.018-3.018 0-1.666 0.879-3.018 1.981-3.018s2.887-2.322 4.027-5.183c1.129-2.86 2.611-4.841 3.267-4.396s1.259-0.944 1.259-3.083c0-2.418 0.852-3.831 2.262-3.831 1.574 0 2.262-1.574 2.262-5.248 0-4.238 0.564-5.248 3.018-5.248 1.666 0 3.018-1.010 3.018-2.262s1.010-2.262 2.262-2.262c1.794 0 2.262-2.165 2.262-10.496v-10.496h-5.248c-4.998 0-5.248 0.249-5.248 5.248 0 3.674-0.695 5.248-2.262 5.248-1.222 0-2.262 1.010-2.262 2.262 0 1.574-1.574 2.262-5.248 2.262-4.238 0-5.248 0.564-5.248 3.018 0 2.008-1.010 3.018-3.018 3.018-1.666 0-3.018 1.010-3.018 2.262s-1.010 2.262-2.262 2.262c-1.259 0-2.262 1.351-2.262 3.018 0 2.008-1.010 3.018-3.018 3.018-1.666 0-3.018 1.010-3.018 2.262 0 1.574-1.574 2.262-5.248 2.262-4.238 0-5.248 0.564-5.248 3.018 0 1.666-1.010 3.018-2.262 3.018s-2.262 1.325-2.262 3.018c0 2.418-1.010 3.018-5.248 3.018-3.674 0-5.248 0.695-5.248 2.262s-1.574 2.262-5.248 2.262c-4.238 0-5.248 0.564-5.248 3.018 0 2.519-1.010 3.018-6.006 3.018-4.342 0-6.006 0.63-6.006 2.262 0 1.574-1.574 2.262-5.248 2.262-4.238 0-5.248 0.564-5.248 3.018 0 2.703-1.010 3.018-10.496 3.018-8.331 0-10.496 0.472-10.496 2.262 0 1.889-3.018 2.262-18.013 2.262-17.003 0-18.013 0.157-18.013 3.018 0 2.768-1.010 3.018-13.513 3.018-10.998 0-13.513 0.407-13.513 2.262 0 1.95-4.868 2.262-34.885 2.262-22.539 0-35.699 0.598-37.153 1.638-1.85 1.325-1.758 1.443 0.598 0.695 2.388-0.787 2.545-0.564 0.944 1.351-3.018 3.647-13.545 3.083-13.545-0.722 0-2.887-1.010-3.018-27.027-3.018-23.009 0-27.027-0.342-27.027-2.262 0-1.222-1.010-2.262-2.262-2.262-1.85 0-2.262-2.768-2.262-15.781s0.38-15.744 2.262-15.744c1.638 0 2.262-1.666 2.262-6.006 0-5.85 0.13-6.006 5.248-6.006 3.674 0 5.248-0.695 5.248-2.262s1.574-2.262 5.248-2.262c4.238 0 5.248-0.564 5.248-3.018 0-2.833 1.010-3.018 16.504-3.018 13.671 0 16.504-0.38 16.504-2.262 0-1.794 2.165-2.262 10.496-2.262 9.49 0 10.496-0.286 10.496-3.018 0-2.418 1.010-3.018 5.248-3.018 3.674 0 5.248-0.695 5.248-2.262s1.574-2.262 5.248-2.262c4.238 0 5.248-0.564 5.248-3.018s1.010-3.018 5.248-3.018c3.674 0 5.248-0.695 5.248-2.262s1.574-2.262 5.248-2.262c4.238 0 5.248-0.564 5.248-3.018 0-2.611 1.010-3.018 7.514-3.018 5.655 0 7.514-0.564 7.514-2.262 0-1.574 1.574-2.262 5.248-2.262 4.238 0 5.248-0.564 5.248-3.018 0-2.519 1.010-3.018 6.006-3.018 4.342 0 6.006-0.63 6.006-2.262 0-1.222 1.010-2.262 2.262-2.262s2.262-1.325 2.262-2.99c0-2.418 1.010-3.018 5.248-3.018 3.674 0 5.248-0.695 5.248-2.262 0-1.259 1.325-2.262 3.018-2.262 2.008 0 3.018-1.010 3.018-3.018 0-1.666 1.010-2.99 2.262-2.99s2.262-1.010 2.262-2.262c0-1.574 1.574-2.262 5.248-2.262 4.238 0 5.248-0.564 5.248-2.99 0-2.008 1.010-3.018 3.018-3.018s3.018-1.010 3.018-2.99c0-1.666 1.010-3.018 2.262-3.018s2.262-1.010 2.262-2.262c0-1.574 1.574-2.262 5.248-2.262 4.238 0 5.248-0.564 5.248-3.018 0-2.637 1.010-2.99 8.265-2.99 6.35 0 8.265-0.538 8.265-2.262 0-1.222 1.010-2.262 2.262-2.262 1.574 0 2.262-1.574 2.262-5.248 0-4.238 0.564-5.248 3.018-5.248 2.008 0 3.018-1.010 3.018-2.99s1.010-3.018 3.018-3.018c1.666 0 3.018-1.010 3.018-2.262s1.010-2.262 2.262-2.262c1.732 0 2.262-1.916 2.262-8.265 0-7.256 0.38-8.265 3.018-8.265 2.418 0 3.018-1.010 3.018-5.248 0-3.674 0.695-5.248 2.262-5.248 1.222 0 2.262-1.010 2.262-2.262s1.325-2.262 3.018-2.262c2.637 0 3.018-1.010 3.018-8.265s-0.38-8.265-3.018-8.265c-2.008 0-3.018 1.010-3.018 3.018 0 1.666-1.010 2.99-2.262 2.99-1.693 0-2.262 1.824-2.262 7.514v7.514h-8.265c-7.256 0-8.265 0.38-8.265 2.99 0 2.008-1.010 3.018-3.018 3.018-1.666 0-3.018 1.010-3.018 2.262s-1.010 2.262-2.262 2.262c-1.259 0-2.262 1.325-2.262 3.018 0 2.008-1.010 2.99-3.018 2.99-1.666 0-3.018 1.010-3.018 2.262s-1.010 2.262-2.262 2.262c-1.259 0-2.262 1.325-2.262 2.99 0 2.008-1.010 3.018-3.018 3.018-1.666 0-3.018 1.010-3.018 2.262 0 1.693-1.824 2.262-7.514 2.262-6.507 0-7.514 0.407-7.514 3.018 0 2.008-1.010 2.99-3.018 2.99-1.666 0-3.018 1.010-3.018 2.262 0 1.574-1.574 2.262-5.248 2.262-4.238 0-5.248 0.564-5.248 3.018 0 2.611-1.010 2.99-7.514 2.99-5.655 0-7.514 0.564-7.514 2.262s-1.916 2.262-8.265 2.262c-7.256 0-8.265 0.38-8.265 2.99 0 2.703-1.010 3.018-10.496 3.018-8.331 0-10.496 0.472-10.496 2.262 0 1.574-1.574 2.262-5.248 2.262-4.238 0-5.248 0.564-5.248 3.018 0 2.73-7.885 4.369-15.402 3.175-0.63-0.092-1.037 0.315-0.944 0.944 0.63 4.054-0.656 4.868-7.67 4.868-5.655 0-7.514 0.564-7.514 2.262 0 1.889-3.424 2.262-21.752 2.262-20.773 0-21.752 0.13-21.752 2.99 0 2.768-1.010 3.018-12.765 3.018-10.338 0-12.765 0.442-12.765 2.262s-2.165 2.262-10.496 2.262-10.496-0.472-10.496-2.262c0-1.259-1.351-2.262-3.018-2.262-2.768 0-3.018-1.010-3.018-13.513s0.223-13.513 3.018-13.513c2.418 0 3.018-1.010 3.018-5.248 0-3.674 0.695-5.248 2.262-5.248 1.259 0 2.262-1.325 2.262-2.99 0-2.418 1.010-3.018 5.248-3.018 3.674 0 5.248-0.695 5.248-2.262 0-1.732 1.916-2.262 8.265-2.262 7.256 0 8.265-0.38 8.265-2.99 0-2.703 1.010-3.018 10.496-3.018 8.331 0 10.496-0.472 10.496-2.262 0-1.574 1.574-2.262 5.248-2.262 4.238 0 5.248-0.564 5.248-3.018s1.010-2.99 5.248-2.99c3.674 0 5.248-0.695 5.248-2.262 0-1.732 1.916-2.262 8.265-2.262 7.256 0 8.265-0.38 8.265-2.99 0-2.418 1.010-3.018 5.248-3.018 3.674 0 5.248-0.695 5.248-2.262 0-1.222 1.010-2.262 2.262-2.262s2.262-1.351 2.262-3.018c0-2.418 1.010-2.99 5.248-2.99 3.674 0 5.248-0.695 5.248-2.262 0-1.259 1.325-2.262 3.018-2.262 2.008 0 3.018-1.010 3.018-2.99 0-1.666 1.010-3.018 2.262-3.018s2.262-1.010 2.262-2.262c0-1.259 1.325-2.262 3.018-2.262 2.008 0 3.018-1.010 3.018-2.99 0-1.666 1.010-3.018 2.262-3.018s2.262-1.325 2.262-2.99c0-2.008 1.010-2.99 3.018-2.99 2.611 0 3.018-1.010 3.018-7.514v-7.514h-8.265c-6.35 0-8.265 0.538-8.265 2.262s-1.824 2.262-7.514 2.262c-6.507 0-7.514 0.407-7.514 2.99 0 2.418-1.010 3.018-5.248 3.018-3.674 0-5.248 0.695-5.248 2.262s-1.574 2.262-5.248 2.262c-4.238 0-5.248 0.564-5.248 2.99 0 2.703-1.010 2.99-10.496 2.99s-10.496 0.286-10.496 3.018c0 2.418-1.010 2.99-5.248 2.99-3.674 0-5.248 0.695-5.248 2.262 0 1.638-1.666 2.262-6.006 2.262-4.998 0-6.006 0.499-6.006 3.018 0 2.768-1.010 2.99-12.765 2.99s-12.765-0.249-12.765-2.99c0-2.008-1.010-3.018-3.018-3.018-2.795 0-3.018-1.010-3.018-15.744s0.184-15.781 3.018-15.781c2.887 0 3.018-1.010 3.018-24.009 0-20.335 0.342-24.009 2.262-24.009 1.794 0 2.262-2.165 2.262-10.496 0-9.525 0.286-10.496 3.018-10.496 2.887 0 3.018-1.010 3.018-24.009s-0.13-24.009-3.018-24.009c-2.418 0-3.018-1.010-3.018-5.248s0.564-5.248 3.018-5.248c2.611 0 3.018-1.010 3.018-7.514s-0.407-7.514-3.018-7.514c-2.703 0-3.018-1.010-3.018-10.496 0-8.331-0.472-10.496-2.262-10.496-1.732 0-2.262-1.916-2.262-8.265 0-7.256-0.38-8.265-3.018-8.265-2.833 0-3.018-1.010-3.018-18.761 0-15.678-0.38-18.761-2.262-18.761-1.574 0-2.262-1.574-2.262-5.248 0-4.238-0.564-5.248-3.018-5.248-2.73 0-3.897-2.48-3.11-6.63 0.157-0.754-0.787-0.499-2.073 0.564-2.073 1.732-2.322 0.971-2.322-6.507s-0.342-8.423-3.018-8.423c-2.703 0-3.018-1.010-3.018-10.496 0-8.331-0.472-10.496-2.262-10.496-1.259 0-2.262-1.325-2.262-3.018 0-2.008-1.010-2.99-3.018-2.99-1.666 0-3.018-1.010-3.018-2.262 0-1.85-2.768-2.262-15.744-2.262s-15.781 0.407-15.781 2.262z"></path>
</svg>
