<!-- Generated by IcoMoon.io -->
<svg version="1.1" xmlns="http://www.w3.org/2000/svg" width="512" height="512" viewBox="0 0 512 512">
<title>bladeborn-zikkits-tunnelpack</title>
<g id="icomoon-ignore">
</g>
<path fill="#FFF" d="M242.355 32.178c-8.856 0.556-10.135 1.555-10.138 7.929-0.008 9.243-2.499 12.236-11.847 14.233-2.544 0.544-5.566 1.236-6.715 1.538s-2.779 0.55-3.62 0.55c-0.841 0-1.982 0.248-2.535 0.552-0.935 0.514-5.238 1.434-9.964 2.13-1.113 0.164-2.843 0.669-3.845 1.121s-2.222 0.822-2.712 0.822-1.050 0.26-1.248 0.578c-0.196 0.319-1.057 0.587-1.913 0.597s-2.061 0.401-2.678 0.867c-0.616 0.467-1.543 0.849-2.059 0.849s-2.285 0.65-3.933 1.445-3.311 1.445-3.697 1.445c-0.571 0-13.254 5.962-17.469 8.213-4.239 2.263-6.633 3.662-8.139 4.757-0.953 0.692-2.774 1.743-4.046 2.332-2.969 1.376-7.744 4.466-12.139 7.858-1.907 1.472-5.030 3.653-6.937 4.847-1.907 1.195-4.509 3.141-5.781 4.323-1.272 1.184-4.525 3.945-7.227 6.138-6.263 5.082-23.791 22.773-26.32 26.567-1.060 1.589-2.726 3.655-3.701 4.589s-1.772 1.927-1.772 2.207c0 0.28-0.908 1.466-2.019 2.638-1.111 1.171-2.022 2.434-2.024 2.808s-0.647 1.442-1.433 2.375c-0.787 0.934-2.094 3.024-2.909 4.647s-1.707 3.088-1.981 3.258c-0.614 0.381-15.070 29.302-15.070 30.151 0 0.337-0.91 2.481-2.024 4.767-1.112 2.286-2.023 4.516-2.023 4.954s-0.499 1.798-1.108 3.020c-3.18 6.381-7.134 19.978-8.151 28.034-1.036 8.21-2.874 9.803-12.587 10.899-9.798 1.106-10.584 2.502-11.381 20.231-0.193 4.293-0.589 10.146-0.879 13.007-0.29 2.863-0.697 8.65-0.905 12.862l-0.379 7.661 7.146 0.045c11.101 0.070 15.529 2.882 15.529 9.868 0 1.188 0.247 2.313 0.55 2.5s0.728 1.899 0.944 3.803c0.215 1.906 0.617 3.603 0.893 3.775 0.277 0.171 0.502 1.043 0.502 1.938 0 2.084 1.63 9.841 2.346 11.158 0.3 0.552 0.545 1.7 0.545 2.55 0 1.31 1.081 5.698 2.183 8.874 3.392 9.762 4.633 17.656 3.233 20.579-1.258 2.63-1.473 9.111-0.372 11.277 0.386 0.762 1.614 3.335 2.726 5.721 3.112 6.671 13.704 23.745 16.671 26.875 0.388 0.409 1.746 2.109 3.017 3.779 1.936 2.541 4.633 5.901 8.785 10.947 8.876 10.786 32.505 33.551 40.352 38.875 1.272 0.863 3.353 2.353 4.625 3.313 1.272 0.958 2.963 2.025 3.758 2.372 0.795 0.345 1.966 1.103 2.601 1.683s2.524 1.762 4.196 2.627c1.672 0.863 3.166 1.774 3.32 2.022s1.648 1.159 3.32 2.025c1.672 0.864 3.43 1.902 3.907 2.305 0.476 0.401 3.469 2.075 6.648 3.716 3.179 1.642 6.171 3.214 6.648 3.495 6.762 3.971 11.911 5.322 12.672 3.321 0.277-0.728 0.917-1.668 1.421-2.086 1.057-0.877 4.984-8.803 4.984-10.058 0-0.464 0.39-1.166 0.867-1.561 0.476-0.396 0.867-1.089 0.867-1.538 0-0.45 1.561-4.009 3.469-7.909 1.907-3.901 3.469-7.351 3.469-7.67 0-0.317 1.687-3.945 3.749-8.061 2.062-4.118 3.754-7.813 3.758-8.216s0.26-1.182 0.568-1.735c7.856-14.072 8.316-20.911 1.463-21.701-3.534-0.406-13.925-5.574-21.389-10.634l-5.202-3.528-1.373 1.243c-0.755 0.683-2.796 3.016-4.535 5.181-5.079 6.327-7.438 6.315-15.062-0.079-4.691-3.934-20.452-19.592-23.376-23.225-1.153-1.43-2.724-3.382-3.491-4.336-2.824-3.509-10.198-14.764-11.998-18.312-1.019-2.011-2.549-4.697-3.4-5.967-0.85-1.272-2.011-3.353-2.579-4.625-0.569-1.272-1.266-2.832-1.549-3.469-0.285-0.635-1.568-3.469-2.851-6.294-1.284-2.827-2.335-5.486-2.335-5.908s-0.478-1.623-1.062-2.665c-0.584-1.043-1.527-3.457-2.099-5.365-0.571-1.908-1.394-4.584-1.829-5.947s-0.792-2.935-0.792-3.497c0-0.56-0.221-1.267-0.488-1.57-1.422-1.596-4.644-26.517-3.789-29.309 0.279-0.914 1.296-1.010 10.532-1.003 5.621 0.005 24.193-0.295 41.269-0.666 46.683-1.014 49.767-0.329 46.202 10.267-0.629 1.869-1.565 5.089-2.081 7.155s-1.452 5.839-2.083 8.383c-1.387 5.591-2.18 17.839-1.196 18.448 0.362 0.224 0.659 1.017 0.659 1.762 0 1.222 3.107 7.38 4.822 9.56 0.376 0.476 1.18 1.778 1.79 2.891 1.169 2.135 1.302 2.404 3.007 6.070 1.188 2.551 9.532 11.033 14.95 15.194 6.226 4.783 9.559 7.805 17.847 16.188 34.025 34.407 44.184 44.035 46.484 44.049 1.305 0.010 11.686-9.334 11.686-10.518 0-0.294 0.908-1.491 2.019-2.662 1.111-1.172 2.022-2.396 2.024-2.721s0.88-1.921 1.949-3.542c2.128-3.231 12.082-22.74 12.786-25.060 0.241-0.795 1.449-3.606 2.683-6.249 1.235-2.641 2.244-5.146 2.244-5.565 0-0.42 0.39-1.087 0.866-1.483s0.866-1.175 0.866-1.735c0-0.558 0.401-1.347 0.891-1.754 0.491-0.407 1.538-2.065 2.325-3.684 0.789-1.62 2.214-3.983 3.166-5.255 0.954-1.272 2.255-3.223 2.894-4.336 0.637-1.113 2.327-3.454 3.757-5.202s3.491-4.48 4.582-6.070c1.091-1.589 2.759-3.931 3.705-5.202s2.743-4.264 3.993-6.647c1.249-2.386 2.822-5.247 3.495-6.36 0.673-1.113 1.916-3.324 2.76-4.913 0.846-1.591 2.152-3.626 2.905-4.526 0.752-0.899 1.366-1.963 1.366-2.367s0.521-1.204 1.156-1.778c1.723-1.56 1.174-8.382-1.443-17.922-0.522-1.908-1.092-4.187-1.266-5.065s-0.545-1.738-0.826-1.913c-0.281-0.173-0.51-0.829-0.51-1.457s-0.65-2.423-1.446-3.993c-0.795-1.57-1.445-3.324-1.445-3.9 0-0.575-0.352-1.56-0.784-2.187-0.43-0.627-1.331-2.62-2.001-4.428-1.61-4.341-9.635-20.341-11.74-23.408-0.914-1.328-1.661-2.561-1.661-2.739s-1.236-1.921-2.746-3.871c-4.614-5.962-5.786-7.808-6.226-9.812-2.614-11.901-11.957-18.454-30.338-21.278-16.406-2.52-16.543-2.875-16.020-41.562 0.452-33.565 0.385-33.487 23.536-26.793 1.113 0.322 3.453 0.948 5.202 1.389 1.748 0.443 4.012 1.24 5.029 1.773s2.164 0.968 2.546 0.968c0.383 0 2.348 0.781 4.365 1.734 2.019 0.953 3.916 1.734 4.214 1.734 0.837 0 13.246 6.335 13.632 6.96 0.188 0.304 1.717 1.203 3.397 1.998s3.526 1.966 4.103 2.603c0.577 0.636 1.356 1.156 1.735 1.156s1.154 0.513 1.721 1.141c0.568 0.629 1.584 1.313 2.258 1.52 1.353 0.419 4.073 2.625 10.353 8.393 17.859 16.407 17.579 16.225 21.219 13.803 1.432-0.951 2.928-1.73 3.325-1.732s0.723-0.223 0.723-0.493c0-0.269 1.106-0.946 2.457-1.504s2.933-1.263 3.512-1.565c1.662-0.869 6.644-1.291 7.461-0.633 0.403 0.325 1.558 0.766 2.567 0.982 4.735 1.012 21 24.776 21 30.683 0 0.351 0.65 1.986 1.445 3.633s1.454 3.452 1.464 4.011c0.010 0.558 0.401 1.518 0.866 2.136s0.849 1.585 0.849 2.149c0 0.566 0.478 1.882 1.065 2.925s1.252 2.936 1.48 4.208c0.416 2.317 1.269 5.351 2.112 7.516 0.248 0.636 0.882 4.147 1.411 7.804 0.529 3.656 1.19 7.949 1.469 9.538 1.452 8.252 1.204 27.688-0.563 44.224-1.087 10.166-4.416 25.43-8.133 37.285-0.997 3.18-2.012 6.563-2.258 7.516-0.244 0.954-0.876 2.566-1.404 3.584s-0.959 2.137-0.959 2.49c0 0.6-1.397 3.944-3.235 7.746-0.447 0.922-0.812 1.943-0.812 2.267s-0.349 0.999-0.775 1.5c-0.425 0.502-1.363 2.399-2.080 4.216-0.719 1.815-1.693 3.622-2.166 4.014s-1.406 1.897-2.072 3.347c-0.667 1.449-1.815 3.369-2.551 4.267-0.736 0.9-1.339 1.96-1.339 2.357 0 0.396-0.651 1.333-1.446 2.079s-1.445 1.587-1.445 1.866c0 2.231-16.328 18.529-20.81 20.771-2.014 1.007-13.212 7.947-14.37 8.902-0.522 0.433-3.682 2.981-7.019 5.661-9.692 7.781-9.497 6.541-2.635 16.85 6.294 9.454 10.954 16.653 11.411 17.63 0.223 0.476 2.961 4.639 6.084 9.25l5.68 8.382 2.675-0.087c4.596-0.151 13.14-5.242 25.082-14.943 7.518-6.107 34.039-33.605 37.309-38.683 0.836-1.299 2.207-2.991 3.047-3.762 0.839-0.771 1.527-1.714 1.527-2.096s0.399-1.027 0.887-1.433c1.020-0.846 7.25-10.104 7.954-11.822 0.258-0.629 0.861-1.578 1.342-2.107 1.053-1.163 12.363-23.56 12.363-24.483 0-0.356 0.294-0.942 0.653-1.303 0.606-0.606 1.152-1.936 3.63-8.827 0.514-1.43 1.288-3.252 1.721-4.046 0.431-0.795 2.344-6.128 4.25-11.851 4.55-13.666 5.116-15.544 5.922-19.654 0.375-1.909 1.050-5.257 1.5-7.442 0.452-2.185 0.82-5.127 0.82-6.536 0-6.678 3.384-11.851 8.171-12.493 1.517-0.202 2.966-0.882 3.911-1.829l1.502-1.506-0.055-17.758c-0.031-9.767-0.252-21.305-0.49-25.639l-0.433-7.881-7.026-0.277c-12.039-0.473-13.020-1.615-17.247-20.092-0.327-1.43-0.829-2.849-1.113-3.151-0.285-0.303-0.518-1.27-0.518-2.149s-0.65-3.594-1.445-6.029c-0.795-2.434-1.454-4.978-1.463-5.654-0.010-0.674-0.401-1.732-0.866-2.349s-0.849-1.544-0.849-2.059c0-0.516-0.65-2.286-1.445-3.934s-1.446-3.39-1.446-3.874-0.247-1.33-0.55-1.882c-0.303-0.552-0.969-2.043-1.483-3.316-1.415-3.512-8.738-18.191-10.383-20.81-0.798-1.273-1.634-2.703-1.856-3.18-0.68-1.458-10.692-16.358-12.277-18.27-0.818-0.989-1.988-2.41-2.6-3.159-8.574-10.505-11.695-14.009-17.764-19.948-3.925-3.838-9.036-8.522-11.356-10.406-2.32-1.882-5.572-4.54-7.226-5.904-1.653-1.365-4.308-3.375-5.897-4.466s-3.931-2.766-5.202-3.722c-1.272-0.957-2.963-2.053-3.759-2.438-0.795-0.383-1.966-1.145-2.601-1.693s-2.445-1.676-4.019-2.507c-1.575-0.832-3.265-1.856-3.759-2.276-0.491-0.419-2.627-1.592-4.745-2.607s-4.166-2.224-4.551-2.689c-0.385-0.466-1.090-0.844-1.567-0.844s-4.151-1.621-8.166-3.602c-4.017-1.981-8.471-4.034-9.903-4.566-1.43-0.529-3.771-1.391-5.202-1.915-1.43-0.525-3.42-1.333-4.423-1.796s-2.194-0.842-2.649-0.842c-0.455 0-1.009-0.18-1.231-0.403-0.223-0.221-2.022-0.855-4-1.409-1.977-0.555-5.416-1.566-7.641-2.247-5.723-1.75-14.089-3.773-25.111-6.070-11.522-2.401-10.709-1.551-11.582-12.127-0.395-4.769-0.834-8.866-0.978-9.104-0.327-0.541-26.379-0.415-35.727 0.173zM237.237 127.237c3.042 2.13 4.129 12.174 4.2 38.817l0.032 12.218-1.425 0.934c-0.784 0.512-1.889 0.934-2.455 0.934-2.572 0-10.645 4.899-14.2 8.618-10.087 10.555-17.378 17.401-25.309 23.755-11.244 9.011-10.154 6.385-10.893 26.211-0.327 8.73-0.653 12.174-1.187 12.503-1.196 0.739-81.645 1.358-87.319 0.672-9.195-1.113-10.412-2.676-8.939-11.493 3.010-18.040 6.394-21.41 17.844-17.776 8.63 2.74 11.764 1.473 15.736-6.358 0.806-1.589 1.835-3.302 2.287-3.804s0.822-1.296 0.822-1.762c0-0.468 0.291-1.141 0.646-1.496 0.763-0.765 1.269-1.672 4.806-8.627 1.479-2.906 3.333-6.158 4.121-7.226 1.764-2.388 5.507-7.636 7.302-10.236 4.837-7.008 18.867-21.292 26.089-26.561 2.487-1.814 5.349-4.034 6.359-4.931s3.053-2.258 4.538-3.023c1.484-0.763 3.592-1.994 4.681-2.733 4.182-2.837 23.854-11.982 25.767-11.978 0.428 0 1.469-0.362 2.311-0.806 0.845-0.445 2.577-1.081 3.847-1.411 1.272-0.333 3.613-0.978 5.202-1.435s4.71-1.294 6.937-1.861c2.226-0.565 4.293-1.248 4.595-1.514 0.827-0.734 2.23-0.588 3.6 0.373z"></path>
</svg>
