<!-- Generated by IcoMoon.io -->
<svg version="1.1" xmlns="http://www.w3.org/2000/svg" width="1024" height="1024" viewBox="0 0 1024 1024">
<title></title>
<g id="icomoon-ignore">
</g>
<path fill="#FFF" d="M496.369 413.254h-221.886c-3.894 0.655-8.354 0.977-12.89 0.977s-8.997-0.365-13.357-1.065l0.466 0.044c-9.507-2.552-17.439-8.121-22.908-15.587l-0.088-0.088c-0.365-1.619-0.598-3.528-0.598-5.425 0-6.722 2.596-12.846 6.867-17.395v0c18.548-18.97 38.772-36.177 60.528-51.386l1.386-0.933c23.009-14.611 49.577-27.967 77.413-38.684l3.106-1.065c19.16-6.124 35.068-17.906 46.194-33.392l0.189-0.277c16.098-27.136 44.896-45.174 77.967-46.005h0.145c0.977-0.044 2.085-0.044 3.251-0.044 21.522 0 41.003 8.808 54.958 23.053v0c9.595 10.062 19.67 19.393 30.242 28.112l0.598 0.466c11.359 9.74 24.395 17.95 38.583 24.030l0.977 0.365c50.189 19.393 93.453 45.363 131.394 77.413l-0.699-0.554c2.274 1.896 3.995 4.36 6.256 6.124 6.533 5.57 10.616 13.779 10.616 22.952 0 4.316-0.876 8.398-2.508 12.059l0.088-0.189c-4.171 12.569-15.486 15.354-28.244 15.165-36.265 0-72.498 0-108.763 0z"></path>
<path fill="#FFF" d="M485.419 830.867c-26.291 0-46.515 0-66.74 0-7.233-1.531-13.269-5.614-17.395-11.227l-0.044-0.088c-1.21-1.386 3.295-10.106 7.145-13.080 15.209-12.059 24.905-30.519 24.905-51.253 0-3.251-0.233-6.445-0.699-9.595l0.044 0.365c-1.764-56.489 0-112.934 0-169.247 0-24.773 0-25.094 23.185-25.605 25.97 0 52.274 0 78.099 0s28.244 4.87 24.074 33.304c-1.109 10.761-1.764 23.242-1.764 35.899 0 5.746 0.145 11.505 0.422 17.206l-0.044-0.788c0 33.304 0 66.608 0 99.854-0.189 1.997-0.321 4.36-0.321 6.722 0 20.224 8.165 38.583 21.377 51.852v0c6.445 6.634 17.439 12.015 11.183 24.905s-17.439 2.596-24.206 5.381c-28.055 10.994-56.999 2.785-79.12 5.381z"></path>
<path fill="#FFF" d="M497.433 437.328c11.505 0 23.009 0 34.879 0 28.566 0 27.879 0 34.879 28.244 3.66 9.872 8.064 18.372 13.357 26.247l-0.277-0.466c8.531 17.439 0 37.474-17.439 33.814-48.469-10.616-98.134 9.929-145.916-7.655-13.955-5.235-17.439-13.59-7.655-23.695 10.018-7.976 16.375-20.18 16.375-33.858 0-1.342-0.044-2.64-0.189-3.938v0.189c-1.896-16.053 7.655-19.336 21.289-19.014 16.053 0.51 33.304 0.189 50.743 0.189z"></path>
</svg>
