<!-- Generated by IcoMoon.io -->
<svg version="1.1" xmlns="http://www.w3.org/2000/svg" width="512" height="512" viewBox="0 0 512 512">
<title>bladeborn-gladitorium</title>
<g id="icomoon-ignore">
</g>
<path fill="#FFF" d="M253.874 33.017c-0.703 0.895-1.302 1.801-1.333 2.014-0.028 0.214-0.172 2.029-0.321 4.037-0.154 2.083-0.904 4.919-1.744 6.599-0.81 1.623-1.673 3.797-1.917 4.834s-1.204 2.995-2.132 4.35c-1.416 2.064-1.7 3.184-1.761 6.913-0.078 4.951-1.186 10.623-2.138 10.944-0.34 0.115-0.62 0.472-0.62 0.793 0 4.46-7.556 14.148-11.391 14.602-1.78 0.21-3.692 0.757-4.25 1.214-1.772 1.451-5.703 2.979-7.661 2.979-1.042 0-3.222 0.707-4.846 1.572-1.623 0.865-3.58 1.572-4.349 1.572-0.768 0-2.352 0.838-3.518 1.864-2.671 2.344-5.422 3.458-6.32 2.558-1.198-1.198-2.639-0.673-5.114 1.862-1.35 1.382-2.917 2.515-3.482 2.515-1.133 0-3.31 1.528-10.433 7.325-7.256 5.905-13.284 4.959-23.344-3.669-1.136-0.972-2.669-1.77-3.407-1.77-0.739 0-1.789-0.375-2.335-0.837-0.544-0.459-2.346-1.335-4.002-1.945-1.655-0.612-3.776-1.74-4.713-2.507s-2.693-1.775-3.904-2.24c-1.209-0.466-2.766-1.32-3.457-1.9-1.876-1.573-5.087-2.68-6.484-2.237-1.823 0.579-2.178 3.353-0.497 3.878 1.859 0.581 2.248 1.395 2.257 4.761 0.008 2.501 0.328 3.26 2.116 5.028 1.16 1.148 2.443 3.287 2.856 4.763 0.413 1.475 1.598 3.647 2.633 4.825 1.361 1.55 1.987 3.034 2.262 5.359 0.256 2.16 0.748 3.412 1.498 3.814 2.464 1.317 3.102 2.552 3.102 6.012 0 2.7 0.233 3.516 1.099 3.822 3.998 1.417 4.096 3.201 0.477 8.709-1.552 2.363-2.999 5.239-3.215 6.393-0.249 1.321-1.194 2.756-2.563 3.882-2.398 1.978-9.25 15.275-10 19.409-0.497 2.739-2.311 6.532-4.499 9.405-1.151 1.512-1.686 3.264-2.087 6.828-0.322 2.869-0.902 5.078-1.445 5.506-0.499 0.392-1.478 1.995-2.174 3.559-1.378 3.092-4.209 4.962-8.235 5.44-1.186 0.139-3.963 1.090-6.171 2.113-2.46 1.138-5.050 1.858-6.689 1.858-2.005 0-3.027 0.375-4.083 1.498-1.084 1.155-2.237 1.558-5.022 1.761-2.391 0.174-4.272 0.73-5.555 1.643-1.068 0.761-2.548 1.382-3.289 1.382-1.487 0-4.778 1.519-6.431 2.965-0.868 0.761-1.462 0.797-3.269 0.2-2.603-0.859-3.867-0.351-6.286 2.524-1.901 2.258-2.104 3.647-0.54 3.688 4.229 0.112 6.859 0.841 8.418 2.338 1.326 1.27 2.089 1.545 3.377 1.222 2.455-0.617 3.938 0.092 4.376 2.093 0.371 1.69 0.591 1.789 4.6 2.087 2.877 0.214 5.504 0.917 8.296 2.226 6.606 3.094 8.871 3.811 13.352 4.237 4.583 0.435 10.588 5.393 9.498 7.844-0.231 0.52-0.341 9.713-0.245 20.428s0.15 21.18 0.122 23.256c-0.516 35.976-0.62 37.236-3.488 42.791-0.551 1.068-1.24 3.692-1.534 5.83-0.39 2.854-0.965 4.348-2.16 5.603-0.894 0.942-1.819 2.488-2.055 3.44-0.234 0.95-0.68 1.728-0.988 1.728-0.306 0-0.559 0.551-0.559 1.225s-1.284 2.584-2.854 4.242c-1.57 1.66-3.022 3.725-3.228 4.589-0.207 0.863-0.681 1.956-1.053 2.426-1.214 1.536-2.353 29.583-1.525 37.591 0.592 5.748 0.568 7.495-0.139 9.637-0.722 2.188-0.727 2.942-0.028 4.606 1.216 2.892 1.168 6.056-0.129 8.761-0.969 2.017-1.032 2.767-0.418 5.028 0.467 1.728 0.57 4.897 0.294 9.065-0.308 4.646-0.208 6.808 0.362 7.856 0.46 0.849 0.866 4.444 0.978 8.676 0.106 3.975 0.221 7.901 0.257 8.726s-0.216 2.096-0.563 2.829c-1.298 2.755-2.163 10.031-1.419 11.949l0.705 1.819 4.853-0.403c2.669-0.221 6.34-0.731 8.159-1.135 3.068-0.68 3.413-0.634 4.754 0.627 1.805 1.695 2.854 1.7 6.724 0.036 2.982-1.284 3.18-1.291 6.452-0.262 2.993 0.942 3.623 0.96 5.536 0.161 1.401-0.586 4.138-0.873 7.805-0.815 3.105 0.048 7.059-0.274 8.788-0.716 1.729-0.439 4.597-0.803 6.376-0.808 3.798-0.008 4.203-0.576 3.411-4.813-0.34-1.832-0.304-3.606 0.101-4.771 0.39-1.118 0.467-3.756 0.196-6.665-0.249-2.648-0.542-11.394-0.651-19.437-0.216-15.882-1.14-21.309-3.496-20.561-1.191 0.377-2.118-0.568-2.787-2.841-0.255-0.863-1.063-2.56-1.799-3.769-0.735-1.211-1.256-2.548-1.16-2.971 0.199-0.88-1.386-3.52-3.502-5.828-0.79-0.865-1.583-2.279-1.757-3.142-0.175-0.865-0.874-2.618-1.552-3.896-0.679-1.277-1.234-3.486-1.234-4.906s-0.31-3.814-0.689-5.32c-0.587-2.332-0.495-3.284 0.628-6.449 1.595-4.488 1.607-5.577 0.133-10.976-0.633-2.313-0.929-4.435-0.658-4.714 1.049-1.084 1.311-9.324 0.379-12.024-0.576-1.675-0.681-2.777-0.287-3.022 0.34-0.21 0.472-1.127 0.292-2.036s0.039-2.338 0.488-3.177c0.681-1.269 0.662-1.984-0.115-4.265-0.741-2.172-0.782-3.105-0.203-4.503 0.813-1.962 1.028-7.771 0.332-8.897-1.007-1.63-0.943-23.267 0.076-25.236 0.899-1.74 0.874-2.079-0.346-4.677-1.236-2.624-1.292-3.494-0.93-13.93 0.456-13.12 0.446-16.015-0.071-21.601-0.306-3.303-0.171-4.519 0.645-5.762 0.857-1.309 0.915-2.010 0.339-4.142-2.371-8.81 9.554-17.969 17.736-13.619 2.041 1.084 3.043 1.325 3.529 0.838 1.423-1.423 2.277 14.787 1.3 24.671-1.228 12.449-1.911 16.637-2.882 17.709-0.76 0.838-0.927 1.98-0.698 4.736 0.165 1.998-0.073 5.189-0.526 7.091-1.112 4.644-1.174 21.116-0.083 21.812 2.299 1.463 6.077 8.521 5.596 10.447-0.073 0.285 0.108 0.371 0.399 0.19 0.83-0.514 3.945 2.7 4.951 5.106 0.5 1.198 1.435 2.317 2.076 2.483 1.611 0.421 2.245 3.257 1.006 4.495-0.874 0.874-1.155 0.834-2.839-0.411-6.558-4.849-12.134 5.825-6.525 12.493 0.459 0.546 0.84 1.536 0.849 2.2 0.006 0.664 0.572 2.44 1.256 3.949 0.684 1.505 1.244 3.707 1.244 4.89 0 2.29 1.382 6.148 2.775 7.745 1.052 1.207 1.598 5.065 1.695 11.965 0.041 2.938 0.474 6.577 0.963 8.089 0.722 2.231 0.75 3.411 0.15 6.284-0.813 3.889-0.823 4.403-0.251 11.711 0.619 7.908 1.75 10.26 5.388 11.196 0.845 0.216 2.101 1.25 2.794 2.296 1.582 2.394 3.724 2.487 6.042 0.266 2.234-2.14 2.834-1.652 3.35 2.731 0.542 4.621 0.9 5.821 1.737 5.821 1.6 0 6.335 2.927 7.095 4.382 0.454 0.874 3.188 3.784 6.071 6.469 2.886 2.683 6.007 5.6 6.939 6.483 0.932 0.885 2.061 2.433 2.506 3.441 1.959 4.426 7.846 4.439 7.143 0.017-0.197-1.236-0.049-4.795 0.328-7.905 0.56-4.616 1.006-12.414 1.221-21.369 0.34-14.264 1.585-35.29 2.107-35.629 0.41-0.267 0.722-4.245 0.814-10.37 0.082-5.466 0.321-10.786 0.53-11.822 0.431-2.146 1.183-19.606 0.986-22.941-0.285-4.863-0.262-6.127 0.185-9.839 0.357-2.959 0.229-4.435-0.542-6.284-0.556-1.33-0.927-3.404-0.822-4.61 0.148-1.733-0.060-2.24-0.996-2.419-0.649-0.125-2.733-1.219-4.628-2.431-2.954-1.889-3.661-2.106-4.956-1.517-1.163 0.531-2.119 0.461-4.168-0.306-1.462-0.548-3.93-1.222-5.485-1.5-5.176-0.921-7.661-1.967-9.832-4.139-2.172-2.172-3.597-2.674-4.309-1.522-1.224 1.98-7.227-2.672-7.227-5.6 0-0.803-0.849-2.428-1.886-3.608-2.097-2.389-2.114-2.507-1.24-8.702 0.448-3.169 0.986-4.705 1.926-5.487 0.972-0.808 1.209-1.529 0.932-2.829-0.84-3.913 5.843-9.726 9.495-8.259 0.975 0.39 3.996 0.659 6.714 0.597 3.791-0.087 5.207 0.123 6.067 0.904 0.619 0.56 2.927 1.395 5.131 1.855 4.382 0.918 10.676 4.281 12.97 6.929 0.8 0.927 2.78 2.243 4.399 2.927 5.173 2.188 5.702 2.565 6.101 4.378 0.22 1.005 1.435 2.608 2.79 3.681 2.982 2.363 3.511 4.306 2.224 8.18-0.554 1.665-0.832 3.805-0.624 4.805 1.038 5.005 1.037 6.521-0.014 9.273-0.909 2.382-0.968 3.192-0.343 4.701 0.79 1.909 0.613 11.442-0.274 14.716-0.35 1.29-0.090 2.472 0.988 4.502 1.25 2.359 1.351 2.991 0.705 4.409-1.438 3.153-0.971 6.185 1.133 7.382 1.305 0.743 1.881 1.553 1.881 2.649 0 1.786 1.678 2.961 3.888 2.724 1.17-0.127 1.721 0.399 2.802 2.671 2.724 5.716 4.088 5.812 8.068 0.581 1.598-2.101 4.077-4.859 5.512-6.128 6.076-5.38 5.943-5.127 5.971-11.209 0.013-3.027-0.27-6.221-0.634-7.101-0.879-2.132-1.081-5.669-0.974-16.995 0.011-1.211-0.193-6.058-0.456-10.774-0.445-7.987-0.39-8.696 0.779-10.37 0.69-0.988 1.431-2.927 1.644-4.309 0.418-2.724 3.773-6.253 7.854-8.269 1.148-0.565 2.846-1.788 3.773-2.714 0.927-0.928 2.416-1.87 3.308-2.093 0.892-0.225 2.678-1.247 3.97-2.273s3.332-2.19 4.534-2.587c1.204-0.397 2.923-1.403 3.82-2.235 0.96-0.889 2.436-1.529 3.582-1.552 3.914-0.077 7.56-0.695 9.238-1.562 2.188-1.132 8.281-1.865 9.527-1.147 1.176 0.677 5.498 6.298 5.498 7.154 0 0.341 0.251 0.622 0.56 0.622 1.853 0 1.898 10.553 0.060 13.53-0.686 1.109-1.247 2.714-1.247 3.567 0 1.423-1.755 3.548-6.74 8.169-1.701 1.577-3.758 2.677-6.104 3.265-0.969 0.243-2.789 1.266-4.043 2.272-1.335 1.071-3.716 2.135-5.74 2.564-1.901 0.403-4.014 1.123-4.696 1.596s-1.956 0.861-2.83 0.861c-2.041 0-9.938 2.252-11.007 3.139-0.579 0.48-0.814 2.642-0.805 7.411 0.007 3.704-0.291 7.497-0.664 8.426-0.487 1.216-0.476 4.404 0.039 11.313 0.394 5.291 0.659 11.389 0.589 13.549-0.231 7.051-0.18 9.844 0.243 13.327 0.255 2.098 0.103 4.737-0.392 6.8-0.709 2.951-0.681 3.587 0.223 5.116 1.403 2.374 1.272 7.361-0.262 10.024-1.188 2.062-1.189 2.16-0.056 4.084 1.368 2.321 2.104 16.361 1.421 27.113-0.087 1.382 0.146 4.070 0.52 5.971s1.27 7.556 1.991 12.57c2.286 15.858 4.728 18.498 9.32 10.077 1.403-2.574 6.252-7.914 17.234-18.984 5.113-5.154 9.56-10.065 9.884-10.916 0.476-1.25 1.024-1.545 2.866-1.545 2.43 0 3.725-1.071 8.38-6.929l2.259-2.843-0.168-10.041c-0.092-5.523-0.187-11.031-0.21-12.242-0.064-3.225 0.704-6.438 1.849-7.745 1.005-1.147 1.858-5.884 2.228-12.366 0.187-3.302 2.118-9.335 4.363-13.638 0.577-1.108 1.050-2.824 1.050-3.814 0-0.992 0.448-3.313 0.996-5.154 3.139-10.571-2.974-13.69-7.824-3.994-1.068 2.136-2.231 4.062-2.584 4.281s-0.642 0.909-0.642 1.532c0 0.625-0.584 1.879-1.298 2.785s-1.123 1.935-0.906 2.286c0.43 0.697-1.515 0.856-3.087 0.252-1.45-0.557-1.221-3.25 0.579-6.796 0.863-1.7 1.568-3.503 1.568-4.006 0-2.024 3.297-8.169 4.735-8.824 0.95-0.433 1.723-1.552 2.139-3.099 0.359-1.332 1.349-3.027 2.2-3.767 0.85-0.74 1.865-2.528 2.254-3.975 0.39-1.447 0.955-3.087 1.253-3.647 6.027-11.231 8.235-27.050 4.354-31.185-1.767-1.882-1.767-1.898-1.305-7.856 0.255-3.284 0.403-10.92 0.332-16.971-0.13-10.678 0.502-20.044 1.452-21.566 0.255-0.41 0.495-1.598 0.536-2.641 0.171-4.692 10.295-7.529 13.921-3.903 1.493 1.493 4.103 13.626 3.615 16.797-0.844 5.454-0.058 35.534 1.012 38.774 0.594 1.8 0.525 2.829-0.382 5.714-1.266 4.026-1.266 3.968-0.291 14.905 0.75 8.402 0.817 10.235 0.694 18.856-0.039 2.766-0.029 6.583 0.022 8.485s0.056 5.014 0.011 6.914c-0.046 1.901-0.048 5.933-0.007 8.956 0.144 10.113 0.045 16.261-0.415 25.926-0.18 3.803-0.306 7.904-0.282 9.114 0.082 3.748-1.457 10.262-2.974 12.604-0.797 1.228-1.885 3.916-2.418 5.969-1.014 3.909-5.368 11.811-7.466 13.548-1.161 0.962-1.228 2.072-1.347 22.683-0.070 11.921-0.318 22.803-0.551 24.182-0.522 3.094 2.726 6.205 6.202 5.94 1.065-0.082 5.611-0.214 10.104-0.294 4.495-0.082 8.952-0.382 9.909-0.666 2.336-0.697 7.377 0.094 7.377 1.159 0 2.044 3.825 1.371 5.5-0.966 1.644-2.298 7.644-1.997 8.577 0.43 0.499 1.299 3.151 1.079 4.463-0.371 0.851-0.942 1.943-1.26 4.341-1.266 6.219-0.017 6.024 0.252 5.603-7.756-0.467-8.899-0.428-15.635 0.116-19.351 0.323-2.209 0.172-3.308-0.618-4.514-0.803-1.225-0.889-1.887-0.373-2.854 0.368-0.69 0.692-2.476 0.717-3.97 0.024-1.491 0.267-3.278 0.541-3.97 0.291-0.735 0.133-2.495-0.384-4.243-0.769-2.615-1.058-13.686-0.741-28.438 0.024-1.037-0.154-3.582-0.394-5.656-0.241-2.075-0.19-4.418 0.113-5.204 0.315-0.827 0.304-3.37-0.031-6.007-0.495-3.904-0.415-4.921 0.553-6.962 1.088-2.29 1.089-2.563 0.028-6.656-0.617-2.378-1.048-6.035-0.974-8.259 0.175-5.267 0.13-5.564-0.844-5.564-1.219 0-3.407-2.558-3.906-4.565-0.442-1.784-1.841-3.111-5.255-4.99-1.368-0.752-1.947-1.536-1.947-2.633 0-0.861-0.221-1.701-0.49-1.868-0.27-0.165-0.561-1.219-0.647-2.338s-0.541-2.341-1.010-2.719c-0.471-0.377-1.189-1.736-1.596-3.020s-1.419-2.839-2.249-3.457l-1.509-1.123-0.354-20.113c-0.193-11.061-0.514-26.757-0.711-34.882-0.431-17.873-0.45-16.178 0.262-25.736l0.582-7.824 2.129-1.778c1.171-0.977 3.158-2.054 4.416-2.393 1.258-0.338 2.637-1.038 3.065-1.554 0.428-0.517 1.238-0.945 1.801-0.951 0.563-0.008 3.002-0.713 5.423-1.568 2.419-0.857 5.106-1.561 5.969-1.568 1.747-0.011 13.173-4.015 13.764-4.822 0.796-1.081 3.683-2.333 7.869-3.409 2.834-0.728 4.861-1.669 5.813-2.698 1.935-2.083 1.933-2.085-1.521-2.494-3.127-0.369-9.502-1.319-13.514-2.012-1.296-0.223-2.356-0.617-2.356-0.871 0-0.576-4.565-2.677-5.38-2.475-0.925 0.227-5.498-0.697-6.712-1.357-0.6-0.326-2.515-0.594-4.253-0.594-2.282 0-4.11-0.506-6.562-1.814-2.776-1.481-3.923-1.756-6.26-1.491-2.605 0.294-3.032 0.141-4.745-1.693-1.035-1.109-2.668-2.224-3.627-2.479-1.468-0.388-1.873-0.988-2.565-3.786-0.452-1.829-1.363-3.906-2.024-4.614-1.406-1.508-3.502-7.63-4.12-12.028-0.241-1.715-1.022-3.753-1.761-4.6-0.891-1.018-1.432-2.691-1.644-5.071-0.31-3.506-0.344-3.559-2.671-4.106-2.301-0.542-2.357-0.624-2.377-3.477-0.024-3.049-1.108-4.965-3.553-6.274-0.883-0.471-1.579-1.81-2.089-4.022-0.802-3.471-1.942-5.733-3.796-7.522-1.764-1.703-2.175-5.846-0.885-8.895 2.425-5.731 3.644-8.11 4.983-9.721 1.81-2.174 2.58-3.737 3.036-6.15 0.439-2.325 4.188-8.894 6.022-10.554 0.716-0.647 1.868-2.693 2.563-4.546 0.692-1.852 1.971-4.495 2.841-5.873s1.583-3.148 1.585-3.931 0.426-2.237 0.943-3.227c1.913-3.666 0.377-5.008-2.95-2.579-1.145 0.837-5.603 3.246-9.906 5.356s-8.122 4.21-8.485 4.671c-0.365 0.459-2.735 1.904-5.269 3.213-2.533 1.311-4.938 2.846-5.341 3.413-0.406 0.566-2.293 1.834-4.193 2.817-12.055 6.231-11.932 6.179-13.38 5.433-0.764-0.394-2.937-1.103-4.827-1.573-2.973-0.741-3.623-1.189-4.8-3.306-1.068-1.921-1.883-2.566-3.79-3-3.099-0.705-6.339-2.113-6.881-2.991-0.231-0.375-1.914-1.342-3.74-2.149s-3.488-1.742-3.695-2.076c-0.207-0.334-1.575-0.794-3.043-1.020-4.135-0.64-6.5-1.517-7.717-2.862-0.878-0.969-1.939-1.234-4.957-1.234-2.68 0-4.572-0.392-6.262-1.299-2.016-1.081-3.070-1.23-6.276-0.892-4.761 0.504-7.577-0.374-7.005-2.178 0.281-0.88-0.216-1.813-1.755-3.3-1.887-1.82-2.152-2.471-2.198-5.38-0.032-2.1-0.409-3.666-1.028-4.287-1.068-1.068-1.159-1.475-0.998-4.47 0.066-1.192-0.55-3.133-1.508-4.769-0.889-1.517-1.616-3.636-1.616-4.709 0-1.071-0.243-2.1-0.54-2.282-0.298-0.184-0.712-1.791-0.921-3.574-0.212-1.782-0.86-3.965-1.44-4.852-1.026-1.565-1.962-4.444-2.49-7.655-1.371-8.341-3.115-11.113-5.27-8.373zM289.022 119.855c2.010 2.294 2.588 2.579 5.995 2.935 4.083 0.427 7.279 1.414 7.99 2.469 0.246 0.366 1.656 0.712 3.132 0.771 2.039 0.082 3.026 0.504 4.106 1.76 0.782 0.911 2.243 1.94 3.246 2.29 1.020 0.356 1.988 1.244 2.195 2.012 0.572 2.136 0.452 4.716-0.243 5.147-0.346 0.214-0.628 1.361-0.628 2.548 0 4.736-8.467 7.974-11.166 4.27-1.040-1.427-1.7-1.677-4.58-1.729-2.998-0.054-3.512-0.268-4.681-1.947-0.724-1.037-1.585-1.922-1.914-1.969-6.034-0.85-15.522-3.768-18.243-5.611-1.753-1.189-3.529-2.16-3.944-2.16-2.411 0-2.224-5.701 0.317-9.632 3.387-5.241 14.241-5.918 18.418-1.15zM238.915 118.964c1.063 1.552 0.499 8.808-0.857 11.034-1.785 2.929-2.809 3.587-6.282 4.047-1.618 0.214-3.077 0.751-3.246 1.191s-2.945 2.16-6.168 3.819c-3.225 1.66-6.547 3.556-7.381 4.214-0.837 0.658-2.363 1.196-3.389 1.196-1.129 0-2.813 0.75-4.265 1.898-4.874 3.861-13.397 6.164-15.838 4.281-3.518-2.714-1.729-10.841 3.135-14.222 7.539-5.243 14.609-9.453 18.063-10.755 2.076-0.782 4.578-1.855 5.565-2.385 0.986-0.529 3.107-1.337 4.713-1.791 1.607-0.456 4.193-1.296 5.748-1.866 5.515-2.026 9.109-2.258 10.204-0.659zM346.904 161.13c0.673 0.214 1.222 0.945 1.222 1.627 0 1.405 1.747 5.031 4.079 8.469 1.032 1.521 1.579 3.19 1.579 4.832 0 1.964 0.459 3.015 2.115 4.847 1.485 1.643 2.245 3.222 2.558 5.298 0.245 1.627 1.13 3.97 1.971 5.208 4.511 6.65-0.582 14.584-9.063 14.117-3.538-0.193-3.867-0.333-3.867-1.638 0-0.813-0.956-2.347-2.217-3.559-2.215-2.129-4.695-6.71-4.695-8.671 0-0.571-0.85-1.781-1.887-2.691-1.159-1.018-1.885-2.264-1.885-3.241 0-1.817-0.74-3.688-2.524-6.382-4.995-7.542-4.216-13.135 2.374-17.018 2.089-1.232 7.969-1.919 10.241-1.198zM177.464 166.979c0.703 0.883 1.626 2.048 2.046 2.587 1.276 1.632 0.709 8.051-1.088 12.293-0.294 0.69-0.873 2.388-1.29 3.77-1.007 3.342-2.779 6.806-4 7.819-0.599 0.497-0.988 1.816-0.988 3.351 0 2.349-2.020 7.409-3.998 10.013-1.087 1.431-6.82 4.272-8.62 4.272-0.788 0-2.333 0.326-3.429 0.722-1.754 0.633-2.16 0.558-3.345-0.63-0.744-0.741-1.911-1.349-2.595-1.349-1.749 0-2.149-2.275-0.983-5.579 0.534-1.512 0.972-3.633 0.975-4.714 0.001-1.079 0.257-2.952 0.568-4.163 0.31-1.209 0.737-2.97 0.947-3.91 0.212-0.941 1.511-2.828 2.89-4.193 1.739-1.722 2.506-3.025 2.511-4.26 0.005-1.15 1.446-3.874 4.085-7.723 2.243-3.269 4.077-6.267 4.077-6.659 0-3.65 9.605-4.943 12.232-1.648zM180.296 349.197c0.030 2.074-2.237 1.894-2.768-0.216-0.57-2.269 0.738-3.846 1.907-2.303 0.463 0.609 0.85 1.742 0.859 2.52zM182.973 352.241c-0.296 1.549-0.31 1.552-1.201 0.282-0.998-1.425-0.617-2.661 0.671-2.166 0.504 0.193 0.712 0.932 0.53 1.885zM332.303 357.139c0.111 0.945-0.108 2.091-0.487 2.55-0.379 0.456-0.807 3.338-0.954 6.404-0.171 3.615-0.829 7.342-1.87 10.601-0.883 2.766-1.607 6.017-1.609 7.228-0.003 1.209-0.305 3.284-0.675 4.61-0.492 1.776-0.464 3.207 0.105 5.432 0.786 3.068 0.060 7.911-1.483 9.909-0.332 0.43-0.418 2.010-0.193 3.514 1.378 9.191 0.962 11.308-1.862 9.461-1.697-1.112-1.753-3.735-0.103-4.755 0.504-0.31 0.32-1.15-0.617-2.834-1.466-2.636-1.545-7.22-0.346-19.99 0.606-6.437 1.112-8.503 2.978-12.13 0.992-1.933 0.996-2.29 0.039-5.214-1.076-3.291-0.361-5.452 2.611-7.893 0.486-0.399 1.050-2.378 1.253-4.399 0.476-4.729 2.741-6.483 3.212-2.487zM184.754 359.827c0.963 2.533-0.33 3.317-1.557 0.945-1.232-2.384-1.236-2.618-0.038-2.618 0.526 0 1.245 0.752 1.595 1.673zM187.984 371.724c-0.207 2.503-0.053 3.685 0.534 4.046 1.089 0.675 1.632 7.828 0.64 8.441-1.727 1.068-2.556-1.004-2.556-6.397 0-3.938-0.285-5.812-1.101-7.196-1.059-1.801-1.054-1.906 0.107-2.757 1.936-1.424 2.712-0.165 2.376 3.865zM191.222 392.209c0.48 0.767 0.431 1.491-0.178 2.63-0.802 1.498-0.748 2.488 0.266 4.952 0.346 0.84 0.144 1.101-0.85 1.101-1.806 0-2.44-1.545-2.531-6.173-0.083-4.18 1.493-5.382 3.292-2.51zM192.051 405.622c2.018 2.017 0.717 8.467-1.708 8.467-1.898 0-2.666-1.673-2.335-5.099 0.387-4.030 2.020-5.392 4.043-3.37z"></path>
</svg>
