<!-- Generated by IcoMoon.io -->
<svg version="1.1" xmlns="http://www.w3.org/2000/svg" width="1024" height="1024" viewBox="0 0 1024 1024">
<title></title>
<g id="icomoon-ignore">
</g>
<path fill="#FFF" d="M508.364 17.066c-1.846 7.544-9.123 31.208-16.164 52.587-7.044 21.379-17.308 54.308-22.809 73.169-12.73 43.673-19.076 53.336-37.627 57.267-8.262 1.753-24.656 7.27-36.443 12.264l-21.419 9.085-32.842-26.732c-43.708-35.577-49.874-39.885-52.812-36.944-2.699 2.699 17.997 71.45 26.021 86.442 4.216 7.881 0.934 13.287-24.055 39.62-35.679 37.584-30.229 35.697-69.353 24.055-93.010-27.671-88.86-29.697-53.093 25.886l27.009 41.985 2.529 172.779c1.39 95.026 2.458 175.351 2.379 178.496-0.35 13.501 69.203 1.722 146.149-24.741 66.071-22.723 95.672-24.638 131.601-8.517l27.779 12.467 30.124-14.833c38.553-18.984 61.376-17.224 145.938 11.236 60.374 20.315 128.054 33.986 141.919 28.667 6.677-2.561 7.42-20.945 7.42-182.074v-179.222l25.152-40.894c28.649-46.587 30.206-51.951 12.4-42.741-7.009 3.624-34.508 12.235-61.103 19.122l-48.349 12.53-16.167-17.862c-8.892-9.823-21.337-23.425-27.65-30.224l-11.488-12.362 10.643-33.371c5.857-18.35 12.871-39.162 15.586-46.243 10.084-26.248 4.301-25.48-30.497 4.058-49.138 41.715-49.338 41.777-84.111 28.238-15.987-6.223-32.468-12.485-36.613-13.909-6.556-2.251-44.417-109.605-62.416-177.004l-4.273-16.007-3.357 13.719zM442.901 298.509c9.356 2.599 23.244 9.971 30.87 16.387l13.862 11.661v334.16l-14.863-3.891c-28.131-7.362-72.631-3.761-106.32 8.599-105.15 38.581-130.069 46.446-133.517 42.158-2.023-2.516-2.646-82.572-1.39-177.913l2.288-173.339 36.58-9.96c20.125-5.48 55.103-17.822 77.74-27.43 36.958-15.689 59.877-23.432 73.171-24.719 2.516-0.246 12.227 1.682 21.583 4.278zM634.395 302.414c13.602 4.771 39.57 15.075 57.71 22.902 18.143 7.818 46.645 17.081 63.333 20.58 16.691 3.494 32.127 8.141 34.307 10.324 2.864 2.861 6.371 274.245 4.444 343.368-0.32 11.436-15.472 7.544-118.206-30.381-55.514-20.49-88.702-25.22-119.677-17.036-13.791 3.642-26.516 5.735-28.279 4.649-9.002-5.565-4.243-324.707 5.020-336.483 20.879-26.544 58.060-33.115 101.352-17.917z"></path>
</svg>
