<!-- Generated by IcoMoon.io -->
<svg version="1.1" xmlns="http://www.w3.org/2000/svg" width="1024" height="1024" viewBox="0 0 1024 1024">
<title></title>
<g id="icomoon-ignore">
</g>
<path fill="#FFF" d="M819.269 512.484c-0.823 11.001-1.345 23.867-1.345 36.785s0.465 25.784 1.452 38.504l-0.107-1.716c0.465 4.302 0.776 9.334 0.776 14.423 0 35.908-13.748 68.645-36.266 93.191l0.107-0.107c-30.103 36.068-58.216 76.224-82.816 118.67l-2.233 4.156c-10.74 18.116-28.902 30.819-50.224 33.991l-0.358 0.054c-65.74 13.385-131.909 25.372-196.865 37.413-0.986 0.107-2.185 0.161-3.315 0.161-5.34 0-10.321-1.293-14.735-3.637l0.161 0.107c-17.022-8.153-30.873-15.821-44.312-24.182l1.971 1.147c-35.442-21.431-70.256-43.9-105.699-65.329-39.384-23.616-70.668-51.013-68.5-103.153-2.131-17.179-6.326-32.79-12.452-47.429l0.412 1.199c-0.986-3.737-1.559-10.428 0-11.415 2.436-1.613 5.447-2.543 8.672-2.543 1.763 0 3.422 0.259 5.035 0.776l-0.107-0.054c13.748 6.38 25.639 14.065 36.214 23.195l-0.212-0.161c17.595 16.662 41.408 26.878 67.564 26.878 4.623 0 9.189-0.306 13.653-0.933l-0.519 0.054c3.69-0.626 7.885-0.933 12.197-0.933s8.565 0.358 12.667 1.040l-0.465-0.054c39.384 8.457 62.425-16.143 80.113-43.688s26.357-55.109 48.828-77.575c2.382-2.49 3.888-5.912 3.888-9.658 0-7.732-6.275-13.958-13.958-13.958-0.306 0-0.68 0-0.986 0.054h0.054c-14.783-0.986-29.528 0-44.312 0-6.075-1.246-11.468-3.315-16.45-6.075l0.306 0.161c1.613-6.792 4.207-12.761 7.632-18.166l-0.161 0.259c21.485-23.402 43.124-46.855 65.957-69.115 9.658-9.236 8.869-14.171 0-22.827-26.573-24.6-51.584-51.161-78.767-74.987-7.939-8.35-19.1-13.6-31.499-13.6-6.021 0-11.774 1.246-17.022 3.476l0.259-0.107c-31.752 11.054-72.123 22.057-113.331 30.668l-6.952 1.246c-0.933 0.212-1.971 0.306-3.064 0.306-3.69 0-7.006-1.398-9.551-3.69v0c-0.933-1.863-1.505-4.049-1.505-6.38s0.572-4.516 1.505-6.487l-0.054 0.107c26.771-47.841 54.328-95.060 80.899-142.907 5.912-10.223 10.428-19.67 24.798-18.116 43.124 4.724 81.523-16.557 122.828-22.415 53.342-6.38 101.129-16.192 147.419-29.528l-6.487 1.613c39.384-12.399 55.109-3.172 73.84 33.472 27.289 58.164 61.28 108.188 101.918 151.931l-0.358-0.358c43.9 43.486 44.884 90.548 43.688 142.907-0.412 14.171 0 28.956 0 43.486zM649.587 390.031v0c-5.089-0.465-11.054-0.729-17.022-0.729s-11.934 0.259-17.792 0.776l0.776-0.054c-28.177 4.928-64.398 6.698-75.399 32.689-8.869 19.67 17.899 44.111 30.715 65.543 2.078 2.599 4.254 4.928 6.648 7.059l0.054 0.054c6.129 7.885 11.826 8.099 19.67 0 28.741-32.689 57.858-64.756 86.399-97.456 0-0.986-2.382-7.885-3.941-8.099-10.642-0.212-20.498 0.212-30.103 0.212zM659.406 665.664l-3.941-26.573c-9.444 8.672-19.67 16.709-28.177 26.203s-9.030 17.129-15.356 23.813-5.142 12.197 0.986 19.67c5.554 8.457 14.998 13.958 25.733 13.958 4.57 0 8.923-0.986 12.866-2.797l-0.212 0.107c6.129-3.315 5.912-19.67 7.885-29.528 0.358-4.102 0.572-8.816 0.572-13.653 0-3.834-0.161-7.685-0.412-11.468l0.054 0.519zM521.633 628.614l-5.288-28.177c-7.685 9.856-15.57 19.67-23.402 29.314-5.447 5.805-10.375 12.244-14.688 19.153l-0.306 0.519c-4.516 8.869-6.275 19.67 6.275 23.616s20.856 5.912 31.284 8.869c1.971-9.030 4.302-17.899 5.912-26.985 0.412-4.928 0.626-10.642 0.626-16.396 0-3.422-0.107-6.845-0.259-10.27v0.465zM573.364 606.195c-2.957 2.75-8.099 5.142-9.030 8.457-0.519 2.957-0.823 6.38-0.823 9.856s0.306 6.899 0.879 10.176l-0.054-0.358c1.398 15.356 3.737 30.926 5.5 46.282 25.216-1.199 21.268-29.94 37.413-39.384 1.763 0 0-12.974-3.172-15.928-8.766-6.433-18.73-12.714-29.164-18.26l-1.345-0.626z"></path>
</svg>
