<!-- Generated by IcoMoon.io -->
<svg version="1.1" xmlns="http://www.w3.org/2000/svg" width="512" height="512" viewBox="0 0 512 512">
<title>Grandfather's Gardeners</title>
<g id="icomoon-ignore">
</g>
<path fill="#FFF" d="M168.871 65.83c-52.946 8.874-75.623 33.189-85.849 92.050-4.001 23.027 5.566 53.284 22.607 71.504 9.677 10.345 45.809 37.062 56.601 41.852 6.835 3.033 6.627 4.423-1.85 12.283-26.465 24.533-31.737 34.78-39.834 77.44-4.743 24.99-1.762 35.747 16.685 60.237 24.987 33.168 53.583 53.69 78.322 56.202 4.407 0.447 11.619 1.397 16.028 2.11 19.224 3.11 57.866-9.026 71.506-22.454 28.207-27.774 36.11-57.129 29.678-110.25-1.232-10.171-2.002-18.756-1.713-19.074 0.29-0.32 8.681 1.462 18.647 3.957 42.574 10.664 61.834 9.517 92.634-5.526 27.18-13.272 38.867-29.41 45.764-63.197 2.075-10.172 4.334-20.991 5.021-24.042 5.188-23.078-16.345-63.487-51.776-97.159-13.108-12.458-39.238-22.445-53.794-20.562-3.391 0.438-13.932 1.799-23.426 3.024-19.2 2.477-27.228 5.444-46.945 17.354-11.808 7.132-14.149 7.305-15.702 1.167-6.685-26.425-15.387-39.114-42.116-61.417-12.040-10.046-19.798-14.099-30.903-16.153-9.989-1.846-47.108-1.44-59.584 0.653zM229.428 168.828c20.302 6.166 26.725 20.746 17.879 40.585-5.653 12.68-12.789 16.543-32.986 17.865l-11.713 0.767-4.546-3.832c-14.181-11.959-14.213-35.4-0.061-47.861 13.137-11.567 15.924-12.234 31.425-7.525zM289.618 189.444c4.456 0.767 17.772 4.722 29.591 8.792 11.817 4.070 22.351 7.399 23.408 7.4 4.813 0.002 6.392 3.551 15.272 34.369 5.795 20.11 8.496 31.334 7.609 31.616-7.39 2.351-47.083 8.142-52.914 7.723l-7.152-0.517-14.204-14.096c-7.81-7.752-19.2-19.486-25.308-26.075l-11.107-11.979 3.975-8.075c3.44-6.986 4.151-10.135 5.274-23.36l1.298-15.285 8.077 4.046c4.443 2.226 11.726 4.673 16.183 5.438zM255.008 247.113c5.763 6.479 15.389 17.136 21.393 23.681 16.449 17.935 16.073 14.654 5.58 48.957-11.242 36.752-8.628 33.947-25.14 26.98-7.449-3.143-18.379-7.576-24.289-9.852-13.095-5.044-16.347-7.091-18.106-11.402-1.427-3.494-7.207-58.853-7.673-73.476l-0.272-8.499 15.931-4.007c22.397-5.633 20.368-6.107 32.578 7.618z"></path>
</svg>
