<!-- Generated by IcoMoon.io -->
<svg version="1.1" xmlns="http://www.w3.org/2000/svg" width="1024" height="1024" viewBox="0 0 1024 1024">
<title></title>
<g id="icomoon-ignore">
</g>
<path fill="#FFF" d="M277.233 458.631h78.989c11.31 0 19.439-1.674 14.448 17.807-12.816 50.715-10.952 49.883 38.394 40.248 16.881-2.254 36.362-3.538 56.149-3.538 2.517 0 5.075 0 7.603 0.042h-0.4c-2.517 23.104-5.876 43.207-10.204 62.909l0.705-3.886c-11.31 44.576-24.789 88.804-36.225 133.021-0.042 0.801-0.042 1.674-0.042 2.612 0 7.203 1.285 14.048 3.665 20.408l-0.137-0.4c6.318-3.18 11.794-6.887 16.701-11.226l-0.084 0.084c37.91-43.249 75.988-86.634 112.75-130.863 31.413-37.594 60.877-77.136 92.595-114.562 7.203-7.382 17.144-12.057 28.19-12.458h0.084c49.883-1.148 99.755 0 149.639 0 17.628 0 16.606 4.991 13.964 21.956-5.171 37.51-17.891 71.218-36.541 100.819l0.621-1.064c-10.73 15.954-22.799 29.727-36.362 41.88l-0.221 0.179c-4.644 4.644-13.964 4.644-21.293 6.677 2.654-4.507 5.434-9.941 7.908-15.596l0.4-1.064c4.328-11.31 8.656-22.799 12.152-34.414 6.497-21.609-1.99-35.561-21.113-29.243-39.763 13.3-82.127 25.621-106.916 64.015-29.907 46.745-10.162 106.253 44.228 137.349 16.343 8.088 30.17 16.301 43.291 25.494l-1.064-0.705c6.318 4.991 7.992 16.606 11.794 24.431-7.108 2.959-15.333 5.075-23.904 5.96l-0.358 0.042c-86.287-5.171-172.426-13.647-258.755-15.459-50.589 2.074-98.123 7.287-144.689 15.417l6.497-0.927c-3.707 0.579-7.992 0.885-12.373 0.885s-8.656-0.305-12.858-0.927l0.484 0.042c-5.476 0-14.311-4.991-14.795-8.656 0-0.137 0-0.263 0-0.4 0-6.455 2.833-12.236 7.287-16.217h0.042c19.039-10.341 34.898-20.282 50.146-31.012l-1.59 1.064c18.597-13.7 33.929-30.707 45.323-50.272l0.442-0.801c19.966-43.386 26.105-73.334-33.266-109.433-21.251-12.236-45.818-22.925-71.66-30.749l-2.517-0.663c-8.309-2.833-19.798 3.981-29.78 6.497 1.632 10.12 4.065 19.134 7.287 27.748l-0.305-0.969c6.013 12.152 14.311 23.104 20.945 35.077 1.506 2.654 0 6.982 0 10.646-3.665 0-8.309 0-10.646-1.022-16.606-13.964-38.573-25.621-47.893-43.565-15.016-30.391-29.422-66.848-40.995-104.526l-1.411-5.392c-4.812-14.311 1.327-23.462 18.776-22.925 28.58 0.179 57.697-0.358 86.814-0.358z"></path>
<path fill="#FFF" d="M403.093 464.465l25.452-106.737c8.309-35.561 16.606-71.344 24.957-106.916 4.107-10.646 8.046-19.176 12.373-27.485l-0.705 1.506c4.507-11.615 14.143-13.479 20.945-6.677 40.911 40.911 85.624 29.949 131.694 12.32 5.739-1.453 12.278-2.338 19.081-2.338 0 0 0.042 0 0.042 0v0c-3.844 5.476-7.645 10.825-11.31 16.606-24.126 37.731-48.377 75.504-72.324 113.582-3.096 5.876-6.055 12.942-8.488 20.229l-0.305 1.064c7.108 2.116 15.29 3.317 23.767 3.317 0.042 0 0.137 0 0.179 0v0c34.898-5.171 69.849-11.489 104.568-16.606 4.149 0 8.488 0 12.637 0-0.4 4.423-1.59 8.488-3.401 12.194l0.084-0.221c-17.449 24.294-35.077 48.556-53.369 72.144-34.234 44.396-69.006 88.32-103.599 132.179-10.646 13.647-21.472 27.085-33.266 40.248-4.023 4.37-8.267 8.393-12.763 12.152l-0.221 0.179c0.705-7.161 1.853-13.7 3.538-19.966l-0.179 0.885c13.3-41.216 27.432-82.127 40.427-123.397 7.161-22.44 2.654-29.117-20.282-25.758-26.768 3.844-53.063 11.489-79.653 16.606-18.112 3.18-20.282 1.99-19.798-19.134z"></path>
</svg>
