<!-- Generated by IcoMoon.io -->
<svg version="1.1" xmlns="http://www.w3.org/2000/svg" width="1024" height="1024" viewBox="0 0 1024 1024">
<title></title>
<g id="icomoon-ignore">
</g>
<path fill="#FFF" d="M740.329 164.95c-4.909 1.806-9.357 2.672-28.8 5.628-11.105 1.683-22.552 3.68-29.641 5.15-8.219 1.708-39.651 12.279-48.393 16.262-3.88 1.769-13.243 5.665-20.798 8.657-54.128 21.384-96.335 53.604-143.228 109.368-35.133 41.778-35.102 41.766-61.913 18.715-20.617-17.719-21.739-18.499-35.060-24.367-6.48-2.857-16.495-7.391-22.256-10.072-31.093-14.517-62.104-15.163-111.855-2.334-49.077 12.658-80.773 36.727-73.458 55.796l1.427 3.731 12.094-0.774c44.823-2.879 47.542-2.675 63.799 4.845 38.077 17.606 69.609 59.669 69.274 92.433-0.155 15.752-3.741 22.503-17.083 32.18-20.096 14.585-18.959 28.515 2.78 33.794 13.33 3.242 64.152 48.386 78.967 70.168 8.487 12.458 9.534 23.522 3.033 32.048-6.558 8.593-14.738 4.959-27.391-12.152-25.212-34.11-48.063-41.603-62.185-20.361-9.403 14.153-16.603 19.204-30.553 21.446-37.414 6.026-88.424-18.706-108.408-52.557-12.883-21.819-19.707-21.14-19.704 1.976 0.003 25.964 10.319 54.205 31.438 86.007 4.065 6.124 9.287 14.723 11.611 19.103 4.691 8.854 14.901 15.163 34.973 21.593 11.524 3.687 20.382 8.004 35.671 17.344 16.683 10.19 18.086 10.853 29.458 13.9 18.724 5.018 39.281 2.2 63.639-8.738 61.285-27.511 74.112-33.789 84.148-41.212 11.518-8.53 16.529-9.316 26.623-4.211 12.052 6.091 20.181 19.221 20.181 32.597 0 10.329 5.548 21.402 25.635 51.154 35.466 52.535 64.862 77.173 109.848 92.116 15.95 5.302 27.677 10.486 35.265 15.599 23.017 15.534 69.425 15.038 120.909-1.287 43.743-13.873 79.741-40.866 67.742-50.812-3.273-2.721-23.421-1.025-36.707 3.076-25.338 7.832-39.999 3.887-61.67-16.61-43.020-40.715-48.386-62.238-26.796-107.443 12.852-26.916 12.254-39.506-2.022-42.173-20.261-3.803-50.137 20.517-83.559 68.003-18.304 26.013-31.545 28.531-41.26 7.86-5.513-11.718-2.389-20.888 11.737-34.517 8.71-8.402 8.836-8.624 10.451-18.326 1.658-9.961 3.57-13.762 11.367-22.58 7.896-8.932 6.29-13.278-14.68-39.598-28.56-35.855-31.231-42.542-16.995-42.542 15.426 0 41.038 16.472 60.891 39.162 17.999 20.573 27.031 22.302 33.885 6.498 6.416-14.772 5.089-20.006-6.654-26.262-12.807-6.829-16.777-11.253-16.777-18.697 0-19.254 27.936-22.493 32.634-3.776 3.073 12.205 9.034 14.028 21.097 6.436 24.379-15.342 34.625-14.955 52.906 2.012 12.747 11.829 14.384 12.137 22.016 4.115 8.885-9.344 3.12-28.733-17.784-59.749-8.041-11.934-15.695-18.431-29.606-25.113-6.901-3.323-16.166-7.773-20.589-9.885-9.031-4.327-10.229-6.263-11.546-18.789-0.844-7.951-1.2-10.236-5.397-34.439-13.525-77.949 104.465-188.327 174.223-162.994 14.31 5.2 17.627 5.742 21.775 3.6 10.14-5.245 0.25-25.356-24.361-49.554-19.605-19.279-49.166-32.005-89.699-38.622-5.397-0.885-12.283-2.148-15.303-2.814-7.309-1.605-13.046-1.303-19.386 1.025zM621.979 416.991c16.732 8.794 32.406 31.104 28.71 40.835-1.156 3.026-8.487 9.883-10.577 9.883-6.436 0-24.518-11.449-33.010-20.894-18.138-20.181-7.468-41.581 14.877-29.824zM372.496 434.583c4.963 2.91 3.511 13.766-2.719 20.181-12.889 13.286-26.734 11.188-26.734-4.060 0-15.643 15.654-24.213 29.453-16.123z"></path>
</svg>
