<!-- Generated by IcoMoon.io -->
<svg version="1.1" xmlns="http://www.w3.org/2000/svg" width="1024" height="1024" viewBox="0 0 1024 1024">
<title></title>
<g id="icomoon-ignore">
</g>
<path fill="#FFF" d="M501.973 120.777c-28.288 5.915-39.128 44.391-27.519 97.653 3.281 15.060-13.525 34.998-29.499 34.998-8.68 0-42.364 18.763-42.364 23.596 0 0.622 2.666 3.527 5.915 6.446 3.257 2.922 19.784 18.279 36.735 34.12 67.031 62.655 65.129 62.611 125.738 3.055 56.853-55.865 56.772-57.020-5.119-72.099-12.489-3.045-11.663 0.893-12.17-57.971-0.536-62.889-0.024-60.714-15.441-65.83-11.67-3.874-28.139-5.674-36.279-3.972zM433.354 148.776c-33.677 4.046-83.615 33.872-102.99 61.511-4.887 6.978-4.801 7.17 7.952 17.479 42.199 34.13 42.893 34.411 55.923 22.153 15.558-14.639 33.725-24.89 44.109-24.89 7.582 0 8.416-3.025 8.416-30.611 0-31.338-2.796-47.795-7.888-46.425-0.433 0.121-2.917 0.465-5.519 0.782zM586.313 153.968c-6.542 2.654-8.84 13.397-10.994 51.521l-0.903 15.952 4.392 1.704c2.42 0.94 7.944 2.866 12.275 4.275 13.367 4.351 22.234 10.16 34.015 22.263 13.406 13.781 10.627 13.251 22.508 4.237 41.611-31.579 49.804-44.492 38.035-59.92-9.063-11.879-41.582-30.638-63.796-36.784-3.901-1.082-9.154-2.592-11.673-3.357-5.63-1.714-19.533-1.65-23.879 0.111zM294.344 272.748c-66.905 68.16-92.52 126.183-90.006 203.892 0.955 29.463 3.222 46.646 8.913 67.436 0.893 3.257 2.243 8.222 3.012 11.046 13.525 49.876 22.165 52.901 64.866 22.725 61.62-43.55 68.494-55.089 51.386-86.31-22.885-41.764-30.926-67.866-30.822-100.081 0.049-15.846 1.1-22.659 6.412-41.807 5.92-21.311 7.764-91.492 2.403-91.492-1.006 0-8.284 6.567-16.159 14.589zM706.438 259.44c-0.477 0.772 0.524 5.229 2.23 9.902 3.845 10.519 4.083 27.347 0.57 41.034-3.012 11.766-2.167 20.716 3.576 37.696 8.055 23.828 8.842 28.402 8.884 51.267 0.024 16.586-0.661 24.437-2.76 31.55-1.537 5.207-3.151 11.427-3.586 13.822s-1.422 4.744-2.186 5.217c-0.765 0.472-1.396 1.867-1.396 3.089 0 2.297-3.827 11.225-14.181 33.085-22.497 47.489-21.27 50.077 44.155 93.271 43.481 28.709 44.844 28.441 57.96-11.242 7.774-23.535 11.488-36.941 14.42-52.055 0.841-4.335 2.457-12.504 3.596-18.144 2.794-13.876 2.826-72.977 0.052-86.763-10.893-54.037-35.635-96.195-76.755-130.79-20.163-16.963-32.443-24.4-34.573-20.945zM339.96 272.748c-6.345 6.973-6.784 9.358-3.514 19.263 5.070 15.372 3.812 42.841-3.069 67.107-5.332 18.79-6.392 25.881-6.446 42.965-0.027 10.182 0.748 21.897 1.727 26.034 17.14 72.34 50.695 100.11 83.536 69.136 5.92-5.583 15.944-13.675 22.273-17.976 13.781-9.366 14.516-10.47 16.985-25.551 3.123-19.063 11.682-30.453 28.837-38.392 9.282-4.292 15.377-9.415 15.377-12.912 0-6.579-74.645-79.906-110.315-108.367-29.414-23.473-39.211-28.067-45.383-21.289zM666.329 276.14c-22.359 15.359-62.512 49.302-91.556 77.395-16.287 15.748-36.661 39.231-40.532 46.718-3.992 7.715-2.528 10.948 7.162 15.903 14.327 7.323 25.554 22.31 27.994 37.342 1.592 9.83 6.508 16.897 17.753 25.517 3.903 2.993 13.49 11.584 21.294 19.079 15.552 14.939 19.961 16.943 30.817 14.024 19.297-5.197 43.815-43.633 51.811-81.227 0.922-4.336 2.408-11.22 3.303-15.293 3.6-16.425 1.68-42.915-4.727-65.164-4.338-15.074-6.343-35.751-4.715-48.724 4.252-33.916 0.676-38.825-18.611-25.576zM386.715 358.512c35.156 8.643 71.46 39.622 66.89 57.090-1.643 6.294-7.607 8.493-22.853 8.416-34.617-0.167-58.021-18.394-64.625-50.34-3.613-17.509 0.059-20.209 20.588-15.165zM657.153 359.080c5.113 5.13-0.081 27.662-9.553 41.427-21.899 31.835-92.323 27.426-74.479-4.668 12.715-22.873 72.023-48.815 84.030-36.762zM498.244 433.902c-13.205 4.902-20.458 16.2-22.366 34.851-1.857 18.168-8.483 28.554-19.978 31.331-7.934 1.918-39.111 31.203-39.111 36.74 0 2.071 6.412 5.43 15.775 8.269 30.734 9.317 37.022 12.826 46.020 25.687 17.707 25.3 51.324 22.925 66.244-4.678 3.438-6.355 12.243-11.78 27.366-16.86 38.006-12.76 39.932-31.076 4.972-47.333-19.29-8.975-29.359-24.093-29.43-44.207-0.032-9.496-4.090-16.931-10.477-19.228-17.725-6.37-30.229-7.836-39.015-4.58zM371.345 559.593c-6.341 3.446-30.832 19.125-54.426 34.846-104.554 69.665-112.093 76.703-105.381 98.48 1.419 4.602 9.784 32.406 13.195 43.85 5.896 19.789 6.237 19.572 81.637-50.982 74.782-69.974 94.075-85.056 97.011-75.803 3.63 11.438-7.836 25.092-74.173 88.341-64.108 61.13-82.643 79.392-81.856 80.663 1.347 2.181 50.958 35.096 60.127 39.895 21.21 11.092 31.427 3.064 58.167-45.668 0.955-1.739 3.17-5.64 4.929-8.677 11.85-20.45 21.087-36.54 24.673-42.983 2.292-4.122 5.858-10.507 7.929-14.198 20.684-36.872 24.361-48.621 15.891-50.751-26.216-6.582-2.229-52.015 29.256-55.419 25.293-2.727 19.27-15.062-12.617-25.839-19.716-6.665-30.052-11.78-35.68-17.647-6.308-6.588-14.004-6.077-28.69 1.901zM624.971 560.221c-10.177 7.046-29.157 15.013-35.761 15.013-3.257 0-6.535 1.055-16.25 5.251-15.050 6.488-16.488 19.796-2.164 19.941 12.954 0.13 31.449 15.944 43.024 36.774 6.906 12.433 1.387 23.22-11.886 23.22-9.584 0-7.115 7.762 14.587 45.746 8.908 15.598 17.708 31.127 21.456 37.859 2.177 3.903 5.58 9.939 7.572 13.406 1.992 3.47 4.402 7.728 5.359 9.467 33.599 61.246 43.749 66.13 82.754 39.848 48.944-32.989 50.778-26.395-29.162-104.52-69.967-68.378-90.518-91.34-85.892-95.964 4.142-4.142 16.291 5.92 89.232 73.94 39.61 36.941 76.745 68.555 80.518 68.555 1.618 0 3.796-3.6 7.17-11.829 1.151-2.806 11.695-34.917 15.549-47.325 5.563-17.94 2.305-25.259-17.263-38.742-3.035-2.090-6.588-4.676-7.888-5.736-7.344-5.986-107.59-73.705-117.954-79.684-25.175-14.523-28.914-14.973-42.994-5.219zM483.040 625.178c-23.49 0.829-47.325 5.079-47.325 8.446 0 4.4 143.535 3.827 147.953-0.595 6.862-6.862-35.338-10.155-100.632-7.851zM458.511 665.449c-4.939 1.592-8.222 5.977-18.097 24.152-2.826 5.207-7.078 13.010-9.447 17.354-2.371 4.336-9.1 17.118-14.964 28.392-15.768 30.345-27.583 52.779-31.779 60.338-2.046 3.689-5.595 10.074-7.88 14.196-10.123 18.247-15.276 26.488-18.075 28.921-6.833 5.927 0.851 11.046 37.217 24.799 30.59 11.567 33.164 9.42 40.264-33.601 1.004-6.075 2.425-13.886 3.156-17.357 0.733-3.468 2.132-10.923 3.118-16.565 0.984-5.64 2.418-13.094 3.183-16.565 0.765-3.468 2.229-10.213 3.247-14.986 3.045-14.268 7.167-25.242 9.479-25.242 8.444 0 5.116 135.987-3.76 153.702-1.222 2.44-0.676 3.79 2.718 6.704 5.172 4.452 100.983 5.883 105.307 1.572 2.314-2.307 1.542-44.039-1.761-94.938-3.845-59.3-3.955-68.452-0.841-69.645 5.63-2.159 14.034 14.877 17.228 34.944 0.554 3.47 1.732 10.568 2.62 15.775 0.885 5.209 2.248 14.789 3.028 21.294 7.907 65.907 11.528 70.363 44.91 55.198 1.737-0.79 8.566-3.884 15.185-6.879 18.306-8.284 21.498-13.335 16.58-26.232-1.153-3.037-2.978-7.799-4.046-10.576-2.963-7.708-25.719-52.084-41.085-80.129-2.376-4.335-8.264-15.342-13.084-24.452-4.823-9.11-12.061-22.6-16.091-29.971s-7.703-14.568-8.156-15.979c-1.79-5.56-7.455-6.109-60.973-5.95-29.6 0.091-54.47 0.839-57.188 1.717z"></path>
</svg>
