<!-- Generated by IcoMoon.io -->
<svg version="1.1" xmlns="http://www.w3.org/2000/svg" width="1024" height="1024" viewBox="0 0 1024 1024">
<title></title>
<g id="icomoon-ignore">
</g>
<path fill="#FFF" d="M523.689 78.781c-52.316 34.777-48.607 26.785-47.164 101.639 1.149 59.579 0.481 64.898-10.355 82.327-8.278 13.315-10.763 22.74-8.708 33.019 4.146 20.726 0.121 27.385-28.047 46.413-46.81 31.618-46.673 31.438-54.489 72.285-4 20.906-10.705 43.251-14.902 49.654-9.215 14.065-15.555 47.491-21.636 114.051-6.821 74.679-25.763 135.783-58.851 189.844-27.188 44.42-26.35 51.266 8.951 73.056 31.99 19.746 77.793 32.452 117.373 32.562 27.031 0.074 54.744 18.11 54.744 35.627 0 16.771 37.707 48.877 49.823 42.421 25.265-13.464 44.695-32.501 53.399-52.32 9.801-22.315 23.154-30.472 50.206-30.671 47.58-0.352 146.516-41.646 149.461-62.382 1.53-10.773-21.685-57.522-38.309-77.14-19.78-23.347-38.562-103.941-43.385-186.182-6.728-114.736-24.746-153.708-97.482-210.847-43.909-34.494-44.106-34.838-32.569-57.15 7.397-14.304 7.246-16.402-2.598-36.111-15.363-30.763-18.348-77.338-7.61-118.744 12.147-46.831 7.296-58.069-17.854-41.351zM417.031 483.973c12.405 21.025 13.976 21.467 82.256 23.117 54.544 1.32 56.010 1.073 63.695-10.669 22.024-33.657 43.473-38.601 50.426-11.621 2.17 8.418 7.259 18.059 11.312 21.422 13.197 10.952 8.939 28.819-9.454 39.67-11.559 6.821-17.842 14.818-20.080 25.558-2.856 13.718-13.584 33.487-59.782 110.159-13.531 22.456-13.746 30.742-1.325 51.114 11.775 19.314 12.38 32.252 2.191 46.8-9.483 13.538-24.629 14.060-31.569 1.090-6.208-11.597-20.848-12.748-31.147-2.449-22.919 22.917-41.057-17.941-21.052-47.42 17.192-25.335 19.63-36.445 11.37-51.832-3.967-7.392-14.714-27.769-23.883-45.285-9.167-17.515-19.12-36.257-22.115-41.646s-8.104-16.964-11.35-25.723c-3.246-8.757-9.351-15.922-13.566-15.922-24.948 0-35.438-28.128-20.099-53.895 19.823-33.305 30.155-36.222 44.171-12.466zM459.027 553.546c-6.743 6.745-2.983 24.407 8.928 41.937 6.737 9.913 12.25 20.005 12.25 22.426 0 4.777 16.055 20.617 20.898 20.617 1.637 0 13.321-15.418 25.965-34.262 28.29-42.165 25.688-49.586-16.85-48.060-15.16 0.544-32.133-0.579-37.717-2.494-5.584-1.917-11.648-1.989-13.473-0.164z"></path>
</svg>
