<!-- Generated by IcoMoon.io -->
<svg version="1.1" xmlns="http://www.w3.org/2000/svg" width="1024" height="1024" viewBox="0 0 1024 1024">
<title></title>
<g id="icomoon-ignore">
</g>
<path fill="#FFF" d="M506.609 792.537c30.958-3.974 61.858-7.437 92.626-12.097 10.504-1.637 19.899-4.981 28.445-9.729l-0.409 0.233c31.455-17.298 32.507-40.089 0-54.465-27.028-11.455-58.439-18.13-91.443-18.13-28.357 0-55.605 4.924-80.851 13.967l1.694-0.497c-6.165 2.878-10.592 8.634-11.556 15.428v0.088c0 4.471 8.489 11.6 14.011 12.462 39.402 6.385 79.346 17.298 117.696-6.574 5.201-3.098 14.887 0 22.456 1.373-1.826 7.349-4.471 13.791-7.802 19.767l0.233-0.409c-3.652 4.251-8.678 7.217-14.377 8.268l-0.132 0.044c-56.335 11.045-113.036 18.671-165.398-13.47-26.253-16.071-25.435-37.664 3.098-51.864 21.681-13.061 47.116-22.368 74.276-26.297l1.096-0.132c65.334-4.836 132.073-8.313 190.146 31.82 11.234 6.486 20.731 14.522 28.533 24.018l0.132 0.176c11.732 17.298 8.999 30.768-10.359 45.466-41.228 30.768-91.588 51.631-146.317 58.118l-1.461 0.132c-57.563 8.123-113.225-6.574-169.050-18.306-6.209-1.373-10.913-9.175-17.298-12.097-30.271-14.156-65.832-30.592-63.407-66.694 2.79-39.578 35.429-66.386 71.033-82.954 23.829-11.234 50.813-15.749 75.882-24.881 13.646-4.836 32.317-9.672 37.664-20.22 9.496-17.298-6.896-31.090-21.417-41.506-5.712-3.974-11.921-7.626-17.298-11.411-15.019-9.496-36.801-30.271-43.552-26.297-17.765 13.879-32.507 30.636-43.785 49.673l-0.453 0.819c-1.549 2.878-2.469 6.297-2.469 9.95s0.92 7.072 2.513 10.038l-0.044-0.088c26.253 29.541 3.287 26.984-17.298 26.984-22.456 0-44.925 1.373-67.249 0-27.305-1.914-28.722-3.974-11.411-26.297 21.782-28.168 46.474-54.1 69.119-81.405 8.634-10.359 15.384-22.456 23.010-33.69-16.436-10.359-36.48-32.317-48.388-28.722-34.566 10.724-27.992-9.862-27.116-26.984 1.637-17.122 4.15-32.419 7.582-47.393l-0.453 2.469c14.156 7.947 28.722 15.208 42.179 24.018 18.993 12.286 37.343 35.926 55.473 34.566s32.141-26.619 47.526-42.003c15.252-14.2 29.263-29.131 42.236-45.013l0.642-0.819c4.383-5.712 6.984-12.96 6.984-20.863 0-3.098-0.409-6.121-1.184-8.942l0.044 0.233c-5.523-4.792-12.828-7.714-20.775-7.714-2.834 0-5.523 0.365-8.123 1.052l0.233-0.044c-21.417 6.574-41.506 17.298-62.412 25.932-1.549 0.321-3.331 0.497-5.201 0.497s-3.608-0.176-5.347-0.541l0.176 0.044c1.373-2.425 2.425-5.888 4.66-7.261 21.826-15.151 46.883-29.994 73.048-43.011l3.52-1.593c17.298-7.072 30.768-13.149 24.018-32.141s-24.018-17.298-40.454-12.097c-69.119 19.358-138.282 39.944-186.859 99.39-4.981 4.339-10.636 7.991-16.845 10.724l-0.409 0.176c-1.549-5.523-2.834-12.141-3.564-18.949l-0.044-0.598c-0.497-5.844-0.775-12.594-0.775-19.446s0.277-13.602 0.819-20.321l-0.044 0.863c0.453-7.028 3.93-13.193 9.131-17.254l0.044-0.044c39.081-19.534 79.535-36.115 117.872-57.022 119.113-64.824 231.96-45.466 342.584 21.593 21.417 12.96 44.793 22.645 66.883 34.566 5.157 3.652 9.496 8.123 12.828 13.281l0.132 0.176c1.373 1.914 0 5.523 0 8.489-1.052 19.358-2.059 38.716-3.287 58.074-13.149-12.097-25.743-25.070-39.402-36.48-44.736-38.161-101.071-63.961-163.030-71.588l-1.505-0.132c-11.6-1.373-33.004-9.175-33.004 14.156 0 20.22 19.169 13.47 30.082 12.96 1.14-0.044 2.469-0.044 3.785-0.044 34.786 0 65.92 15.617 86.84 40.177l0.132 0.176c24.704 26.108 22.148 55.838-4.836 80.719-11.921 12.374-23.243 25.523-33.778 39.358l-0.819 1.096c24.881 10.913 34.566-14.522 50.989-22.821s24.704-23.829 37.853-34.566c4.15-3.463 11.921-2.425 18.174-3.463 3.287 16.348 5.888 35.97 7.173 56.014l0.088 1.373c0 4.339-13.47 9.175-20.907 13.47-17.298 9.672-34.566 18.495-50.315 29.219-2.235 1.549-1.184 13.47 2.059 17.298 17.298 21.096 34.566 41.316 51.864 62.047 13.646 16.247 26.984 33.004 40.63 49.264 8.999 10.724 4.471 14.522-7.261 14.698h-90.756c-11.732 0-19.723-1.373-11.411-17.298 4.295-6.662 6.852-14.742 6.852-23.464 0-3.52-0.409-6.896-1.184-10.183l0.044 0.321c-12.374-18.306-25.699-34.333-40.41-48.898l-0.044-0.044c-0.863-1.052-5.347 0-7.072 1.052-26.474 18.306-49.396 36.247-71.266 55.372l0.92-0.775c-7.437 6.896-6.077 23.508-8.123 35.794-0.863 5.712 1.549 12.462 0 17.298s-8.81 14.887-14.698 16.071c-22.148 4.471-44.793 6.896-67.249 9.496-36.203 6.94-67.117 25.888-89.163 52.45l-0.176 0.277c-17.298 18.306-11.732 37.532 14.011 51.864 32.74 19.855 72.274 31.587 114.541 31.587 5.069 0 10.095-0.176 15.107-0.497l-0.686 0.044zM582.171 478.442l-66.386-78.804s-2.79 0-4.15 0c-17.298 0-76.556 80.895-66.386 91.267 18.029 18.627 38.993 34.333 62.091 46.386l1.329 0.642c15.208 7.072 70.857-35.429 73.458-59.446zM567.152 308.573c-9.672 3.974-25.435 6.077-27.481 12.462-0.132 1.329-0.233 2.834-0.233 4.383 0 9.994 3.419 19.169 9.131 26.474l-0.088-0.088c7.846 13.193 18.306 24.062 30.724 32.097l0.365 0.233c5.611 2.557 12.141 4.018 18.993 4.018s13.426-1.461 19.314-4.15l-0.277 0.132c7.67-4.471 12.739-12.651 12.739-22.047 0-5.479-1.738-10.548-4.66-14.698l0.044 0.088c-13.325-21.782-28.168-40.265-58.571-38.892z"></path>
</svg>
