<!-- Generated by IcoMoon.io -->
<svg version="1.1" xmlns="http://www.w3.org/2000/svg" width="1024" height="1024" viewBox="0 0 1024 1024">
<title></title>
<g id="icomoon-ignore">
</g>
<path fill="#FFF" d="M349.263 131.316c-18.187 5.078-44.729 27.073-64.637 53.562-8.759 11.659-33.181 33.989-60.359 55.195-3.625 2.831-10.181 6.348-14.567 7.821-4.386 1.475-9.478 3.656-11.316 4.848-13.693 8.886-29.14 12.099-63.649 13.233-29.030 0.952-34.495 1.544-40.979 4.436-20.691 9.221-19.275 36.297 3.678 70.31 2.709 4.010 5.604 9.085 6.437 11.277 1.707 4.486 6.44 12.376 18.132 30.219 4.403 6.716 11.172 17.598 15.043 24.176 3.874 6.581 8.161 13.286 9.525 14.902s4.284 6.072 6.487 9.902c2.203 3.83 9.030 14.589 15.171 23.913s16.341 24.964 22.667 34.758c6.326 9.796 14.797 22.474 18.824 28.177 25.853 36.612 31.119 46.669 32.245 61.551 5.319 70.327-107.982 95.983-168.637 38.184-11.249-10.718-15.672-13.604-20.844-13.604-19.847 0-7.829 46.746 21.444 83.411 23.517 29.456 97.638 76.766 132.581 84.623 6.141 1.381 15.295 3.935 20.343 5.676 52.973 18.287 73.742 9.417 94.079-40.176 26.594-64.847 33.167-141.699 17.094-199.828-7.45-26.935-1.528-33.989 15.226-18.143 2.632 2.488 7.358 5.598 10.502 6.91 8.111 3.382 28.174 22.742 25.913 25.003-1.195 1.195-3.481 1.259-7.314 0.199-20.877-5.764-23.561 6.863-14.681 69.073 1.251 8.773 2.989 26.716 3.86 39.875 0.874 13.159 2.635 30.026 3.913 37.484 8.889 51.799 3.146 102.583-14.166 125.284-6.741 8.833-26.423 22.69-35.143 24.737-4.386 1.029-12.331 3.224-17.658 4.879-6.429 1.995-14.465 3.005-23.924 3.008-57.547 0.011-8.631 37.268 51.514 39.238 76.877 2.516 143.454-32.148 162.67-84.698 15.16-41.458 4.273-114.045-17.105-114.045-0.974 0-5.726 3.741-10.56 8.316l-8.792 8.313-7.992-9.11c-4.397-5.012-8.977-9.113-10.178-9.113-4.674 0-10.364 3.91-14.26 9.799-2.239 3.382-4.76 6.152-5.604 6.152-4.215 0-10.414-21.558-12.841-44.662-2.867-27.275-4.696-44.009-5.493-50.241-0.54-4.248-0.365-5.327 0.526-3.227 0.736 1.732 2.969 3.537 4.962 4.007 2.629 0.62 4.563 3.304 7.032 9.744 5.507 14.376 13.145 24.909 19.612 27.043 6.941 2.291 6.758 2.471 16.1-16.125 8.283-16.488 10.151-17.487 23.149-12.395 3.932 1.544 5.394 1.057 13.361-4.455 18.381-12.713 17.86-12.495 24.275-10.248 3.188 1.115 8.31 4.353 11.379 7.192 11.111 10.278 11.877 10.516 22.432 6.952l9.392-3.174 3.996 4.522c2.197 2.485 6.296 9.024 9.105 14.531 7.414 14.531 14.753 15.73 21.693 3.545 14.166-24.856 18.046-32.66 19.623-39.44 2.917-12.558 3.058-12.818 5.028-9.307 2.961 5.275 2.291 49.406-0.933 61.507-1.519 5.704-3.766 18.060-4.995 27.46-3.625 27.77-11.294 34.34-19.986 17.122-3.919-7.762-5.513-9.492-8.756-9.492-2.181 0-4.502-0.174-5.161-0.387s-3.077 3.099-5.377 7.356c-6.725 12.45-11.518 13.698-19.161 4.995-24.203-27.566-47.513 56.307-31.18 112.2 6.368 21.798 32.743 41.593 85.625 64.261 24.372 10.444 86.792 14.614 117.037 7.815 25.512-5.737 26.686-24.997 1.807-29.663-17.545-3.288-50.618-24.425-60.248-38.508-11.44-16.726-22.941-56.404-21.245-73.288 0.542-5.402 1.707-21.909 2.587-36.687 1.898-31.919 4.356-54.63 11.017-101.797 6.888-48.786 7.010-56.642 0.982-62.932-6.022-6.285-11.598-6.501-13.098-0.504-1.522 6.096-9.832 19.269-13.344 21.148-2.759 1.475-4.669 5.925-7.181 16.734l-1.112 4.785-1.544-3.988c-4.021-10.386 3.288-35.48 11.457-39.332 15.088-7.112 18.854-9.511 21.112-13.441 1.4-2.441 5.656-6.39 9.459-8.775 8.189-5.142 25.255-22.214 25.255-25.266 0-1.176 1.741-3.279 3.866-4.671 2.128-1.395 4.331-3.991 4.893-5.767 0.565-1.777 1.696-3.232 2.516-3.232 2.383 0 1.713 9.116-0.863 11.692-1.29 1.29-3.407 6.905-4.702 12.475-1.295 5.568-4.159 18.021-6.368 27.671s-5.571 24.087-7.472 32.082c-4.198 17.658-3.769 86.817 0.634 101.899 1.279 4.386 3.185 13.582 4.237 20.437 2.311 15.090 17.31 60.054 25.285 75.806 12.829 25.33 54.467 27.513 109.878 5.759 7.71-3.027 14.949-5.504 16.081-5.504 3.238 0 43.84-21.486 52.433-27.745 33.471-24.383 54.533-44.59 69.081-66.284 11.944-17.805 23.755-52.104 20.705-60.126-2.095-5.504-14.761-0.814-28.62 10.604-25.033 20.62-50.014 27.873-92.385 26.821-20.21-0.501-25.891-1.165-30.433-3.551-48.387-25.44-57.074-70.266-24.153-124.655 8.526-14.083 42.368-63.118 45.617-66.093 2.394-2.192 8.172-9.73 12.835-16.748s13.233-18.86 19.042-26.318c9.633-12.367 27.751-38.845 44.748-65.395 33.637-52.549 26.589-76.8-22.944-78.936-67.075-2.895-82.724-8.272-111.829-38.427-5.704-5.906-15.301-15.472-21.331-21.256s-16.078-15.879-22.33-22.435c-34.257-35.923-45.246-45.938-56.114-51.124l-10.823-5.164-22.46 0.872c-45.576 1.774-64.048 12.046-97.491 54.218-17.977 22.667-31.966 30.117-52.087 27.734-12.486-1.481-20.561-7.472-49.799-36.961-37.888-38.212-47.897-43.611-83.068-44.795-14.011-0.47-21.491 0.014-27.914 1.807zM400.044 343.929c2.928 1.458 12.871 11.457 22.097 22.216 9.224 10.759 18.024 20.451 19.551 21.533 11.479 8.139 28.329 33.715 30.261 45.93 6.913 43.727-79.354 32.411-104.105-13.657-23.738-44.184-2.856-93.495 32.195-76.022zM644.791 343.148c30.845 12.926 31.711 67.938 1.5 95.244-16.795 15.179-46.492 26.063-63.583 23.298-40.093-6.481-24.081-71.583 26.849-109.155 16.15-11.913 24.129-14.039 35.234-9.387zM306.751 414.964c6.581 9.356 6.589 9.387 7.17 26.384 0.933 27.247-3.224 26.484-16.612-3.052-0.996-2.195-3.47-7.577-5.499-11.963-9.902-21.394 1.685-30.211 14.941-11.368zM734.371 409.939c5.906 8.432 4.121 14-17.667 55.073-7.057 13.305-14.053 8.537-10.43-7.109 8.523-36.825 11.786-45.52 18.309-48.769 6.703-3.337 6.896-3.321 9.788 0.805zM517.288 479.048c9.096 2.289 19.886 28.767 14.852 36.449-8.349 12.746-44.112 5.701-44.112-8.689 0-11.31 16.684-32.046 23.675-29.425 1.179 0.44 3.692 1.19 5.585 1.666z"></path>
</svg>
