<!-- Generated by IcoMoon.io -->
<svg version="1.1" xmlns="http://www.w3.org/2000/svg" width="1024" height="1024" viewBox="0 0 1024 1024">
<title></title>
<g id="icomoon-ignore">
</g>
<path fill="#FFF" d="M520.512 160.353c51.875 7.281 95.256 38.231 119.414 81.397l0.41 0.82c10.956 19.204 24.207 37.459 33.424 57.582 6.871 14.63 11.268 31.654 12.070 49.646v0.312c0.41 28.243 7.906 54.68 20.796 77.625l-0.41-0.82c23.24 41.084 3.821 115.232-37.263 138.667-53.008 31.293-70.834 81.643-76.805 137.29-3.674 29.964 0 60.699-1.164 90.81s-6.167 59.732-10.759 89.499c0 5.199-7.857 13.809-11.317 13.448-7.232-1.28-13.35-5.297-17.434-10.857l-0.049-0.098c-10.3-18.549-29.719-30.882-52.040-30.882-13.301 0-25.585 4.379-35.475 11.776l0.147-0.098c-5.003 4.017-4.428 14.416-7.906 21.158-1.525 2.903-7.281 3.674-11.17 5.346-10.956-30.325-29.768-57.582-23.436-93.731 2.952-15.744 4.642-33.883 4.642-52.383 0-53.418-14.072-103.505-38.623-146.885l0.771 1.476c-8.561-13.154-20.025-23.748-33.491-31.096l-0.508-0.263c-43.773-26.504-68.752-87.956-47.643-132.501 13.662-28.078 22.174-60.895 23.436-95.617v-0.41c3.87-24.93 12.284-47.251 24.471-67.013l-0.459 0.771c11.005-19.731 22.125-36.541 34.342-52.499l-0.704 1.017c32.113-38.066 79.444-62.371 132.501-63.553h0.196zM590.593 553.838c20.533 2.492 31.703-10.184 43.216-24.569 19.204-24.569 4.232-48.776 0-72.769s-17.269-26.29-31.899-10.184c-18.5 20.025-35.524 42.101-50.497 65.488l-1.115 1.886c-13.056 20.337-7.085 31.293 16.302 38.427 6.528 1.115 14.072 1.739 21.764 1.739 0.771 0 1.574 0 2.345 0h-0.098zM435.802 553.838c34.753 0 43.43-13.662 26.504-43.577-9.48-17.63-19.976-32.867-31.948-46.841l0.312 0.361c-10.71-10.251-22.468-19.566-34.967-27.833l-0.919-0.557c-5.052 11.366-10.349 25.683-14.826 40.362l-0.771 2.854c-1.69 5.199-2.658 11.103-2.658 17.336 0 31.801 25.781 57.582 57.582 57.582 0.606 0 1.164 0 1.788-0.049h-0.098zM537.781 736.903c-8.102-0.704-17.532-1.066-27.061-1.066s-18.959 0.41-28.292 1.164l1.231-0.098c-9.431 1.739-22.272 38.427-16.155 46.676 7.036 11.776 17.22 21.091 29.357 26.914l0.41 0.147c3.772 1.378 8.102 2.149 12.646 2.149 14.023 0 26.241-7.495 32.983-18.647l0.098-0.147c2.394-6.626 3.772-14.268 3.772-22.223 0-13.497-3.968-26.094-10.857-36.639l0.147 0.263c-1.935-1.525-5.346-1.935 1.739 1.164z"></path>
</svg>
