<!-- Generated by IcoMoon.io -->
<svg version="1.1" xmlns="http://www.w3.org/2000/svg" width="1024" height="1024" viewBox="0 0 1024 1024">
<title></title>
<g id="icomoon-ignore">
</g>
<path fill="#FFF" d="M520.356 317.714c0-45.606 0-91.268 0-137.662 0-25.166 7.85-29.484 29.484-15.753 29.906 19.657 58.972 39.319 86.911 60.956 9.043 6.71 17.315 15.129 10.606 29.12-28.142 58.972-31.469 124.298-53.307 184.886-7.174 24.392-29.338 41.914-55.596 41.914-0.155 0-0.312 0-0.466 0v0c-7.334-1.508-13.26-6.342-16.281-12.848l-0.055-0.155c-1.399-6.085-2.187-13.052-2.187-20.235 0-3.126 0.155-6.196 0.466-9.262l-0.055 0.367c0-40.716 0-81.449 0-122.111z"></path>
<path fill="#FFF" d="M157.134 713.806c0-11.6 0-22.989 0-34.429 0-0.422-0.055-0.939-0.055-1.452 0-18.566 12.328-34.273 29.227-39.374l0.312-0.055c60.794-22.056 121.964-42.279 183.122-62.926 7.279-2.333 17.315-5.881 22.412-2.96 14.245 9.307 26.632 19.19 38.013 30.166l-0.11-0.055c1.196 1.196-1.355 9.043-4.109 11.801-8.951 9.043-18.511 17.426-28.658 25.121l-0.679 0.466q-60.794 44.264-122.32 87.314-45.823 31.875-92.627 61.947c-2.758 1.764-12.793-1.563-13.364-4.109-5.716-23.401-10.037-47.020-14.927-70.623z"></path>
<path fill="#FFF" d="M734.732 862.080c-14.504-6.030-27.040-13.571-38.226-22.628l0.312 0.202c-33.435-35.57-64.907-72.755-96.945-109.526-9.618-11.028-19.657-22.205-27.518-34.007-4.523-6.085-11.028-14.355-10.037-20.643 4.376-17.94 9.307-33.123 15.184-47.738l-0.826 2.333c15.184 4.89 28.187 10.551 40.57 17.315l-1.196-0.624c69.634 44.623 137.662 90.291 207.514 135.53 7.591 3.798 14.099 8.529 19.657 14.149v0c2.758 3.75 2.333 15.348 0 16.545-34.796 16.691-70.99 32.451-108.379 49.154z"></path>
<path fill="#FFF" d="M310.918 867.388c-38.179-11.6-74.165-21.212-108.949-33.805-17.683-6.287-18.677-22.628-3.532-34.228 19.657-15.551 41.869-29.906 63.143-44.833 51.331-36.194 102.664-72.553 154.408-108.379 8.015-4.523 17.426-8.841 27.206-12.372l1.306-0.422c6.508 15.918 13.933 31.469 19.657 47.793 1.196 4.523-4.321 12.169-8.272 17.114q-63.344 78.694-127.423 156.338c-5.092 4.78-10.863 9.043-17.059 12.536l-0.466 0.202z"></path>
<path fill="#FFF" d="M870.629 717.556l-8.841 66.672c-26.365 2.187-37.756-22.056-56.267-33.234-55.285-33.651-107.609-71.617-161.063-107.971-6.71-4.523-15.753-7.077-19.657-13.162-7.279-10.24-29.697-14.557-16.903-34.007 15.551-23.823 31.671-30.275 52.531-22.989 62.351 21.432 124.502 43.842 187.44 63.503 16.545 5.092 19.657 12.591 19.657 26.943v53.876z"></path>
<path fill="#FFF" d="M504.645 320.268c0 44.264 0 88.514 0 132.57 0 31.252 0 28.915-30.111 22.989-18.364-2.554-33.029-15.863-37.5-33.34l-0.055-0.312q-27.518-93.045-52.112-186.449c-0.11-1.044-0.202-2.242-0.202-3.487 0-8.731 3.694-16.592 9.618-22.056v0c30.68-23.401 62.351-46.029 95.015-66.672 14.557-9.262 15.129 5.309 15.348 14.557 0 47.378 0 94.814 0 142.184z"></path>
<path fill="#FFF" d="M504.444 538.543c0 24.392-27.921 54.086-48 52.886-25.432-4.062-44.668-25.845-44.668-52.112 0-2.813 0.202-5.514 0.624-8.217l-0.055 0.312c4.062-22.678 23.199-39.781 46.489-40.716h0.11c23.97 4.263 42.39 23.511 45.402 47.536l0.055 0.257z"></path>
<path fill="#FFF" d="M612.621 542.284c0.055 0.883 0.11 1.93 0.11 2.96 0 24.135-19.135 43.787-43.113 44.623h-0.055c-26.054-4.468-46.084-25.478-48.934-51.642v-0.257c1.355-19.657 29.906-48.577 47.592-47.793 24.964 0.994 44.778 21.479 44.778 46.598 0 1.977-0.11 3.896-0.367 5.771v-0.202z"></path>
<path fill="#FFF" d="M516.043 670.126c-33.029 0-45.457-12.591-44.833-43.472-0.055-0.883-0.11-1.93-0.11-2.96 0-24.337 19.704-44.046 44.046-44.046 0.257 0 0.466 0 0.733 0h-0.055c26.579 1.82 47.426 23.768 47.426 50.662 0 0.312 0 0.624 0 0.939v-0.055c-1.977 22.056-20.331 39.159-42.702 39.159-1.563 0-3.126-0.11-4.687-0.257h0.202z"></path>
</svg>
