<!-- Generated by IcoMoon.io -->
<svg version="1.1" xmlns="http://www.w3.org/2000/svg" width="1024" height="1024" viewBox="0 0 1024 1024">
<title></title>
<g id="icomoon-ignore">
</g>
<path fill="#FFF" d="M135.582 225.114c0-14.871 0-29.517 0-44.388 0-2.636 3.766-5.12 6.005-7.756 2.239 2.636 6.229 5.344 6.402 8.224 2.932 30.678 18.168 57.315 40.622 75.239l0.244 0.173c18.983 20.112 45.844 32.622 75.656 32.622 25.68 0 49.212-9.283 67.361-24.744l-0.173 0.122c29.446-21.344 63.076-42.2 98.181-60.612l4.58-2.168c9.751-5.12 37.497-24.153 36.856 13.985 0 7.339 0 18.861 6.646 1.11 15.98-46.8 55.666-31.044 83.88-24.153 35.502 11.939 66.251 26.983 94.588 45.375l-1.649-1.008c17.751 9.527 15.512 27.99 15.756 44.388 0 8 1.995 16.224 11.278 7.532 13.1-12.234 23.98-9.751 39.512-2.88 12.234 4.998 26.464 7.878 41.334 7.878 36.439 0 68.836-17.334 89.417-44.215l0.173-0.295 32.154-43.034c4.112 16.937 6.646 36.388 6.871 56.429v0.173c-2.707 74.424-60.663 134.497-133.978 140.436l-0.519 0.051c-45.202 3.695-80.532 41.334-80.532 87.127 0 4.356 0.295 8.59 0.936 12.703l-0.051-0.468c0.641 2.534 1.008 5.466 1.008 8.468 0 19.573-15.634 35.502-35.156 35.92h-0.051c-37.741 7.532-37.029 7.532-39.268 44.388-1.995 30.871-6.005 61.671-8.641 92.522 0 7.115-1.995 16.642 1.527 21.1 24.622 28.632 3.522 50.373-9.751 72.776-9.059 14.942-18.097 27.746-28.041 39.91l0.468-0.641c-9.751 11.766-22.158 22.158-31.98 33.263-1.771-12.407-4.458-24.866-5.517-37.273-0.051-21.171-11.522-39.614-28.561-49.559l-0.295-0.173c-9.354-5.883-16.866-13.934-22.036-23.39l-0.173-0.346c-7.115-13.985-1.527-53.915-29.273-10.881 0 0-17.11-6.871-17.283-10.881-0.122-4.183-0.122-9.11-0.122-14.056 0-20.163 0.885-40.083 2.534-59.778l-0.173 2.585c0-14.402 6.229-28.632 6.646-43.034 0-28.856 0-28.856-31.736-29.741-36.856 0-50.617-9.11-44.388-44.388 10.219-55.91-31.736-82.527-55.493-119.576-3.522-5.517-16.397-6.402-25.11-7.756-55.961-8.988-102.049-44.317-125.805-92.644l-0.468-1.008c-10.341-24.224-18.097-52.388-21.985-81.763l-0.173-1.649zM419.356 494.717c27.502-7.115 48.378-11.766 68.785-18.392 4.285-3.176 6.993-8.224 6.993-13.934 0-0.712-0.051-1.476-0.122-2.168v0.051c-3.522-9.751-8.641-22.158-16.866-26.393-13.588-4.651-29.222-7.339-45.497-7.339-0.295 0-0.59 0-0.885 0h0.051c-15.512-1.11-39.736 24.866-35.278 41.039 3.349 11.105 15.98 19.278 22.871 27.034zM609.519 481.841c15.98 6.229 31.512 3.349 31.268-15.288-1.873-15.115-6.575-28.754-13.588-40.917l0.295 0.519c-2.758-3.42-6.993-5.588-11.695-5.588-0.417 0-0.814 0-1.181 0.051h0.051c-21.395 9.405-39.441 19.227-56.673 30.281l1.649-1.008c-4.285 4.58-6.871 10.81-6.871 17.629 0 2.117 0.244 4.112 0.712 6.056l-0.051-0.173c3.522 11.105 12.876 14.402 26.168 9.11 5.12-1.11 11.003-1.771 16.988-1.771 4.702 0 9.354 0.417 13.883 1.11l-0.468-0.051zM560.5 573.895c0-41.039-16.866-51.9-48.378-36.164l-4.651 2.463c-9.283 7.878-15.166 19.573-15.166 32.622 0 5.812 1.181 11.4 3.298 16.468l-0.122-0.295c9.751 10.046 20.581 18.861 32.327 26.393l0.712 0.417z"></path>
</svg>
