<!-- Generated by IcoMoon.io -->
<svg version="1.1" xmlns="http://www.w3.org/2000/svg" width="1024" height="1024" viewBox="0 0 1024 1024">
<title></title>
<g id="icomoon-ignore">
</g>
<path fill="#FFF" d="M758.659 520.901c-5.108 4.141-9.879 8.439-15.953 12.118s-17.393 15.953-22.627 13.379c-8.229-1.944-14.261-9.207-14.261-17.856 0-3.584 1.051-6.968 2.827-9.795l-0.042 0.084c1.986-3.626 3.121-7.977 3.121-12.58 0-14.861-12.076-26.925-26.925-26.925-0.126 0-0.294 0-0.42 0h0.042c-5.906 0-11.77-2.239-17.856-3.331 2.533 4.267 5.276 9.501 7.683 14.861l0.42 1.051c3.668 7.514 6.116 16.29 6.842 25.58v0.252c0 6.842-6.842 13.379-10.51 20.094-3.205-4.477-5.276-11.476-9.585-13.084-9.027-3.331-20.221-6.59-31.697-9.070l-1.776-0.336c0 12.748-4.477 30.31 2.070 36.973 9.879 10.215 21.523 16.71 11.644 31.865-7.178 10.678-15.953 21.692-31.865 9.711-3.5-2.701-13.715 0-18.15 3.205-38.244 29.164-67.114 63.772-64.539 115.857 1.44 27.093-1.261 52.926 13.547 79.683 17.225 31.865 0 52.758-36.804 54.366h-15.953c-51.959 0-57.235-11.77-50.982-63.772 2.028-16.080 3.163-34.692 3.163-53.556 0-28.071-2.533-55.501-7.43-82.132l0.42 2.785c-7.64-42.543-25.833-47.818-66.599-30.31-4.057 1.944-8.817 3.079-13.883 3.079-0.715 0-1.44-0.042-2.155-0.084h0.084c-58.034-5.57-74.923 45.412-56.731 99.946 1.261 3.668 2.533 7.472 4.141 11.14 3.5 8.145 7.346 15.953 11.14 24.224-10.72-0.546-20.767-2.449-30.352-5.486l0.841 0.252c-48.628-21.523-65.674-57.067-54.66-110.792 1.219-5.864 1.902-12.622 1.902-19.495 0-23.678-8.145-45.412-21.818-62.637l0.168 0.21c-15.155-20.725-3.331-23.426 12.454-21.986 12.034 2.617 22.669 6.758 32.453 12.244l-0.588-0.294c26.295 11.308 39.211 3.205 40.178-25.328 1.776-52.758 1.902-52.422-50.519-45.916-12.286 1.608-25.034 2.407-15.953-18.486 1.902-7.010 2.995-15.071 2.995-23.384 0-4.225-0.294-8.397-0.841-12.454l0.042 0.462c0-26.001 5.276-29.5 29.963-19.926s38.107 4.141 40.945-22.627 0.967-31.865-26.295-30.772c-21.019 0.967-42.248-1.261-63.772-2.239 0.967-20.094 2.070-40.304 2.701-60.398 0.799-24.687-5.402-51.329 13.883-71.706 10.846-10.804 23.174-20.178 36.594-27.777l0.841-0.462c4.645-2.869 12.58 0 18.949 0-0.21 6.158-1.009 11.992-2.365 17.646l0.126-0.588c-4.603 10.72-9.291 24.14-13.126 37.897l-0.588 2.407c-1.051 3.121-1.692 6.758-1.692 10.51 0 18.57 15.071 33.641 33.641 33.641 1.608 0 3.163-0.126 4.729-0.336l-0.168 0.042c1.944-0.168 4.267-0.252 6.537-0.252 22.154 0 42.332 8.649 57.235 22.753l-0.042-0.042c10.047 9.417 28.365 19.117 42.080 3.668 9.459-11.266 16.962-24.519 21.902-39.001l0.252-0.841c1.608-4.309-7.010-13.547-12.454-18.949-10.594-11.056-17.141-26.127-17.141-42.669 0-4.309 0.42-8.481 1.261-12.538l-0.084 0.378c1.177-5.066 2.869-9.543 5.066-13.673l-0.126 0.294c5.066 2.239 9.375 4.561 13.421 7.22l-0.336-0.21c1.902 1.44 2.239 4.771 3.668 7.010 17.688 27.903 17.856 27.735 34.566-2.070 13.883-24.687 35.88-25.833 51.329-2.239 2.659 4.015 5.024 8.649 6.842 13.547l0.168 0.504c6.032 17.046 14.524 15.953 25.202 4.141 8.271-9.417 16.878-18.486 25.328-27.735 0.126 3.415 0.168 7.472 0.168 11.518 0 11.098-0.462 22.070-1.398 32.969l0.084-1.44c-1.608 8.187-4.813 15.449-9.375 21.692l0.126-0.168c-5.402 8.607-19.117 19.579-17.225 23.888 6.8 12.58 16.164 22.963 27.43 30.73l0.294 0.21c1.944 0.588 4.141 0.925 6.453 0.925 5.906 0 11.308-2.239 15.407-5.864h-0.042c7.010-8.901 4.771-29.164 24.855-14.177 0.546 0.252 1.219 0.42 1.902 0.42s1.356-0.168 1.944-0.42h-0.042c13.21-33.641 27.262-5.402 41.114-0.799 28.533 9.585 58.496-20.893 56.731-56.089 0.252-12.832 1.524-25.244 3.71-37.267l-0.21 1.398c10.047 9.249 26.295 16.878 28.996 27.903 3.752 16.878 5.906 36.258 5.906 56.089 0 5.78-0.168 11.518-0.546 17.183l0.042-0.757c0 15.155-10.215 31.865 18.024 19.117 14.009-6.537 24.561-5.738 14.177 14.177 0 1.093-1.608 3.205-1.093 3.668 29.332 33.473 22.154 81.291 46.684 116.656 2.953 3.71 4.94 8.355 5.402 13.463v0.084c-0.799 31.865-41.282 84.455-72.211 92.768-2.407 0.336-5.15 0.546-7.977 0.546s-5.57-0.21-8.271-0.546l0.294 0.042c1.093-4.645 2.070-9.417 3.331-13.883 2.239-7.346 4.771-14.651 7.178-21.818s8.775-13.084 8.607-19.453c0-3.836-9.249-7.346-14.345-11.014l3.331 21.019c3.973 3.037 4.141 5.57 4.477 8.271zM320.043 460.671c0 29.164-0.799 58.328 0 87.492 0 7.178 6.2 19.453 11.14 20.389 15.953 3.037 14.177-11.476 14.177-21.355 0-38.413 0-76.982 0-115.395 0-0.252 0-0.588 0-0.883 0-8.229 2.491-15.869 6.8-22.196l-0.084 0.126c6.116-5.36 9.921-13.21 9.921-21.902 0-10.005-5.024-18.823-12.706-24.056l-0.084-0.084c-4.898-4.687-11.56-7.514-18.865-7.514-0.546 0-1.051 0-1.608 0.042h0.084c-4.309 0.967-9.070 11.476-9.249 17.856 0 29.164 0.462 58.79 0.462 87.492zM735.401 488.238c-3.205 3.668-6.842 6.032-6.842 8.607s3.331 5.57 5.108 8.271c3.331-2.575 6.285-5.486 8.859-8.649l0.084-0.084s-4.141-4.645-7.178-8.145z"></path>
</svg>
