<!-- Generated by IcoMoon.io -->
<svg version="1.1" xmlns="http://www.w3.org/2000/svg" width="512" height="512" viewBox="0 0 512 512">
<title>The Emberwatch</title>
<g id="icomoon-ignore">
</g>
<path fill="#FFF" d="M249.19 5.159c-4.28 6.956-9.81 25.782-9.828 33.457-0.017 7.236-6.506 17.037-22.458 33.925-5.323 5.634-21.601 23.721-36.173 40.192-14.571 16.471-31.935 35.267-38.588 41.77-6.651 6.502-17.563 17.744-24.244 24.982-13.773 14.918-8.751 13.308-47.655 15.289-21.227 1.081-22.361 1.311-27.034 5.487l-4.879 4.359-0.509 50.806-0.509 50.808 7.84 4.509c7.248 4.166 9.084 4.509 24.281 4.521l16.441 0.012 9.675 6.304c5.989 3.901 15.338 12.76 24.536 23.249 8.172 9.319 32.818 36.681 54.767 60.806 21.951 24.123 42.365 47.077 45.363 51.007 3 3.931 6.845 8.31 8.548 9.73 2.734 2.283 3.114 4.776 3.292 21.497 0.291 27.582 0.188 27.354 8.895 19.688 5.57-4.903 8.429-6.291 12.947-6.291 7.351 0 19.63-9.639 18.165-14.257-1.087-3.428 8.357-11.397 27.212-22.956 26.294-16.123 38.721-24.599 45.882-31.296 4.102-3.837 12.563-10.060 18.801-13.829 38.723-23.389 73.237-77.695 59.101-92.996-4.447-4.813-8.224-14.36-6.765-17.101 4.639-8.704 3.493-13.844-3.474-15.575-14.301-3.553-15.662-4.034-15.636-5.533 0.012-0.849 17.171-5.954 38.127-11.344 20.957-5.391 38.532-10.231 39.060-10.759 1.805-1.807-3.135-3.454-40.070-13.364-42.132-11.304-43.184-12.278-19.863-18.379 1.509-0.394 1.793-2.376 1.048-7.341-1.26-8.399 3.743-19.176 10.68-23.012 10.848-5.998-6.952-57.608-21.817-63.261-2.503-0.951-3.801-2.688-3.801-5.085 0-3.865-10.834-15.263-23.644-24.871-3.901-2.927-11.981-9.481-17.951-14.566-5.974-5.082-18.387-14.278-27.584-20.433-23.464-15.7-49.036-36.782-49.036-40.426 0-1.91-15.379-20.707-22.313-27.276-2.466-2.335-4.482-4.995-4.482-5.909 0-3.329-3.272-1.546-6.35 3.458zM263.384 63.017c0.918 1.717 4.082 3.541 7.137 4.113 3.536 0.663 7.261 3.067 10.486 6.767 4.82 5.534 11.243 11.095 45.423 39.334 32.926 27.202 41.665 47.76 30.281 71.22l-2.677 5.517-19.185 0.986c-28.358 1.456-28.966 1.655-33.464 10.897-4.366 8.97-1.063 8.172-36.385 8.788-54.303 0.946-125.361 0.195-127.278-1.345-5.292-4.253 2.569-22.142 16.736-38.079 5.316-5.981 9.665-11.449 9.665-12.155s6.253-7.935 13.893-16.066c7.641-8.129 21.024-23.229 29.739-33.554 23.879-28.287 40.314-45.562 43.389-45.614 1.515-0.026 3.624-0.911 4.68-1.971 2.802-2.803 5.68-2.362 7.564 1.16zM239.644 301.762c2.266 2.049 7.306 2.483 28.909 2.483 28.938 0 32.387 1.039 30.353 9.137-2.4 9.565 2.723 15.392 14.8 16.832 25.010 2.98 42.709 10.16 42.709 17.325 0 15.308-12.681 38.74-30.736 56.794-13.902 13.902-68.171 52.804-73.665 52.804-2.456 0-17.538-15.331-51.186-52.024-12.318-13.433-31.995-34.683-43.727-47.226-23.938-25.592-28.835-33.485-26.036-41.966 2.377-7.205 9.569-14.115 16.852-16.196 9.94-2.839 88.263-1.102 91.728 2.036z"></path>
</svg>
