<!-- Generated by IcoMoon.io -->
<svg version="1.1" xmlns="http://www.w3.org/2000/svg" width="1024" height="1024" viewBox="0 0 1024 1024">
<title></title>
<g id="icomoon-ignore">
</g>
<path fill="#FFF" d="M199.74 112.806c-4.948 12.662-5.916 13.524-21.243 18.977-4.851 1.725-0.819 5.225 6.088 5.284 5.071 0.041 11.264 19.039 11.264 34.545 0 26.13-39.752 69.028-56.543 61.020-6.221-2.964-6.945-4.183-6.945-11.671 0-14.272-2.391-16.612-12.076-11.82-7.542 3.732-8.509 3.781-14.39 0.74l-6.303-3.259v16.481c0 15.444 0.312 16.622 4.954 18.737 4.022 1.833 5.371 4.646 7.168 14.971 2.972 17.070 3.164 16.289-4.954 20.16-11.423 5.448-10.051 12.936 3.922 21.389 9.032 5.463 11.215 7.91 12.324 13.829 1.441 7.677 7.611 12.017 24.714 17.388 14.6 4.585 19.456 11.049 19.456 25.902v12.815l-11.151 7.987c-12.756 9.132-39.078 15.485-42.409 10.235-3.779-5.957-1.526-10.836 6.912-14.984 9.772-4.8 11.799-8.3 5.801-10.007-2.314-0.658-5.891-1.669-7.946-2.248-7.442-2.086-18.79 18.463-18.79 34.025 0 15.749 2.437 18.634 21.422 25.336 6.804 2.401 16.287 6.863 21.074 9.917l8.704 5.55v14.305c0 24.494-17.503 42.591-33.948 35.098-4.6-2.097-4.964-1.848-4.964 3.382 0 10.563 12.503 24.932 28.969 33.293 7.588 3.855 13.158 8.461 16.215 13.407l4.657 7.534-4.954 3.663c-2.724 2.015-6.689 4.961-8.814 6.546-6.431 4.797-6.748 45.868-0.548 71.204l4.746 19.389 22.362 2.368c12.298 1.303 25.277 2.455 28.844 2.56 4.969 0.146 7.959 2.056 12.797 8.164l6.313 7.969-9.626 13.023c-8.008 10.831-11.284 18.309-19.502 44.483l-9.876 31.462 10.632 16.666c33.943 53.204 30.441 50.883 54.72 36.291l16.755-10.071 9.172 5.128c5.043 2.819 9.157 5.737 9.139 6.484-0.172 7.752-7.414 28.915-13.153 38.446l-7.199 11.945 5.583 5.921c5.627 5.965 57.39 47.949 69.386 56.276 12.716 8.827 18.621 6.994 62.438-19.374 92.303-55.549 113.766-64.205 159.204-64.205 18.452 0 26.312-4.298 48.072-26.281l14.031-14.172 17.713 5.786c12.055 3.937 27.953 6.904 49.751 9.283l32.036 3.497 11.996-6.761c18.668-10.522 47.7-33.27 49.101-38.472 2.074-7.708 8.625-10.703 23.411-10.703 23.068 0 32.338-16.98 12.7-23.265-23.355-7.473-24.092-7.506-31.544-1.37-8.945 7.363-22.374 16.443-24.323 16.443-6.607 0-1.644-29.535 6.403-38.1 3.325-3.54 3.781-5.34 2.092-8.3-5.673-9.943-5.473-9.915-16.059-2.145l-10.063 7.388-6.999 25.902c-8.225 30.449-9.62 31.739-38.587 35.707-17.884 2.447-17.667 2.499-28.426-6.935-5.796-5.084-25.554-11.4-35.789-11.438l-7.68-0.031v-24.415l23.946-4.946 8.86-19.318c7.406-16.143 10.232-20.18 17.211-24.579 29.412-18.534 29.317-17.92 3.064-19.64-23.299-1.526-24.453-0.957-32.617 16.097-8.397 17.544-19.709 25.6-35.945 25.6-7.091 0-12.142 7.040-18.396 25.633-8.497 25.267-27.254 37.77-60.273 40.174-11.86 0.865-27.684 2.998-35.164 4.739-21.509 5.010-26.335 3.144-26.335-10.189 0-12.001 7.89-37.804 13.668-44.687 2.033-2.422 3.843-4.695 4.022-5.051s5.932-1.953 12.78-3.551c6.851-1.597 20.539-6.052 30.418-9.897 9.879-3.848 25.093-8.136 33.812-9.528 18.488-2.957 24.067-6.956 13.499-9.677-12.769-3.29-8.735-43.011 5.527-54.39 4.040-3.226 10.268-11.876 14.275-19.832 4.134-8.21 10.161-16.515 14.41-19.855 11.474-9.024 28.204-40.010 25.183-46.643-3.343-7.337-4.48-6.743-14.807 7.731-11.484 16.092-27.156 25.027-33.628 19.169-8.988-8.133-16.294 1.93-12.593 17.352l2.44 10.173-8.435 10.002c-6.003 7.119-10.053 15.043-14.054 27.487-6.313 19.643-6.991 20.058-23.322 14.203l-9.513-3.407-3.538-23.739c-3.732-25.039-5.926-32.394-8-26.808-9.946 26.813-11.497 53.010-3.837 64.817 4.37 6.738-14.408 17.103-30.981 17.103-19.543 0-25.58 4.959-37.857 31.101-8.73 18.58-14.372 26.243-19.333 26.243-5.842 0-11.635-20.296-10.342-36.232l1.38-17.016 9.446-0.036c10.314-0.036 11.456-0.906 40.927-31.196l13.048-13.412-3.658-9.933c-4.982-13.527-5.189-13.645-13.701-7.862-10.307 7.004-13.399 6.546-15.045-2.23-2.14-11.402 0.568-25.139 6.298-31.949 5.924-7.040 6.3-13.389 2.168-36.5-5.379-30.103 17.231-51.487 41.4-39.155 14.822 7.562 21.386-2.496 8.154-12.495-21.169-15.995-36.288-15.378-55.104 2.25l-15.040 14.090-0.192 22.574c-0.21 24.717-3.96 35.523-13.594 39.173-10.048 3.807-22.195-22.054-18.294-38.953 5.023-21.763 2.038-25.385-10.365-12.575-13.514 13.957-9.923 61.517 5.932 78.551l4.964 5.332-3.456 13.768c-3.164 12.595-18.068 32.044-27.197 35.489-0.778 0.294-4.841-6.907-9.029-16.003l-7.616-16.538v-69.312l8.102-21.571c19.075-50.785 72.689-94.554 130.422-106.481 113.651-23.475 219.205 51.615 236.48 168.223l2.468 16.673 10.010 1.329c10.952 1.452 23.135-1.393 61.036-14.257 16.952-5.752 26.022-7.562 42.888-8.558l21.391-1.262 58.527-31.081 0.033-36.324c0.044-45.012-1.285-50.506-16.207-67.041l-11.405-12.641-18.15 6.648c-16.996 6.226-18.281 6.418-20.193 3-1.121-2.004-4.603-6.515-7.736-10.020l-5.693-6.374 9.393-12.352c5.164-6.794 12.436-15.974 16.159-20.401s6.766-8.909 6.766-9.961c0-6.743-21.847-35.996-42.66-57.126l-23.578-23.933-6.305 3.22c-3.469 1.772-14.067 8.804-23.557 15.626l-17.249 12.406-11.423-6.395c-8.177-4.577-11.254-7.452-10.831-10.122 0.323-2.051 3.438-15.155 6.92-29.123l6.333-25.39-4.731-3.569c-2.601-1.961-17.92-10.112-34.043-18.112l-29.317-14.546-17.93 4.18c-20.367 4.749-21.747 5.504-40.494 22.144l-13.686 12.15-24.169-8.161v-50.506l-7.621-2.514c-7.078-2.337-87.772-1.398-90.22 1.050-0.458 0.461-1.341 11.809-1.958 25.221l-1.124 24.384-7.478 1.997c-6.277 1.674-9.603 1.134-20.708-3.374-13.302-5.402-15.406-7.501-30.904-30.843l-3.026-4.554-19.343 6.546c-27.233 9.213-78.963 37.35-78.062 42.458 0.371 2.104 3.955 11.981 7.967 21.949l7.288 18.127-24.978 24.978-9.29-6.671c-5.371-3.855-16.684-8.814-26.813-11.75l-17.526-5.082-13.125 11.525c-11.604 10.189-13.85 11.366-19.351 10.158-8.123-1.784-7.928-3.082 3.090-20.762 5.123-8.22 12.485-21.809 16.361-30.198 7.977-17.262 12.431-19.443 34.419-16.842 14.682 1.738 25.746-4.47 29.194-16.374 1.329-4.59 3.94-11.295 5.804-14.899l3.389-6.551-7.713-3.223c-7.488-3.128-7.805-3.085-10.842 1.492-8.282 12.493-8.817 12.764-27.044 13.719l-17.372 0.911-3.466-7.301c-4.5-9.485 3.139-23.135 20.122-35.96l11.116-8.392 20.81 4.805 9.219-9.050c8.929-8.763 9.48-12.659 1.16-8.207-2.232 1.196-5.509 1.618-7.281 0.94-9.446-3.625 2.954-16.261 28.237-28.772 16.517-8.172 18.739-11.599 11.671-17.997-7.427-6.723-59.999 16.228-80.545 35.162-5.373 4.951-12.334 9.897-15.47 10.99-10.437 3.638-37.225 38.766-37.225 48.814 0 1.277 2.711 7.693 6.026 14.259l6.026 11.94-12.275 17.644c-14.792 21.258-11.054 18.906-36.429 22.938-24.599 3.912-25.336 3.738-30.958-7.283l-4.306-8.44 11.894-13.422c36.229-40.883 88.694-109.796 88.694-116.5 0-1.395 3.917-3.18 8.704-3.965 16.991-2.788 36.406-18.778 36.357-29.942-0.023-5.179-11.351-3.397-20.588 3.238-12.070 8.673-16.282 7.916-16.282-2.929 0-9.129-4.984-11.264-15.905-6.807-5.903 2.409-6.623 3.587-6.623 10.862 0 12.393-9.244 25.027-17.26 23.585-8.141-1.467-7.908-0.637-5.594-19.784 1.541-12.749 1.457-17.428-0.343-18.573-5.937-3.776-9.073-1.295-13.873 10.982zM100.909 181.107c-0.724 1.884-1.316 7.565-1.316 12.621v9.196l6.843-6.802c3.763-3.74 9.062-8.323 11.776-10.179 6.139-4.201 5.279-5.1-6.551-6.861-7.77-1.157-9.669-0.799-10.752 2.025z"></path>
</svg>
