<!-- Generated by IcoMoon.io -->
<svg version="1.1" xmlns="http://www.w3.org/2000/svg" width="1024" height="1024" viewBox="0 0 1024 1024">
<title></title>
<g id="icomoon-ignore">
</g>
<path fill="#FFF" d="M976.67 473.18c-1.62 11.34-3.21 22.71-4.89 34.050-3.42 23.4-7.2 46.74-10.23 70.2-4.29 33.27-11.64 65.79-21.45 97.86-1.77 5.76-3.93 11.49-6.39 17.010-5.040 11.34-10.44 22.56-16.26 35.1-4.71 0.33-9.75-2.52-14.1-7.65-5.67-6.72-11.79-13.050-17.52-19.77s-13.8-7.14-21.51-9.030c-5.97-1.47-11.64-4.14-17.52-6.030-8.13-2.67-16.2-5.55-24.45-7.56-6.99-1.74-11.19-5.34-10.29-11.91 2.79-20.79 5.55-41.49 9.12-62.16 2.52-14.64 7.56-28.92 9.12-43.59 1.89-18.090 1.47-36.42 1.83-54.63 0.48-24.090 1.2-48.15 0.9-72.24-0.48-35.22-5.61-69.66-18.27-102.78-0.57-1.53 0.51-4.26 1.74-5.73 2.82-3.45 6.87-5.73 7.44-11.070 0.21-1.77 3.63-3.72 5.94-4.77 14.31-6.39 28.95-12.12 43.020-18.99 12.69-6.18 22.050-15.78 25.29-30.27 0.78-3.51 2.73-6.81 4.14-10.17 0.78-0.36 1.53-0.78 2.31-1.14 1.35 2.1 2.52 4.41 4.14 6.24 1.68 1.83 3.66 4.2 5.82 4.5 8.91 1.32 12.18 7.83 15.36 14.91 10.98 24.18 22.83 48.060 28.11 74.4 1.11 5.52 2.46 11.070 3.15 16.62 1.98 16.62 1.68 33.84 6.090 49.74 4.62 16.62 5.4 33.63 9.18 50.22 0.15 2.82 0.15 5.76 0.15 8.7zM936.38 623.78c3.030-2.58 6.36-3.93 6.93-6.090 2.61-9.6 4.89-19.41 6.24-29.28 0.36-2.46-2.52-6.57-5.040-7.92-3.36-1.83-6.36 0.63-7.41 4.47-0.57 1.98-0.9 4.080-1.2 6.15-0.69 3.84-0.060 8.67-2.16 11.4-3.93 5.1-3.15 10.23-2.25 15.48 0.21 1.83 2.61 3.3 4.89 5.82zM904.37 709.97c3.51 0.36 7.2-3.15 6.15-6.57-2.4-7.92-6.45-14.91-14.52-18.57-3.57-1.62-5.73-0.96-6.72 3.36-1.53 6.81 8.070 21.030 15.12 21.78zM865.19 680.96c3.45-0.15 7.44 0.69 7.23-5.040-0.21-6.45-4.68-11.19-11.070-11.19-4.29 0-6.57 2.19-6.66 6.57-0.15 6.18 3.36 9.39 10.5 9.66zM854.33 648.29c-0.27-5.25-3.21-7.41-8.070-7.44-4.56-0.060-5.61 2.73-5.4 6.51 0.27 4.56 2.19 7.41 7.23 7.44 4.56 0.060 6.18-2.4 6.24-6.51zM839.93 356.57c0-4.83 0.33-9.18-0.21-13.44-0.15-1.2-2.52-2.37-4.080-3-0.57-0.21-2.19 1.050-2.67 1.95-2.79 5.31-0.15 11.64 6.99 14.49zM840.35 324.41c4.56-5.34 4.56-5.73 0.78-9.75-5.31 5.1-5.34 5.52-0.78 9.75z"></path>
<path fill="#FFF" d="M494.39 991.97c-20.040-2.79-39.78-6.87-60.45-4.47-9.81 1.14-20.4-1.41-30.21-3.87-17.64-4.47-34.68-11.61-52.47-14.91-17.1-3.21-29.79-13.74-44.4-21.21-20.73-10.59-38.52-25.14-56.19-39.99-2.67-2.25-4.89-5.040-8.070-8.34 4.050-2.040 6.99-4.080 10.23-5.1 23.88-7.35 46.020-17.79 65.52-33.75 10.92-8.91 24.18-8.4 36.15-1.2 4.68 2.79 10.5 3.57 15.69 5.61 4.14 1.62 8.88 2.94 11.97 5.82 8.61 8.25 18.3 12.69 30.27 13.26 11.91 0.57 23.76 2.79 35.67 3.21 16.050 0.51 32.22 0.36 48.27-0.15 27.24-0.84 54.57-0.9 81.6-3.72 21.36-2.25 42.3-8.19 63.39-12.69 7.56-1.62 14.91-4.35 22.47-5.97 14.73-3.15 28.44-8.67 40.92-17.010 4.5-3.030 7.98-2.61 12.39 0.63 17.58 12.84 33.54 27.27 45.81 45.33 5.1 7.5 4.62 8.49-3 13.95-0.84 0.57-1.83 1.26-2.19 2.1-4.5 10.17-14.1 15.060-21.84 22.080-13.32 12.060-28.95 19.68-45.33 26.19-7.92 3.15-16.2 5.19-24.33 7.83-5.94 1.95-11.76 4.29-17.79 5.94-4.35 1.2-8.91 1.74-13.38 2.19-3.15 0.36-6.45-0.33-9.51 0.33-22.5 4.77-44.91 10.17-67.59 14.37-8.76 1.62-18 0.36-26.97 0.9-6.81 0.42-13.59 1.62-20.37 2.52-5.34 0.090-10.8 0.090-16.26 0.090z"></path>
<path fill="#FFF" d="M47.39 539.93c4.47-21 10.71-41.91 7.2-63.69-2.88-17.79-0.48-34.83 3.090-52.26 2.82-14.010 4.080-28.17 12.63-40.23 0.72-0.99 1.11-2.25 1.41-3.45 8.91-33.84 29.85-60.9 51.63-86.82 9.87-11.76 23.88-20.16 36.63-29.22 6.39-4.56 9.72-2.46 11.34 5.31 0.42 2.040 0.72 4.14 0.96 6.18 1.68 15.99 7.35 29.97 20.46 40.2 3.090 2.4 5.73 5.55 8.46 8.46 7.35 7.83 9.6 8.34 19.77 4.62 0.9-0.33 1.89-0.36 4.2-0.84-2.16 5.76-3.66 10.65-5.73 15.27-8.34 18.93-16.83 37.83-25.35 56.73-6.72 15-9.6 30.81-9.33 47.1 0.48 28.59-2.31 56.88-4.41 85.32-1.68 22.56 1.95 45.54 3.24 68.31 0.54 9.6 1.26 19.2 1.74 28.74 0.060 1.32-0.42 3.3-1.35 3.99-8.88 6.36-15.27 16.050-27.27 18.36-3.87 0.72-7.92 5.52-10.080 9.45-6.51 11.91-10.56 24.6-8.61 38.61 0.36 2.58-0.9 5.34-1.62 9.3-8.040-5.25-15-9.39-21.45-14.28-1.62-1.26-2.1-4.68-2.19-7.2-0.090-2.4 0.9-4.92 1.41-7.41 0.99-4.68-0.48-6.3-5.61-7.14-10.65-1.74-20.37-6.6-26.97-15.42-5.1-6.81-8.76-14.73-13.050-22.2-7.41-12.63-10.5-26.28-9.96-40.92 0.15-4.92-0.78-10.020-1.98-14.79-2.79-10.92-6.090-21.66-9.18-32.49 0.060-2.52 0.060-5.040 0.060-7.56z"></path>
<path fill="#FFF" d="M674.78 795.020c1.32-3.87 2.73-6.81 3.21-9.93 0.96-6.18 1.41-12.45 1.98-18.69 0.27-3 1.56-6.66-3.090-7.5-4.2-0.78-8.19 0.51-8.76 4.98-1.050 8.61-1.32 17.31-1.62 26.010-0.060 2.4 1.2 4.89 1.41 7.41 0.96 9.090-2.25 14.58-11.4 16.83-16.050 3.87-32.22 8.13-48.54 10.020-33.060 3.87-66.12 7.77-98.94 13.32-14.28 2.4-29.34 0.060-43.98 0.99-31.26 1.98-60.060-8.25-88.68-18.090-12.81-4.41-24.24-13.11-35.82-20.52-2.37-1.53-3.63-6.090-3.78-9.3-0.63-14.28-0.54-28.53-1.050-42.75-0.15-4.080-1.050-8.4-2.73-12.060-5.88-13.23-12.33-26.13-18.27-39.3-3.030-6.72-7.65-11.34-14.58-13.86-3.51-1.26-6.81-3.36-10.44-4.29s-7.62-0.84-11.4-1.47c-9.030-1.56-18.060-3-26.85-5.25-1.77-0.48-3.21-4.14-3.87-6.6-2.19-7.71-5.97-14.22-10.5-21-5.19-7.86-8.040-17.94-9.51-27.45-2.67-17.37-3.030-35.040-5.46-52.47-1.47-10.71-0.9-21.15-0.42-31.86 0.57-13.59-0.69-27.24-1.050-40.83-0.090-4.35-0.33-8.82 0.27-13.050 2.79-19.26 5.1-38.55 9.030-57.6 2.94-14.1 8.040-27.75 12.21-41.55 2.37-7.83 7.71-13.38 12.81-19.62 16.95-20.82 39.72-34.74 59.28-52.32 7.5-6.78 12-15.060 12.27-25.29 0.12-4.56 1.53-7.92 5.88-10.23 1.74-0.9 3.15-3.3 3.72-5.34 1.95-6.18 5.55-11.19 11.43-13.47 8.7-3.42 17.73-5.94 26.7-8.76 6.72-2.16 14.22-3 20.040-6.51 17.52-10.59 36.78-13.17 56.55-14.94 14.31-1.32 28.5-4.14 42.75-6.18 2.46-0.36 4.98-0.54 7.44-0.33 11.7 0.9 23.4 1.62 35.040 2.94 18.72 2.040 37.47 4.14 56.1 6.87 15.9 2.31 31.8 5.1 47.49 8.55 5.73 1.26 11.070 4.77 16.32 7.77 11.43 6.57 13.47 6.36 21.84-3.78 5.82-7.14 11.55-6.24 14.49 2.52 2.37 7.14 4.29 14.49 5.94 21.78 2.31 10.14 6.87 18.78 14.7 25.71 11.61 10.29 22.83 20.94 34.56 31.050 2.46 2.16 6.3 3.3 9.66 3.72 5.73 0.72 9.24 3.3 10.92 8.82 14.52 47.7 25.92 95.91 23.88 146.34-0.72 18.060-0.15 36.15-1.56 54.090-1.53 19.62-6.030 39.030-6.78 58.65-0.9 23.4-7.77 45.33-12.6 67.8-0.9 4.050-1.41 8.4-0.99 12.48 0.69 6.51-2.040 10.020-7.65 12.69-21.57 10.17-39.6 24.39-50.79 46.020-9.6 18.63-15.48 38.52-17.67 59.22-0.69 6.24-3.72 8.88-8.34 11.13-4.5 2.19-6.93-0.96-9.33-3.99-0.63-1.14-1.74-1.77-1.47-1.56zM515.54 791.57c10.29-0.84 17.37-1.53 24.45-2.040 19.74-1.41 39.39-0.72 58.86 2.82 2.25 0.42 4.14 2.58 6.36 3.45 3.24 1.32 7.020 3.63 9.96 2.94 4.29-0.99 4.26-5.61 3.42-9.54-1.68-7.77-3.3-15.57-5.25-23.25-2.46-9.6-4.62-19.26-1.95-29.13 2.82-10.5 5.73-21.030 9.12-31.38 5.88-17.94 17.94-30 36.030-35.73 6.57-2.040 13.32-3.57 19.98-5.34 7.23-1.89 14.37-4.26 18.060-11.4 11.010-21.24 19.74-42.3 9.72-67.32-6.78-17.010-10.080-35.4-14.22-53.37-1.41-6.15-1.14-12.81-0.72-19.2 0.42-7.2 2.16-14.28 2.73-21.45 0.63-7.92-0.060-15.99 1.11-23.88 3.45-23.91 0.57-47.28-6.15-70.14-8.25-28.11-16.89-56.1-26.13-83.88-1.83-5.55-6.15-11.19-10.8-14.85-15.36-12.27-31.38-23.82-51-28.86-5.46-1.41-10.71-3.72-15.78-6.18-17.58-8.46-36.42-12.54-55.41-15.75-4.29-0.72-9.3 0.090-13.44 1.62-11.55 4.26-22.68 9.66-34.26 13.8-15.15 5.4-30.6 10.020-45.9 14.85-3.78 1.2-7.65 2.31-11.58 2.58-6.090 0.36-10.56 3-14.64 7.41-2.88 3.030-6.72 6.36-10.59 7.080-5.76 1.11-9.18 3.72-12.33 8.46-1.89 2.82-5.61 4.5-8.55 6.6-0.93 0.69-2.52 0.69-3.24 1.53-11.28 13.59-20.73 28.23-21.3 46.59-0.84 27.45-1.53 54.93-1.32 82.44 0.060 9.45 1.47 18.63-4.29 27.060-0.93 1.35-0.63 3.63-0.78 5.52-1.26 16.47-2.46 33-3.84 49.47-1.32 15.99-6.45 30.6-16.2 43.56-4.41 5.82-8.76 11.91-11.97 18.48-1.89 3.93-3.24 9.75-1.74 13.47 6.81 16.74 15.78 32.31 27.45 46.32 9.72 11.64 21.63 15.75 36.45 12.84 3.72-0.72 8.4-0.99 11.58 0.63 19.41 9.87 35.67 23.25 46.080 43.080 11.49 22.080 16.62 44.97 12.24 69.84-2.37 13.26 1.95 17.22 15.33 16.050 6.39-0.57 12.96-0.27 19.41 0.33 12.81 1.14 25.5 2.79 35.1 3.87zM355.040 788.060c0.12 4.41 0.72 8.67 6.39 8.76 5.82 0.060 6.45-4.47 6.36-8.76-0.12-4.050 0.12-8.82-6.090-8.91-6.3-0.090-6.81 4.14-6.66 8.91zM644.090 787.22c-0.21-4.26-0.63-8.46-6.57-8.46-5.76 0-5.4 4.26-5.34 7.92 0.060 3.57-0.72 8.040 5.31 7.86 4.77-0.15 6.66-2.73 6.6-7.35zM698.69 335.51c-5.88 5.73-3.3 12.39 4.68 13.86-1.74-5.13-3.21-9.51-4.68-13.86z"></path>
<path fill="#FFF" d="M689.15 201.77c-3-5.34-6.18-10.65-8.97-16.11-4.26-8.4-11.34-9.090-16.83-1.32-0.57 0.84-1.050 1.77-1.62 2.67-3.72 6.3-4.56 6.090-10.44 1.95-4.71-3.3-9.96-6.6-15.48-7.86-18.51-4.29-37.26-7.62-55.92-11.4-31.020-6.24-62.34-2.79-93.45-2.16-48.39 0.99-94.11 14.31-137.61 35.46-1.53 0.72-3.030 1.41-4.56 2.040-9.6 4.080-13.86 2.46-19.26-6.36-6.51-10.5-13.32-20.79-20.25-31.050-1.83-2.79-4.41-5.040-6.66-7.5-3.42-3.63-7.71-4.89-12-2.58-6.18 3.36-12.69 2.19-17.37-0.99-8.25-5.61-17.25-5.82-26.28-7.080-1.050-0.15-2.040-0.3-4.77-0.69 2.73-2.82 4.35-6.030 6.78-6.78 9.51-3 14.010-10.020 15.42-18.93 1.89-11.7 8.49-18.9 18.99-22.98 11.13-4.35 22.41-8.25 33.48-12.75 3.93-1.62 7.41-4.5 11.070-6.72 5.88-3.57 11.49-7.83 17.79-10.38 37.050-15.36 75.45-26.19 114.9-33.75 15.060-2.88 29.85-1.68 44.85-1.77 19.32-0.15 38.55-2.040 57.81-2.73 6.18-0.21 12.75 0.15 18.63 1.95 15.42 4.71 31.11 5.94 47.1 6.15 8.25 0.12 16.47 2.19 24.72 3.36 3.72 0.54 7.44 1.32 11.19 1.41 7.5 0.21 14.58 1.14 20.46 6.51 1.41 1.26 3.78 2.040 5.73 2.1 8.49 0.15 15.84 3.15 22.71 8.070 10.56 7.56 21.72 14.37 31.89 22.41 13.86 10.92 11.76 26.7-4.26 33.9-9.54 4.29-14.73 11.43-18.57 20.88-5.52 13.47-12.45 26.43-18.48 39.72-1.98 4.29-3.090 9.030-4.68 13.53-1.050 3.030-2.16 6.090-3.21 9.12-0.96 0.27-1.89 0.48-2.82 0.63z"></path>
<path fill="#FFF" d="M362.12 581c-1.62-11.070 2.73-20.73 8.7-29.85 4.2-6.45 8.88-8.19 15.57-4.68 12.75 6.72 27.33 6.93 40.29 12.33 9.030 3.78 19.53 4.080 27.12 11.61 1.95 1.95 6.15 2.4 9.18 2.19 5.19-0.42 9.030 0.99 11.79 5.34 0.78 1.2 1.77 2.31 2.73 3.45 13.8 16.83 12.48 36.090-2.82 52.11-5.1 5.31-9.96 8.67-17.46 6.93-0.99-0.21-2.1 0-3.15 0.21-18.84 4.14-35.1-1.77-50.52-12.060-7.29-4.89-14.91-9.51-22.92-12.96-13.44-5.88-18.36-16.26-18.51-29.97 0-1.53 0-3 0-4.68zM381.53 567.68c-6.93 4.77-7.080 8.91-3.66 13.44 0.69 0.9 2.1 2.16 2.73 1.95 1.14-0.42 2.88-1.83 2.79-2.73-0.21-3.87-1.050-7.71-1.83-12.63z"></path>
<path fill="#FFF" d="M675.68 584.48c-1.95 7.83-3.090 14.7-5.4 21.15-3.84 10.71-10.56 17.58-23.040 19.2-13.8 1.77-27.27 5.88-40.86 9.33-10.77 2.73-28.38-5.55-33.27-16.53-3.24-7.23-6.090-14.73-8.34-22.29-0.84-2.82-0.57-6.93 0.96-9.39 8.13-13.44 18.72-24.090 34.35-28.74 13.23-3.93 26.4-8.13 39.51-12.48 4.77-1.56 7.29-0.090 9.72 3.99 1.56 2.67 4.56 4.41 6.66 6.81 4.62 5.31 9.33 10.56 13.38 16.26 2.73 3.93 4.35 8.7 6.36 12.69z"></path>
<path fill="#FFF" d="M491.93 697.58c0-8.55-0.54-17.16 0.21-25.65 0.42-4.83 2.46-9.72 4.68-14.1 2.88-5.76 6.57-11.19 9.96-16.68 5.46-8.91 14.1-9.96 21.36-2.58 10.71 10.92 18.15 23.52 19.56 39.030 0.96 10.14 1.83 20.25 2.52 30.42 0.15 2.61-0.15 5.52-1.050 7.98-2.25 6.18-5.52 7.23-10.98 3.51-5.67-3.93-11.010-8.28-16.68-12.33-6.3-4.47-9.12-3.51-11.55 3.63-3.15 9.18-8.46 10.44-14.31 2.46-3.15-4.26-4.29-10.020-6.36-15.12 0.78-0.15 1.74-0.36 2.61-0.57z"></path>
</svg>
