<!-- Generated by IcoMoon.io -->
<svg version="1.1" xmlns="http://www.w3.org/2000/svg" width="1024" height="1024" viewBox="0 0 1024 1024">
<title></title>
<g id="icomoon-ignore">
</g>
<path fill="#FFF" d="M594.177 308.578c-20.985 3.909-42.366 10.097-52.695 15.258-8.994 4.494-8.834 4.075-5.069 12.919 7.968 18.725 10.6 67.848 4.753 88.657-1.4 4.985-2.544 9.363-2.544 9.737-0.004 0.373 6.57 0.677 14.604 0.677s26.464 0.452 40.953 1.001c40.571 1.54 68.473-5.309 85.67-21.024 16.733-15.29 22.097-25.636 20.221-38.971-0.579-4.094-1.515-13.894-2.084-21.767-1.668-23.147-6.718-32.609-21.574-40.413-20.508-10.777-46.6-12.703-82.229-6.071zM814.917 310.965c-14.938 4.176-33.358 13.819-44.966 23.533-8.713 7.297-12.206 8.313-30.29 8.87-25.557 0.778-34.326 9.672-25.368 25.727 12.409 22.257-27.719 68.036-68.561 78.211-8.72 2.172-98.046 2.672-109.089 0.615-2.786-0.523-5.933-0.742-6.987-0.491-4.683 1.115-5.017-1.197-1.468-10.132 7.062-17.766 7.572-21.050 7.506-47.86-0.090-34.264-4.435-54.37-14.525-67.206l-4.88-6.212-9.737 0.546c-5.358 0.298-16.632 1.181-25.054 1.956l-15.315 1.415 0.644 5.449c0.465 3.892 2.911 9.388 8.56 19.215 10.728 18.656 10.787 18.934 10.293 49.47l-0.415 25.731-4.295 13.119c-2.361 7.218-4.507 13.339-4.769 13.6-3.172 3.172-16.295 3.597-111.407 3.616l-97.658 0.019v-4.618c0-2.541 0.759-6.434 1.685-8.648 6.96-16.655 7.598-60.852 1.106-76.084-1.478-3.466-4.317-10.618-6.309-15.889-5.544-14.665-3.774-13.894-31.845-13.894h-23.916l-0.74 3.71c-1.44 7.196 0.49 17.12 4.258 21.917 4.683 5.962 6.368 24.325 4.383 47.687-2.849 33.453-10.77 51.55-22.574 51.55-3.036 0-5.832 0.834-7.692 2.286-1.753 1.38-4.666 2.296-7.317 2.303-13.963 0.040-15.965 2.669-8.925 11.706l4.066 5.219-2.345 3.843c-1.811 2.986-2.345 5.802-2.349 12.564l-0.004 8.713 5.599 0.665c3.081 0.366 8.88 0.19 12.889-0.39 17.839-2.581 21.267-1.515 31.127 9.672 8.030 9.109 7.202 9.046 15.804 1.14 12.203-11.218 12.17-11.212 53.14-11.988 45.022-0.85 46.222-0.69 53.257 7.169l5.387 6.012 17.437 0.883 3.1-6.326c4.602-9.387 7.379-9.96 48.25-9.96 43.699 0 54.677 2.586 67.237 15.854 6.754 7.137 11.794 8.363 17.132 4.191 5.217-4.085 6.842-5.678 8.263-8.113 2.136-3.657 44.76-2.036 64.48 2.443 8.056 1.835 8.2 1.934 13.394 9.208 2.886 4.042 5.455 7.35 5.708 7.35 0.255 0 5.962-1.544 12.697-3.441 23.35-6.558 28.969-3.578 38.104 20.174 2.636 6.862 6.667 17.295 8.949 23.197 5.184 13.361 13.019 24.648 21.992 31.703 5.132 4.033 8.075 7.555 11.454 13.719 7.598 13.844 19.055 11.169 26.885-6.276 5.743-12.799 5.75-12.772-5.305-19.905-16.959-10.943-23.13-21.738-26.728-46.745l-1.886-13.125 6.401-9.918c3.519-5.459 7.785-10.83 9.475-11.939 9.894-6.483 35.827 0.926 37.444 10.693 2.536 15.34-3.078 28.24-14.915 34.271-6.97 3.548-9.485 16.515-3.516 18.114 13.335 3.575 29.616-2.511 45.254-16.92 5.204-4.791 9.843-8.7 10.309-8.688 22.267 0.468 52.947 36.155 91.057 105.943 25.898 47.409 39.627 59.208 60.004 51.533 17.691-6.667 23.434-14.349 40.323-54.027 21.933-51.51 26.103-42.585-61.884-132.453-26.401-26.973-48.486-50.301-49.080-51.847-0.59-1.547-2.116-14.764-3.402-29.368-2.611-29.727-3.47-32.45-12.602-40.040l-4.609-3.831-0.745-13.175c-0.641-11.327-1.14-13.77-3.558-17.439-8.038-12.189 6.545-25.798 32.433-30.257 14.012-2.411 13.388-1.761 7.48-7.785-11.327-11.539-30.995-16.27-47.962-11.53zM425.218 334.431c-5.358 0.503-27.006 1.485-48.112 2.175-53.12 1.736-100.143 3.71-100.668 4.216-0.24 0.232 0.445 3.918 1.527 8.193 7.568 29.99 8.268 61.369 1.881 84.438l-1.926 6.96 189.596 0.565 1.145-4.291c11.664-43.706 8.188-75.694-10.66-98.141-4.144-4.937-12.639-6.005-32.782-4.108zM106.603 340.235c-18.641 12.189-23.029 58.003-8.945 93.451 9.809 24.691 12.419 25.767 42.265 17.396 6.584-1.844 16.115-3.866 21.192-4.491 5.069-0.624 10.931-1.596 13.019-2.161 2.502-0.674 6.793-0.501 12.598 0.515 10.594 1.852 8.605 4.116 14.198-16.158l4.7-17.027-0.016-51.988-4.942-8.184c-6.842-11.32-8.36-12.157-19.291-10.627-10.276 1.44-38.522 0.18-55.144-2.461-14.119-2.244-13.469-2.303-19.628 1.731zM778.478 391.776c21.617 10.793 26.28 39.533 9.163 56.473-22.114 21.892-59.233 6.237-59.334-25.024-0.090-25.518 27.454-42.788 50.167-31.445zM753.67 397.779c-15.987 5.135-23.547 27.444-13.944 41.12 15.895 22.622 50.317 12.222 50.143-15.15-0.117-18.516-18.46-31.667-36.204-25.973z"></path>
</svg>
