<!-- Generated by IcoMoon.io -->
<svg version="1.1" xmlns="http://www.w3.org/2000/svg" width="1024" height="1024" viewBox="0 0 1024 1024">
<title></title>
<g id="icomoon-ignore">
</g>
<path fill="#FFF" d="M522.735 69.009c-15.228 4.951-30.574 18.155-32.4 27.884-5.133 27.374 2.424 115.866 11.311 132.453 3.015 5.626 5.509 12.002 5.54 14.166 0.309 21.424 20.625 32.103 30.385 15.977 2.278-3.758 7.273-11.516 11.097-17.238s8.458-14.17 10.296-18.775c1.841-4.6 4.944-9.693 6.894-11.311 1.955-1.618 6.548-8.975 10.207-16.343 3.664-7.367 8.669-16.911 11.126-21.202 8.158-14.235 6.193-47.109-3.774-63.139-4.495-7.23-8.869-15.336-9.719-18.019-4.834-15.231-34.924-29.667-50.966-24.456zM363.13 100.251c-17.538 1.513-32.875 11.837-32.875 22.128 0 1.417-3.391 6.141-7.534 10.503-10.203 10.733-12.715 23.075-5.865 28.788 9.051 7.546 35.084 33.843 48.513 49.013 7.151 8.082 22.368 22.882 33.812 32.895l20.812 18.201 3.132-7.163c3.894-8.898 4.535-112.161 0.776-125.508-4.581-16.274-26.371-32.911-40.326-30.793-1.429 0.218-10.626 1.089-20.443 1.939zM710.014 103.944c-31.052 10.411-65.187 43.585-70.093 68.119-1.709 8.56-5.954 24.487-9.427 35.389-17.413 54.645-9.59 61.272 41.386 35.037 75.868-39.046 86.78-48.427 91.627-78.735 6.663-41.693-19.672-71.144-53.493-59.807zM217.988 154.56c-3.346 3.987-10.032 15.398-14.85 25.361-4.822 9.96-10.968 22.368-13.656 27.57-5.993 11.593-6.106 16.886-0.577 26.962 2.355 4.291 12.165 23.214 21.8 42.053s20.574 38.263 24.315 43.165c3.736 4.904 6.796 10.102 6.796 11.552s7.452 10.703 16.561 20.56c9.106 9.86 20.52 22.387 25.361 27.84 22.161 24.967 41.485 15.286 33.709-16.882-2.974-12.294-5.404-24.72-5.404-27.62 0-2.895-2.434-12.686-5.406-21.752-3.777-11.509-6.074-28.001-7.615-54.619-1.494-25.864-3.518-40.671-6.292-46.039-2.252-4.349-4.093-10.944-4.093-14.647 0-31.351-53.304-64.167-70.648-43.5zM807.555 245.259c-2.86 0.605-7.819 1.658-11.016 2.336-7.309 1.56-47.561 37.99-63.114 57.12-6.438 7.921-15.216 18.33-19.507 23.133-4.291 4.808-11.899 13.78-16.906 19.948-5.009 6.165-14.159 16.75-20.338 23.523-21.366 23.422-13.455 35.128 18.483 27.355 8.888-2.166 24.355-4.753 34.369-5.751s27.417-4.561 38.677-7.921c11.257-3.355 33.495-7.448 49.418-9.092 15.927-1.644 31.401-4.495 34.393-6.335 2.989-1.841 10.159-4.619 15.939-6.175 34.206-9.212 45.998-55.599 24.392-95.969-8.906-16.64-54.529-28.573-84.785-22.171zM115.665 253.923c-48.482 12.285-70.966 65.95-40.219 95.973 45.419 44.342 43.14 43.188 110.448 56.14 34.206 6.586 44.959-8.235 23.523-32.43-3.168-3.573-7.768-11.957-10.219-18.627s-6.036-12.734-7.972-13.476c-1.932-0.74-4.98-5.818-6.77-11.284-1.79-5.461-6.591-16.516-10.662-24.56-4.076-8.046-7.407-15.778-7.407-17.188 0-15.786-33.831-38.83-50.722-34.549zM869.983 423.016c-17.437 2.603-42.36 10.554-67.626 21.577-11.447 4.99-23.738 9.956-27.312 11.035-3.577 1.080-13.919 5.892-22.977 10.695-9.059 4.798-18.423 8.783-20.807 8.845-8.326 0.225-30.624 22.795-27.549 27.877 4.090 6.766 24.358 16.222 34.817 16.247 15.68 0.036 67.982 7.593 89.835 12.978 66.041 16.277 109.672 8.756 141.54-24.399 39.181-40.764-25.77-95.918-99.922-84.854zM68.387 464.991c-4.542 4.82-11.232 10.831-14.869 13.368-8.403 5.858-13.524 21.996-10.167 32.065 2.176 6.532 8.283 12.084 31.88 28.982 18.395 13.179 42.746 3.676 86.472-33.745 24.344-20.833 22.949-28.778-5.76-32.845-9.307-1.319-21.865-4.975-27.912-8.125-7.419-3.863-17.571-6.172-31.191-7.091l-20.196-1.366-8.261 8.759zM256.124 560.089c-7.156 2.166-21.786 6.277-32.517 9.142s-21.85 7.335-24.708 9.941c-2.86 2.606-8.606 5.584-12.766 6.617-40.901 10.157-98.525 58.689-115.579 97.351-9.865 22.353-4.189 109.246 7.132 109.246 22.048 0 107.401-66.496 122.188-95.193 3.755-7.287 15.022-25.282 25.038-39.984 10.011-14.702 20.546-30.473 23.411-35.047 5.184-8.295 12.125-17.564 24.997-33.41 7.036-8.654 16.336-25.212 14.858-26.455-8.407-7.053-14.637-7.484-32.051-2.209zM786.751 602.004c-14.92 1.833-17.382 8.56-10.192 27.811 2.139 5.724 6.088 18.6 8.778 28.609 2.687 10.015 8.807 26.754 13.594 37.198l8.704 18.985 23.973 10.277c40.359 17.296 51.029 14.242 60.386-17.272 11.786-39.695 5.14-65.836-19.73-77.612-8.264-3.915-19.871-10.593-25.787-14.841-7.862-5.646-15.602-8.4-28.74-10.222-9.891-1.371-19.153-2.81-20.586-3.19-1.429-0.386-6.11-0.27-10.401 0.258zM674.727 623.504c-3.81 4.207-5.112 11.909-6.711 39.582-1.089 18.895-2.603 37.868-3.36 42.162-6.227 35.219-1.287 71.548 11.665 85.836 5.45 6.012 28.489 55.935 28.489 61.731 0 2.142 2.479 7.050 5.509 10.904 3.032 3.85 7.539 12.497 10.006 19.208 7.979 21.647 43.446 33.546 68.451 22.966 33.495-14.178 41.736-94.959 13.476-132.118-6.328-8.322-13.309-19.441-15.513-24.713s-6.328-11.21-9.168-13.199-6.89-6.955-8.996-11.035c-10.983-21.235-73.386-98.132-84.44-104.045-3.532-1.888-5.844-1.221-9.412 2.719zM315.631 695.629c-11.619 9.583-34.226 27.745-50.241 40.362-21.876 17.233-30.356 25.641-34.096 33.812-2.738 5.981-7.51 14.006-10.597 17.837-16.059 19.893-12.212 112.949 4.94 119.468 28.343 10.776 115.545-55.293 121.279-91.888 0.959-6.122 4.2-18.439 7.192-27.366 8.369-24.942 3.722-90.983-7.203-102.389-9.059-9.453-6.469-10.296-31.27 10.159zM588.467 723.984c-10.422 2.013-33.754 47.807-44.715 87.757-3.029 11.028-7.924 24.796-10.885 30.6-7.798 15.286-5.595 29.185 10.195 64.218 18.016 39.972 28.697 50.246 46.429 44.653 4.054-1.28 14.958-3.018 24.234-3.867 20.221-1.848 23.112-4.367 32.586-28.376 13.364-33.877 10.671-60.094-10.765-104.9-4.904-10.25-10.746-24.789-12.978-32.309-2.235-7.527-5.584-16.113-7.44-19.084-1.857-2.974-4.765-10.087-6.46-15.81-5.404-18.237-8.455-24.72-11.468-24.358-1.615 0.196-5.548 0.857-8.735 1.476zM442.487 762.551c-4.456 3.745-9.613 11.971-11.983 19.103-2.286 6.89-7.050 16.444-10.59 21.238-3.535 4.794-6.426 9.781-6.426 11.090 0 1.302-7.082 16.473-15.734 33.709-25.938 51.646-23.451 82.708 8.18 102.215 16.463 10.157 23.83 8.224 34.774-9.111 3.507-5.564 7.721-10.94 9.357-11.95s5.486-7.254 8.56-13.874c3.070-6.62 8.508-16.135 12.088-21.139 9.474-13.261 8.975-48.087-1.214-84.538-3.999-14.309-8.903-32.157-10.904-39.67-4.152-15.587-5.361-16.121-16.109-7.072z"></path>
</svg>
