<!-- Generated by IcoMoon.io -->
<svg version="1.1" xmlns="http://www.w3.org/2000/svg" width="1024" height="1024" viewBox="0 0 1024 1024">
<title></title>
<g id="icomoon-ignore">
</g>
<path fill="#FFF" d="M113.462 202.799c-2.841 2.841-1.508 13.562 2.059 16.519 1.967 1.63 5.984 8.010 8.945 14.162 2.955 6.162 8.372 16.204 12.029 22.318s8.147 14.613 9.967 18.891c1.821 4.274 4.758 10.277 6.522 13.336 1.771 3.056 6.311 11.054 10.087 17.783s10.079 17.409 13.993 23.752c3.917 6.331 10.503 17.335 14.64 24.451 25.27 43.448 39.616 67.615 45.929 77.384 3.952 6.114 9.798 15.345 12.989 20.515 3.806 6.162 7.913 9.875 11.915 10.766 12.485 2.783 13.609 3.503 14.971 9.705 0.766 3.485 3.426 8.181 5.924 10.436 5.004 4.529 4.405 4.961 15.883-11.317 9.967-14.123 21.815-2.818 19.925 19.031-0.645 7.412 0.379 18.851 2.51 28.222 5.237 23.028 4.656 37.559-2.091 52.295-6.48 14.155-5.775 16.524 9.898 33.208 10.734 11.409 20.701 13.879 37.999 9.392 25.072-6.499 41.752 1.942 46.53 23.534 5.728 25.831 18.573 33.377 26.181 15.36 6.395-15.132 13.964-12.237 13.964 5.356 0 6.008 5.475 11.279 13.76 13.249 7.28 1.731 12.899-4.874 12.949-15.207 0.045-9.379 2.862-13.073 8.576-11.267 4.932 1.563 5.44 2.91 4.805 12.726-1.293 19.927 19.681 20.555 23.405 0.702 2.701-14.375 10.791-15.772 13.328-2.295 3.729 19.887 18.573 17.070 18.414-3.49-0.204-26.892 17.823-41.156 51.052-40.387 18.637 0.429 21.52-0.067 28.893-4.922 23.619-15.554 32.829-33.809 22.090-43.796-15.457-14.356-7.010-51.63 12.946-57.139 12.279-3.387 35.511 3.406 44.103 12.897 12.021 13.289 20.889 4.262 21.946-22.341 0.402-10.208 1.93-20.746 3.374-23.412l2.634-4.842 12.652 7.623c16.967 10.22 20.299 8.338 24.048-13.569 4.773-27.835 11.887-35.327 23.214-24.472 13.696 13.13 25.469 4.376 25.687-19.101 0.238-26.409 8.871-33.038 25.546-19.62 3.059 2.456 10.556 7.837 16.67 11.952 6.117 4.113 13.559 10.113 16.543 13.326 4.492 4.837 22.477 12.433 29.428 12.433 2.57 0 2.274-12.793-0.342-14.41-1.19-0.734-4.16-5.544-6.618-10.691s-8.605-15.856-13.683-23.802c-5.075-7.948-11.237-19.198-13.686-25.005-2.449-5.81-5.269-10.556-6.252-10.556-0.994 0-6.485-9.756-12.215-21.671s-16.826-32.879-24.658-46.581c-7.834-13.696-16.328-29.701-18.88-35.561-10.731-24.653-24.933-23.323-22.715 2.136 1.635 18.764-6.75 36.51-23.963 50.704-17.2 14.184-46.787 39.879-51.389 44.619-2.173 2.245-7.174 5.738-11.115 7.76s-9.66 5.579-12.716 7.901c-21.125 16.045-68.297 41.816-76.531 41.816-4.919 0-22.973-13.028-25.32-18.27-1.739-3.877-27.721-17.608-45.457-24.030-23.874-8.637-77.48-9.228-92.719-1.022-13.49 7.259-42.449 7.482-53.145 0.4-4.736-3.138-12.091-7.159-16.333-8.926s-17.741-12.838-29.971-24.583c-24.838-23.836-28.959-25.382-41.754-15.618-9.835 7.492-11.041 7.055-48.854-17.895-17.121-11.285-35.885-23.423-41.702-26.972-14.956-9.111-41.171-26.58-51.659-34.411-4.89-3.652-12.897-9.231-17.786-12.396-4.887-3.165-11.391-8.012-14.449-10.771-5.626-5.080-20.171-9.096-22.943-6.323zM589.372 500.615c13.485 3.609 15.653 27.401 3.697 40.626-14.15 15.66-32.338 19.329-44.203 8.905-24.785-21.758 5.574-58.886 40.506-49.531zM407.027 520.786c23.871 16.432 28.793 25.156 20.105 35.625-5.438 6.554-23.333-3.175-38.815-21.115-14.356-16.628-14.449-16.814-10.632-22.254 4.24-6.053 12.453-3.885 29.351 7.744zM510.507 554.603c11.558 4.391 12.098 25.365 0.789 30.859-11.743 5.703-17.68-0.379-17.441-17.868 0.188-13.631 5.036-17.407 16.643-12.991zM665.359 560.868c-4.601 7.765-4.76 9.302-2.329 22.537 2.51 13.673 2.404 14.428-2.711 20.004-2.92 3.188-7.569 9.573-10.325 14.187-7.378 12.353-15.66 15.841-36.698 15.454-34.297-0.625-45.401 16.14-32.551 49.144 3.674 9.427 1.447 10.858-14.251 9.181l-13.993-1.5-1.434 6.514c-0.784 3.58-0.384 9.273 0.898 12.644 3.061 8.052 1.409 10.201-7.792 10.201-6.499 0-7.799-0.893-8.945-6.114-5.589-25.612-27.645-36.284-27.645-13.378 0 3.485 2.004 10.248 4.45 15.045 8.479 16.617 5.11 22.222-13.336 22.222-13.834 0-17.786-2.491-17.786-11.23 0-20.364-5.656-23.065-20.714-9.888-15 13.116-19.294 11.205-19.294-8.61 0-16.325-4.82-17.054-19.019-2.862-15.782 15.779-18.734 14.38-21.445-10.166-7.38-66.9-9.819-70.773-38.212-60.657-17.942 6.395-45.505-9.374-62.090-35.508-8.836-13.924-11.979-13.927-19.124-0.008-3.294 6.408-8.804 12.989-13.036 15.557-10.392 6.311-30.388 19.62-46.172 30.74-13.264 9.342-19.773 11.404-64.787 20.55-14.918 3.029-15.66 16.151-2.086 36.748 14.070 21.353 16.757 25.71 29.356 47.556 7.050 12.223 16.373 27.727 20.728 34.453 4.346 6.721 9.744 16.231 12.006 21.12 11.096 24.085 26.062 22.782 26.062-2.285 0-8.541 3.522-11.934 14.194-13.67 5.939-0.965 9.029-3.153 12.334-8.762 4.51-7.651 16.4-16.373 22.368-16.41 11.044-0.069 20.649-5.221 27.284-14.64 13.105-18.597 34.694-19.803 44.044-2.468 3.17 5.879 8.672 12.8 12.22 15.398 3.56 2.597 11.423 10.299 17.476 17.102 30.536 34.35 36.443 36.468 96.577 34.511 60.473-1.964 63.118-3.074 99.941-42.052 6.888-7.286 16.37-16.787 21.083-21.117 10.153-9.318 16.993-21.795 16.993-30.971 0-19.575 8.643-24.382 45.304-25.211l25.553-0.58 7.36 6.976c4.046 3.838 10.471 8.539 14.271 10.458 3.8 1.908 8.174 6.522 9.719 10.248 2.937 7.084 2.934 7.122-5.839 36.483-6.509 21.815 7.821 27.282 22.599 8.632 20.078-25.339 37.711-26.139 34.94-1.598-1.672 14.852 6.043 17.958 17.044 6.864 4.386-4.426 14.484-13.686 22.43-20.579 62.101-53.845 69.59-67.486 37.066-67.486-21.353 0-32.030-26.253-20.349-50.010 11.054-22.474-3.734-27.438-26.116-8.764-3.334 2.783-9.337 5.767-13.336 6.631s-9.93 3.451-13.177 5.743c-14.974 10.582-44.111-4.562-44.111-22.924-0.003-4.508 0.92-8.769 2.046-9.464 3.185-1.972 13.192-20.807 11.796-22.204-2.433-2.431-15.631-1.203-23.804 2.21-11.982 5.006-35.516-1.808-40.888-11.828-2.317-4.328-17.158-20.52-18.801-20.52-0.575 0-3.26 3.753-5.974 8.335zM475.893 557.534c8.68 11.014 4.463 28.904-7.286 30.909-11.009 1.89-14.839-2.168-13.909-14.728 0.883-11.855 15.695-23.171 21.194-16.191z"></path>
</svg>
