<!-- Generated by IcoMoon.io -->
<svg version="1.1" xmlns="http://www.w3.org/2000/svg" width="512" height="512" viewBox="0 0 512 512">
<title></title>
<g id="icomoon-ignore">
</g>
<path fill="#FFF" d="M309.406 0.93c-1.587 0.633-3.296 1.521-3.796 1.972-0.502 0.452-1.151 0.821-1.442 0.821-0.293 0.002-1.531 1.030-2.75 2.287-1.219 1.258-2.778 2.462-3.463 2.676s-1.375 0.549-1.534 0.744c-1.962 2.424-11.61 8.098-15.25 8.968-0.928 0.222-2.505 1.297-3.503 2.388-1 1.091-2 1.984-2.222 1.984s-1.372 0.616-2.557 1.369c-8.777 5.582-39.993 3.468-47.978-3.253-0.9-0.758-2.393-1.692-3.321-2.075-1.579-0.654-6.548-7.291-6.548-8.745 0-0.33-0.593-0.825-1.319-1.101s-1.829-1.5-2.453-2.719c-4.166-8.139-15.928-8.286-22.661-0.28-4.888 5.814-7.62 9.305-7.62 9.741 0 0.252-0.909 1.316-2.022 2.365-1.112 1.049-2.179 2.534-2.371 3.302-0.194 0.768-0.554 1.395-0.802 1.395-1.605 0-8.425 12.174-9.497 16.956-1.047 4.66-6.781 9.076-12.84 9.884-12.815 1.711-16.167 3.076-21.95 8.938l-3.138 3.182 0.382 12.409c0.31 10.047 0.641 13.507 1.74 18.18 3.042 12.937 3.279 24.275 0.645 31.024-0.774 1.983-1.73 4.645-2.127 5.914-1.891 6.064-2.609 7.631-4.252 9.272-8.526 8.505-10.6 15.617-7.817 26.8 4.108 16.512 3.627 30.803-1.424 42.422-0.689 1.587-1.867 4.704-2.613 6.926-0.748 2.222-1.967 4.945-2.71 6.050s-1.35 2.339-1.35 2.742c0 0.403-0.228 0.732-0.507 0.732-0.28 0-0.835 0.79-1.236 1.755s-1.173 2.069-1.719 2.453c-0.545 0.383-1.162 1.237-1.37 1.894-0.208 0.66-0.829 1.698-1.382 2.309-0.552 0.612-1.722 2.216-2.599 3.566s-1.884 2.453-2.239 2.453c-0.353 0-2.269 1.624-4.258 3.607-3.606 3.597-7.483 5.627-10.749 5.627-2.906 0-10.544 3.44-11.537 5.195-1.199 2.123-5.129 10.92-5.931 13.275-0.486 1.428-1.166 5.844-1.512 9.812-0.345 3.968-1.131 11.288-1.748 16.267-1.255 10.163-1.439 17.815-0.47 19.699 1.381 2.688 3.492 4.423 4.635 3.811 1.020-0.545 5.112-0.885 27.039-2.233 9.451-0.582 12.275-1.050 16.161-2.68 2.967-1.243 7.656-3.748 8.702-4.646 0.502-0.43 1.431-0.782 2.066-0.782 2.167 0 7.291-4.133 7.871-6.349 0.987-3.765 0.161-13.69-1.537-18.469-3.63-10.219-3.947-12.686-1.803-14.089 0.795-0.521 2.251-2.373 3.235-4.115 1.262-2.238 2.717-3.786 4.953-5.269 1.74-1.156 3.786-3.034 4.545-4.176 4.126-6.202 20.952-9.894 30.494-6.69 2.365 0.794 4.791 1.442 5.391 1.442 2.569 0 11.826 8.682 13.385 12.553 0.416 1.032 0.929 1.876 1.141 1.876 2.079 0 5.044 12.769 4.398 18.938-1.194 11.382-1.518 12.81-4.448 19.553-0.577 1.33-1.336 3.798-1.684 5.483-0.349 1.685-1.040 3.384-1.537 3.774s-1.618 1.344-2.49 2.123c-0.873 0.778-2.44 1.856-3.48 2.394-3.351 1.733-3.89 2.849-3.012 6.233 0.418 1.613 0.76 3.51 0.76 4.215s0.804 3.31 1.785 5.791c0.983 2.48 2.25 5.678 2.816 7.106 0.567 1.428 1.881 4.382 2.919 6.564 1.241 2.603 2.153 5.733 2.655 9.104 0.441 2.978 1.498 6.812 2.511 9.119 1.727 3.935 1.756 4.176 2.566 20.702 1.063 21.675 0.775 24.014-4.054 33.090-0.446 0.839-0.971 2.788-1.166 4.329-0.472 3.737-4.754 12.78-7.715 16.291-3.284 3.894-4.799 10.773-3.226 14.641 3.351 8.236 6.505 13.486 10.65 17.729 4.002 4.095 9.308 12.426 9.308 14.615 0 2.493 7.7 11.382 9.859 11.382 0.978 0 9.511-9.075 10.446-11.109 0.545-1.19 1.157-3.788 1.358-5.772 0.613-6.051 2.403-10.783 5.183-13.709 1.356-1.428 2.656-3.247 2.887-4.040 0.232-0.794 0.613-1.703 0.849-2.021 0.233-0.317 0.089-2.135-0.323-4.040-0.411-1.904-0.764-4.128-0.785-4.942s-1.095-3.232-2.387-5.375c-2.819-4.673-3.365-7.231-3.965-18.541-0.495-9.312-0.398-9.933 4.020-25.972 1.632-5.925 3.333-14.966 3.748-19.912 0.755-9.028 1.837-12.444 4.959-15.65 1.553-1.593 2.822-2.962 2.822-3.043s0.511-2.538 1.136-5.462c1.205-5.634 1.22-5.171-0.635-20.288-0.569-4.639-0.983-5.973-2.695-8.658-1.114-1.746-2.233-3.954-2.489-4.906s-0.898-3.16-1.427-4.906c-3.092-10.177-1.367-30.385 3.424-40.113 1.407-2.856 2.964-6.15 3.458-7.317 0.631-1.486 1.732-2.593 3.672-3.69 3.023-1.709 9.523-6.022 9.985-6.625 2.23-2.912 15.373-3.195 20.498-0.44 1.851 0.993 6.728 6.757 8.649 10.219 0.635 1.144 1.741 2.99 2.461 4.101s1.579 3.059 1.912 4.329c0.876 3.337 4.913 14.267 7.209 19.517 1.085 2.48 2.236 6.166 2.56 8.188 0.323 2.024 1.469 5.448 2.545 7.611 2.923 5.87 4.613 24.674 2.774 30.874-0.313 1.053-1.012 4.512-1.553 7.687-0.539 3.174-1.495 7.070-2.121 8.658-3.805 9.637-5.154 14.937-4.986 19.599l0.166 4.606 4.906 3.736c2.699 2.055 5.411 4.401 6.029 5.212 0.618 0.813 2.217 2.517 3.554 3.786 1.355 1.287 3.565 4.488 4.991 7.231 2.392 4.601 7.658 10.855 9.848 11.695 0.979 0.377 2.707 8.959 2.705 13.448-0.002 1.616 0.291 5.118 0.651 7.781 1.124 8.357-0.255 19.503-2.762 22.316-1.065 1.195-2.716 3.255-3.668 4.58l-1.733 2.409 1.446 1.139c0.796 0.625 1.447 1.375 1.447 1.666s1.025 1.291 2.276 2.225c2.134 1.591 4.757 6.137 6.962 12.065 0.719 1.928 3.433 5.146 9.952 11.795 2.461 2.51 4.473 4.716 4.473 4.904 0 2.045 8.296 10.193 11.577 11.372 3.543 1.273 7.995-1.495 8.033-4.993 0.023-2.070 2.344-8.178 3.51-9.233 0.616-0.557 1.122-1.377 1.122-1.82s0.372-1.524 0.827-2.404c0.455-0.878 1.599-5.712 2.544-10.74 1.198-6.377 1.991-9.296 2.625-9.651 5.043-2.822 5.368-15.713 0.498-19.777-1.032-0.861-1.876-1.82-1.876-2.13 0-0.784-2.632-4.314-5.526-7.414-1.334-1.428-2.694-3.506-3.022-4.618-0.329-1.111-1.040-3.579-1.582-5.483s-1.743-4.568-2.671-5.919c-1.066-1.551-1.912-3.781-2.297-6.060-0.337-1.983-1.362-5.767-2.28-8.413-1.063-3.065-1.669-5.971-1.669-8.015 0-1.764-0.306-5.51-0.682-8.323-0.524-3.929-0.524-6.486 0-11.031 2.128-18.501 1.548-29.343-1.699-31.744-1.482-1.096-7.432-10.733-7.432-12.035 0-0.262-0.741-1.33-1.646-2.373-2.33-2.683-2.707-3.62-3.55-8.822-0.805-4.968-2.49-8.929-5.085-11.954-4.469-5.212-4.212-3.395-4.33-30.596-0.12-27.729-0.212-27.077 4.29-30.11 2.56-1.723 6.282-5.701 6.282-6.711 0-0.609 5.952-3.448 7.272-3.469 0.603-0.009 2.914-0.521 5.137-1.137 10.548-2.926 25.684 0.388 25.684 5.625 0 0.576 7.961 9.539 8.76 9.862 0.262 0.107 0.474 0.541 0.474 0.966 0 0.425 1.149 1.767 2.554 2.983l2.554 2.209 0.675 16.449 0.673 16.449 2.111 1.869c1.161 1.029 2.741 2.042 3.513 2.253s3.167 1.384 5.322 2.604 4.151 2.219 4.438 2.219c0.287 0 1.701 0.522 3.144 1.161 3.524 1.558 7.303 2.229 16.534 2.933 7.296 0.557 15.171 2.447 16.164 3.88 1.043 1.503 3.958 1.903 7.134 0.981l3.215-0.935-0.759-2.149c-0.416-1.18-0.935-4.608-1.151-7.618-0.216-3.007-1.005-7.807-1.752-10.663-0.746-2.856-1.62-6.623-1.943-8.368-0.322-1.746-1.019-5.123-1.548-7.503-0.713-3.204-0.994-7.655-1.082-17.133-0.154-16.715-0.096-16.609-9.997-17.449-6.12-0.518-6.389-0.679-9.796-5.936-1.38-2.127-2.767-4.027-3.082-4.222-0.316-0.195-1.464-1.748-2.554-3.448-1.087-1.701-2.753-3.667-3.701-4.366-1.849-1.367-5.43-6.254-6.325-8.635-0.301-0.798-1.575-2.752-2.832-4.34-1.255-1.589-2.626-3.532-3.046-4.319-1.118-2.098-5.377-6.915-6.111-6.915-4.265-0.001-5.431-30.431-1.638-42.71 2.115-6.85 2.498-9.478 1.489-10.254-1.099-0.843-5.265-4.569-8.096-7.241-1.074-1.012-2.613-2.834-3.423-4.046s-2.333-3.145-3.388-4.297c-1.053-1.151-1.916-2.431-1.916-2.845s-0.248-0.753-0.553-0.753c-0.305 0-1.243-1.178-2.085-2.614l-1.534-2.617-0.134-24.654c-0.149-27.402-0.248-26.501 3.966-36.148l1.994-4.564-1.948-2.074c-3.31-3.521-4.324-4.819-4.324-5.534 0-1.98-3.029-3.065-15.295-5.48-4.152-0.818-7.357-2.759-8.296-5.022-0.378-0.912-1.654-2.257-2.834-2.989-1.18-0.73-3.423-3.007-4.985-5.060-1.561-2.053-3.59-4.268-4.51-4.922-0.918-0.654-2.287-2.584-3.042-4.291-0.755-1.706-1.998-3.949-2.764-4.985-0.764-1.036-1.553-2.337-1.748-2.893-0.196-0.555-0.723-1.010-1.171-1.010-2.002 0-3.663-3.585-4.103-8.861-0.598-7.17-1.928-8.383-10.123-9.241-1.778-0.186-3.507 0.091-5.483 0.878zM307.235 75.761c0.969 1.849 2.206 5.033 2.748 7.075 0.543 2.040 1.232 4.537 1.533 5.545l0.548 1.834 2.421-1.099c1.334-0.605 3.215-1.106 4.183-1.112 1.86-0.014 6.608-6.614 6.608-9.187 0-2.144 3.479-4.799 4.993-3.809 0.723 0.475 1.649 0.862 2.058 0.862 1.050 0.001 5.351 3.73 10.193 8.836l2.526 2.663 0.382 13.729c0.209 7.55 0.571 14.037 0.802 14.412 0.232 0.376 0.673 3.362 0.981 6.637s0.934 7.903 1.392 10.284c1.065 5.531 2.524 14.464 2.968 18.18 0.295 2.458 1.099 5.969 2.348 10.244 0.178 0.613-0.016 1.010-0.496 1.010-0.435 0-3.049 2.208-5.808 4.905-2.76 2.698-5.2 4.905-5.422 4.905s-1.334 0.643-2.467 1.43c-3.151 2.184-10.516 3.214-12.185 1.703-1.813-1.641-2.601-3.49-3.638-8.523-0.932-4.538-2.082-6.744-5.12-9.826-0.897-0.911-2.113-2.599-2.703-3.751-0.591-1.155-2.074-3.043-3.297-4.199-1.222-1.156-2.937-3.363-3.808-4.905-3.642-6.444-3.738-6.515-8.889-6.538l-4.125-0.018-0.636 3.655c-0.351 2.010-0.636 9.124-0.636 15.809 0 22.275-2.076 27.126-11.109 25.96-5.314-0.685-10.824-4.362-10.824-7.221 0-1.584-1.586-1.75-5.448-0.571l-3.961 1.208-2.496-1.364c-1.372-0.749-2.623-1.697-2.781-2.103-0.156-0.409-0.596-0.742-0.978-0.742-1.473 0-2.799-2.028-4.024-6.153-2.284-7.694-5.893-9.897-11.767-7.185-3.596 1.66-7.214 7.695-7.214 12.031 0 3.284-5.172 10.542-7.511 10.542-0.554 0-1.915 0.38-3.027 0.844-1.829 0.764-2.101 0.752-2.881-0.144-2.218-2.545-2.425-3.774-2.743-16.283-0.337-13.209-1.521-17.892-4.526-17.892-3.932 0-14.716 11.209-17.769 18.47-1.599 3.799-2.883 5.772-3.757 5.772-0.266 0-1.012 0.453-1.66 1.009-3.669 3.141-16.678 3.252-19.48 0.165-1.452-1.599-4.174-6.736-4.174-7.874 0-0.393-0.614-1.447-1.368-2.345-0.785-0.938-1.757-3.355-2.286-5.685l-0.918-4.054 2.040-8.643c1.121-4.754 2.3-9.813 2.619-11.242 0.573-2.564 1.469-24.534 1.584-38.796l0.059-7.338 1.987-1.987c4.522-4.523 13.398-3.005 15.822 2.704 0.43 1.013 1.766 2.91 2.971 4.216 1.203 1.307 2.928 3.515 3.829 4.906 0.904 1.392 1.804 2.661 2.001 2.819 0.199 0.159 0.544 0.876 0.768 1.593 0.56 1.795 2.905 2.867 6.674 3.052 6.13 0.3 6.709 0.151 7.72-1.977 0.51-1.072 1.547-2.356 2.306-2.854l1.381-0.904 0.655 3.332c0.714 3.63 2.131 5.919 5.254 8.487 1.112 0.915 2.156 1.846 2.322 2.070 0.442 0.599 4.363 3.208 6.415 4.269 1.728 0.894 1.827 0.874 3.496-0.715 2.424-2.306 2.642-2.865 3.348-8.542 0.593-4.767 2.557-11.79 3.476-12.427 1.079-0.749 4.030-6.403 4.881-9.359 1.551-5.382 2.095-5.769 7.228-5.139 6.29 0.772 12.601 0.103 14.738-1.563 2.019-1.573 5.456-5.758 5.48-6.674 0.096-3.535 2.373 5.385 3.741 14.654 1.026 6.959 2.727 13.486 3.932 15.086 1.815 2.414 13.087-1.413 13.087-4.442 0-0.722 1.647-4.754 3.526-8.623 0.615-1.269 2.014-3.423 3.11-4.786 1.096-1.362 2.295-3.57 2.663-4.906 2.308-8.338 3.269-8.871 6.135-3.403zM99.579 267.185c4.246 2.196 5.472 10.022 2.196 14.024-1.034 1.264-2.15 2.755-2.479 3.313-0.462 0.782-1.588 1.075-4.906 1.274l-4.307 0.259-2.166-2.964c-4.111-5.63-4.162-5.854-2.48-10.584 0.813-2.284 2.025-4.608 2.692-5.163 1.579-1.312 9.020-1.416 11.449-0.159zM420.933 267.632c2.827 3.604 2.704 11.034-0.28 16.856l-0.873 1.704-1.365-1.704c-0.75-0.938-1.365-1.894-1.366-2.127-0.002-0.231-1.171-1.498-2.601-2.815-3.113-2.87-3.144-3.173-0.636-6.459 1.079-1.414 2.287-3.186 2.683-3.94 1.199-2.274 3.284-2.986 4.437-1.515zM208.464 324.413c4.856 1.176 7.207 9.226 3.665 12.55-2.322 2.178-7.155 3.8-8.203 2.753-0.364-0.364-1.009-0.661-1.435-0.661-0.788 0-3.472-1.711-5.726-3.647-2.264-1.948 1.605-9.646 5.576-11.098 1.977-0.723 2.77-0.71 6.123 0.103zM330.15 366.311c1.636 2.336-0.577 3.809-3.845 2.561-1.38-0.526-2.998-0.958-3.596-0.958-1.584 0-0.88-0.462 2.63-1.724 3.904-1.405 3.738-1.409 4.811 0.122zM201.696 449.287c2.69 0.007 5.164 1.967 7.663 6.065 1.495 2.452 1.358 2.965-1.258 4.697-5.218 3.453-14.528 1.224-13.577-3.251 0.168-0.794 0.477-2.741 0.687-4.329 0.414-3.149 1.035-3.919 2.801-3.479 0.635 0.159 2.292 0.293 3.684 0.297zM347.397 465.382l1.63 1.075-1.591 1.25c-1.307 1.029-2.056 1.188-4.226 0.894-6.974-0.938-8.452-2.663-3.072-3.584 4.902-0.839 5.473-0.811 7.258 0.365z"></path>
</svg>
