<!-- Generated by IcoMoon.io -->
<svg version="1.1" xmlns="http://www.w3.org/2000/svg" width="100" height="100" viewBox="0 0 32 32">
<title>image2vector</title>
<path fill="#FFF" d="M15.846 4.8c0 0.084-0.029 0.088-0.614 0.088-0.516 0-0.614 0.010-0.614 0.066 0 0.051-0.056 0.066-0.241 0.066-0.212 0-0.241 0.011-0.241 0.088 0 0.079-0.029 0.088-0.307 0.088s-0.307 0.008-0.307 0.088c0 0.079-0.029 0.088-0.307 0.088-0.244 0-0.307 0.014-0.307 0.066 0 0.046-0.046 0.066-0.153 0.066-0.124 0-0.153 0.017-0.153 0.088s-0.029 0.088-0.153 0.088c-0.107 0-0.153 0.020-0.153 0.066s-0.046 0.066-0.153 0.066c-0.124 0-0.153 0.017-0.153 0.088 0 0.058-0.029 0.088-0.088 0.088-0.049 0-0.088 0.029-0.088 0.066 0 0.046-0.046 0.066-0.153 0.066-0.124 0-0.153 0.017-0.153 0.088 0 0.049-0.029 0.088-0.066 0.088s-0.066 0.030-0.066 0.066c0 0.037-0.039 0.066-0.088 0.066-0.058 0-0.088 0.029-0.088 0.088 0 0.049-0.029 0.088-0.066 0.088s-0.066 0.030-0.066 0.066c0 0.040-0.041 0.066-0.106 0.066-0.084 0-0.101 0.018-0.083 0.088 0.016 0.061 0.001 0.088-0.048 0.088-0.039 0-0.071 0.030-0.071 0.066s-0.039 0.066-0.088 0.066c-0.058 0-0.088 0.029-0.088 0.088s-0.029 0.088-0.088 0.088c-0.049 0-0.088 0.029-0.088 0.066s-0.030 0.066-0.066 0.066c-0.046 0-0.066 0.046-0.066 0.153 0 0.124-0.017 0.153-0.088 0.153-0.058 0-0.088 0.029-0.088 0.088 0 0.049-0.029 0.088-0.066 0.088s-0.066 0.030-0.066 0.066c0 0.037-0.039 0.066-0.088 0.066-0.080 0-0.088 0.029-0.088 0.329 0 0.263-0.013 0.329-0.066 0.329-0.046 0-0.066 0.046-0.066 0.153 0 0.124-0.017 0.153-0.088 0.153-0.076 0-0.088 0.029-0.088 0.219 0 0.166-0.016 0.219-0.066 0.219s-0.066 0.056-0.066 0.241c0 0.212-0.011 0.241-0.088 0.241-0.083 0-0.088 0.029-0.088 0.548 0 0.458-0.011 0.548-0.066 0.548s-0.066 0.080-0.066 0.46 0.011 0.46 0.066 0.46c0.055 0 0.066 0.088 0.066 0.526v0.526h-0.307c-0.278 0-0.307 0.008-0.307 0.088 0 0.071-0.029 0.088-0.153 0.088s-0.153-0.017-0.153-0.088c0-0.049-0.029-0.088-0.066-0.088s-0.066 0.039-0.066 0.088c0 0.073-0.029 0.088-0.175 0.088-0.127 0-0.175 0.018-0.175 0.066 0 0.036-0.030 0.066-0.066 0.066-0.046 0-0.066 0.046-0.066 0.153 0 0.124-0.017 0.153-0.088 0.153-0.081 0-0.088 0.029-0.088 0.395s0.006 0.394 0.088 0.394c0.058 0 0.088 0.029 0.088 0.088 0 0.049 0.029 0.088 0.066 0.088s0.066 0.030 0.066 0.066c0 0.047 0.049 0.066 0.175 0.066 0.146 0 0.175 0.015 0.175 0.088 0 0.076 0.029 0.088 0.219 0.088 0.166 0 0.219 0.016 0.219 0.066 0 0.037 0.039 0.066 0.088 0.066 0.081 0 0.088 0.029 0.088 0.395 0 0.321 0.012 0.395 0.066 0.395 0.036 0 0.066 0.030 0.066 0.066s-0.030 0.066-0.066 0.066c-0.046 0-0.066 0.046-0.066 0.153v0.153h-0.241c-0.185 0-0.241-0.015-0.241-0.066 0-0.036-0.030-0.066-0.066-0.066-0.059 0-0.085-0.052-0.071-0.143 0.003-0.018-0.034-0.033-0.082-0.033-0.058 0-0.088 0.029-0.088 0.088s-0.029 0.088-0.088 0.088c-0.049 0-0.088 0.029-0.088 0.066s-0.030 0.066-0.066 0.066c-0.055 0-0.066 0.1-0.066 0.636s0.010 0.636 0.066 0.636c0.036 0 0.066 0.030 0.066 0.066 0 0.047 0.049 0.066 0.175 0.066s0.175-0.018 0.175-0.066c0-0.036 0.030-0.066 0.066-0.066s0.066-0.039 0.066-0.088c0-0.071 0.029-0.088 0.153-0.088s0.153 0.017 0.153 0.088c0 0.058 0.029 0.088 0.088 0.088 0.083 0 0.088 0.029 0.088 0.614 0 0.516 0.010 0.614 0.066 0.614 0.036 0 0.066 0.030 0.066 0.066s0.038 0.066 0.085 0.066c0.054 0 0.090 0.036 0.1 0.099 0.008 0.054 0.039 0.094 0.069 0.088s0.054 0.020 0.054 0.057c0 0.040-0.021 0.056-0.051 0.037-0.031-0.019-0.039-0.012-0.019 0.019 0.017 0.028 0.079 0.051 0.138 0.051 0.093 0 0.107 0.020 0.107 0.153 0 0.146 0.007 0.153 0.153 0.153 0.107 0 0.153 0.020 0.153 0.066 0 0.036 0.030 0.066 0.066 0.066s0.066 0.039 0.066 0.088c0 0.058 0.029 0.088 0.088 0.088 0.079 0 0.088 0.029 0.088 0.307s-0.008 0.307-0.088 0.307c-0.071 0-0.088 0.029-0.088 0.153 0 0.107-0.020 0.153-0.066 0.153-0.036 0-0.066 0.030-0.066 0.066s-0.039 0.066-0.088 0.066c-0.079 0-0.088 0.029-0.088 0.307 0 0.244-0.014 0.307-0.066 0.307-0.036 0-0.066 0.039-0.066 0.088 0 0.058-0.029 0.088-0.088 0.088-0.071 0-0.088 0.029-0.088 0.153 0 0.126 0.016 0.153 0.090 0.153 0.060 0 0.088 0.026 0.083 0.077-0.020 0.2-0 0.23 0.156 0.23h0.153v0.241c0 0.212-0.011 0.241-0.088 0.241-0.071 0-0.088 0.029-0.088 0.153 0 0.107-0.020 0.153-0.066 0.153-0.036 0-0.066 0.030-0.066 0.066s-0.039 0.066-0.088 0.066c-0.058 0-0.088 0.029-0.088 0.088 0 0.049-0.029 0.088-0.066 0.088s-0.066 0.030-0.066 0.066c0 0.037-0.039 0.066-0.088 0.066-0.058 0-0.088 0.029-0.088 0.088 0 0.071-0.029 0.088-0.153 0.088-0.107 0-0.153 0.020-0.153 0.066 0 0.036-0.030 0.066-0.066 0.066-0.046 0-0.066 0.046-0.066 0.153 0 0.146 0.007 0.153 0.153 0.153 0.107 0 0.153-0.020 0.153-0.066 0-0.050 0.054-0.066 0.219-0.066 0.19 0 0.219-0.012 0.219-0.088 0-0.071 0.029-0.088 0.153-0.088 0.107 0 0.153-0.020 0.153-0.066 0-0.037 0.039-0.066 0.088-0.066 0.058 0 0.088-0.029 0.088-0.088 0-0.071 0.029-0.088 0.153-0.088 0.107 0 0.153-0.020 0.153-0.066 0-0.050 0.054-0.066 0.219-0.066 0.19 0 0.219-0.012 0.219-0.088 0-0.058 0.029-0.088 0.088-0.088 0.049 0 0.088-0.029 0.088-0.066s0.039-0.066 0.088-0.066c0.058 0 0.088-0.029 0.088-0.088 0-0.049 0.029-0.088 0.066-0.088s0.066-0.030 0.066-0.066c0-0.036-0.030-0.066-0.066-0.066-0.046 0-0.066-0.046-0.066-0.153 0-0.124-0.017-0.153-0.088-0.153-0.058 0-0.088-0.029-0.088-0.088s-0.029-0.088-0.088-0.088c-0.071 0-0.088-0.029-0.088-0.153s0.017-0.153 0.088-0.153c0.058 0 0.088-0.029 0.088-0.088s0.029-0.088 0.088-0.088c0.049 0 0.088-0.029 0.088-0.066s0.030-0.066 0.066-0.066c0.036 0 0.066-0.039 0.066-0.088 0-0.058 0.029-0.088 0.088-0.088 0.049 0 0.088-0.029 0.088-0.066s0.030-0.066 0.066-0.066c0.037 0 0.066-0.039 0.066-0.088 0-0.058 0.029-0.088 0.088-0.088 0.049 0 0.088-0.029 0.088-0.066s0.030-0.066 0.066-0.066c0.036 0 0.066 0.030 0.066 0.066 0 0.046 0.046 0.066 0.153 0.066 0.124 0 0.153 0.017 0.153 0.088 0 0.058 0.029 0.088 0.088 0.088 0.049 0 0.088 0.029 0.088 0.066s0.030 0.066 0.066 0.066c0.046 0 0.066 0.046 0.066 0.153s-0.020 0.153-0.066 0.153c-0.047 0-0.066 0.049-0.066 0.175 0 0.146-0.015 0.175-0.088 0.175-0.071 0-0.088 0.029-0.088 0.153 0 0.107-0.020 0.153-0.066 0.153s-0.066 0.046-0.066 0.153c0 0.124-0.017 0.153-0.088 0.153-0.049 0-0.088 0.029-0.088 0.066s-0.030 0.066-0.066 0.066c-0.050 0-0.066 0.056-0.066 0.241s0.015 0.241 0.066 0.241c0.036 0 0.066 0.030 0.066 0.066s0.039 0.066 0.088 0.066c0.058 0 0.088 0.029 0.088 0.088 0 0.049 0.029 0.088 0.066 0.088s0.066 0.030 0.066 0.066c0 0.036 0.039 0.066 0.088 0.066 0.058 0 0.088 0.029 0.088 0.088 0 0.049 0.029 0.088 0.066 0.088s0.066 0.030 0.066 0.066c0 0.037 0.039 0.066 0.088 0.066 0.058 0 0.088 0.029 0.088 0.088 0 0.049 0.029 0.088 0.066 0.088s0.066 0.030 0.066 0.066c0 0.036-0.030 0.066-0.066 0.066-0.047 0-0.066 0.049-0.066 0.175 0 0.146-0.015 0.175-0.088 0.175-0.049 0-0.088 0.029-0.088 0.066s-0.030 0.066-0.066 0.066c-0.037 0-0.066 0.039-0.066 0.088 0 0.058-0.029 0.088-0.088 0.088-0.071 0-0.088 0.029-0.088 0.153 0 0.107-0.020 0.153-0.066 0.153s-0.066 0.046-0.066 0.153c0 0.124-0.017 0.153-0.088 0.153s-0.088 0.029-0.088 0.153c0 0.107-0.020 0.153-0.066 0.153-0.036 0-0.066 0.029-0.066 0.066s-0.039 0.066-0.088 0.066c-0.071 0-0.088 0.029-0.088 0.153s-0.017 0.153-0.086 0.153c-0.056 0-0.078 0.022-0.063 0.062 0.014 0.037-0.012 0.073-0.067 0.091-0.050 0.016-0.091 0.057-0.091 0.092s-0.030 0.063-0.066 0.063c-0.037 0-0.066 0.039-0.066 0.088 0 0.058-0.029 0.088-0.088 0.088-0.049 0-0.088 0.029-0.088 0.066s-0.039 0.066-0.088 0.066c-0.071 0-0.088 0.029-0.088 0.153 0 0.15 0.004 0.153 0.175 0.153 0.127 0 0.175-0.018 0.175-0.066 0-0.036 0.030-0.066 0.066-0.066s0.066-0.039 0.066-0.088c0-0.071 0.029-0.088 0.153-0.088 0.107 0 0.153-0.020 0.153-0.066 0-0.037 0.039-0.066 0.088-0.066 0.058 0 0.088-0.029 0.088-0.088 0-0.049 0.029-0.088 0.066-0.088s0.066-0.030 0.066-0.066c0-0.037 0.039-0.066 0.088-0.066 0.058 0 0.088-0.029 0.088-0.088 0-0.049 0.029-0.088 0.066-0.088s0.066-0.029 0.066-0.066c0-0.046 0.046-0.066 0.153-0.066 0.124 0 0.153-0.017 0.153-0.088 0-0.058 0.029-0.088 0.088-0.088 0.049 0 0.088-0.029 0.088-0.066s0.030-0.066 0.066-0.066c0.037 0 0.066-0.039 0.066-0.088 0-0.071 0.029-0.088 0.153-0.088 0.107 0 0.153-0.020 0.153-0.066 0-0.036 0.039-0.066 0.088-0.066 0.058 0 0.088-0.029 0.088-0.088 0-0.049 0.029-0.088 0.066-0.088s0.066-0.030 0.066-0.066c0-0.037 0.039-0.066 0.088-0.066 0.058 0 0.088-0.029 0.088-0.088 0-0.049 0.029-0.088 0.066-0.088s0.066-0.030 0.066-0.066c0-0.037 0.039-0.066 0.088-0.066 0.058 0 0.088-0.029 0.088-0.088s0.029-0.088 0.088-0.088c0.049 0 0.088-0.029 0.088-0.066s0.030-0.066 0.066-0.066c0.037 0 0.066-0.039 0.066-0.088 0-0.058 0.029-0.088 0.088-0.088s0.088-0.029 0.088-0.088c0-0.049 0.029-0.088 0.066-0.088 0.046 0 0.066-0.046 0.066-0.153s-0.020-0.153-0.066-0.153c-0.036 0-0.066-0.030-0.066-0.066s-0.039-0.066-0.088-0.066c-0.058 0-0.088-0.029-0.088-0.088 0-0.049-0.029-0.088-0.066-0.088s-0.066-0.030-0.066-0.066c0-0.037-0.039-0.066-0.088-0.066-0.058 0-0.088-0.029-0.088-0.088s-0.029-0.088-0.088-0.088c-0.049 0-0.088-0.029-0.088-0.066s-0.030-0.066-0.066-0.066c-0.037 0-0.066-0.039-0.066-0.088 0-0.058-0.029-0.088-0.088-0.088-0.071 0-0.088-0.029-0.088-0.153s0.017-0.153 0.088-0.153c0.049 0 0.088-0.029 0.088-0.066s0.030-0.066 0.066-0.066c0.037 0 0.066-0.039 0.066-0.088 0-0.058 0.029-0.088 0.088-0.088 0.049 0 0.088-0.029 0.088-0.066 0-0.046 0.046-0.066 0.153-0.066s0.153 0.020 0.153 0.066c0 0.046 0.046 0.066 0.153 0.066 0.124 0 0.153 0.017 0.153 0.088 0 0.058 0.029 0.088 0.088 0.088 0.049 0 0.088 0.029 0.088 0.066s0.030 0.066 0.066 0.066c0.036 0 0.066-0.030 0.066-0.066 0-0.046 0.046-0.066 0.153-0.066 0.124 0 0.153-0.017 0.153-0.088 0-0.077 0.029-0.088 0.241-0.088s0.241 0.011 0.241 0.088c0 0.083 0.029 0.088 0.614 0.088 0.516 0 0.614 0.010 0.614 0.066 0 0.036 0.039 0.066 0.088 0.066s0.088-0.029 0.088-0.066c0-0.050 0.054-0.066 0.219-0.066 0.19 0 0.219-0.012 0.219-0.088 0-0.071 0.029-0.088 0.153-0.088s0.153 0.017 0.153 0.088 0.029 0.088 0.153 0.088 0.153-0.017 0.153-0.088 0.029-0.088 0.153-0.088c0.107 0 0.153-0.020 0.153-0.066s0.046-0.066 0.153-0.066c0.107 0 0.153 0.020 0.153 0.066s0.046 0.066 0.153 0.066c0.124 0 0.153 0.017 0.153 0.088 0 0.058 0.029 0.088 0.088 0.088 0.049 0 0.088 0.029 0.088 0.066s0.039 0.066 0.088 0.066c0.077 0 0.088 0.029 0.088 0.241s-0.011 0.241-0.088 0.241c-0.049 0-0.088 0.029-0.088 0.066 0 0.046-0.046 0.066-0.153 0.066-0.146 0-0.153 0.007-0.153 0.153 0 0.124-0.017 0.153-0.088 0.153-0.058 0-0.088 0.029-0.088 0.088 0 0.071-0.029 0.088-0.153 0.088-0.107 0-0.153 0.020-0.153 0.066 0 0.036-0.030 0.066-0.066 0.066-0.046 0-0.066 0.046-0.066 0.153s0.020 0.153 0.066 0.153c0.037 0 0.066 0.039 0.066 0.088 0 0.058 0.029 0.088 0.088 0.088s0.088 0.029 0.088 0.088c0 0.049 0.029 0.088 0.066 0.088s0.066 0.030 0.066 0.066c0 0.037 0.039 0.066 0.088 0.066 0.058 0 0.088 0.029 0.088 0.088 0 0.049 0.029 0.088 0.066 0.088s0.066 0.030 0.066 0.066c0 0.037 0.039 0.066 0.088 0.066 0.058 0 0.088 0.029 0.088 0.088s0.029 0.088 0.088 0.088c0.049 0 0.088 0.029 0.088 0.066s0.030 0.066 0.066 0.066c0.036 0 0.066 0.039 0.066 0.088 0 0.058 0.029 0.088 0.088 0.088 0.049 0 0.088 0.029 0.088 0.066s0.030 0.066 0.066 0.066c0.037 0 0.066 0.039 0.066 0.088 0 0.071 0.029 0.088 0.153 0.088 0.107 0 0.153 0.020 0.153 0.066 0 0.037 0.039 0.066 0.088 0.066 0.058 0 0.088 0.029 0.088 0.088 0 0.049 0.029 0.088 0.066 0.088s0.066 0.030 0.066 0.066c0 0.037 0.039 0.066 0.088 0.066 0.058 0 0.088 0.029 0.088 0.088 0 0.071 0.029 0.088 0.153 0.088 0.107 0 0.153 0.020 0.153 0.066 0 0.036 0.030 0.066 0.066 0.066s0.066 0.039 0.066 0.088c0 0.058 0.029 0.088 0.088 0.088 0.049 0 0.088 0.029 0.088 0.066s0.030 0.066 0.066 0.066c0.037 0 0.066 0.039 0.066 0.088 0 0.058 0.029 0.088 0.088 0.088 0.049 0 0.088 0.029 0.088 0.066 0 0.050 0.054 0.066 0.219 0.066s0.219-0.016 0.219-0.066c0-0.036-0.030-0.066-0.066-0.066-0.046 0-0.066-0.046-0.066-0.153 0-0.124-0.017-0.153-0.088-0.153-0.058 0-0.088-0.029-0.088-0.088 0-0.049-0.029-0.088-0.066-0.088-0.046 0-0.066-0.046-0.066-0.153 0-0.124-0.017-0.153-0.088-0.153-0.049 0-0.088-0.029-0.088-0.066s-0.030-0.066-0.066-0.066c-0.037 0-0.066-0.039-0.066-0.088 0-0.058-0.029-0.088-0.088-0.088-0.071 0-0.088-0.029-0.088-0.153 0-0.107-0.020-0.153-0.066-0.153-0.064 0-0.085-0.071-0.067-0.236 0.007-0.064-0.012-0.077-0.083-0.059-0.081 0.021-0.091 0.005-0.091-0.147 0-0.123-0.018-0.171-0.066-0.171-0.036 0-0.066-0.030-0.066-0.066s-0.039-0.066-0.088-0.066c-0.071 0-0.088-0.029-0.088-0.153 0-0.107-0.020-0.153-0.066-0.153-0.047 0-0.066-0.049-0.066-0.175 0-0.146-0.015-0.175-0.088-0.175-0.076 0-0.088-0.029-0.088-0.219s0.012-0.219 0.088-0.219c0.058 0 0.088-0.029 0.088-0.088 0-0.049 0.029-0.088 0.066-0.088s0.066-0.030 0.066-0.066c0-0.037 0.039-0.066 0.088-0.066 0.058 0 0.088-0.029 0.088-0.088 0-0.049 0.029-0.088 0.066-0.088s0.066-0.030 0.066-0.066c0-0.037 0.039-0.066 0.088-0.066 0.058 0 0.088-0.029 0.088-0.088 0-0.049 0.029-0.088 0.066-0.088 0.046 0 0.066-0.046 0.066-0.153s-0.020-0.153-0.066-0.153c-0.050 0-0.066-0.054-0.066-0.219 0-0.19-0.012-0.219-0.088-0.219-0.071 0-0.088-0.029-0.088-0.153 0-0.107-0.020-0.153-0.066-0.153-0.037 0-0.066-0.039-0.066-0.088 0-0.058-0.029-0.088-0.088-0.088-0.081 0-0.088-0.029-0.088-0.395v-0.395h0.153c0.107 0 0.153-0.020 0.153-0.066s0.046-0.066 0.153-0.066c0.107 0 0.153 0.020 0.153 0.066 0 0.037 0.039 0.066 0.088 0.066 0.058 0 0.088 0.029 0.088 0.088 0 0.049 0.029 0.088 0.066 0.088 0.046 0 0.066 0.046 0.066 0.153 0 0.146 0.007 0.153 0.153 0.153 0.107 0 0.153 0.020 0.153 0.066 0 0.037 0.039 0.066 0.088 0.066 0.058 0 0.088 0.029 0.088 0.088 0 0.049 0.029 0.088 0.066 0.088 0.051 0 0.066 0.056 0.066 0.241s-0.015 0.241-0.066 0.241c-0.036 0-0.066 0.030-0.066 0.066s-0.039 0.066-0.088 0.066c-0.058 0-0.088 0.029-0.088 0.088 0 0.049-0.029 0.088-0.066 0.088s-0.066 0.030-0.066 0.066c0 0.036 0.030 0.066 0.066 0.066s0.066 0.039 0.066 0.088c0 0.058 0.029 0.088 0.088 0.088 0.049 0 0.088 0.029 0.088 0.066s0.030 0.066 0.066 0.066c0.037 0 0.066 0.039 0.066 0.088 0 0.073 0.029 0.088 0.175 0.088 0.127 0 0.175 0.018 0.175 0.066 0 0.036 0.030 0.066 0.066 0.066s0.066 0.039 0.066 0.088c0 0.071 0.029 0.088 0.153 0.088 0.107 0 0.153 0.020 0.153 0.066s0.046 0.066 0.153 0.066c0.124 0 0.153 0.017 0.153 0.088s0.029 0.088 0.153 0.088c0.107 0 0.153 0.020 0.153 0.066 0 0.037 0.039 0.066 0.088 0.066 0.058 0 0.088 0.029 0.088 0.088 0 0.071 0.029 0.088 0.153 0.088h0.153v-0.241c0-0.212-0.011-0.241-0.088-0.241-0.049 0-0.088-0.029-0.088-0.066s-0.030-0.066-0.066-0.066c-0.037 0-0.066-0.039-0.066-0.088 0-0.058-0.029-0.088-0.088-0.088-0.049 0-0.088-0.029-0.088-0.066s-0.030-0.066-0.066-0.066c-0.037 0-0.066-0.039-0.066-0.088 0-0.058-0.029-0.088-0.088-0.088-0.071 0-0.088-0.029-0.088-0.153 0-0.107-0.020-0.153-0.066-0.153s-0.066-0.046-0.066-0.153c0-0.124-0.017-0.153-0.088-0.153-0.049 0-0.088-0.029-0.088-0.066s0.039-0.066 0.088-0.066c0.071 0 0.088-0.029 0.088-0.153 0-0.107 0.020-0.153 0.066-0.153 0.037 0 0.066-0.039 0.066-0.088 0-0.058 0.029-0.088 0.088-0.088 0.071 0 0.088-0.029 0.088-0.153s-0.017-0.153-0.088-0.153c-0.071 0-0.088-0.029-0.088-0.153 0-0.107-0.020-0.153-0.066-0.153-0.050 0-0.066-0.056-0.066-0.241 0-0.212-0.011-0.241-0.088-0.241s-0.088-0.029-0.088-0.219c0-0.166-0.016-0.219-0.066-0.219-0.037 0-0.066-0.039-0.066-0.088 0-0.058-0.029-0.088-0.088-0.088-0.076 0-0.088-0.029-0.088-0.219s0.012-0.219 0.088-0.219c0.058 0 0.088-0.029 0.088-0.088 0-0.049 0.029-0.088 0.066-0.088s0.066-0.030 0.066-0.066c0-0.037 0.039-0.066 0.088-0.066 0.058 0 0.088-0.029 0.088-0.088 0-0.049 0.029-0.088 0.066-0.088s0.066-0.030 0.066-0.066c0-0.037 0.039-0.066 0.088-0.066 0.058 0 0.088-0.029 0.088-0.088 0-0.049 0.029-0.088 0.066-0.088s0.066-0.039 0.066-0.088c0-0.058 0.029-0.088 0.088-0.088 0.071 0 0.088-0.029 0.088-0.153 0-0.107 0.020-0.153 0.066-0.153 0.050 0 0.066-0.054 0.066-0.219s-0.016-0.219-0.066-0.219c-0.052 0-0.066-0.063-0.066-0.307s0.014-0.307 0.066-0.307c0.037 0 0.066-0.039 0.066-0.088 0-0.077 0.029-0.088 0.241-0.088s0.241 0.011 0.241 0.088c0 0.079 0.029 0.088 0.307 0.088h0.307v-1.578h-0.241c-0.212 0-0.241 0.011-0.241 0.088 0 0.049-0.029 0.088-0.066 0.088s-0.066 0.030-0.066 0.066c0 0.046-0.046 0.066-0.153 0.066s-0.153-0.020-0.153-0.066c0-0.037-0.039-0.066-0.088-0.066-0.083 0-0.088-0.029-0.088-0.548s0.005-0.548 0.088-0.548c0.049 0 0.088-0.029 0.088-0.066 0-0.050 0.054-0.066 0.219-0.066 0.19 0 0.219-0.012 0.219-0.088 0-0.071 0.029-0.088 0.153-0.088 0.146 0 0.153-0.007 0.153-0.153 0-0.124 0.017-0.153 0.088-0.153s0.088-0.029 0.088-0.153c0-0.124 0.017-0.153 0.088-0.153 0.079 0 0.088-0.029 0.088-0.307s-0.008-0.307-0.088-0.307c-0.071 0-0.088-0.029-0.088-0.153s-0.017-0.153-0.088-0.153c-0.058 0-0.088-0.029-0.088-0.088 0-0.084-0.029-0.088-0.614-0.088h-0.614v-1.227c0-1.062-0.009-1.227-0.066-1.227-0.054 0-0.066-0.073-0.066-0.392 0-0.353-0.009-0.394-0.088-0.419-0.078-0.025-0.088-0.066-0.088-0.376 0-0.28-0.013-0.348-0.066-0.348-0.046 0-0.066-0.046-0.066-0.153 0-0.124-0.017-0.153-0.088-0.153s-0.088-0.029-0.088-0.153c0-0.107-0.020-0.153-0.066-0.153-0.047 0-0.066-0.049-0.066-0.175 0-0.146-0.015-0.175-0.088-0.175-0.049 0-0.088-0.029-0.088-0.066s-0.030-0.066-0.066-0.066c-0.037 0-0.066-0.039-0.066-0.088 0-0.058-0.029-0.088-0.088-0.088-0.071 0-0.088-0.029-0.088-0.153s-0.017-0.153-0.088-0.153-0.088-0.029-0.088-0.153c0-0.107-0.020-0.153-0.066-0.153s-0.066-0.046-0.066-0.153c0-0.124-0.017-0.153-0.088-0.153-0.049 0-0.088-0.029-0.088-0.066s-0.030-0.066-0.066-0.066c-0.037 0-0.066-0.039-0.066-0.088 0-0.058-0.029-0.088-0.088-0.088-0.049 0-0.088-0.029-0.088-0.066s-0.030-0.066-0.066-0.066c-0.037 0-0.066-0.039-0.066-0.088 0-0.058-0.029-0.088-0.088-0.088-0.049 0-0.088-0.029-0.088-0.066s-0.030-0.066-0.066-0.066c-0.036 0-0.066-0.039-0.066-0.088 0-0.058-0.029-0.088-0.088-0.088-0.049 0-0.088-0.029-0.088-0.066 0-0.046-0.046-0.066-0.153-0.066-0.124 0-0.153-0.017-0.153-0.088 0-0.049-0.029-0.088-0.066-0.088s-0.066-0.030-0.066-0.066c0-0.050-0.056-0.066-0.241-0.066-0.212 0-0.241-0.011-0.241-0.088 0-0.071-0.029-0.088-0.153-0.088s-0.153-0.017-0.153-0.088c0-0.081-0.029-0.088-0.395-0.088-0.321 0-0.395-0.012-0.395-0.066 0-0.052-0.063-0.066-0.307-0.066-0.278 0-0.307-0.008-0.307-0.088 0-0.085-0.029-0.088-0.921-0.088s-0.921 0.003-0.921 0.088zM19.266 7.21c0 0.137 0.014 0.169 0.066 0.149 0.046-0.018 0.066 0.003 0.066 0.067 0 0.053-0.028 0.092-0.066 0.092-0.050 0-0.066 0.054-0.066 0.219 0 0.19-0.012 0.219-0.088 0.219-0.073 0-0.088 0.029-0.088 0.175 0 0.127-0.018 0.175-0.066 0.175-0.050 0-0.066 0.054-0.066 0.219 0 0.19-0.012 0.219-0.088 0.219-0.077 0-0.088 0.029-0.088 0.241s-0.011 0.241-0.088 0.241c-0.049 0-0.088 0.029-0.088 0.066s0.039 0.066 0.088 0.066c0.079 0 0.088 0.029 0.088 0.307s-0.008 0.307-0.088 0.307c-0.071 0-0.088 0.029-0.088 0.153 0 0.107-0.020 0.153-0.066 0.153-0.036 0-0.066 0.039-0.066 0.088 0 0.058-0.029 0.088-0.088 0.088-0.077 0-0.088 0.029-0.088 0.241 0 0.185-0.015 0.241-0.066 0.241s-0.066 0.054-0.066 0.219c0 0.19-0.012 0.219-0.088 0.219-0.058 0-0.088 0.029-0.088 0.088 0 0.049-0.029 0.088-0.066 0.088s-0.066 0.030-0.066 0.066c0 0.046-0.046 0.066-0.153 0.066h-0.153v0.241c0 0.212-0.011 0.241-0.088 0.241s-0.088 0.029-0.088 0.219c0 0.166-0.016 0.219-0.066 0.219-0.037 0-0.066 0.039-0.066 0.088 0 0.058-0.029 0.088-0.088 0.088-0.049 0-0.088 0.029-0.088 0.066s-0.030 0.066-0.066 0.066c-0.037 0-0.066 0.039-0.066 0.088 0 0.071-0.029 0.088-0.153 0.088-0.107 0-0.153 0.020-0.153 0.066s-0.046 0.066-0.153 0.066c-0.124 0-0.153 0.017-0.153 0.088 0 0.082-0.029 0.088-0.482 0.088s-0.482-0.005-0.482-0.088c0-0.071-0.029-0.088-0.153-0.088-0.107 0-0.153-0.020-0.153-0.066 0-0.036-0.030-0.066-0.066-0.066s-0.066-0.039-0.066-0.088c0-0.058-0.029-0.088-0.088-0.088-0.049 0-0.088-0.029-0.088-0.066s-0.030-0.066-0.066-0.066c-0.036 0-0.066-0.039-0.066-0.088 0-0.058-0.029-0.088-0.088-0.088-0.049 0-0.088-0.029-0.088-0.066s-0.030-0.066-0.066-0.066c-0.046 0-0.066-0.046-0.066-0.153 0-0.124-0.017-0.153-0.088-0.153-0.081 0-0.088-0.029-0.088-0.395 0-0.321-0.012-0.395-0.066-0.395-0.036 0-0.066-0.030-0.066-0.066s-0.039-0.066-0.088-0.066c-0.071 0-0.088-0.029-0.088-0.153 0-0.107-0.020-0.153-0.066-0.153-0.047 0-0.066-0.049-0.066-0.175 0-0.146-0.015-0.175-0.088-0.175-0.079 0-0.088-0.029-0.088-0.307s-0.008-0.307-0.088-0.307c-0.049 0-0.088-0.029-0.088-0.066s-0.030-0.066-0.066-0.066c-0.046 0-0.066-0.046-0.066-0.153 0-0.124-0.017-0.153-0.088-0.153s-0.088-0.029-0.088-0.153c0-0.107-0.020-0.153-0.066-0.153-0.055 0-0.066-0.1-0.066-0.636s0.010-0.636 0.066-0.636c0.052 0 0.066-0.063 0.066-0.307v-0.307h0.153c0.146 0 0.153 0.007 0.153 0.153 0 0.124 0.017 0.153 0.088 0.153 0.077 0 0.088 0.029 0.088 0.241s0.011 0.241 0.088 0.241c0.077 0 0.088 0.029 0.088 0.241 0 0.185 0.015 0.241 0.066 0.241 0.036 0 0.066 0.030 0.066 0.066s0.039 0.066 0.088 0.066c0.058 0 0.088 0.029 0.088 0.088 0 0.049 0.029 0.088 0.066 0.088s0.066 0.030 0.066 0.066c0 0.037 0.039 0.066 0.088 0.066 0.071 0 0.088 0.029 0.088 0.153 0 0.107 0.020 0.153 0.066 0.153s0.066 0.046 0.066 0.153c0 0.124 0.017 0.153 0.088 0.153 0.058 0 0.088 0.029 0.088 0.088 0 0.049 0.029 0.088 0.066 0.088s0.066 0.030 0.066 0.066c0 0.037 0.039 0.066 0.088 0.066 0.071 0 0.088 0.029 0.088 0.153 0 0.107 0.020 0.153 0.066 0.153 0.037 0 0.066 0.039 0.066 0.088 0 0.058 0.029 0.088 0.088 0.088 0.049 0 0.088 0.029 0.088 0.066s0.030 0.066 0.066 0.066c0.037 0 0.066 0.039 0.066 0.088 0 0.077 0.029 0.088 0.241 0.088s0.241-0.011 0.241-0.088c0-0.079 0.029-0.088 0.307-0.088 0.244 0 0.307-0.014 0.307-0.066 0-0.037 0.039-0.066 0.088-0.066 0.058 0 0.088-0.029 0.088-0.088 0-0.049 0.029-0.088 0.066-0.088s0.066-0.030 0.066-0.066c0-0.036 0.039-0.066 0.088-0.066 0.071 0 0.088-0.029 0.088-0.153 0-0.107 0.020-0.153 0.066-0.153 0.037 0 0.066-0.039 0.066-0.088 0-0.058 0.029-0.088 0.088-0.088 0.049 0 0.088-0.029 0.088-0.066s0.030-0.066 0.066-0.066c0.037 0 0.066-0.039 0.066-0.088 0-0.058 0.029-0.088 0.088-0.088 0.049 0 0.088-0.029 0.088-0.066s0.030-0.066 0.066-0.066c0.046 0 0.066-0.046 0.066-0.153 0-0.124 0.017-0.153 0.088-0.153 0.077 0 0.088-0.029 0.088-0.241 0-0.185 0.015-0.241 0.066-0.241 0.036 0 0.066-0.030 0.066-0.066s0.039-0.066 0.088-0.066c0.058 0 0.088-0.029 0.088-0.088 0-0.049 0.029-0.088 0.066-0.088 0.046 0 0.066-0.046 0.066-0.153 0-0.124 0.017-0.153 0.088-0.153s0.088-0.029 0.088-0.153c0-0.107 0.020-0.153 0.066-0.153 0.037 0 0.066-0.039 0.066-0.088 0-0.058 0.029-0.088 0.088-0.088 0.071 0 0.088-0.029 0.088-0.153v-0.153h0.482v0.174zM13.698 14.4c0 0.076 0.029 0.088 0.219 0.088 0.166 0 0.219 0.016 0.219 0.066 0 0.046 0.046 0.066 0.153 0.066 0.124 0 0.153 0.017 0.153 0.088 0 0.058 0.029 0.088 0.088 0.088 0.049 0 0.088 0.029 0.088 0.066s0.030 0.066 0.066 0.066c0.052 0 0.066 0.063 0.066 0.307s-0.014 0.307-0.066 0.307c-0.052 0-0.066 0.063-0.066 0.307 0 0.278-0.008 0.307-0.088 0.307-0.073 0-0.088 0.029-0.088 0.175 0 0.127-0.018 0.175-0.066 0.175-0.036 0-0.066 0.030-0.066 0.066s-0.039 0.066-0.088 0.066c-0.058 0-0.088 0.029-0.088 0.088 0 0.071-0.029 0.088-0.153 0.088-0.107 0-0.153 0.020-0.153 0.066s-0.046 0.066-0.153 0.066c-0.124 0-0.153 0.017-0.153 0.088 0 0.084-0.029 0.088-0.707 0.088-0.658 0-0.703-0.005-0.647-0.074 0.041-0.050 0.043-0.064 0.005-0.041-0.030 0.018-0.055 0.012-0.055-0.014s-0.030-0.046-0.066-0.046-0.066-0.030-0.066-0.066c0-0.046-0.046-0.066-0.153-0.066-0.124 0-0.153-0.017-0.153-0.088 0-0.058-0.029-0.088-0.088-0.088-0.049 0-0.088-0.029-0.088-0.066s-0.030-0.066-0.066-0.066c-0.037 0-0.066-0.039-0.066-0.088 0-0.058-0.029-0.088-0.088-0.088-0.071 0-0.088-0.029-0.088-0.153 0-0.107-0.020-0.153-0.066-0.153-0.051 0-0.066-0.056-0.066-0.241 0-0.212-0.011-0.241-0.088-0.241-0.079 0-0.088-0.029-0.088-0.307s0.008-0.307 0.088-0.307c0.071 0 0.088-0.029 0.088-0.153 0-0.107 0.020-0.153 0.066-0.153 0.036 0 0.066-0.030 0.066-0.066s0.039-0.066 0.088-0.066c0.058 0 0.088-0.029 0.088-0.088 0-0.085 0.029-0.088 1.162-0.088s1.162 0.002 1.162 0.088zM20.186 14.4c0 0.049 0.029 0.088 0.066 0.088s0.066 0.030 0.066 0.066c0 0.036 0.038 0.066 0.085 0.066 0.054 0 0.090 0.036 0.1 0.099 0.008 0.054 0.040 0.093 0.071 0.087s0.053 0.013 0.049 0.044c-0.030 0.227 0.007 0.384 0.091 0.384 0.077 0 0.088 0.029 0.088 0.241s-0.011 0.241-0.088 0.241c-0.071 0-0.088 0.029-0.088 0.153 0 0.107-0.020 0.153-0.066 0.153s-0.066 0.046-0.066 0.153c0 0.124-0.017 0.153-0.088 0.153-0.058 0-0.088 0.029-0.088 0.088 0 0.049-0.029 0.088-0.066 0.088s-0.066 0.030-0.066 0.066c0 0.046-0.046 0.066-0.153 0.066-0.124 0-0.153 0.017-0.153 0.088 0 0.058-0.029 0.088-0.088 0.088-0.049 0-0.088 0.029-0.088 0.066 0 0.052-0.063 0.066-0.307 0.066-0.279 0-0.307 0.008-0.307 0.089 0 0.074-0.025 0.087-0.153 0.079-0.11-0.007-0.15-0.029-0.142-0.078 0.009-0.055-0.049-0.070-0.307-0.081-0.243-0.010-0.318-0.028-0.318-0.077s-0.059-0.064-0.241-0.064c-0.212 0-0.241-0.011-0.241-0.088 0-0.049-0.029-0.088-0.066-0.088s-0.066-0.030-0.066-0.066c0-0.037-0.039-0.066-0.088-0.066-0.073 0-0.088-0.029-0.088-0.175 0-0.127-0.018-0.175-0.066-0.175-0.050 0-0.066-0.054-0.066-0.219 0-0.19-0.012-0.219-0.088-0.219-0.083 0-0.088-0.029-0.088-0.548s0.005-0.548 0.088-0.548c0.049 0 0.088-0.029 0.088-0.066 0-0.046 0.046-0.066 0.153-0.066 0.124 0 0.153-0.017 0.153-0.088 0-0.086 0.029-0.088 1.315-0.088s1.315 0.002 1.315 0.088zM16.153 16.724c0 0.058 0.029 0.088 0.088 0.088 0.049 0 0.088 0.029 0.088 0.066s0.030 0.066 0.066 0.066c0.050 0 0.066 0.056 0.066 0.241 0 0.212 0.011 0.241 0.088 0.241 0.079 0 0.088 0.029 0.088 0.302 0 0.228 0.016 0.308 0.066 0.327 0.045 0.017 0.066 0.088 0.066 0.224 0 0.169 0.013 0.199 0.088 0.199 0.077 0 0.088 0.029 0.088 0.241s-0.011 0.241-0.088 0.241c-0.058 0-0.088 0.029-0.088 0.088 0 0.049-0.029 0.088-0.066 0.088s-0.066 0.030-0.066 0.066c0 0.050-0.056 0.066-0.241 0.066s-0.241-0.015-0.241-0.066c0-0.037-0.039-0.066-0.088-0.066-0.081 0-0.088-0.029-0.088-0.395 0-0.321-0.012-0.395-0.066-0.395-0.037 0-0.066-0.039-0.066-0.088 0-0.058-0.029-0.088-0.088-0.088s-0.088 0.029-0.088 0.088c0 0.049-0.029 0.088-0.066 0.088-0.054 0-0.066 0.073-0.066 0.395v0.395h-0.241c-0.212 0-0.241-0.011-0.241-0.088 0-0.049-0.029-0.088-0.066-0.088s-0.066-0.039-0.066-0.088c0-0.058-0.029-0.088-0.088-0.088-0.079 0-0.088-0.029-0.088-0.307s0.008-0.307 0.088-0.307c0.071 0 0.088-0.029 0.088-0.153 0-0.107 0.020-0.153 0.066-0.153 0.050 0 0.066-0.054 0.066-0.219 0-0.19 0.012-0.219 0.088-0.219s0.088-0.029 0.088-0.241c0-0.185 0.015-0.241 0.066-0.241 0.046 0 0.066-0.046 0.066-0.153v-0.153h0.395c0.365 0 0.395 0.006 0.395 0.088zM19.704 18.258c0 0.071 0.029 0.088 0.153 0.088h0.153v0.307c0 0.244-0.014 0.307-0.066 0.307-0.037 0-0.066 0.039-0.066 0.088 0 0.071-0.029 0.088-0.153 0.088-0.107 0-0.153 0.020-0.153 0.066 0 0.037-0.039 0.066-0.088 0.066-0.058 0-0.088 0.029-0.088 0.088 0 0.049-0.029 0.088-0.066 0.088s-0.066 0.030-0.066 0.066c0 0.051-0.056 0.066-0.241 0.066s-0.241-0.015-0.241-0.066c0-0.037-0.039-0.066-0.088-0.066-0.080 0-0.088-0.029-0.088-0.329s0.008-0.329 0.088-0.329c0.071 0 0.088-0.029 0.088-0.153 0-0.146 0.007-0.153 0.153-0.153 0.107 0 0.153-0.020 0.153-0.066s0.046-0.066 0.153-0.066c0.124 0 0.153-0.017 0.153-0.088s0.029-0.088 0.153-0.088c0.124 0 0.153 0.017 0.153 0.088zM11.814 18.718c0 0.046 0.046 0.066 0.153 0.066 0.124 0 0.153 0.017 0.153 0.088s0.029 0.088 0.153 0.088c0.146 0 0.153 0.007 0.153 0.153 0 0.124 0.017 0.153 0.088 0.153 0.058 0 0.088 0.029 0.088 0.088 0 0.049 0.029 0.088 0.066 0.088s0.066 0.030 0.066 0.066c0 0.037 0.039 0.066 0.088 0.066 0.071 0 0.088 0.029 0.088 0.153 0 0.107 0.020 0.153 0.066 0.153 0.037 0 0.066 0.039 0.066 0.088s-0.029 0.088-0.066 0.088c-0.036 0-0.066 0.030-0.066 0.066 0 0.050-0.056 0.066-0.241 0.066s-0.241-0.015-0.241-0.066c0-0.036-0.030-0.066-0.066-0.066s-0.066-0.039-0.066-0.088c0-0.058-0.029-0.088-0.088-0.088-0.049 0-0.088-0.029-0.088-0.066s-0.030-0.066-0.066-0.066c-0.037 0-0.066-0.039-0.066-0.088 0-0.058-0.029-0.088-0.088-0.088-0.049 0-0.088-0.029-0.088-0.066s-0.030-0.066-0.066-0.066c-0.037 0-0.066-0.039-0.066-0.088 0-0.071-0.029-0.088-0.153-0.088-0.107 0-0.153-0.020-0.153-0.066 0-0.037-0.039-0.066-0.088-0.066-0.077 0-0.088-0.029-0.088-0.241v-0.241h0.307c0.243 0 0.307 0.014 0.307 0.066z"></path>
</svg>
