<!-- Generated by IcoMoon.io -->
<svg version="1.1" xmlns="http://www.w3.org/2000/svg" width="1024" height="1024" viewBox="0 0 1024 1024">
<title></title>
<g id="icomoon-ignore">
</g>
<path fill="#FFF" d="M535.118 15.389c-20.709 0.689-28.314 1.304-34.368 2.682-2.843 0.689-7.518 1.452-10.508 1.846-2.916 0.307-8.134 1.304-11.505 2.154s-7.826 1.759-9.979 1.994c-5.598 0.689-17.19 4.984-18.1 6.756-0.616 1.071-0.455 1.92 0.381 3.298 0.997 1.452 1.92 1.846 5.981 2.067 2.682 0.148 7.752-0.148 11.357-0.689s11.739-1.304 18.027-1.759c6.362-0.455 13.425-1.304 15.726-1.846 4.676-1.157 34.060-2.375 56.776-2.375 15.886 0.074 25.926 1.378 39.13 5.365 1.92 0.542 4.529 1.23 5.759 1.452 2.609 0.542 13.893 3.913 25.090 7.445 6.669 2.154 8.368 2.375 16.108 2.301 11.886-0.148 16.193-1.612 16.722-5.452 0.307-2.301-0.074-2.843-3.679-5.217-2.843-1.846-4.836-2.461-8.281-2.682-2.461-0.234-8.675-1.452-13.732-2.843-5.057-1.304-12.121-2.916-15.726-3.371-7.371-1.157-7.826-1.23-14.188-4.368-2.535-1.23-6.83-2.609-9.585-3.064-2.756-0.381-7.518-1.452-10.582-2.301-6.448-1.759-23.552-2.227-50.783-1.378z"></path>
<path fill="#FFF" d="M680.502 20.754c-2.916 0.849-4.22 2.609-4.22 5.672 0 4.368 2.843 6.595 11.886 9.278 5.525 1.685 7.285 3.458 9.056 8.97 0.689 2.301 1.994 4.762 2.916 5.525 3.064 2.843 20.87 11.739 27.699 13.893 2.227 0.689 6.669 2.461 9.893 3.839 3.224 1.452 8.823 3.458 12.502 4.529s8.749 2.99 11.198 4.22c8.749 4.455 13.806 2.067 13.806-6.521 0-5.217-1.157-7.137-8.675-14.582-5.525-5.365-7.973-7.211-11.050-8.368-2.227-0.762-6.977-2.916-10.582-4.762s-7.211-3.371-7.9-3.371c-0.689 0-2.301-0.542-3.606-1.23-3.371-1.846-17.953-7.973-21.103-8.897-1.452-0.455-3.532-1.378-4.602-2.154-3.765-2.535-8.897-4.602-14.582-5.759-6.362-1.304-9.204-1.378-12.662-0.307z"></path>
<path fill="#FFF" d="M383.901 26.66c-6.14 3.987-9.672 10.053-10.434 18.1-0.381 4.294-0.234 5.291 1.304 7.752 0.923 1.538 3.679 4.22 6.066 5.907 7.063 5.291 7.826 6.83 2.99 6.669-1.846-0.074-4.529 0.148-5.981 0.455-7.063 1.538-8.675 4.22-7.973 13.351 0.307 4.762 0.074 6.448-1.304 9.979-0.923 2.375-2.227 4.91-2.843 5.672-1.846 2.067-7.666 4.368-11.198 4.368-3.298 0-8.675-1.071-9.438-1.846s1.378-2.756 4.676-4.22c6.756-3.224 8.823-6.756 8.897-15.184 0-5.217-1.759-8.823-5.525-11.050-8.281-4.984-8.823-5.598-9.512-10.361-0.762-5.057-1.378-5.452-8.589-5.598-7.666-0.148-12.883 3.913-18.1 14.040-4.061 7.9-5.907 9.672-15.344 14.348-6.83 3.371-14.274 9.13-14.274 11.050 0 1.304 4.294 4.91 7.518 6.288 4.061 1.685 11.357 1.538 17.264-0.455 5.217-1.759 7.445-1.759 7.445 0.074 0 1.071-10.434 8.97-13.277 10.127-0.923 0.307-5.759 0.923-10.669 1.304-11.973 0.849-15.579 2.756-21.325 11.431-6.977 10.508-20.635 27.465-28.622 35.525-7.063 7.211-10.889 10.434-15.726 13.277-6.756 3.987-7.826 4.602-15.111 9.056-2.535 1.538-10.127 5.525-16.883 8.823-12.883 6.288-19.257 10.743-23.712 16.648-1.452 1.92-4.762 5.833-7.285 8.675s-6.903 8.281-9.585 12.047c-2.756 3.765-5.833 7.826-6.83 9.13-0.997 1.23-2.756 3.765-3.839 5.452-1.071 1.759-3.532 5.057-5.365 7.371-3.224 3.987-8.441 11.431-13.191 18.876-1.23 1.994-4.455 6.448-7.063 9.82-2.535 3.371-5.907 8.368-7.285 11.124-1.452 2.682-4.455 7.9-6.595 11.579s-5.291 9.672-6.977 13.277c-1.685 3.606-3.765 7.518-4.529 8.675-0.849 1.157-2.067 3.765-2.756 5.907-0.762 2.067-2.843 6.756-4.676 10.361-2.99 5.907-7.063 16.108-10.127 25.324-0.616 1.92-1.759 4.984-2.535 6.903s-2.375 6.903-3.458 11.124c-1.157 4.22-2.916 10.361-3.913 13.659s-1.846 6.669-1.846 7.518c0 0.849-0.381 2.227-0.849 3.15-1.304 2.461-4.455 15.653-5.759 24.401-0.616 4.455-1.846 11.357-2.609 15.344-1.304 6.521-1.452 11.198-1.538 44.495-0.074 50.18 0.307 65.98 1.378 68.047 2.301 4.22 5.981 2.535 9.438-4.22 1.759-3.458 1.846-4.368 1.994-18.95 0-8.441 0.542-21.558 1.071-29.15 0.455-7.592 0.997-15.886 1.157-18.495 0.074-2.535 0.542-7.9 0.997-11.886 0.381-3.987 0.997-11.739 1.23-17.19 0.762-15.726 2.227-21.103 5.525-20.020 2.756 0.849 3.532 4.061 3.913 16.575 0.307 11.666 0.307 11.973-1.759 16.883l-2.154 4.984 0.074 19.947c0.074 12.121 0.455 21.017 0.923 22.629 0.997 3.15 1.846 9.204 3.458 24.93 0.616 6.288 1.685 13.585 2.301 16.108s1.157 5.833 1.157 7.371c0 2.682 3.458 14.582 6.83 23.712 0.849 2.301 2.227 6.83 3.15 9.979s2.843 9.056 4.368 13.043c1.538 3.987 3.224 8.823 3.839 10.743s2.154 5.759 3.371 8.515c1.23 2.756 2.756 6.903 3.458 9.204s2.067 5.759 3.064 7.752c0.997 1.994 1.846 4.061 1.846 4.602s0.616 2.227 1.452 3.679c0.762 1.452 1.994 4.676 2.682 7.211 0.762 2.461 2.461 6.756 3.913 9.585 1.378 2.756 2.756 5.907 3.064 6.977 0.762 2.843 8.281 18.027 15.27 31.070 3.458 6.288 7.371 13.893 8.823 16.883 5.217 11.050 5.217 11.050 12.588 20.488 7.371 9.512 11.050 14.803 12.047 17.498 0.616 1.452 1.685 3.606 2.461 4.676 0.762 1.157 1.759 4.762 2.154 8.060 0.997 7.371 3.913 13.499 7.666 16.341 1.452 1.071 3.371 2.843 4.22 3.913 3.839 4.836 19.713 21.177 25.779 26.629 2.227 1.994 2.916 3.224 3.298 6.214 0.616 4.529 2.227 8.134 4.984 11.124 2.916 3.224 5.525 4.294 12.121 5.143 8.675 1.157 12.883 3.765 16.341 10.127 3.298 6.214 3.987 7.063 8.368 10.053 1.92 1.304 3.679 2.609 3.913 2.843s1.92 1.538 3.839 2.843c3.532 2.375 6.066 3.224 13.893 4.836 5.365 1.071 9.512 3.679 16.415 10.361 5.598 5.365 7.592 6.83 15.344 11.124 2.535 1.378 5.907 3.679 7.445 5.057 3.765 3.371 6.83 4.602 13.277 5.291 5.057 0.542 7.518 1.538 10.669 4.368 2.301 2.067 4.91 2.609 13.806 2.843 6.521 0.148 9.672 0.616 13.966 2.067 3.064 0.997 6.288 1.846 7.211 1.846s2.609 0.455 3.679 1.071c1.157 0.542 3.606 1.759 5.525 2.682 6.214 2.916 16.883 11.739 16.883 13.893 0 0.997-3.839 1.378-6.669 0.689-1.538-0.307-3.839-1.378-5.057-2.301-2.227-1.612-2.375-1.612-3.371-0.307-0.542 0.849-0.997 3.371-0.997 5.833 0 3.679-0.307 4.602-1.685 5.598-2.682 1.92-5.981 1.452-12.588-1.759-3.371-1.685-8.368-3.765-11.050-4.676-6.288-2.154-7.445-2.756-10.976-5.833-1.538-1.452-3.298-2.609-3.839-2.609-0.616 0-1.685-0.689-2.461-1.538s-1.612-1.538-1.92-1.538c-0.307 0-1.759-1.157-3.298-2.609-3.839-3.606-12.736-9.746-15.492-10.669-1.23-0.455-3.15-1.378-4.22-2.154-7.285-5.057-15.27-9.13-17.953-9.13-0.997 0-4.061-1.23-6.83-2.682s-5.525-2.682-6.14-2.682c-1.452 0-5.143-3.765-5.143-5.291 0-0.689-1.157-2.609-2.609-4.22l-2.535-3.064-8.823-0.542c-9.979-0.616-12.588-1.538-16.883-5.981-1.612-1.612-4.368-3.913-6.14-5.143-1.846-1.23-3.606-2.756-3.987-3.371s-2.682-3.224-5.143-5.759c-4.22-4.455-6.595-5.833-16.575-9.585-1.378-0.542-3.679-1.994-5.143-3.371-6.14-5.598-7.063-6.521-8.515-8.441-0.849-1.157-2.756-2.756-4.22-3.606-1.538-0.849-3.371-2.461-4.147-3.606-0.849-1.157-4.676-4.984-8.589-8.589-7.973-7.285-8.97-9.365-7.826-16.502 0.689-4.455 0.381-4.984-6.288-12.121-2.535-2.756-4.602-5.217-4.602-5.525s-1.071-2.067-2.301-3.987c-1.304-1.846-2.301-3.679-2.301-3.987 0-0.381-0.849-1.23-1.92-1.92-0.997-0.689-2.461-2.375-3.15-3.765-0.689-1.304-1.92-2.916-2.682-3.458-0.849-0.542-1.452-1.685-1.452-2.535s-0.542-1.685-1.23-1.994c-0.689-0.234-2.99-3.224-5.217-6.669s-5.598-8.060-7.445-10.201c-1.846-2.227-4.91-5.981-6.83-8.368-1.92-2.461-4.294-5.291-5.365-6.362-3.298-3.371-9.672-13.425-13.425-21.103-1.994-4.061-3.839-7.518-4.22-7.752s-0.923-1.538-1.157-2.916c-0.307-1.304-1.157-3.298-1.92-4.368-1.846-2.682-5.143-9.893-5.833-12.662-0.455-2.067-3.371-7.211-7.285-12.809-0.849-1.157-1.452-2.609-1.452-3.224s-0.307-1.304-0.689-1.612c-0.381-0.234-1.157-1.685-1.612-3.298-0.997-3.15-1.92-5.291-4.762-11.666-1.759-3.839-3.913-9.278-11.812-29.15-1.378-3.606-3.298-9.13-4.22-12.281s-2.756-8.207-4.147-11.124c-1.304-2.99-3.064-6.903-3.839-8.823-3.532-8.441-7.973-13.043-10.053-10.361-1.452 1.92-0.307 24.549 1.685 31.612 0.616 2.154 1.071 5.365 1.071 7.137s1.538 7.752 3.371 13.277c1.846 5.598 3.606 11.357 3.839 12.809 0.849 4.147 3.532 12.97 5.525 17.793 0.923 2.375 1.994 5.672 2.301 7.285 0.234 1.612 1.304 4.455 2.301 6.362 1.612 3.224 2.609 5.759 6.066 15.726 0.997 2.682 2.609 5.057 5.759 8.060 4.22 4.061 4.455 4.455 4.836 8.823 0.234 2.535 1.071 5.981 1.92 7.666s1.685 4.762 1.994 6.756c0.455 3.606 1.759 6.066 8.675 16.267 1.378 2.067 3.679 5.291 5.057 7.063 1.304 1.759 3.839 5.143 5.525 7.518 1.685 2.301 4.22 5.672 5.525 7.371 1.378 1.759 2.535 3.458 2.535 3.913 0 0.381 1.157 2.154 2.535 3.913 1.452 1.759 3.532 4.91 4.762 7.063 1.157 2.067 3.532 5.452 5.291 7.371s5.291 6.214 7.9 9.585c2.609 3.298 6.448 7.9 8.589 10.127 9.278 10.053 13.117 14.188 18.495 20.106 3.15 3.532 8.441 9.13 11.739 12.502 3.224 3.371 5.907 6.521 5.907 6.903 0 0.455 1.157 2.154 2.609 3.913 1.378 1.759 3.298 4.836 4.147 6.83 1.071 2.461 4.22 6.288 8.823 10.976l7.063 7.211h5.057c4.762 0 5.143 0.148 7.666 2.756 2.99 3.15 5.981 4.91 8.515 4.91 2.535 0.074 4.91 1.538 7.063 4.529 4.22 5.759 7.371 8.441 10.201 8.97 4.061 0.689 8.207 3.679 9.746 7.063 1.538 3.458 4.455 5.452 11.579 8.207 8.97 3.458 9.893 3.987 12.428 7.592 1.304 1.846 5.525 5.759 9.365 8.589 3.839 2.756 6.977 5.525 6.977 6.14 0 0.542-1.759 2.682-3.987 4.762l-3.987 3.839 1.452 4.368c1.92 5.525 5.907 9.512 14.348 14.348 3.532 1.994 7.371 4.22 8.675 4.984 21.558 12.97 36.595 18.642 57.539 21.793 2.99 0.455 9.746 1.685 15.037 2.682 5.365 0.997 12.97 2.154 16.883 2.535 9.672 0.997 14.274 2.067 17.953 4.294 6.595 3.987 10.053 5.217 15.344 5.672 7.445 0.616 8.060 0.455 12.883-3.606s9.746-5.833 19.331-6.977c10.817-1.23 18.568-5.365 20.254-10.743 1.157-3.913-0.148-3.765 34.221-4.294 14.803-0.234 28.080-0.542 29.532-0.762s5.291-0.762 8.441-1.23c3.15-0.381 9.056-1.071 13.191-1.378 11.579-0.997 17.953-5.057 19.947-12.97 0.616-2.609 1.846-4.529 4.455-7.063 1.994-1.92 4.22-4.529 4.91-5.907s2.154-3.913 3.298-5.759c3.532-5.452 3.987-6.288 5.143-8.749 1.685-3.679 2.301-10.053 1.23-12.588-1.378-3.298-3.839-3.458-9.13-0.762-2.916 1.452-7.137 2.682-11.505 3.371-7.9 1.304-8.749 1.759-12.281 6.288-1.452 1.92-4.368 4.294-6.83 5.672-3.765 1.994-5.452 2.375-13.893 3.064-9.365 0.689-9.672 0.616-16.108-1.452-6.288-2.067-7.211-2.154-18.876-1.994-9.979 0.148-13.351-0.074-17.953-1.23-10.508-2.682-15.492-1.538-19.024 4.529l-2.067 3.458-1.157-1.759c-3.371-5.143-4.455-5.907-7.518-5.452-2.535 0.381-3.15 0.923-4.676 3.913-1.23 2.375-1.685 4.22-1.378 6.066 0.234 1.378-0.148 4.061-0.762 5.981-0.923 2.609-0.997 3.987-0.381 5.759 0.455 1.304 0.849 4.455 0.849 6.977 0 3.458 0.455 5.365 1.846 7.752 1.846 3.224 1.685 6.521-0.455 6.669-0.542 0-1.685 0.234-2.535 0.381-0.849 0.234-7.752 0.689-15.344 1.071-12.281 0.689-14.582 0.616-21.867-0.689-4.455-0.849-12.428-1.685-17.719-1.92-5.452-0.234-11.198-0.923-13.043-1.538s-6.448-1.685-10.275-2.301c-8.441-1.378-17.031-3.224-22.629-4.762-2.301-0.616-6.14-1.685-8.441-2.301s-5.759-1.759-7.666-2.535c-1.92-0.762-6.066-2.375-9.204-3.606-3.15-1.157-6.669-2.756-7.826-3.532-1.071-0.762-2.375-1.378-2.756-1.378-0.455 0-1.759-0.849-2.99-1.759-1.157-0.997-3.15-2.067-4.368-2.375-1.304-0.307-3.064-1.378-4.061-2.461-1.071-1.157-2.535-1.846-3.913-1.846-2.375 0-3.913-1.92-2.609-3.224 0.923-0.923 7.137 0.542 10.889 2.461 1.685 0.849 3.371 1.538 3.839 1.538 0.542 0 3.224 0.997 6.14 2.301 4.22 1.846 6.669 2.375 13.117 2.756 7.9 0.542 10.976 1.378 12.883 3.679 0.616 0.689 2.461 1.612 4.22 2.067 1.685 0.455 5.217 1.612 7.752 2.609 4.22 1.612 6.288 1.759 23.859 2.301 22.1 0.616 25.238 0.234 35.98-4.22 3.987-1.685 8.207-3.064 9.278-3.064 2.916 0 13.277-5.365 14.963-7.826 0.849-1.071 1.685-3.064 1.92-4.294 0.381-1.994 0-2.756-3.606-6.214-5.833-5.598-5.907-5.672-11.431-8.823-2.756-1.538-8.368-4.91-12.502-7.371-4.22-2.535-8.060-4.602-8.589-4.602s-2.227-0.997-3.839-2.301c-1.612-1.23-3.458-2.301-4.147-2.301s-1.92-0.455-2.756-0.997c-1.759-1.071-8.441-3.765-13.043-5.143-1.685-0.542-3.606-1.378-4.22-1.92s-2.375-1.23-3.839-1.538c-1.452-0.307-3.913-1.157-5.365-1.92-1.452-0.689-3.987-1.538-5.598-1.759s-4.455-1.23-6.288-2.067c-1.92-0.923-5.452-1.92-7.973-2.301s-5.057-0.923-5.525-1.23c-0.542-0.307-3.765-1.157-7.137-1.92-6.066-1.304-14.582-4.147-17.719-5.833-0.849-0.455-2.916-1.23-4.602-1.759s-4.22-1.612-5.598-2.461c-1.378-0.762-2.99-1.378-3.606-1.378-1.071 0-6.288-2.301-11.124-4.984-1.071-0.542-4.676-2.461-8.060-4.22-6.595-3.458-6.903-3.679-16.648-11.973-3.458-2.99-8.368-6.756-10.743-8.281-2.375-1.612-4.529-3.371-4.762-3.987s-2.067-2.154-4.061-3.371c-4.061-2.609-8.281-6.288-20.635-18.187-4.529-4.294-10.434-9.204-13.277-10.889-5.759-3.371-7.592-5.217-10.201-9.82-0.997-1.759-4.061-5.759-6.903-8.823-7.752-8.675-12.121-13.893-12.121-14.582 0-0.381-2.067-2.843-4.602-5.598-2.535-2.682-5.759-6.756-7.211-8.97s-4.984-6.669-7.752-9.82c-2.843-3.15-5.672-6.595-6.362-7.666s-2.609-3.532-4.368-5.452c-2.461-2.843-3.371-4.676-4.529-9.585-3.606-15.579-6.903-21.411-13.191-23.626-2.067-0.762-4.294-1.378-4.91-1.378-0.616-0.074-3.458-2.375-6.288-5.217l-5.217-5.057v-11.284c0-12.354-0.762-16.034-5.452-25.164-1.23-2.461-2.227-5.057-2.227-5.759s-1.071-3.532-2.301-6.214c-1.304-2.609-2.301-5.057-2.301-5.452 0-0.307-0.455-1.378-0.997-2.461s-1.92-5.057-3.064-8.823c-1.157-3.839-3.15-8.897-4.368-11.284-1.304-2.375-2.301-5.291-2.301-6.448 0-1.759-0.923-4.294-4.676-12.97-0.381-0.849-1.23-3.224-1.92-5.291-0.689-2.154-1.846-4.676-2.535-5.759s-1.612-3.458-2.154-5.365c-1.071-4.294-2.99-10.053-4.836-14.656-0.762-1.92-1.612-4.984-1.92-6.903s-0.849-4.061-1.23-4.762c-0.381-0.762-1.452-4.529-2.301-8.441-1.92-9.056-1.92-8.97-2.99-11.739-0.542-1.304-1.071-7.973-1.23-15.726-0.234-7.371-0.616-14.963-0.997-16.883-1.378-7.371 0.307-66.287 2.227-78.642 0.381-2.535 1.157-7.752 1.612-11.505 1.304-11.357 7.752-32.682 12.662-42.194 2.375-4.602 6.521-14.582 9.585-23.171 1.23-3.458 4.836-11.579 7.973-18.1 3.15-6.595 5.759-12.121 5.759-12.428 0-0.762 1.92-5.057 6.977-15.344 3.15-6.521 5.833-10.743 9.13-14.421 6.288-7.063 6.669-7.752 8.441-14.803 2.461-9.585 7.752-18.95 16.108-28.462 1.452-1.685 5.057-6.14 8.060-9.893 11.579-14.803 16.267-19.405 44.568-43.732 5.907-5.057 10.361-8.368 19.331-14.348 9.13-5.981 16.108-11.431 17.719-13.732 1.538-2.227 5.365-3.606 9.13-3.224 4.061 0.307 7.137-0.849 12.97-5.143 6.362-4.676 16.267-9.672 20.254-10.201 9.365-1.071 11.431-2.682 15.653-11.973 2.301-5.143 3.532-6.83 7.137-9.979 5.143-4.602 10.817-7.666 13.966-7.666 3.987 0.074 9.056 2.682 12.428 6.521 3.458 3.987 10.582 8.060 14.040 8.060 2.609 0 4.602-1.759 8.441-7.518 1.759-2.682 9.056-9.672 19.024-18.187 1.759-1.538 2.756-1.452 5.907 0.542 4.602 2.916 10.361 2.375 19.565-1.846 11.812-5.365 14.348-5.981 31.23-6.756 8.368-0.455 17.412-1.304 20.328-1.994 2.843-0.689 9.204-1.846 14.040-2.609 6.066-0.923 10.669-2.154 14.582-3.839 5.291-2.301 5.981-2.461 9.056-1.612 4.602 1.23 9.746 1.071 10.889-0.307 0.542-0.616 1.378-1.157 1.92-1.157 1.071 0 4.984-4.836 4.984-6.14 0-1.378 1.846-0.455 2.756 1.452 1.538 2.99 4.368 5.452 7.137 6.14 1.538 0.381 10.361 0.923 19.713 1.23 9.365 0.234 18.802 0.762 21.103 1.071 2.301 0.381 7.285 1.071 11.050 1.538 7.285 0.997 11.579 1.685 23.404 3.913 16.108 3.064 33.839 6.288 42.194 7.752 9.365 1.612 14.040 3.064 16.341 5.143 1.23 1.071 1.378 1.994 0.923 5.291-0.689 5.598 1.452 8.441 8.823 11.284 6.362 2.535 7.592 3.987 8.134 10.127 0.307 3.532 0.849 5.057 2.535 6.83 2.609 2.843 4.061 6.288 4.147 9.979 0.074 2.301-0.381 3.15-2.535 4.836-4.455 3.298-8.675 8.368-11.505 13.659-1.685 3.064-5.598 7.9-9.979 12.502-8.589 8.823-17.264 18.408-21.484 23.786-3.765 4.762-5.452 5.598-14.114 7.445-8.368 1.685-10.743 3.532-14.803 11.284-1.612 2.99-3.765 5.907-4.836 6.521-2.154 1.304-10.669 11.579-12.502 15.184-2.375 4.676-6.756 9.13-9.893 10.053-1.685 0.455-8.675 0.997-15.579 1.071-12.883 0.234-14.963-0.148-14.963-2.99 0-0.616-1.23-2.682-2.756-4.455-2.609-3.224-2.916-3.371-6.756-3.371s-4.22-0.148-6.595-3.15c-2.301-2.916-2.682-3.064-5.291-2.609-3.458 0.616-5.598 2.609-7.445 6.756-1.846 4.22-7.371 11.505-10.669 13.966-4.984 3.839-16.193 4.294-42.194 1.612-6.288-0.689-13.425-1.23-15.799-1.23s-6.288-0.689-8.823-1.612c-2.461-0.849-6.214-1.846-8.368-2.227-2.067-0.307-5.598-1.538-7.752-2.609-2.227-1.071-4.529-1.994-5.217-1.994s-3.298-1.994-5.672-4.455c-6.14-6.14-10.976-8.368-19.713-8.897-9.438-0.616-9.893-1.071-9.979-11.357-0.074-6.669-0.381-8.823-2.227-13.806-1.23-3.298-2.609-6.214-3.064-6.595s-2.535-1.304-4.676-2.067c-3.458-1.23-10.361-6.669-10.361-8.207 0-0.307-1.071-2.067-2.375-4.061-1.304-1.92-3.606-5.981-5.217-9.056-1.538-2.99-3.298-6.214-3.765-7.063-2.227-3.839-4.762-13.659-4.762-18.495 0-6.214-0.923-7.973-7.063-13.351-5.598-4.91-11.973-11.124-16.648-16.341-3.15-3.606-3.371-3.679-6.066-3.064-3.913 0.923-5.907 5.217-6.669 14.114-0.542 6.977-0.148 8.589 3.606 14.348l1.612 2.609-3.064 2.843c-2.609 2.301-3.224 3.458-3.679 6.756-0.307 2.227-0.307 4.602-0.074 5.365s0.762 5.672 1.157 10.976c0.455 6.448 1.23 10.889 2.301 13.659 2.227 5.525 2.067 7.592-0.997 12.047-2.067 3.064-2.843 5.057-3.458 9.82-1.23 8.97-1.157 10.127 1.452 13.043 2.535 2.916 2.843 5.365 1.23 9.893-0.923 2.461-0.849 3.371 0.762 8.441 3.765 11.739 4.061 21.867 1.071 32.449-2.154 7.666-5.057 12.736-15.344 27.231-2.535 3.606-6.214 8.897-8.207 11.886-1.994 2.916-3.913 5.672-4.22 6.14-3.224 3.679-11.431 15.184-13.351 18.568-1.304 2.227-3.679 5.759-5.365 7.752-1.612 1.92-3.913 5.057-5.143 6.903-1.157 1.846-9.278 10.508-18.027 19.257-8.749 8.675-16.883 17.031-17.953 18.495-2.843 3.765-9.13 15.96-24.020 46.415-4.984 10.053-10.669 20.709-12.736 23.712-4.368 6.214-4.762 8.675-1.685 11.579 1.157 1.071 2.682 1.92 3.371 1.92s1.685 0.542 2.227 1.157c0.542 0.616 1.23 1.157 1.612 1.157 1.538 0 8.134 5.525 9.893 8.207 3.606 5.598 7.666 8.515 18.027 12.809 1.685 0.689 3.765 1.685 4.602 2.154 0.849 0.542 3.458 1.92 5.759 3.15 6.521 3.532 7.592 4.455 24.783 20.488 4.294 4.061 9.278 8.515 11.124 9.893 1.759 1.378 3.765 3.458 4.368 4.602 0.616 1.23 2.843 2.99 5.291 4.22 4.147 2.067 4.294 2.067 9.979 1.157 7.211-1.157 8.441-0.455 7.752 4.22-0.381 2.682-0.148 3.606 1.994 6.448 1.994 2.756 2.756 3.224 4.455 2.916 1.071-0.234 3.839-0.616 5.981-0.849 3.679-0.455 4.22-0.381 5.759 1.452 1.612 1.685 1.759 2.682 1.759 9.438 0 9.438 0.542 10.508 15.726 32.067 2.067 2.916 3.765 5.833 3.765 6.362 0.074 1.452 4.836 3.987 7.592 3.987 2.154 0 3.532-0.923 8.441-5.598 3.298-3.15 7.518-6.595 9.365-7.752 7.826-4.836 19.405-12.502 25.398-16.796 3.987-2.843 11.666-10.275 18.335-17.88 1.157-1.304 2.916-3.987 5.759-8.675 0.849-1.378 3.371-4.91 5.598-7.9 2.154-2.916 3.987-5.907 3.987-6.595 0-0.616 0.455-1.759 1.071-2.375 1.685-1.994 4.91-12.428 5.452-17.498 0.689-7.137-1.92-12.354-5.291-10.434-0.616 0.381-4.676 3.913-8.97 7.9-9.746 9.13-11.050 9.979-20.796 14.040-13.191 5.598-16.034 6.595-24.622 8.675-8.589 1.994-10.361 1.994-17.031-0.381-1.23-0.381-4.455-1.538-7.063-2.461-5.759-1.994-9.585-4.602-17.88-12.194-12.121-11.198-13.585-12.736-16.796-17.412-5.525-8.134-8.589-9.438-14.656-6.362-1.685 0.849-3.458 1.538-3.987 1.538-0.616 0-2.535-1.994-4.294-4.529-1.846-2.461-4.529-5.833-5.981-7.445-1.452-1.685-2.609-3.532-2.609-4.22s-0.849-2.461-1.846-3.987c-3.224-4.676-3.532-5.672-3.987-11.357-0.542-6.362-3.298-13.893-7.518-20.18-1.538-2.301-2.756-4.602-2.756-5.217 0.074-2.756 4.836-14.188 7.666-18.408 4.147-6.14 7.826-10.053 16.502-17.338 3.839-3.224 9.365-8.060 12.281-10.817 38.97-36.595 40.274-37.899 40.274-40.274 0-0.997 0.542-2.227 1.157-2.756s1.157-1.378 1.157-1.92c0-0.997 1.612-1.92 3.298-1.92 2.154 0 3.064 3.606 3.606 13.425 0.689 13.277 2.535 17.264 14.040 30.234 3.765 4.22 8.207 9.672 9.893 12.121 4.368 6.14 12.354 14.274 18.261 18.495 2.756 1.92 6.521 4.836 8.441 6.362 10.582 8.749 15.037 10.053 22.407 6.448 2.154-1.071 4.529-1.92 5.217-1.92 1.994 0 8.675 5.365 11.124 8.97 5.057 7.371 8.897 14.729 10.434 19.799 1.994 6.521 3.298 9.365 5.907 12.047 1.759 1.92 2.535 2.154 6.595 2.154 8.675 0 11.739-1.92 24.167-14.729 7.445-7.752 8.207-8.281 10.976-8.281 1.759 0 3.15 0.381 3.371 1.071 0.616 1.538-3.15 11.579-5.833 15.653-1.23 1.92-2.301 4.368-2.301 5.452s-0.689 3.458-1.538 5.291c-0.849 1.759-1.612 4.529-1.846 6.14-0.542 4.22-0.997 5.057-3.606 6.214-1.304 0.616-3.532 1.994-4.836 3.064-4.836 4.147-8.97 4.836-15.037 2.682-4.529-1.612-6.83-0.689-9.438 3.679-1.071 1.846-3.15 4.602-4.676 6.214s-2.756 3.606-2.756 4.455c0 3.224 4.602 9.672 9.13 12.883 2.535 1.685 4.836 3.15 5.291 3.15 0.381 0 1.304 0.689 1.994 1.452 0.762 0.849 3.913 2.682 6.977 4.22 7.371 3.606 12.662 9.746 12.662 14.803 0.074 1.157 0.689 4.061 1.538 6.362s1.452 6.214 1.538 8.589c0 2.375 0.542 6.595 1.157 9.278 1.538 6.595 6.214 19.947 8.515 24.315 0.997 1.846 1.846 3.913 1.846 4.455s0.762 2.461 1.612 4.22c1.612 3.064 4.676 15.886 6.14 25.471 0.381 2.535 1.452 8.589 2.375 13.425 1.452 7.445 1.685 11.666 1.759 26.849 0 17.793 0 18.027-1.846 21.103-1.071 1.685-2.154 3.224-2.375 3.458-0.307 0.234-1.304 1.846-2.301 3.606-3.458 6.288-12.588 9.979-16.341 6.595-2.535-2.227-6.756-4.529-9.512-5.057-1.759-0.381-3.064 0-4.984 1.304-2.301 1.538-2.535 1.994-2.461 5.525 0 4.984 4.368 12.047 12.97 21.251 3.532 3.679 7.518 8.281 8.97 10.201 1.378 1.994 3.765 4.984 5.291 6.756 2.99 3.458 7.826 11.124 9.056 14.495 0.455 1.157 2.067 4.061 3.606 6.448s3.532 6.595 4.529 9.365c4.061 11.666 5.057 14.188 7.211 18.716 2.843 5.833 6.066 15.111 6.977 19.713 0.307 1.92 1.994 5.672 3.679 8.441 4.602 7.666 7.666 13.966 8.207 17.338 1.157 6.362 4.368 8.368 9.512 5.759 3.532-1.846 9.204-6.756 10.127-8.897 0.381-0.849 2.067-3.765 3.839-6.521 2.916-4.602 8.368-17.264 8.368-19.492 0-1.994 7.973-19.184 10.201-21.867 0.923-1.071 2.227-4.294 4.061-10.053 2.682-8.368 11.812-29.766 14.963-34.91 0.762-1.304 3.064-5.759 5.143-9.979 2.154-4.22 5.365-10.053 7.371-12.883 4.602-6.83 5.672-10.743 3.839-13.966-3.064-5.291-4.984-7.137-7.826-7.666-7.445-1.304-16.108-3.765-17.953-5.057-2.535-1.846-3.987-6.066-3.458-10.201 1.759-13.659 2.99-21.017 3.987-24.475 0.849-3.15 1.071-7.973 0.997-22.407-0.148-22.248 0.542-43.499 1.538-50.254 0.455-2.756 1.23-8.134 1.685-11.886 0.542-3.839 1.378-8.441 1.994-10.361s2.154-7.592 3.458-12.662c3.532-13.351 6.288-19.024 12.047-24.315 4.602-4.22 7.826-8.515 7.826-10.434 0-0.542 0.689-2.375 1.452-4.22 2.067-4.529 3.913-10.053 5.057-15.726 1.378-6.595 4.061-8.515 7.9-5.907 3.371 2.375 9.204 3.532 20.87 4.22 14.963 0.849 26.013-0.148 32.99-2.843 5.143-2.067 17.572-10.201 20.402-13.425 2.375-2.609 4.529-6.669 5.672-10.582 0.542-1.92 2.067-6.595 3.371-10.361 2.301-6.756 2.301-7.211 2.154-19.799-0.074-9.278-0.455-13.425-1.23-14.963-0.616-1.157-1.452-3.606-1.994-5.525-1.304-4.91-6.14-10.976-10.817-13.425-3.298-1.759-11.579-3.371-13.117-2.609-2.609 1.378-1.538 5.217 2.843 10.053 3.298 3.606 7.063 9.893 7.973 13.425 0.923 3.298 0.381 5.833-2.154 10.669-0.923 1.759-1.92 5.672-2.301 8.823-0.689 5.759-2.756 12.121-4.22 13.117-0.455 0.307-2.535 0.616-4.676 0.689-4.984 0.074-5.907 0.455-8.675 3.987-3.765 4.762-12.121 10.361-16.575 11.198-5.598 0.997-19.024 1.071-22.629 0.074-1.685-0.455-4.676-1.994-6.669-3.532-6.362-4.91-8.97-5.907-12.588-4.91-4.147 1.157-11.973 8.823-17.953 17.793-4.984 7.371-7.285 8.97-11.357 7.826-3.224-0.923-3.913-3.532-1.994-7.371 1.92-3.987 1.759-8.368-0.542-12.809-1.071-1.994-2.227-5.217-2.535-7.063-0.542-3.064-0.849-3.458-3.987-4.676-4.602-1.759-6.669-1.685-10.508 0.307-2.609 1.378-3.458 1.538-5.143 0.762-2.154-0.923-2.227 0 1.538-12.428 1.994-6.595 4.147-11.666 4.984-11.812 0.997-0.148 14.274 10.976 20.796 17.338 6.14 6.066 7.137 6.756 9.746 6.756 1.994 0 3.913-0.762 6.448-2.535 4.91-3.532 6.521-5.833 7.826-11.357 4.762-20.488 11.050-29.84 32.227-47.88 4.91-4.22 11.431-9.13 14.495-10.889 13.191-7.666 15.27-9.979 19.639-21.867 1.23-3.224 3.458-7.518 5.057-9.512 2.682-3.606 2.756-3.839 2.227-8.368-0.542-4.984-0.997-6.066-4.836-11.505-2.843-4.061-3.064-7.063-0.542-6.669 3.064 0.542 8.368 3.532 11.124 6.448 2.535 2.609 5.833 8.368 9.438 16.722 0.689 1.452 1.378 5.365 1.685 8.589 0.455 5.365 0.762 6.214 2.916 8.281 2.375 2.227 5.759 4.22 12.662 7.666 4.061 1.994 5.291 3.913 5.759 9.13 0.542 4.836 2.227 7.592 9.278 14.963 2.756 2.916 5.057 5.525 5.057 5.759 0 0.307 2.682 2.756 5.907 5.452 3.298 2.756 7.9 7.063 10.201 9.585 2.301 2.461 5.672 5.981 7.518 7.752 1.759 1.759 3.224 3.606 3.224 4.147 0 3.15-3.765 8.060-12.428 16.108-14.495 13.659-38.749 37.899-46.341 46.488-11.357 12.809-16.883 20.562-25.090 34.91-2.227 3.913-6.214 9.13-9.365 12.354-1.378 1.378-3.224 2.227-5.598 2.609-4.294 0.616-17.953-0.849-20.106-2.154-0.762-0.542-2.375-2.535-3.458-4.455-4.22-7.518-13.191-18.261-16.341-19.639-3.458-1.378-8.897-0.148-10.669 2.535-1.071 1.612-1.071 2.067 0.074 5.143 0.762 1.994 1.452 6.83 1.759 11.739 0.381 7.371 0.689 8.749 2.682 12.121 3.371 5.759 7.518 10.743 11.050 13.351 1.759 1.23 3.679 2.916 4.22 3.765 1.538 2.067 3.224 2.843 10.669 4.676 10.053 2.609 19.097 8.515 33.679 22.174 10.127 9.512 12.97 11.579 16.502 12.194 3.224 0.542 7.445-0.849 9.438-3.064 0.923-0.923 2.375-3.913 3.371-6.669 0.923-2.756 2.301-5.672 2.99-6.521s2.067-2.916 3.15-4.602c1.071-1.685 2.609-4.061 3.458-5.291 0.762-1.23 2.301-3.606 3.298-5.365 2.916-4.984 8.589-13.659 10.582-16.193 4.294-5.452 11.739-15.799 15.184-21.017 1.994-3.15 4.455-6.595 5.452-7.666 13.425-15.344 16.883-20.18 18.1-25.545 0.849-3.987 2.916-6.83 7.137-10.127 1.846-1.378 8.134-7.063 14.040-12.662 6.83-6.448 12.883-11.505 16.722-13.806 3.298-1.994 9.438-5.981 13.585-8.749 4.147-2.843 9.365-5.981 11.505-7.063 2.227-1.071 5.143-2.916 6.521-4.147 1.378-1.304 2.916-2.375 3.298-2.535 0.455-0.148 1.071-1.685 1.538-3.532 0.542-2.461 0.455-3.913-0.455-5.981-1.538-3.679-1.538-3.606 1.157-5.143 1.846-1.157 2.301-1.92 2.301-4.061 0-4.061-3.458-10.053-8.749-15.27-4.455-4.294-9.204-9.979-11.973-14.274-0.616-0.923-1.994-2.609-3.064-3.679s-3.532-4.061-5.365-6.595c-6.669-8.823-11.973-13.806-17.031-16.108-2.682-1.157-6.521-3.532-8.675-5.291-6.362-5.217-17.645-16.957-20.402-21.325-2.843-4.529-6.14-9.056-9.13-12.502-2.301-2.609-6.977-10.508-10.743-18.027-1.378-2.756-2.843-5.143-3.224-5.291-0.455-0.148-1.92-1.23-3.298-2.461s-3.064-2.227-3.679-2.227c-0.689 0-1.452-0.381-1.685-0.762-0.234-0.455-1.157-0.762-1.994-0.762-1.92 0-1.92-2.375 0.074-4.22 0.849-0.762 1.538-1.846 1.538-2.301 0-0.542 0.542-1.378 1.157-1.92 3.224-2.682-0.148-7.445-7.752-10.817-3.15-1.378-5.672-2.756-5.672-3.064s-1.378-2.227-3.064-4.147c-1.685-1.92-3.064-3.913-3.064-4.294s-1.452-2.375-3.298-4.368c-4.529-4.91-6.448-8.368-7.518-13.277-0.455-2.301-1.612-5.365-2.535-6.83-3.532-5.759-3.765-6.521-2.756-9.672 0.542-1.685 1.304-3.371 1.685-3.913 0.455-0.616 0.455-1.92-0.148-3.606-0.542-1.685-0.923-10.275-0.997-23.626-0.148-20.796-0.148-20.944-2.067-24.315-4.529-8.060-8.675-16.796-9.204-19.405-0.616-3.298 0.762-12.354 2.301-15.184 1.612-2.916 1.538-6.14-0.234-10.275l-1.612-3.765 2.682-2.227c5.217-4.368 11.357-4.676 10.817-0.542-0.997 7.285-0.997 14.656-0.074 15.726 0.997 1.23 5.143 1.157 9.672-0.148 1.378-0.381 1.92-0.074 2.535 1.538 1.994 5.291 15.111 14.582 23.478 16.648 6.83 1.612 14.114 5.981 19.947 11.973 7.137 7.371 9.278 8.207 18.802 7.518 8.897-0.616 11.505 0.234 14.889 4.91 1.304 1.759 4.368 5.907 6.903 9.13s5.452 7.137 6.521 8.589c3.765 5.291 8.060 9.056 11.050 9.585 1.759 0.381 3.913 1.612 5.452 3.15 2.227 2.227 2.682 3.298 3.15 7.371l0.455 4.836 6.669 6.521c7.063 6.977 9.893 10.889 14.274 19.799 1.538 3.064 4.529 7.445 6.595 9.585l3.765 3.987-0.148 4.984c-0.234 4.91-0.074 5.217 7.137 19.565 3.987 7.973 8.207 16.648 9.365 19.184s2.843 5.981 3.839 7.752c0.923 1.685 2.067 4.061 2.609 5.365 0.455 1.23 1.452 3.606 2.227 5.291 0.689 1.685 2.301 5.672 3.532 8.823s2.99 7.445 3.839 9.585c0.849 2.067 2.067 5.525 2.682 7.666 0.689 2.067 2.843 7.592 4.91 12.281 1.994 4.602 4.762 11.579 5.981 15.418l2.375 6.977-1.538 4.455c-2.375 6.903-1.994 9.13 2.301 13.806 2.535 2.843 3.532 7.063 1.994 8.749-1.452 1.685-2.756 8.441-1.994 10.508 0.381 0.923 2.154 2.461 3.987 3.532 4.455 2.461 4.529 4.061 0.234 8.207-5.452 5.291-5.365 6.288 1.846 17.719 4.368 6.903 4.294 6.448 2.843 12.281-1.452 6.066-1.846 24.549-0.542 27.772 0.689 1.846 1.23 2.154 3.839 2.154 4.061 0 4.984 1.304 3.15 4.455-0.849 1.378-2.067 2.682-2.682 2.99-0.689 0.234-1.994 1.846-2.916 3.606-1.612 2.99-1.685 4.061-1.685 20.562v17.412l4.529 4.676-1.685 2.99c-2.227 3.913-4.676 11.357-4.762 14.114 0 1.452 0.762 2.756 2.301 4.147 1.304 0.997 2.301 2.535 2.301 3.224 0 0.762-1.378 3.15-2.99 5.365-1.612 2.154-3.371 5.057-3.913 6.448s-1.23 3.15-1.538 3.987c-1.23 3.064-1.452 4.22-1.92 12.662-0.616 8.589-3.765 25.471-6.14 32.608-1.685 4.984-3.839 10.817-5.833 16.108-0.923 2.375-1.846 6.288-2.154 8.749-0.542 4.368-2.461 8.515-3.913 8.515-0.381 0-2.154 1.846-3.839 4.147-2.535 3.371-3.224 5.057-3.606 8.368-0.381 3.913-0.148 4.676 2.461 9.365l2.843 5.143-0.997 5.057c-1.685 9.204-4.368 13.499-13.966 22.863-4.762 4.602-12.281 11.431-16.648 15.27-4.368 3.765-11.886 10.817-16.796 15.579-4.91 4.836-10.582 10.275-12.588 12.194s-5.143 5.525-6.83 8.060c-3.679 5.452-6.669 8.897-16.883 19.405-4.061 4.22-8.281 8.897-9.278 10.361-1.92 2.843-8.589 12.354-10.508 15.111-1.304 1.759-6.669 4.836-8.441 4.836-0.616 0-3.913 0.689-7.285 1.452-3.371 0.849-7.371 1.759-8.823 1.994-1.538 0.234-4.602 1.612-6.903 3.064s-4.455 2.682-4.836 2.682c-0.381 0-3.15 1.846-6.14 4.061-15.184 11.284-21.177 15.184-25.853 16.883-14.274 5.143-17.719 6.756-21.632 10.361-1.759 1.612-2.535 1.846-5.525 1.452-5.598-0.762-8.134 0.074-12.194 4.294-3.298 3.458-3.839 3.679-4.984 2.682-2.682-2.301-4.91-2.227-8.97 0.455-2.067 1.378-5.452 3.298-7.371 4.22-4.368 1.994-5.525 3.371-6.756 7.592-0.997 3.606-3.987 5.598-6.214 4.061-1.378-0.923-6.756-3.532-8.675-4.22-0.762-0.234-4.22 0.234-7.666 0.997s-8.207 1.685-10.508 1.92c-2.301 0.307-6.903 1.23-10.275 2.227-7.518 2.154-8.441 3.606-4.984 7.973 3.532 4.455 5.365 5.143 11.739 4.455 9.438-1.071 8.897-1.23 17.793 4.836l3.765 2.609 7.518-0.542c10.976-0.762 15.96-1.612 19.799-3.298 4.22-1.846 9.204-3.458 17.264-5.452 7.826-1.92 18.1-7.211 25.016-12.97 10.582-8.749 14.421-10.053 30.234-10.434 9.365-0.148 10.127-0.307 14.889-2.609 6.669-3.298 16.648-9.82 21.939-14.421 2.461-2.067 6.362-5.143 8.823-6.83 12.883-8.897 16.267-11.431 21.411-15.886 3.15-2.682 7.592-6.669 9.893-8.97 2.375-2.227 5.143-4.602 6.14-5.291 2.154-1.452 4.836-7.285 4.836-10.508 0-1.685-0.849-2.99-2.756-4.676-3.839-3.298-4.762-6.066-2.99-9.278 1.685-3.15 3.679-3.298 7.973-0.542 3.606 2.227 6.362 2.154 11.812-0.542 4.061-1.846 19.713-17.953 27.625-28.227 3.371-4.455 6.977-8.897 8.060-10.053 3.298-3.458 7.666-8.97 7.666-9.746 0-0.381 1.378-2.067 3.064-3.679s3.064-3.298 3.064-3.679c0-0.542 4.294-6.448 5.452-7.445 0.234-0.234 1.23-1.994 2.154-4.061 0.997-1.994 2.067-3.606 2.375-3.606 0.381 0 0.923-0.762 1.157-1.759 0.307-0.923 1.378-3.532 2.375-5.759s1.846-4.529 1.846-5.143c0-0.542 0.307-1.23 0.689-1.538 0.381-0.234 1.157-1.685 1.685-3.298 0.455-1.538 1.759-4.061 2.682-5.525 0.997-1.452 1.846-3.064 1.846-3.679 0-0.542 1.23-2.682 2.682-4.836s2.682-4.455 2.682-5.057c0-0.616 1.92-4.294 4.22-8.281 2.375-3.987 5.143-9.512 6.214-12.354s3.298-7.826 4.91-11.050c1.685-3.224 3.064-6.362 3.064-6.977s0.542-1.759 1.157-2.535c0.616-0.849 1.378-3.224 1.612-5.217 0.307-2.067 0.997-4.294 1.685-4.91 0.616-0.616 1.92-4.294 2.99-8.207 0.997-3.913 2.843-9.979 4.061-13.585 1.157-3.606 2.756-8.97 3.458-11.886 0.689-2.99 1.612-5.907 1.92-6.521 0.381-0.689 0.997-5.833 1.452-11.505s1.157-11.579 1.612-13.043c0.381-1.452 1.23-10.508 1.846-20.020 0.689-9.512 1.538-19.184 1.994-21.411 0.381-2.227 0.762-9.512 0.762-16.267 0-13.043 0.616-15.799 3.913-17.572 1.378-0.689 1.92-0.542 3.298 0.762 1.304 1.304 1.685 2.916 2.067 8.134 0.307 5.452 0.689 6.83 2.301 8.515 4.602 4.984 10.508 4.836 15.492-0.381 4.91-5.057 6.066-7.973 5.981-15.418 0-3.606-0.381-7.518-0.762-8.675-0.455-1.157-1.157-5.525-1.538-9.672s-1.23-8.589-1.92-9.893c-0.689-1.304-1.92-6.83-2.756-12.194-2.843-18.335-3.15-19.799-4.984-27.846-1.071-4.455-2.609-12.736-3.371-18.408-1.846-12.281-4.294-25.619-6.214-32.99-0.455-1.92-0.997-4.294-1.157-5.365-0.234-1.994-2.067-8.515-3.532-12.662-0.455-1.304-1.538-4.368-2.375-6.903s-2.375-6.669-3.298-9.204c-0.997-2.535-2.756-7.211-3.913-10.361s-2.535-6.288-3.064-6.903c-0.542-0.689-1.92-3.15-2.99-5.525s-2.461-4.762-3.064-5.217c-0.616-0.542-1.157-1.759-1.157-2.756s-0.381-1.846-0.849-1.846c-0.381 0-1.612-1.92-2.682-4.294s-2.375-4.836-2.99-5.452c-0.616-0.616-1.157-1.612-1.157-2.154s-0.849-1.994-1.846-3.224c-0.997-1.157-2.301-3.371-2.916-4.836-1.612-3.765-7.137-9.056-10.434-9.979-4.294-1.157-5.452-0.923-7.973 1.538-1.304 1.304-3.064 2.461-3.913 2.535-1.452 0.148-1.685-0.381-2.154-3.679-1.685-12.883-5.907-16.957-16.722-15.96-4.368 0.381-4.676 0.307-8.897-2.682-2.375-1.759-5.452-3.532-6.83-3.987-1.304-0.455-3.606-2.375-5.143-4.22-2.609-3.15-3.532-5.057-6.066-12.97-0.542-1.612-2.227-4.602-3.765-6.669-3.298-4.368-4.676-10.508-4.676-20.944v-6.448l-3.458-4.368c-1.846-2.461-4.061-4.836-4.836-5.291-3.839-2.301-6.83-4.294-8.589-5.759-1.071-0.923-2.99-2.461-4.22-3.458-3.298-2.609-5.143-8.207-5.452-17.19-0.307-9.746-0.923-13.966-2.301-16.034-1.612-2.609-2.301-8.675-0.997-8.749 3.15-0.307 6.448 1.157 13.499 5.907 3.458 2.301 8.060 2.916 11.505 1.452 5.598-2.375 11.505-10.582 10.508-14.729-0.689-2.843-3.224-7.9-3.987-7.9-0.381 0-1.452-1.452-2.461-3.298-0.997-1.759-3.458-5.365-5.525-7.973-1.994-2.609-3.679-5.057-3.679-5.365s-3.224-3.679-7.137-7.518c-3.913-3.913-8.368-8.97-9.979-11.284-1.538-2.375-3.298-4.455-3.987-4.762-0.616-0.234-1.157-1.071-1.157-1.92 0-2.227-5.672-7.445-13.966-12.736-6.669-4.294-7.445-4.529-11.431-4.455-4.676 0.074-8.675 1.685-9.893 3.987-1.538 2.916-0.923 8.589 1.304 11.812 2.609 3.765 3.532 10.127 2.375 16.108-0.689 3.765-0.616 5.143 0.542 8.897 1.157 3.987 1.685 4.676 5.291 6.83 2.154 1.304 3.371 2.375 2.682 2.461-0.689 0-1.685-0.542-2.227-1.157s-1.612-1.157-2.375-1.157c-0.689 0-2.682-1.23-4.294-2.756s-4.147-3.679-5.598-4.762c-1.452-1.071-4.368-3.679-6.362-5.672-2.067-1.994-4.147-3.679-4.676-3.679-0.455 0-2.609-1.612-4.676-3.532-2.154-1.92-4.836-4.061-6.14-4.676-1.23-0.689-3.532-2.227-4.984-3.371s-4.602-2.916-6.903-3.765c-2.843-1.157-4.984-2.609-6.521-4.529-2.154-2.756-3.987-4.22-8.823-6.977-1.071-0.616-3.224-2.067-4.676-3.224-4.147-3.224-14.803-9.056-16.502-9.056-0.234 0-2.99-1.452-5.981-3.298-2.99-1.759-6.977-3.913-8.897-4.676s-5.672-2.375-8.441-3.532c-2.756-1.157-8.441-3.606-12.662-5.365s-8.675-3.679-9.979-4.294c-2.916-1.378-14.582-5.598-17.645-6.362-1.23-0.381-4.368-1.304-6.903-2.227-11.739-3.987-24.167-7.826-27.92-8.675-2.301-0.455-5.525-1.538-7.285-2.301s-4.368-1.452-5.833-1.452c-1.538 0-4.836-0.542-7.285-1.23-2.535-0.616-7.371-1.538-10.743-1.92-3.371-0.455-7.137-1.304-8.441-1.92-1.23-0.689-5.057-1.452-8.441-1.846s-7.518-1.157-9.204-1.612c-1.685-0.455-9.585-1.157-17.645-1.538-16.267-0.762-17.572-0.923-23.010-2.227-4.984-1.23-42.047-1.23-53.171 0-4.529 0.455-12.809 1.378-18.495 2.067-5.672 0.616-13.966 1.157-18.408 1.157s-9.672 0.307-11.579 0.762c-4.22 0.923-10.127 1.92-17.19 2.916-2.916 0.455-6.362 1.304-7.752 1.994-2.301 1.071-2.535 1.612-3.064 5.525-1.071 9.204-5.525 15.344-14.348 19.799-2.843 1.452-5.672 2.609-6.214 2.609-1.452 0-4.22-3.064-5.143-5.833-0.455-1.304-1.685-2.843-2.682-3.371-1.071-0.542-1.92-1.538-1.92-2.067 0-0.762 0.381-0.849 1.378-0.307 0.923 0.455 2.609 0.307 5.452-0.689 4.984-1.685 9.82-6.288 13.585-12.883l2.682-4.762h3.987c6.83-0.074 13.499-4.455 14.803-9.746 0.616-2.375-0.074-8.897-1.23-10.889-1.071-2.067-10.053-4.91-12.502-3.987-0.923 0.381-3.606 2.154-5.907 3.913-2.301 1.846-4.602 3.606-5.143 4.061-0.689 0.455-2.375-0.616-5.672-3.765l-4.676-4.529-5.833-0.234c-5.452-0.234-6.214-0.074-9.438 1.994zM838.168 158.004c0 0.381 0.455 0.762 0.997 0.762 0.455 0 2.301 1.23 3.987 2.609 2.535 2.227 2.843 2.756 1.759 3.15-1.538 0.616-7.137-2.916-8.897-5.598-0.997-1.538-0.997-1.685 0.542-1.685 0.849 0 1.612 0.307 1.612 0.762zM820.522 175.65c1.685 1.071 0 3.371-2.682 3.679-2.154 0.307-6.066-2.535-5.291-3.765 0.542-0.923 6.521-0.849 7.973 0.074zM951.94 340.833c0.616 0.923 4.147 4.836 7.826 8.589 3.679 3.839 7.592 7.973 8.589 9.365l1.846 2.375-1.685 3.987c-1.378 3.298-1.612 4.602-1.071 8.675 0.307 2.609 0.689 6.903 0.762 9.438 0.074 3.298 0.689 5.981 2.154 8.823 1.071 2.301 2.227 5.598 2.461 7.371 0.307 1.759 0.997 3.606 1.612 4.147 1.304 1.071 5.672 8.589 5.672 9.82 0 0.455 0.923 2.227 1.994 3.839 1.538 2.375 2.154 4.602 2.756 10.817l0.923 7.9-2.154 1.846c-2.99 2.535-4.147 1.071-4.762-6.066-0.542-5.452-1.071-6.903-5.981-15.653-0.997-1.685-1.994-4.294-2.154-5.759-0.234-1.452-0.997-4.529-1.759-6.83-0.689-2.301-1.538-6.14-1.846-8.441s-1.071-5.452-1.759-6.903c-0.616-1.452-1.538-5.057-1.994-7.973-0.455-3.064-1.538-6.214-2.375-7.445-0.923-1.23-1.612-2.843-1.612-3.606 0-2.067-5.057-14.582-9.365-23.097-1.23-2.301-2.154-4.836-2.154-5.598 0-1.994 2.682-1.759 4.061 0.381zM99.653 352.807c0.234 0.381 0.074 1.685-0.381 2.99-0.542 1.538-0.542 2.843-0.074 3.606 1.759 3.224-3.458 16.502-6.448 16.502-1.452 0-1.378-0.542 0.923-6.595 1.846-4.984 1.92-6.066 0.689-11.198-0.455-1.685-0.148-2.461 1.538-3.987 2.301-2.154 3.15-2.375 3.765-1.304zM498.14 953.984c0.616 1.378 0.689 3.064 0.148 5.833-0.455 2.227-0.762 4.061-0.762 4.22 0 0.997-2.843 2.609-4.602 2.609-2.682 0-3.532-1.157-2.461-3.298 0.381-0.923 1.23-3.224 1.759-5.143 0.997-3.298 3.064-6.14 4.368-6.14 0.381 0 1.071 0.849 1.538 1.92z"></path>
<path fill="#FFF" d="M219.799 138.058c-8.207 0.455-11.124 1.612-13.893 5.525-3.15 4.529-10.127 11.431-15.653 15.579-2.916 2.227-7.137 5.672-9.278 7.826-2.154 2.067-6.595 5.759-9.893 8.281-3.298 2.461-9.672 8.134-14.188 12.588s-16.108 15.726-25.706 25.016c-9.672 9.278-17.793 17.19-18.187 17.645-4.836 5.907-10.127 12.588-12.883 16.415-1.92 2.609-5.525 7.371-8.060 10.508-2.535 3.224-5.598 7.518-6.903 9.512-1.23 1.994-3.765 5.452-5.598 7.752-8.589 10.817-11.886 16.193-13.659 22.407-2.301 7.666-2.301 8.207-0.074 8.207 2.301 0 7.592-5.217 12.502-12.121 1.994-2.843 3.839-5.291 4.147-5.525 0.234-0.234 2.99-3.839 6.066-8.060 14.421-19.492 18.876-25.164 21.793-28.154 1.759-1.759 4.984-5.452 7.285-8.207s6.83-7.518 10.053-10.434c3.298-2.99 10.743-10.201 16.648-16.108 13.191-13.191 28.388-27.158 35.599-32.608 1.92-1.452 6.362-5.057 9.979-8.060s7.445-5.981 8.589-6.756c2.609-1.612 5.833-1.685 7.592-0.074s6.756 1.538 10.361-0.148c2.916-1.378 4.294-2.682 15.492-14.348 13.043-13.659 10.053-17.793-12.121-16.648z"></path>
<path fill="#FFF" d="M911.358 216.158c-2.609 2.067-4.147 5.833-4.147 10.127 0 3.765 0.148 3.987 5.672 9.585 5.057 5.217 5.907 5.759 8.675 5.759 3.913 0 9.056-3.606 9.672-6.903 0.689-3.298-2.154-11.505-4.676-13.585-2.756-2.301-10.582-6.362-12.281-6.362-0.689 0-2.067 0.616-2.916 1.378z"></path>
<path fill="#FFF" d="M940.278 258.279c-0.542 1.23-1.157 3.839-1.378 5.981-0.307 3.15-0.074 4.294 1.452 6.521 1.685 2.461 2.154 2.682 5.759 2.682 6.83-0.074 11.198-4.984 9.278-10.434-1.685-4.836-4.762-6.83-10.434-6.83-3.371 0-3.839 0.234-4.676 2.067z"></path>
<path fill="#FFF" d="M156.884 374.279c-4.984 0.997-6.977 3.298-8.897 10.053-0.997 3.458-4.294 7.9-10.669 14.274-5.057 5.057-7.063 6.595-10.889 7.973-2.609 0.923-5.452 2.535-6.448 3.532-1.538 1.612-1.538 1.994-0.689 4.147 0.542 1.304 1.92 2.843 2.99 3.458 2.067 1.071 7.752 6.288 12.428 11.505 1.538 1.685 4.061 4.061 5.598 5.217s2.756 2.609 2.756 3.224c0 1.071-4.294 2.682-7.137 2.682-1.612 0-5.217 1.612-9.365 4.22-1.685 1.071-3.606 2.154-4.22 2.461-6.288 2.756-9.672 7.285-10.508 13.966-0.455 4.22 0.616 6.977 2.756 6.977 0.849 0 3.224-1.378 5.452-3.15 5.672-4.455 8.515-5.525 12.281-4.529 3.532 0.923 4.147 2.535 4.91 12.428 0.307 3.839 0.997 6.756 1.994 8.441 1.378 2.375 1.378 2.756 0.381 4.22-0.689 0.997-2.609 1.92-4.836 2.461-6.669 1.378-10.582 3.532-13.351 7.371-1.378 1.92-3.679 5.143-5.143 7.063-4.602 6.362-5.217 17.103-0.923 17.719 2.067 0.307 4.368-1.612 8.589-7.285 1.685-2.227 4.147-4.676 5.525-5.365 3.371-1.846 18.568-7.826 22.789-8.97 5.598-1.612 9.585-4.529 11.050-8.060 1.685-4.368 1.538-5.907-1.452-11.198-6.362-11.357-6.756-12.428-7.137-21.484-0.148-4.676-0.616-8.823-0.923-9.204-0.381-0.455-0.849-1.994-1.157-3.532l-0.542-2.756 4.91-0.997c5.365-1.071 10.275-3.458 11.050-5.291 0.234-0.689 0.689-4.676 0.849-8.97 0.381-7.666 0.381-7.752-1.685-9.365-1.304-1.071-3.224-1.685-5.057-1.685-1.612 0-3.15-0.381-3.458-0.849-0.616-0.997 1.685-4.22 4.455-6.288 1.846-1.378 2.067-1.378 5.759-0.074 3.371 1.157 4.368 1.23 7.063 0.381 1.759-0.455 4.455-1.994 5.981-3.371 3.064-2.682 7.137-10.508 7.137-13.732 0-3.839-1.538-4.455-11.050-4.455-9.585 0-10.669-0.455-10.434-4.368 0.307-4.294-0.074-5.217-2.535-6.83-3.15-2.154-4.91-2.535-8.207-1.92zM152.355 416.326c0.381 0.381-0.148 1.685-1.23 2.916-1.538 1.92-2.067 2.154-3.224 1.452-0.762-0.455-1.452-1.994-1.612-3.371-0.234-2.535-0.234-2.535 2.609-2.067 1.538 0.307 3.15 0.762 3.458 1.071z"></path>
<path fill="#FFF" d="M6.589 453.991c-2.375 0.923-3.987 2.154-4.984 3.987-1.538 2.535-1.612 3.765-1.452 22.248 0.148 11.666 0.616 22.555 1.304 26.849 0.542 3.987 0.849 8.589 0.689 10.201-0.234 1.612 0 4.91 0.455 7.285s0.997 11.284 1.23 19.713c0.381 15.726 0.849 19.713 3.064 25.706 1.157 2.916 1.23 5.598 0.923 17.88-0.307 13.117-0.234 14.582 1.071 16.193 3.532 4.529 3.224 6.977-1.685 12.588-2.227 2.535-2.375 2.99-1.994 6.977 0.381 4.455 2.301 9.056 7.137 17.719 2.756 5.057 5.365 12.121 9.204 25.324 1.157 3.987 2.682 8.515 3.371 9.979 0.762 1.452 2.461 5.833 3.765 9.672 1.378 3.839 3.298 8.589 4.368 10.669 0.997 2.067 1.846 4.22 1.846 4.836s0.455 2.154 1.071 3.458c0.616 1.378 1.685 3.679 2.375 5.143s2.154 4.368 3.371 6.521c1.157 2.067 5.672 10.743 9.979 19.184 4.368 8.441 8.207 15.653 8.589 16.108 0.381 0.381 0.689 1.157 0.689 1.685 0 1.157 5.143 9.204 7.285 11.505 0.849 0.849 2.916 2.461 4.676 3.532 4.147 2.609 9.979 8.675 11.812 12.428 2.067 4.147 3.532 6.288 8.060 11.505 6.595 7.666 12.047 12.502 17.719 15.799 1.759 0.997 5.057 2.99 7.445 4.294 5.981 3.606 9.746 3.224 9.746-1.071 0-1.612-1.846-5.907-4.294-10.201-0.616-1.071-2.154-3.679-3.371-5.759-1.23-2.154-3.839-5.672-5.759-7.973-1.92-2.227-3.458-4.294-3.458-4.676 0-0.307-0.849-1.612-1.846-2.756-6.83-8.060-8.897-10.669-8.897-11.284 0-0.762-3.15-4.762-7.592-9.672-1.304-1.452-2.375-3.298-2.375-3.987 0-0.762-0.997-2.535-2.154-3.913-1.23-1.378-3.15-4.602-4.294-7.137-1.23-2.535-4.368-9.13-7.063-14.656s-4.91-10.361-4.91-10.743c0-0.381-0.762-2.067-1.685-3.765-1.92-3.606-8.281-18.1-8.281-18.95 0-0.307-1.071-2.916-2.375-5.759-1.304-2.916-2.99-7.285-3.765-9.893-0.762-2.535-2.756-7.666-4.455-11.505-7.9-17.572-13.966-34.294-14.421-40.053-0.234-2.375-1.23-7.137-2.227-10.508-1.23-4.22-1.92-8.97-2.227-15.111-0.307-6.288-0.923-10.275-1.994-13.117-1.157-3.064-1.759-7.371-2.227-15.579-0.381-6.288-1.23-13.191-1.846-15.344s-1.538-9.056-2.067-15.344c-0.455-6.288-1.157-12.809-1.538-14.495-0.997-4.602-1.612-20.18-1.759-46.415-0.148-19.024-0.381-23.859-1.304-25.706-2.067-4.147-7.666-5.672-12.97-3.606z"></path>
<path fill="#FFF" d="M157.265 516.6c-2.067 0.997-5.365 3.224-7.211 4.836-2.916 2.609-3.371 3.458-3.679 6.83-0.381 3.679-0.307 3.987 2.99 7.371 6.977 7.137 7.371 8.207 7.973 21.177 0.307 6.14 0.762 9.585 1.612 10.976 1.157 1.92 1.157 2.227-0.307 4.602-1.994 3.458-4.762 3.532-6.362 0.234-0.616-1.304-1.759-2.99-2.461-3.679-0.762-0.689-1.612-1.846-1.994-2.461s-3.371-2.067-6.756-3.298c-7.752-2.682-7.826-2.682-9.278-6.288-1.071-2.682-1.452-2.99-3.839-2.99-3.765 0-6.83 3.224-7.518 7.9-0.307 1.92-0.455 6.448-0.307 10.053 0.234 5.525 0.542 6.756 2.154 8.441 2.067 2.227 4.836 2.99 11.124 3.064 6.066 0.074 6.756 1.23 4.061 6.669-3.765 7.518-2.375 12.428 5.759 19.799 2.843 2.609 4.455 3.458 7.063 3.679 3.064 0.381 3.606 0.148 6.669-2.609 1.846-1.685 5.365-4.294 7.752-5.833s4.91-3.839 5.598-5.057c0.616-1.304 2.609-4.061 4.455-6.14 1.759-2.067 4.061-4.91 5.143-6.288 3.064-4.22 6.83-7.445 14.803-12.736 4.147-2.756 7.973-5.759 8.589-6.595 0.616-0.923 1.157-3.064 1.157-4.836 0-2.609-0.307-3.298-1.92-3.987-2.682-1.23-8.97-1.157-14.495 0.148-3.987 0.923-4.984 0.923-7.371 0-3.606-1.452-5.981-5.598-7.285-12.809-0.542-3.064-1.452-7.137-1.994-9.056-0.923-3.458-0.849-3.765 1.846-9.365 3.913-8.060 3.765-9.585-1.071-12.047-4.147-2.154-10.053-1.994-14.889 0.307z"></path>
<path fill="#FFF" d="M918.95 573.99c-1.994 2.609-2.756 6.288-2.375 11.579 0.542 7.211 0.074 10.275-1.685 10.743-0.997 0.234-2.067-0.455-3.458-2.535-1.071-1.538-3.679-3.765-5.759-4.91s-5.525-3.224-7.752-4.676c-2.154-1.452-4.762-2.682-5.759-2.682-2.916 0-8.207 2.843-11.505 6.214-2.609 2.682-2.99 3.532-2.99 6.669 0 3.987 1.685 6.83 5.143 8.823 2.535 1.452 6.977 7.518 7.592 10.361 0.849 3.913-1.92 6.977-6.214 6.977-3.298 0-5.672-1.92-9.438-7.666-2.535-3.913-2.99-4.294-5.452-4.147-5.057 0.148-7.371 4.602-4.529 8.823 1.685 2.609 14.040 16.267 15.886 17.572 0.762 0.542 2.301 2.154 3.458 3.458 1.071 1.304 5.143 5.598 8.97 9.585 6.756 6.903 7.137 7.211 10.889 7.592 6.448 0.616 8.97-0.307 13.277-4.529 5.452-5.452 6.595-9.278 3.839-12.809-1.23-1.685-1.994-1.846-9.585-2.067-5.759-0.148-8.589-0.542-9.365-1.23-1.452-1.452-0.542-6.83 1.157-6.903 2.227-0.148 5.057 0.234 5.452 0.762 0.234 0.234 1.685 1.452 3.298 2.609 2.461 1.846 3.371 2.154 5.907 1.685 6.595-1.157 9.82-5.291 9.893-12.809 0.074-1.994 0.542-4.984 1.157-6.521 2.227-6.066 2.99-11.505 2.461-17.645-0.307-3.298-0.689-8.207-0.923-10.976s-0.849-5.981-1.304-7.137c-1.612-3.839-8.441-6.595-10.275-4.22z"></path>
<path fill="#FFF" d="M837.7 629.068c-0.923 0.381-1.846 1.538-2.154 2.682-0.542 2.154 0.923 4.836 5.365 9.585 2.843 3.064 3.371 5.525 1.846 8.97-1.92 4.22-12.354 8.675-20.635 8.675-5.672 0.074-10.201 2.154-11.579 5.291-1.685 4.061-0.074 7.592 5.525 12.354 6.288 5.365 10.743 9.82 16.722 16.883 2.682 3.15 4.984 5.907 5.057 5.981 0.148 0.148 1.538 0.234 3.15 0.148 7.211-0.307 7.371-0.234 11.357 4.22 3.298 3.606 4.22 4.22 6.521 4.22 5.217 0 11.357-5.907 13.117-12.588 1.157-4.294 3.839-10.275 5.057-11.357 1.23-0.997 1.304-5.981 0.148-8.515-0.997-2.154-4.455-4.368-6.83-4.368-2.682 0-12.281 6.595-12.281 8.441 0 4.529-5.525 0.849-6.595-4.368-0.234-1.304-0.923-2.609-1.538-2.843s-1.071-1.071-1.071-1.92c0-0.849-0.381-1.612-0.923-1.759-0.997-0.381-0.307-2.916 0.762-2.916 0.381 0 1.071 0.849 1.538 1.846 0.689 1.538 1.612 1.92 5.365 2.375 5.452 0.616 8.675-0.689 10.508-4.22 1.612-3.064 0.762-5.907-2.375-7.9-3.606-2.375-4.762-5.291-4.294-11.357 0.381-5.833-1.071-9.365-5.365-13.499-4.455-4.294-11.579-6.066-16.415-4.061z"></path>
<path fill="#FFF" d="M196.014 630.372c-2.682 0.455-4.529 2.461-8.515 8.675-1.846 2.99-5.598 8.749-8.281 12.883-7.592 11.666-9.278 15.726-9.82 23.712-0.542 8.441 0.455 12.281 3.458 13.043 2.154 0.542 6.903-1.612 7.9-3.606 0.307-0.616 3.839-7.666 7.752-15.579 8.060-16.415 8.749-17.103 15.492-16.415 9.585 0.997 11.357 4.984 7.752 17.572-1.378 4.676-2.227 6.288-6.448 11.431-1.92 2.375-4.91 6.288-6.595 8.749-5.365 7.826-7.973 9.365-11.973 7.285-1.994-1.071-7.285 0.381-8.281 2.227s-0.307 4.529 2.067 7.592c2.756 3.839 6.066 5.525 10.508 5.525 3.224 0 4.368-0.455 7.137-2.682 3.679-2.916 4.984-2.843 6.756 0.542 0.997 1.92 1.538 2.227 3.224 1.846 2.154-0.542 8.281-6.595 11.284-11.198 0.923-1.538 5.057-6.669 9.13-11.505 4.147-4.836 8.897-11.198 10.669-14.188 1.759-2.916 5.525-7.592 8.368-10.361 5.452-5.365 6.756-7.371 7.518-11.579 0.381-2.154 0.148-3.15-1.23-4.91-1.612-1.994-2.067-2.154-9.204-2.461-13.191-0.542-19.639-2.916-34.75-13.043-3.606-2.301-8.515-4.147-10.817-3.987-0.616 0.074-1.994 0.307-3.064 0.455z"></path>
<path fill="#FFF" d="M994.222 643.724c-4.762 7.211-7.211 12.883-7.973 18.716-0.381 2.535-1.23 6.669-1.92 9.204-0.616 2.535-1.538 6.83-1.92 9.585-0.455 2.756-1.304 6.066-1.92 7.371-1.759 3.765-2.535 11.431-2.154 21.411 0.455 12.809 0.689 14.114 3.064 15.037 2.682 0.997 6.977-0.616 8.281-3.15 0.997-1.92 2.375-10.053 2.154-12.281-0.307-2.375 1.378-11.739 2.461-13.732 0.542-1.071 1.612-4.762 2.375-8.134 0.689-3.371 1.612-6.83 1.994-7.592 0.849-1.538 1.23-3.606 3.224-18.1 0.616-4.455 1.685-9.365 2.301-10.889 1.452-3.458 1.612-9.056 0.234-10.817-0.455-0.762-2.154-1.538-3.679-1.759-2.756-0.455-2.843-0.381-6.521 5.143z"></path>
<path fill="#FFF" d="M781.318 681.007c-1.452 1.846-4.22 7.063-4.91 9.438-0.307 1.071-2.227 5.365-4.22 9.585-3.987 8.207-8.207 13.117-13.043 15.184-3.298 1.378-9.672 6.903-11.124 9.746-0.616 1.157-1.304 3.765-1.612 5.907-0.381 3.371-0.234 4.061 1.304 5.525 2.375 2.227 3.532 2.067 9.672-1.157 4.676-2.375 13.191-5.672 14.963-5.672 1.378 0 0.381 2.154-2.843 6.214-3.458 4.22-5.291 5.365-15.886 9.82-3.458 1.452-3.679 1.685-3.679 4.294 0 3.064 4.455 11.198 7.211 13.117 3.298 2.301 9.893 0.307 11.973-3.606 1.846-3.298 6.066-8.368 10.817-12.736 2.609-2.461 5.672-5.291 6.756-6.362 3.064-2.916 7.137-6.14 7.826-6.14 0.381 0 0.689 2.067 0.689 4.602 0 4.061 0.234 4.676 1.994 5.833 2.609 1.759 7.445 1.612 12.502-0.455 3.532-1.378 4.529-1.452 6.362-0.689 3.913 1.612 10.361-0.381 15.037-4.676 1.92-1.759 2.461-2.843 2.461-5.143-0.074-3.987-1.92-5.907-8.97-9.13-3.298-1.538-6.756-3.15-7.666-3.532-0.923-0.455-2.609-2.682-3.765-4.91-1.157-2.301-2.682-4.676-3.532-5.365-0.762-0.762-1.378-1.612-1.378-1.994s-0.997-1.759-2.301-3.15c-1.23-1.378-2.301-2.682-2.301-2.99s-1.994-2.609-4.529-5.143c-3.532-3.765-4.836-5.759-6.214-9.893-2.227-6.669-3.298-7.826-7.285-7.826-2.154 0-3.606 0.455-4.294 1.304zM784.455 715.388c1.378 1.685 0.234 3.913-3.987 8.134-2.756 2.756-4.368 3.765-5.598 3.606l-1.759-0.234 2.301-4.602c3.606-7.371 6.669-9.746 9.056-6.903z"></path>
<path fill="#FFF" d="M270.274 696.893c-2.756 0.997-8.368 5.365-10.361 8.134-1.378 1.994-16.034 16.267-17.412 17.031-2.154 1.23-13.732 16.034-14.729 18.95-0.542 1.538-0.997 3.839-1.071 5.143 0 2.843 2.609 6.448 4.602 6.448 0.762 0 1.612 0.307 1.92 0.689 0.234 0.381 2.067 1.612 4.061 2.756 4.147 2.375 7.137 2.227 12.809-0.542 2.535-1.23 3.679-1.452 4.294-0.849 1.23 1.23-0.381 5.672-2.843 7.973-0.997 0.923-2.375 2.756-2.99 4.061-2.682 5.365-0.616 9.056 7.752 13.966 3.298 1.92 6.066 4.22 7.666 6.448 3.298 4.602 6.669 6.977 11.357 8.060 7.518 1.685 12.047-1.157 18.495-11.505 2.461-3.987 5.143-7.9 5.907-8.589s1.378-1.612 1.378-1.994c0-0.455 0.542-1.378 1.157-2.154 1.759-1.846 2.375-11.198 1.071-15.579-0.762-2.609-1.846-4.147-4.294-5.907-2.682-2.067-3.064-2.682-2.461-3.913 0.381-0.762 1.157-1.378 1.685-1.378 1.23 0 5.365-4.294 6.669-6.83 0.762-1.538 0.689-2.535-0.455-6.066-2.461-7.063-7.137-9.512-12.194-6.362-2.843 1.685-11.886 10.508-11.886 11.505 0 1.452-4.061 5.525-6.977 6.977-3.298 1.685-12.97 3.371-13.966 2.375-0.381-0.381-0.074-1.994 0.616-3.606 0.762-1.846 1.452-6.14 1.685-11.050 0.381-7.371 0.689-8.368 2.756-11.505 2.609-3.839 4.602-5.833 10.582-10.361 4.368-3.371 6.288-6.83 5.598-10.201-0.689-3.224-4.91-4.147-10.434-2.154zM278.409 763.796c2.154 0.849 0.997 3.371-1.538 3.371-0.148 0-0.307-0.849-0.307-1.92 0-2.067 0.074-2.154 1.846-1.452z"></path>
<path fill="#FFF" d="M313.318 714.157c-2.154 2.227-2.609 4.061-2.301 9.278 0.234 3.15 1.685 7.211 2.99 8.207 3.064 2.461 9.512 0.542 12.662-3.765 3.298-4.602 3.606-6.14 2.067-9.585-2.843-6.288-11.050-8.515-15.418-4.147z"></path>
<path fill="#FFF" d="M423.264 746.225c-0.849 0.762-2.609 4.602-3.913 8.515-1.378 3.913-3.458 8.749-4.602 10.817-1.23 1.994-2.461 4.529-2.756 5.525-1.759 5.759-5.981 10.275-11.050 12.047-3.679 1.304-4.061 1.23-6.756-1.378-3.298-3.224-6.214-3.987-10.669-2.609-4.984 1.452-6.288 1.378-6.903-0.689-0.923-3.15-2.682-4.368-6.066-4.368-2.916 0-3.606 0.381-8.060 5.057-3.15 3.224-5.981 5.452-7.973 6.14-5.291 1.92-8.897 6.362-8.897 10.976 0 1.452 0.542 2.609 1.452 3.064 3.532 1.92 2.682 4.836-3.458 11.505-7.973 8.515-9.512 10.434-9.512 11.357 0 0.455-1.538 2.682-3.458 4.91-4.22 4.91-5.452 8.675-3.839 11.198 2.227 3.371 8.281 1.846 13.425-3.532 14.729-15.111 21.632-22.789 23.097-25.706 0.923-1.92 2.461-4.147 3.298-4.984 1.846-1.612 10.275-4.676 13.043-4.676 2.227 0 4.294 1.846 4.294 3.839 0 3.913-3.224 17.031-5.217 21.484-3.532 7.752-2.067 11.812 3.606 10.053 4.984-1.452 11.666-9.893 19.713-25.016 0.923-1.685 2.535-3.765 3.606-4.529 1.92-1.378 2.154-1.378 5.672-0.148 7.752 2.756 10.201 3.064 14.421 1.685 3.15-0.997 4.294-1.759 5.365-3.839 1.304-2.375 1.304-2.916 0.307-4.762-0.542-1.157-2.301-2.843-3.765-3.839s-3.532-3.298-4.529-5.143c-1.612-2.99-1.759-4.061-1.452-9.278 0.307-4.529 0.762-6.448 1.994-7.973 6.903-8.589 8.281-12.588 7.445-20.488-0.542-5.143-0.307-4.91-5.057-6.214-0.689-0.148-1.92 0.307-2.843 0.997z"></path>
<path fill="#FFF" d="M792.368 752.599c-1.92 0.762-2.843 3.224-2.609 6.83 0.148 2.843-2.154 7.826-4.984 10.817-2.227 2.461-3.15 6.288-1.685 7.445 2.301 1.759 7.973 1.378 14.040-0.997 2.154-0.849 7.285-4.984 7.285-5.907 0-0.455 0.542-1.378 1.23-2.154 1.612-1.759 3.298-8.441 2.609-10.275-1.071-2.756-4.22-4.984-8.368-5.759-4.762-0.923-5.291-0.923-7.518 0z"></path>
<path fill="#FFF" d="M945.111 766.629c-2.682 1.846-4.455 3.913-6.362 7.371-2.916 5.598-6.448 9.365-12.809 13.732-2.535 1.685-6.214 4.762-8.368 6.83-2.067 2.067-6.214 5.452-9.204 7.518-5.057 3.606-12.047 10.053-13.806 12.736-0.381 0.689-1.759 2.99-2.99 4.984-1.23 2.067-3.298 5.452-4.676 7.592-1.378 2.067-3.765 6.288-5.291 9.204-1.612 2.99-4.22 6.903-5.907 8.675-1.612 1.846-2.99 3.679-2.99 4.147 0 0.381-0.689 1.685-1.612 2.756-0.849 1.157-3.224 4.368-5.365 7.211-2.067 2.843-6.288 7.211-9.278 9.82-3.064 2.535-7.973 6.669-10.976 9.204-7.592 6.362-10.361 8.441-20.328 15.111-4.836 3.224-10.201 6.977-11.886 8.281s-4.061 2.843-5.365 3.458c-5.981 2.843-9.512 5.759-10.743 8.749-2.461 5.907-2.682 6.669-2.682 8.897 0 2.375-2.227 7.666-3.224 7.666-0.307 0-1.685 0.997-3.064 2.227-1.378 1.157-3.765 2.756-5.217 3.532-3.15 1.612-10.743 8.281-12.047 10.669-2.067 3.606-0.074 7.371 3.987 7.371 2.067 0 10.053-4.061 12.662-6.362 1.071-0.997 3.839-3.224 6.14-4.91 2.301-1.759 5.981-4.529 8.060-6.14 2.154-1.612 5.598-3.913 7.666-5.143 2.154-1.23 5.759-3.679 8.060-5.452s5.057-3.679 6.14-4.22c3.458-1.759 19.184-12.354 19.184-12.97 0-0.307 1.846-1.92 4.061-3.532 2.154-1.685 5.452-4.22 7.137-5.759 1.759-1.452 5.057-3.679 7.285-4.91 5.291-2.843 8.281-5.143 13.732-10.669 4.22-4.294 4.455-4.676 5.759-11.124 1.685-8.207 2.99-10.817 9.056-18.568 2.609-3.298 5.365-6.903 6.14-7.973s2.301-2.227 3.458-2.461c7.9-1.685 10.201-2.756 14.348-6.521 2.301-2.227 5.525-5.907 7.137-8.281 4.529-6.83 13.732-15.653 18.568-17.793 2.301-0.997 6.903-3.224 10.361-4.91 7.826-3.913 8.897-5.598 9.438-15.184 1.157-22.629-0.148-27.010-8.368-27.317-1.157-0.074-3.679 1.071-5.759 2.461z"></path>
<path fill="#FFF" d="M331.037 771.548c-0.616 0.234-2.99 1.071-5.217 1.92-5.759 2.154-8.060 5.452-8.675 12.428-0.381 4.762-2.535 12.047-4.368 14.729-0.307 0.542-1.378 1.071-2.461 1.157-1.538 0.234-1.846 0-1.685-1.23 0.148-0.849 0.849-2.227 1.612-3.064 2.682-3.15 4.147-6.977 3.606-9.278-0.307-1.23-0.762-3.371-0.997-4.762-0.542-3.224-2.756-4.762-6.977-4.762-5.598 0-8.441 3.064-10.817 12.047-0.542 1.846-1.157 3.298-1.538 3.298-0.307 0-1.685 1.685-2.99 3.765-3.606 5.598-3.458 9.13 0.762 13.191 1.759 1.685 4.455 3.765 5.981 4.529 1.452 0.762 4.762 2.682 7.285 4.22 4.061 2.461 5.057 2.756 8.675 2.461 3.458-0.234 4.529-0.689 7.063-3.224 1.685-1.685 3.064-3.298 3.064-3.765 0-0.381 1.92-3.913 4.22-7.826 2.375-3.913 4.984-8.897 5.907-11.198 0.923-2.227 3.224-6.669 5.143-9.82 3.913-6.521 4.984-11.973 2.756-13.806-1.304-1.071-8.441-1.846-10.361-0.997z"></path>
<path fill="#FFF" d="M693.164 783.976c-1.452 0.307-4.762 1.538-7.285 2.843-3.913 1.92-4.602 2.609-5.143 4.91-0.997 4.602 0 7.592 3.987 11.812 3.606 3.913 8.281 12.502 9.893 18.495 1.157 4.147 1.071 11.505-0.148 16.193-1.92 7.518-7.666 12.428-13.191 11.357-3.371-0.616-4.368-1.846-6.756-8.589-4.529-12.97-11.666-21.103-19.331-22.013-4.676-0.616-6.977-0.074-9.365 2.154-2.99 2.682-2.301 5.291 2.682 10.361 2.535 2.535 5.452 6.448 6.756 9.056 1.92 3.987 2.227 5.672 2.609 13.732 0.542 10.889 1.157 12.354 7.371 16.722 7.666 5.525 15.726 4.91 26.161-1.92 3.15-2.067 7.371-4.529 9.365-5.525 1.92-0.923 6.977-3.679 11.198-5.981 4.22-2.375 11.284-5.759 15.726-7.518 13.425-5.365 15.184-9.13 7.666-16.267-3.606-3.371-3.839-3.913-3.839-7.371 0-5.833-3.987-10.127-8.060-8.589-3.064 1.157-8.675 6.14-9.204 8.207-0.307 1.452-0.849 1.846-2.535 1.612l-2.067-0.234 0.234-8.441c0.234-6.448 0.689-9.746 2.154-13.966 1.23-3.765 1.846-7.211 1.846-10.889 0-4.91-0.234-5.672-2.227-7.9-2.227-2.461-2.461-2.535-9.056-2.682-3.679-0.074-7.973 0.148-9.438 0.455z"></path>
<path fill="#FFF" d="M455.024 822.565c-5.598 1.157-20.562 12.662-23.244 17.793-0.849 1.612-1.304 4.984-1.538 10.434-0.307 8.589-0.849 11.124-3.913 17.19-3.371 6.756-4.602 17.031-2.301 19.405 1.846 1.759 4.529-0.616 8.060-7.063 5.143-9.365 8.749-17.338 9.204-20.328 0.997-6.14 5.143-11.666 12.121-16.267 4.676-3.15 6.83-3.765 9.056-2.682 2.843 1.304 4.294 4.984 5.217 13.425 1.157 10.127 0.542 12.97-3.458 17.953-4.368 5.291-13.191 18.261-13.806 20.328-0.997 3.224 3.987 4.602 8.368 2.301 2.375-1.157 8.281-7.371 8.675-9.056 0.307-1.157 5.057-6.977 8.823-10.817 5.057-5.057 6.066-8.675 5.981-20.402-0.074-9.672-0.762-15.418-2.301-18.408-0.381-0.689-1.23-2.535-1.92-3.987-3.679-7.826-7.285-10.201-15.184-10.275-2.843-0.074-6.362 0.148-7.826 0.455z"></path>
<path fill="#FFF" d="M142.315 840.974c-3.064 3.298-2.154 5.365 4.836 11.198 3.064 2.535 6.362 6.066 7.445 7.826s3.532 5.452 5.598 8.134c1.994 2.682 3.606 5.217 3.606 5.672s-0.849 2.375-1.92 4.147c-2.535 4.368-1.994 5.907 5.217 13.277 2.99 3.064 6.595 6.756 7.826 8.134 1.304 1.378 3.371 3.064 4.602 3.765 1.304 0.762 4.147 2.916 6.448 4.91 3.839 3.298 4.455 3.532 7.518 3.15 3.679-0.381 8.134-3.371 9.746-6.521 0.542-1.157 1.304-3.765 1.538-5.759 0.455-3.15 0.307-4.147-1.452-7.137-1.071-1.846-4.147-5.143-6.756-7.211-2.609-1.994-6.288-5.525-8.207-7.752-6.903-7.973-12.354-12.502-19.565-16.108-4.602-2.301-8.060-5.525-8.060-7.518 0-0.542-2.227-3.679-4.984-6.977-3.679-4.368-5.598-6.066-7.371-6.448-3.679-0.689-4.368-0.616-6.066 1.23z"></path>
<path fill="#FFF" d="M746.101 933.73c-11.886 5.759-21.793 9.672-26.161 10.361-1.846 0.307-4.91 1.23-6.83 1.994-1.846 0.849-8.060 2.154-13.806 2.99-14.274 2.067-13.659 1.92-17.793 6.14-3.458 3.606-3.839 3.765-7.826 3.765-2.461 0-6.756-0.849-10.127-1.92-7.666-2.535-21.103-2.756-26.087-0.455-3.458 1.538-7.211 6.977-7.211 10.361 0 4.147-1.23 5.452-8.515 9.056-3.987 1.92-9.13 4.147-11.431 4.836-2.301 0.762-5.452 1.92-6.903 2.682-2.756 1.304-7.285 2.067-17.645 2.756-3.15 0.148-7.518 0.762-9.746 1.23-2.154 0.455-6.83 0.689-10.361 0.455-9.512-0.616-19.024 0.381-20.328 2.154-1.157 1.538-1.304 3.298-0.307 4.836 0.762 1.23 5.217 2.154 13.117 2.756 3.15 0.234 6.288 0.616 6.903 0.849s3.458 0.923 6.214 1.452c6.521 1.378 51.091 1.759 55.163 0.455 1.452-0.455 5.759-1.378 9.512-2.067 9.365-1.612 16.034-5.057 23.010-11.973 6.756-6.83 10.582-9.585 14.582-10.743 1.759-0.542 8.368-0.923 15.037-0.997 17.031-0.074 21.793-2.067 24.475-10.508 0.542-1.612 1.846-3.532 2.99-4.294 2.227-1.612 9.585-4.455 18.568-7.285 11.886-3.765 24.167-10.743 25.926-14.729 1.378-2.916 1.157-7.826-0.307-8.368-2.461-0.923-4.762-0.234-14.114 4.22z"></path>
</svg>
