<!-- Generated by IcoMoon.io -->
<svg version="1.1" xmlns="http://www.w3.org/2000/svg" width="512" height="512" viewBox="0 0 512 512">
<g id="icomoon-ignore">
</g>
<title>Twistweald</title>
<path fill="#FFF" d="M115.978 54.824c-15.823 1.358-17.623 2.193-29.352 13.607-14.861 14.462-20.303 25.038-21.050 40.912-0.726 15.397-1.573 16.475-12.949 16.475-4.656 0-8.828 0.365-9.273 0.81-1.252 1.251 5.084 8.136 10.951 11.897 9.385 6.018 14.398 15.823 19.098 37.352 0.913 4.182 2.406 10.048 3.321 13.034 1.451 4.738 1.391 6-0.474 9.909-2.605 5.462-2.066 6.495 3.969 7.614 5.055 0.938 11.739 6.018 18.856 14.332l4.431 5.177-2.573 4.165c-1.416 2.289-4.883 5.462-7.707 7.048-9.194 5.167-6.552 6.546 14.333 7.48 14.67 0.655 15.129 0.765 19.224 4.612 2.307 2.166 7.215 6.505 10.906 9.642 3.69 3.137 9.041 7.985 11.892 10.772s12.128 11.342 20.619 19.010c11.063 9.99 16.012 15.377 17.465 19.010 1.117 2.788 2.779 5.925 3.694 6.97 7.869 8.983 14.906 50.408 10.388 61.149-3.581 8.515-5.014 6.551-7.804-10.702-1.008-6.238-2.927-13.155-4.261-15.37-1.335-2.216-2.797-6.11-3.249-8.656-1.746-9.829-36.15-37.501-53.349-42.908-8.783-2.762-12.481-5.139-19.386-12.465-7.769-8.244-9.606-7.615-8.696 2.972 0.845 9.829-2.439 14.574-10.084 14.574-4.469 0-15.049 5.689-21.305 11.457-3.493 3.219-8.070 5.798-13.041 7.344-7.237 2.253-16.833 8.178-16.833 10.397 0 0.558 2.852 1.963 6.337 3.12 7.534 2.503 7.39 2.072 7.877 23.477 0.551 24.283 7.206 32.606 26.889 33.635 19.466 1.017 33.543-22.724 19.888-33.539-6.385-5.055-7.21-4.602-8.145 4.474-0.929 9.001-2.913 11.223-8.998 10.081-10.465-1.963-10.723-28.579-0.357-36.813 2.218-1.762 5.57-4.437 7.448-5.942 7.534-6.039 28.29-10.569 31.379-6.849 0.835 1.008 4.223 2.73 7.525 3.827 10.83 3.596 31.82 26.531 31.82 34.766 0 2.675-4.234 5.201-8.72 5.201-9.798 0-10.29 2.502-2.077 10.584 18.879 18.579 21.517 33.44 10.267 57.852-7.779 16.877-7.976 19.144-1.782 20.632 3.429 0.825 5.772 0.611 8.873-0.806 2.316-1.059 7.918-3.438 12.449-5.286 16.334-6.666 36.15-24.727 40.067-36.521 2.786-8.39 10.335-24.58 11.917-25.558 6.531-4.038 6.643-12.413 0.298-22.281-4.936-7.675-5.709-32.298-1.218-38.826 7.427-10.794 6.597-14.286-3.396-14.286-13.216 0-18.96-13.186-11.695-26.85 1.662-3.126 3.417-7.488 3.903-9.694 0.484-2.206 1.69-4.010 2.68-4.010s1.799-0.61 1.799-1.353c0-1.466-3.31-0.793-9.505 1.933-14.068 6.193-13.004 6.009-19.096 3.313-3.090-1.366-5.617-3.091-5.617-3.834 0-0.742-1.72-3.149-3.82-5.347-3.929-4.111-4.030-5.011-1.781-15.96 0.732-3.566-2.857-5.183-11.23-5.055-6.6 0.101-6.272 0.296-23.274-13.927-14.106-11.799-16.745-14.291-23.895-22.567-2.789-3.226-7.002-7.747-9.364-10.042-4.309-4.189-5.367-6.397-10.959-22.843-1.658-4.88-4.201-12.195-5.651-16.256-2.059-5.768-2.556-9.774-2.272-18.294l0.365-10.911 6.97-4.828c8.825-6.114 9.486-9.906 2-11.461-10.445-2.171-11.417-8.426-2.746-17.668 13.498-14.386 27.023-17.139 40.445-8.231l7.192 4.775v6.649c0 7.768 1.456 9.691 7.345 9.691 6.098 0 11.107 4.103 15.822 12.961 2.244 4.215 4.821 9.006 5.729 10.648 0.906 1.643 2.182 6.27 2.833 10.283s1.811 8.815 2.578 10.673c1.413 3.42-1.178 23.699-3.963 31.024-6.090 16.022-26.405 18.991-38.314 5.603-8.186-9.206-9.792-27.087-2.72-30.309 6.743-3.072 12.006 0.258 13.88 8.781 1.206 5.491 6.619 8.862 9.002 5.605 2.438-3.334 2.367-18.824-0.096-20.867-1.015-0.843-3.275-3.974-5.026-6.96-7.976-13.611-30.178-13.539-36.854 0.12-1.394 2.852-3.332 6.136-4.306 7.296-1.405 1.673-1.487 3.090-0.391 6.823 0.76 2.593 2.019 9.471 2.799 15.287 1.751 13.052 2.916 16.229 7.816 21.309 2.125 2.202 5.083 6.024 6.576 8.489 4.917 8.126 15.348 12.476 32.047 13.368 11.311 0.605 14.647 1.226 16.745 3.126 3.303 2.988 5.933 2.031 7.089-2.579 1.964-7.823 10.963-9.776 15.615-3.389 1.677 2.304 3.141 3.113 4.61 2.548 1.971-0.757 2.070-24.306 0.13-30.75-0.228-0.761 0.036-8.764 0.589-17.786 0.555-9.067 0.501-19.5-0.119-23.33-1.611-9.931-0.508-13.451 5.376-17.165l5.002-3.158-2.249-3.805c-1.236-2.093-5.898-7.349-10.359-11.677-4.46-4.331-9.6-9.87-11.421-12.308-1.82-2.44-3.95-5.006-4.732-5.704-0.782-0.697-4.362-5.788-7.954-11.314-14.178-21.809-39.296-31.576-73.634-28.63zM368.127 57.175c-18.093 9.602-23.307 13.165-39.722 27.133-5.94 5.055-13.908 11.684-17.705 14.733-22.851 18.338-26.416 25.508-12.685 25.508 10.073 0 10.838 1.302 7.018 11.952-1.516 4.231-2.759 9.656-2.757 12.056 0 3.631-1.18 5.507-7.036 11.179-10.656 10.321-11.498 14.239-3.063 14.239 8.702 0 11.832 3.967 10.917 13.843-1.115 12.018 0.087 15.353 6.211 17.233 2.757 0.846 7.861 4.245 11.348 7.554 9.467 8.988 29.761 12.204 38.349 6.078 1.737-1.238 4.654-3.233 6.483-4.433s4.467-3.019 5.861-4.044c1.393-1.025 4.53-3.193 6.97-4.816 2.438-1.623 5.38-4.832 6.536-7.131s2.96-5.139 4.011-6.311c4.987-5.564 6.111-33.615 1.864-46.487-3.535-10.709-29.048-8.986-34.772 2.348-1.107 2.194-3.038 5.129-4.291 6.524-2.927 3.261-3.798 14.361-1.421 18.108 1.83 2.886 7.796-0.325 7.796-4.197 0-7.119 13.298-12.93 17.634-7.707 4.556 5.491 0.416 21.481-8.024 30.987-15.779 17.773-38.787 3.726-38.74-23.65 0.067-39.276 29.574-82.611 56.252-82.611 16.447 0 37.221 26.474 28.868 36.785-2.334 2.882-2.873 3.010-6.639 1.591-7.343-2.766-8.483 1.638-2.639 10.187 8.45 12.361 10.92 22.724 7.151 30.011-1.044 2.022-2.541 6.698-3.327 10.393-2.603 12.261-9.826 23.121-26.8 40.3-33.837 34.246-42.060 40.269-50.591 37.049-4.273-1.613-4.274-1.61-5.433 7.939-1.486 12.245-4.346 15.771-12.837 15.825-1.668 0.012-5.233-2.824-9.505-7.561-3.759-4.168-7.561-7.589-8.45-7.603s-2.158-1.45-2.82-3.194c-0.663-1.742-1.789-3.167-2.503-3.167-1.892 0-1.589 4.092 0.524 7.109 1.004 1.432 2.689 6.331 3.745 10.884 1.057 4.554 3.156 10.377 4.669 12.938 3.36 5.695 2.894 15.535-0.986 20.793-7.66 10.389-15.651 56.632-13.663 79.080 1.837 20.76 17.68 46.451 36.094 58.536 28.544 18.732 42.411 19.425 33.397 1.666-6.377-12.565-3.911-37.521 4.662-47.165 8.093-9.106 6.906-15.094-2.791-14.074-10.429 1.098-12.716-11.802-4.291-24.2 1.783-2.625 3.241-5.421 3.241-6.213 0-2.447 21.163-24.073 27.595-28.2 15.303-9.82 37.543-4.639 49.454 11.521 7.235 9.815 7.863 11.43 7.858 20.212-0.012 20.034-16.753 24.726-18.843 5.28-0.512-4.774-1.361-7.37-2.38-7.288-0.872 0.070-2.656 0.212-3.966 0.317-5.72 0.456-7.172 20.022-2.012 27.132 8.958 12.349 25.858 10.967 40.607-3.318l7.135-6.911-0.447-16.463c-0.363-13.375-0.857-16.915-2.632-18.875-6.236-6.885-6.409-17.505-0.378-23.171 5.946-5.586 2.356-7.811-14.547-9.012-19.351-1.373-31.683-6.355-31.683-12.798 0-9.223-3.959-10.699-11.826-4.409-7.7 6.157-13.291 9.223-20.889 11.454-3.705 1.087-8.355 3.279-10.337 4.872s-6.768 4.808-10.637 7.144c-7.99 4.824-16.233 13.197-21.753 22.101-2.071 3.339-5.094 8.136-6.717 10.659s-3.772 8.879-4.776 14.125c-2.688 14.047-3.773 14.098-5.824 0.278-1.447-9.747-0.815-14.3 4.059-29.231 6.828-20.927 12.921-28.523 51.841-64.634 13.18-12.228 19.473-14.906 39.025-16.605 21.525-1.869 26.447-4.975 15.632-9.862-3.961-1.791-7.252-4.408-8.904-7.083l-2.623-4.244 3.911-5.796c2.151-3.188 4.663-6.232 5.584-6.767 1.592-0.925 4.257-5.669 11.32-20.154 1.746-3.582 5.063-7.837 7.373-9.457 2.309-1.619 5.681-4.392 7.494-6.162 1.812-1.769 5.967-5.153 9.232-7.518 7.135-5.169 6.943-6.623-1.134-8.647-9.503-2.382-9.531-2.456-8.211-20.946 1.322-18.506 1.385-18.669 10.856-28.141 8.356-8.356 8.272-9.409-1.015-12.738-8.012-2.872-11.402-6.446-16.834-17.743-4.988-10.376-17.987-22.809-26.52-25.371-9.811-2.946-44.382-2.634-50.196 0.452z"></path>
</svg>
