<!-- Generated by IcoMoon.io -->
<svg version="1.1" xmlns="http://www.w3.org/2000/svg" width="1024" height="1024" viewBox="0 0 1024 1024">
<title></title>
<g id="icomoon-ignore">
</g>
<path fill="#FFF" d="M325.555 90.823c-23.704 13.419-56.314 31.067-72.478 39.217s-29.382 18.681-29.382 23.408c0 34.972-60.727 91.584-74.438 69.396-9.257-14.98-19.585-7.706-19.469 13.709 0.161 30.884 20.745 85.718 43.237 115.212 17.708 23.212 19.33 32.238 19.33 107.37 0 79.64 0.644 82.631 21.98 103.077 32.744 31.372 71.764 17.446 72.156-25.74 0.060-6.582 19.068-34.26 42.233-61.516 43.932-51.684 57.24-86.054 43.347-112.019-29.717-55.531 72.162-83.805 110.089-30.552 28.334 39.791 11.060 88.299-57.507 161.532-33.44 35.708-69.835 96.124-65.194 108.22 8.82 22.98-23.94 40.605-48.508 26.094-20.252-11.963-55.912-11.022-55.912 1.483 0 15.741-33.348 39.532-49.67 35.436-27.985-7.026-58.267 21.306-53.978 50.503 2.967 20.206 0.525 24.332-17.032 28.74-34.32 8.613-38.612 66.097-4.93 66.097 16.15 0 18.832 7.957 16.234 48.188-1.66 25.792 10.428 33.915 50.606 34.012 26.058 0.060 31.745 2.904 33.74 16.883 3.164 22.204 28.072 44.076 45.992 40.393 15.652-3.22 17.332-65.134 2.184-80.28-21.476-21.476-8.174-73.248 25.822-100.545 46.48-37.315 47.799-37.884 114.586-49.661 131.12-23.113 225.543-4.511 300.411 59.181l31.652 26.924-4.617 49.422c-2.543 27.182-8.474 56.627-13.188 65.433-27.164 50.761 32.283 53.669 62.143 3.041 16.256-27.547 27.303-32.007 47.563-19.202 21.962 13.883 47.116-19.599 36.454-48.527-6.893-18.717-6.713-24.948 0.779-27.509 45.486-15.54 51.853-70.58 9.321-80.519-15.092-3.525-19.496-10.197-21.371-32.409-2.632-31.141-27.879-51.037-55.577-43.793-11.571 3.027-21.377-3.055-36.173-22.455-21.828-28.625-38.329-32.62-61.674-14.944-24.771 18.755-90.359-24.15-90.855-59.423-0.212-15.336 21.804-35.763 42.922-39.827 13.008-2.499 15.303-8.303 13.483-34.113-1.708-24.316 2.137-35.716 17.631-52.296 21.279-22.773 25.283-44.634 10.815-59.097-6.778-6.778-5.681-14.073 4.446-29.523 13.023-19.874 12.815-21.344-6.672-46.89-11.060-14.506-20.113-36.353-20.113-48.55 0-43.232-80.179-141.248-145.345-177.662-56.98-31.846-154.902-29.988-215.077 4.097z"></path>
</svg>
