<!-- Generated by IcoMoon.io -->
<svg version="1.1" xmlns="http://www.w3.org/2000/svg" width="512" height="512" viewBox="0 0 512 512">
<title>factions-chaos-darkoath</title>
<g id="icomoon-ignore">
</g>
<path fill="#FFF" d="M211.54 33.243c-3.876 2.087-12.019 3.377-21.501 3.407-12.87 0.038-15.831 1.13-25.386 9.358-4.006 3.45-5.49 6.062-5.49 9.668 0 1.487 0.286 1.87 1.229 1.646 4.713-1.114 15.481-1.394 21.721-0.563 8.93 1.189 13.738 1.172 22.351-0.075 10.876-1.575 13.070-1.406 19.526 1.51l5.656 2.554 8.83-0.422c16.3-0.775 22.288-1.658 27.465-4.044 5.281-2.434 5.598-2.383 10.692 1.697 2.407 1.928 3.265 2.158 9.879 2.63 9.116 0.651 13.759 2.641 22.602 9.686 7.278 5.799 16.353 10.511 24.969 12.966 11.611 3.308 17.629 7.76 22.647 16.754 3.176 5.695 7.915 10.576 12.548 12.924 6.908 3.5 10.267 7.609 12.87 15.744 2.55 7.97 6.998 13.222 15.264 18.022 19.747 11.464 23.23 44.144 9.606 90.141-2 6.754-2.229 8.588-2.723 21.773-0.524 13.993-0.613 14.62-3.125 22.313-2.935 8.986-4.583 16.151-4.601 20.003-0.008 1.822-0.325 2.634-1.026 2.634-1.495 0-3.201 2.81-3.201 5.274 0 3.887-2.793 8.224-6.628 10.291-3.813 2.057-5.538 4.728-7.861 12.173-1.009 3.231-2.159 5.050-4.954 7.824-2.705 2.688-3.756 4.312-4.085 6.326-1.384 8.433-1.877 9.268-6.995 11.858-2.067 1.046-5.018 3.207-6.558 4.805-4.863 5.043-19.106 22.517-19.106 23.44 0 0.486-0.483 0.885-1.074 0.885-1.385 0-8.957 3.813-12.786 6.44-4.12 2.826-4.63 4.092-5.091 12.647-0.476 8.854-0.886 9.523-7.247 11.823-8.935 3.231-14.119 7.473-17.974 14.706-2.685 5.036-3.653 5.655-8.851 5.655-2.454 0-3.787 0.265-3.517 0.702 0.24 0.387-0.26 0.702-1.113 0.702-0.851 0-4.789 1.738-8.75 3.863-7.343 3.938-9.341 4.4-13.665 3.16-2.964-0.851-19.73 0.771-30.904 2.988-10.383 2.060-28.686 2.505-36.666 0.891-15.73-3.18-23.447-7.654-46.48-26.945-6.711-5.62-11.238-8.904-12.643-9.173-2.338-0.447-16.985-27.511-20.941-38.695-3.591-10.15 0.231-87.091 4.326-87.091 0.249 0 1.151 1.438 2.005 3.196s1.826 3.028 2.159 2.822c0.333-0.207 0.796 0.805 1.025 2.246 0.487 3.041 3.455 10.863 5.036 13.276 0.598 0.913 3.684 3.347 6.857 5.409 3.174 2.062 7.794 5.382 10.267 7.377 5.061 4.082 6.486 4.616 10.764 4.043 1.651-0.221 5.373-0.688 8.269-1.036 2.898-0.348 7.388-1.042 9.979-1.541 4.685-0.904 4.727-0.898 7.575 1.075 14.546 10.082 28.758 35.75 28.787 51.998 0.019 9.538 0.657 10.485 6.65 9.844 6.84-0.733 10.214 1.957 10.224 8.154 0.010 5.096 7.494 25.411 8.621 23.397 0.577-1.029 0.755-1.021 1.992 0.098 2.075 1.877 2.665 0.726 5.33-10.385 3.254-13.572 4.532-15.007 11.141-12.494 3.493 1.328 4.073 0.546 10.067-13.555 6.067-14.278 8.94-19.026 13.385-22.13 1.502-1.049 3.031-2.545 3.397-3.322 0.365-0.777 1.417-1.748 2.336-2.161 9.278-4.152 10.806-5.321 9.719-7.431-0.697-1.353-0.683-1.486 0.084-0.76 7.096 6.706 13.822-12.067 8.618-24.056-2.781-6.406-2.88-8.755-0.479-11.185 5.050-5.111 14.551-6.7 21.801-3.649 5.080 2.138 5.861 1.979 12.219-2.481 7.459-5.233 14.738-19.105 11.18-21.304-0.435-0.269-0.382-0.918 0.148-1.764 1.301-2.084-0.216-10.497-5.373-29.757-7.409-27.667-7.106-25.636-6.894-46.45 0.101-10.043-0.13-20.947-0.517-24.232s-1.173-11.5-1.747-18.26c-1.26-14.797-2.26-18.893-6.518-26.689-1.793-3.284-4.774-8.815-6.625-12.292-4.245-7.975-7.195-10.653-17.438-15.831-4.443-2.245-10.579-5.677-13.637-7.626-4.063-2.59-8.464-4.513-16.357-7.144-8.87-2.957-11.007-3.931-11.963-5.463-0.641-1.025-1.247-1.982-1.349-2.127s-2.704 0.145-5.786 0.645c-4.616 0.75-7.036 0.746-13.738-0.027-13.286-1.53-22.185 0.487-51.654 11.715-15.256 5.811-21.304 9.334-26.135 15.217-1.632 1.989-6.632 7.409-11.113 12.045-9.808 10.15-14.946 16.552-20.828 25.942-5.246 8.377-5.154 7.844-1.596 9.269 3.439 1.375 3.187 1.713-2.28 3.066l-4.258 1.054-6.993 13.345c-13.584 25.923-28.745 59.441-42.798 94.615-1.796 4.493-3.091 9.288-3.797 14.048-0.59 3.973-1.998 10.575-3.133 14.673-7.098 25.65-8.831 57.743-4.869 90.18 1.547 12.668 23.27 48.627 32.019 53.007 1.109 0.555 2.647 1.606 3.419 2.339 2.385 2.26 26.653 15.796 27.287 15.22 0.329-0.299 1.591-0.259 2.805 0.089 1.215 0.346 3.091 0.632 4.171 0.632s3.24 0.652 4.8 1.445c2.040 1.041 3.083 1.239 3.724 0.709 0.662-0.55 1.089-0.301 1.669 0.969 0.849 1.865 11.533 8.493 17.448 10.825 9.629 3.796 19.52 4.036 32.883 0.8 6.069-1.469 6.81-1.494 21.071-0.704l14.78 0.818 14.698-4.973c12.786-4.324 15.351-4.973 19.715-4.973 6.57 0 10.678-1.245 22.127-6.716 9.811-4.687 16.454-6.481 28.445-7.683 10.849-1.086 19.114-5.014 28.796-13.684 2.704-2.421 7.038-6.125 9.631-8.234 2.901-2.358 5.815-5.575 7.576-8.363 1.915-3.034 3.608-4.848 5.118-5.49 1.24-0.527 3.678-1.541 5.416-2.251 2.269-0.928 6.428-4.483 14.75-12.616 10.397-10.16 18.070-16.313 21.827-17.505 3.711-1.178 25.947-32.553 27.38-38.63 1.271-5.389 2.334-7.378 6.291-11.772 3.615-4.014 8.887-12.219 12.326-19.178 1.536-3.108 1.678-3.971 1.089-6.591-0.822-3.653-0.209-5.492 2.75-8.257 7.050-6.591 13.242-62.559 10.199-92.195-4.411-42.952-14.839-65.266-46.774-100.089-20.038-21.85-53.493-48.794-69.894-56.291-2.296-1.049-5.95-2.947-8.118-4.216-12.219-7.151-22.363-8.404-21.281-2.63 0.539 2.876-0.866 3.833-1.846 1.254-0.995-2.617-0.62-3.946 1.397-4.953l1.707-0.85-1.713-0.731c-0.941-0.403-7.717-1.7-15.056-2.883s-14.214-2.322-15.277-2.529c-1.613-0.316-1.932-0.136-1.932 1.096 0 1.221 0.301 1.399 1.757 1.032 2.019-0.506 2.010-0.526 0.978 2.439-0.428 1.228-1.649 2.682-2.715 3.234l-1.935 1.001-0.402-3.905c-0.524-5.084 1.473-4.567-20.309-5.257-16.632-0.528-30.089-1.337-40.233-2.417-1.968-0.21-3.634 0.145-5.566 1.187zM222.591 44.384c0.311 0.010 0.374 0.333 0.133 0.718-0.603 0.977-4.106 0.881-5.127-0.14-1.468-1.469-0.921-1.838 1.791-1.208 1.45 0.336 2.89 0.62 3.203 0.629zM293.579 46.374c0.192 0.309-0.582 0.911-1.716 1.34-2.175 0.822-2.587 0.274-1.642-2.189 0.418-1.090 2.483-0.566 3.359 0.85zM257.49 46.157c0.743 0.895 0.57 1.052-1.142 1.044-2.864-0.013-5.23-0.745-4.778-1.474 0.632-1.022 4.979-0.706 5.921 0.431zM265.956 50.416c0.598 0.719 1.536 0.959 2.72 0.693 1.435-0.323 1.228-0.042-1.002 1.355-3.492 2.189-3.748 2.191-3.332 0.013 0.26-1.363 0.042-1.758-0.976-1.767-1.103-0.008-1.144-0.118-0.257-0.691 1.435-0.928 1.791-0.877 2.846 0.397zM135.282 205.846c0 0.636-4.993 1.5-8.667 1.5-1.343 0-1.9-0.247-1.481-0.657 0.585-0.578 2.246-0.835 8.568-1.326 0.869-0.067 1.581 0.15 1.581 0.484zM199.757 227.855c1.538 1.538 0.889 2.131-1.786 1.629-3.355-0.629-4.080-1.093-2.89-1.846 1.373-0.87 3.696-0.762 4.675 0.216zM215.35 241.268c0 1.29-1.465 2.599-2.909 2.599-1.668 0-2.31-1.247-1.28-2.488 1.054-1.269 4.189-1.35 4.189-0.109zM302.842 246.702c14.351 6.947 21.144 32.841 9.584 36.536-1.435 0.459-3.558 1.399-4.717 2.089-12.067 7.183-32.692 8.617-42.483 2.954-13.386-7.743-12.362-14.911 3.192-22.326 9.503-4.532 19.522-12.144 20.366-15.476 0.718-2.836 1.337-3.315 5.578-4.345 4.293-1.042 5.288-0.976 8.479 0.57zM167.851 253.764c2.369 1.197 5.253 2.749 6.411 3.451 6.305 3.818 29.624 16.209 32.483 17.262 10.312 3.793 10.22 8.39-0.369 18.731-11.637 11.361-23.116 12.056-46.511 2.815-4.441-1.753-9.083-3.47-10.312-3.813-4.483-1.249-11.462-11.608-11.462-17.014 0-1.838 7.39-19.304 8.761-20.704 3.895-3.979 13.877-4.326 20.999-0.728zM128.258 285.329c0 0.399-0.553 0.923-1.228 1.166-0.677 0.243-1.795 1.024-2.487 1.733s-1.56 1.291-1.931 1.291c-0.963 0-0.837-3.070 0.168-4.073 1.029-1.029 5.477-1.125 5.477-0.118zM236.102 303.983c4.603 2.183 8.417 8.991 9.494 16.949 0.532 3.937 1.505 6.976 3.48 10.875 2.48 4.897 5.37 13.668 4.72 14.318-2.471 2.471-19.447 8.714-23.696 8.714-13.349 0-20.206-8.959-15.804-20.652 1.385-3.683 1.754-5.956 1.749-10.796l-0.007-6.128 6.324-6.057c5.154-4.935 9.552-8.222 11.143-8.326 0.136-0.010 1.304 0.486 2.599 1.101zM277.687 342.603c-1.053 1.054-5.338-0.702-4.685-1.921 0.697-1.305 0.77-1.3 2.826 0.164 1.161 0.827 1.998 1.618 1.858 1.757zM280.075 347.034c0.524 1.416 0.461 1.546-0.39 0.839-0.802-0.666-1.149-0.59-1.685 0.368-0.613 1.094-0.721 1.066-1.156-0.306-1.005-3.171 2.077-4.031 3.231-0.901zM99.813 378.719c0 0.901-0.395 1.771-0.879 1.932-0.579 0.193-0.877-0.464-0.877-1.932 0-1.466 0.298-2.125 0.877-1.932 0.483 0.161 0.879 1.031 0.879 1.932zM104.379 450.149c0 3.586-0.195 4.51-0.82 3.887-1.357-1.358-0.928-8.592 0.51-8.592 0.171 0 0.311 2.118 0.311 4.707zM160.561 463.731c-0.286 1.56-0.718 3.035-0.96 3.277-0.559 0.558-0.556-2.448 0.003-4.534 0.731-2.729 1.501-1.718 0.957 1.257zM189.538 467.724c-1.256 0.156-3.31 0.156-4.566 0s-0.228-0.284 2.283-0.284c2.511 0 3.538 0.128 2.283 0.284z"></path>
</svg>
