<!-- Generated by IcoMoon.io -->
<svg version="1.1" xmlns="http://www.w3.org/2000/svg" width="1024" height="1024" viewBox="0 0 1024 1024">
<title></title>
<g id="icomoon-ignore">
</g>
<path fill="#FFF" d="M653.052 160.201c-79.307 19.174-123.002 61.797-184.738 180.209-35.139 67.396-55.872 93.186-87.985 109.451-55.588 28.154-76.008 51.905-82.182 95.582-4.934 34.903-14.643 48.214-43.677 59.886-27.569 11.082-40.807 22.304-48.916 41.464-13.488 31.864-2.059 40.871 22.876 18.029 10.591-9.704 28.287-18.938 48.826-25.481 37.927-12.081 41.949-15.199 72.801-56.407 33.78-45.121 44.53-53.802 92.068-74.349 23.377-10.106 52.013-24.442 63.636-31.859 43.285-27.622 52.469-11.328 30.759 54.555-7.544 22.889-13.715 44.014-13.715 46.942 0 39.236-28.046 70.75-67.907 76.302-26.999 3.763-58.821 24.145-67.838 43.454-3.906 8.36-11.699 25.308-17.319 37.659-16.625 36.525-35.796 60.077-67.923 83.443-54.846 39.893-58.85 63.784-6.728 40.15 16.447-7.457 32.813-13.559 36.369-13.559 26.875 0 74.044-35.298 90.46-67.692 13.178-26.005 27.709-36.875 62.811-46.981 53.121-15.292 70.899-28.144 120.88-87.383 38.301-45.394 54.504-60.893 135.022-129.139 85.409-72.391 97.307-86.877 111.997-136.339 37.89-127.589-72.897-248.569-199.577-217.937z"></path>
</svg>
