<!-- Generated by IcoMoon.io -->
<svg version="1.1" xmlns="http://www.w3.org/2000/svg" width="1024" height="1024" viewBox="0 0 1024 1024">
<title></title>
<g id="icomoon-ignore">
</g>
<path fill="#FFF" d="M195.838 42.806c-3.293 1.323-5.985 2.897-5.985 3.496 0 3.903 8.423 20.076 11.992 23.050 16.719 13.876 18.702 75.535 4.105 127.689-18.216 65.076-1.989 109.548 45.548 124.841 5.372 1.726 11.154 4.819 12.851 6.86 1.701 2.046 7.483 5.151 12.851 6.9 9.358 3.051 22.245 15.51 33.709 32.574 2.927 4.36 7.414 11.027 9.962 14.822 2.552 3.794 4.65 9.311 4.659 12.26 0.007 2.946 2.523 10.036 5.589 15.752 3.614 6.747 6.347 18.645 7.775 33.905 1.438 15.372 4.007 26.495 7.401 32.137 2.864 4.743 7.237 14.905 9.723 22.563 8.279 25.523 18.205 19.954 19.090-10.705 0.329-11.274 2.288-23.296 4.497-27.572 2.157-4.172 5.24-12.374 6.853-18.224 5.893-21.345 30.844-34.267 52.166-27.019 11.679 3.969 12.38 0.579 12.856-61.966 0.522-68.953 2.615-64.235-29.669-66.789-26.632-2.109-61.073-18.604-86.769-41.563-22.388-20.005-25.352-26.809-38.954-89.579-10.542-48.624-41.193-94.222-68.936-102.537-5.402-1.614-11.994-5.349-14.652-8.283-5.294-5.845-7.663-6.212-16.649-2.601zM816.432 42.463c-28.977 10.194-57.999 32.651-68.086 52.702-3.529 7.008-8.415 15.79-10.859 19.513-4.586 6.971-15.18 48.4-20.66 80.769-7.323 43.238-64.802 89.778-113.212 91.654-31.972 1.241-31.729 0.96-29.307 33.586 1.088 14.673 2.254 39.283 2.583 54.692 0.781 36.48 2.799 40.321 20.892 39.784 23.739-0.706 25.486-0.209 36.484 10.462 13.214 12.825 19.286 30.94 19.688 58.755 0.349 23.8 1.756 26.608 13.376 26.608 9.158 0 14.739-8.242 14.739-21.764 0-2.755 2.927-11.955 6.5-20.448 4.673-11.105 7.020-23.019 8.36-42.42 1.469-21.359 2.889-27.908 6.811-31.459 2.724-2.467 6.272-9.379 7.889-15.356 1.608-5.977 6.994-15.372 11.962-20.87s9.036-11.237 9.036-12.747c0-1.514 5.67-5.181 12.605-8.149 6.935-2.971 14.605-7.552 17.041-10.167 2.441-2.619 9.061-5.502 14.697-6.408 20.956-3.352 44.251-35.627 47.53-65.846 1.578-14.563-4.332-51.405-13.193-82.186-4.718-16.395-5.861-75.147-1.679-86.147 1.379-3.621 8.082-13.921 14.888-22.873 15.352-20.189 12.145-28.805-8.082-21.696zM495.49 249.417c-3.021 7.041-7.778 17.674-10.563 23.621s-5.069 13.158-5.069 16.022c0 2.864-2.475 13.563-5.502 23.771-19.4 65.425-8.275 190.881 18.713 211.146 5.111 3.835 11.801 9.847 14.878 13.36 7.424 8.486 16.354 6.208 31.916-8.133 26.069-24.024 26.928-30.293 20.687-149.923-3.197-61.263-4.157-68.369-10.276-75.815-1.803-2.194-5.214-10.575-7.592-18.628-13.501-45.79-35.609-62.38-47.189-35.418zM216.599 339.21c-4.085 4.918-1.175 10.303 13.005 24.052 6.022 5.836 12.048 14.792 13.447 19.984 4.139 15.359 1.342 94.834-3.888 110.453-8.691 25.976-8.511 71.978 0.344 88.981 12.701 24.384 26.889 25.521 35.209 2.811 5.737-15.672 19.895-18.582 30.091-6.198 21.531 26.148 37.511 32.802 50.016 20.822l7.331-7.024 6.176 8.84c3.39 4.859 7.566 9.708 9.27 10.761 5.744 3.573 30.425 27.005 30.425 28.888 0 6.37-14.964 4.871-27.181-2.724-31.341-19.479-50.327-5.087-31.388 23.796 22.336 34.064 26.426 38.808 39.504 45.802 5.562 2.971 10.313 8.713 13.644 16.481 3.674 8.578 7.91 13.355 15.106 17.049 8.732 4.482 10.522 7.102 14.174 20.766 4 14.952 4.527 15.603 12.108 14.895 23.434-2.183 28.398 0.934 33.556 21.058 5.394 21.042 21.142 23.722 28.932 4.918 8.078-19.507 25.307-20.787 34.592-2.583 7.846 15.38 22.914 14.944 29.12-0.833 1.264-3.226 3.719-9.666 5.449-14.321 2.897-7.783 4.037-8.425 14.213-7.98 10.878 0.471 11.177 0.24 18.016-13.801 3.936-8.070 12.227-18.779 19.075-24.638 6.665-5.697 15.872-16.456 20.455-23.905 6.093-9.902 11.147-14.649 18.779-17.647 5.741-2.258 11.060-6.064 11.822-8.455 0.758-2.397 5.573-10.862 10.697-18.821 10.107-15.693 12.041-28.836 5.238-35.639-4.306-4.31-8.216-3.529-23.852 4.763-17.237 9.136-43.031 3.663-27.086-5.741 5.080-2.998 14.294-12.152 20.476-20.34 11.616-15.386 13.196-16.086 33.81-14.96 7.069 0.386 10.968-1.929 22.216-13.173 19.495-19.49 33.404-19.053 40.117 1.276 5.155 15.603 18.133 20.044 28.45 9.723 9.417-9.417 8.5-104.846-1.155-120.515-0.579-0.942-2.231-18.302-3.674-38.582-3.15-44.233-0.224-60.070 13.906-75.208 16.105-17.254 16.724-18.541 11.024-22.859-18.878-14.287-73.889 26.394-79.039 58.447-0.934 5.805-4.355 14.156-7.607 18.551-4.859 6.57-6.25 13.087-7.802 36.607-1.435 21.809-3.181 30.7-7.323 37.407-2.99 4.838-6.736 14.744-8.329 22.009-1.589 7.27-5.368 16.627-8.392 20.791-3.021 4.169-6.87 13.147-8.553 19.954l-3.058 12.38-11.973-0.829c-10.184-0.706-13.965 0.587-25.265 8.652-7.312 5.21-14.736 9.48-16.497 9.48-14.649 0-26.193 30.704-20.596 54.793 3.936 16.931 3.319 19.704-4.381 19.704-15.094 0-13.447-63.842 1.75-67.656 4.687-1.177 6.456-3.447 6.456-8.287 0-4.609 1.996-7.424 6.464-9.125 3.551-1.35 12.167-7.924 19.15-14.613l12.687-12.156-3.301-15.97c-1.813-8.781-4.030-28.028-4.931-42.772-1.547-25.436-2.085-27.352-10.556-37.485-4.903-5.873-10.029-12.642-11.387-15.049-2.262-4.018-3.218-3.969-11.752 0.597-11.361 6.078-14.126 12.866-16.414 40.258-2.434 29.179-12.731 50.112-36.131 73.468-21.804 21.764-42.255 27.567-42.266 12.011-0.004-3.435-14.623-17.741-31.479-30.787-18.487-14.318-24.518-26.29-27.101-53.863-6.49-69.207-50.157-38.156-54.767 38.952l-1.867 31.138 11.935 11.439c6.564 6.293 14.526 12.821 17.696 14.518s5.765 5.532 5.765 8.519c0 6.796-13.409 4.978-23.946-3.242-12.167-9.495-24.386-13.638-35.156-11.914-10.904 1.747-12.884-0.358-16.545-17.557-0.833-3.92-3.343-8.953-5.562-11.172-4.595-4.595-18.642-36.898-23.852-54.864-11.076-38.165-17.327-63.712-17.327-70.815 0-5.13-2.377-10.309-6.511-14.198-3.585-3.364-7.248-9.461-8.145-13.548-1.929-8.777-22.197-30.495-31.041-33.266-3.402-1.066-9.565-4.767-13.699-8.223-8.628-7.211-25.841-8.587-30.917-2.467zM449.965 608.106c10.459 30.305 10.422 33.41-0.579 42.047-12.504 9.816-15.839 7.409-13.558-9.798 2.637-19.834 1.772-33.739-2.639-42.578-5.059-10.146-5.065-10.123 3.234-9.14 6.206 0.733 7.932 3.218 13.543 19.469zM743.284 606.461c-8.115 2.296-13.232 11.756-13.285 24.551-0.021 5.674-2.633 13.429-6.366 18.929-3.48 5.13-7.82 13.839-9.636 19.356s-6.156 14.231-9.636 19.361c-3.48 5.126-6.325 10.774-6.325 12.546s-6.307 12.081-14.006 22.906c-17.962 25.243-28.457 45.527-32.23 62.258-2.688 11.935-4.157 13.861-14.357 18.762-6.295 3.023-14.392 9.921-18.156 15.457-7.629 11.225-12.694 10.055-15.699-3.621-3.164-14.392-8.647-15.271-14.314-2.291-2.785 6.381-9.73 16.089-15.431 21.569l-10.363 9.962-22.52-2.246c-12.388-1.238-25.296-1.229-28.678 0.014-19.562 7.185-43.542-4.405-48.981-23.662-4.586-16.245-8.545-16.818-15.027-2.172-6.542 14.792-7.597 14.871-19.98 1.488-5.417-5.854-14.568-13.054-20.34-15.994-7.213-3.681-10.989-7.629-12.085-12.639-4.586-20.983-27.929-62.064-47.735-83.991-2.415-2.676-5.685-8.666-7.262-13.298-1.578-4.643-6.269-12.369-10.429-17.176-4.157-4.802-7.562-10.926-7.562-13.611 0-2.676-2.46-7.987-5.461-11.809s-7.607-13.259-10.23-20.978c-12.223-35.972-31.329-29.206-27.979 9.907 1.128 13.169 1.827 28.735 1.554 34.589-0.274 5.85 1.825 18.421 4.659 27.939 2.837 9.509 5.965 21.749 6.957 27.195 0.991 5.443 4.972 15.024 8.849 21.284 3.88 6.261 8.84 14.881 11.027 19.154s8.463 12.451 13.951 18.178c5.487 5.723 9.976 11.389 9.976 12.589 0 1.196 3.681 3.465 8.183 5.031 9.576 3.343 8.049 8.313-2.55 8.313-4.414 0-9.864-2.665-13.614-6.655-3.435-3.66-7.741-6.655-9.57-6.655-5.685 0-19.686-13.492-25.188-24.283-12.041-23.602-26.294-11.316-19.516 16.825 11.345 47.099 36.402 80.97 81.538 110.232 27.729 17.977 67.27 52.93 75.225 66.505 12.684 21.644 24.425 12.609 21.314-16.403-4.628-43.246 31.67-52.67 58.194-15.106 10.522 14.895 23.647 13.943 31.821-2.31 3.832-7.623 25.759-21.187 35.343-21.868 12.15-0.864 20.193 16.451 16.937 36.459-5.603 34.439 10.654 44.839 26.421 16.9 7.241-12.828 21.341-27.118 40.053-40.578 75.292-54.158 88.186-67.536 99.952-103.766 3.326-10.247 8.014-23.942 10.41-30.44 11.679-31.628-15.363-39.478-28.353-8.228-3.063 7.369-6.904 13.405-8.538 13.415-1.638 0.014-8.228 4.205-14.652 9.311-12.842 10.208-16.686 11.192-21.427 5.476-2.546-3.065-1.902-4.643 3.282-8.037 13.346-8.743 27.774-24.351 29.628-32.050 1.058-4.388 4.268-10.492 7.133-13.563 3.069-3.293 6.314-12.444 7.903-22.305 1.48-9.2 4.292-19.862 6.25-23.685 2.475-4.848 3.849-22.28 4.539-57.455 1.068-54.818 1.346-53.825-13.626-49.598zM538.608 637.566c2.83 2.556 7.712 5.958 10.849 7.552 8.612 4.369 12.118 11.263 8.595 16.868-4.931 7.828-10.346 6.687-21.576-4.542-14.579-14.579-24.41-14.709-37.911-0.52-12.56 13.202-24.055 16.089-23.965 6.022 0.209-24.402 45.324-42.29 64.012-25.377z"></path>
</svg>
