<!-- Generated by IcoMoon.io -->
<svg version="1.1" xmlns="http://www.w3.org/2000/svg" width="1024" height="1024" viewBox="0 0 1024 1024">
<title></title>
<g id="icomoon-ignore">
</g>
<path fill="#FFF" d="M53.372 156.177c-3.271 3.271-1.735 15.606 2.37 19.010 2.262 1.876 6.888 9.216 10.292 16.299 3.402 7.091 9.634 18.647 13.844 25.682s9.376 16.816 11.47 21.741c2.095 4.92 5.474 11.827 7.507 15.347 2.036 3.516 7.262 12.721 11.609 20.463s11.599 20.034 16.103 27.332c4.508 7.287 12.086 19.95 16.846 28.136 29.080 49.998 45.589 77.811 52.853 89.053 4.548 7.034 11.274 17.658 14.948 23.609 4.381 7.091 9.107 11.363 13.713 12.388 14.368 3.202 15.661 4.033 17.229 11.17 0.88 4.010 3.944 9.415 6.816 12.011 5.759 5.211 5.067 5.709 18.276-13.023 11.47-16.254 25.103-3.241 22.929 21.9-0.74 8.531 0.435 21.695 2.887 32.477 6.027 26.5 5.359 43.221-2.406 60.18-7.458 16.29-6.646 19.017 11.392 38.213 12.352 13.131 23.822 15.972 43.73 10.809 28.851-7.477 48.048 2.235 53.547 27.083 6.59 29.727 21.374 38.41 30.13 17.677 7.359-17.415 16.071-14.080 16.071 6.164 0 6.914 6.302 12.979 15.834 15.246 8.377 1.99 14.843-5.608 14.902-17.501 0.053-10.793 3.293-15.045 9.87-12.964 5.677 1.8 6.262 3.349 5.529 14.646-1.49 22.932 22.647 23.655 26.933 0.808 3.107-16.542 12.42-18.149 15.337-2.642 4.292 22.886 21.374 19.645 21.19-4.016-0.236-30.945 20.509-47.36 58.749-46.476 21.446 0.494 24.765-0.076 33.251-5.664 27.182-17.9 37.778-38.907 25.42-50.398-17.786-16.522-8.066-59.414 14.898-65.754 14.129-3.9 40.866 3.919 50.751 14.84 13.834 15.292 24.038 4.904 25.256-25.711 0.464-11.749 2.22-23.875 3.883-26.942l3.031-5.572 14.562 8.771c19.524 11.759 23.358 9.596 27.676-15.615 5.493-32.032 13.677-40.655 26.713-28.163 15.763 15.108 29.309 5.035 29.558-21.98 0.275-30.392 10.208-38.021 29.398-22.579 3.52 2.828 12.149 9.019 19.184 13.756 7.038 4.734 15.602 11.637 19.036 15.334 5.169 5.565 25.865 14.306 33.866 14.306 2.959 0 2.615-14.722-0.393-16.581-1.368-0.844-4.789-6.38-7.614-12.302s-9.902-18.247-15.746-27.391c-5.84-9.147-12.931-22.094-15.75-28.775-2.819-6.685-6.063-12.149-7.196-12.149-1.142 0-7.464-11.225-14.057-24.939s-19.363-37.837-28.376-53.602c-9.016-15.763-18.791-34.18-21.727-40.925-12.348-28.37-28.693-26.838-26.14 2.459 1.882 21.593-7.768 42.014-27.577 58.349-19.792 16.322-53.841 45.891-59.136 51.347-2.501 2.583-8.256 6.603-12.79 8.931s-11.117 6.42-14.633 9.091c-24.31 18.464-78.594 48.119-88.071 48.119-5.66 0-26.435-14.993-29.138-21.026-2.001-4.462-31.901-20.264-52.309-27.653-27.473-9.938-89.161-10.62-106.698-1.178-15.524 8.355-48.849 8.61-61.158 0.462-5.451-3.611-13.914-8.237-18.797-10.273s-20.414-14.775-34.491-28.29c-28.582-27.429-33.326-29.208-48.050-17.972-11.316 8.623-12.705 8.119-56.221-20.591-19.701-12.987-41.294-26.956-47.989-31.038-17.21-10.485-47.379-30.586-59.446-39.598-5.628-4.204-14.84-10.623-20.467-14.264-5.624-3.64-13.108-9.218-16.626-12.394-6.475-5.846-23.214-10.466-26.402-7.277zM601.038 498.9c15.518 4.154 18.012 31.532 4.256 46.751-16.284 18.021-37.215 22.241-50.869 10.246-28.524-25.040 6.413-67.765 46.613-56.998zM391.2 522.109c27.469 18.909 33.133 28.949 23.135 40.996-6.259 7.543-26.851-3.653-44.669-24.297-16.522-19.135-16.626-19.348-12.236-25.61 4.881-6.966 14.332-4.472 33.777 8.91zM510.283 561.027c13.301 5.054 13.923 29.191 0.91 35.512-13.513 6.563-20.346-0.435-20.070-20.562 0.216-15.684 5.795-20.032 19.154-14.95zM688.483 568.234c-5.293 8.937-5.477 10.704-2.681 25.937 2.887 15.733 2.767 16.604-3.119 23.020-3.362 3.67-8.711 11.016-11.884 16.326-8.492 14.214-18.021 18.228-42.23 17.782-39.467-0.72-52.247 18.575-37.457 56.552 4.227 10.849 1.667 12.496-16.398 10.564l-16.103-1.725-1.65 7.496c-0.903 4.122-0.441 10.672 1.034 14.551 3.522 9.265 1.623 11.74-8.967 11.74-7.477 0-8.976-1.028-10.292-7.034-6.433-29.472-31.814-41.755-31.814-15.396 0 4.010 2.305 11.795 5.12 17.314 9.756 19.121 5.88 25.574-15.347 25.574-15.919 0-20.467-2.868-20.467-12.922 0-23.436-6.508-26.543-23.839-11.379-17.261 15.095-22.202 12.895-22.202-9.909 0-18.787-5.548-19.625-21.885-3.293-18.162 18.158-21.56 16.548-24.679-11.7-8.495-76.986-11.301-81.442-43.972-69.801-20.646 7.359-52.365-10.786-71.45-40.862-10.168-16.024-13.785-16.028-22.009-0.010-3.791 7.376-10.132 14.948-15.003 17.904-11.959 7.262-34.969 22.579-53.134 35.375-15.265 10.751-22.755 13.124-74.557 23.649-17.166 3.486-18.021 18.584-2.4 42.289 16.191 24.572 19.285 29.588 33.784 54.725 8.112 14.067 18.843 31.909 23.852 39.647 5.002 7.736 11.215 18.677 13.815 24.304 12.77 27.718 29.993 26.215 29.993-2.629 0-9.83 4.052-13.733 16.335-15.729 6.835-1.11 10.39-3.63 14.195-10.083 5.192-8.806 18.873-18.843 25.741-18.886 12.709-0.078 23.761-6.007 31.397-16.846 15.081-21.4 39.925-22.788 50.686-2.838 3.647 6.764 9.978 14.731 14.064 17.721 4.096 2.989 13.144 11.85 20.11 19.681 35.139 39.53 41.938 41.965 111.14 39.716 69.591-2.258 72.636-3.539 115.010-48.391 7.925-8.384 18.84-19.318 24.261-24.3 11.683-10.725 19.557-25.082 19.557-35.64 0-22.526 9.946-28.058 52.133-29.014l29.407-0.667 8.469 8.028c4.658 4.417 12.050 9.828 16.423 12.034 4.373 2.197 9.406 7.507 11.183 11.795 3.379 8.151 3.375 8.194-6.718 41.984-7.49 25.103 8.999 31.394 26.006 9.932 23.105-29.158 43.396-30.082 40.21-1.84-1.925 17.092 6.954 20.667 19.612 7.899 5.048-5.094 16.666-15.75 25.81-23.681 71.464-61.964 80.083-77.661 42.656-77.661-24.572 0-36.861-30.213-23.417-57.551 12.721-25.861-4.299-31.574-30.052-10.086-3.837 3.202-10.744 6.635-15.347 7.631s-11.428 3.971-15.163 6.61c-17.233 12.177-50.761-5.248-50.761-26.382-0.004-5.189 1.057-10.092 2.353-10.892 3.666-2.269 15.183-23.943 13.576-25.551-2.799-2.796-17.989-1.385-27.393 2.543-13.789 5.761-40.872-2.079-47.052-13.612-2.665-4.979-19.743-23.616-21.636-23.616-0.661 0-3.752 4.318-6.875 9.592zM470.447 564.398c9.988 12.675 5.137 33.26-8.384 35.571-12.669 2.174-17.075-2.495-16.005-16.948 1.015-13.642 18.061-26.663 24.388-18.631z"></path>
</svg>
