<!-- Generated by IcoMoon.io -->
<svg version="1.1" xmlns="http://www.w3.org/2000/svg" width="100" height="100" viewBox="0 0 512 512">
<title></title>
<g id="icomoon-ignore">
</g>
<path fill="#FFF" d="M249.532 111.657c0 0.561-0.46 1.021-1.021 1.021-0.567 0-1.023 0.606-1.023 1.362 0 0.908-0.453 1.362-1.362 1.362-0.757 0-1.362 0.454-1.362 1.021 0 0.561-0.46 1.021-1.021 1.021-0.567 0-1.023 0.606-1.023 1.362 0 0.837-0.458 1.368-1.19 1.377-0.657 0.009-1.677 1.002-2.27 2.213-0.63 1.28-1.695 2.289-2.553 2.415-0.928 0.136-1.475 0.706-1.475 1.532 0 0.722-0.46 1.314-1.021 1.314-0.563 0-1.021 0.46-1.021 1.021 0 0.567-0.606 1.021-1.363 1.021-1.102 0-1.362 0.454-1.362 2.383 0 1.665-0.308 2.382-1.021 2.382s-1.021 0.719-1.021 2.383c0 1.929-0.26 2.382-1.363 2.382-1.101 0-1.362 0.454-1.362 2.383 0 1.663-0.308 2.382-1.021 2.382-0.785 0-1.021 0.87-1.021 3.745 0 3.291-0.166 3.745-1.363 3.745-1.101 0-1.362 0.453-1.362 2.382 0 1.665-0.308 2.383-1.021 2.383-0.859 0-1.021 1.512-1.021 9.532 0 9.077-0.065 9.532-1.362 9.532-1.197 0-1.363 0.453-1.363 3.744 0 2.060-0.292 3.745-0.649 3.745s-0.851 1.072-1.097 2.382c-0.421 2.239-0.608 2.383-3.095 2.383-1.9 0-2.648 0.289-2.648 1.021 0 0.563-0.46 1.021-1.021 1.021-0.567 0-1.023 0.606-1.023 1.363 0 1.101-0.453 1.362-2.382 1.362-1.665 0-2.383 0.308-2.383 1.021 0 0.567-0.605 1.021-1.362 1.021-0.908 0-1.362 0.454-1.362 1.363 0 0.756-0.454 1.362-1.021 1.362-0.563 0-1.023 0.46-1.023 1.021 0 0.567-0.605 1.021-1.362 1.021-0.908 0-1.362 0.454-1.362 1.362 0 1.181-0.453 1.363-3.405 1.363-2.571 0-3.404 0.25-3.404 1.021 0 0.714-0.719 1.021-2.383 1.021-1.929 0-2.382 0.26-2.382 1.362 0 1.181-0.454 1.363-3.425 1.363-2.418 0-3.542 0.301-3.817 1.021-0.274 0.715-1.391 1.021-3.724 1.021-2.878 0-3.331 0.185-3.331 1.362 0 1.197-0.454 1.363-3.745 1.363s-3.745-0.166-3.745-1.363c0-1.196-0.453-1.362-3.744-1.362-2.875 0-3.745-0.237-3.745-1.021 0-0.563-0.46-1.021-1.021-1.021-0.567 0-1.023-0.606-1.023-1.363 0-0.906-0.453-1.362-1.362-1.362-0.757 0-1.362-0.453-1.362-1.021 0-0.561-0.46-1.021-1.021-1.021-0.711 0-1.021-0.715-1.021-2.345 0-1.977-0.214-2.302-1.363-2.082-1.061 0.203-1.362-0.104-1.362-1.401 0-1.025-0.393-1.663-1.021-1.663-0.563 0-1.021-0.458-1.021-1.021 0-0.785-0.871-1.021-3.745-1.021h-3.745v2.382c0 1.929 0.259 2.383 1.362 2.383s1.363 0.453 1.363 2.382c0 1.665 0.308 2.383 1.021 2.383s1.021 0.719 1.021 2.382c0 1.929 0.259 2.383 1.362 2.383 0.757 0 1.363 0.453 1.363 1.021 0 0.561 0.458 1.021 1.021 1.021 0.567 0 1.021 0.606 1.021 1.362 0 0.908 0.453 1.363 1.362 1.363s1.363 0.453 1.363 1.362c0 0.757 0.453 1.362 1.021 1.362 0.561 0 1.021 0.46 1.021 1.021 0 0.714 0.719 1.023 2.382 1.023 1.929 0 2.383 0.259 2.383 1.362s0.453 1.362 2.382 1.362c1.665 0 2.383 0.309 2.383 1.021 0 0.714 0.719 1.023 2.382 1.023 1.929 0 2.383 0.259 2.383 1.362 0 1.134 0.453 1.362 2.722 1.362 1.967 0 2.724 0.284 2.724 1.021 0 0.714 0.719 1.021 2.382 1.021 1.929 0 2.383 0.26 2.383 1.363 0 0.756 0.453 1.362 1.021 1.362 0.561 0 1.021 0.46 1.021 1.021 0 0.567 0.606 1.021 1.362 1.021 0.908 0 1.363 0.454 1.363 1.363 0 0.756 0.453 1.362 1.021 1.362 0.851 0 1.021 1.362 1.021 8.171 0 7.716 0.076 8.169 1.362 8.169 1.136 0 1.363 0.454 1.363 2.724 0 1.967 0.284 2.722 1.021 2.722 0.714 0 1.021 0.719 1.021 2.383 0 1.929 0.259 2.382 1.362 2.382 0.757 0 1.363 0.454 1.363 1.021 0 0.563 0.458 1.022 1.021 1.022 0.567 0 1.021 0.604 1.021 1.361 0 0.908 0.453 1.361 1.362 1.361 0.757 0 1.363 0.454 1.363 1.021 0 0.563 0.458 1.022 1.021 1.022 0.567 0 1.021 0.604 1.021 1.361 0 0.908 0.453 1.361 1.362 1.361 0.757 0 1.362 0.454 1.362 1.021 0 0.563 0.46 1.022 1.023 1.022 0.875 0 1.021 2.080 1.021 14.637 0 12.558-0.146 14.639-1.021 14.639-0.773 0-1.023 0.833-1.023 3.404 0 2.444-0.266 3.404-0.941 3.404-0.519 0-1.127 0.688-1.352 1.531-0.493 1.836-0.471 12.796 0.021 11.575 0.189-0.468 0.854-0.846 1.478-0.841 0.896 0.008 0.941 0.134 0.212 0.596-0.645 0.409-0.696 0.726-0.171 1.051 1.327 0.82 0.879 3.109-0.608 3.109-1.18 0-1.362 0.454-1.362 3.404 0 2.572-0.25 3.404-1.021 3.404-0.785 0-1.021 0.87-1.021 3.745 0 3.291-0.166 3.745-1.363 3.745-1.092 0-1.362 0.454-1.362 2.298 0 2.012-0.256 2.348-2.056 2.708-1.608 0.322-2.147 0.861-2.468 2.469-0.227 1.13-0.833 2.057-1.348 2.057s-0.935 0.613-0.935 1.361c0 0.908-0.454 1.361-1.363 1.361-1.102 0-1.362 0.454-1.362 2.384 0 1.663-0.308 2.382-1.021 2.382-0.563 0-1.021 0.46-1.021 1.021 0 0.567-0.606 1.022-1.363 1.022-0.881 0-1.362 0.454-1.362 1.285 0 0.93-0.659 1.41-2.382 1.733-1.311 0.245-2.383 0.74-2.383 1.097 0 0.364-2.69 0.651-6.127 0.651-4.994 0-6.127-0.189-6.127-1.022 0-0.561-0.46-1.021-1.021-1.021-0.567 0-1.023-0.604-1.023-1.361 0-0.908-0.453-1.361-1.362-1.361-0.757 0-1.362-0.454-1.362-1.022 0-0.561-0.46-1.021-1.021-1.021-0.785 0-1.023-0.87-1.023-3.745 0-3.291-0.165-3.743-1.362-3.743-1.102 0-1.362-0.454-1.362-2.384 0-1.663-0.308-2.382-1.021-2.382s-1.021-0.719-1.021-2.384c0-1.929-0.26-2.382-1.363-2.382-1.196 0-1.362-0.454-1.362-3.745 0-2.688-0.259-3.745-0.918-3.745-0.68 0-1.024-1.721-1.322-6.637-0.542-8.884 0.096-17.192 1.318-17.192 0.601 0 0.923-0.832 0.923-2.384 0-1.929 0.259-2.382 1.362-2.382 0.757 0 1.363-0.454 1.363-1.022 0-0.561 0.588-1.021 1.305-1.021 2.030 0 3.46-0.733 3.46-1.774 0-0.721 1.147-0.949 4.766-0.949 4.313 0 4.766 0.129 4.766 1.361 0 1.103 0.454 1.361 2.383 1.361 1.663 0 2.382 0.309 2.382 1.021 0 0.714 0.719 1.022 2.383 1.022 1.929 0 2.382 0.259 2.382 1.361 0 0.908 0.454 1.361 1.362 1.361s1.363-0.454 1.363-1.361c0-0.757 0.453-1.361 1.021-1.361 0.772 0 1.021-0.833 1.021-3.404s-0.25-3.404-1.021-3.404c-0.567 0-1.021-0.604-1.021-1.361 0-0.908-0.454-1.361-1.363-1.361-0.906 0-1.362-0.454-1.362-1.361 0-0.757-0.453-1.363-1.021-1.363-0.561 0-1.021-0.459-1.021-1.021 0-0.737-0.757-1.021-2.724-1.021-2.286 0-2.722-0.224-2.722-1.387 0-1.334-0.367-1.384-9.532-1.297-8.888 0.084-9.532 0.178-9.532 1.387 0 1.103-0.51 1.297-3.405 1.297-2.571 0-3.404 0.25-3.404 1.021 0 0.567-0.606 1.021-1.363 1.021-0.906 0-1.362 0.454-1.362 1.363 0 0.755-0.453 1.361-1.021 1.361s-1.021 0.604-1.021 1.361c0 0.908-0.454 1.361-1.363 1.361-1.101 0-1.362 0.454-1.362 2.384 0 1.663-0.308 2.382-1.021 2.382-0.563 0-1.021 0.46-1.021 1.021 0 0.567-0.606 1.022-1.362 1.022-1.101 0-1.362 0.454-1.362 2.382 0 1.575-0.32 2.384-0.942 2.384-1.552 0-1.762 2.32-1.772 19.574-0.009 16.060 0.028 16.511 1.352 16.511 1.103 0 1.362 0.454 1.362 2.382s0.26 2.384 1.362 2.384c1.103 0 1.362 0.454 1.362 2.382 0 1.665 0.308 2.384 1.021 2.384s1.021 0.719 1.021 2.382c0 1.665-0.308 2.384-1.021 2.384-0.567 0-1.021 0.604-1.021 1.361 0 1.197-0.454 1.361-3.745 1.361s-3.745-0.164-3.745-1.361c0-0.87-0.454-1.361-1.256-1.361-1.517 0-3.51-2.059-3.51-3.628 0-0.685-0.543-1.138-1.362-1.138-1.103 0-1.362-0.454-1.362-2.384 0-1.663-0.309-2.382-1.021-2.382-0.563 0-1.022-0.46-1.022-1.021 0-0.567-0.605-1.022-1.362-1.022-0.859 0-1.362-0.454-1.362-1.231 0-0.676-0.451-1.827-1-2.553s-1.009-1.858-1.021-2.512c-0.013-0.731-0.549-1.192-1.383-1.192-0.908 0-1.362-0.454-1.362-1.361 0-0.757-0.454-1.363-1.021-1.363-0.713 0-1.022-0.719-1.022-2.382 0-1.929-0.259-2.384-1.362-2.384-0.755 0-1.362-0.454-1.362-1.021 0-0.561-0.46-1.021-1.021-1.021-0.713 0-1.021-0.719-1.021-2.384 0-1.929-0.26-2.382-1.362-2.382s-1.362-0.454-1.362-2.382c0-1.665-0.308-2.384-1.021-2.384-0.567 0-1.021-0.604-1.021-1.361 0-0.908-0.454-1.361-1.362-1.361-0.755 0-1.362-0.454-1.362-1.022 0-0.561-0.46-1.021-1.021-1.021-0.713 0-1.021-0.719-1.021-2.382 0-1.929-0.26-2.384-1.362-2.384-1.231 0-1.362-0.454-1.362-4.766 0-3.782-0.21-4.766-1.021-4.766-0.567 0-1.021-0.604-1.021-1.361 0-0.908-0.454-1.361-1.362-1.361-1.080 0-1.362-0.457-1.371-2.213-0.013-3.235-0.699-5.277-1.772-5.277-0.621 0-0.941-0.808-0.941-2.382 0-1.312-0.325-2.384-0.722-2.384s-0.532-0.306-0.301-0.68c0.233-0.375 0.136-0.68-0.213-0.68-0.348 0-0.829-1.226-1.070-2.723-0.281-1.764-0.793-2.724-1.448-2.724-0.8 0-1.013-1-1.013-4.766 0-3.782-0.212-4.766-1.022-4.766-1.654 0-1.511-32.772 0.153-34.715 1.538-1.798 13.124-2.105 13.124-0.348 0 0.714 0.719 1.021 2.383 1.021 1.929 0 2.382 0.26 2.382 1.363 0 0.906 0.454 1.362 1.362 1.362 0.757 0 1.362 0.453 1.362 1.021 0 0.563 0.459 1.021 1.021 1.021 0.567 0 1.021 0.606 1.021 1.363 0 0.906 0.454 1.362 1.362 1.362 0.93 0 1.362 0.453 1.362 1.429 0 0.786 1.073 2.502 2.382 3.812 1.31 1.311 2.382 2.812 2.382 3.337s0.46 0.954 1.022 0.954c0.561 0 1.021 0.588 1.021 1.306 0 2.029 0.733 3.46 1.775 3.46 0.522 0 0.948 0.613 0.948 1.361 0 0.757 0.454 1.361 1.022 1.361 0.657 0 1.023 0.666 1.030 1.873 0.014 2.916 0.74 4.937 1.772 4.937 0.687 0 0.941 1.009 0.941 3.743 0 2.875 0.238 3.745 1.022 3.745 0.561 0 1.021 0.46 1.021 1.021 0 0.714 0.719 1.021 2.382 1.021 1.665 0 2.383-0.308 2.383-1.021 0-0.567 0.605-1.021 1.362-1.021 1.275 0 1.362-0.454 1.362-7.149 0-6.507-0.113-7.149-1.261-7.149-1.138 0-1.31-0.853-1.743-8.63-0.263-4.746-0.767-9.168-1.121-9.827-0.352-0.659-0.641-2.75-0.641-4.647 0-2.928-0.195-3.45-1.285-3.45-0.93 0-1.41-0.659-1.733-2.383-0.246-1.31-0.706-2.382-1.021-2.382-0.317 0-0.775-1.072-1.022-2.382-0.267-1.427-0.844-2.383-1.436-2.383-0.678 0-0.991-0.751-0.991-2.382 0-1.665-0.309-2.383-1.021-2.383-0.567 0-1.022-0.605-1.022-1.362 0-0.908-0.454-1.362-1.362-1.362-0.859 0-1.362-0.454-1.362-1.232 0-0.677-0.45-1.825-1-2.553-0.549-0.726-1.009-1.857-1.021-2.512-0.013-0.731-0.549-1.192-1.383-1.192-1.103 0-1.362-0.453-1.362-2.382 0-1.665-0.308-2.383-1.021-2.383-0.563 0-1.021-0.46-1.021-1.021 0-0.567-0.606-1.021-1.362-1.021-0.908 0-1.362-0.454-1.362-1.363 0-1.101-0.454-1.362-2.382-1.362-1.665 0-2.383-0.308-2.383-1.021s-0.719-1.021-2.382-1.021c-1.929 0-2.383-0.26-2.383-1.362s-0.454-1.363-2.382-1.363c-1.665 0-2.383-0.308-2.383-1.021 0-0.567-0.605-1.021-1.362-1.021-0.908 0-1.362-0.454-1.362-1.362 0-1.102-0.454-1.363-2.383-1.363-1.663 0-2.382-0.308-2.382-1.021 0-0.859-1.514-1.021-9.532-1.021h-9.532v3.405c0 2.95 0.181 3.404 1.361 3.404 1.102 0 1.361 0.454 1.361 2.383s-0.259 2.382-1.361 2.382c-1.279 0-1.361 0.454-1.361 7.49 0 6.202-0.176 7.488-1.021 7.488-0.563 0-1.021 0.46-1.021 1.021 0 0.567-0.606 1.023-1.362 1.023-1.102 0-1.361 0.453-1.361 2.382 0 1.665-0.307 2.383-1.021 2.383-0.833 0-1.021 1.134-1.021 6.127 0 5.674-0.101 6.127-1.362 6.127-1.102 0-1.361 0.453-1.361 2.382 0 1.643-0.312 2.383-1 2.383-0.705 0-0.975 0.696-0.913 2.347 0.048 1.291 0.423 2.286 0.831 2.213 0.465-0.084 0.818 1.708 0.942 4.802 0.166 4.083 0.019 4.937-0.85 4.937-0.914 0-1.051 1.862-1.051 14.298 0 12.255 0.146 14.297 1.021 14.297 0.783 0 1.021 0.87 1.021 3.745 0 3.291 0.166 3.745 1.361 3.745 1.233 0 1.362 0.454 1.362 4.766 0 3.782 0.21 4.766 1.021 4.766 0.783 0 1.021 0.87 1.021 3.743 0 3.291 0.166 3.745 1.361 3.745 1.102 0 1.362 0.454 1.362 2.384 0 1.663 0.307 2.382 1.021 2.382s1.021 0.719 1.021 2.384c0 1.929 0.259 2.382 1.361 2.382s1.361 0.454 1.361 2.384c0 1.663 0.309 2.382 1.023 2.382 0.809 0 1.021 0.983 1.021 4.766 0 4.313 0.13 4.766 1.361 4.766 1.102 0 1.361 0.454 1.361 2.382 0 1.665 0.309 2.384 1.023 2.384 0.561 0 1.021 0.46 1.021 1.021 0 0.567 0.605 1.021 1.361 1.021 1.051 0 1.361 0.454 1.361 1.995 0 1.096 0.46 2.454 1.022 3.014 0.561 0.563 1.021 1.349 1.021 1.752 0 0.401 0.612 0.729 1.362 0.729 1.103 0 1.362 0.454 1.362 2.382 0 1.665 0.309 2.384 1.021 2.384 0.567 0 1.022 0.604 1.022 1.361 0 0.749 0.612 1.975 1.362 2.724 0.749 0.748 1.362 1.822 1.362 2.382s0.46 1.021 1.021 1.021c0.563 0 1.022 0.46 1.022 1.021 0 0.567 0.605 1.022 1.362 1.022 0.908 0 1.362 0.454 1.362 1.361s0.454 1.361 1.362 1.361c0.757 0 1.362 0.454 1.362 1.021 0 0.563 0.459 1.022 1.021 1.022 0.584 0 1.021 0.613 1.021 1.428 0 1.856 11.080 12.868 12.946 12.868 0.899 0 1.352 0.457 1.352 1.363 0 0.906 0.454 1.361 1.362 1.361s1.362 0.454 1.362 1.361c0 1.103 0.454 1.361 2.383 1.361 1.663 0 2.382 0.309 2.382 1.022 0 0.561 0.46 1.021 1.022 1.021 0.567 0 1.021 0.604 1.021 1.361 0 0.834 0.461 1.37 1.192 1.384 0.654 0.012 1.786 0.471 2.513 1.021s1.876 1 2.553 1c0.778 0 1.231 0.502 1.231 1.361 0 0.757 0.454 1.361 1.022 1.361 0.561 0 1.021 0.46 1.021 1.022 0 0.816 1.021 1.021 5.106 1.021 4.651 0 5.106 0.121 5.106 1.361 0 1.103 0.454 1.361 2.383 1.361 1.665 0 2.383 0.309 2.383 1.021 0 0.772 0.832 1.022 3.404 1.022 2.446 0 3.405 0.265 3.405 0.941 0 1.356 2.203 1.764 9.532 1.764 7.22 0 9.532-0.409 9.532-1.687 0-0.476 1.072-1.067 2.382-1.313 1.311-0.245 2.383-0.74 2.383-1.097 0-0.393 6.113-0.654 15.488-0.659 16.24-0.009 18.553-0.23 18.553-1.772 0-0.623 0.808-0.942 2.383-0.942 1.663 0 2.382-0.309 2.382-1.021 0-0.563 0.46-1.022 1.023-1.022 0.566 0 1.021-0.604 1.021-1.361 0-1.103 0.453-1.361 2.382-1.361 1.665 0 2.383-0.309 2.383-1.021 0-0.738 0.756-1.022 2.722-1.022 2.269 0 2.724-0.226 2.724-1.361 0-0.757 0.453-1.361 1.021-1.361 0.563 0 1.021-0.46 1.021-1.021 0-0.714 0.719-1.022 2.383-1.022 1.929 0 2.382-0.259 2.382-1.361 0-0.908 0.454-1.361 1.362-1.361s1.363-0.454 1.363-1.361c0-0.757 0.453-1.363 1.021-1.363 0.561 0 1.021-0.459 1.021-1.021 0-0.567 0.606-1.021 1.362-1.021 0.924 0 1.363-0.454 1.363-1.41 0-0.776 0.458-1.87 1.021-2.433 0.561-0.561 1.021-1.613 1.021-2.334 0-0.86 0.47-1.314 1.362-1.314 0.757 0 1.363-0.454 1.363-1.021 0-0.561 0.458-1.021 1.021-1.021 0.567 0 1.021-0.604 1.021-1.361 0-0.908 0.453-1.361 1.362-1.361 1.102 0 1.363-0.454 1.363-2.384 0-1.663 0.308-2.382 1.021-2.382s1.021-0.719 1.021-2.384c0-1.929 0.259-2.382 1.362-2.382 0.908 0 1.362-0.454 1.362-1.363 0-0.749 0.282-1.361 0.627-1.361s0.829-0.918 1.076-2.042c0.309-1.404 0.857-2.043 1.756-2.043 0.854 0 1.308-0.471 1.308-1.361 0-1.197 0.454-1.361 3.745-1.361s3.745 0.164 3.745 1.361c0 0.757 0.453 1.361 1.021 1.361 0.714 0 1.021 0.719 1.021 2.384 0 1.874 0.272 2.382 1.274 2.382 1.013 0 1.347 0.659 1.636 3.212 0.199 1.767 0.698 3.325 1.109 3.461 0.411 0.138 0.748 1.297 0.748 2.575 0 1.827 0.276 2.327 1.286 2.327 0.707 0 1.272 0.382 1.255 0.85-0.099 2.644 0.291 3.914 1.204 3.914 0.567 0 1.021 0.606 1.021 1.363 0 0.908 0.454 1.361 1.361 1.361 1.103 0 1.363 0.454 1.363 2.384 0 1.663 0.308 2.382 1.021 2.382 0.561 0 1.021 0.46 1.021 1.021 0 0.567 0.606 1.021 1.361 1.021 0.908 0 1.363 0.454 1.363 1.363 0 0.755 0.454 1.361 1.021 1.361s1.021 0.604 1.021 1.361c0 0.908 0.454 1.361 1.361 1.361 0.757 0 1.363 0.454 1.363 1.022 0 0.561 0.459 1.021 1.021 1.021 0.567 0 1.021 0.604 1.021 1.361 0 1.103 0.454 1.361 2.384 1.361 1.663 0 2.382 0.309 2.382 1.022 0 0.561 0.46 1.021 1.021 1.021 0.563 0 1.635 0.613 2.384 1.361s1.974 1.361 2.723 1.361c0.757 0 1.361 0.454 1.361 1.022 0 0.567 0.606 1.021 1.363 1.021 0.908 0 1.361 0.454 1.361 1.361 0 1.103 0.454 1.361 2.382 1.361 1.665 0 2.384 0.309 2.384 1.021 0 0.871 1.849 1.022 12.555 1.022 7.538 0 12.721 0.268 12.971 0.673 0.239 0.387-0.034 0.5-0.64 0.268-0.581-0.224-1.057-0.067-1.057 0.348 0 0.488 1.918 0.753 5.447 0.753 3.993 0 5.401-0.228 5.276-0.851-0.127-0.639 2.076-0.897 8.851-1.041 8.673-0.183 9.021-0.137 9.021 1.192 0 1.33 0.402 1.381 10.894 1.381 10.44 0 10.894-0.057 10.894-1.361 0-0.851 0.454-1.361 1.21-1.361 0.665 0 1.815-0.421 2.553-0.935s2.337-1.151 3.556-1.416c1.231-0.268 2.213-0.909 2.213-1.448 0-0.719 0.962-0.967 3.743-0.967 2.875 0 3.745-0.238 3.745-1.021 0-0.714 0.719-1.022 2.382-1.022 1.93 0 2.384-0.259 2.384-1.361 0-0.749 0.447-1.361 0.993-1.361 1.913 0 5.782-2.385 5.799-3.574 0.009-0.732 0.541-1.192 1.378-1.192 0.755 0 1.361-0.454 1.361-1.021 0-0.714 0.719-1.022 2.382-1.022 1.929 0 2.384-0.259 2.384-1.361 0-0.757 0.454-1.361 1.021-1.361s1.021-0.606 1.021-1.361c0-0.908 0.454-1.363 1.361-1.363 0.757 0 1.363-0.454 1.363-1.021 0-0.561 0.459-1.021 1.021-1.021 0.567 0 1.021-0.606 1.021-1.361 0-0.908 0.454-1.363 1.361-1.363 0.757 0 1.363-0.454 1.363-1.021 0-0.561 0.459-1.021 1.021-1.021 0.567 0 1.021-0.606 1.021-1.361 0-0.908 0.454-1.363 1.361-1.363 0.757 0 1.363-0.454 1.363-1.021s0.604-1.021 1.361-1.021c0.908 0 1.361-0.454 1.361-1.361 0-0.757 0.454-1.361 1.021-1.361 0.563 0 1.022-0.46 1.022-1.022 0-0.567 0.604-1.021 1.361-1.021 0.924 0 1.361-0.454 1.361-1.41 0-0.776 0.46-1.87 1.021-2.433 0.563-0.561 1.021-1.611 1.021-2.334 0-0.86 0.471-1.313 1.363-1.313 0.755 0 1.361-0.454 1.361-1.022 0-0.561 0.46-1.021 1.021-1.021 0.714 0 1.021-0.719 1.021-2.382 0-1.929 0.26-2.384 1.363-2.384 0.923 0 1.361-0.454 1.361-1.41 0-0.776 0.46-1.87 1.021-2.431 0.563-0.563 1.021-1.613 1.021-2.335 0-0.86 0.471-1.313 1.363-1.313 0.906 0 1.361-0.454 1.361-1.361 0-0.757 0.454-1.363 1.021-1.363 0.563 0 1.021-0.459 1.021-1.021 0-0.567 0.606-1.021 1.363-1.021 0.834 0 1.369-0.461 1.382-1.192 0.012-0.656 0.471-1.786 1.022-2.512 0.55-0.728 0.998-2.337 0.998-3.575 0-1.799 0.274-2.252 1.363-2.252 1.101 0 1.361-0.454 1.361-2.382 0-1.665 0.308-2.384 1.021-2.384 0.784 0 1.021-0.87 1.021-3.745 0-3.291 0.166-3.743 1.361-3.743 1.103 0 1.363-0.454 1.363-2.384 0-1.663 0.308-2.382 1.021-2.382s1.021-0.719 1.021-2.384c0-1.574 0.32-2.382 0.942-2.382 1.070 0 1.758-2.041 1.772-5.256 0.007-1.762 0.23-2.105 1.142-1.755 0.729 0.28 0.967 0.167 0.67-0.315-0.255-0.413-0.152-0.942 0.228-1.178s0.691-2.707 0.691-5.494c0-4.048 0.205-5.065 1.021-5.065 0.891 0 1.022-3.404 1.022-26.553s-0.132-26.554-1.022-26.554c-0.762 0-1.024-0.817-1.030-3.234-0.012-4.202-0.602-6.297-1.772-6.297-0.622 0-0.941-0.808-0.941-2.383 0-1.929-0.26-2.382-1.363-2.382-1.101 0-1.361-0.454-1.361-2.383 0-1.663-0.308-2.382-1.021-2.382-0.567 0-1.021-0.606-1.021-1.363 0-0.906-0.454-1.362-1.363-1.362-1.274 0-1.361-0.453-1.361-7.149 0-5.802 0.187-7.149 0.991-7.149 1.309 0 2.083-4.231 1.285-7.026-0.793-2.778-7.042-3.825-7.042-1.181 0 1.301-0.402 1.399-5.76 1.399-6.322 0-10.534 1.424-10.563 3.574-0.013 0.905-0.591 1.192-2.399 1.192-1.665 0-2.384 0.308-2.384 1.021s-0.719 1.021-2.382 1.021c-1.929 0-2.384 0.26-2.384 1.363 0 0.906-0.454 1.362-1.361 1.362-0.757 0-1.361 0.453-1.361 1.021 0 0.714-0.719 1.021-2.384 1.021-1.929 0-2.382 0.26-2.382 1.362 0 0.908-0.454 1.363-1.363 1.363-0.755 0-1.361 0.453-1.361 1.021 0 0.561-0.46 1.021-1.021 1.021-0.563 0-1.021 0.46-1.021 1.021 0 0.563-0.613 1.635-1.363 2.383s-1.361 1.974-1.361 2.722c0 0.757-0.454 1.363-1.021 1.363-0.714 0-1.021 0.719-1.021 2.382 0 1.929-0.26 2.383-1.361 2.383-0.836 0-1.37 0.461-1.384 1.19-0.012 0.655-0.471 1.787-1.021 2.514s-1 1.875-1 2.553c0 0.778-0.502 1.232-1.361 1.232-1.103 0-1.363 0.453-1.363 2.383 0 1.663-0.308 2.382-1.021 2.382-0.772 0-1.021 0.832-1.021 3.405 0 2.95-0.182 3.404-1.361 3.404-1.103 0-1.363 0.454-1.363 2.383 0 1.694-0.303 2.382-1.051 2.382-0.578 0-1.002 0.383-0.94 0.851 0.489 3.77-0.121 6.638-1.413 6.638-1.197 0-1.363 0.453-1.363 3.745 0 2.874-0.236 3.744-1.021 3.744-0.772 0-1.021 0.833-1.021 3.405 0 2.95-0.182 3.404-1.361 3.404-1.197 0-1.363 0.454-1.363 3.743 0 2.875-0.236 3.745-1.021 3.745-0.811 0-1.021 0.984-1.021 4.766s0.21 4.766 1.021 4.766c0.563 0 1.021 0.46 1.021 1.021 0 0.714 0.719 1.021 2.384 1.021 1.663 0 2.382-0.308 2.382-1.021 0-0.567 0.606-1.021 1.363-1.021 1.196 0 1.361-0.454 1.361-3.745 0-2.874 0.238-3.743 1.021-3.743 0.707 0 1.021-0.711 1.021-2.305 0-1.731 0.339-2.392 1.363-2.659 1.188-0.31 1.361-0.928 1.361-4.845 0-3.536 0.217-4.489 1.021-4.489 0.714 0 1.021-0.719 1.021-2.383 0-1.929 0.26-2.382 1.363-2.382 0.906 0 1.361-0.454 1.361-1.363 0-0.756 0.454-1.362 1.021-1.362 0.561 0 1.021-0.46 1.021-1.021 0-0.567 0.606-1.021 1.363-1.021 1.101 0 1.361-0.454 1.361-2.383 0-1.663 0.308-2.382 1.021-2.382 0.567 0 1.021-0.606 1.021-1.362 0-0.908 0.454-1.363 1.361-1.363 0.757 0 1.363-0.453 1.363-1.021 0-0.714 0.719-1.021 2.382-1.021 1.929 0 2.384-0.259 2.384-1.362 0-0.757 0.454-1.363 1.021-1.363 0.561 0 1.021-0.458 1.021-1.021 0-0.817 1.021-1.021 5.106-1.021s5.106 0.203 5.106 1.021c0 0.563 0.46 1.021 1.021 1.021 0.567 0 1.021 0.606 1.021 1.363 0 0.906 0.454 1.362 1.363 1.362 0.755 0 1.361 0.453 1.361 1.021 0 0.563 0.46 1.021 1.021 1.021 0.811 0 1.021 0.984 1.021 4.766 0 4.313 0.13 4.766 1.363 4.766 1.196 0 1.361 0.454 1.361 3.745 0 2.875 0.238 3.745 1.021 3.745 0.811 0 1.021 0.983 1.021 4.766 0 3.782-0.21 4.766-1.021 4.766s-1.021 0.983-1.021 4.766c0 4.312-0.13 4.764-1.361 4.764-1.233 0-1.363 0.454-1.363 4.766 0 3.783-0.21 4.766-1.021 4.766-0.714 0-1.021 0.719-1.021 2.384 0 1.929-0.259 2.382-1.361 2.382-1.197 0-1.363 0.454-1.363 3.745 0 2.875-0.236 3.745-1.021 3.745-0.567 0-1.021 0.604-1.021 1.361 0 0.908-0.454 1.361-1.361 1.361-1.18 0-1.361 0.454-1.361 3.404 0 2.572-0.25 3.404-1.022 3.404-0.712 0-1.021 0.719-1.021 2.382 0 1.929-0.259 2.384-1.361 2.384-1.068 0-1.361 0.454-1.361 2.105 0 1.535-0.37 2.204-1.363 2.462-0.749 0.196-1.37 0.857-1.382 1.469s-0.471 1.707-1.022 2.433c-0.55 0.726-0.998 1.875-0.998 2.553 0 0.778-0.502 1.231-1.363 1.231-0.755 0-1.361 0.454-1.361 1.021 0 0.563-0.46 1.021-1.021 1.021-0.714 0-1.021 0.719-1.021 2.384 0 1.929-0.26 2.382-1.363 2.382-1.101 0-1.361 0.454-1.361 2.384 0 1.663-0.308 2.382-1.021 2.382-0.567 0-1.021 0.606-1.021 1.363 0 0.906-0.454 1.361-1.361 1.361-0.908 0-1.363 0.454-1.363 1.361 0 0.757-0.454 1.361-1.021 1.361-0.561 0-1.021 0.46-1.021 1.022 0 0.567-0.606 1.021-1.361 1.021-1.103 0-1.363 0.454-1.363 2.382 0 1.665-0.308 2.384-1.021 2.384-0.567 0-1.021 0.604-1.021 1.361 0 0.908-0.454 1.361-1.361 1.361-0.757 0-1.363 0.454-1.363 1.021 0 0.563-0.459 1.022-1.021 1.022-0.567 0-1.021 0.604-1.021 1.361 0 0.908-0.454 1.361-1.361 1.361-1.103 0-1.363 0.454-1.363 2.384v2.382h-5.787c-5.332 0-5.787-0.106-5.787-1.361 0-0.908-0.454-1.361-1.361-1.361-0.757 0-1.361-0.454-1.361-1.022 0-0.561 0.546-1.021 1.217-1.021 0.854 0 1.262-0.589 1.366-1.975 0.083-1.087 0.606-2.849 1.161-3.916 0.557-1.065 1.014-2.935 1.016-4.151 0.004-1.758 0.285-2.213 1.366-2.213 1.103 0 1.361-0.454 1.361-2.384 0-1.31 0.306-2.382 0.68-2.382 0.389 0 0.68-2.043 0.68-4.766 0-2.724-0.291-4.766-0.68-4.766-0.375 0-0.68-0.613-0.68-1.361s0.325-1.363 0.721-1.363c0.397 0 0.544-0.285 0.329-0.634s-0.101-0.812 0.252-1.031c0.921-0.569 0.488-7.384-0.491-7.709-0.567-0.189-0.811-2.711-0.811-8.384 0-7.659-0.076-8.114-1.361-8.114-1.103 0-1.361-0.454-1.361-2.382 0-1.665-0.309-2.384-1.022-2.384-0.567 0-1.021-0.604-1.021-1.361 0-0.908-0.454-1.361-1.361-1.361s-1.361-0.454-1.361-1.361c0-0.908-0.454-1.363-1.363-1.363-0.755 0-1.361-0.454-1.361-1.021 0-0.561-0.46-1.021-1.021-1.021-0.567 0-1.021-0.606-1.021-1.361 0-1.31-0.454-1.363-11.916-1.363s-11.914 0.053-11.914 1.363c0 1.101-0.454 1.361-2.384 1.361-1.663 0-2.382 0.308-2.382 1.021 0 0.569-0.606 1.021-1.368 1.021-0.753 0-1.894 0.613-2.535 1.363-0.642 0.748-1.711 1.361-2.376 1.361-0.757 0-1.212 0.51-1.212 1.361 0 0.891-0.454 1.361-1.313 1.361-2.002 0-3.452 1.882-3.452 4.474 0 1.622 0.312 2.335 1.021 2.335 0.567 0 1.021 0.604 1.021 1.361 0 0.908 0.454 1.361 1.361 1.361s1.361-0.454 1.361-1.361c0-0.908 0.454-1.361 1.363-1.361 0.755 0 1.361-0.454 1.361-1.022 0-0.657 0.666-1.024 1.873-1.030 2.916-0.014 4.935-0.74 4.935-1.772 0-0.712 1.163-0.942 4.766-0.942 4.313 0 4.766 0.129 4.766 1.361 0 0.924 0.454 1.361 1.411 1.361 1.805 0 3.355 1.55 3.355 3.356 0 0.957 0.439 1.41 1.361 1.41 0.757 0 1.363 0.454 1.363 1.021 0 0.563 0.459 1.022 1.021 1.022 0.697 0 1.024 0.703 1.030 2.213 0.014 3.234 0.7 5.276 1.772 5.276 0.766 0 0.942 2.224 0.942 11.914 0 11.461-0.053 11.916-1.363 11.916-1.101 0-1.361 0.454-1.361 2.382 0 1.665-0.308 2.384-1.021 2.384-0.567 0-1.021 0.604-1.021 1.361 0 0.837-0.46 1.368-1.192 1.378-1.189 0.017-3.574 3.885-3.574 5.799 0 0.546-0.613 0.993-1.361 0.993-0.908 0-1.363 0.454-1.363 1.361 0 0.757-0.454 1.361-1.021 1.361-0.561 0-1.021 0.46-1.021 1.021 0 0.567-0.606 1.022-1.361 1.022-0.908 0-1.363 0.454-1.363 1.361 0 1.289-0.454 1.361-8.51 1.361-8.058 0-8.511-0.072-8.511-1.361 0-0.757-0.454-1.361-1.021-1.361-0.714 0-1.021-0.719-1.021-2.384 0-1.474-0.519-2.901-1.363-3.745-0.749-0.749-1.361-1.822-1.361-2.382 0-0.563-0.46-1.021-1.021-1.021-0.569 0-1.021-0.606-1.021-1.369 0-0.752-0.613-1.892-1.363-2.534s-1.361-1.557-1.361-2.037c0-0.478-0.46-0.87-1.021-0.87-0.567 0-1.021-0.604-1.021-1.361 0-0.908-0.454-1.361-1.363-1.361-1.099 0-1.361-0.454-1.361-2.355 0-3.010-2.038-7.139-3.535-7.16-1.039-0.016-1.173-1.413-1.363-14.089-0.155-10.5-0.425-14.143-1.060-14.354-1.381-0.459-1.213-26.723 0.171-26.723 0.714 0 1.021-0.719 1.021-2.382 0-1.929 0.26-2.384 1.361-2.384 0.908 0 1.363-0.454 1.363-1.361 0-0.757 0.454-1.361 1.021-1.361 0.561 0 1.021-0.46 1.021-1.022 0-0.567 0.606-1.021 1.361-1.021 0.908 0 1.363-0.454 1.363-1.361 0-0.757 0.454-1.361 1.021-1.361 0.561 0 1.021-0.46 1.021-1.022 0-0.567 0.606-1.021 1.361-1.021 1.079 0 1.366-0.461 1.384-2.213 0.012-1.217 0.471-2.807 1.021-3.534 0.55-0.728 1-2.489 1-3.916 0-2.139 0.238-2.593 1.361-2.593 1.197 0 1.363-0.454 1.363-3.745s-0.166-3.745-1.363-3.745c-1.255 0-1.361-0.453-1.361-5.787s0.106-5.787 1.361-5.787c0.874 0 1.363-0.453 1.363-1.267 0-1.021 0.694-1.35 3.57-1.69 1.963-0.232 3.674-0.734 3.801-1.115 0.126-0.382 1.737-0.694 3.578-0.694 2.894 0 3.347-0.184 3.347-1.362 0-0.908 0.454-1.362 1.363-1.362 0.755 0 1.361-0.454 1.361-1.023 0-0.712 0.719-1.021 2.382-1.021 1.929 0 2.384-0.259 2.384-1.362 0-0.757 0.454-1.362 1.021-1.362 0.563 0 1.021-0.46 1.021-1.023 0-0.566 0.606-1.021 1.363-1.021 0.877 0 1.361-0.453 1.361-1.276 0-0.876 0.645-1.406 2.057-1.689 1.607-0.322 2.147-0.861 2.468-2.468 0.226-1.131 0.833-2.056 1.348-2.056s0.935-0.613 0.935-1.363c0-0.906 0.454-1.362 1.361-1.362 0.757 0 1.363-0.453 1.363-1.021 0-0.561 0.459-1.021 1.021-1.021 0.784 0 1.021-0.87 1.021-3.745 0-3.291 0.166-3.745 1.361-3.745 1.233 0 1.363-0.453 1.363-4.766v-4.766h-2.384c-1.929 0-2.382 0.26-2.382 1.363 0 0.908-0.454 1.362-1.363 1.362-1.101 0-1.361 0.453-1.361 2.382 0 1.665-0.308 2.383-1.021 2.383s-1.021 0.719-1.021 2.382c0 1.929-0.26 2.383-1.363 2.383-1.101 0-1.361 0.453-1.361 2.382 0 1.665-0.308 2.383-1.021 2.383-0.561 0-1.021 0.46-1.021 1.021 0 0.569-0.606 1.021-1.369 1.021-0.752 0-1.892 0.613-2.534 1.362s-1.711 1.363-2.377 1.363c-0.665 0-1.21 0.458-1.21 1.021 0 0.859-1.512 1.021-9.532 1.021s-9.531-0.161-9.531-1.021c0-0.714-0.719-1.021-2.384-1.021-1.63 0-2.382-0.313-2.382-0.991 0-0.593-0.957-1.169-2.384-1.438-1.365-0.256-2.382-0.851-2.382-1.393 0-0.627-0.804-0.945-2.384-0.945-1.929 0-2.382-0.26-2.382-1.363 0-0.906-0.454-1.362-1.363-1.362-0.755 0-1.361-0.453-1.361-1.021 0-0.561-0.46-1.021-1.021-1.021-0.567 0-1.021-0.606-1.021-1.362 0-1.102-0.454-1.363-2.384-1.363-1.663 0-2.382-0.308-2.382-1.021 0-0.567-0.606-1.021-1.361-1.021-0.908 0-1.363-0.454-1.363-1.362 0-1.102-0.454-1.363-2.382-1.363-2.269 0-2.384-0.113-2.384-2.382 0-1.665-0.308-2.383-1.021-2.383s-1.021-0.719-1.021-2.382c0-1.929-0.259-2.383-1.361-2.383-0.749 0-1.363-0.447-1.363-0.992 0-1.913-2.384-5.782-3.574-5.799-1.079-0.016-1.192-0.947-1.192-9.889 0-9.417-0.062-9.873-1.361-9.873-1.103 0-1.361-0.453-1.361-2.382 0-1.665-0.308-2.383-1.021-2.383s-1.021-0.719-1.021-2.382c0-1.476-0.519-2.901-1.363-3.745-0.749-0.749-1.361-1.821-1.361-2.382 0-0.563-0.46-1.023-1.021-1.023-0.714 0-1.021-0.719-1.021-2.382 0-1.929-0.26-2.383-1.363-2.383-1.18 0-1.361-0.453-1.361-3.404 0-2.573-0.25-3.404-1.021-3.404-0.567 0-1.021-0.605-1.021-1.362 0-0.908-0.454-1.362-1.363-1.362-0.906 0-1.361-0.454-1.361-1.362 0-0.749-0.422-1.362-0.938-1.362s-1.32-0.46-1.784-1.021c-0.466-0.563-1.577-1.021-2.466-1.021-1.166 0-1.619-0.382-1.619-1.362 0-0.908-0.454-1.362-1.363-1.362-0.966 0-1.361-0.454-1.361-1.567 0-1.995-1.205-3.2-3.2-3.2-0.938 0-1.567-0.41-1.567-1.021 0-0.832-1.134-1.021-6.127-1.021s-6.127 0.189-6.127 1.021zM216.171 224.679c0 0.567 0.606 1.021 1.363 1.021 0.906 0 1.362 0.454 1.362 1.363 0 0.756 0.453 1.362 1.021 1.362 0.561 0 1.021 0.46 1.021 1.021 0 0.567 0.606 1.021 1.362 1.021 0.908 0 1.363 0.454 1.363 1.363 0 0.756 0.453 1.362 1.021 1.362 0.561 0 1.021 0.46 1.021 1.021 0 0.567 0.606 1.021 1.362 1.021 0.908 0 1.363 0.454 1.363 1.363 0 0.756 0.453 1.362 1.021 1.362 0.828 0 1.021 1.097 1.021 5.787s-0.193 5.787-1.021 5.787c-0.567 0-1.021 0.606-1.021 1.362 0 1.232-0.454 1.363-4.766 1.363-4.313 0-4.766-0.13-4.766-1.363 0-0.906-0.454-1.362-1.362-1.362-1.181 0-1.363-0.453-1.363-3.404 0-2.573-0.25-3.405-1.021-3.405-0.567 0-1.021-0.606-1.021-1.362 0-0.908-0.454-1.363-1.362-1.363-0.757 0-1.363-0.453-1.363-1.021s-0.605-1.021-1.362-1.021c-0.999 0-1.362-0.454-1.362-1.702 0-0.952-0.394-1.703-0.895-1.703-0.582 0-0.948-1.069-1.053-3.063-0.122-2.379 0.077-3.065 0.895-3.065 0.598 0 1.053-0.588 1.053-1.362 0-0.908 0.453-1.363 1.362-1.363 0.757 0 1.362-0.453 1.362-1.021 0-0.714 0.719-1.021 2.383-1.021 1.663 0 2.382 0.308 2.382 1.021zM297.873 224.679c0 0.567 0.606 1.021 1.363 1.021 0.908 0 1.361 0.454 1.361 1.363 0 0.756 0.454 1.362 1.021 1.362 0.563 0 1.021 0.46 1.021 1.021 0 0.567 0.606 1.021 1.363 1.021 1.231 0 1.361 0.454 1.361 4.766 0 4.313-0.13 4.766-1.361 4.766-1.103 0-1.363 0.454-1.363 2.383 0 1.663-0.308 2.382-1.021 2.382-0.567 0-1.021 0.606-1.021 1.363 0 1.101-0.454 1.362-2.384 1.362-1.663 0-2.382 0.308-2.382 1.021 0 0.567-0.606 1.021-1.361 1.021-0.908 0-1.363 0.454-1.363 1.362 0 1.102-0.454 1.363-2.382 1.363s-2.382-0.26-2.382-1.363c0-0.906-0.454-1.362-1.363-1.362-0.755 0-1.361-0.453-1.361-1.021 0-0.561-0.46-1.021-1.021-1.021-0.567 0-1.021-0.606-1.021-1.362 0-0.908-0.454-1.363-1.363-1.363-1.18 0-1.361-0.453-1.361-3.404 0-2.952 0.182-3.405 1.361-3.405 0.908 0 1.363-0.454 1.363-1.362 0-0.757 0.454-1.363 1.021-1.363 0.714 0 1.021-0.719 1.021-2.382 0-1.929 0.259-2.383 1.361-2.383s1.363-0.453 1.363-2.382c0-1.665 0.308-2.383 1.021-2.383 0.561 0 1.021-0.458 1.021-1.021 0-0.783 0.87-1.021 3.745-1.021s3.743 0.238 3.743 1.021z"></path>
</svg>
