<!-- Generated by IcoMoon.io -->
<svg version="1.1" xmlns="http://www.w3.org/2000/svg" width="512" height="512" viewBox="0 0 512 512">
<title></title>
<g id="icomoon-ignore">
</g>
<path fill="#FFF" d="M135.121 30.382c-4.945 5.959-13.392 22.408-18.769 36.552-8.614 22.655-14.785 25.718-51.842 25.718h-42.064l-15.704 47.282c-25.569 76.977 23.874 168.429 109.606 202.732 63.42 25.375 77.039 14.764 49.888-38.867-39.94-78.889-27.788-147.434 19.758-111.471 33.846 25.6 52.595 17.923 52.757-21.596 0.247-60.444 14.345-66.876 33.37-15.221 23.151 62.855 25.979 64.639 58.768 37.048 40.464-34.048 40.217-34.481 40.217 70.451 0 109.067 0.488 109.478 58.604 49.688 71.62-73.686 97.54-138.017 73.618-182.714-11.498-21.483-60.632-48.981-70.281-39.333-3.692 3.692-22.755-12.103-42.365-35.098l-35.651-41.81-56.020 11.887c-39.591 8.403-70.519 9.253-105.459 2.902-35.419-6.438-51.993-5.913-58.435 1.85zM198.857 66.15c14.87 14.87 14.982 83.287 0.137 83.287-16.989 0-55.030-39.084-55.030-56.543 0-17.637 17.793-38.099 33.125-38.099 5.727 0 15.523 5.111 21.769 11.357zM361.875 83.615c12.337 23.047 3.676 42.078-25.12 55.196-32.288 14.712-41.359 6.693-41.359-36.561 0-48.925 43.71-61.179 66.478-18.636zM103.912 144.089c6.764 6.762 8.066 147.314 1.367 147.314-10.63 0-53.181-57.094-63.656-85.413-18.704-50.564 27.607-96.587 62.29-61.901zM456.31 144.729c19.438 23.423-11.811 118.283-38.967 118.283-9.651 0-11.563-116.695-2.066-126.194 10.564-10.562 28.584-7.089 41.033 7.911zM249.184 269.154c-46.382 176.101-47.078 203.938-5.581 222.844 53.526 24.389 91.92-25.74 72.274-94.367-50.633-176.881-52.83-181.115-66.693-128.477z"></path>
</svg>
