<!-- Generator: Adobe Illustrator 24.0.0, SVG Export Plug-In  -->
<svg version="1.1" xmlns="http://www.w3.org/2000/svg" xmlns:xlink="http://www.w3.org/1999/xlink" x="0px" y="0px" width="290.9px"
     height="526.5px" viewBox="0 0 290.9 526.5" style="enable-background:new 0 0 290.9 526.5;" xml:space="preserve">
<style type="text/css">
    .st0{fill:#FFFFFF;}
</style>
<defs>
</defs>
<g>
    <path class="st0" d="M154.4,75.9c-6.6,9.3-11.7,18.1-18.4,25.5c-9,10-21.3,12.4-34.4,12c-3.5-0.1-7.1,1.8-10.4,3.2
        c-1,0.4-1.6,2.4-2,3.8c-1.6,5.8-2.9,11.7-4.5,17.5c-1.4,5.1-0.7,6.6,4.5,8.1c0.9,0.3,1.9,0.7,2.7,1.3c12.2,9.1,23,19.6,33.4,30.8
        c5.3,5.8,7.8,11.1,7.1,18.8c-0.3,3.5,1.5,7.1,2.3,10.7c3.6-1.3,7.3-2.5,10.9-4c0.8-0.3,1.4-1.8,1.6-2.8c2.5-10.1,3.7-19.8-5.1-27.9
        c-2.6-2.4-4.1-6-6.5-8.7c-2.6-2.9-5.4-5.8-8.6-8.1c-6.9-4.8-13.9-9.4-18.4-16.9c-1.1-1.9-3.4-3-5.7-5c1.6-2.5,3-5.3,5-7.5
        c2.2-2.5,5-3.1,8.6-2.1c4,1.1,8.4,1.1,12.5,1.7c2.1,0.3,4.5,0.5,6.1,1.6c7.7,5.7,16.2,9.6,25.4,12.3c3.7,1.1,6.8,3.9,10.2,5.9
        c7.1,4.1,13.9,8.7,21.4,12.1c10.5,4.8,18.6,12.5,27.3,19.5c2,1.6,4.2,3.7,6.5,4.2c2.4,0.5,5.9,0.3,7.5-1.1
        c7.7-6.8,15.1-13.9,22.1-21.3c2-2.1,3.2-5.9,3-8.7c-0.2-2.5-2.9-4.8-4.4-7.2c-2.1,1.6-4.3,3-6.2,4.9c-5.8,5.6-11.3,11.5-17.2,17.1
        c-2.1,1.9-4.6,2.1-7-0.4c-2.9-3-6-5.7-9.3-8.3c-3.3-2.6-4.1-4.5-0.8-8.3c13.1-15.5,25.7-31.4,38.5-47.2c5.9-7.2,12.7-11,22.1-6.9
        c1.2,0.5,2.6,0.7,3.9,0.6c4.8-0.4,7.4,2.4,7.7,6.6c0.3,4.6,3.2,4.1,3.3,7.9s3.8,15.4-0.3,27.4c-3.8,7.8-7.4,14.9-10.7,22.2
        c-2,4.3-3.2,9-5.4,13.1c-3,5.5-6.7,10.6-10.1,15.9c-1.9,2.9-3.6,5.9-5.4,8.9c-4.3,7.2-8.6,14.4-13,21.5c-5.3,8.7-11,17.1-15.8,26
        c-2.3,4.3-3.7,9.5-4.3,14.4c-1.8,15.4,2.7,30.1,5.9,44.9c2.2,10.6,5.7,20.5,10.5,30.2c2.2,4.4,1.2,8-2.6,11.4
        c-9.1,8.2-18.2,16.4-26.9,25c-11.6,11.5-22.9,23.4-34.1,35.3c-8.5,9-16.7,18.2-24.9,27.5c-1.6,1.8-2.6,4.1-4.3,6.8
        c-0.8-0.3-2.4-0.4-3.2-1.3c-3.8-4.1-7.6-8.3-11-12.8c-11.8-15.4-23.1-31.2-35.4-46.3c-3.9-4.8-9.9-8-15.2-11.7
        c-7.7-5.5-15.6-10.8-23.4-16.1c-2.6-1.8-5.2-3.4-8-4.9c-3-1.6-3.6-3.8-1.8-6.4c5.6-7.9,7.9-16.5,8.6-26.3c0.7-9.9,3.9-19.6,6-29.4
        c0.3-1.6,0.6-3.3,0.6-4.9c0.3-8.9,0.5-17.9,1-26.8c0.1-1.5,1-3,1.8-4.3c3.9-5.8,4.2-9.4-0.2-14.3c-5.2-5.8-11-11.1-16.6-16.5
        c-3.8-3.7-6.8-8.5-13.2-8.4c-0.9,0-2.3-1.9-2.8-3.2c-4.6-11.6-11.8-21.5-19.5-31.2c-3-3.8-4.9-8.3-10.3-10.1
        c-2.7-0.9-3-4.5-1.2-7.3c0.6-1,1.5-1.7,2.2-2.7c5.4-7.1,5.3-7.5-2.8-12.2c-4.6-2.7-4.7-6.5-0.7-10.3c1.4-1.3,2.9-3.3,3-5
        c0.6-8.5,6.8-13.9,10.8-20.5c5.8-9.6,11.5-19.3,17.3-28.9c1.5-2.4,3.4-4.5,4.8-6.9c1.4-2.5,2.1-5.3,3.5-7.9
        c0.8-1.5,2.1-3.8,3.4-3.9c8-0.8,15.8-1.7,23.9,1.3c7.8,2.9,16.3,5.3,24.5,5.1c9-0.2,17.1,2.7,25.6,3.8c9.1,1.2,18.2,3,27.2,4.6
        C148.8,74.3,150.6,74.9,154.4,75.9z M158.2,386.3c0.5-5.6-3.8-9.8-11.9-10.6c-5.1-0.5-10.9,5.6-11.1,11.1
        c-0.2,5.3,6.4,13.6,10.8,13.7C150.8,400.6,158.2,392,158.2,386.3z"/>
    <path class="st0" d="M17.3,393c7.6-8.1,14.8-15.6,21.6-23.3c1.8-2,2.7-4.8,3.9-7.4c1.5-3.2,3.3-3.6,6.2-1.5
        c1.9,1.4,4.6,1.6,6.5,2.9c5.4,3.6,11.3,7,15.9,11.5c18.5,17.8,35.7,36.6,49.9,58.1c6.3,9.6,12.3,19.4,18.4,29.1
        c2,3.2,3.6,3.6,7,1.1c14.4-10.9,23.3-26.3,34.5-40c6.3-7.7,13-15,19.6-22.3c7.7-8.6,15.5-17.1,23.2-25.7
        c5.5-6.1,10.8-12.5,16.4-18.5c3.5-3.8,4.7-3.4,7.1,1.1c4.7,8.8,9.4,17.6,14.3,26.4c1.1,2,2.6,3.9,4.3,5.4c3.4,3,2.3,5-0.6,7.6
        c-11.1,10.2-22.6,20-32.8,31.2c-9.6,10.6-17.4,22.9-26.6,34c-10.2,12.3-20.8,24.3-31.9,35.9c-8.9,9.4-18.7,17.9-28.1,26.8
        c-1.9,1.8-9.5,1.4-11.3-1.1c-4.1-5.7-7.8-11.8-11.7-17.7c-8.2-12.1-16.2-24.3-27.2-34.3c-4.4-4-7.4-9.6-10.8-14.7
        c-9.5-14.3-23.1-24.5-35.5-35.8c-9.6-8.8-19.9-16.8-29.9-25.3C18.7,395.7,18.1,394.2,17.3,393z M143.7,506.4
        c7.9,0.5,11.6-7.8,12-14.7c0.4-5.9-5.1-10.8-11-10.7c-7.3,0.1-15.6,6.6-15.5,12C129.3,498.7,137.7,507.7,143.7,506.4z M207.2,435.7
        c0.1-6-4.4-10.1-11.3-10.3c-5.9-0.2-12.5,6.5-12.6,12.8c-0.1,5.9,6.4,13.2,11.7,13.2C201,451.4,207.1,443.5,207.2,435.7z
         M228.2,391.5c0,1-0.1,2,0,3c0.4,4.6,3.9,8.6,8.7,9.7c4.3,1,8.4,0.2,10.4-3.8c2.6-5.2,4.1-10.9,1.7-16.7c-0.6-1.4-1.9-2.7-3.2-3.5
        C235.9,374.9,228.2,379.9,228.2,391.5z M65.1,394.2c0-7.5-4.5-13.2-10-13.7c-5.9-0.6-12,4.6-12.2,11.6c-0.2,5.6,6.5,11.5,12.6,11.5
        C60.3,403.5,65.1,398.9,65.1,394.2z M94.4,446.5c6.6,0.1,9.9-3,9.9-9.5c0.1-6.8-5.4-12.4-12.1-12.5c-5.8-0.1-8.5,2.7-8.6,8.9
        C83.5,441.8,87.2,446.4,94.4,446.5z"/>
    <path class="st0" d="M251.8,81.8c-2.2,2.8-4.3,6.2-7.3,8.8c-7.3,6.6-12.1,14.8-17.6,22.8c-6.2,9-14.5,16.5-22.3,24.3
        c-1.1,1.1-4.6,1.2-6.3,0.4c-8.1-3.9-16.1-8.2-24.1-12.4c-4.1-2.2-3.7-3.2-0.7-6.9c8.1-10.1,15.7-20.7,23.6-31
        c6.5-8.5,13.2-16.8,20.1-25c0.9-1.1,2.9-1.7,4.4-1.7c6.8,0.1,13.6,0.7,20.3,0.8c3.5,0.1,5.5,1.4,6.3,4.9
        C249.2,71.5,250.4,76.1,251.8,81.8z"/>
    <path class="st0" d="M176.7,18.2c6.4,1,12.7,1.6,18.7,3.3c1.9,0.5,3.3,4,4.1,6.4c1.9,5.4,3.6,10.9,4.6,16.5c0.5,2.6,0.1,6-1.3,8.2
        c-6.3,10-13,19.8-19.7,29.5c-4.6,6.6-9.4,13.1-14.3,19.5c-3.3,4.4-6.6,8.9-10.3,12.9c-3,3.3-10.6,1.1-12.1-3.2
        c-0.3-0.8,0.6-2.6,1.4-3.2c9.2-6.5,14.4-16.3,20.2-25.4c2.2-3.6,3.6-7.7,4.9-11.7c1.3-4-1.4-8-6.2-9c-7.1-1.5-14.3-2.5-21.4-3.9
        c-1.8-0.3-3.6-0.8-5.2-1.6c-2.4-1.2-4-2.4-1.6-5.6c6.1-8.1,11.7-16.7,17.6-24.9c3.3-4.6,8.7-5.4,13.8-6.4
        C172.4,19.1,174.7,18.6,176.7,18.2z"/>
    <path class="st0" d="M64.6,43.6c0.9-2,1.2-3.3,2-4.3c6-8,12.2-16,18.3-23.9c1.6-2.1,3.2-4.3,4.9-6.2c2.7-3,5.7-5,10-6.5
        c8.6-2.9,17.1-2.1,25.7-2.6c3.9-0.2,5.6,1.6,7,4.6c1.9,4.4,4.1,8.6,5.9,13.1c0.6,1.4,0.5,3.6-0.2,5c-4.6,8.2-9.5,16.2-14.1,24.4
        c-1.6,2.9-3.6,4.5-7.1,4c-10.8-1.5-21.6-2.9-32.3-4.4C78.2,45.8,71.8,44.7,64.6,43.6z"/>
</g>
</svg>
