<!-- Generated by IcoMoon.io -->
<svg version="1.1" xmlns="http://www.w3.org/2000/svg" width="1024" height="1024" viewBox="0 0 1024 1024">
<title></title>
<g id="icomoon-ignore">
</g>
<path fill="#FFF" d="M509.689 2.308c-15.553 3.582-20.879 33.099-8.606 47.684 6.182 7.346 6.058 28.385-0.318 54.639-1.734 7.127-4.058 22.459-5.164 34.073-1.109 11.614-3.010 22.968-4.222 25.234s-2.211 6.372-2.219 9.122-1.334 7.532-2.945 10.624c-2.446 4.686-2.457 6.479-0.064 10.799 4.743 8.561 3.839 19-1.836 21.146-13.422 5.076-22.329 7.057-36.664 8.163-16.158 1.244-34.068 8.777-34.068 14.327 0 1.452-1.944 6.266-4.319 10.699-4.633 8.644-5.675 16.714-2.16 16.714 1.187 0 2.16-0.874 2.16-1.947 0-5.067 16.16-11.072 35.193-13.074 10.934-1.153 24.122-2.991 29.305-4.090 23.652-5.010 26.486 20.177 3.269 29.046l-9.454 3.61v15.907c0 16.158 3.145 20.533 9.902 13.777 5.491-5.491 40.182-8.917 65.275-6.447 25.361 2.5 32.11 1.887 29.302-2.656-0.891-1.442-2.165-8.904-2.835-16.582-1.187-13.609-1.461-14.133-10.937-20.779-11.662-8.18-13.846-15.353-5.327-17.491 7.627-1.914 42.177 0.13 47.535 2.814 22.023 11.029 35.361 14.98 35.76 10.596 0.727-7.959-1.023-17.991-3.65-20.928-1.677-1.876-3.048-4.536-3.048-5.91 0-9.127-17.281-14.422-49.51-15.165-42.067-0.966-40.322 0.699-41.713-39.893-0.578-16.859-2.222-33.563-3.655-37.121s-3.175-21.751-3.868-40.433l-1.263-33.967 9.246-10.032c11.385-12.351 11.666-26.843 0.796-41.092-4.827-6.334-17.534-14.684-20.649-13.574-0.334 0.121-4.498 1.113-9.25 2.208zM160.89 233.204c0 1.225 1.457 2.786 3.24 3.472 1.782 0.683 3.24 2.465 3.24 3.961 0 1.493 1.779 5.034 3.955 7.867s6.306 9.525 9.179 14.869c2.873 5.346 8.568 14.578 12.656 20.518s9.776 14.201 12.637 18.358c8.496 12.337 15.123 29.17 16.754 42.539 3.219 26.41 11.188 35.56 11.619 13.339 0.243-12.54 4.411-13.917 14.916-4.927 4.946 4.236 8.995 8.838 9.001 10.229 0.008 2.848 11.103 25.739 14.54 30.001 6.045 7.5 5.386 16.33-1.687 22.601-3.771 3.345-9.011 8.026-11.649 10.402-25.263 22.769-40.504 33.476-47.646 33.476-1.79 0-6.881 1.944-11.314 4.319s-9.322 4.319-10.866 4.319c-1.544 0-4.962 1.379-7.592 3.065-5.888 3.771-32.853 5.367-36.081 2.139-2.513-2.513-0.767-9.522 2.373-9.522 1.061 0 1.928-0.972 1.928-2.16 0-3.691-18.46-2.446-24.030 1.62-12.405 9.058-47.909 26.33-54.537 26.53-1.334 0.040-6.312 1.952-11.063 4.247s-10.715 4.206-13.253 4.247c-2.535 0.040-7.395 1.525-10.799 3.299-3.402 1.774-9.101 3.302-12.664 3.39-15.134 0.386-14.778 3.548 0.524 4.643 8.585 0.616 16.84 2.108 18.342 3.323 1.504 1.212 7.106 2.916 12.451 3.785s12.149 2.786 15.118 4.26c2.97 1.474 9.918 3.272 15.442 3.993 5.524 0.723 15.042 4.26 21.155 7.864 6.109 3.601 12.767 6.582 14.791 6.623 2.028 0.040 7.573 1.952 12.324 4.247s10.856 4.206 13.566 4.247c2.71 0.040 5.612 1.774 6.45 3.852 1.134 2.819 1.806 1.855 2.632-3.78 1.404-9.563 8.113-10.82 25.661-4.808 19.079 6.536 33.109 10.755 41.321 12.427 13.523 2.757 71.275 42.982 76.995 53.632 3.037 5.656-5.699 26.748-15.35 37.058-3.318 3.542-7.808 10.326-9.98 15.078-9.354 20.447-21.374 25.45-26.535 11.044-2.198-6.128-9.141 0.917-11.069 11.233-0.818 4.379-2.246 8.93-3.172 10.119-0.929 1.187-2.859 5.804-4.295 10.259-1.433 4.454-3.385 8.099-4.338 8.099-0.95 0-2.748 3.645-3.996 8.099-3.388 12.102-9.189 27.34-10.887 28.592-0.824 0.607-2.705 3.534-4.179 6.503-7.705 15.504-14.506 25.742-22.57 33.97-11.584 11.825-6.306 15.183 6.323 4.025 7.033-6.215 9.838-8.085 21.549-14.371 6.922-3.715 15.502-8.593 19.065-10.839s8.909-5.119 11.879-6.387c11.458-4.887 25.080-11.183 30.569-14.125 3.153-1.69 7.040-3.108 8.639-3.151 5.186-0.138 15.158-9.873 14.416-14.066-0.818-4.605 17.219-15.661 26.287-16.115 6.325-0.316 1.812-2.905-9.179-5.264-11.069-2.376-7.279-5.666 27.693-24.027 30.177-15.845 23.539-20.606 88.933 63.828l15.658 20.218v-12.116c0-10.482-0.883-13.078-6.557-19.268-3.61-3.934-7.154-9.581-7.883-12.55-0.727-2.97-2.635-7.317-4.238-9.66-4.417-6.45-4.053-52.552 0.467-59.004 12.235-17.47-7.959-35.099-40.115-35.023-16.169 0.040-26.592-5.626-34.902-18.971-4.662-7.488-4.169-57.044 0.599-59.99 1.056-0.654 1.919-2.942 1.919-5.086 0-2.146 2.187-6.682 4.859-10.077 4.646-5.91 4.856-7.948 4.884-47.265 0.021-37.714 0.434-42.153 5.016-54.047 2.743-7.127 6.277-17.818 7.85-23.757 3.307-12.486 9.506-27.588 11.965-29.157 0.931-0.594 2.805-5.218 4.166-10.275 3.752-13.966 29.553-35.080 42.871-35.080 5.728 0 7.67-46.554 2.087-50.003-4.574-2.826-14.727 0.826-22.040 7.929-3.971 3.855-8.053 7.367-9.073 7.805-1.018 0.438-7.033 7.353-13.367 15.372s-12.206 14.578-13.050 14.578c-0.848 0-4.894 3.371-8.995 7.492-4.098 4.12-8.129 7.521-8.952 7.559-0.826 0.038-5.2 3.463-9.719 7.616-8.961 8.229-12.583 9.108-19.079 4.638-2.343-1.615-7.969-4.138-12.502-5.616-4.851-1.577-9.187-4.749-10.532-7.699-1.258-2.759-4.838-5.656-7.954-6.433-3.118-0.777-7.127-2.665-8.909-4.195s-5.912-3.415-9.179-4.193c-14.379-3.415-6.35-14.824 12.41-17.637 11.299-1.696 9.058-4.808-3.698-5.138-3.226-0.083-9.544-1.741-14.038-3.685-17.802-7.694-30.849-14.329-30.849-15.688 0-0.786-2.672-2.632-5.939-4.106-11.025-4.967-17.818-9.293-17.818-11.347 0-1.123-1.267-2.041-2.816-2.041-2.352 0-21.63-9.328-48.665-23.544-3.164-1.663-6.531-4.335-7.481-5.939-2.035-3.434-5.832-3.88-5.832-0.685zM880.525 232.44c-1.542 0.618-5.915 3.979-9.719 7.467-3.807 3.491-9.106 6.903-11.778 7.58-2.672 0.68-4.863 1.857-4.868 2.622-0.003 0.761-5.583 4.301-12.4 7.864s-13.685 7.694-15.264 9.179c-1.58 1.485-3.955 2.7-5.278 2.7-2.489 0-19.675 7.424-25.363 10.958-1.782 1.104-5.669 2.985-8.639 4.179s-7.98 3.62-11.131 5.394c-3.153 1.774-7.284 3.226-9.179 3.226-2.349 0-3.447 1.96-3.447 6.145 0 7.492-5.448 12.761-16.29 15.755-8.226 2.27-7.168 6.066 1.712 6.145 6.789 0.059 5.008 12.651-2.16 15.262-8.075 2.94-20.353 9.033-24.297 12.052-1.782 1.364-8.355 4.657-14.611 7.319l-11.371 4.835-4.827-5.224c-2.653-2.873-9.686-10.974-15.625-17.999-5.939-7.028-12.256-14.386-14.038-16.354-1.782-1.971-8.099-9.262-14.038-16.209-15.121-17.68-17.939-20.364-21.39-20.364-1.668 0-8.71-2.826-15.648-6.28-14.869-7.403-15.901-7.090-15.802 4.787 0.178 21.227 6.865 36.513 18.488 42.264 5.825 2.883 11.079 5.934 11.673 6.782s3.113 2.173 5.597 2.949c5.998 1.869 20.031 16.158 24.867 25.318 11.757 22.269 14.888 35.099 14.905 61.034 0.011 16.422 0.915 23.508 3.626 28.368 2.637 4.733 3.704 12.446 3.953 28.596 0.267 17.251 1.132 22.991 3.934 26.087 1.976 2.184 3.593 5.041 3.593 6.347s1.253 3.658 2.783 5.23c9.338 9.57 12.149 20.566 12.786 50.046l0.629 29.043-9.009 8.855c-4.956 4.873-10.426 8.857-12.154 8.857-1.731 0-4.354 1.457-5.834 3.24s-4.117 3.24-5.863 3.24c-1.744 0-5.645 1.944-8.666 4.319-3.018 2.376-7.184 4.319-9.255 4.319s-4.973 1.457-6.452 3.24c-1.48 1.782-4.489 3.24-6.692 3.24-17.437 0-31.181 12.34-24.745 22.213 6.336 9.716 11.913 40.625 8.182 45.33-1.153 1.457-2.791 6.485-3.636 11.171-1.706 9.44-7.497 17.991-14.597 21.546-7.505 3.761-10.25 22.17-2.883 19.343 1.531-0.588 5.761-5.213 9.4-10.28 6.692-9.319 15.637-20.256 22.553-27.575 2.079-2.198 3.78-4.549 3.78-5.224 0-1.85 19.63-25.663 21.835-26.492 1.059-0.394 1.922-1.86 1.922-3.253 0-2.667 14.152-16.565 16.811-16.511 2.788 0.057 18.687 6.023 25.304 9.497 3.563 1.871 7.997 3.407 9.851 3.415 3.683 0.014 12.827 7.665 12.827 10.728 0 1.050 3.402 3.032 7.559 4.403 14.322 4.728 10.056 13.914-8.639 18.604-5.076 1.274-2.357 1.971 12.529 3.219 10.456 0.874 20.175 2.53 21.597 3.674 1.426 1.144 5.991 2.786 10.148 3.645s10.961 3.572 15.118 6.028c12.729 7.519 31.165 19.664 34.030 22.416 1.49 1.433 4.649 3.221 7.019 3.974 2.367 0.751 4.306 2.274 4.306 3.38s1.269 2.014 2.816 2.014c1.549 0 7.623 3.118 13.498 6.931 20.201 13.102 26.173 14.549 16.622 4.022-7.116-7.84-8.366-9.916-17.667-29.316-5.124-10.688-10.175-20.89-11.228-22.672s-3.101-5.669-4.555-8.639c-1.45-2.97-3.475-5.996-4.498-6.728-1.887-1.347-5.534-7.243-10.537-17.029-1.518-2.97-3.987-6.685-5.486-8.253-1.499-1.571-2.724-3.852-2.724-5.072s-1.442-5.283-3.202-9.025c-1.763-3.745-4.063-12.152-5.116-18.685-1.819-11.306-1.99-11.55-3.518-5.010-3.051 13.064-18.401 20.461-18.401 8.866 0-1.151-1.944-4.565-4.319-7.587-2.376-3.018-4.319-7.222-4.319-9.338s-0.737-4.174-1.639-4.568c-2.2-0.966-13.479-23.098-13.479-26.448 0-3.302 15.75-17.451 30.258-27.186 2.653-1.782 6.077-4.433 7.602-5.893 5.046-4.827 23.171-13.545 28.158-13.545 2.697 0 7.656-1.445 11.017-3.21 3.364-1.765 10.974-5.202 16.913-7.635 5.939-2.435 12.521-5.386 14.627-6.557 2.451-1.366 5.216-1.393 7.678-0.076 2.343 1.255 5.065 1.288 6.967 0.081 11.157-7.057 21.306 5.418 12.303 15.123-2.222 2.395-1.933 2.605 1.62 1.199 2.376-0.94 8.315-2.795 13.196-4.122 4.884-1.326 10.262-3.561 11.951-4.962 1.687-1.404 5.47-3.574 8.399-4.83 2.932-1.253 6.787-3.175 8.568-4.271 8.002-4.924 22.067-10.977 25.504-10.977 2.073 0 5.688-1.288 8.032-2.859 6.039-4.053 31.586-12.259 38.163-12.259 5.837 0 11.571-4.951 9.541-8.239-0.664-1.071-7.1-2.483-14.305-3.137s-14.279-2.157-15.72-3.345c-1.438-1.187-8.21-3.186-15.045-4.444-6.833-1.258-14.122-3.164-16.198-4.236-2.073-1.071-7.319-2.586-11.655-3.369-4.333-0.78-9.068-2.854-10.523-4.603-1.452-1.752-4.249-3.183-6.215-3.183s-5.491-1.334-7.834-2.964c-2.343-1.63-7.661-3.698-11.82-4.595s-9.476-2.964-11.82-4.595c-7.673-5.337-12.481-3.868-10.899 3.328 1.79 8.151-4.595 10.621-15.855 6.133-15.412-6.142-36.013-12.427-40.73-12.427-6.353 0-19.41-6.955-28.276-15.059-3.936-3.596-7.74-6.538-8.458-6.538s-2.845-1.433-4.728-3.183c-1.881-1.752-7.066-6.225-11.52-9.942-11.029-9.203-9.023-25.064 4.74-37.52 2.527-2.286 6.377-8.186 8.556-13.109 4.408-9.97 15.753-22.634 20.272-22.634 3.531 0 12.327 8.961 12.327 12.559 0 1.407 0.972 2.559 2.16 2.559s2.16-3.186 2.16-7.078c0-3.893 1.334-8.995 2.964-11.339s3.683-7.559 4.56-11.593c0.877-4.031 4.398-12.081 7.821-17.889s6.838-14.395 7.589-19.084c0.748-4.69 2.7-9.638 4.333-10.993s2.97-3.39 2.97-4.522c0-4.574 18.067-32.059 27.083-41.205 11.484-11.647 12.4-14.43 3.593-10.899zM489.172 327.495c-4.157 1.855-11.552 5.194-16.435 7.419-4.881 2.227-9.778 4.050-10.88 4.050-1.104 0-5.82 1.944-10.48 4.319s-9.67 4.319-11.131 4.319c-9.158 0-24.616 15.134-27.564 26.986-0.883 3.556-2.713 7.8-4.065 9.428-3.162 3.809-7.705 16.020-10.564 28.379-1.236 5.346-3.24 10.95-4.451 12.453-4.69 5.82-8.163 41.357-5.939 60.764 3.499 30.544 3.034 34.623-5.396 47.426-6.32 9.594-7.559 13.417-7.559 23.293 0 6.495-1.075 16.082-2.39 21.3-4.422 17.564 4.614 26.829 26.398 27.056 19.626 0.208 37.782 7.832 47.085 19.772 10.607 13.614 13.177 23.814 7.564 30.018-1.99 2.198-3.664 8.571-4.012 15.288-0.332 6.334-1.879 14.557-3.442 18.269-2.438 5.804-2.33 7.821 0.775 14.365 1.987 4.188 3.612 9.511 3.612 11.83 0 12.1 16.131 19.583 19.761 9.168 2.681-7.689 7.17-8.366 10.723-1.62 7.052 13.393 20.121 11.846 18.269-2.16-2.786-21.079-2.525-24.656 2.014-27.699 7.114-4.771 10.378-0.618 11.455 14.568 1.040 14.681 2.532 16.827 11.749 16.878 4.965 0.027 5.939-0.888 5.939-5.581 0-3.089 1.62-9.163 3.601-13.498 9.371-20.518 15.836-18.73 15.836 4.382v14.978l8.961-0.664c9.311-0.691 11.455-2.748 13.63-13.083 1.828-8.698 8.736-7.821 13.637 1.731l3.936 7.673 4.209-4.652c5.844-6.458 7.397-36.33 2.292-44.119-16.395-25.024-9.328-40.212 23.582-50.686 8.286-2.637 16.522-5.694 18.304-6.789s4.697-2.544 6.479-3.215c1.782-0.672 4.697-2.117 6.479-3.212s7.376-4.053 12.432-6.568c18.121-9.020 21.943-17.969 15.585-36.484-1.018-2.97-1.758-9.286-1.644-14.038 0.216-8.955-1.414-13.455-10.17-28.077-11.252-18.787-12.972-23.608-12.34-34.556 0.346-5.939 0.689-12.742 0.764-15.118 0.194-6.002-4.446-23.325-6.912-25.809-1.12-1.128-2.117-10.847-2.219-21.597-0.237-25.531-2.738-44.996-5.915-46.057-1.398-0.464-2.54-1.928-2.54-3.25 0-8.728-32.983-36.111-43.498-36.111-1.144 0-5.675-1.85-10.070-4.112-20.294-10.442-23.228-11.012-56.113-10.869-23.903 0.105-33.657 0.974-39.343 3.513zM441.657 544.139c2.74 2.376 5.969 4.319 7.178 4.319s3.733 1.291 5.61 2.867c1.876 1.577 7.703 4.096 12.95 5.593 15.861 4.536 25.955 18.342 20.116 27.518-6.393 10.051-26.098 10.715-54.493 1.833-5.346-1.674-13.874-3.704-18.955-4.514-20.17-3.215-20.784-19.365-1.301-34.24 11.641-8.89 21.244-10.013 28.895-3.378zM645.791 547.566c16.158 16.638-5.311 41.381-36.462 42.023-2.535 0.054-9.411 1.36-15.277 2.905-24.999 6.587-53.108-18.342-32.528-28.849 3.563-1.819 6.965-3.868 7.559-4.557s8.369-3.461 17.278-6.163c8.909-2.703 20.085-6.695 24.837-8.874 14.637-6.714 25.758-5.583 34.594 3.515zM529.040 585.175c1.539 0 4.946 6.074 7.573 13.498 2.624 7.424 6.722 17.678 9.108 22.788 6.865 14.708 4.39 19.846-9.617 19.962-6.215 0.052-15.601 0.924-20.858 1.938-19.138 3.696-24-3.523-13.158-19.526 5.408-7.975 6.447-11.643 6.479-22.821 0.040-13.725 5.348-19.732 14.794-16.749 1.582 0.502 4.138 0.91 5.678 0.91zM543.165 746.27c-7.722 1.701-17.925 3.177-22.677 3.28s-17.386 0.334-28.077 0.516l-19.438 0.329 0.592 65.872c0.327 36.23 1.563 70.742 2.748 76.695 1.182 5.953 3.013 20.531 4.065 32.396 1.056 11.911 3.447 24.475 5.34 28.052 1.885 3.563 3.463 7.937 3.51 9.719 0.043 1.782 1.506 5.126 3.25 7.433s3.172 5.602 3.172 7.322c0 2.883 6.611 18.649 11.022 26.282 1.028 1.782 3.193 6.155 4.808 9.719 4.973 10.972 9.195 13.088 11.979 6.010 1.301-3.304 3.243-7.467 4.314-9.25 1.075-1.782 4.549-8.585 7.727-15.118s6.576-13.336 7.551-15.118c23.155-42.242 24.986-52.732 27.061-155.124 1.841-90.68 3.529-85.725-26.948-79.014z"></path>
</svg>
