<?xml version="1.0" standalone="no"?>
<!DOCTYPE svg PUBLIC "-//W3C//DTD SVG 20010904//EN"
 "http://www.w3.org/TR/2001/REC-SVG-20010904/DTD/svg10.dtd">
<svg version="1.0" xmlns="http://www.w3.org/2000/svg"
 width="700.000000pt" height="700.000000pt" viewBox="0 0 700.000000 700.000000"
 preserveAspectRatio="xMidYMid meet">
<metadata>
Created by potrace 1.14, written by Peter Selinger 2001-2017
</metadata>
<g transform="translate(0.000000,700.000000) scale(0.100000,-0.100000)"
fill="#000000" stroke="none">
<path d="M3950 6993 c-14 -3 -64 -16 -111 -29 -47 -14 -95 -26 -105 -28 -55
-11 -205 -18 -425 -21 -417 -6 -553 -24 -713 -91 -109 -46 -131 -53 -167 -54
-21 0 -53 -11 -80 -28 -59 -37 -100 -56 -226 -103 -123 -46 -141 -55 -168 -80
-12 -10 -38 -21 -60 -25 -55 -8 -86 -26 -142 -81 -27 -25 -84 -75 -128 -110
-44 -35 -88 -71 -98 -79 -9 -7 -42 -28 -71 -45 -61 -34 -181 -155 -201 -203
-7 -17 -28 -44 -45 -61 -97 -91 -430 -595 -430 -649 0 -8 -11 -21 -25 -30 -30
-20 -54 -71 -95 -206 -19 -63 -40 -112 -52 -122 -27 -23 -47 -93 -53 -187 -10
-142 -16 -174 -50 -260 -18 -47 -36 -108 -40 -136 -10 -70 -24 -123 -47 -173
-28 -62 -56 -179 -63 -264 -4 -40 -8 -91 -10 -113 -17 -178 -26 -1149 -13
-1320 4 -49 17 -127 28 -172 18 -76 28 -103 81 -219 11 -22 19 -48 19 -57 0
-52 104 -281 150 -329 17 -17 30 -41 30 -54 0 -45 48 -130 134 -239 49 -60 92
-120 97 -134 9 -22 197 -215 329 -337 104 -96 193 -166 229 -181 20 -8 54 -34
76 -57 64 -67 236 -179 434 -282 63 -32 130 -74 149 -91 20 -18 45 -33 57 -33
12 0 32 -12 46 -26 13 -15 44 -35 69 -46 25 -11 58 -26 75 -33 206 -93 263
-117 307 -126 29 -7 78 -26 108 -42 48 -28 63 -31 135 -31 78 0 138 18 147 43
5 16 103 21 488 26 428 6 806 14 840 19 76 11 105 18 162 37 35 12 93 37 129
56 37 19 80 36 95 38 42 5 74 16 74 26 0 23 55 57 102 62 35 5 58 14 76 32 32
32 156 92 223 107 40 9 49 15 46 29 -6 21 15 41 60 58 18 7 35 22 39 33 3 12
30 31 62 46 74 33 132 76 242 176 106 96 129 114 176 131 53 20 86 43 79 56
-3 4 8 17 25 29 16 12 30 27 30 35 0 13 50 67 159 170 36 34 73 79 84 104 11
24 32 56 46 70 18 17 32 45 40 80 15 69 57 166 92 211 35 47 54 85 68 143 6
26 22 72 36 101 24 52 47 139 59 216 15 99 47 308 51 330 3 14 8 41 11 60 3
19 7 37 9 40 2 3 6 25 10 50 4 25 9 48 12 53 11 18 17 249 17 657 -1 590 -15
1045 -38 1160 -20 102 -92 296 -199 532 -26 55 -26 57 -7 63 28 9 25 34 -5 45
-15 6 -27 20 -31 37 -9 37 -22 53 -45 53 -27 0 -40 33 -45 117 -8 136 -49 261
-114 348 -20 28 -61 86 -91 130 -60 87 -54 80 -170 220 -45 55 -88 113 -95
130 -24 59 -232 268 -285 287 -11 4 -35 24 -53 43 -18 19 -42 35 -53 35 -41 0
-143 33 -233 76 -97 47 -154 67 -225 79 -22 4 -53 17 -70 29 -49 37 -74 47
-137 56 -50 7 -65 15 -96 47 -27 27 -47 39 -71 40 -19 1 -50 13 -70 27 -20 13
-56 26 -81 29 -63 7 -92 15 -195 49 -73 25 -109 31 -190 33 -55 1 -111 0 -125
-2z m-369 -717 c76 -7 97 -11 176 -40 23 -9 79 -18 125 -21 152 -11 385 -83
408 -125 5 -10 24 -20 42 -24 96 -18 290 -161 345 -254 14 -23 36 -51 50 -62
23 -18 30 -33 32 -68 1 -7 12 -17 25 -24 18 -8 26 -21 31 -52 4 -22 20 -60 36
-82 38 -56 46 -78 53 -157 3 -37 12 -80 21 -96 14 -28 28 -81 40 -151 3 -19 7
-46 10 -60 2 -14 7 -50 10 -80 3 -30 8 -71 10 -90 3 -19 7 -60 10 -90 3 -30
10 -91 16 -135 5 -44 12 -98 14 -120 3 -22 7 -51 10 -65 4 -23 12 -78 20 -142
6 -41 25 -110 40 -143 16 -36 24 -104 40 -335 6 -80 19 -187 29 -237 3 -11 12
-35 21 -53 20 -38 23 -56 29 -134 4 -40 13 -70 30 -95 26 -39 37 -62 86 -186
18 -44 60 -134 95 -200 54 -102 75 -158 80 -210 3 -30 -30 -136 -63 -203 -93
-190 -239 -362 -307 -362 -12 0 -52 -23 -88 -50 -49 -38 -74 -51 -103 -53 -32
-2 -40 -6 -42 -24 -2 -15 -14 -25 -36 -33 -18 -6 -45 -24 -61 -40 -19 -20 -45
-33 -82 -40 -42 -9 -56 -17 -68 -39 -20 -39 -133 -149 -180 -175 -27 -15 -42
-32 -47 -53 -4 -17 -19 -38 -32 -46 -13 -9 -32 -39 -42 -67 -10 -28 -26 -59
-36 -69 -17 -19 -42 -96 -53 -161 -3 -19 -8 -42 -10 -50 -3 -8 -7 -32 -9 -54
-3 -21 -7 -46 -10 -55 -3 -9 -7 -41 -11 -71 -3 -30 -7 -66 -10 -80 -2 -14 -7
-46 -9 -73 -10 -90 -18 -122 -49 -177 -17 -30 -30 -57 -29 -60 6 -14 -23 -124
-37 -142 -24 -29 -92 -27 -137 4 -27 19 -38 37 -56 97 -25 82 -41 97 -105 104
-50 6 -62 -5 -68 -59 -10 -81 -16 -103 -45 -142 -68 -94 -171 -67 -195 52 -3
16 -14 30 -25 33 -25 7 -25 11 3 41 l22 24 -45 -7 c-57 -8 -77 -28 -89 -88
-12 -69 -24 -78 -91 -76 -67 3 -100 13 -100 33 0 8 -9 17 -20 21 -12 4 -24 21
-30 46 -17 63 -43 52 -74 -34 -21 -55 -55 -79 -98 -66 -35 9 -51 25 -81 80
-31 56 -56 158 -62 251 -3 40 -7 103 -9 139 -2 37 -15 100 -29 140 -14 41 -28
105 -32 142 -8 89 -29 156 -53 173 -11 7 -22 31 -26 54 -11 71 -94 179 -139
180 -9 0 -25 9 -35 21 -19 23 -132 83 -232 122 -36 14 -135 53 -220 87 -85 34
-198 76 -250 95 -149 51 -210 86 -210 119 0 9 -4 16 -9 16 -13 0 -71 59 -72
73 -4 57 -12 94 -34 153 -47 123 -61 183 -65 265 0 3 -9 16 -20 29 -35 40 -39
140 -6 172 20 21 32 50 34 86 3 50 27 111 96 246 47 91 67 143 76 195 6 39 20
82 31 95 11 14 31 58 44 97 14 40 31 79 39 88 21 25 26 83 31 391 6 360 14
624 21 675 3 22 16 76 29 120 34 115 41 150 44 214 0 16 12 42 25 58 13 16 27
46 30 68 10 63 26 117 48 159 11 21 26 70 34 108 11 51 24 82 48 112 19 22 44
61 56 86 39 78 121 199 152 225 16 14 38 25 48 25 11 0 52 29 91 64 73 67 122
96 157 96 11 0 29 11 39 26 12 16 31 27 53 30 34 5 135 40 155 54 16 11 123
29 210 35 44 3 122 17 174 31 52 14 128 28 170 31 42 3 77 6 78 7 4 3 131 -2
204 -8z"/>
<path d="M3894 5808 c-23 -11 -51 -37 -67 -62 -15 -24 -42 -58 -60 -77 -39
-40 -86 -109 -109 -161 -10 -20 -29 -45 -43 -54 -14 -9 -25 -26 -25 -39 0 -26
-15 -41 -52 -50 -17 -4 -31 -18 -39 -38 -27 -71 -163 -183 -229 -190 -37 -5
-126 37 -170 80 -21 20 -23 25 -10 33 18 11 18 10 -53 43 -35 17 -61 36 -66
49 -5 13 -41 59 -80 102 -38 44 -78 95 -87 114 -11 24 -29 40 -60 53 -48 22
-48 22 -34 50 9 15 7 19 -7 20 -69 4 -154 -5 -182 -21 -12 -6 -21 -19 -21 -30
0 -13 -12 -25 -33 -33 -35 -15 -145 -121 -166 -161 -11 -21 -12 -31 -1 -56 14
-35 209 -223 255 -247 57 -29 228 -189 358 -333 37 -41 57 -72 57 -88 0 -38
-54 -124 -130 -205 -43 -46 -84 -102 -105 -145 -20 -41 -43 -73 -54 -77 -11
-3 -22 -19 -26 -35 -7 -30 -24 -50 -47 -54 -23 -3 -36 -15 -42 -42 -4 -14 -21
-40 -39 -58 -18 -18 -50 -63 -70 -102 -21 -38 -60 -105 -88 -149 -52 -85 -74
-144 -65 -179 17 -67 200 -199 303 -221 30 -6 33 -5 31 17 -3 33 37 96 126
203 42 50 88 112 103 139 16 27 56 80 91 119 34 38 70 83 79 101 19 38 32 47
56 40 13 -4 17 0 17 19 0 13 17 46 38 74 107 146 129 172 152 182 34 14 90 16
120 3 30 -12 113 -76 206 -158 38 -34 96 -84 129 -110 33 -27 66 -55 74 -62
13 -13 94 -56 99 -53 13 8 32 -4 42 -28 16 -40 147 -174 190 -196 32 -16 63
-44 94 -86 19 -27 70 -59 101 -65 17 -2 43 -14 58 -25 15 -11 36 -19 45 -17
24 4 59 82 66 145 6 51 28 118 60 177 l15 30 -47 32 c-26 18 -92 76 -147 129
-55 53 -121 110 -147 127 -27 18 -51 43 -57 59 -8 23 -43 53 -61 52 -14 -1
-30 11 -30 23 0 7 -23 25 -50 39 -108 55 -337 280 -375 369 -15 34 -2 86 21
86 14 0 36 42 31 58 -1 4 15 24 35 44 20 21 58 70 83 110 26 40 60 85 76 99
16 14 32 41 35 60 10 55 66 146 161 262 132 162 151 189 158 227 8 47 -9 67
-65 75 -25 3 -76 22 -115 42 -87 44 -153 51 -211 21z"/>
<path d="M4373 3538 c-19 -25 -24 -38 -14 -38 12 0 41 28 41 41 0 13 -16 11
-27 -3z"/>
<path d="M4772 3073 c-53 -19 -149 -52 -214 -74 -187 -62 -259 -93 -463 -194
-139 -70 -245 -135 -277 -171 -22 -25 -55 -103 -62 -149 -5 -31 -2 -42 23 -71
17 -18 36 -53 42 -76 16 -56 42 -85 85 -93 19 -3 44 -15 56 -27 30 -30 71 -39
198 -43 145 -5 217 7 305 49 39 19 99 44 134 56 35 12 88 33 117 46 30 13 57
24 59 23 3 0 25 14 47 30 23 17 50 31 61 31 10 0 30 13 45 29 16 18 41 31 62
35 39 6 76 44 85 87 3 14 15 36 26 47 10 12 24 34 30 49 15 39 21 274 8 315
-22 67 -119 125 -223 132 -34 3 -73 -6 -144 -31z"/>
<path d="M2147 3094 c-4 -4 -7 -15 -7 -25 0 -12 -10 -21 -27 -25 -108 -23
-194 -77 -327 -204 -87 -83 -136 -148 -136 -179 0 -21 89 -136 179 -231 41
-43 51 -60 46 -77 -4 -19 -1 -23 16 -23 12 0 62 -18 111 -41 50 -22 110 -44
133 -48 24 -5 51 -15 60 -24 14 -14 113 -51 168 -62 10 -2 26 -6 35 -9 46 -14
90 -18 237 -22 175 -4 231 4 255 36 13 17 24 21 51 17 42 -5 85 15 94 45 4 13
14 33 21 46 12 18 18 20 34 12 18 -9 20 -7 20 17 0 17 12 42 31 63 42 48 69
91 69 112 0 10 10 23 23 29 30 16 35 26 31 65 -7 81 -56 128 -168 164 -22 7
-49 23 -61 36 -16 17 -37 25 -75 29 -41 4 -58 12 -79 34 -16 17 -47 34 -72 41
-85 22 -115 33 -254 98 -230 106 -289 128 -347 131 -30 1 -57 -1 -61 -5z"/>
<path d="M3466 2226 c-76 -22 -142 -126 -171 -269 -9 -45 -44 -142 -80 -225
-34 -81 -66 -161 -70 -179 -7 -36 18 -94 59 -132 33 -31 78 -32 381 -5 161 14
225 35 251 85 40 77 -11 449 -61 449 -21 0 -35 25 -41 76 -4 31 -15 58 -30 74
-13 14 -34 40 -46 59 -41 62 -116 88 -192 67z"/>
<path d="M2925 2111 c-3 -5 -1 -12 4 -15 13 -8 42 4 35 15 -7 12 -31 12 -39 0z"/>
</g>
</svg>
