<!-- Generated by IcoMoon.io -->
<svg version="1.1" xmlns="http://www.w3.org/2000/svg" width="512" height="512" viewBox="0 0 512 512">
<title>Zikkit's Tunnelpack</title>
<g id="icomoon-ignore">
</g>
<path fill="#000" d="M227.726 26.178l-0.466 10.594-17.304 3.56c-91.739 18.872-165.295 90.708-183.267 178.978-2.549 12.525-3.447 13.372-14.175 13.372-11.209 0-10.811-1.036-12.075 31.542-1.175 30.288-0.776 31.385 11.389 31.385 10.181 0 10.126-0.082 14.080 21.12 1.441 7.721 4.619 19.918 7.062 27.103 4.432 13.031 4.435 13.074 1.385 16.954l-3.061 3.89 7.317 14.566c24.672 49.127 63.747 87.843 112.409 111.375 19.781 9.565 17.327 11.576 34.553-28.309 18.75-43.417 18.291-39.652 5.549-45.429-5.712-2.589-13.579-6.865-17.484-9.502-9.036-6.097-10.838-6.017-15.188 0.68-6.512 10.026-8.243 9.369-28.428-10.815-29.444-29.445-53.823-81.752-51.142-109.737l0.504-5.267 50.736-0.416c45.359-0.372 50.734-0.151 50.734 2.070 0 1.368-1.903 9.582-4.228 18.253-4.603 17.168-3.768 31.622 2.016 34.857 1.394 0.782 4.195 5.173 6.223 9.76 3.181 7.192 6.32 10.433 22.799 23.562 10.511 8.372 20.284 17.459 21.714 20.192 1.433 2.733 5.42 7.453 8.862 10.486 3.441 3.034 13.228 12.242 21.747 20.461 14.919 14.397 15.575 14.83 17.852 11.799 6.75-8.994 24.817-41.051 29.538-52.414 6.813-16.399 12.19-25.724 20.574-35.682 11.903-14.139 27.887-44.635 27.007-51.524-1.375-10.748-37.174-79.245-48.534-92.863-2.837-3.402-5.746-4.708-13.088-5.877-5.19-0.827-12.624-2.43-16.517-3.561l-7.079-2.057v-33.754c0-39.564-1.741-36.947 20.823-31.309 28.576 7.139 49.651 18.684 71.709 39.283 13.521 12.627 11.619 12.339 25.454 3.867 10.091-6.18 11.803-5.464 20.204 8.433 31.589 52.255 35.889 110.732 12.284 167.004-10.995 26.212-39.009 62.69-48.261 62.846-3.74 0.063-7.033 2.368-15.332 10.731l-10.57 10.651 15.735 25.139c19.454 31.079 17.396 29.735 31.269 20.429 51.738-34.714 90.045-92.495 101.695-153.394 4.572-23.901 4.017-22.716 11.015-23.598l6.241-0.787-0.005-25.171c-0.003-13.843-0.565-27.825-1.25-31.069l-1.247-5.9h-9.175c-10.999 0-11.591-0.602-14.854-15.134-20.079-89.38-97.271-163.155-185.951-177.721-18.095-2.974-19.559-4.163-19.559-15.888v-8.352h-51.77l-0.464 10.591zM237.542 143.815c0.956 25.022 0.332 28.254-5.76 29.783-2.398 0.602-10.414 6.924-17.812 14.048-7.399 7.125-17.852 16.683-23.23 21.239l-9.78 8.284-0.446 16.016-0.446 16.017-49.773 0.415c-56.447 0.472-52.075 1.729-49.394-14.206 2.55-15.148 3.655-15.895 18.040-12.193 11.811 3.038 14.266 2.956 14.266-0.47 0-1.036 3.526-9.072 7.837-17.858 19.803-40.37 53.15-67.766 97.301-79.945 19.578-5.4 18.218-6.739 19.197 18.872z"></path>
</svg>
