<!-- Generated by IcoMoon.io -->
<svg version="1.1" xmlns="http://www.w3.org/2000/svg" width="1024" height="1024" viewBox="0 0 1024 1024">
<title></title>
<g id="icomoon-ignore">
</g>
<path fill="#000" d="M341.561 613.088c3.455-53.928 8.285-107.532 42.924-153.218 3.965-5.34 2.578-14.828 3.78-22.377-5.665-1.387-12.164-2.166-18.835-2.166-1.516 0-2.989 0.043-4.462 0.141h0.227c-10.495 1.982-19.854 5.524-28.367 10.409l0.466-0.227c-6.542 4.149-14.46 6.585-22.984 6.585-9.488 0-18.283-3.044-25.421-8.242l0.141 0.098c-11.882-7.604-23.948-14.644-35.83-21.879 10.409-2.437 23.623-4.646 37.032-6.217l1.755-0.184c0.227 0 0.552 0 0.835 0 31.27 0 57.611-21.186 65.399-50.019l0.098-0.466c2.492-7.181 3.965-15.423 3.965-24.046 0-25.746-12.944-48.448-32.656-61.987l-0.282-0.184-2.946-3.271c-41.169-27.078-47.061-26.894-86.162 2.068-4.051 2.252-8.752 4.235-13.68 5.567l-0.466 0.098c0-6.726-2.762-14.828 0-19.799 25.151-43.434 92.704-57.059 137.881-34.443 29.428 12.023 51.989 35.645 62.312 65.074l0.227 0.78c4.094 11.784 6.444 25.335 6.444 39.469 0 15.932-2.989 31.128-8.47 45.134l0.282-0.835c-1.7 4.333 1.387 10.679 2.252 16.031 5.567-1.571 10.452-3.725 14.871-6.499l-0.227 0.141c34.031-30.122 75.937-52.173 122.23-62.723l1.884-0.368c68.94-11.882 139.084-13.453 204.753 19.118 5.014 2.578 7.42 9.998 11.004 15.153-6.542 1.7-14.828 6.911-19.118 4.462-47.061-25.151-92.195-13.766-140.458-1.019-40.844 11.231-76.587 27.305-109.146 48.037l1.614-0.964c-6.358 3.498-11.655 8.199-15.748 13.821l-0.098 0.141c-3.639 5.524-7.236 15.012-4.83 19.118s13.085 13.766 19.302 13.085c13.355-1.884 25.378-6.076 36.198-12.164l-0.509 0.282c25.464-15.055 56.181-23.948 88.924-23.948s63.46 8.893 89.758 24.414l-0.835-0.466c46.238 22.886 80.681 63.742 94.502 113.153l0.325 1.246c30.349 119.088-32.233 220.274-141.845 242.835-116.695 24.132-198.026-35.83-231.462-144.423-4.56-13.539-7.181-29.201-7.181-45.404 0-23.211 5.383-45.177 15.012-64.706l-0.368 0.878c5.665-9.077 9.715-19.799 11.471-31.227l0.043-0.466c-0.552-9.445-5.014-17.774-11.839-23.395l-0.043-0.043c-3.455-2.762-15.337 2.252-21.186 6.726-4.701 5.069-8.285 11.145-10.409 17.915l-0.098 0.325c-31.736 72.027-46.877 145.442-22.745 224.051 4.094 15.748 7.69 35.093 9.998 54.806l0.184 2.068c-14.828-14.871-27.955-31.497-38.96-49.51l-0.65-1.148c-18.792-36.934-29.754-80.595-29.754-126.79 0-2.946 0.043-5.849 0.141-8.752v0.411zM772.381 613.088c2.252-73.089-71.193-134.057-137.881-134.61-62.030 0-134.241 73.912-134.61 136.138s74.789 140.274 137.881 136.819c67.75-3.455 138.39-64.11 134.425-138.065z"></path>
<path fill="#000" d="M750.005 616.359c0 0.368 0 0.835 0 1.289 0 61.293-49.694 110.987-110.987 110.987-1.387 0-2.805-0.043-4.192-0.098h0.184c-53.603 0.878-110.109-49.651-110.987-117.529 0-52.91 56.181-113.24 115.645-110.803s116.327 54.99 110.294 116.142z"></path>
</svg>
