<!-- Generated by IcoMoon.io -->
<svg version="1.1" xmlns="http://www.w3.org/2000/svg" width="1024" height="1024" viewBox="0 0 1024 1024">
<title></title>
<g id="icomoon-ignore">
</g>
<path fill="#000" d="M582.568 622.34c0-27.251 1.305-54.46-0.821-81.532 0-10.269-10.090-19.886-15.509-29.85-7.018 9.312-19.065 17.94-20.054 27.724-4.724 48.084-6.197 96.694-9.312 144.956-0.084 1.084-0.126 2.378-0.126 3.683 0 12.826 5.030 24.431 13.215 33.059v0c16.287 18.76 14.688 27.377 1.778 46.316s-20.706 34.395-32.628 51.209c-2.041 1.305-4.503 2.125-7.197 2.125-1.641 0-3.209-0.305-4.64-0.821l0.084 0.042c-14.856-25.263-29.377-50.735-42.886-76.808-1.473-2.778 2.431-9.617 5.377-13.383 9.269-12.784 14.856-28.766 14.856-46.053 0-2.599-0.126-5.198-0.389-7.754l0.042 0.305c0-31.155 1-62.478 0-93.621-1.347-21.664-4.85-41.855-10.269-61.257l0.473 2.041c-3.556-6.629-10.269-11.174-18.024-11.742h-0.084c-7.533 2.083-13.478 7.491-16.245 14.509l-0.042 0.168c-1.168 5.503-1.862 11.826-1.862 18.329 0 3.556 0.221 7.060 0.61 10.479l-0.042-0.431c0 47.442 0 94.926 0 142.358-0.652 4.251-1.862 8.102-3.556 11.658l0.084-0.263c-4.545-1.946-10.743-2.778-13.383-6.197-14.993-19.886-28.377-36.352-21.359-67.843 8.796-40.119 2.431-83.658 2.294-125.723 0.042-0.473 0.042-1.084 0.042-1.641 0-5.030-1.694-9.659-4.503-13.383l0.042 0.042c-6.461-4.976-13.731-9.533-21.401-13.341l-0.779-0.347c-3.599 6.85-9.796 13.52-9.964 20.538-1.126 31.155 0 62.478 0 93.621 0 10.922 0 21.706 0 32.628s-5.198 11.563-13.036 5.892c-2.125-1.641-3.904-3.767-6.018-5.545-14.509-11.91-34.742-21.18-41.76-36.7s1.305-35.574 0.821-53.808c-1-29.503-4.072-59.047-4.892-88.55 0.737-5.934 4.251-10.922 9.185-13.647l0.084-0.042c9.575-3.514 21.275-6.797 33.311-9.185l1.599-0.263c19.928-5.503 36.352-18.108 46.611-34.879l0.221-0.347c4.892-7.67 3.114-17.634-8.144-17.455-23.653 0-48.915-7.976-69.969 10.922-7.976 7.197-14.993 1.126-16.287-8.964 0-6.85 0-13.689 0-20.401 0-13.036-7.197-31.155-1-37.994 12.395-14.215 22.359 6.365 34.227 10.269 41.413 13.215 97.872-1.946 118.232-32.628 10.437-14.856 9.617-24.778-5.545-32.628-11.006-5.85-23.874-9.88-37.52-11.395l-0.473-0.042c-8.491-0.515-18.455-0.779-28.461-0.779s-19.97 0.305-29.808 0.863l1.347-0.042c-2.125-0.389-4.587-0.61-7.102-0.61-11.437 0-21.79 4.682-29.281 12.174v0c-8.796 9.796-20.538 3.251-22.18-10.269-0.347-4.293-0.568-9.227-0.568-14.257s0.221-10.006 0.61-14.898l-0.042 0.652c0-18.76 0-18.108 20.706-12.089 7.838 2.083 16.856 3.293 26.167 3.293 0.61 0 1.21 0 1.82 0h-0.084c25.778 0 51.556 0 77.292 0 8.144 0 19.233 2.125 23.653-2.125 21.18-20.233 34.227-7.838 50.083 7.491 21.706 21.054 24.126 20.886 44.843-1.126 14.688-16.287 27.724-23.653 48.915-10.437 7.102 3.851 15.509 6.113 24.473 6.113 0.905 0 1.82-0.042 2.725-0.084h-0.126c36.521 0 73.041 0 109.604-2.294 8.796 0 12.563 0 13.215 8.796 0.168 2.431 0.263 5.282 0.263 8.144s-0.084 5.724-0.263 8.533v-0.389c0 10.616-2.125 21.18-3.251 31.796-7.881-4.293-17.108-8.27-26.736-11.395l-1.168-0.347c-40.94-10.269-81.532-14.341-121.998 4.545-16.287 7.491-17.287 18.76-6.85 32.628 13.299 20.844 36.299 34.437 62.478 34.437 0.958 0 1.946 0 2.904-0.042h-0.126c26.736-1.305 54.155 3.599 78.586-13.036 5.892-3.904 13.036-3.767 11.437 7.67-1.473 9.354-2.599 20.622-3.072 32.017v0.61c-1.126 28.377 0 26.904-29.503 20.401-9.964-1.988-21.443-3.167-33.227-3.167-6.755 0-13.383 0.389-19.928 1.126l0.821-0.084c-14.856 1.126-16.287 13.383-7.018 25.946 15.341 19.581 37.825 25.263 59.353 32.628 27.556 9.312 24.778 8.491 23.305 35.048-0.473 8.796-0.779 19.107-0.779 29.461 0 25.042 1.641 49.694 4.85 73.862l-0.305-2.862c2.599 19.233 0.821 30.976-17.455 38.814-7.323 4.377-13.689 8.922-19.581 13.994l0.168-0.168c-8.144 5.545-16.287 10.743-24.957 16.287-2.083-9.312-3.419-20.149-3.725-31.239v-0.221c1.641-25.263 5.892-50.556 7.197-75.987 0 0 0-0.042 0-0.042 0-11.132-2.378-21.706-6.713-31.239l0.168 0.473c-4.072-7.018-8.922-12.994-14.467-18.234l-0.042-0.042c-8.323 6.365-15.635 13.257-22.18 20.844l-0.168 0.168c-3.419 4.724-1.641 13.036-1.641 19.886 0 32.628-1 65.245 0 97.872 0.389 12.395 3.767 23.916 9.491 33.964l-0.168-0.347c2.683 3.114 4.293 7.197 4.293 11.658 0 5.377-2.336 10.185-6.060 13.425v0c-12.742 13.383-24.957 27.072-37.52 40.772-2.125-19.233-4.724-38.341-6.197-57.574-0.821-12.089 0-24.305 0-36.521z"></path>
</svg>
