<!-- Generated by IcoMoon.io -->
<svg version="1.1" xmlns="http://www.w3.org/2000/svg" width="1024" height="1024" viewBox="0 0 1024 1024">
<title>bladeborn-the-skinnerkin</title>
<g id="icomoon-ignore">
</g>
<path fill="#000" d="M349.002 167.807c-1.452 0.814-5.968 4.962-10.029 9.215s-8.335 7.73-9.497 7.73c-1.161 0-2.446 1.039-2.862 2.313-0.784 2.413-12.441 15.381-14.671 16.325-0.705 0.298-2.769 2.308-4.587 4.465-1.818 2.155-2.384 3.345-1.259 2.64 1.125-0.708 0.915-0.243-0.468 1.022-1.383 1.272-3.137 1.921-3.904 1.45-0.789-0.488-0.999-0.23-0.488 0.602 1.032 1.666-6.637 7.771-8.916 7.1-0.819-0.241-1.077-0.023-0.571 0.483 0.509 0.506-2.139 3.224-5.877 6.035-3.742 2.809-8.98 7.174-11.644 9.7-5.877 5.568-17.731 14.722-16.51 12.745 0.483-0.779 0.281-1.416-0.447-1.416s-1.663 0.547-2.076 1.221c-0.413 0.671-2.499 1.603-4.632 2.071-3.57 0.784-13.278 9.816-13.278 12.356 0 0.604-3.868 3.722-8.59 6.926-4.728 3.206-8.593 6.481-8.593 7.28s-1.598 2.179-3.553 3.067c-5.186 2.362-17.165 11.869-30.822 24.455-2.547 2.346-7.007 5.99-9.917 8.097-2.91 2.104-10.665 8.663-17.233 14.565-6.816 6.13-16.112 12.929-21.659 15.844-15.961 8.388-19.16 17.634-9.035 26.119 16.838 14.12 18.97 15.486 28.632 18.374 3.206 0.961 6.476 2.933 7.272 4.389s4.193 5.323 7.552 8.593 8.337 8.627 11.063 11.897c17.667 21.215 19.736 22.336 31.753 17.185 3.397-1.457 6.812-2.258 7.586-1.78 0.893 0.551 1.014 0.232 0.325-0.882-0.794-1.282-0.473-1.52 1.188-0.882 1.28 0.493 1.935 0.329 1.502-0.37-1.024-1.658 3.581-4.016 7.844-4.016 5.215 0 7.032 5.085 4.054 11.36-3.76 7.925-3.917 13.634-0.584 21.033 1.639 3.634 3.029 7.005 3.090 7.492 0.063 0.485 0.65 1.376 1.315 1.98 0.7 0.64 0.802 0.411 0.251-0.549-1.796-3.125 0.033-1.646 3.1 2.501 1.689 2.286 2.399 3.739 1.572 3.227s-1.5-0.255-1.5 0.566c0 2.241 16.123 19.81 17.438 18.998 0.627-0.384 0.974 0.060 0.774 0.989s0.275 1.717 1.054 1.752 2.456 1.104 3.73 2.375 2.754 2.315 3.295 2.315c1.287 0 6.966 7.715 7.287 9.9 0.139 0.936 2.16 3.311 4.491 5.275s4.241 4.739 4.241 6.17c0 1.631 0.571 2.253 1.527 1.663 0.976-0.604 1.166-0.361 0.523 0.68-0.592 0.958 0.232 2.938 2.012 4.83 3.065 3.264 6.114 4.436 4.425 1.706-0.511-0.824 0.941-0.117 3.225 1.572 2.286 1.689 4.155 3.854 4.155 4.807s0.781 1.735 1.737 1.735c1.826 0 8.842 6.689 8.842 8.428 0 1.113 1.838 3.268 8.287 9.728 4.188 4.193 4.436 4.26 13.166 3.447 12.545-1.166 17.076 4.427 10.469 12.919-6.296 8.092-5.177 12.676 5.095 20.924 9.275 7.444 18.859 17.462 43.72 45.688 3.841 4.362 7.341 8.231 7.776 8.59 2.418 2.021 14.606 18.454 14.606 19.688 0 0.805 0.498 1.464 1.1 1.464 0.604 0 3.125 2.827 5.601 6.281s8.077 9.925 12.451 14.378c4.374 4.453 9.288 9.662 10.921 11.571 3.186 3.732 4.522 3.993 20.833 4.076l10.579 0.058 0.377 3.963c0.258 2.685-0.005 3.397-0.807 2.203-1.859-2.761-2.537 1.823-1.634 11.018 0.751 7.611 12.433 23.135 17.414 23.135 0.647 0 1.178 0.829 1.178 1.839 0 1.016 0.953 2.208 2.119 2.657 1.249 0.48 1.798 1.654 1.338 2.855-0.43 1.123-0.238 1.704 0.427 1.29 0.67-0.411 1.553 0.327 1.97 1.641 2.607 8.213 14.666 15.359 20.581 12.191 1.962-1.049 2.661-1.095 2.066-0.131-0.516 0.834 0.038 1.452 1.305 1.452 1.448 0 1.93-0.705 1.414-2.053-0.48-1.252-0.241-1.712 0.612-1.188 0.771 0.475 5.457-3.214 10.411-8.198 8.443-8.486 31.34-30.243 35.753-33.973 1.092-0.923 4.362-4.564 7.272-8.089s6.732-7.657 8.501-9.181c1.765-1.522 5.634-4.85 8.593-7.394s5.581-5.075 5.821-5.619 1.277-0.991 2.303-0.991c1.022 0 2.604-1.19 3.512-2.645 0.91-1.452 2.43-2.645 3.381-2.645s3.227-1.62 5.062-3.598c2.91-3.137 4.384-3.614 11.506-3.705 4.494-0.060 9.845-0.819 11.89-1.689 2.050-0.872 6.092-1.581 8.99-1.581s7.118-0.956 9.372-2.124c7.487-3.873 11.976-1.914 26.035 11.356 18.422 17.382 17.769 16.719 30.281 30.991 18.976 21.648 40.83 42.64 53.233 51.132 18.376 12.588 26.149 22.708 23.43 30.516-0.714 2.050-1.74 3.727-2.272 3.727s-1.049 0.746-1.14 1.654c-0.093 0.91-0.844 4.924-1.666 8.923-2.445 11.89 3.381 27.314 13.228 35.032 1.849 1.45 4.888 4.286 6.752 6.299 10.271 11.114 32.215 8.458 59.411-7.199 10.261-5.906 19.834-14.676 19.834-18.171 0-0.66 0.627-1.406 1.391-1.661 5.879-1.962 4.126-27.644-2.544-37.239-8.287-11.926-6.069-20.799 7.353-29.388 9.768-6.25 12.401-16.502 9.48-36.913-0.627-4.362-1.233-8.677-1.358-9.586s-0.814-1.654-1.543-1.654c-0.726 0-0.971-0.351-0.541-0.781 1.252-1.254-5.507-8.102-9.715-9.845-2.117-0.877-3.846-2.117-3.846-2.754s-1.153-1.161-2.569-1.161c-1.409 0-2.89-0.528-3.29-1.173-2.877-4.652-31.734 3.866-35.891 10.588-3.264 5.277-40.052-18.305-40.266-25.81-0.022-0.801-2.843-3.538-6.269-6.082-3.424-2.544-13.157-10.952-21.625-18.68s-15.921-14.272-16.561-14.542c-0.637-0.27-2.341-2.007-3.782-3.859-1.444-1.854-7.917-8.226-14.391-14.158l-11.771-10.789-0.528-7.659c-0.289-4.212-0.531-8.711-0.538-9.998-0.007-1.454-0.607-1.985-1.583-1.401-0.918 0.549-0.817 0.015 0.241-1.292 1.183-1.457 1.297-2.236 0.329-2.236-0.862 0-1.489-2.354-1.493-5.619-0.012-6.974-19.764-31.399-25.393-31.399-2.308 0-10.115-4.508-9.506-5.49 0.368-0.599-0.251-0.733-1.383-0.301-4.291 1.649-8.901-1.206-20.568-12.727-6.62-6.539-12.578-11.888-13.243-11.888s-1.969-1.414-2.9-3.141c-0.931-1.727-7.941-9.888-15.577-18.131-12.051-13.008-27.658-30.116-32.642-35.776-0.865-0.979-6.957-7.138-13.541-13.682-6.584-6.546-11.974-12.542-11.978-13.329-0.007-0.786-1.497-2.227-3.315-3.196-1.818-0.974-3.305-2.222-3.305-2.774s-2.205-3.277-4.903-6.059c-2.695-2.779-6.479-7.47-8.415-10.431-1.93-2.961-5.768-7.568-8.522-10.244-2.754-2.678-4.489-4.869-3.854-4.869s-0.165-0.928-1.78-2.056c-1.618-1.133-2.938-2.494-2.938-3.029s-5.884-7.196-13.078-14.8c-7.194-7.601-12.995-14.217-12.889-14.697 0.103-0.478-1.406-2.124-3.354-3.657s-4.881-5.005-6.514-7.725c-1.636-2.714-5.1-7.346-7.697-10.297-11.453-13.005-18.166-21.124-21.14-25.56-1.76-2.623-6.403-8.261-10.319-12.527s-6.859-8.011-6.546-8.324c0.313-0.316-0.994-2.265-2.908-4.334-1.912-2.071-6.001-6.486-9.093-9.809-3.092-3.325-5.619-6.556-5.619-7.176 0-0.624-2.059-3.538-4.58-6.481s-4.207-5.73-3.745-6.188c0.458-0.458 0.241-0.837-0.483-0.837s-3.328-2.827-5.786-6.281c-2.456-3.452-4.938-6.476-5.512-6.721-0.576-0.241-1.047-0.961-1.047-1.591 0-0.633-1.338-2.575-2.974-4.317-1.634-1.74-4.46-5.153-6.279-7.588s-7.538-8.694-12.707-13.912c-5.172-5.217-11.384-12.393-13.806-15.94-2.42-3.55-5.434-7.204-6.701-8.115-1.276-0.923-2.996-5.045-3.866-9.253-3.705-17.956-13.553-25.99-24.397-19.911z"></path>
</svg>
