<!-- Generated by IcoMoon.io -->
<svg version="1.1" xmlns="http://www.w3.org/2000/svg" width="1024" height="1024" viewBox="0 0 1024 1024">
<title></title>
<g id="icomoon-ignore">
</g>
<path fill="#000" d="M510.901 130.265c-3.535 7.030-16.273 28.038-28.303 46.686l-21.878 33.92 5.365 33.86c7.382 46.573 8.112 244.38 0.924 250.358-6.63 5.512-17.462-2.946-17.462-13.627 0-4.22-3.708-17.393-8.252-29.277s-11.104-32.955-14.608-46.829c-3.503-13.875-14.52-44.016-24.48-66.977-19.94-45.936-19.406-37.63-7.734-120.142 5.026-35.566 0.367-36.068-30.208-3.227-40.15 43.13-43.482 50.932-43.829 102.613l-0.286 43.134 20.371 40.525c18.519 36.829 24.524 57.632 28.015 96.971 0.612 6.843-1.445 10.624-6.294 11.594-3.95 0.794-7.184-0.647-7.184-3.197 0-7.786-16.504-41.423-36.285-73.945-19.575-32.177-28.77-72.738-29.344-129.461-0.188-18.507-7.351-47.651-13.13-53.433-3.555-3.555-23.201 24.41-26.311 37.465-1.55 6.522-5.62 15.072-9.040 19.010-11.784 13.558-4.477 80.644 11.284 103.544 7.079 10.279 15.389 27.094 18.482 37.361 3.091 10.265 10.398 24.933 16.239 32.59 12.771 16.748 13.156 21.038 2.376 26.801-10.384 5.561-7.37 35.534 4.546 45.169 5.12 4.14 6.822 9.184 5.178 15.371-2.103 7.962 0.563 10.608 19.602 19.477 28.381 13.205 36.416 13.28 36.416 0.317 0-12.519 7.182-17.426 13.624-9.304 9.334 11.782 56.398 16.481 66.831 6.677 11.189-10.51 38.019-9.668 43.388 1.36 1.928 3.948 5.081 10.418 7.031 14.381 6.142 12.506 67.888 10.488 69.7-2.278 2.474-17.468 33.692-23.066 45.732-8.207 6.867 8.48 8.403 8.697 25.308 3.687 24.618-7.31 28.262-11.18 28.262-29.947 0-18.889 12.185-21.329 16.421-3.281 2.934 12.519 16.733 15.525 26.492 5.763 4.63-4.63 6.119-10.363 4.438-17.039-1.396-5.539-0.748-12.225 1.439-14.844 5.327-6.426 16.792-39.832 16.875-49.169 0.026-4.116 8.844-16.74 19.575-28.058 32.649-34.423 57.091-113.554 45.943-148.73-19.896-62.801-34.24-75.087-37.869-32.411-3.621 42.604-15.851 100.513-23.632 111.937-3.846 5.652-11.172 18.592-16.282 28.75-14.76 29.382-42.655 69.719-48.271 69.779-8.703 0.086-5.757-11.882 9.238-37.469 7.911-13.497 14.381-25.553 14.381-26.791 0-1.249 4.399-11.029 9.775-21.734 14.142-28.158 19.401-75.743 13.255-120.048l-4.936-35.642-32.661-34.19c-44.711-46.8-45.71-45.359-34.862 50.011 9.032 79.347 4.826 133.685-12.416 160.544-18.835 29.343-32.608 58.241-32.619 68.459-0.018 7.864-2.217 9.238-14.773 9.238h-14.767l2.033-58.529c1.111-32.194 3.999-85.331 6.421-118.097 10.021-135.936 12.47-119.483-26.573-179.233-17.163-26.269-22.517-28.402-30.659-12.225zM663.148 596.934c-5.652 4.422-16.733 9.080-24.646 10.354-7.911 1.272-19.429 3.111-25.615 4.088-7.619 1.2-13.703-0.876-18.889-6.443-9.283-9.961-19.537-6.997-22.956 6.619-5.218 20.808-96.844 18.105-96.844-2.86 0-11.294-9.958-13.597-27.872-6.428-15.214 6.091-21.094 5.746-58.634-3.418-7.073-1.729-12.282-0.439-15.9 3.924-6.388 7.69-33.36 8.734-40.532 1.561-12.591-12.591-14.822 4.238-3.599 27.162 12.101 24.718 14.429 51.963 5.087 59.705-14.549 12.078-7.847 51.532 13.959 82.153 11.253 15.804 18.754 15.868 26.852 0.22 12.181-23.562 34.825-4.745 37.067 30.804 3.748 59.413 38.928 131.812 38.928 80.095 0-13.36 3.975-17.48 12.047-12.492 3.496 2.158 4.557 7.129 2.919 13.639-5.541 22.074 14.87 24.056 27.092 2.632 7.913-13.875 15.445-12.715 15.445 2.379 0 18.638 18.685 17.443 23.201-1.483 3.645-15.263 5.024-16.948 11.827-14.339 3.92 1.502 5.18 5.561 3.648 11.691-2.833 11.294 3.557 16.271 13.842 10.765 7.227-3.867 12.372-23.348 19.673-74.413 5.679-39.762 32.516-66.396 46.181-45.831 9.155 13.793 17.83 10.357 36.537-14.479 23.827-31.626 30.747-61.567 17.969-77.793-10.018-12.727-9.521-18.84 4.373-53.876 14.091-35.577 3.236-53.005-21.143-33.932zM436.074 678.691c19.553 16.676 21.822 23.969 8.354 26.884-29.73 6.444-38.809 3.955-50.626-13.891-22.958-34.701 6.278-43.682 42.269-12.994zM618.578 668.518c12.013 26.359-19.564 48.349-55.193 38.439-30.453-8.469-29.183-15.244 6.175-33.018 35.499-17.846 42.982-18.674 49.018-5.42zM509.555 720.868c1.641 2.651 4.38 11.434 6.087 19.514s4.327 18.595 5.806 23.369c3.729 11.967-9.873 17.272-17.833 6.949-4.056-5.267-6.27-5.924-7.637-2.278-6.394 17.045-17.888 4.629-15.214-16.434 4.144-32.591 18.372-47.97 28.787-31.128z"></path>
</svg>
