<!-- Generated by IcoMoon.io -->
<svg version="1.1" xmlns="http://www.w3.org/2000/svg" width="1024" height="1024" viewBox="0 0 1024 1024">
<title></title>
<g id="icomoon-ignore">
</g>
<path fill="#000" d="M614.889 607.843c0 27.806 0 55.973 0 83.779 0 10.278-2.966 22.189 12.695 25.939 1.883 0 3.562 10.466 2.416 15.315-7.862 32.263-16.257 64.164-24.652 96.286-1.726 7.752-4.488 14.625-8.207 20.855l0.204-0.345c-5.979 9.541-18.673 8.395-20.51-1.883-6.183-45.491-32.106-89.57-11.957-137.477 0.942-3.060 1.475-6.575 1.475-10.184 0-1.193-0.047-2.416-0.204-3.609v0.141q0-88.424 0-176.848c0-11.016-3.358-17.136-15.865-16.79-23.318 0-46.432 0-69.751 0-13.040 0-15.865 7.061-14.923 17.544 3.907 42.541-9.133 86.4 8.395 128.188 0.69 2.024 1.13 4.347 1.13 6.81s-0.392 4.786-1.193 6.967l0.047-0.141q-18.673 65.31-37.3 130.62c0 2.228-3.75 3.75-5.775 5.429-1.538-2.228-2.919-4.739-4.001-7.407l-0.094-0.251q-14.374-59.331-27.806-118.851c-0.895-2.762-1.381-5.979-1.381-9.337s0.486-6.528 1.428-9.541l-0.047 0.251c17.136-40.313 5.775-82.446 8.395-123.496 1.475-24.793 3.358-27.414-28.905-26.676-13.982 0-27.963 0-41.788 0-9.886 0-26.88-6.324-27.618 7.454s-16.79 22.032-6.716 38.43c18.673 30.976 9.886 62.894-0.942 94.952-8.395 25.547-14.374 52.066-21.639 78.005-1.82 4.347-3.954 8.097-6.465 11.565l0.094-0.141c-2.464-3.405-4.598-7.265-6.23-11.408l-0.094-0.345c-9.337-34.679-20.148-69.406-26.472-104.681-3.264-11.157-5.131-23.962-5.131-37.253 0-19.568 4.096-38.194 11.455-55.079l-0.345 0.895c2.071-3.907-3.154-14.186-7.862-18.673-22.581-22.032-23.868-33.785-4.645-62.485 0-1.287 3.154-2.228 3.154-3.154 0-40.658 12.899-82.304-7.658-121.472-12.303-23.318-11.957-30.239 6.92-54.482 2.118-3.405 4.096-7.407 5.775-11.565l0.204-0.549c13.636-27.806 14.374-28.355 37.3-32.106s27.226 0 26.88 18.673c0 26.676 0 27.069 22.032 27.806 18.673 0 37.3 0 55.973 0 0.392 0.047 0.895 0.047 1.381 0.047 11.957 0 21.639-9.682 21.639-21.639 0-0.69-0.047-1.334-0.094-1.977v0.094c0-20.148 0-40.313 0-60.461 0-12.695 2.228-17.34 18.673-15.315 37.3 4.488 37.3 2.416 38.979 39.716 0 18.673 1.287 37.3 2.071 55.973l58.939 4.488c4.143 0.549 8.992 0.848 13.888 0.848s9.729-0.298 14.468-0.895l-0.549 0.047c5.131-1.82 9.086-5.822 10.765-10.875l0.047-0.094c0.596-3.452 0.895-7.517 0.895-11.565s-0.345-8.097-0.942-12.004l0.047 0.439c-2.416-37.3 8.74-29.093 31.164-30.239 15.111 0 17.34 8.395 17.544 20.51s-2.966 34.13 4.096 39.167c9.133 4.001 19.756 6.324 30.929 6.324 4.645 0 9.196-0.392 13.589-1.193l-0.486 0.047c30.772-1.13 61.56-3.75 92.175-5.775 1.475 0 2.621-1.883 4.096-2.228 2.872-0.895 6.183-1.381 9.588-1.381 12.695 0 23.805 6.967 29.689 17.246l0.094 0.141c1.977 5.429 3.107 11.659 3.107 18.234 0 10.765-3.107 20.792-8.489 29.203l0.141-0.204c-6.669 6.575-10.812 15.708-10.812 25.829 0 0.345 0 0.737 0 1.083v-0.047c0 20.148 0 40.313 0 60.461 0 14.374-1.883 27.069 13.432 40.109 5.335 6.418 8.552 14.719 8.552 23.758 0 10.121-4.048 19.317-10.624 26.033v0c-7.014 4.943-11.565 13.040-11.565 22.189 0 1.585 0.141 3.154 0.392 4.645v-0.141c-0.141 3.562-0.204 7.705-0.204 11.863 0 23.224 2.464 45.836 7.108 67.68l-0.392-2.118c5.241 17.136-8.207 40.109-14.578 60.069-5.037 15.865-12.491 30.976-18.673 46.637-3.154 9.886-4.645 20.352-6.92 30.584-4.849-10.278-13.777-20.51-13.777-30.772 0-29.093-21.090-50.387-24.793-77.408-1.475-11.753-1.883-23.711-2.621-35.464 0-1.287 2.228-2.621 2.228-3.907l2.228-86.745c-28.905-1.475-58.045-3.562-86.949-3.562-3.75 0-10.812 9.886-11.016 15.315 1.13 28.748 1.679 58.39 1.679 87.687zM614.889 381.199v0c0 13.982 0 27.806 0 41.6 0 0.298 0 0.69 0 1.036 0 11.863 9.588 21.435 21.435 21.435 0.737 0 1.428-0.047 2.181-0.094h-0.094c21.639 0 43.074 0 64.761 0 3.75 0 10.466-3.562 10.812-5.979 4.849-27.712 8.097-60.367 9.133-93.571v-1.036c-2.024-15.456-15.064-27.273-30.929-27.273-0.392 0-0.848 0-1.24 0.047h0.047c-5.586-0.486-12.098-0.784-18.673-0.784s-13.087 0.298-19.521 0.848l0.848-0.047c-34.538 4.645-39.167 10.624-39.371 45.491 0.392 6.183 0.392 12.303 0.392 18.281zM408.006 386.377c0-6.183 0-12.303 0-18.673 0-36.013-12.491-48.865-48.112-50.936-9.133 0-18.673 0-27.618 0-0.643-0.047-1.381-0.094-2.118-0.094-12.695 0-22.973 10.278-22.973 22.973 0 1.24 0.094 2.416 0.298 3.609v-0.141c0.848 8.897 1.334 19.223 1.334 29.642 0 17.041-1.287 33.832-3.797 50.199l0.251-1.82c-4.645 18.673 0 21.827 13.982 23.868 4.143 0.251 8.944 0.439 13.777 0.439s9.682-0.141 14.468-0.439l-0.643 0.047c61.010 0.942 62.485 5.241 61.010-58.594zM566.385 380.806c0-12.303 0-24.793 0-37.3 0-5.775-1.679-13.777-5.429-16.257-27.069-17.136-54.687-11.957-82.838-1.475-21.827 8.003-8.395 25.735-11.957 38.822-0.345 2.071-0.549 4.441-0.549 6.92s0.204 4.849 0.596 7.155l-0.047-0.251c1.13 21.090 2.416 42.337 3.75 63.427l68.464 3.154h4.645c0.486 0.047 1.083 0.047 1.726 0.047 11.957 0 21.639-9.682 21.639-21.639 0-0.392 0-0.848-0.047-1.24v0.047c0.204-13.636-0.204-27.618-0.204-41.395z"></path>
</svg>
