<!-- Generated by IcoMoon.io -->
<svg version="1.1" xmlns="http://www.w3.org/2000/svg" width="1024" height="1024" viewBox="0 0 1024 1024">
<title></title>
<g id="icomoon-ignore">
</g>
<path fill="#000" d="M519.327 627.426c0 49.267 0 98.745 0 148.012 0 21.668 5.155 43.053 7.17 64.721 1.239 13.553 0 28.051-18.088 28.219s-19.978-14.341-18.245-27.936c16.681-123.992 3.748-248.447 7.002-372.607-0.367-28.586-3.38-56.227-8.734-83.050l0.493 2.887c-0.987-9.847-9.228-17.511-19.243-17.511-3.706 0-7.212 1.071-10.13 2.887l0.084-0.042c-15.61 8.409-29.5 48.196-19.652 63.807 17.133 27.148 10.582 48.984-7.496 72.048-7.79 12.23-15.653 26.655-22.571 41.604l-0.987 2.352c-4 5.763-6.425 12.891-6.425 20.597 0 8.367 2.845 16.062 7.58 22.203l-0.084-0.084c2.467 5.029 3.916 10.918 3.916 17.133s-1.438 12.157-4.042 17.385l0.084-0.252c-15.61 27.431-35.546 52.732-54.296 77.979-3.38 3.254-7.296 5.973-11.58 7.989l-0.283 0.126c0-4.987-2.184-10.582 0-14.666 9.511-20.765 20.104-40.869 30.108-61.466 8.903-18.245 14.214-35.263-8.734-49.141-3.254-4.157-5.228-9.48-5.228-15.243 0-2.887 0.493-5.606 1.396-8.199l-0.042 0.168c9.102-21.427 19.568-39.84 31.798-56.847l-0.577 0.861c14.666-19.652 17.469-38.066 0-54.915s-12.314-31.967-3.423-48.816c15.61-29.163 31.19-58.495 46.8-87.050 8.903-15.61 6.099-21.385-11.086-21.385h-2.971c-17.794 0-45.393 6.226-51.168-2.184-9.186-13.553-4.535-36.953-4.987-56.311 0-23.4 0-46.8 0-70.033 0-5.48 7.002-15.61 10.582-15.61 82.683 1.113 165.313 4.042 247.995 4.535 20.597 0 29.163 2.803 27.767 25.909-2.184 34.938 0 70.033 0 105.127 0 9.973-1.239 18.865-15.61 10.918-4.692-1.931-10.172-3.086-15.905-3.086-1.113 0-2.184 0.042-3.254 0.126h0.126c-44.449-0.788-44.449 0-24.639 39.305 13.721 27.316 27.767 54.422 41.026 81.895 1.931 3.748 3.086 8.157 3.086 12.849 0 10.467-5.721 19.61-14.214 24.513l-0.126 0.084c-21.217 15.61-16.524 31.19-2.803 48.491 9.847 12.765 17.301 27.599 26.035 41.489s21.385 29.951 0 48.984c-7.664 6.551-6.099 28.544-2.509 41.814 8.566 25.626 17.217 46.674 27.064 67.061l-1.48-3.423c1.323 3.874 2.31 8.44 2.803 13.144l0.042 0.283c-4.451-2.677-8.283-5.721-11.695-9.186v0c-18.414-25.584-37.278-50.831-53.508-77.979-2.803-4.903-4.451-10.75-4.451-16.975 0-5.155 1.113-10.046 3.128-14.414l-0.084 0.21c15.61-19.652 10.582-33.982-2.635-51.619-7.874-12.765-16.104-28.093-23.442-43.913l-1.197-2.845c-18.582-32.586-18.865-32.418 6.099-65.046 1.564-1.858 5.763-4.199 5.606-4.535-12.65-22.287-25.752-44.281-38.685-66.453-9.847 10.467-23.4 16.849-23.852 35.263-1.396 60.679-4.819 121.2-7.327 181.711-0.945 16.849-0.325 32.46-0.325 48.028z"></path>
</svg>
