<!-- Generated by IcoMoon.io -->
<svg version="1.1" xmlns="http://www.w3.org/2000/svg" width="1024" height="1024" viewBox="0 0 1024 1024">
<title></title>
<g id="icomoon-ignore">
</g>
<path fill="#000" d="M563.865 691.348c4.618 20.603 11.516 46.153 15.759 72.243 0 0.509 0 1.095 0 1.694 0 10.151-1.784 19.927-5.023 28.969l0.18-0.599c0 2.234-3.794 4.109-5.848 5.983l-72.063 70.684c-26.6-25.401-53.875-50.261-79.411-76.532-5.668-5.983-10.961-22.297-8.037-25.401 24.036-24.531 12.52-54.19 14.259-81.465s0-51.446 0-77.041c0-14.755 1.050-28.46-20.603-29.524-4.798 0-10.466-13.016-13.21-20.932-2.054-13.435-5.488-25.491-10.151-36.916l0.36 1.050c-5.983-8.592-21.982-19.238-28.46-17.138-26.090 10.466-25.401-3.794-32.073-22.297-13.016-37.246-4.289-72.378 1.559-108.245 3.929-24.86 12.205-28.834 31.578-10.826 7.033 7.767 17.138 12.655 28.415 12.655 9.731 0 18.593-3.613 25.311-9.596l-0.045 0.045c11.381-8.127 18.728-21.337 18.728-36.241 0-6.028-1.185-11.786-3.374-17.048l0.090 0.27c-5.758-13.3-15.309-24.036-27.32-31.069l-0.315-0.18c-17.138-9.596-11.336-10.826 0-21.292 22.297-20.242 39.976-45.778 61.597-67.070 30.528-30.528 46.648-30.199 75.856-3.794s51.446 51.446 76.861 77.717c1.185 1.185-2.234 10.286-4.978 11.155-19.058 5.668-34.322 17.138-34.322 36.871 0 0.734-0.045 1.559-0.045 2.429 0 17.724 5.758 34.083 15.444 47.382l-0.135-0.225c7.033 6.808 16.629 10.961 27.23 10.961 8.817 0 16.899-2.879 23.482-7.767l-0.090 0.090c31.758-17.138 34.322-17.138 40.98 17.138 2.969 12.926 4.708 27.829 4.708 43.094 0 25.086-4.618 49.077-13.075 71.193l0.45-1.365c-3.104 7.902-5.983 22.117-22.657 8.231s-36.182 1.874-39.795 17.138c-4.798 27.14-14.214 51.356-27.455 72.977l0.509-0.915c-14.755 22.657-10.151 57.668-14.935 93.49zM544.493 476.223c46.828 0 76.352-15.264 76.532-35.326 0-13.705-25.73-46.468-36.556-46.648-18.368 0-52.496 39.3-50.441 61.088 2.189 8.037 5.803 15.039 10.556 21.067l-0.090-0.135zM428.016 476.223l34.322-12.881c-4.663-13.016-9.461-23.811-14.935-34.218l0.689 1.469c-5.668-9.087-15.954-15.444-20.738-24.725-7.902-15.264-15.444-9.596-27.095-5.158-23.856 8.727-23.856 27.784-19.238 45.283 5.158 21.607 23.346 29.704 47.022 29.704zM439.172 675.214h0.87c0 26.915 0 53.875 0 80.97 0 4.289 6.537 8.231 9.957 12.52 3.523-3.329 6.717-6.898 9.641-10.781l0.135-0.225c3.194-4.199 5.398-9.326 6.163-14.935v-0.18q-3.239-73.937-8.231-147.365c-1.514-6.492-3.884-12.205-6.988-17.409l0.135 0.27c-3.929 6.853-11.155 13.57-11.651 20.603-0.87 25.041 0 50.441 0 76.532zM490.618 691.019v0c0 29.839 0 59.723 0 89.561 1.23 8.127 3.284 15.489 6.208 22.387l-0.225-0.599c4.289-6.357 12.34-12.7 12.52-19.238 0.87-63.966 0-127.798 0-191.823 0-5.158-6.357-10.151-9.776-15.084-2.924 5.488-8.231 11.155-8.412 17.138-0.87 31.758-0.36 64.656-0.36 97.103zM552.215 677.643c0-29.839 0-59.858 0-89.742 0-4.109-5.668-7.902-8.727-11.651-3.104 3.929-8.592 7.902-8.727 11.831 0 57.114 0 114.093 0 171.581 0 3.929 5.668 7.722 8.727 11.651 3.104-3.929 8.592-7.902 8.727-12.011 0.36-27.784 0-55.060 0-82.154zM539.14 540.37c-12.926-19.238-26.27-36.047-40.89-51.73l0.225 0.225c-5.848-5.488-42.359 30.019-40.665 40.845 0 5.668 6.853 14.395 11.336 14.935 16.269 1.874 35.132 2.924 54.235 2.924 0.554 0 1.050 0 1.604 0h-0.090c3.239 0.689 6.537-2.744 14.259-7.033z"></path>
</svg>
