<!-- Generated by IcoMoon.io -->
<svg version="1.1" xmlns="http://www.w3.org/2000/svg" width="512" height="512" viewBox="0 0 512 512">
<title>Jaw's of Itzl</title>
<g id="icomoon-ignore">
</g>
<path fill="#000" d="M483.212 9.7c-6.151 68.478-62.012 130.865-135.403 151.224-17.781 4.933-31.921 6.679-35.547 4.39-62.975-39.737-134.989-39.925-194.473-0.505-21.058 13.954-47.9 44.154-56.816 63.922l-1.908 4.226-39.475-1.98 4.315 4.806c2.373 2.642 8.768 9.424 14.211 15.070l9.897 10.266-2.212 10.208c-1.216 5.613-2.62 15.537-3.119 22.051l-0.91 11.845-37.725 18.683 39.907 13.305 3.398 13.118c1.868 7.216 4.76 16.295 6.422 20.175 4.192 9.78 4.44 9.072-9.398 26.762-6.834 8.735-11.895 16.059-11.248 16.276 0.647 0.216 10.021-0.923 20.833-2.532l19.656-2.925 4.281 5.457c2.355 3.002 9.655 10.844 16.225 17.43l11.946 11.974-4.135 18.737c-2.274 10.305-4.146 19.55-4.162 20.541-0.014 0.994 8.153-3.485 18.148-9.952l18.176-11.761 5.992 3.056c3.296 1.682 12.712 5.313 20.928 8.069l14.938 5.011 4.082 16.509c2.244 9.080 4.423 17.476 4.842 18.659 0.464 1.303 4.51-4.289 10.314-14.26 8.349-14.339 10.041-16.411 13.45-16.454 6.274-0.079 32.74-2.661 37.634-3.671 4.229-0.873 5.238-0.079 17.548 13.802 15.197 17.137 15.252 17.163 15.264 7.102 0.005-4.223 0.423-13.007 0.931-19.52l0.923-11.843 11.133-5.463c119.538-58.666 193.255-156.153 213.167-281.899 3.228-20.382 3.692-80.055 0.767-98.413-5.020-31.49-14.394-68.967-19.861-79.402-1.749-3.335-1.98-2.71-2.934 7.912zM479.416 134.995c-6.016 79.596-31.328 147.144-76.832 205.033-11.536 14.673-27.543 31.67-26.171 27.786 19.25-54.453 10.119-117.249-23.738-163.238-3.593-4.881-6.322-9.060-6.065-9.286s6.485-1.81 13.838-3.521c44.753-10.407 90.947-40.95 112.387-74.307 7.826-12.175 8.659-9.957 6.58 17.532zM456.755 155.425c-22.618 19.117-74.029 44.948-89.457 44.948-2.846 0-2.614 0.635 5.252 14.435 3.957 6.94 8.675 16.238 10.487 20.661 5.075 12.396 3.918 12.084 22.24 5.992l16.381-5.446 4.051-11.992c2.229-6.595 4.445-14.859 4.926-18.365l0.875-6.375-16.37 5.646c-20.171 6.957-19.209 6.317-17.38 11.563 1.759 5.047 1.8 5.055 10.050 2.145 9.817-3.464 10.2 1.984 0.425 6.069-12.193 5.095-13.825 4.56-19.122-6.283-2.62-5.361-4.592-9.846-4.387-9.966 0.205-0.122 7.94-3.058 17.19-6.526 9.25-3.466 22.447-9.185 29.327-12.706 15.822-8.097 15.135-8.304 14.075 4.201-3.296 38.906-11.851 52.901-36.024 58.935-18.195 4.541-18.952 5.445-15.235 18.207 1.608 5.522 2.53 16.038 2.94 33.546 0.7 29.938 0.055 28.329 7.815 19.529 8.861-10.045 33.579-52.181 31.709-54.053-3.553-3.551-16.56 4.481-20.8 12.848-5.405 10.664-6.495 10.212-6.495-2.693v-11.469l15.72-5.163c18.639-6.124 19.652-7.219 26.441-28.655 6.286-19.842 17.149-83.543 14.656-85.948-0.284-0.274-4.466 2.839-9.29 6.918zM235.601 164.524c57.801 8.712 103.845 49.476 118.127 104.581 14.143 54.567-10.533 131.613-30.324 94.683-10.197-19.029-33.567-22.877-45.651-7.516-4.082 5.19-3.866 6.425 1.126 6.425 27.199 0 13.553 63.148-16.618 76.911-52.294 23.854-133.816-4.176-165.753-56.993-9.925-16.415-8.887-21.784 6.927-35.793 18.623-16.495 23.706-37.899 10.977-46.239-3.449-2.26-3.508-2.221-3.508 2.373 0 13.036-17.721 13.808-28.302 1.232-13.564-16.119-4.91-51.806 20.68-85.291 31.867-41.698 81.394-62.049 132.317-54.373zM270.294 195.891c-41.786 12.711-32.642 76.075 10.977 76.075 22.024 0 36.699-13.099 38.379-34.258 2.296-28.928-22.543-49.972-49.356-41.816zM297.789 210.396c21.231 15.12 10.173 49.777-15.923 49.902-27.148 0.13-36.907-39.401-12.764-51.695 7.147-3.639 22.395-2.685 28.686 1.793zM275.214 219.373c-8.759 3.535-10.784 17.76-3.56 24.985 9.335 9.335 24.973 2.484 24.973-10.938 0-10.898-11.13-18.196-21.413-14.047zM154.958 227.357l-51.733 1.668-3.547 4.122c-4.989 5.8-8.38 5.624 60.211 3.131 34.363-1.247 65.365-2.27 68.897-2.27 6.16 0 6.422-0.178 6.422-4.387v-4.387l-14.26 0.227c-7.841 0.126-37.537 0.979-65.99 1.896zM181.464 277.534c-51.983 27.54-54.472 29.047-54.472 32.989 0 2.652 0.677 3.959 1.898 3.656 3.995-0.995 110.704-58.541 110.704-59.701 0-2.121-1.737-5.849-2.715-5.826-0.518 0.012-25.454 13.009-55.415 28.881zM193.732 342.431c-51.173 67.667-55.185 73.392-52.982 75.596 3.589 3.589 2.375 5.025 61.563-72.839 57.087-75.103 57.901-76.383 48.334-76.024-0.852 0.033-26.463 33.003-56.915 73.269zM300.435 275.392c-4.214 3.083 17.452 70.918 26.636 83.392 3.475 4.721 6.557 8.342 6.849 8.050 1.022-1.019-27.819-92.378-29.319-92.877-0.831-0.277-2.707 0.368-4.166 1.435zM253.818 357.217c-19.63 88.78-18.408 81.2-12.948 80.399l4.201-0.616 17.011-77.001c19.355-87.608 18.236-80.658 12.976-80.651l-4.021 0.005-17.218 77.866z"></path>
</svg>
