<!-- Generated by IcoMoon.io -->
<svg version="1.1" xmlns="http://www.w3.org/2000/svg" width="1024" height="1024" viewBox="0 0 1024 1024">
<title></title>
<g id="icomoon-ignore">
</g>
<path fill="#000" d="M359.074 206.273c0 3.955-0.536 4.908-2.781 4.908-1.869 0-2.781 0.951-2.781 2.781 0 1.55-0.912 2.781-2.086 2.781s-2.086 0.951-2.086 2.086c0 1.174-1.231 2.086-2.781 2.086-1.869 0-2.781 0.951-2.781 2.781 0 1.55-0.951 2.781-2.086 2.781s-2.086 0.951-2.086 2.086c0 1.174-1.231 2.086-2.781 2.086-1.869 0-2.781 0.951-2.781 2.781 0 1.55-0.951 2.781-2.086 2.781s-2.086 0.951-2.086 2.086c0 1.455-1.493 2.086-4.908 2.086-3.955 0-4.908 0.536-4.908 2.781 0 1.869-0.912 2.781-2.781 2.781-1.55 0-2.781 0.951-2.781 2.086s-0.951 2.086-2.086 2.086c-1.174 0-2.086 1.231-2.086 2.781 0 1.869-0.912 2.781-2.781 2.781-1.55 0-2.781 0.951-2.781 2.086s-0.951 2.086-2.086 2.086c-1.174 0-2.086 1.231-2.086 2.781 0 1.869-0.912 2.781-2.781 2.781-1.55 0-2.781 0.912-2.781 2.086s-1.231 2.086-2.781 2.086c-1.869 0-2.781 0.912-2.781 2.781 0 2.274-0.912 2.781-4.908 2.781-3.419 0-4.908 0.639-4.908 2.086s-1.493 2.086-4.908 2.086c-3.955 0-4.908 0.536-4.908 2.781 0 1.55-0.912 2.781-2.086 2.781s-2.086 0.951-2.086 2.086c0 1.174-1.231 2.086-2.781 2.086-2.347 0-2.781 0.912-2.781 5.607v5.607h-5.665c-4.171 0-5.413 0.479-4.622 1.738 0.724 1.202 0.291 1.145-1.334-0.16-2.153-1.738-2.377-1.419-2.377 3.129 0 4.143-0.507 5.063-2.781 5.063-1.55 0-2.781 0.912-2.781 2.086 0 1.455-1.493 2.086-4.908 2.086-3.955 0-4.908 0.536-4.908 2.781 0 1.55-0.951 2.781-2.086 2.781s-2.086 0.951-2.086 2.086c0 1.455-1.493 2.086-4.908 2.086-3.955 0-4.908 0.536-4.908 2.781 0 1.869-0.912 2.781-2.781 2.781-1.55 0-2.781 0.912-2.781 2.086s-0.951 2.086-2.086 2.086c-1.174 0-2.086 1.231-2.086 2.781 0 1.869-0.912 2.781-2.781 2.781-1.55 0-2.781 0.912-2.781 2.086s-1.231 2.086-2.781 2.086c-1.869 0-2.781 0.951-2.781 2.781 0 1.55-0.951 2.781-2.086 2.781s-2.086 0.951-2.086 2.086c0 1.455-1.493 2.086-4.908 2.086-3.955 0-4.908 0.536-4.908 2.781 0 1.869-0.912 2.781-2.781 2.781-1.55 0-2.781 0.951-2.781 2.086 0 1.455-1.493 2.086-4.908 2.086-3.955 0-4.908 0.536-4.908 2.781 0 1.55-0.912 2.781-2.086 2.781s-2.086 0.951-2.086 2.086c0 1.145 0.951 2.086 2.086 2.086s2.086 1.231 2.086 2.781c0 1.869 0.912 2.781 2.781 2.781s2.781 0.912 2.781 2.781c0 1.55 0.951 2.781 2.086 2.781s2.086 0.951 2.086 2.086c0 1.174 1.231 2.086 2.781 2.086 1.869 0 2.781 0.912 2.781 2.781 0 2.433 0.912 2.781 6.999 2.781 5.289 0 6.999 0.507 6.999 2.086 0 1.174 1.231 2.086 2.781 2.086 1.869 0 2.781 0.912 2.781 2.781s0.912 2.781 2.781 2.781c2.274 0 2.781 0.912 2.781 4.908 0 2.696 0.479 4.81 1.043 4.714 4.365-0.695 8.737 0.446 8.737 2.274 0 1.174 0.951 2.086 2.086 2.086 1.455 0 2.086 1.493 2.086 4.908 0 3.955 0.536 4.908 2.781 4.908 1.869 0 2.781 0.912 2.781 2.781 0 2.274 0.912 2.781 4.908 2.781s4.908-0.536 4.908-2.781c0-2.274 0.912-2.781 4.908-2.781 3.419 0 4.908-0.639 4.908-2.086 0-1.71 2.245-2.086 11.894-2.086h11.894v4.908c0 3.419-0.639 4.908-2.086 4.908-1.578 0-2.086 1.71-2.086 6.999 0 6.041-0.376 6.999-2.781 6.999-1.869 0-2.781 0.951-2.781 2.781s0.951 2.781 2.781 2.781c2.274 0 2.781 0.912 2.781 4.908 0 3.419 0.639 4.908 2.086 4.908 1.145 0 2.086 0.951 2.086 2.086s1.231 2.086 2.781 2.086c1.869 0 2.781 0.912 2.781 2.781 0 1.55 0.951 2.781 2.086 2.781 1.455 0 2.086 1.493 2.086 4.908 0 3.955 0.536 4.908 2.781 4.908 1.869 0 2.781 0.951 2.781 2.781 0 1.55 0.951 2.781 2.086 2.781s2.086 0.951 2.086 2.086c0 1.174 1.231 2.086 2.781 2.086 1.869 0 2.781 0.912 2.781 2.781s0.912 2.781 2.781 2.781c1.55 0 2.781 0.951 2.781 2.086s0.951 2.086 2.086 2.086c1.455 0 2.086 1.493 2.086 4.908 0 3.955 0.536 4.908 2.781 4.908 1.869 0 2.781 0.912 2.781 2.781 0 1.55 0.951 2.781 2.086 2.781s2.086 0.951 2.086 2.086c0 1.174 1.231 2.086 2.781 2.086 1.869 0 2.781 0.912 2.781 2.781 0 1.55 0.912 2.781 2.086 2.781s2.086 0.951 2.086 2.086c0 1.455 1.493 2.086 4.908 2.086 4.65 0 4.908 0.216 4.908 4.908 0 3.955 0.536 4.908 2.781 4.908 1.869 0 2.781 0.912 2.781 2.781 0 1.55 0.912 2.781 2.086 2.781s2.086-1.231 2.086-2.781c0-2.464 0.912-2.781 7.694-2.781s7.694 0.348 7.694 2.781c0 1.55 0.912 2.781 2.086 2.781s2.086 0.951 2.086 2.086c0 1.174 1.231 2.086 2.781 2.086 2.347 0 2.781 0.951 2.781 5.607s-0.479 5.607-2.781 5.607c-2.536 0-2.781 0.912-2.781 9.78v9.78h4.908c3.419 0 4.908 0.639 4.908 2.086 0 1.174 1.231 2.086 2.781 2.086 1.869 0 2.781 0.951 2.781 2.781s0.951 2.781 2.781 2.781c1.55 0 2.781 0.912 2.781 2.086s0.951 2.086 2.086 2.086c1.174 0 2.086 1.231 2.086 2.781 0 1.869 0.951 2.781 2.781 2.781 1.55 0 2.781 0.951 2.781 2.086s0.951 2.086 2.086 2.086c1.174 0 2.086 1.231 2.086 2.781 0 1.869 0.951 2.781 2.781 2.781 2.274 0 2.781 0.951 2.781 4.908 0 3.419 0.639 4.908 2.086 4.908 1.145 0 2.086 0.951 2.086 2.086s1.231 2.086 2.781 2.086c1.869 0 2.781 0.912 2.781 2.781 0 1.55 0.951 2.781 2.086 2.781s2.086 0.951 2.086 2.086c0 1.174 1.231 2.086 2.781 2.086 1.869 0 2.781 0.912 2.781 2.781 0 1.55 0.951 2.781 2.086 2.781 1.455 0 2.086 1.493 2.086 4.908 0 3.955 0.536 4.908 2.781 4.908 1.869 0 2.781 0.912 2.781 2.781 0 1.55 0.912 2.781 2.086 2.781s2.086 0.951 2.086 2.086c0 1.174 1.231 2.086 2.781 2.086 1.869 0 2.781 0.912 2.781 2.781 0 1.55 0.912 2.781 2.086 2.781 1.455 0 2.086 1.493 2.086 4.908 0 4.65 0.216 4.908 4.908 4.908 3.419 0 4.908 0.639 4.908 2.086s1.493 2.086 4.908 2.086c3.419 0 4.908-0.639 4.908-2.086 0-1.681 2.086-2.086 10.503-2.086h10.503v9.78c0 8.866-0.252 9.78-2.781 9.78-2.433 0-2.781 0.912-2.781 6.999v6.999h4.908c3.955 0 4.908 0.536 4.908 2.781 0 1.869 0.951 2.781 2.781 2.781 1.55 0 2.781 0.951 2.781 2.086s0.951 2.086 2.086 2.086c1.174 0 2.086 1.231 2.086 2.781 0 1.869 0.951 2.781 2.781 2.781 2.274 0 2.781 0.951 2.781 4.908 0 3.419 0.639 4.908 2.086 4.908 1.174 0 2.086 1.231 2.086 2.781 0 2.274 0.951 2.781 4.908 2.781s4.908-0.536 4.908-2.781c0-1.869 0.912-2.781 2.781-2.781s2.781-0.912 2.781-2.781c0-1.55 0.951-2.781 2.086-2.781s2.086-0.951 2.086-2.086c0-1.174 1.231-2.086 2.781-2.086 1.869 0 2.781-0.912 2.781-2.781 0-1.55 0.951-2.781 2.086-2.781s2.086-0.951 2.086-2.086c0-1.174 1.231-2.086 2.781-2.086 1.869 0 2.781-0.912 2.781-2.781 0-1.55 0.912-2.781 2.086-2.781s2.086-0.951 2.086-2.086c0-1.174 1.231-2.086 2.781-2.086 1.869 0 2.781-0.951 2.781-2.781s0.912-2.781 2.781-2.781c1.55 0 2.781-0.912 2.781-2.086s0.951-2.086 2.086-2.086c1.174 0 2.086-1.231 2.086-2.781 0-1.869 0.912-2.781 2.781-2.781 1.55 0 2.781-0.912 2.781-2.086 0-1.455 1.493-2.086 4.908-2.086 3.955 0 4.908-0.536 4.908-2.781 0-1.55 0.912-2.781 2.086-2.781s2.086-0.951 2.086-2.086c0-1.174 1.231-2.086 2.781-2.086 1.869 0 2.781-0.912 2.781-2.781 0-1.55 0.912-2.781 2.086-2.781s2.086-0.951 2.086-2.086c0-1.174 1.231-2.086 2.781-2.086 2.274 0 2.781-0.912 2.781-4.908 0-4.65 0.216-4.908 4.908-4.908 3.955 0 4.908-0.536 4.908-2.781s0.912-2.781 4.908-2.781c3.955 0 4.908 0.536 4.908 2.781s0.912 2.781 4.908 2.781c3.955 0 4.908-0.536 4.908-2.781s0.951-2.781 4.908-2.781c3.419 0 4.908-0.639 4.908-2.086 0-1.61 1.766-2.086 7.694-2.086s7.694 0.479 7.694 2.086c0 1.145 0.951 2.086 2.086 2.086s2.086 1.231 2.086 2.781c0 1.869 0.912 2.781 2.781 2.781 1.55 0 2.781 0.912 2.781 2.086s0.951 2.086 2.086 2.086c1.174 0 2.086 1.231 2.086 2.781 0 1.869 0.912 2.781 2.781 2.781 1.55 0 2.781 0.912 2.781 2.086s0.951 2.086 2.086 2.086c1.174 0 2.086 1.231 2.086 2.781 0 1.869 0.912 2.781 2.781 2.781 1.55 0 2.781 0.912 2.781 2.086s0.951 2.086 2.086 2.086c1.174 0 2.086 1.231 2.086 2.781 0 1.869 0.912 2.781 2.781 2.781 1.55 0 2.781 0.912 2.781 2.086s0.951 2.086 2.086 2.086c1.174 0 2.086 1.231 2.086 2.781 0 1.869 0.912 2.781 2.781 2.781 1.55 0 2.781 0.912 2.781 2.086s0.951 2.086 2.086 2.086c1.174 0 2.086 1.231 2.086 2.781 0 1.869 0.912 2.781 2.781 2.781 2.274 0 2.781 0.912 2.781 4.908 0 3.419 0.639 4.908 2.086 4.908 1.145 0 2.086 0.951 2.086 2.086s1.231 2.086 2.781 2.086c1.869 0 2.781 0.912 2.781 2.781 0 2.274 0.912 2.781 4.908 2.781 4.65 0 4.908 0.216 4.908 4.908 0 3.955 0.536 4.908 2.781 4.908 1.869 0 2.781 0.951 2.781 2.781 0 2.433 0.912 2.781 6.999 2.781 5.289 0 6.999 0.507 6.999 2.086 0 1.174 1.231 2.086 2.781 2.086 1.869 0 2.781 0.912 2.781 2.781 0 1.55 0.912 2.781 2.086 2.781s2.086 0.951 2.086 2.086c0 1.174 1.231 2.086 2.781 2.086 1.869 0 2.781 0.912 2.781 2.781 0 1.55 0.951 2.781 2.086 2.781 1.578 0 2.086 1.71 2.086 6.999s-0.507 6.999-2.086 6.999c-1.455 0-2.086 1.493-2.086 4.908 0 3.955-0.536 4.908-2.781 4.908-2.464 0-2.781 0.912-2.781 7.694s0.348 7.694 2.781 7.694c1.55 0 2.781 0.912 2.781 2.086s0.951 2.086 2.086 2.086c1.455 0 2.086 1.493 2.086 4.908 0 4.65 0.216 4.908 4.908 4.908 3.955 0 4.908 0.536 4.908 2.781 0 1.869 0.912 2.781 2.781 2.781s2.781 0.912 2.781 2.781c0 2.565 0.951 2.781 11.894 2.781s11.894-0.216 11.894-2.781c0-2.347 0.912-2.781 5.607-2.781s5.607-0.479 5.607-2.781c0-2.274 0.912-2.781 4.908-2.781 3.419 0 4.908-0.639 4.908-2.086 0-1.145 0.951-2.086 2.086-2.086s2.086-1.231 2.086-2.781c0-1.869 0.912-2.781 2.781-2.781 1.55 0 2.781-0.912 2.781-2.086s0.951-2.086 2.086-2.086c1.174 0 2.086-1.231 2.086-2.781 0-1.869 0.912-2.781 2.781-2.781 2.565 0 2.781-0.951 2.781-11.894s-0.216-11.894-2.781-11.894c-1.869 0-2.781-0.912-2.781-2.781 0-1.55-0.951-2.781-2.086-2.781-1.738 0-2.086-2.565-2.086-14.688v-14.688h4.908c3.955 0 4.908-0.536 4.908-2.781s0.912-2.781 4.908-2.781h4.908v-16.777c0-16.43-0.058-16.777-3.129-16.936-2.377-0.131-2.536-0.319-0.695-0.795 2.621-0.695 3.448-4.622 0.986-4.622-0.827 0-1.145 0.564-0.695 1.261s-0.795 0.536-2.696-0.348c-1.926-0.883-3.476-2.405-3.511-3.356 0-1.071-1.926-1.738-4.908-1.738-3.955 0-4.908-0.536-4.908-2.781s-0.912-2.781-4.908-2.781c-3.955 0-4.908 0.536-4.908 2.781s-0.912 2.781-4.908 2.781c-3.419 0-4.908 0.639-4.908 2.086 0 1.522-1.55 2.086-5.607 2.086-4.65 0-5.607 0.479-5.607 2.781 0 2.274-0.951 2.781-4.908 2.781s-4.908-0.536-4.908-2.781c0-2.274-0.951-2.781-4.908-2.781-3.419 0-4.908-0.639-4.908-2.086 0-1.145-0.951-2.086-2.086-2.086s-2.086-1.231-2.086-2.781c0-1.869-0.912-2.781-2.781-2.781-1.55 0-2.781-0.951-2.781-2.086s-0.951-2.086-2.086-2.086c-1.174 0-2.086-1.231-2.086-2.781 0-1.869-0.912-2.781-2.781-2.781-1.55 0-2.781-0.951-2.781-2.086s-0.951-2.086-2.086-2.086c-1.174 0-2.086-1.231-2.086-2.781 0-2.274-0.912-2.781-4.908-2.781-3.419 0-4.908-0.639-4.908-2.086 0-1.174-1.231-2.086-2.781-2.086-1.869 0-2.781-0.912-2.781-2.781 0-1.55-0.912-2.781-2.086-2.781s-2.086-0.951-2.086-2.086c0-1.174-1.231-2.086-2.781-2.086-1.869 0-2.781-0.912-2.781-2.781 0-1.55-0.912-2.781-2.086-2.781s-2.086-1.231-2.086-2.781c0-1.869-0.951-2.781-2.781-2.781-1.55 0-2.781-0.951-2.781-2.086s-1.231-2.086-2.781-2.086c-1.869 0-2.781-0.912-2.781-2.781 0-1.55-0.912-2.781-2.086-2.781-1.455 0-2.086-1.493-2.086-4.908 0-3.955-0.536-4.908-2.781-4.908-1.55 0-2.781-0.912-2.781-2.086 0-1.455-1.493-2.086-4.908-2.086-3.955 0-4.908-0.536-4.908-2.781 0-1.55-0.951-2.781-2.086-2.781s-2.086-0.951-2.086-2.086c0-1.174-1.231-2.086-2.781-2.086-2.621 0-2.781-0.912-2.781-14.688 0-12.126-0.376-14.688-2.086-14.688-1.174 0-2.086-1.231-2.086-2.781 0-1.869-0.912-2.781-2.781-2.781-1.55 0-2.781-0.951-2.781-2.086s-0.951-2.086-2.086-2.086c-1.522 0-2.086-1.55-2.086-5.607 0-5.477-0.131-5.607-4.908-5.607-3.419 0-4.908-0.639-4.908-2.086 0-1.61-1.766-2.086-7.694-2.086-6.771 0-7.694-0.348-7.694-2.781 0-1.55-0.912-2.781-2.086-2.781s-2.086-0.951-2.086-2.086c0-1.174-1.231-2.086-2.781-2.086-1.869 0-2.781-0.912-2.781-2.781 0-1.55-0.912-2.781-2.086-2.781s-2.086-0.951-2.086-2.086c0-1.174-1.231-2.086-2.781-2.086-1.869 0-2.781-0.912-2.781-2.781s-0.912-2.781-2.781-2.781c-1.55 0-2.781-0.951-2.781-2.086s-0.951-2.086-2.086-2.086c-1.174 0-2.086-1.231-2.086-2.781 0-1.869-0.912-2.781-2.781-2.781-1.55 0-2.781-0.912-2.781-2.086s-0.951-2.086-2.086-2.086c-1.455 0-2.086-1.493-2.086-4.908 0-3.955-0.536-4.908-2.781-4.908-1.869 0-2.781-0.912-2.781-2.781 0-1.55-0.912-2.781-2.086-2.781s-2.086-0.951-2.086-2.086c0-1.174-1.231-2.086-2.781-2.086-1.869 0-2.781-0.912-2.781-2.781 0-1.55-0.912-2.781-2.086-2.781s-2.086-0.951-2.086-2.086c0-1.174-1.231-2.086-2.781-2.086-1.869 0-2.781-0.951-2.781-2.781 0-1.55-0.951-2.781-2.086-2.781-1.455 0-2.086-1.493-2.086-4.908 0-4.65-0.216-4.908-4.908-4.908-3.955 0-4.908-0.536-4.908-2.781 0-1.869-0.912-2.781-2.781-2.781-2.274 0-2.781-0.912-2.781-4.908 0-3.419-0.639-4.908-2.086-4.908-1.145 0-2.086-0.951-2.086-2.086s-1.231-2.086-2.781-2.086c-1.869 0-2.781-0.951-2.781-2.781 0-1.55-0.912-2.781-2.086-2.781s-2.086-0.951-2.086-2.086c0-1.174-1.231-2.086-2.781-2.086-1.869 0-2.781-0.951-2.781-2.781s-0.912-2.781-2.781-2.781c-1.55 0-2.781-0.951-2.781-2.086s-0.951-2.086-2.086-2.086c-1.174 0-2.086-1.231-2.086-2.781 0-1.869-0.912-2.781-2.781-2.781-1.55 0-2.781-0.951-2.781-2.086s-0.951-2.086-2.086-2.086c-1.455 0-2.086-1.493-2.086-4.908 0-3.955-0.536-4.908-2.781-4.908-1.869 0-2.781-0.912-2.781-2.781 0-2.274-0.912-2.781-4.908-2.781-3.419 0-4.908-0.639-4.908-2.086 0-1.174-0.951-2.086-2.086-2.086-1.455 0-2.086-1.493-2.086-4.908 0-3.955-0.536-4.908-2.781-4.908-1.869 0-2.781-0.912-2.781-2.781 0-1.55-0.912-2.781-2.086-2.781s-2.086-1.231-2.086-2.781c0-1.869-0.951-2.781-2.781-2.781-1.55 0-2.781-0.912-2.781-2.086s-0.951-2.086-2.086-2.086c-1.455 0-2.086-1.493-2.086-4.908 0-3.955-0.536-4.908-2.781-4.908-1.869 0-2.781-0.912-2.781-2.781 0-1.55-0.912-2.781-2.086-2.781s-2.086-0.951-2.086-2.086c0-1.174-1.231-2.086-2.781-2.086-2.274 0-2.781-0.912-2.781-4.908 0-3.419-0.639-4.908-2.086-4.908-1.174 0-2.086-1.231-2.086-2.781 0-1.869-0.912-2.781-2.781-2.781-1.55 0-2.781-0.912-2.781-2.086s-1.231-2.086-2.781-2.086c-1.869 0-2.781-0.951-2.781-2.781 0-1.55-0.912-2.781-2.086-2.781s-2.086-0.951-2.086-2.086c0-1.174-1.231-2.086-2.781-2.086-1.869 0-2.781-0.951-2.781-2.781 0-1.55-0.951-2.781-2.086-2.781-1.455 0-2.086-1.493-2.086-4.908 0-3.955-0.536-4.908-2.781-4.908-1.55 0-2.781-0.951-2.781-2.086s-0.951-2.086-2.086-2.086c-1.174 0-2.086-1.231-2.086-2.781 0-1.869-0.912-2.781-2.781-2.781-2.217 0-2.813-0.951-2.813-4.559 0-3.448-0.348-4.055-1.39-2.433-0.757 1.145-1.455 1.61-1.55 1.043s-0.348-1.681-0.536-2.433c-0.188-0.757-0.446-2.658-0.536-4.21-0.131-1.804-1.174-2.781-2.969-2.781-1.55 0-2.781-0.951-2.781-2.086s-0.951-2.086-2.086-2.086c-1.174 0-2.086-1.231-2.086-2.781 0-1.869-0.912-2.781-2.781-2.781-2.274 0-2.781-0.951-2.781-4.908 0-3.419-0.639-4.908-2.086-4.908-1.174 0-2.086-0.951-2.086-2.086s-1.231-2.086-2.781-2.086c-1.869 0-2.781-0.912-2.781-2.781 0-1.55-0.912-2.781-2.086-2.781-1.455 0-2.086-1.493-2.086-4.908 0-3.955-0.536-4.908-2.781-4.908-1.55 0-2.781-0.912-2.781-2.086s-0.951-2.086-2.086-2.086c-1.174 0-2.086-1.231-2.086-2.781 0-1.869-0.951-2.781-2.781-2.781-1.55 0-2.781-0.912-2.781-2.086s-0.951-2.086-2.086-2.086c-1.174 0-2.086-1.231-2.086-2.781 0-1.869-0.951-2.781-2.781-2.781-2.274 0-2.781-0.912-2.781-4.908s-0.536-4.908-2.781-4.908c-2.274 0-2.781-0.912-2.781-4.908v-4.908h-13.99v4.908z"></path>
</svg>
