<!-- Generated by IcoMoon.io -->
<svg version="1.1" xmlns="http://www.w3.org/2000/svg" width="1024" height="1024" viewBox="0 0 1024 1024">
<title></title>
<g id="icomoon-ignore">
</g>
<path fill="#000" d="M543.19 16.208c-7.439 37.19-20.626 48.995-54.729 48.995-23.795 0-42.66 5.737-81.404 24.751-70.777 34.738-86.981 57.554-30.831 43.413 130.099-32.758 252.808 179.098 159.895 276.063-52.962 55.274-126.126 55.402-152.417 0.273-5.264-11.041-12.372-20.076-15.793-20.076s-6.345-6.197-6.497-13.773-3.702-21.802-7.892-31.615c-8.084-18.942 2.551-64.696 23.951-103.052 7.323-13.122 7.629-16.799 1.396-16.681-15.718 0.298-66.064 43.020-77.793 66.011-6.57 12.877-16.277 27.009-21.573 31.404s-9.629 16.958-9.629 27.917c0 26.565-13.526 37.836-34.135 28.446-26.66-12.146-27.547-5.897-5.517 38.888 31.967 64.985 4.828 115.982-46.971 88.262-6.801-3.64-13.976-5.008-15.946-3.038-5.721 5.722 23.978 34.265 49.009 47.102 17.238 8.84 22.954 15.57 22.954 27.031 0 8.395 3.444 20.925 7.652 27.847 6.73 11.070 5.524 14.302-9.995 26.811-18.18 14.653-11.148 27.189 15.713 28.020 19.933 0.616 51.096 37.341 63.145 74.419 15.689 48.276 23.667 50.268 33.068 8.262 8.217-36.723 28.005-58.445 53.239-58.445 23.988 0 32.59 36.174 17.721 74.506-6.193 15.966 7.236 34.427 35.434 48.706 14.194 7.188 35.922 23.036 48.278 35.216 12.359 12.181 27.837 26.608 34.398 32.059 8.563 7.116 13.17 21.497 16.326 50.956 5.399 50.426-0.897 59.503-48.686 70.197-39.358 8.807-49.58 18.903-19.143 18.903 11.763 0 28.816 2.826 37.895 6.278 24.545 9.331 37.924 2.182 61.461-32.841 11.676-17.374 28.011-40.947 36.302-52.386 22.095-30.492 17.848-80.601-7.533-88.886-15.518-5.064-35.884-38.913-40.42-67.177-2.103-13.108-9.443-29.813-16.309-37.123-15.576-16.579-16.063-41.030-1.084-54.584 37.311-33.769 96.923-14.667 88.363 28.313-7.231 36.303 35.449-4.959 56.21-54.344 10.893-25.91 16.273-28.125 47.823-19.685 41.26 11.035 98.972-28.19 59.777-40.628-29.597-9.395-23.054-65.814 11.613-100.133 31.592-31.279 52.153-99.716 22.584-75.178-40.755 33.825-77.963-66.817-49.997-135.237 14.297-34.978 11.861-38.41-18.319-25.802-45.068 18.83-109.32-52.589-94.602-105.155 9.072-32.405 4.696-41.087-15.964-31.674-20.694 9.429-94.402-59.89-94.402-88.783 0-36.595-20.371-54.007-26.621-22.756z"></path>
</svg>
