<!-- Generated by IcoMoon.io -->
<svg version="1.1" xmlns="http://www.w3.org/2000/svg" width="512" height="512" viewBox="0 0 512 512">
<title>Blood of the Bull</title>
<g id="icomoon-ignore">
</g>
<path fill="#000" d="M255.425 34.39c-1.349 1.498-3.23 3.489-4.183 4.422-2.349 2.307-15.316 11.88-16.093 11.88-0.341 0-1.804 1.609-3.25 3.575-1.446 1.964-3.718 4.282-5.048 5.148s-3.977 2.751-5.879 4.19c-3.917 2.96-8.202 6.064-12.32 8.923-1.543 1.072-3.727 3.216-4.853 4.766-1.127 1.549-3.366 3.775-4.978 4.948-1.613 1.171-4.293 3.114-5.959 4.316-1.665 1.201-4.389 3.168-6.053 4.37-1.665 1.204-4.248 2.968-5.738 3.923-1.492 0.955-3.774 3.267-5.072 5.14-1.298 1.874-3.58 4.186-5.072 5.141s-4.074 2.719-5.738 3.921c-1.666 1.204-4.405 3.112-6.087 4.24-1.684 1.13-3.977 3.366-5.099 4.971-1.121 1.603-3.831 4.278-6.022 5.942l-3.982 3.028-47.886 0.237c-33.828 0.168-48.221-0.041-49.031-0.712-0.884-0.734-1.205-6.228-1.411-24.196-0.273-23.806-0.772-27.245-3.409-23.552-0.65 0.909-1.813 2.011-2.584 2.451-0.77 0.439-3.495 2.618-6.053 4.843-2.559 2.225-6.599 5.684-8.977 7.686-2.379 2.001-5 4.685-5.826 5.962-0.826 1.278-3.063 3.966-4.973 5.973l-3.472 3.65v58.613l2.28 1.792c2.245 1.766 3.017 1.793 51.267 1.793 42.938 0 49.225 0.167 50.911 1.346l1.922 1.346v124.71l-2.153 2.822c-1.243 1.63-3.281 3.070-4.825 3.409-1.472 0.324-4.818 2.334-7.438 4.467s-5.994 4.36-7.498 4.947c-8.645 3.377-13.434 6.073-14.346 8.072-1.064 2.336-1.513 36.259-0.494 37.279 1.236 1.234 8.219 0.313 11.796-1.556 2.073-1.082 5.411-2.464 7.419-3.070 2.007-0.606 5.619-2.547 8.025-4.314 2.407-1.765 6.040-3.712 8.073-4.324s5.228-1.932 7.096-2.935c1.87-1.002 3.965-1.822 4.653-1.822 0.69 0 2.836-0.744 4.77-1.653 5.544-2.608 14.365-6.109 19.083-7.577 2.378-0.738 6.22-2.854 8.54-4.7 2.32-1.848 5.823-3.759 7.786-4.248s4.346-1.338 5.298-1.887c1.62-0.933 3.899-1.824 18.205-7.111 3.117-1.151 7.323-3.451 9.347-5.111 2.025-1.659 5.401-3.48 7.501-4.045 2.1-0.567 5.191-1.738 6.869-2.606 8.887-4.592 15.718-6.486 17.010-4.718 1.302 1.781 1.453 113.721 0.155 115.019-0.649 0.648-10.492-2.972-15.712-5.779-4.49-2.416-7.379-0.44-4.299 2.937 0.986 1.080 2.257 3.421 2.827 5.201 0.569 1.779 1.494 3.531 2.054 3.891 1.694 1.089 8.040 9.913 10.114 14.062 1.070 2.14 2.892 5.060 4.048 6.486 8.852 10.931 11.5 14.623 11.5 16.026 0 0.889 1.849 3.882 4.109 6.654 5.687 6.978 7.675 9.893 9.146 13.416 2.219 5.313 10.058 4.577 10.11-0.95 0.009-0.78 1.375-3.363 3.038-5.741 6.545-9.356 8.947-13.096 10.275-16 0.76-1.664 2.563-4.584 4.005-6.486 2.33-3.077 6.2-8.507 7.945-11.156 0.346-0.524 1.216-2.314 1.933-3.978 0.719-1.666 2.68-4.779 4.36-6.92 1.681-2.14 4.466-6.736 6.188-10.214 3.817-7.704 3.219-9.253-2.502-6.479-2.029 0.983-4.857 2.053-6.284 2.377s-4.062 1.596-5.856 2.826c-2.76 1.895-3.587 2.091-5.376 1.276l-2.114-0.964-0.245-57.762c-0.136-31.938 0.091-58.245 0.51-58.844 1.236-1.77 6.759-1.233 11.105 1.082 2.233 1.19 4.581 2.163 5.215 2.163s2.695 0.808 4.581 1.796c1.884 0.988 5.353 2.389 7.708 3.113 2.356 0.723 5.944 2.676 7.974 4.339 2.031 1.663 6.033 3.752 8.895 4.643s6.086 2.178 7.161 2.86c1.077 0.682 3.32 1.514 4.985 1.851 1.666 0.336 4.195 1.312 5.622 2.168s4.281 2.006 6.341 2.554c2.062 0.548 5.737 2.432 8.169 4.187 4.066 2.936 7.199 4.299 19.219 8.369 2.379 0.805 6.276 2.401 8.662 3.548 2.385 1.147 4.921 2.085 5.635 2.085s2.729 0.767 4.478 1.704c1.749 0.938 4.986 2.16 7.193 2.715 2.459 0.619 5.683 2.438 8.332 4.699 2.529 2.159 5.626 3.933 7.468 4.278 1.731 0.325 4.212 1.139 5.512 1.813s3.358 1.223 4.57 1.223h2.205v-38.503l-2.167-2.337c-1.192-1.287-3.666-2.741-5.498-3.235-1.831-0.494-5.142-2.282-7.358-3.974s-5.483-3.682-7.26-4.421c-1.777-0.74-3.516-1.788-3.866-2.329-1.2-1.86-0.79-129.232 0.419-130.014 0.596-0.385 21.82-0.894 47.168-1.131 39.702-0.374 46.199-0.612 46.906-1.73 0.474-0.752 0.825-13.976 0.833-31.453l0.012-30.156-3.522-3.522c-1.938-1.938-4.043-4.529-4.68-5.761-3.127-6.048-21.142-19.846-21.229-16.261-0.014 0.604-0.003 11.257 0.026 23.674 0.046 20.143-0.106 22.706-1.405 23.784-1.931 1.602-89.579 1.239-92.529-0.383-5.026-2.765-9.961-6.59-15.152-11.743-3.154-3.132-8.731-7.833-12.393-10.45s-7.114-5.294-7.671-5.952c-3.264-3.856-7.99-8.022-13.853-12.21-9.44-6.742-10.567-7.65-16.072-12.974-5.702-5.515-6.401-6.080-13.863-11.259-7.219-5.008-7.701-5.41-14.651-12.211-3.228-3.158-7.49-6.766-9.474-8.017-4.946-3.122-6.677-4.554-11.858-9.81-5.282-5.357-4.786-5.243-7.869-1.816zM265.328 93.201c1.562 1.355 3.214 2.464 3.67 2.464 0.455 0 2.014 1.654 3.462 3.675 2.5 3.491 11.013 10.79 17.015 14.588 1.524 0.965 3.010 2.502 3.3 3.415 0.45 1.418 8.054 8.317 13.82 12.543 0.951 0.697 3.441 2.64 5.531 4.317s4.469 3.408 5.288 3.845c0.816 0.438 1.974 1.976 2.572 3.422 0.599 1.445 1.341 2.627 1.649 2.627s2.387 1.46 4.623 3.244c2.236 1.784 5.839 4.605 8.007 6.27 2.168 1.665 4.978 4.512 6.243 6.33s3.32 3.831 4.569 4.476c1.248 0.645 4.289 3.071 6.759 5.39l4.49 4.215-0.086 51.416c-0.082 49.042-0.353 56.010-2.151 55.528-2.886-0.771-11.75-4.072-14.683-5.468-1.933-0.921-4.089-1.673-4.791-1.673s-2.815-0.791-4.7-1.759c-1.884-0.966-5.437-2.348-7.896-3.067s-6.291-2.7-8.519-4.401c-2.226-1.7-6.368-3.793-9.202-4.653-2.834-0.858-5.618-1.93-6.184-2.382-0.567-0.451-2.978-1.413-5.356-2.135-2.378-0.723-6.27-2.115-8.649-3.095-2.378-0.978-5.297-1.983-6.485-2.232-1.19-0.249-3.702-1.876-5.583-3.618-7.716-7.141-17.060-7.364-25.351-0.607-2.031 1.655-6.062 3.936-8.96 5.072s-5.714 2.411-6.255 2.832c-0.543 0.422-2.928 1.243-5.3 1.821-2.373 0.58-4.782 1.443-5.354 1.918-0.573 0.476-3.422 1.585-6.331 2.466-2.908 0.88-6.919 2.93-8.915 4.557-1.996 1.625-5.964 3.764-8.817 4.753-11.273 3.906-15.712 5.576-19.084 7.18-1.934 0.921-4.002 1.673-4.595 1.673s-3.208 1.009-5.814 2.24c-7.806 3.694-7.266 7.527-7.266-51.339v-51.482l4.974-4.621c2.734-2.542 5.654-4.845 6.487-5.119 0.833-0.274 1.513-0.851 1.513-1.282 0-0.43 1.13-1.369 2.511-2.082 1.381-0.715 3.321-2.609 4.313-4.213 1.656-2.68 11.361-11.268 16.645-14.731 1.223-0.801 2.952-2.811 3.844-4.467 0.893-1.656 1.833-3.011 2.089-3.011 0.258 0 2.246-1.46 4.418-3.244 2.174-1.784 5.249-4.215 6.833-5.405 6.542-4.906 10.058-8.065 12.103-10.874 1.929-2.65 5.097-5.45 13.359-11.813 1.4-1.079 3.542-3.043 4.757-4.363 12.383-13.466 15.145-14.642 21.482-9.144z"></path>
</svg>
