<!-- Generated by IcoMoon.io -->
<svg version="1.1" xmlns="http://www.w3.org/2000/svg" width="1024" height="1024" viewBox="0 0 1024 1024">
<title></title>
<g id="icomoon-ignore">
</g>
<path fill="#000" d="M620.199 193.638c-2.375 0.453-9.056 3.162-14.856 6.020-39.938 19.695-140.073 21.74-175.065 3.576-25.17-13.068-62.96-8.571-105.339 12.532-39.986 19.918-58.84 42.173-52.652 62.151 4.195 13.536 3.542 23.416-2.457 37.334-1.717 3.981-5.349 12.366-8.075 18.617-2.723 6.253-6.013 15.099-7.311 19.652-6.849 23.984-36.131 54.303-70.468 72.969-18.928 10.289-23.259 18.609-28.668 55.136-4.295 29.014-7.731 39.593-17.066 52.635-10.611 14.819-5.027 35.446 10.801 39.878 19.358 5.415 91.010-40.1 96.313-61.187 2.977-11.825 6.404-13.353 32.621-14.517 26.139-1.161 25.951-0.684 5.543-14.411-31.018-20.873-31.674-22.432-19.875-46.872 20.605-42.681 24.183-44.677 56.827-31.774 27.152 10.73 26.995 11.288 6.604-23.639l-12.424-21.281 13.536-13.265c26.664-26.128 31.84-26.591 56.196-5.053 26.83 23.736 32.307 21.431 19.065-8.024-13.853-30.807-4.038-54.104 24.292-57.64 17.289-2.161 30.277 7.22 43.408 31.358l7.662 14.092 2.090-27.993c1.146-15.401 2.119-28.748 2.156-29.67 0.080-1.876 30.187-2.387 46.872-0.793 13.539 1.297 15.529 4.653 17.359 29.231 1.791 24.146 8.131 28.543 14.947 10.369 11.212-29.892 32.452-32.29 60.32-6.812 13.157 12.022 13.912 16.957 5.414 35.35-14.839 32.125-12.735 34.813 10.933 14.004 15.86-13.938 21.548-16.516 34.742-15.729 30.762 1.818 43.653 33.863 24.722 61.438-17.057 24.845-16.139 26.624 7.572 14.659 21.106-10.647 27.19-11.369 36.807-4.408 11.081 8.024 25.432 38.258 25.495 53.69 0.060 16.071-7.052 23.733-32.364 34.893-9.336 4.115-7.412 5.187 14.705 8.184 29.644 4.018 33.16 6.13 35.541 21.312 2.561 16.322 12.929 25.595 44.976 40.24 55.998 25.58 71.888 11.702 51.748-45.19-7.114-20.097-10.066-32.461-11.967-50.092-2.458-22.897-7.303-28.669-38.098-45.438-38.82-21.138-76.659-88.128-76.533-135.499 0.031-11.3-0.259-13.773-2.284-19.51-14.451-40.89-87.434-79.365-133.774-70.531zM758.241 575.235c-14.711 19.712-17.81 21.052-32.743 14.175-16.233-7.479-17.38-2.042-3.912 18.529 18.928 28.911 0.859 44.072-32.849 27.557-21.037-10.308-22.155-8.831-12.261 16.242 9.803 24.834-0.103 47.876-20.619 47.964-11.64 0.048-18.599-8.335-32.784-39.487l-8.147-17.89-0.579 18.874c-1.086 35.324-10.289 53.864-26.735 53.864-14.388 0-21.050-11.168-29.416-49.288l-0.821-3.755-2.771 8.070c-6.932 20.185-13.165 26.541-29.145 29.681-21.611 4.254-38.292-3.875-42.276-20.597-4.394-18.449-12.732-17.074-14.528 2.407-1.99 21.596-7.665 29.667-20.017 28.478-15.506-1.494-27.046-17.209-35.025-47.722-2.415-9.225-4.655-17.64-4.974-18.691-0.354-1.158-2.065 5.054-4.323 15.666-8.951 42.156-19.732 48.689-43.704 26.501-13.419-12.427-14.465-16.539-8.785-34.622 6.308-20.080 4.112-22.356-13.69-14.197-14.697 6.733-19.008 6.595-27.303-0.895-8.608-7.773-8.748-14.785-0.739-36.197 6.228-16.647 6.060-17.561-2.883-15.626-13.488 2.917-19.39 1.392-27.749-7.171-10.881-11.135-23.81-10.214-53.092 3.781-54.939 26.271-63.017 85.885-12.344 91.104 30.873 3.176 91.159 61.832 123.95 120.602 19.299 34.582 40.551 45.070 60.363 29.787 9.050-6.981 18.631-9.969 36.681-11.447 14.084-1.149 27.289-4.535 40.993-10.516 21.556-9.404 29.969-9.903 58.875-3.516 59.234 13.088 88.142 21.717 96.596 28.834 18.759 15.786 43.114-0.556 63.802-42.815 19.347-39.513 85.005-103.708 114.863-112.313 20.51-5.908 44.73-45.010 36.376-58.715-2.022-3.319-9.324-9.127-20.217-16.082-6.838-4.368-58.438-30.346-60.089-30.251-0.431 0.020-4.016 4.375-7.971 9.678z"></path>
</svg>
