<!-- Generated by IcoMoon.io -->
<svg version="1.1" xmlns="http://www.w3.org/2000/svg" width="1024" height="1024" viewBox="0 0 1024 1024">
<title></title>
<g id="icomoon-ignore">
</g>
<path fill="#000" d="M397.962 62.61c-4.463 4.678-5.501 7.616-8.116 22.969-1.192 6.999-2.797 14.533-3.568 16.741-4.223 12.116 2.996 38.008 11.876 42.603 4.517 2.334 8.141 8.328 8.296 13.71 0.287 10.144-6.043 15.122-44.921 35.333-15.101 7.849-26.032 14.278-36.102 21.228-2.166 1.496-6.891 4.76-10.502 7.256-37.401 25.85-46.891 29.935-62.351 26.822-12.046-2.423-39.273-17.83-54.49-30.832-18.353-15.682-26.717-5.879-19.251 22.56 6.436 24.516 16.454 34.618 38.23 38.553 15.736 2.842 17.905 5.368 16.872 19.646-0.666 9.202-7.106 22.543-19.017 39.392-4.096 5.793-10.843 20.999-12.986 29.264-1.15 4.442-3.036 9.875-4.188 12.074s-3.129 7.541-4.393 11.873c-1.267 4.332-3.26 10.831-4.433 14.442s-4.155 13.063-6.627 21.006c-15.276 49.094-16.673 51.856-26.257 51.856-12.995 0-17.921-12.191-17.526-43.374 0.344-27.236-0.598-30.269-8.408-27.081-4.101 1.676-4.959 3.274-14.911 27.787-1.757 4.332-3.823 8.999-4.59 10.368-11.663 20.828-10.392 27.514 9.128 48.052 19.984 21.029 20.020 29.837 0.206 49.861-16.049 16.218-16.848 18.337-13.834 36.634 3.872 23.492 21.27 51.91 30.161 49.267 6.866-2.040 7.172-3.398 6.015-26.796-1.982-40.13 5.84-54.775 21.277-39.831 7.613 7.368 9.815 13.072 14.874 38.518 1.4 7.041 15.989 53.392 19.833 63.015 6.994 17.503 13.998 32.264 16.816 35.447 20.758 23.415 22.599 38.522 5.115 41.976-20.662 4.085-23.572 6.134-36.384 25.633-4.746 7.221-9.763 14.624-11.151 16.454-7.027 9.256-7.438 15.15-1.288 18.442 2.112 1.131 25.179-7.868 30.654-11.96 0.722-0.537 5.842-2.213 11.38-3.718 5.536-1.507 15.645-5.382 22.462-8.611 22.733-10.766 28.126-9.586 64.62 14.142 5.055 3.286 15.393 9.45 22.973 13.698 14.355 8.041 28.967 17.36 33.477 21.345 1.444 1.276 7.719 5.478 13.941 9.336 22.483 13.941 32.755 21.424 33.515 24.42 1.376 5.431-0.902 12.247-5.961 17.832-20.197 22.289-25.196 58.266-10.436 75.077 7.676 8.742 9.569 6.922 25.305-24.324 6.365-12.635 12.338-23.859 13.278-24.943 0.939-1.082 4.695-6.548 8.345-12.142 8.396-12.874 17.477-19.248 28.783-20.209 19.973-1.699 18.37 7.747 18.716-110.221 0.306-103.745 0.535-99.362-5.284-101.388-3.692-1.288-4.036-1.075-7.674 4.793-5.356 8.628-21.746 38.195-23.709 42.764-0.9 2.091-2.837 5.342-4.307 7.221-1.47 1.881-5.178 7.849-8.244 13.264-28.843 50.975-38.754 56.046-62.86 32.162-3.762-3.73-11.637-10.642-17.5-15.36-21.569-17.363-51.88-50.606-67.387-73.909-6.094-9.156-15.82-25.259-15.82-26.191 0-0.425-1.589-3.274-3.529-6.328-3.547-5.583-13.385-28.028-17.11-39.030-1.101-3.248-3.087-8.27-4.412-11.158-11.42-24.868-15.664-92.632-8.328-132.986 2.187-12.035 14.353-51.875 17.143-56.14 0.974-1.489 2.592-5.433 3.594-8.768 1.002-3.332 3.078-7.819 4.608-9.969s2.781-4.41 2.781-5.022c0-0.612 2.068-4.022 4.597-7.578 2.526-3.554 4.594-7.024 4.594-7.712 0-1.802 7.223-13.705 12.507-20.606 2.486-3.248 6.929-9.326 9.873-13.504s8.020-10.677 11.28-14.442c47.014-54.287 56.981-60.411 72.488-44.556 11.883 12.154 38.85 48.837 45.094 61.344 1.802 3.61 5.244 10.404 7.648 15.096 4.526 8.831 5.674 23.515 3.113 39.812-0.844 5.363-7.244 10.862-10.502 9.025-1.851-1.045-15.629-16.561-25.686-28.928-18.942-23.291-31.183-24.352-49.393-4.283-51.144 56.369-69.7 140.13-47.435 214.118 6.319 20.996 24.289 56.523 35.592 70.369 4.557 5.58 10.941 13.411 14.192 17.402 20.788 25.534 34.545 24.385 47.468-3.973 1.208-2.65 3.311-5.414 4.674-6.144 1.36-0.729 5.964-7.719 10.226-15.531 9.824-18.003 23.165-40.443 27.5-46.253 1.839-2.463 3.344-5.181 3.344-6.041 0-0.858 1.645-3.865 3.657-6.681 3.101-4.337 8.698-13.6 21.34-35.314 2.909-4.996 9.361-21.263 12.5-31.507 3.031-9.896 3.36-37.216 0.736-61.047-1.792-16.274-1.727-40.49 0.638-232.369 0.668-54.186-0.301-57.268-20.478-64.98-12.815-4.896-14.313-6.926-35.739-48.417-3.4-6.587-6.207-12.579-6.235-13.313-0.028-0.736-1.435-3.395-3.124-5.91s-4.059-7.504-5.267-11.088c-1.912-5.676-9.018-15.145-11.364-15.145-0.444 0-2.36 1.626-4.253 3.61zM626.284 62.661c-3.673 0.467-8.632 8.081-8.733 13.406-0.021 1.082-0.986 3.741-2.143 5.907-1.159 2.166-3.085 6.597-4.279 9.845-11.591 31.524-23.934 45.152-55.958 61.776-17.79 9.235-16.194 0.077-16.456 94.45-0.322 116.811-0.43 112.039 2.617 115.712l2.573 3.099 4.11-4.323c4.309-4.531 23.564-33.891 23.564-35.931 0-0.65 2.475-5.445 5.499-10.658s7.046-12.432 8.936-16.042c7.074-13.509 27.691-43.383 31.937-46.276 6.321-4.307 10.565-3.734 20.433 2.757 4.776 3.141 10.534 6.665 12.796 7.833 4.66 2.4 50.59 45.975 55.619 52.765 4.143 5.592 8.973 11.745 19.347 24.635 4.517 5.615 9.646 13.037 11.397 16.493 1.753 3.458 4.171 7.104 5.372 8.102 1.203 0.998 4.821 6.868 8.039 13.046 3.218 6.176 6.709 12.705 7.758 14.512 6.711 11.546 19.755 45.584 24.925 65.041 12.116 45.624 9.118 102.776-7.955 151.576-8.581 24.527-9.516 26.49-24.649 51.856-31.842 53.359-77.339 99.116-98.555 99.116-31.727 0-73.675-79.321-63.003-119.138 1.358-5.066 9.787-4.153 13.764 1.493 25.602 36.349 46.416 47.279 62.026 32.571 44.921-42.322 74.059-134.204 61.299-193.292-8.396-38.892-15.97-59.998-27.951-77.905-2.356-3.524-6.057-9.23-8.223-12.684-10.614-16.909-31.82-39.957-40.64-44.161-11.098-5.293-24.854 6.104-37.263 30.865-1.69 3.372-4.12 7.312-5.4 8.756s-5.113 7.646-8.515 13.785c-9.301 16.783-14.152 24.794-20.199 33.365-3.014 4.272-5.48 8.338-5.48 9.034s-2.173 4.29-4.83 7.987c-5.896 8.205-26.525 49.456-30.61 61.204-4.491 12.925-5.087 38.492-4.65 199.548 0.446 163.426-0.797 149.384 13.834 156.315 3.248 1.54 7.679 4.131 9.845 5.76s6.302 4.216 9.191 5.746c13.271 7.039 30.486 33.061 37.497 56.67 8.515 28.687 17.507 35.429 24.995 18.744 13.245-29.523 12.913-61.599-0.769-74.538-9.048-8.557-10.329-11.14-8.625-17.4 1.69-6.216 10.24-15.631 15.271-16.818 2.11-0.498 5.608-2.517 7.775-4.484 2.166-1.97 13.096-9.051 24.289-15.734 32.783-19.58 34.601-20.704 38.639-23.906 2.117-1.68 11.56-7.613 20.982-13.187 31.741-18.779 44.4-18.043 72.972 4.239 2.528 1.97 7.74 5.167 11.581 7.106 3.842 1.937 9.801 5.543 13.238 8.015 18.059 12.972 25.067 11.684 25.067-4.606 0-26.226-16.802-48.996-40.135-54.389-27.331-6.319-29.241-12.876-11.88-40.817 5.989-9.639 11.958-20.19 17.082-30.194 13.874-27.081 31.346-77.349 34.835-100.215 6.933-45.416 38.843-34.629 34.795 11.761-0.797 9.135-0.601 10.539 1.991 14.177 10.123 14.217 35.88-24.438 33.961-50.966-0.692-9.567-2.505-11.864-13.719-17.386-25.637-12.621-25.471-41.364 0.327-56.904 13.841-8.338 17.998-19.139 12.953-33.657-10.644-30.65-23.244-47.194-33.244-43.661-3.905 1.379-4.526 9.277-2.225 28.252 4.942 40.714-25.558 57.755-32.9 18.381-4.094-21.952-10.696-44.631-19.543-67.137-2.697-6.861-7.454-18.97-10.569-26.913-5.917-15.077-12.864-28.572-20.19-39.221-10.633-15.456-7.13-28.107 9.476-34.218 26.46-9.735 44.147-28.923 44.603-48.384 0.306-13.135-5.15-14.586-22.754-6.052-61.22 29.68-76.732 32.29-94.926 15.979-2.788-2.498-7.053-5.372-9.478-6.387-2.428-1.014-8.529-4.508-13.563-7.763s-11.696-7.116-14.808-8.578c-6.464-3.038-15.182-8.553-26.934-17.033-8.632-6.23-31.648-20.957-43.692-27.958-12.743-7.408-13.584-15.729-2.793-27.645 15.25-16.839 19.459-28.367 18.038-49.398-1.51-22.333-8.408-36.817-17.010-35.723z"></path>
</svg>
