<!-- Generated by IcoMoon.io -->
<svg version="1.1" xmlns="http://www.w3.org/2000/svg" width="1024" height="1024" viewBox="0 0 1024 1024">
<title></title>
<g id="icomoon-ignore">
</g>
<path fill="#000" d="M401.602 666.39c-14.345 8.37-30.47 12.055-35.186 20.476-20.476 40.901-68.924 48.063-96.334 80.157 0 1.416-6.517 1.031-8.193 0-1.624-1.853-2.654-4.351-2.654-7.006 0-0.697 0.052-1.416 0.208-2.061v0.052c16.073-40.234 40.901-74.025 72.224-100.3l0.385-0.333c30.678-23.287 30.678-24.547 12.263-57.078-5.923-10.254-11.18-22.152-15.146-34.644l-0.385-1.312c-8.578-26.4-15.74-29.054-35.571-7.984-7.984 8.37-10.202 11.461-16.125 0-9.837-18.415-22.256-20.476-35.186-3.269s-21.663 11.024-37.632 1.853c-19.269-9.171-44.045-19.113-69.341-27.816l-5.486-1.624c-14.501-6.517-14.938-20.476 0-26.4 29.054-12.648 59.295-23.079 89.557-33.354 1.416-0.333 3.040-0.541 4.716-0.541 5.278 0 10.098 2.009 13.679 5.278v0c14.501 20.476 28.232 16.77 39.048-1.26s11.461-7.391 19.009 1.26c15.146 17.156 18.186 16.125 27.43-3.040 5.538-12.055 9.837-24.932 15.969-36.81 17.978-34.748 16.354-38.017-15.969-64.417-27.586-23.953-49.041-54.142-62.283-88.474l-0.489-1.52c-0.104-0.541-0.156-1.187-0.156-1.905 0-2.654 0.979-5.101 2.654-6.954v0c1.135-0.697 2.55-1.135 4.070-1.135s2.936 0.437 4.122 1.135h-0.052c31.709 28.024 77.71 38.663 97.312 81.781 7.547 17.156 24.755 15.969 40.901 9.837s26.993-13.085 40.901-19.446 31.501-15.146 10.639-35.186c-4.070-4.070-2.061-15.146-1.416-22.923s5.694-14.345 3.685-20.476c-20.476-48.271 12.877-87.111 22.256-130.073 0-4.299 6.517-11.461 7.984-10.868 5.694 1.624 13.085 4.716 15.146 9.4 13.314 30.907 25.369 61.356 37.424 93.679 0.979 2.061 1.572 4.508 1.572 7.058s-0.593 4.997-1.572 7.162l0.052-0.104c-13.908 16.999-25.962 32.739 0 50.124 1.853 1.26 0 13.679-4.070 17.385-16.999 16.77-9.837 25.733 8.578 32.094 7.984 2.654 16.354 4.299 24.109 7.391 11.795 6.673 25.421 12.055 39.797 15.532l1.083 0.208c20.476 1.416 16.999-22.694 26.608-31.501 20.372-16.51 43.118-32.635 66.842-47.417l2.884-1.676c2.498-1.676 5.382-3.425 8.37-4.945l0.437-0.208 25.577-11.461c-3.269 8.193-6.131 16.562-9.837 24.547-14.99 34.925-37.913 63.98-66.582 85.903l-0.489 0.385c-9.608 4.997-16.021 14.834-16.021 26.223 0 6.621 2.165 12.7 5.871 17.645l-0.052-0.052c5.434 11.357 10.972 25.369 15.636 39.745l0.697 2.55c7.162 16.125 14.938 32.916 34.54 10.639 2.165-2.498 5.278-4.174 8.734-4.508h0.052c15.74 0 25.962 32.916 46.21 9.4s34.54-2.446 51.103 0c20.039 5.049 37.424 11.357 53.934 19.165l-1.801-0.77c5.694 2.217 15.74 7.547 15.324 9.608-1.187 8.193-5.205 15.324-11.024 20.424l-0.052 0.052c-9.837 5.049-21.996 10.327-34.592 14.938l-2.446 0.822c-13.575 5.59-25.192 11.951-36.008 19.446l0.645-0.437c-13.523 10.431-22.486 12.648-31.501-4.893s-20.476-20.476-30.47-2.654c-11.024 20.476-18.415 10.202-29.648 1.416-22.486-17.822-28.232-15.324-35.779 13.314-1.957 9.837-4.070 18.030-6.569 26.015l0.437-1.676c-2.988 5.538-4.789 12.159-4.789 19.165 0 15.813 8.963 29.543 22.1 36.32l0.208 0.104c23.849 16.229 41.806 39.589 51.050 66.967l0.281 0.927c3.914 11.461 25.962 17.978 11.67 32.531-2.884 3.040-22.486-9.015-33.562-15.74-30.137-16.51-55.454-38.277-75.441-64.24l-0.437-0.541c-8.578-12.492-17.978-15.74-33.718-4.893-17.489 10.431-38.225 20.737-59.68 29.648l-3.321 1.187c-14.116 7.162-17.385 20.476-1.26 25.14 25.733 8.37 15.146 17.156 2.061 24.755s-15.532 20.476-5.923 28.617c15.532 15.146 10.639 29.21 4.716 45.616-8.578 23.724-14.709 48.063-23.516 71.579-2.654 6.725-11.67 11.232-17.593 16.77-4.893-5.538-12.055-10.202-14.709-16.77-11.67-29.877-22.256-59.909-32.531-90.202-0.437-1.572-0.697-3.425-0.697-5.33 0-4.174 1.26-8.089 3.425-11.305l-0.052 0.052c15.146-16.562 14.116-28.617-5.33-40.901-12.263-7.547-19.009-16.999 3.040-22.1 6.569-1.801 12.107-5.382 16.354-10.202l0.052-0.052c2.217-2.217 1.853-11.461 0-12.263-23.079-9.015-44.378-18.186-67.071-28.617zM435.966 598.517c0 3.477 0 6.954 0 10.202-1.853 16.999 11.461 16.354 22.1 20.476 16.77 7.984 15.324-7.547 20.476-13.679s2.061-9.837 4.299-14.345c4.070-7.755 9.171-15.146 13.679-22.923 7.755 5.975 14.501 12.7 20.247 20.195l0.156 0.281c3.914 6.954 2.217 16.77 4.893 24.547 2.061 4.612 6.079 8.036 10.92 9.4h0.104c0.645 0.052 1.468 0.052 2.217 0.052 18.957 0 34.384-15.376 34.384-34.384 0-2.654-0.281-5.205-0.874-7.651l0.052 0.208c-4.893-20.476 0-25.733 18.779-18.623s25.369-10.202 30.678-23.287-6.517-15.74-15.74-18.779c-5.382-0.927-10.15-2.446-14.605-4.612l0.333 0.156c-9.994-6.361-13.908-14.938-3.040-23.953 4.893-3.196 10.639-6.465 16.614-9.4l0.979-0.437c9.171-5.538 20.476-7.984 13.523-24.932s-6.517-31.886-28.232-23.953c-15.74 5.923-22.1 1.416-23.953-13.908-0.156-10.639-1.905-20.81-4.893-30.418l0.208 0.77c-3.040-7.755-10.431-13.189-19.113-13.189-7.984 0-14.886 4.56-18.238 11.232l-0.052 0.104c-3.269 5.538-2.446 13.523-5.538 19.217-4.893 9.608-11.67 18.186-17.593 27.43-5.538-9.608-11.461-18.779-16.562-28.617-1.416-2.884 0-7.755-1.416-9.837-5.101-6.131-11.67-16.125-16.77-15.74-10.202 1.416-19.009 6.413-25.296 13.627l-0.052 0.052c-4.508 5.538-3.040 15.969-3.914 24.339-1.26 15.146-6.954 20.476-23.079 15.324-27.201-10.202-23.724 13.523-29.877 27.816-8.37 20.476 11.847 15.324 18.415 22.1 2.884 3.040 10.431 0 14.501 3.477 5.434 3.966 10.15 8.318 14.449 13.033l0.052 0.052c-4.070 3.477-8.526 6.85-13.189 9.942l-0.489 0.333c-4.841 2.654-10.816 5.434-16.947 7.932l-1.26 0.437c-20.476 9.015-14.116 24.339-8.37 38.454s11.67 25.733 29.648 16.999 27.201-8.578 17.385 14.501z"></path>
</svg>
