<!-- Generated by IcoMoon.io -->
<svg version="1.1" xmlns="http://www.w3.org/2000/svg" width="1024" height="1024" viewBox="0 0 1024 1024">
<title></title>
<g id="icomoon-ignore">
</g>
<path fill="#000" d="M733.222 90.875c0 1.617-0.945 2.878-2.174 2.878s-2.143 0.981-2.143 2.143c0 1.193-1.26 2.174-2.878 2.174-2.31 0-2.878 0.945-2.878 5.052s-0.557 5.052-2.878 5.052c-1.933 0-2.878 0.945-2.878 2.878 0 1.617-0.945 2.878-2.143 2.878s-2.174 0.981-2.174 2.174c0 1.754-2.384 2.174-12.939 2.174-11.994 0-12.939 0.21-12.939 2.878 0 1.617-0.945 2.878-2.143 2.878s-2.174 0.981-2.174 2.143c0 1.193-1.26 2.174-2.878 2.174-2.699 0-2.878 0.945-2.878 15.817 0 13.118-0.389 15.817-2.174 15.817-1.193 0-2.143 0.981-2.143 2.174s-1.26 2.143-2.878 2.143c-1.933 0-2.878 0.945-2.878 2.878 0 1.617-0.945 2.878-2.174 2.878s-2.174 0.981-2.174 2.174c0 1.511-1.511 2.174-5.052 2.174h-5.052v10.062c0 7.992 0.451 10.062 2.174 10.062s2.143 2.069 2.143 10.062c0 7.992-0.451 10.062-2.143 10.062-1.193 0-2.174 1.26-2.174 2.878 0 1.933-0.945 2.878-2.878 2.878-1.617 0-2.878 0.945-2.878 2.174s-0.981 2.143-2.174 2.143c-1.649 0-2.143 1.828-2.143 7.928s0.494 7.928 2.143 7.928c1.511 0 2.174 1.511 2.174 5.052 0 4.064 0.557 5.052 2.878 5.052 2.668 0 2.878 0.945 2.878 12.939 0 10.555 0.389 12.939 2.174 12.939 1.511 0 2.143 1.511 2.143 5.052 0 4.064 0.557 5.052 2.878 5.052s2.878 0.945 2.878 5.052c0 3.508 0.663 5.052 2.174 5.052 1.785 0 2.174 2.943 2.174 17.991s-0.346 17.991-2.174 17.991c-1.511 0-2.174 1.511-2.174 5.052 0 4.064-0.557 5.052-2.878 5.052-1.617 0-2.878 0.945-2.878 2.174 0 1.723-2.069 2.174-10.062 2.174s-10.062-0.451-10.062-2.174c0-1.511-1.511-2.174-5.052-2.174-4.064 0-5.052-0.557-5.052-2.878 0-1.933-0.945-2.878-2.878-2.878-1.617 0-2.878-0.945-2.878-2.174 0-1.649-1.754-2.174-7.185-2.174-6.238 0-7.185-0.389-7.185-2.878 0-2.31-0.945-2.878-4.873-2.878-3.014 0-5.188-0.84-5.713-2.174-0.494-1.26-2.625-2.174-5.188-2.174-3.403 0-4.348-0.63-4.348-2.878 0-1.933-0.945-2.878-2.878-2.878-2.31 0-2.878-0.945-2.878-5.052 0-3.508-0.663-5.052-2.174-5.052-1.828 0-2.174-3.749-2.174-25.175 0-24.23-0.105-25.175-2.878-25.175-1.617 0-2.878 0.945-2.878 2.174s-0.981 2.174-2.143 2.174c-1.193 0-2.174 1.26-2.174 2.878 0 1.933-0.945 2.878-2.878 2.878-1.617 0-2.878 0.945-2.878 2.174s-0.981 2.174-2.174 2.174c-1.193 0-2.143 1.26-2.143 2.878 0 1.933-0.945 2.878-2.878 2.878-2.594 0-2.878 0.945-2.878 10.062 0 7.992-0.451 10.062-2.143 10.062-1.511 0-2.174 1.511-2.174 5.052v5.052h-25.879v-5.052c0-4.064-0.557-5.052-2.878-5.052s-2.878-0.945-2.878-5.052v-5.052h-14.378v5.052c0 4.8-0.241 5.052-5.052 5.052-3.508 0-5.052 0.663-5.052 2.174 0 1.193-1.26 2.174-2.878 2.174s-2.878-0.945-2.878-2.174c0-1.511-1.511-2.174-5.052-2.174h-5.052v-7.928c0-6.071-0.494-7.928-2.174-7.928-1.193 0-2.174-0.981-2.174-2.174 0-1.511-1.511-2.174-5.052-2.174s-5.052 0.663-5.052 2.174c0 1.193-1.26 2.174-2.878 2.174-1.933 0-2.878 0.945-2.878 2.878s-0.945 2.878-2.878 2.878c-2.31 0-2.878 0.945-2.878 5.052 0 3.508-0.663 5.052-2.174 5.052s-2.174 1.511-2.174 5.052v5.052h-20.124c-19.178 0-20.124-0.136-20.124-2.878 0-2.31-0.945-2.878-5.052-2.878-3.508 0-5.052-0.663-5.052-2.174 0-1.193-1.26-2.174-2.878-2.174s-2.878 0.945-2.878 2.174c0 1.229-1.299 2.174-2.983 2.174-2.353 0-2.804 0.663-2.174 3.224 0.451 1.785 0.451 2.458 0 1.511-2.384-5.117-4.947 0.315-4.947 10.524 0 8.486-0.42 10.629-2.174 10.629-1.193 0-2.174 1.26-2.174 2.878 0 2.31-0.945 2.878-5.052 2.878-3.508 0-5.052 0.663-5.052 2.174 0 1.649-1.828 2.174-7.928 2.174s-7.928-0.494-7.928-2.174c0-1.649-1.828-2.174-7.928-2.174s-7.928 0.494-7.928 2.174c0 1.193-0.981 2.174-2.174 2.174-1.723 0-2.174 2.069-2.174 10.062 0 9.116-0.284 10.062-2.878 10.062-1.933 0-2.878 0.945-2.878 2.878 0 1.617-0.945 2.878-2.174 2.878s-2.174 0.981-2.174 2.174c0 1.511-1.511 2.174-5.052 2.174-4.064 0-5.052 0.557-5.052 2.878 0 2.594-0.945 2.878-10.062 2.878s-10.062-0.284-10.062-2.878c0-1.933-0.945-2.878-2.878-2.878-1.617 0-2.878-0.945-2.878-2.174 0-1.649-1.828-2.174-7.928-2.174h-7.928v10.062c0 9.116 0.284 10.062 2.878 10.062 2.31 0 2.878 0.945 2.878 5.052s-0.557 5.052-2.878 5.052c-1.617 0-2.878 0.945-2.878 2.174s-0.981 2.174-2.174 2.174c-1.193 0-2.174 1.26-2.174 2.878 0 1.933-0.945 2.878-2.878 2.878s-2.878-0.945-2.878-2.878c0-2.31-0.945-2.878-5.052-2.878-3.508 0-5.052-0.663-5.052-2.174 0-1.193-0.981-2.174-2.174-2.174s-2.174-1.26-2.174-2.878c0-1.933-0.945-2.878-2.878-2.878-1.617 0-2.878-0.945-2.878-2.174 0-1.511-1.511-2.174-5.052-2.174s-5.052 0.663-5.052 2.174c0 1.193-0.981 2.174-2.174 2.174-1.511 0-2.143 1.511-2.143 5.052 0 4.064-0.557 5.052-2.878 5.052-1.933 0-2.878 0.945-2.878 2.878 0 1.617-0.945 2.878-2.174 2.878s-2.143 0.981-2.143 2.174c0 1.511-1.511 2.174-5.052 2.174s-5.052-0.663-5.052-2.174-1.511-2.174-5.052-2.174h-5.052v-7.928c0-6.942-0.346-7.928-2.878-7.928-1.617 0-2.878-0.945-2.878-2.174s-0.981-2.174-2.174-2.174-2.174 0.981-2.174 2.174c0 1.544-1.617 2.174-5.753 2.174-4.8 0-5.753 0.494-5.753 2.878 0 2.489-0.945 2.878-7.185 2.878s-7.185-0.389-7.185-2.878c0-2.1-0.945-2.878-3.539-2.878-2.384 0-3.298-0.63-2.804-1.933 0.525-1.365-0.735-1.964-4.348-2.1-3.791-0.136-5.083 0.389-5.083 2.1 0 1.617 0.981 2.1 3.367 1.649 2.837-0.557 3.261-0.136 2.699 2.699-0.451 2.384 0.031 3.367 1.68 3.367s2.31 1.365 2.31 5.052c0 4.064 0.557 5.052 2.878 5.052s2.878 0.945 2.878 5.052c0 3.508 0.663 5.052 2.143 5.052 1.193 0 2.174 1.26 2.174 2.878 0 2.31 0.945 2.878 5.052 2.878 3.508 0 5.052 0.663 5.052 2.174 0 1.193 1.26 2.174 2.878 2.174 1.933 0 2.878 0.945 2.878 2.878s0.945 2.878 2.878 2.878c1.617 0 2.878 0.945 2.878 2.174s0.981 2.174 2.174 2.174c1.964 0 2.804 1.754 2.279 4.768-0.105 0.663 0.451 0.769 1.299 0.241s1.124-1.544 0.663-2.279c-0.451-0.735-0.21-1.334 0.525-1.334s1.754 0.981 2.205 2.174c0.451 1.193 1.828 2.174 3.049 2.174s2.205 0.981 2.205 2.174c0 1.649 1.828 2.174 7.928 2.174 6.942 0 7.928 0.346 7.928 2.878 0 2.773 0.945 2.878 30.227 2.878s30.227-0.105 30.227-2.878c0-2.52 0.945-2.878 7.928-2.878 6.071 0 7.928-0.494 7.928-2.174s1.754-2.174 7.185-2.174c6.238 0 7.185-0.389 7.185-2.878 0-2.31 0.945-2.878 5.052-2.878 3.508 0 5.052-0.663 5.052-2.174s1.511-2.174 5.052-2.174c4.064 0 5.052-0.557 5.052-2.878 0-1.933 0.945-2.878 2.878-2.878 1.617 0 2.878-0.945 2.878-2.174 0-1.649 1.754-2.174 7.185-2.174 6.238 0 7.185-0.389 7.185-2.878 0-2.31 0.945-2.878 5.052-2.878s5.052-0.557 5.052-2.878c0-1.933 0.945-2.878 2.878-2.878 1.617 0 2.878-0.945 2.878-2.174 0-1.649 1.828-2.174 7.928-2.174 6.942 0 7.928-0.346 7.928-2.878 0-2.699 0.945-2.878 15.113-2.878 12.487 0 15.113-0.389 15.113-2.174 0-1.723 2.069-2.174 10.062-2.174 9.116 0 10.062-0.284 10.062-2.878 0-2.699 0.945-2.878 15.113-2.878 12.487 0 15.113-0.389 15.113-2.174 0-1.723 2.143-2.174 10.66-2.174 9.957 0 10.587-0.179 9.89-2.878-0.663-2.489-0.031-2.878 4.453-2.878 4.243 0 5.188 0.525 5.188 2.878 0 2.594 0.945 2.878 10.062 2.878 7.992 0 10.062 0.451 10.062 2.174s2.069 2.174 10.062 2.174c9.116 0 10.062 0.284 10.062 2.878 0 2.31 0.945 2.878 5.052 2.878 3.508 0 5.052 0.663 5.052 2.174s1.617 2.174 5.753 2.174c4.8 0 5.753 0.494 5.753 2.878 0 2.489 0.945 2.878 7.185 2.878 5.435 0 7.185 0.525 7.185 2.174 0 1.193 1.26 2.174 2.878 2.174 1.933 0 2.878 0.945 2.878 2.878 0 2.31 0.945 2.878 5.052 2.878s5.052 0.557 5.052 2.878c0 1.617 0.945 2.878 2.174 2.878 1.617 0 2.174 1.754 2.174 7.185 0 6.238 0.389 7.185 2.878 7.185 1.933 0 2.878 0.945 2.878 2.878s-0.945 2.878-2.878 2.878c-1.617 0-2.878 0.945-2.878 2.174s-0.981 2.174-2.174 2.174c-1.193 0-2.174 1.26-2.174 2.878 0 2.594-0.945 2.878-10.062 2.878s-10.062-0.284-10.062-2.878c0-2.31-0.945-2.878-5.052-2.878-3.508 0-5.052-0.663-5.052-2.174s-1.617-2.174-5.753-2.174c-4.8 0-5.753-0.494-5.753-2.878 0-2.31-0.945-2.878-5.052-2.878-3.508 0-5.052-0.663-5.052-2.174 0-1.785-2.878-2.174-17.256-2.174-16.305 0-17.256-0.179-17.256-2.878 0-2.773-0.945-2.878-28.053-2.878s-28.053 0.105-28.053 2.878c0 2.699-0.945 2.878-15.113 2.878-12.487 0-15.113 0.389-15.113 2.174 0 1.649-1.828 2.174-7.928 2.174-6.942 0-7.928 0.346-7.928 2.878 0 2.489-0.945 2.878-7.185 2.878-5.435 0-7.185 0.525-7.185 2.174 0 1.511-1.511 2.174-5.052 2.174-4.064 0-5.052 0.557-5.052 2.878 0 2.384-0.945 2.878-5.753 2.878-4.169 0-5.753 0.599-5.753 2.174 0 1.193-0.981 2.174-2.174 2.174s-2.174 1.26-2.174 2.878c0 2.31-0.945 2.878-5.052 2.878-3.508 0-5.052 0.663-5.052 2.174 0 1.193-1.26 2.174-2.878 2.174-1.933 0-2.878 0.945-2.878 2.878 0 2.489-0.945 2.878-7.185 2.878-5.435 0-7.185 0.525-7.185 2.174 0 1.511-1.511 2.174-5.052 2.174-4.064 0-5.052 0.557-5.052 2.878 0 1.933-0.945 2.878-2.878 2.878-2.31 0-2.878 0.945-2.878 5.052 0 3.508-0.663 5.052-2.174 5.052-1.193 0-2.174 0.981-2.174 2.174s-1.26 2.174-2.878 2.174c-2.384 0-2.878 0.945-2.878 5.753 0 4.169-0.599 5.753-2.174 5.753-1.193 0-2.174 0.981-2.174 2.174s-1.26 2.174-2.878 2.174c-2.31 0-2.878 0.945-2.878 5.052 0 3.508-0.663 5.052-2.174 5.052-1.193 0-2.174 1.26-2.174 2.878 0 1.933-0.945 2.878-2.878 2.878-2.31 0-2.878 0.945-2.878 5.052s-0.557 5.052-2.878 5.052c-2.31 0-2.878 0.945-2.878 5.052 0 3.508-0.663 5.052-2.174 5.052s-2.174 1.511-2.174 5.052c0 4.064-0.557 5.052-2.878 5.052-1.617 0-2.878 0.945-2.878 2.174s-0.981 2.143-2.174 2.143c-1.723 0-2.174 2.069-2.174 10.062 0 9.116-0.284 10.062-2.878 10.062-2.52 0-2.878 0.945-2.878 7.928 0 6.071-0.494 7.928-2.174 7.928s-2.174 1.828-2.174 7.928c0 6.942-0.346 7.928-2.878 7.928-2.773 0-2.878 0.945-2.878 27.318s0.105 27.318 2.878 27.318c2.699 0 2.878 0.945 2.878 15.817 0 13.118 0.389 15.817 2.174 15.817 1.544 0 2.174 1.575 2.174 5.608 0 4.453 0.525 5.541 2.52 5.398s2.594 1.155 2.943 6.627c0.315 4.8 1.050 6.837 2.52 6.837 1.544 0 2.069 1.964 2.069 7.928 0 6.942 0.346 7.928 2.878 7.928 2.31 0 2.878 0.945 2.878 5.052 0 3.508 0.663 5.052 2.174 5.052s2.174 1.511 2.174 5.052c0 4.064 0.557 5.052 2.878 5.052s2.878 0.945 2.878 5.052 0.557 5.052 2.878 5.052 2.878 0.945 2.878 5.052c0 3.508 0.663 5.052 2.174 5.052 1.193 0 2.174 1.26 2.174 2.878 0 1.933 0.945 2.878 2.878 2.878 1.617 0 2.878 0.945 2.878 2.174s0.981 2.143 2.174 2.143c1.193 0 2.174 1.26 2.174 2.878 0 1.933 0.945 2.878 2.878 2.878 1.617 0 2.878 0.945 2.878 2.174s0.981 2.174 2.174 2.174c1.193 0 2.174 1.26 2.174 2.878 0 1.933 0.945 2.878 2.878 2.878 1.617 0 2.878 0.945 2.878 2.143s0.981 2.174 2.174 2.174c1.193 0 2.174 1.26 2.174 2.878 0 1.933 0.945 2.878 2.878 2.878 1.617 0 2.878 0.945 2.878 2.174 0 1.511 1.511 2.143 5.052 2.143 4.064 0 5.052 0.557 5.052 2.878 0 1.617 0.945 2.878 2.174 2.878s2.174 0.981 2.174 2.174c0 1.511 1.511 2.174 5.052 2.174 4.064 0 5.052 0.557 5.052 2.878 0 1.933 0.945 2.878 2.878 2.878 1.617 0 2.878 0.945 2.878 2.143 0 1.649 1.828 2.174 7.928 2.174 6.942 0 7.928 0.346 7.928 2.878 0 2.31 0.945 2.878 5.052 2.878 3.508 0 5.052 0.663 5.052 2.174 0 1.617 1.754 2.143 7.185 2.143 6.238 0 7.185 0.389 7.185 2.878 0 2.837 0.945 2.878 61.153 2.878s61.153-0.031 61.153-2.878c0-2.489 0.945-2.878 7.185-2.878 5.435 0 7.185-0.525 7.185-2.143s1.828-2.174 7.928-2.174c6.942 0 7.928-0.346 7.928-2.878s0.945-2.878 7.928-2.878c6.071 0 7.928-0.494 7.928-2.174 0-1.193 0.981-2.143 2.143-2.143s2.174-1.26 2.174-2.878c0-2.31 0.945-2.878 5.052-2.878 3.508 0 5.052-0.663 5.052-2.174s1.511-2.174 5.052-2.174c4.064 0 5.052-0.557 5.052-2.878 0-1.933 0.945-2.878 2.878-2.878 1.617 0 2.878-0.945 2.878-2.143 0-1.511 1.511-2.174 5.052-2.174 4.064 0 5.052-0.557 5.052-2.878 0-1.617 0.945-2.878 2.174-2.878s2.143-0.981 2.143-2.174c0-1.193 1.26-2.143 2.878-2.143 1.933 0 2.878-0.945 2.878-2.878 0-1.617 0.945-2.878 2.174-2.878s2.174-0.981 2.174-2.174c0-1.193 1.26-2.174 2.878-2.174 1.933 0 2.878-0.945 2.878-2.878 0-1.617 0.945-2.878 2.143-2.878s2.174-0.981 2.174-2.143c0-1.193 1.26-2.174 2.878-2.174 1.933 0 2.878-0.945 2.878-2.878s0.945-2.878 2.878-2.878c1.617 0 2.878-0.945 2.878-2.174s0.981-2.143 2.174-2.143c1.193 0 2.143-1.26 2.143-2.878 0-2.31 0.945-2.878 5.052-2.878s5.052 0.557 5.052 2.878c0 1.933 0.945 2.878 2.878 2.878 2.489 0 2.878 0.945 2.878 7.185s-0.389 7.185-2.878 7.185c-2.699 0-2.878 0.945-2.878 15.113s0.179 15.113 2.878 15.113c2.594 0 2.878 0.945 2.878 10.062 0 7.992 0.451 10.062 2.174 10.062s2.143 2.069 2.143 10.062c0 9.116 0.284 10.062 2.878 10.062 2.384 0 2.878 0.945 2.878 5.753 0 4.169 0.599 5.753 2.174 5.753 1.193 0 2.174 0.981 2.174 2.174s1.26 2.143 2.878 2.143c2.31 0 2.878 0.945 2.878 5.052 0 3.508 0.663 5.052 2.143 5.052s2.174 1.511 2.174 5.052c0 4.064 0.557 5.052 2.878 5.052 1.933 0 2.878 0.945 2.878 2.878 0 1.617 0.945 2.878 2.174 2.878s2.143 0.981 2.143 2.174c0 1.193 1.26 2.143 2.878 2.143 1.933 0 2.878 0.945 2.878 2.878 0 2.31 0.945 2.878 5.052 2.878 3.508 0 5.052 0.663 5.052 2.174 0 1.193 0.981 2.174 2.143 2.174s2.174 1.26 2.174 2.878c0 2.31 0.945 2.878 5.052 2.878 3.508 0 5.052 0.663 5.052 2.143 0 1.544 1.617 2.174 5.753 2.174 4.8 0 5.753 0.494 5.753 2.878 0 2.489 0.945 2.878 7.185 2.878 5.435 0 7.185 0.525 7.185 2.174 0 1.859 4.064 2.143 28.053 2.143s28.053-0.315 28.053-2.143c0-1.511 1.511-2.174 5.052-2.174 4.064 0 5.052-0.557 5.052-2.878 0-1.933 0.945-2.878 2.878-2.878 1.617 0 2.878-0.945 2.878-2.174s0.981-2.143 2.143-2.143c1.193 0 2.174-1.26 2.174-2.878 0-1.933 0.945-2.878 2.878-2.878 1.617 0 2.878-0.945 2.878-2.174s0.981-2.174 2.174-2.174c1.193 0 2.143-1.26 2.143-2.878 0-1.933 0.945-2.878 2.878-2.878 1.617 0 2.878-0.945 2.878-2.143s0.981-2.174 2.174-2.174c1.649 0 2.174-1.828 2.174-7.928 0-6.942 0.346-7.928 2.878-7.928 2.31 0 2.878-0.945 2.878-5.052 0-3.508 0.663-5.052 2.143-5.052 1.754 0 2.174-2.384 2.174-12.939 0-11.994 0.21-12.939 2.878-12.939 2.31 0 2.878-0.945 2.878-5.052s-0.557-5.052-2.878-5.052c-2.731 0-2.878-0.945-2.878-17.256 0-14.378-0.346-17.256-2.174-17.256-1.193 0-2.143-1.26-2.143-2.878 0-1.933-0.945-2.878-2.878-2.878-1.617 0-2.878-0.945-2.878-2.174s-0.981-2.174-2.174-2.174c-1.193 0-2.174-1.26-2.174-2.878 0-1.933-0.945-2.878-2.878-2.878-1.617 0-2.878-0.945-2.878-2.143s-0.981-2.174-2.143-2.174c-1.193 0-2.174-1.26-2.174-2.878 0-1.933-0.945-2.878-2.878-2.878-1.617 0-2.878-0.945-2.878-2.174 0-1.859-4.064-2.143-28.053-2.143s-28.053 0.315-28.053 2.143c0 1.511-1.511 2.174-5.052 2.174-4.064 0-5.052 0.557-5.052 2.878 0 1.617-0.945 2.878-2.174 2.878-1.511 0-2.174 1.511-2.174 5.052 0 4.064-0.557 5.052-2.878 5.052-1.617 0-2.878 0.945-2.878 2.174s-0.981 2.174-2.143 2.174c-1.649 0-2.174 1.828-2.174 7.928 0 4.348-0.63 7.928-1.439 7.928s-1.439 0.981-1.439 2.174c0 1.193 0.63 2.143 1.439 2.143s1.439 5.262 1.439 12.939c0 10.555 0.389 12.939 2.174 12.939 1.193 0 2.143 0.981 2.143 2.174s1.26 2.143 2.878 2.143c1.933 0 2.878 0.945 2.878 2.878 0 1.617 0.945 2.878 2.174 2.878s2.174 0.981 2.174 2.174c0 1.511 1.511 2.174 5.052 2.174 4.064 0 5.052 0.557 5.052 2.878 0 2.52 0.945 2.878 7.928 2.878s7.928-0.346 7.928-2.878c0-1.617 0.945-2.878 2.174-2.878 1.617 0 2.174-1.754 2.174-7.185s-0.525-7.185-2.174-7.185c-1.193 0-2.174-1.26-2.174-2.878 0-2.31-0.945-2.878-5.052-2.878-3.508 0-5.052-0.663-5.052-2.174 0-1.193-1.26-2.143-2.878-2.143-2.594 0-2.878-0.945-2.878-10.062s0.284-10.062 2.878-10.062c1.933 0 2.878-0.945 2.878-2.878 0-1.617 0.945-2.878 2.174-2.878s2.143-0.981 2.143-2.174c0-1.754 2.384-2.143 12.939-2.143s12.939 0.389 12.939 2.143c0 1.193 0.981 2.174 2.174 2.174s2.143 1.26 2.143 2.878c0 1.933 0.945 2.878 2.878 2.878 2.31 0 2.878 0.945 2.878 5.052s0.557 5.052 2.878 5.052c2.731 0 2.878 0.945 2.878 20.124s-0.136 20.124-2.878 20.124c-2.31 0-2.878 0.945-2.878 5.052 0 4.8-0.241 5.052-5.052 5.052-4.064 0-5.052 0.557-5.052 2.878 0 1.933-0.945 2.878-2.878 2.878-1.617 0-2.878 0.945-2.878 2.174 0 1.511-1.511 2.174-5.052 2.174-4.064 0-5.052 0.557-5.052 2.878 0 2.668-0.945 2.878-12.236 2.878s-12.236-0.21-12.236-2.878c0-2.31-0.945-2.878-5.052-2.878-3.508 0-5.052-0.663-5.052-2.174s-1.511-2.174-5.052-2.174c-4.064 0-5.052-0.557-5.052-2.878 0-1.785-0.945-2.878-2.52-2.878-1.365 0-3.261-1.617-4.169-3.579s-1.087-3.579-0.346-3.579c0.704 0 1.299-0.63 1.299-1.405s-0.981-1.019-2.174-0.557c-1.575 0.599-2.143-0.179-2.143-2.909 0-2.804-0.735-3.749-2.878-3.749-1.617 0-2.878-0.945-2.878-2.174s-1.26-2.174-2.878-2.174c-2.31 0-2.878-0.945-2.878-5.052 0-3.508-0.663-5.052-2.143-5.052-1.649 0-2.174-1.828-2.174-7.928 0-6.942-0.346-7.928-2.878-7.928-2.699 0-2.878-0.945-2.878-15.113s0.179-15.113 2.878-15.113c2.31 0 2.878-0.945 2.878-5.052 0-3.508 0.663-5.052 2.174-5.052s2.143-1.511 2.143-5.052c0-4.064 0.557-5.052 2.878-5.052 1.617 0 2.878-0.945 2.878-2.174s1.26-2.143 2.878-2.143c1.933 0 2.878-0.945 2.878-2.878 0-1.617 0.945-2.878 2.143-2.878 1.511 0 2.174-1.511 2.174-5.052 0-3.854 0.599-5.052 2.52-5.052 1.405 0 3.329-1.299 4.317-2.878s3.367-2.878 5.367-2.878c2.248 0 3.579-0.809 3.579-2.174 0-1.828 3.193-2.143 20.124-2.143h20.124v-5.052c0-4.064-0.557-5.052-2.878-5.052-1.933 0-2.878-0.945-2.878-2.878 0-2.31-0.945-2.878-5.052-2.878h-5.052v-20.124h5.052c3.508 0 5.052-0.663 5.052-2.143 0-1.193 1.26-2.174 2.878-2.174s2.878 0.945 2.878 2.174c0 1.785 2.625 2.143 15.113 2.143s15.113-0.389 15.113-2.143c0-1.193 1.26-2.174 2.878-2.174 2.52 0 2.878-0.945 2.878-7.928v-7.928h-10.797c-8.623 0-10.797-0.42-10.797-2.174 0-1.193-0.981-2.143-2.143-2.143s-2.174-1.26-2.174-2.878c0-1.933-0.945-2.878-2.878-2.878-2.31 0-2.878-0.945-2.878-5.052s0.557-5.052 2.878-5.052c1.933 0 2.878-0.945 2.878-2.878 0-1.617 0.945-2.878 2.174-2.878s2.143-0.981 2.143-2.174c0-1.785 2.731-2.143 15.817-2.143 14.872 0 15.817-0.179 15.817-2.878 0-1.617 0.945-2.878 2.174-2.878s2.174-0.981 2.174-2.174c0-1.193 1.26-2.174 2.878-2.174 1.933 0 2.878-0.945 2.878-2.878 0-1.617 0.945-2.878 2.143-2.878s2.174-0.981 2.174-2.143c0-1.193-0.981-2.174-2.174-2.174s-2.143-1.26-2.143-2.878c0-1.933-0.945-2.878-2.878-2.878s-2.878 0.945-2.878 2.878c0 2.489-0.945 2.878-7.185 2.878s-7.185-0.389-7.185-2.878c0-2.31-0.945-2.878-5.052-2.878-3.508 0-5.052-0.663-5.052-2.174 0-1.193-1.26-2.143-2.878-2.143-2.52 0-2.878-0.945-2.878-7.928s0.346-7.928 2.878-7.928c1.617 0 2.878-0.945 2.878-2.143 0-1.511 1.511-2.174 5.052-2.174 4.064 0 5.052-0.557 5.052-2.878 0-2.489 0.945-2.878 7.185-2.878 5.435 0 7.185-0.525 7.185-2.174 0-1.193 1.26-2.143 2.878-2.143 2.31 0 2.878-0.945 2.878-5.052s-0.557-5.052-2.878-5.052c-1.933 0-2.878-0.945-2.878-2.878 0-2.668-0.945-2.878-12.236-2.878s-12.236-0.21-12.236-2.878c0-1.933-0.945-2.878-2.878-2.878-1.617 0-2.878-0.945-2.878-2.174s-1.26-2.143-2.878-2.143c-1.933 0-2.878-0.945-2.878-2.878 0-1.617-0.945-2.878-2.143-2.878-1.785 0-2.174-2.878-2.174-17.256s0.346-17.256 2.174-17.256c1.193 0 2.143-1.26 2.143-2.878 0-1.933 0.945-2.878 2.878-2.878 1.617 0 2.878-0.945 2.878-2.174s1.26-2.143 2.878-2.143c1.933 0 2.878-0.945 2.878-2.878 0-1.617 0.945-2.878 2.143-2.878 1.785 0 2.837-3.193 2.415-7.331-0.031-0.451 0.769-0.84 1.859-0.84s1.617 0.875 1.193 1.933c-0.42 1.050 0 1.933 0.84 1.933s1.575-1.299 1.575-2.878c0-1.933-0.945-2.878-2.878-2.878-1.617 0-2.878-0.945-2.878-2.174 0-1.649-1.828-2.174-7.928-2.174s-7.928 0.494-7.928 2.174c0 1.511-1.511 2.174-5.052 2.174s-5.052-0.663-5.052-2.174-1.511-2.174-5.052-2.174c-4.064 0-5.052-0.557-5.052-2.878 0-1.617-0.945-2.878-2.174-2.878-1.723 0-2.174-2.069-2.174-10.062s0.451-10.062 2.174-10.062c1.193 0 2.174-1.26 2.174-2.878 0-1.933 0.945-2.878 2.878-2.878 1.617 0 2.878-0.945 2.878-2.174s0.981-2.174 2.143-2.174c1.193 0 2.174-1.26 2.174-2.878 0-1.933 0.945-2.878 2.878-2.878 1.617 0 2.878-0.945 2.878-2.174s0.981-2.174 2.174-2.174c1.511 0 2.143-1.511 2.143-5.052v-5.052h-7.185c-5.435 0-7.185 0.525-7.185 2.174 0 1.723-2.069 2.174-10.062 2.174s-10.062-0.451-10.062-2.174c0-1.511-1.511-2.174-5.052-2.174-4.064 0-5.052-0.557-5.052-2.878s-0.945-2.878-5.052-2.878c-3.508 0-5.052-0.663-5.052-2.174s-1.511-2.174-5.052-2.174c-4.064 0-5.052-0.557-5.052-2.878 0-1.933-0.945-2.878-2.878-2.878-1.617 0-2.878-0.945-2.878-2.174s-0.981-2.174-2.174-2.174c-1.511 0-2.143-1.511-2.143-5.052 0-4.064-0.557-5.052-2.878-5.052-1.933 0-2.878-0.945-2.878-2.878s-0.945-2.878-2.878-2.878c-1.933 0-2.878-0.945-2.878-2.878 0-1.617-0.945-2.878-2.143-2.878-1.511 0-2.174-1.511-2.174-5.052 0-4.064-0.557-5.052-2.878-5.052s-2.878-0.945-2.878-5.052c0-4.064 0.557-5.052 2.878-5.052s2.878-0.945 2.878-5.052c0-4.8 0.241-5.052 5.052-5.052 3.508 0 5.052-0.663 5.052-2.174 0-1.859 4.064-2.174 28.053-2.174 27.108 0 28.053-0.105 28.053-2.878 0-1.617 0.945-2.878 2.174-2.878s2.174-0.981 2.174-2.174c0-1.511 1.511-2.174 5.052-2.174 4.064 0 5.052-0.557 5.052-2.878 0-1.933 0.945-2.878 2.878-2.878 1.617 0 2.878-0.945 2.878-2.174 0-1.365 1.439-2.205 3.959-2.279 2.174-0.074 3.155-0.451 2.174-0.84-2.699-1.087-2.143-4.8 0.704-4.768 2.174 0.031 2.205 0.241 0.346 1.544-1.933 1.365-1.933 1.47 0 0.945 1.193-0.315 2.353-1.995 2.625-3.718 0.284-1.964 1.47-3.119 3.224-3.119 1.828 0 2.773-0.981 2.773-2.878 0-1.617 0.945-2.878 2.143-2.878 1.511 0 2.174-1.511 2.174-5.052v-5.052h-12.939c-11.994 0-12.939 0.21-12.939 2.878s-0.945 2.878-15.113 2.878-15.113-0.179-15.113-2.878c0-2.31-0.945-2.878-5.052-2.878-3.508 0-5.052-0.663-5.052-2.174 0-1.193-0.981-2.174-2.174-2.174s-2.174-1.26-2.174-2.878c0-1.933-0.945-2.878-2.878-2.878s-2.878-0.945-2.878-2.878c0-1.617-0.945-2.878-2.143-2.878s-2.174-0.981-2.174-2.174c0-1.193-1.26-2.174-2.878-2.174-2.31 0-2.878-0.945-2.878-5.052 0-3.508-0.663-5.052-2.174-5.052-1.649 0-2.143-1.828-2.143-7.928 0-6.942-0.346-7.928-2.878-7.928-2.31 0-2.878-0.945-2.878-5.052s-0.557-5.052-2.878-5.052c-2.773 0-2.878-0.945-2.878-28.053s0.105-28.053 2.878-28.053c2.31 0 2.878-0.945 2.878-5.052s0.557-5.052 2.878-5.052c1.617 0 2.878-0.945 2.878-2.174s0.981-2.174 2.143-2.174c1.544 0 2.174-1.544 2.174-5.262v-5.262l3.224 2.731c2.625 2.248 2.837 2.279 1.26 0.21-1.299-1.649-1.405-2.52-0.346-2.52 0.875 0 1.617-1.299 1.617-2.878s0.945-2.878 2.174-2.878c1.193 0 2.143-0.981 2.143-2.174 0-1.511 1.511-2.143 5.052-2.143 4.064 0 5.052-0.557 5.052-2.878 0-1.933 0.945-2.878 2.878-2.878 1.617 0 2.878-0.945 2.878-2.174 0-1.511 1.511-2.174 5.052-2.174 4.064 0 5.052-0.557 5.052-2.878 0-2.489 0.945-2.878 7.185-2.878 5.435 0 7.185-0.525 7.185-2.143 0-1.193 1.26-2.174 2.878-2.174 1.933 0 2.878-0.945 2.878-2.878 0-2.594 0.945-2.878 10.062-2.878s10.062 0.284 10.062 2.878c0 2.31 0.945 2.878 5.052 2.878 3.508 0 5.052 0.663 5.052 2.174s1.511 2.143 5.052 2.143c4.064 0 5.052 0.557 5.052 2.878s0.945 2.878 5.052 2.878c3.508 0 5.052 0.663 5.052 2.174 0 1.193 1.26 2.174 2.878 2.174 2.31 0 2.878 0.945 2.878 5.052 0 3.508 0.663 5.052 2.143 5.052 1.785 0 2.174 2.943 2.174 17.991s-0.346 17.991-2.174 17.991c-1.193 0-2.143 0.981-2.143 2.174s-1.26 2.143-2.878 2.143c-1.933 0-2.878 0.945-2.878 2.878 0 2.31-0.945 2.878-5.052 2.878s-5.052 0.557-5.052 2.878c0 2.731-0.945 2.878-20.124 2.878-16.94 0-20.124 0.346-20.124 2.174 0 1.193-1.26 2.174-2.878 2.174-1.933 0-2.878 0.945-2.878 2.878s0.945 2.878 2.878 2.878c1.617 0 2.878 0.945 2.878 2.174 0 1.617 1.754 2.174 7.185 2.174 6.238 0 7.185 0.389 7.185 2.878 0 2.731 0.945 2.878 17.991 2.878s17.991-0.136 17.991-2.878c0-2.31 0.945-2.878 5.052-2.878 3.508 0 5.052-0.663 5.052-2.174s1.511-2.174 5.052-2.174c4.064 0 5.052-0.557 5.052-2.878 0-1.933 0.945-2.878 2.878-2.878 1.617 0 2.878-0.945 2.878-2.174s0.981-2.174 2.143-2.174c1.193 0 2.174-1.26 2.174-2.878 0-1.933 0.945-2.878 2.878-2.878 2.31 0 2.878-0.945 2.878-5.052 0-3.508 0.663-5.052 2.143-5.052 1.193 0 2.174-1.26 2.174-2.878 0-1.933 0.945-2.878 2.878-2.878 2.773 0 2.878-0.945 2.878-30.227s-0.105-30.227-2.878-30.227c-1.617 0-2.878-0.945-2.878-2.174s-0.981-2.143-2.174-2.143c-1.511 0-2.143-1.511-2.143-5.052 0-4.064-0.557-5.052-2.878-5.052-1.933 0-2.878-0.945-2.878-2.878 0-1.617-0.945-2.878-2.174-2.878s-2.143-1.26-2.143-2.878c0-1.933-0.945-2.878-2.878-2.878-2.31 0-2.878-0.945-2.878-5.052 0-4.8-0.241-5.052-5.052-5.052-3.508 0-5.052-0.663-5.052-2.174 0-1.617-1.754-2.174-7.185-2.174s-7.185 0.525-7.185 2.174c0 1.511-1.511 2.174-5.052 2.174s-5.052-0.663-5.052-2.174-1.511-2.174-5.052-2.174c-4.064 0-5.052-0.557-5.052-2.878 0-1.933-0.945-2.878-2.878-2.878-1.617 0-2.878-0.945-2.878-2.143s-1.26-2.174-2.878-2.174c-1.933 0-2.878-0.945-2.878-2.878 0-2.594-0.945-2.878-10.062-2.878-8.623 0-10.062 0.346-10.062 2.52 0 1.365-1.617 3.261-3.613 4.169s-3.224 1.087-2.804 0.389c0.42-0.704-0.21-0.914-1.439-0.42s-2.248 1.439-2.248 2.143-3.224 1.299-7.185 1.299c-5.435 0-7.185-0.525-7.185-2.143 0-1.193-1.26-2.174-2.878-2.174-1.933 0-2.878-0.945-2.878-2.878 0-1.617-0.945-2.878-2.174-2.878s-2.174-0.981-2.174-2.174c0-1.193-1.26-2.143-2.878-2.143-1.933 0-2.878-0.945-2.878-2.878 0-2.31-0.945-2.878-5.052-2.878s-5.052 0.557-5.052 2.878zM484.367 476.406c0 2.52 0.945 2.878 7.928 2.878 6.071 0 7.928 0.494 7.928 2.174s1.754 2.174 7.185 2.174c6.238 0 7.185 0.389 7.185 2.878 0 2.31 0.945 2.878 5.052 2.878 3.508 0 5.052 0.663 5.052 2.174s1.649 2.205 5.398 2.31c2.983 0.105 6.028 0.241 6.837 0.346 1.828 0.241 2.594 3.088 0.84 3.088-0.735 0-1.859 0.557-2.52 1.229s0.105 1.087 1.68 0.914c6.869-0.735 9.359 0.031 9.359 2.909 0 2.31 0.945 2.878 5.052 2.878 3.508 0 5.052 0.663 5.052 2.174 0 1.193 0.981 2.174 2.143 2.174s2.174 1.26 2.174 2.878c0 1.933 0.945 2.878 2.878 2.878 1.617 0 2.878 0.945 2.878 2.143s0.981 2.174 2.174 2.174c1.193 0 2.143 1.26 2.143 2.878 0 1.933 0.945 2.878 2.878 2.878 1.617 0 2.878 0.945 2.878 2.143s0.981 2.174 2.174 2.174c1.193 0 2.174 1.26 2.174 2.878 0 1.933 0.945 2.878 2.878 2.878 1.617 0 2.878 0.945 2.878 2.174s0.981 2.143 2.143 2.143c1.193 0 2.174 1.26 2.174 2.878 0 1.933 0.945 2.878 2.878 2.878 1.617 0 2.878 0.945 2.878 2.143s0.981 2.174 2.174 2.174c1.511 0 2.143 1.511 2.143 5.052 0 4.064 0.557 5.052 2.878 5.052s2.878 0.945 2.878 5.052c0 3.508 0.663 5.052 2.174 5.052s2.174 1.511 2.174 5.052c0 4.064 0.557 5.052 2.878 5.052 2.384 0 2.878 0.945 2.878 5.753 0 4.169 0.599 5.753 2.143 5.753 1.649 0 2.174 1.754 2.174 7.185 0 6.238 0.389 7.185 2.878 7.185 2.668 0 2.878 0.945 2.878 12.939s0.21 12.939 2.878 12.939c2.731 0 2.878 0.945 2.878 18.128 0 15.355-0.315 18.023-2.1 17.319-1.155-0.451-2.489-0.179-2.943 0.557s0.494 1.365 2.1 1.365c1.617 0 2.943 0.63 2.943 1.439s-0.494 1.365-1.087 1.26c-4.107-0.63-4.663 0.599-4.663 10.24 0 9.116-0.284 10.062-2.878 10.062-2.52 0-2.878 0.945-2.878 7.928 0 6.071-0.494 7.928-2.174 7.928-1.511 0-2.143 1.511-2.143 5.052 0 4.064-0.557 5.052-2.878 5.052-2.489 0-2.878 0.945-2.878 7.185 0 5.435-0.525 7.185-2.174 7.185-1.193 0-2.174 1.26-2.174 2.878 0 1.933-0.945 2.878-2.878 2.878-2.668 0-3.928 3.959-2.983 9.148 0.136 0.704-0.769 0.875-1.995 0.42-1.544-0.599-2.205 0.031-2.205 1.995 0 1.859-0.981 2.837-2.878 2.837-2.31 0-2.878 0.945-2.878 5.052 0 3.508-0.663 5.052-2.174 5.052-1.193 0-2.143 1.26-2.143 2.878 0 2.31-0.945 2.878-5.052 2.878s-5.052 0.557-5.052 2.878c0 1.933-0.945 2.878-2.878 2.878-1.617 0-2.878 0.945-2.878 2.143s-0.981 2.174-2.143 2.174c-1.193 0-2.174 1.26-2.174 2.878 0 1.933-0.945 2.878-2.878 2.878-1.617 0-2.878 0.945-2.878 2.174s-0.981 2.143-2.174 2.143c-1.193 0-2.143 1.26-2.143 2.878 0 2.31-0.945 2.878-5.052 2.878-3.508 0-5.052 0.663-5.052 2.174s-1.617 2.174-5.753 2.174c-4.8 0-5.753 0.494-5.753 2.878 0 2.31-0.945 2.878-5.052 2.878-3.508 0-5.052 0.663-5.052 2.143 0 1.193-0.981 2.174-2.174 2.174s-2.174 1.26-2.174 2.878c0 2.699-0.945 2.878-15.113 2.878-12.487 0-15.113 0.389-15.113 2.174 0 1.859-4.632 2.143-33.105 2.143s-33.105-0.315-33.105-2.143c0-1.754-2.384-2.174-12.939-2.174-11.994 0-12.939-0.21-12.939-2.878 0-2.31-0.945-2.878-5.052-2.878-3.508 0-5.052-0.663-5.052-2.174s-1.511-2.143-5.052-2.143c-4.064 0-5.052-0.557-5.052-2.878 0-1.617-0.945-2.878-2.174-2.878s-2.174-0.981-2.174-2.174c0-1.511-1.511-2.174-5.052-2.174-4.064 0-5.052-0.557-5.052-2.878 0-2.384-0.945-2.878-5.753-2.878-4.169 0-5.753-0.599-5.753-2.143 0-1.193-0.981-2.174-2.174-2.174s-2.174-1.26-2.174-2.878c0-1.933-0.945-2.878-2.878-2.878-1.617 0-2.878-0.945-2.878-2.174s-0.981-2.143-2.174-2.143c-1.193 0-2.174-1.26-2.174-2.878 0-1.933-0.945-2.878-2.878-2.878s-2.878-0.945-2.878-2.878c0-1.617-0.945-2.878-2.174-2.878-1.511 0-2.174-1.511-2.174-5.052 0-4.064-0.557-5.052-2.878-5.052-1.617 0-2.878-0.945-2.878-2.174s-0.981-2.143-2.174-2.143c-1.193 0-2.174-1.26-2.174-2.878 0-1.933-0.945-2.878-2.878-2.878-2.31 0-2.878-0.945-2.878-5.052 0-3.508-0.663-5.052-2.174-5.052s-2.174-1.511-2.174-5.052c0-4.064-0.557-5.052-2.878-5.052s-2.878-0.945-2.878-5.052c0-3.508-0.663-5.052-2.174-5.052s-2.174-1.511-2.174-5.052c0-4.064-0.557-5.052-2.878-5.052-2.594 0-2.878-0.945-2.878-10.062 0-7.992-0.451-10.062-2.174-10.062-1.859 0-2.174-4.873-2.174-35.237s0.315-35.237 2.174-35.237c1.723 0 2.174-2.069 2.174-10.062 0-9.116 0.284-10.062 2.878-10.062 2.384 0 2.878-0.945 2.878-5.753 0-4.169 0.599-5.753 2.174-5.753 1.511 0 2.174-1.511 2.174-5.052 0-4.064 0.557-5.052 2.878-5.052s2.878-0.945 2.878-5.052c0-3.508 0.663-5.052 2.174-5.052s2.174-1.511 2.174-5.052c0-4.064 0.557-5.052 2.878-5.052 1.617 0 2.878-0.945 2.878-2.174s0.981-2.143 2.174-2.143c1.511 0 2.174-1.511 2.174-5.052 0-4.064 0.557-5.052 2.878-5.052 1.933 0 2.878-0.945 2.878-2.878 0-2.31 0.945-2.878 5.052-2.878 3.508 0 5.052-0.663 5.052-2.174 0-1.193 0.981-2.143 2.174-2.143s2.174-1.26 2.174-2.878c0-1.933 0.945-2.878 2.878-2.878 1.617 0 2.878-0.945 2.878-2.174s0.981-2.143 2.174-2.143c1.193 0 2.174-1.26 2.174-2.878 0-1.933 0.945-2.878 2.878-2.878 1.617 0 2.878-0.945 2.878-2.174 0-1.511 1.511-2.174 5.052-2.174 4.064 0 5.052-0.557 5.052-2.878s0.945-2.878 5.052-2.878c4.064 0 5.052-0.557 5.052-2.878 0-1.933 0.945-2.878 2.878-2.878 1.617 0 2.878-0.945 2.878-2.174 0-1.511 1.511-2.174 5.052-2.174 4.064 0 5.052-0.557 5.052-2.878 0-2.489 0.945-2.878 7.185-2.878 5.435 0 7.185-0.525 7.185-2.174 0-1.723 2.069-2.174 10.062-2.174 9.116 0 10.062-0.284 10.062-2.878 0-2.773 0.945-2.878 28.053-2.878s28.053 0.105 28.053 2.878zM662.742 491.488c0 1.193 0.981 2.174 2.174 2.174s2.174 1.26 2.174 2.878c0 1.933 0.945 2.878 2.878 2.878s2.878 0.945 2.878 2.878c0 1.617 0.945 2.878 2.143 2.878s2.174 0.981 2.174 2.174c0 1.193 1.26 2.174 2.878 2.174 2.31 0 2.878 0.945 2.878 5.052 0 3.508 0.663 5.052 2.174 5.052 1.193 0 2.143 1.26 2.143 2.878 0 1.933 0.945 2.878 2.878 2.878 2.31 0 2.878 0.945 2.878 5.052 0 3.508 0.663 5.052 2.174 5.052s2.174 1.511 2.174 5.052c0 4.064 0.557 5.052 2.878 5.052s2.878 0.945 2.878 5.052c0 3.508 0.663 5.052 2.143 5.052 1.649 0 2.174 1.754 2.174 7.185 0 6.207 0.389 7.185 2.837 7.185 2.668 0 2.878 1.193 3.224 18.338 0.315 14.935 0.769 18.267 2.458 17.918 1.754-0.389 1.754-0.105 0 2.069-1.299 1.617-1.405 2.143-0.241 1.439 1.405-0.84 1.785 3.049 1.785 17.708 0 15.744-0.346 18.796-2.143 18.796-1.649 0-2.174 1.828-2.174 7.928 0 6.942-0.346 7.928-2.878 7.928-1.617 0-2.878 0.945-2.878 2.143s-0.981 2.174-2.174 2.174c-1.511 0-2.143 1.511-2.143 5.052 0 4.064-0.557 5.052-2.878 5.052-1.933 0-2.878 0.945-2.878 2.878 0 1.617-0.945 2.878-2.174 2.878s-2.174 1.26-2.174 2.878c0 2.31-0.945 2.878-5.052 2.878-4.905 0-5.052-0.136-5.052-5.753 0-4.8-0.494-5.753-2.878-5.753-1.617 0-2.878-0.945-2.878-2.143s1.26-2.174 2.878-2.174c2.668 0 2.878-0.945 2.878-12.939s-0.21-12.939-2.878-12.939c-2.773 0-2.878-0.945-2.878-22.298 0-18.863-0.315-22.298-2.174-22.298-1.723 0-2.143-2.174-2.143-10.797 0-9.82-0.241-10.797-2.878-10.797-2.489 0-2.878-0.945-2.878-7.185 0-5.435-0.525-7.185-2.174-7.185-1.511 0-2.174-1.511-2.174-5.052 0-4.064-0.557-5.052-2.878-5.052s-2.878-0.945-2.878-5.052c0-3.508-0.663-5.052-2.143-5.052-1.193 0-2.174-1.26-2.174-2.878 0-1.933-0.945-2.878-2.878-2.878-2.31 0-2.878-0.945-2.878-5.052 0-3.508-0.663-5.052-2.174-5.052s-2.143-1.511-2.143-5.052c0-4.064-0.557-5.052-2.878-5.052-2.699 0-2.878-0.945-2.878-15.113v-15.113h12.939c10.555 0 12.939 0.389 12.939 2.174z"></path>
</svg>
