<!-- Generated by IcoMoon.io -->
<svg version="1.1" xmlns="http://www.w3.org/2000/svg" width="1024" height="1024" viewBox="0 0 1024 1024">
<title></title>
<g id="icomoon-ignore">
</g>
<path fill="#000" d="M731.060 340.344c-6.418-20.391-13.799-40.648-19.13-61.5-0.123-1.681-0.205-3.609-0.205-5.536 0-6.12 0.759-12.036 2.225-17.705l-0.123 0.502c5.956 4.070 14.599 6.756 17.243 12.251 9.401 19.13 16.608 39.387 24.963 59.153 1.589 3.691 3.229 6.797 5.034 9.729l-0.205-0.338c3.609-3.444 10.529-6.92 10.364-10.364 0.041-1.087 0.041-2.389 0.041-3.732 0-11.995-1.64-23.661-4.654-34.692l0.205 0.923c-7.043-23.241-16.608-45.641-23.999-68.882-0.082-1.087-0.123-2.348-0.123-3.65 0-5.495 0.923-10.785 2.604-15.685l-0.082 0.338c5.997 1.968 11.205 4.736 15.818 8.263l-0.123-0.082c7.094 7.135 12.917 15.48 17.202 24.707l0.205 0.543c25.424 60.865 53.196 123.165 8.478 186.090-18.289 25.588-39.808 47.363-64.309 65.355l-0.8 0.543c-36.076 25.588-76.56 44.718-114.226 68.082-48.788 30.458-82.681 109.827-70.932 165.7 3.147 8.683 7.843 16.106 13.84 22.318v0c21.98 29.32 21.98 31.381-6.582 51.136-1.087 0-2.522 0.8-3.609 1.425-12.999 7.217-28.572 22.738-38.598 19.929-19.632-8.017-36.291-19.673-49.793-34.272l-0.082-0.082c-2.43-3.947-3.906-8.724-3.906-13.84 0-4.449 1.087-8.642 3.024-12.333l-0.082 0.123c27.936-24.625 16.608-56.467 15.685-84.567-3.065-22.615-11.205-42.873-23.2-60.24l0.297 0.461c-28.233-47.066-76.899-69.969-123.79-94.132-24.502-12.036-45.6-25.588-64.976-41.151l0.666 0.502c-59.153-50.839-70.604-116.573-50.51-188.274 9.36-26.972 19.929-50.049 32.467-71.855l-1.087 2.050c2.184-4.408 10.364-5.792 15.685-8.478 0 5.659 3.609 11.913 2.050 16.608-7.094 26.593-15.521 49.373-25.712 71.147l1.087-2.604c-3.229 6.961-5.116 15.101-5.116 23.702 0 10.323 2.727 19.97 7.463 28.356l-0.164-0.297c1.425 3.773 6.295 6.295 9.729 9.268 2.563-3.486 4.911-7.463 6.879-11.666l0.164-0.42c8.017-22.615 15.685-45.641 23.866-68.082 1.886-4.695 9.903-7.043 15.685-10.529 0.205 2.891 0.297 6.254 0.297 9.647s-0.123 6.756-0.338 10.108l0.041-0.461c-4.695 31.381-19.755 59.317-9.565 94.132 11.287 38.301 43.457 52.397 70.932 72.49 3.609 2.686 15.685-1.425 20.391-5.956q31.381-33.103 61.203-68.718c5.157-4.87 8.386-11.79 8.386-19.427 0-10.282-5.833-19.212-14.342-23.661l-0.164-0.082c-24.246-19.427-40.187-48.286-42.196-80.958v-0.338c-0.256-2.102-0.379-4.531-0.379-7.002 0-5.198 0.584-10.231 1.722-15.101l-0.082 0.461c1.886-4.316 4.367-7.966 7.381-11.154v0c1.804 2.43 3.65 5.239 5.372 8.14l0.256 0.461c10.652 20.391 19.755 41.909 32.303 61.039 29.033 44.554 74.377 52.223 119.218 26.347 31.381-18.371 55.37-39.562 57.092-78.447 0-5.956 8.478-11.451 12.999-17.11 2.348 5.495 4.234 11.154 7.043 16.485 12.374 23.999 0 44.093-10.826 63.848-5.874 8.427-12.497 15.777-19.929 22.154l-0.164 0.123c-12.538 13.635-34.354 27.137-34.815 41.274s22.277 26.347 34.989 39.562c3.527 3.988 7.176 7.638 10.99 11.031l0.123 0.123c17.746 14.599 28.859 42.032 61.326 26.214s62.761-36.24 61.5-79.995c0-5.157 0-10.529 0-15.685zM586.879 461.623c-1.466-4.531-3.444-8.478-5.915-12.077l0.123 0.164c-20.217-18.371-40.146-37.337-61.839-53.986-5.495-4.193-12.456-6.715-20.052-6.715-9.688 0-18.412 4.152-24.502 10.785l-0.041 0.041c-18.043 15.685-34.989 33.728-53.022 49.875-13.174 11.748-10.99 21.478 1.425 31.381 16.782 13.973 32.929 28.572 50.213 41.909s34.692 20.094 53.484-1.548c14.763-14.475 30.499-28.192 46.943-40.987l1.22-0.923c4.572-5.198 8.56-11.072 11.707-17.408l0.205-0.461z"></path>
</svg>
