<!-- Generated by IcoMoon.io -->
<svg version="1.1" xmlns="http://www.w3.org/2000/svg" width="512" height="512" viewBox="0 0 512 512">
<title>Knives of the Crone</title>
<g id="icomoon-ignore">
</g>
<path fill="#000" d="M435.426 30.422c3.368 7.296 4.051 48.944 0.983 59.947-5.358 19.212-14.839 31.603-30.555 39.945-21.891 11.618-37.714 21.172-48.546 29.316-7.493 5.632-43.031 43.686-49.408 52.904l-3.567 5.16 2.587 2.738c3.646 3.858 19.949 16.105 40.825 30.667 73.5 51.272 84.548 79.502 43.889 112.138-27.24 21.863-47.885 33.11-70.326 38.318-21.151 4.909-27.894-2.748-41.226-46.812-3.478-11.498-9.597-28.993-13.597-38.879-4-9.888-7.296-18.741-7.322-19.676-0.081-2.785-3.021 3.479-10.956 23.353-4.129 10.344-9.227 22.213-11.328 26.375-2.1 4.161-5.173 11.161-6.826 15.554-5.577 14.821-15.157 33.060-19.109 36.384-9.84 8.279-45.647 1.022-69.778-14.144-3.043-1.912-7.522-4.394-9.953-5.512-18.695-8.606-32.707-46.699-26.27-71.411 6.008-23.065 50.902-57.814 98.833-76.497 20.29-7.91 19.164-7.076 15.913-11.793-17.014-24.686-65.138-61.967-90.819-70.355-29.456-9.62-48.632-76.368-30.481-106.1 11.947-19.572-34.668 20.916-48.565 42.179-3.623 5.546-9.504 20.703-14.072 36.275-4.238 14.438-5.227 48.912-1.891 65.787l2.187 11.067 9.215 0.614c5.066 0.338 11.899 0.225 15.182-0.253 3.281-0.476 13.319-1.030 22.305-1.229 30.337-0.672 28.609 8.537-6.741 35.913-5.675 4.397-16.908 13.802-24.96 20.903-14.727 12.986-34.992 29.257-45.428 36.471l-5.622 3.887 1.704 8.938c5.222 27.403 55.739 107.671 79.487 126.296 13.895 10.897 43.653 31.428 48.91 33.744 3.043 1.342 12.174 5.377 20.288 8.969 9.698 4.292 17.286 6.821 22.134 7.373 4.059 0.462 11.15 1.611 15.759 2.553s11.011 1.714 14.226 1.714c3.214 0 8.606 0.82 11.982 1.822 8.427 2.502 67.989 2.932 85.123 0.613 13.132-1.776 60.5-16.269 77.873-23.825 25.666-11.164 70.573-46.861 87.98-69.936 21.374-28.334 40.175-66.719 46.341-94.611 0.675-3.046-0.041-3.863-8.19-9.377-4.909-3.322-10.033-7.288-11.385-8.816s-5.225-4.836-8.608-7.35c-3.382-2.514-8.916-7.318-12.298-10.675-3.38-3.356-10.53-9.050-15.887-12.657-13.479-9.071-45.82-41.47-44.122-44.2 5.336-8.588 36.986-17.894 71.692-21.080 8.453-0.777 15.793-1.806 16.308-2.29 3.993-3.739 1.714-48.248-3.418-66.719-6.848-24.642-12.022-39.989-15.272-45.287-1.868-3.043-4.823-8.023-6.567-11.067-4.666-8.138-22.353-24.892-31.015-29.375-10.043-5.201-10.851-4.986-7.615 2.015z"></path>
</svg>
