<!-- Generated by IcoMoon.io -->
<svg version="1.1" xmlns="http://www.w3.org/2000/svg" width="1024" height="1024" viewBox="0 0 1024 1024">
<title></title>
<g id="icomoon-ignore">
</g>
<path fill="#000" d="M618.235 757.905c0-10.44 0-21.078 0-31.472 1.242-19.254-1.242-22.504-18.012-20.496-1.441 0-3.403 0-4.308 0-19.975 16.71-46.265 14.747-68.539 24.282-6.224 4.262-13.889 6.76-22.121 6.76-9.443 0-18.104-3.311-24.911-8.815l0.092 0.046c-15.851-11.497-42.479-6.132-61.886-18.917-6.469-4.308-17.093-2.345-25.723-3.066 0 7.573 2.345 15.131 2.545 22.657 0 18.012 0 35.964 0 53.976 0 3.403-3.587 6.469-5.411 9.719-2.545-1.625-6.316-2.683-7.19-4.844-7.757-18.012-23.378-39.75-13.705-57.763s0-27.164-10.056-35.964-20.695-16.188-31.135-24.282c-27.348-20.879-46.418-45.698-41.758-82.949 0-1.196-0.046-2.637-0.046-4.078 0-23.378 2.637-46.127 7.619-67.957l-0.383 2.054c8.615-24.804-4.308-51.631-14.946-75.775-6.699-16.433-10.578-35.442-10.578-55.417 0-15.514 2.345-30.506 6.699-44.64l-0.291 1.058c9.244-32.959 22.995-61.733 40.762-87.548l-0.628 0.966c12.264-18.488 28.253-33.526 47.032-44.257l0.674-0.337c44.058-28.406 97.896-45.269 155.658-45.269 5.703 0 11.344 0.138 17.001 0.475l-0.766-0.046c14.027 1.196 26.965 4.17 39.137 8.769l-1.012-0.337c33.388 10.777 62.223 23.761 89.234 39.459l-2.161-1.15c36.791 24.098 62.454 62.5 69.168 107.094l0.092 0.859c1.15 6.377 2.775 11.973 4.89 17.384l-0.245-0.628c5.227 13.367 8.232 28.835 8.232 44.977 0 21.6-5.365 41.912-14.854 59.725l0.337-0.674c-4.737 9.244-8.999 20.067-12.111 31.365l-0.291 1.196c-1.058 3.204-1.671 6.898-1.671 10.685 0 4.89 1.012 9.581 2.867 13.797l-0.092-0.245c18.012 25.723 13.506 53.976 12.402 82.045-0.429 20.113-4.017 39.229-10.302 57.088l0.383-1.288c-7.082 13.122-15.621 24.374-25.524 34.201v0c0 0.905-3.066 0-4.124 1.242-17.154 9.811-31.748 21.799-44.119 35.826l-0.138 0.184c-7.757 12.264-3.403 31.855-5.749 48.043-2.299 14.701-5.319 27.486-9.152 39.949l0.521-1.962c0 3.403-4.507 5.933-6.852 8.815-1.778-3.541-3.158-7.665-3.924-11.973l-0.046-0.291c0-10.44 0-20.879 0-31.319zM438.294 579.39c0 5.749-1.962 11.344-2.545 16.909 0 14.226-7.036 30.936-1.441 41.912 13.889 24.037 28.973 44.824 45.882 63.94l-0.337-0.429s18.012-7.036 18.012-12.065c1.533-10.639 2.392-22.887 2.392-35.35 0-6.224-0.245-12.402-0.674-18.534l0.046 0.813c-2.345-46.986-10.961-55.080-57.042-57.042h-4.507c3.066-4.844 4.844-10.961 8.999-14.027 8.094-5.749 18.012-7.91 18.012-21.937s-9.535-18.012-18.012-26.827c-33.281-30.936-73.046-26.291-112.459-25.386-3.403 0-8.999 3.25-9.719 5.933 0 0.184 0 0.429 0 0.674 0 4.17 1.625 7.91 4.354 10.685v0c18.012 19.070 38.309 37.067 56.138 57.042 9.106 10.194 22.274 16.571 36.929 16.571 5.994 0 11.727-1.058 17.001-3.020l-0.337 0.092zM647.408 490.692c-32.959-6.316-59.004 10.961-82.949 32.039-5.411 4.461-8.815 11.16-8.815 18.626s3.403 14.18 8.769 18.58l0.046 0.046c6.27 5.611 13.321 10.685 20.787 14.992l0.628 0.337c6.224 2.637 13.46 4.17 21.078 4.17 13.705 0 26.245-4.982 35.872-13.214l-0.092 0.046c11.927-16.771 23.899-36.071 34.584-56.138l1.395-2.867c1.824-3.066-3.786-13.705-8.477-15.851-3.633-0.766-7.803-1.196-12.065-1.196-3.541 0-7.036 0.291-10.44 0.859l0.383-0.046zM581.168 622.206c0.245-3.495 0.429-7.573 0.429-11.681s-0.138-8.186-0.429-12.264l0.046 0.521c-2.345-14.027-11.881-18.012-25.57-18.012s-29.172-1.441-33.664 14.41c-5.933 20.879 1.962 43.199-8.293 64.952-4.507 8.999 3.786 24.804 7.91 35.964 0.905 2.867 11.344 5.933 12.601 4.691 11.497-12.984 21.078-28.253 33.48-40.133 9.106-7.466 14.854-18.733 14.854-31.319 0-2.545-0.245-5.028-0.674-7.42l0.046 0.245z"></path>
<path fill="#000" d="M471.238 738.313c4.308 3.25 12.065 5.933 12.601 9.535 3.786 30.414-3.066 61.886 9.719 91.58 0 0.092 0 0.245 0 0.337 0 2.867-1.487 5.411-3.74 6.852h-0.046c-1.824 0-5.411-1.625-7.374-3.403-23.041-19.776-35.964-73.429-23.562-97.712 1.625-2.545 7.374-4.124 12.402-7.19z"></path>
<path fill="#000" d="M584.617 728.196c6.852 3.971 15.468 6.27 15.667 9.336 1.441 16.188 15.131 30.215 2.867 49.285-8.615 13.705-7.19 33.817-25.907 41.912-1.441-14.41-3.403-28.789-3.971-43.199-0.429-6.607-0.674-14.364-0.674-22.121s0.245-15.514 0.72-23.179l-0.046 1.058c0.905-4.124 7.036-7.91 11.344-13.122z"></path>
<path fill="#000" d="M432.162 731.461c1.441 2.161 7.573 8.615 6.469 10.255-18.012 25.723 0 50.573 1.242 75.775-0.813 4.4-2.345 8.339-4.4 11.881l0.092-0.184c-3.587-2.345-8.815-4.124-10.44-7.573-7.42-14.226-14.793-31.365-20.925-49.040l-0.813-2.775c-0.429-1.916-0.674-4.124-0.674-6.423 0-16.771 12.877-30.552 29.311-31.901h0.092z"></path>
<path fill="#000" d="M557.070 777.864c0.291 2.591 0.475 5.55 0.475 8.523 0 19.254-6.99 36.837-18.534 50.389l0.092-0.092-6.852 10.44c-1.441-3.971-4.507-8.094-4.124-11.881 1.242-18.012 3.786-34.722 5.411-52.213 0-6.852 3.066-15.468 0-20.695-8.815-15.284 2.545-18.012 12.065-20.496 2.345 0 8.477 8.999 10.255 14.946 0.966 4.507 1.487 9.719 1.487 15.039 0 2.1-0.092 4.216-0.245 6.27v-0.291z"></path>
</svg>
