<!-- Generated by IcoMoon.io -->
<svg version="1.1" xmlns="http://www.w3.org/2000/svg" width="512" height="512" viewBox="0 0 512 512">
<title>Helsmiths of Hashut</title>
<g id="icomoon-ignore">
</g>
<path fill="#000" d="M244.607 36.132c-15.368 7.853-32.504 15.114-39.411 16.7-1.594 0.367-4.42 1.421-6.28 2.344-1.859 0.923-5.336 1.998-7.727 2.389s-5.122 1.118-6.069 1.616c-0.948 0.498-5.172 1.511-9.388 2.252s-8.441 1.763-9.388 2.269c-0.946 0.506-3.894 1.217-6.552 1.579-2.656 0.361-10.263 1.544-16.905 2.631-10.791 1.763-16.721 1.987-55.725 2.094l-43.648 0.121-2.72 2.608c-4.153 3.981-9.111 21.172-11.37 39.415-0.362 2.922-1.32 7.686-2.128 10.588-1.439 5.162-2.245 9.377-6.108 31.918-1.046 6.11-2.376 13.065-2.955 15.456-4.025 16.641 11.305 23.378 19.038 8.367 5.87-11.395 19.976-25.216 30.785-30.16 13.667-6.251 59.109-3.764 71.385 3.907 1.099 0.688 3.648 1.773 5.661 2.41 3.951 1.254 6.459 5.194 10.47 16.442 3.22 9.028 3.55 10.335 2.887 11.406-0.65 1.052-15.267 8.064-19.531 9.368-2.572 0.787-11.608 4.736-15.361 6.712-1.329 0.7-3.802 1.57-5.499 1.931-3.959 0.846-10.785 5.782-11.802 8.535-1.843 4.978 10.257 13.283 27.144 18.63 4.417 1.399 10.203 3.327 12.861 4.286 2.657 0.958 7.422 2.325 10.589 3.040 6.282 1.418 6.881 2.269 11.441 16.274 0.779 2.391 1.885 5.651 2.456 7.245 0.572 1.594 2.174 6.811 3.563 11.593 4.094 14.111 7.114 19.537 14.953 26.858 12.416 11.597 15.119 17.265 16.413 34.425 0.505 6.675 1.411 15.223 2.018 18.995 1.212 7.536 1.682 6.053-6.238 19.707-4.231 7.295-2.548 11.284 6.875 16.3 2.669 1.421 2.832 4.812 0.381 7.963-0.985 1.266-2.356 4.043-3.044 6.168-0.69 2.125-1.948 4.931-2.797 6.236-2.685 4.123-2.218 30.248 0.629 35.289 1.196 2.118 2.174 4.384 2.174 5.038 0 3.873 13.953 20.245 19.768 23.194 1.613 0.817 3.507 1.948 4.21 2.509 18.709 14.962 57.723 4.789 73.918-19.276 10.449-15.527 10.529-47.362 0.149-59.27-3.146-3.608-2.206-5.985 4.113-10.408 7.437-5.204 7.516-6.074 1.539-16.702l-4.498-7.998 1.187-17.949c1.748-26.427 4.271-32.806 17.652-44.623 7.625-6.734 10.921-13.123 15.894-30.805 1.486-5.286 4.638-14.889 7.609-23.185 2.122-5.924 2.957-6.577 10.464-8.147 3.592-0.751 7.051-1.796 7.685-2.32 0.635-0.524 2.886-1.277 5.003-1.672 15.386-2.875 36.097-14.369 36.207-20.093 0.051-2.564-6.472-8.199-10.852-9.379-2.038-0.548-7.269-2.661-11.625-4.696s-8.999-4.029-10.32-4.434c-5.68-1.741-20.301-9.149-20.301-10.288 0-0.685 0.886-3.528 1.969-6.32 1.084-2.792 2.897-7.582 4.031-10.645 2.283-6.163 5.303-9.591 9.262-10.508 1.436-0.333 3.51-1.165 4.611-1.848 12.638-7.852 57.096-10.131 71.708-3.675 9.321 4.118 24.219 18.73 29.452 28.888 9.925 19.264 24.31 8.5 18.63-13.941-0.759-2.999-1.666-8.060-2.014-11.249-0.347-3.188-1.418-8.839-2.378-12.559s-2.704-12.197-3.877-18.837c-6.517-36.921-8.957-45.324-14.191-48.871-2.576-1.745-5.066-1.852-45.231-1.944-44.362-0.1-57.226-1.077-76.317-5.797-3.188-0.789-8.622-2.020-12.075-2.736-9.134-1.895-20.901-5.122-23.24-6.373-1.114-0.596-4.058-1.666-6.541-2.376-10.397-2.975-20.15-7.075-39.291-16.52-10.813-5.335-13.11-5.345-23.381-0.097zM266.575 99.641c3.433 2.282 7.981 5.247 10.106 6.588 10.431 6.572 12.015 9.909 9.801 20.629-2.959 14.33-4.457 23.726-5.431 34.078-1.842 19.572-5.747 31.51-11.81 36.111-8.101 6.145-14.834 8.272-17.194 5.429-0.661-0.797-1.621-1.45-2.135-1.45-2.291 0-9.716-6.55-11.969-10.559-2.686-4.776-5.202-17.638-7.103-36.294-0.596-5.844-1.694-12.8-2.441-15.456-5.186-18.465-4.199-24.553 4.964-30.61 3.634-2.4 9.649-6.406 13.369-8.9 8.32-5.579 10.883-5.524 19.84 0.435zM197.529 232.066c1.097 0.993 2.369 1.805 2.827 1.805s3.691 1.887 7.184 4.195c3.493 2.309 8.791 5.769 11.774 7.693 6.966 4.494 11.051 9.185 11.891 13.66 4.194 22.351-32.831 12.129-44.209-12.204-5.862-12.536 1.589-23.246 10.534-15.149zM325.709 232.131c2.709 3.133 2.223 10.416-1.136 16.984-2.651 5.186-10.475 14.704-12.087 14.704-0.401 0-1.882 0.793-3.293 1.762-20.976 14.416-39.112 0.154-20.919-16.451 1.594-1.454 3.212-2.657 3.592-2.672 0.382-0.017 3.207-1.703 6.279-3.75 3.073-2.047 7.759-5.078 10.416-6.737s5.368-3.474 6.025-4.033c3.748-3.192 8.264-3.114 11.123 0.192zM266.367 351.126c9.707 9.945 9.708 9.853-0.048 19.661-9.759 9.81-9.745 9.81-19.703 0.091-10.038-9.798-10.040-9.861-0.293-19.875 9.883-10.152 10.016-10.151 20.044 0.123zM281.365 404.493c6.757 7.287 8.833 19.932 4.887 29.786-14.642 36.577-70.563 20.146-60.837-17.877 3.685-14.405 8.114-16.344 20.834-9.127 8.145 4.622 10.632 5.129 14.491 2.961 3.759-2.114 13.846-7.098 15.456-7.637 2.455-0.822 2.749-0.714 5.168 1.894z"></path>
</svg>
