<!-- Generated by IcoMoon.io -->
<svg version="1.1" xmlns="http://www.w3.org/2000/svg" width="100" height="100" viewBox="0 0 32 32">
<title>image2vector-3</title>
<path fill="#000" d="M16.583 1.958c0 0.493-0.004 0.521-0.083 0.521-0.081 0-0.083 0.028-0.083 0.958 0 0.824-0.009 0.958-0.063 0.958-0.050 0-0.063 0.060-0.063 0.292 0 0.264-0.008 0.292-0.083 0.292-0.067 0-0.083 0.028-0.083 0.146 0 0.102-0.019 0.146-0.063 0.146s-0.063 0.044-0.063 0.146c0 0.118-0.016 0.146-0.083 0.146-0.056 0-0.083 0.028-0.083 0.083 0 0.079-0.028 0.083-0.5 0.083-0.417 0-0.5 0.010-0.5 0.063 0 0.050-0.060 0.063-0.292 0.063s-0.292-0.013-0.292-0.063c0-0.035-0.037-0.063-0.083-0.063-0.069 0-0.083-0.028-0.083-0.167s-0.014-0.167-0.083-0.167c-0.046 0-0.083-0.028-0.083-0.063s-0.028-0.063-0.063-0.063c-0.044 0-0.063-0.044-0.063-0.146 0-0.118-0.016-0.146-0.083-0.146-0.056 0-0.083-0.028-0.083-0.083 0-0.067-0.028-0.083-0.146-0.083s-0.146 0.016-0.146 0.083c0 0.046-0.028 0.083-0.063 0.083-0.052 0-0.063 0.086-0.063 0.521 0 0.493-0.004 0.521-0.083 0.521-0.067 0-0.083 0.028-0.083 0.146 0 0.102-0.019 0.146-0.063 0.146-0.034 0-0.063 0.028-0.063 0.063s-0.037 0.063-0.083 0.063c-0.056 0-0.083 0.028-0.083 0.083 0 0.075-0.028 0.083-0.292 0.083s-0.292-0.008-0.292-0.083c0-0.067-0.028-0.083-0.146-0.083-0.102 0-0.146-0.019-0.146-0.063 0-0.034-0.028-0.063-0.063-0.063-0.044 0-0.063-0.044-0.063-0.146 0-0.118-0.016-0.146-0.083-0.146s-0.083-0.028-0.083-0.146c0-0.102-0.019-0.146-0.063-0.146-0.048 0-0.063-0.053-0.063-0.229 0-0.201-0.010-0.229-0.083-0.229-0.068 0-0.083-0.028-0.083-0.146s-0.016-0.146-0.083-0.146c-0.073 0-0.083-0.028-0.083-0.229 0-0.176-0.015-0.229-0.063-0.229-0.034 0-0.063-0.028-0.063-0.063 0-0.044-0.044-0.063-0.146-0.063s-0.146 0.019-0.146 0.063c0 0.035-0.037 0.063-0.083 0.063-0.081 0-0.083 0.028-0.083 1.188 0 1.028-0.008 1.187-0.063 1.187-0.047 0-0.063 0.051-0.063 0.208 0 0.181-0.011 0.208-0.083 0.208-0.056 0-0.083 0.028-0.083 0.083 0 0.046-0.028 0.083-0.063 0.083s-0.063 0.028-0.063 0.063c0 0.044-0.044 0.063-0.146 0.063-0.118 0-0.146 0.016-0.146 0.083 0 0.056-0.028 0.083-0.083 0.083-0.067 0-0.083 0.028-0.083 0.146 0 0.102-0.019 0.146-0.063 0.146s-0.063 0.044-0.063 0.146c0 0.118-0.016 0.146-0.083 0.146-0.076 0-0.112 0.108-0.088 0.26 0.003 0.017-0.023 0.031-0.058 0.031s-0.063 0.037-0.063 0.083c0 0.073-0.028 0.083-0.229 0.083-0.176 0-0.229 0.014-0.229 0.063 0 0.035-0.037 0.063-0.083 0.063-0.056 0-0.083 0.028-0.083 0.083 0 0.046-0.028 0.083-0.063 0.083s-0.063 0.028-0.063 0.063c0 0.035-0.037 0.063-0.083 0.063-0.056 0-0.083 0.028-0.083 0.083 0 0.046-0.028 0.083-0.063 0.083s-0.063 0.028-0.063 0.063c0 0.035-0.037 0.063-0.083 0.063-0.056 0-0.083 0.028-0.083 0.083 0 0.046-0.028 0.083-0.063 0.083-0.044 0-0.063 0.044-0.063 0.146 0 0.118-0.016 0.146-0.083 0.146s-0.083 0.028-0.083 0.146c0 0.102-0.019 0.146-0.063 0.146s-0.063 0.044-0.063 0.146c0 0.118-0.016 0.146-0.083 0.146s-0.083 0.028-0.083 0.146c0 0.102-0.019 0.146-0.063 0.146-0.035 0-0.063 0.037-0.063 0.083 0 0.056-0.028 0.083-0.083 0.083-0.046 0-0.083 0.028-0.083 0.063s-0.028 0.063-0.063 0.063c-0.044 0-0.063 0.044-0.063 0.146 0 0.118-0.016 0.146-0.083 0.146-0.079 0-0.083 0.028-0.083 0.521 0 0.435-0.010 0.521-0.063 0.521-0.050 0-0.063 0.060-0.063 0.292 0 0.264-0.008 0.292-0.083 0.292-0.078 0-0.083 0.028-0.083 0.438 0 0.361-0.011 0.438-0.063 0.438-0.048 0-0.063 0.053-0.063 0.229 0 0.201-0.010 0.229-0.083 0.229-0.072 0-0.083 0.028-0.083 0.208 0 0.157-0.015 0.208-0.063 0.208-0.044 0-0.063 0.044-0.063 0.146 0 0.118-0.016 0.146-0.083 0.146s-0.083 0.028-0.083 0.146-0.016 0.146-0.083 0.146c-0.073 0-0.083 0.028-0.083 0.229 0 0.176-0.014 0.229-0.063 0.229-0.050 0-0.063 0.060-0.063 0.292 0 0.264-0.008 0.292-0.083 0.292-0.056 0-0.083 0.028-0.083 0.083 0 0.079-0.028 0.083-0.5 0.083h-0.5v0.208c0 0.157 0.015 0.208 0.063 0.208 0.035 0 0.063 0.037 0.063 0.083 0 0.056 0.028 0.083 0.083 0.083 0.046 0 0.083 0.028 0.083 0.063s0.028 0.063 0.063 0.063c0.035 0 0.063 0.037 0.063 0.083 0 0.067 0.028 0.083 0.146 0.083 0.102 0 0.146 0.019 0.146 0.063 0 0.035 0.037 0.063 0.083 0.063 0.056 0 0.083 0.028 0.083 0.083 0 0.046 0.028 0.083 0.063 0.083s0.063 0.028 0.063 0.063c0 0.035 0.037 0.063 0.083 0.063 0.056 0 0.083 0.028 0.083 0.083 0 0.046 0.028 0.083 0.063 0.083 0.053 0 0.063 0.093 0.063 0.583 0 0.556 0.004 0.583 0.083 0.583 0.073 0 0.083 0.028 0.083 0.229s0.010 0.229 0.083 0.229c0.079 0 0.083 0.028 0.083 0.583 0 0.491 0.010 0.583 0.063 0.583 0.050 0 0.063 0.065 0.063 0.333 0 0.207 0.017 0.333 0.044 0.333 0.024 0 0.035-0.016 0.023-0.035s0.003-0.035 0.032-0.035c0.030 0 0.054 0.024 0.054 0.054s-0.012 0.046-0.026 0.038c-0.014-0.009-0.054 0.001-0.087 0.022-0.047 0.030-0.040 0.038 0.033 0.039 0.085 0.001 0.094 0.021 0.094 0.209 0 0.157 0.015 0.208 0.063 0.208 0.044 0 0.063 0.044 0.063 0.146 0 0.118 0.016 0.146 0.083 0.146 0.078 0 0.083 0.028 0.083 0.438 0 0.361 0.011 0.437 0.063 0.437 0.035 0 0.063 0.037 0.063 0.083 0 0.056 0.028 0.083 0.083 0.083 0.046 0 0.083 0.028 0.083 0.063s0.028 0.063 0.063 0.063c0.037 0 0.063 0.038 0.063 0.096 0 0.122 0.074 0.196 0.196 0.196 0.068 0 0.096 0.024 0.096 0.083 0 0.067 0.028 0.083 0.146 0.083s0.146 0.016 0.146 0.083c0 0.056 0.028 0.083 0.083 0.083 0.046 0 0.083 0.028 0.083 0.063s0.028 0.063 0.063 0.063c0.035 0 0.063 0.037 0.063 0.083 0 0.056 0.028 0.083 0.083 0.083 0.046 0 0.083 0.028 0.083 0.063s0.028 0.063 0.063 0.063c0.044 0 0.063 0.044 0.063 0.146 0 0.118 0.016 0.146 0.083 0.146 0.056 0 0.083 0.028 0.083 0.083 0 0.046 0.028 0.083 0.063 0.083s0.063 0.028 0.063 0.063c0 0.035 0.037 0.063 0.083 0.063 0.056 0 0.083 0.028 0.083 0.083s0.028 0.083 0.083 0.083c0.046 0 0.083 0.028 0.083 0.063s0.028 0.063 0.063 0.063c0.035 0 0.063 0.037 0.063 0.083 0 0.056 0.028 0.083 0.083 0.083 0.046 0 0.083 0.028 0.083 0.063s0.028 0.063 0.063 0.063c0.052 0 0.063 0.076 0.063 0.438s-0.011 0.437-0.063 0.437c-0.035 0-0.063 0.037-0.063 0.083 0 0.056-0.028 0.083-0.083 0.083s-0.083 0.028-0.083 0.083c0 0.067-0.028 0.083-0.146 0.083-0.102 0-0.146 0.019-0.146 0.063s-0.044 0.063-0.146 0.063c-0.118 0-0.146 0.016-0.146 0.083 0 0.075-0.028 0.083-0.292 0.083-0.231 0-0.292 0.013-0.292 0.063 0 0.044-0.044 0.063-0.146 0.063-0.118 0-0.146 0.016-0.146 0.083 0 0.056-0.028 0.083-0.083 0.083-0.067 0-0.083 0.028-0.083 0.146s0.016 0.146 0.083 0.146c0.046 0 0.083 0.028 0.083 0.063s0.028 0.063 0.063 0.063c0.035 0 0.063 0.037 0.063 0.083 0 0.067 0.028 0.083 0.146 0.083 0.102 0 0.146 0.019 0.146 0.063s0.044 0.063 0.146 0.063c0.118 0 0.146 0.016 0.146 0.083 0 0.056 0.028 0.083 0.083 0.083 0.046 0 0.083 0.028 0.083 0.063 0 0.044 0.044 0.063 0.146 0.063 0.118 0 0.146 0.016 0.146 0.083 0 0.056 0.028 0.083 0.083 0.083 0.046 0 0.083 0.028 0.083 0.063 0 0.044 0.044 0.063 0.146 0.063 0.118 0 0.146 0.016 0.146 0.083s0.028 0.083 0.146 0.083c0.102 0 0.146 0.019 0.146 0.063s0.044 0.063 0.146 0.063c0.118 0 0.146 0.016 0.146 0.083 0 0.046 0.028 0.083 0.063 0.083s0.063 0.037 0.063 0.083c0 0.067 0.028 0.083 0.146 0.083 0.102 0 0.146 0.019 0.146 0.063s0.044 0.063 0.146 0.063c0.118 0 0.146 0.016 0.146 0.083 0 0.056 0.028 0.083 0.083 0.083 0.046 0 0.083 0.028 0.083 0.063 0 0.044 0.044 0.063 0.146 0.063 0.118 0 0.146 0.016 0.146 0.083s0.028 0.083 0.146 0.083c0.102 0 0.146 0.019 0.146 0.063s0.044 0.063 0.146 0.063 0.146-0.019 0.146-0.063c0-0.050 0.060-0.063 0.292-0.063s0.292 0.013 0.292 0.063c0 0.044 0.044 0.063 0.146 0.063 0.118 0 0.146 0.016 0.146 0.083 0 0.073 0.028 0.083 0.229 0.083 0.176 0 0.229 0.014 0.229 0.063 0 0.054 0.134 0.063 0.958 0.063 0.931 0 0.958 0.002 0.958 0.083s0.028 0.083 1.038 0.083c1.024 0 1.038-0.001 1.016-0.085-0.012-0.047-0.006-0.082 0.014-0.078 0.23 0.042 1.307-0.012 1.307-0.066 0-0.052 0.086-0.063 0.521-0.063 0.493 0 0.521-0.005 0.521-0.083s0.028-0.083 0.583-0.083c0.491 0 0.583-0.010 0.583-0.063 0-0.050 0.060-0.063 0.292-0.063 0.264 0 0.292-0.008 0.292-0.083s0.028-0.083 0.292-0.083c0.232 0 0.292-0.013 0.292-0.063 0-0.048 0.053-0.063 0.229-0.063 0.201 0 0.229-0.010 0.229-0.083 0-0.072 0.028-0.083 0.208-0.083 0.157 0 0.208-0.015 0.208-0.063 0-0.044 0.044-0.063 0.146-0.063 0.118 0 0.146-0.016 0.146-0.083 0-0.073 0.028-0.083 0.229-0.083s0.229-0.010 0.229-0.083c0-0.067 0.028-0.083 0.146-0.083 0.102 0 0.146-0.019 0.146-0.063s0.044-0.063 0.146-0.063c0.115 0 0.146-0.017 0.146-0.079 0-0.043 0.023-0.078 0.052-0.077 0.162 0.006 0.24-0.018 0.24-0.074 0-0.034 0.028-0.063 0.063-0.063s0.063-0.037 0.063-0.083c0-0.056 0.028-0.083 0.083-0.083 0.046 0 0.083-0.028 0.083-0.063s0.037-0.063 0.083-0.063c0.056 0 0.083-0.028 0.083-0.083 0-0.046 0.028-0.083 0.063-0.083 0.044 0 0.063-0.044 0.063-0.146s-0.019-0.146-0.063-0.146c-0.034 0-0.063-0.028-0.063-0.063s-0.037-0.063-0.083-0.063c-0.056 0-0.083-0.028-0.083-0.083 0-0.062-0.028-0.083-0.107-0.083-0.074 0-0.097-0.016-0.075-0.052s0.009-0.034-0.039 0.005c-0.064 0.052-0.070 0.043-0.070-0.094 0-0.123-0.015-0.151-0.083-0.151s-0.083-0.028-0.083-0.146c0-0.102-0.019-0.146-0.063-0.146s-0.063-0.044-0.063-0.146c0-0.118-0.016-0.146-0.083-0.146-0.078 0-0.083-0.028-0.083-0.438s0.005-0.438 0.083-0.438c0.067 0 0.083-0.028 0.083-0.146 0-0.102 0.019-0.146 0.063-0.146 0.035 0 0.063-0.037 0.063-0.083 0-0.056 0.028-0.083 0.083-0.083 0.067 0 0.083-0.028 0.083-0.146 0-0.102 0.019-0.146 0.063-0.146 0.034 0 0.063-0.028 0.063-0.063 0-0.045 0.046-0.063 0.167-0.063 0.139 0 0.167-0.014 0.167-0.083 0-0.046 0.028-0.083 0.063-0.083s0.063-0.028 0.063-0.063c0-0.035 0.037-0.063 0.083-0.063 0.056 0 0.083-0.028 0.083-0.083 0-0.046 0.028-0.083 0.063-0.083 0.044 0 0.063-0.044 0.063-0.146 0-0.118 0.016-0.146 0.083-0.146 0.046 0 0.083-0.028 0.083-0.063s0.028-0.063 0.063-0.063c0.035 0 0.063-0.037 0.063-0.083 0-0.056 0.028-0.083 0.083-0.083s0.083-0.028 0.083-0.083c0-0.046 0.028-0.083 0.063-0.083 0.044 0 0.063-0.044 0.063-0.146 0-0.118 0.016-0.146 0.083-0.146 0.075 0 0.083-0.028 0.083-0.292 0-0.231 0.013-0.292 0.063-0.292 0.034 0 0.063-0.028 0.063-0.063s0.037-0.063 0.083-0.063c0.056 0 0.083-0.028 0.083-0.083 0-0.046 0.028-0.083 0.063-0.083 0.044 0 0.063-0.044 0.063-0.146 0-0.118 0.016-0.146 0.083-0.146 0.079 0 0.083-0.028 0.083-0.521 0-0.435 0.010-0.521 0.063-0.521 0.057 0 0.084-0.099 0.066-0.24-0.004-0.029 0.032-0.052 0.078-0.052 0.070 0 0.085-0.027 0.085-0.146 0-0.118-0.016-0.146-0.083-0.146-0.079 0-0.083-0.028-0.083-0.5s0.005-0.5 0.083-0.5c0.056 0 0.083-0.028 0.083-0.083 0-0.046 0.028-0.083 0.063-0.083s0.063-0.028 0.063-0.063c0-0.035 0.037-0.063 0.083-0.063 0.056 0 0.083-0.028 0.083-0.083 0-0.046 0.028-0.083 0.063-0.083s0.063-0.028 0.063-0.063c0-0.035 0.037-0.063 0.083-0.063 0.080 0 0.083-0.028 0.083-0.664 0-0.597 0.007-0.666 0.073-0.683 0.069-0.018 0.069-0.019 0-0.024-0.090-0.006-0.098-0.13-0.008-0.13 0.036 0 0.053 0.019 0.039 0.042s-0.006 0.042 0.018 0.042c0.029 0 0.044-0.256 0.044-0.771 0-0.657 0.009-0.771 0.063-0.771s0.063-0.093 0.063-0.583c0-0.491-0.010-0.583-0.063-0.583-0.050 0-0.063-0.060-0.063-0.292 0-0.264-0.008-0.292-0.083-0.292-0.056 0-0.083-0.028-0.083-0.083s-0.028-0.083-0.083-0.083c-0.046 0-0.083-0.028-0.083-0.063s-0.028-0.063-0.063-0.063c-0.035 0-0.063-0.037-0.063-0.083 0-0.056-0.028-0.083-0.083-0.083-0.079 0-0.083-0.028-0.083-0.521s0.004-0.521 0.083-0.521c0.046 0 0.083-0.028 0.083-0.063s0.028-0.063 0.063-0.063c0.051 0 0.063-0.069 0.063-0.375v-0.375h-0.287c-0.217 0-0.293-0.015-0.311-0.063-0.014-0.037-0.076-0.063-0.15-0.063-0.125 0-0.126-0.002-0.126-0.229 0-0.201 0.010-0.229 0.083-0.229 0.067 0 0.083-0.028 0.083-0.146 0-0.102 0.019-0.146 0.063-0.146s0.063-0.044 0.063-0.146c0-0.118 0.016-0.146 0.083-0.146s0.083-0.028 0.083-0.146c0-0.102 0.019-0.146 0.063-0.146 0.035 0 0.063-0.037 0.063-0.083 0-0.056 0.028-0.083 0.083-0.083 0.067 0 0.083-0.028 0.083-0.146 0-0.102 0.019-0.146 0.063-0.146s0.063-0.044 0.063-0.146c0-0.118 0.016-0.146 0.083-0.146s0.083-0.028 0.083-0.146 0.016-0.146 0.083-0.146c0.075 0 0.083-0.028 0.083-0.292v-0.292h-0.313c-0.285 0-0.312 0.007-0.312 0.083 0 0.068-0.028 0.083-0.146 0.083-0.102 0-0.146 0.019-0.146 0.063 0 0.034-0.028 0.063-0.063 0.063s-0.063 0.037-0.063 0.083c0 0.056-0.028 0.083-0.083 0.083-0.046 0-0.083 0.028-0.083 0.063 0 0.044-0.044 0.063-0.146 0.063-0.118 0-0.146 0.016-0.146 0.083 0 0.046-0.028 0.083-0.063 0.083s-0.063 0.028-0.063 0.063c0 0.051-0.070 0.063-0.375 0.063s-0.375-0.012-0.375-0.063c0-0.034-0.028-0.063-0.063-0.063-0.051 0-0.063-0.069-0.063-0.375v-0.375h-0.229c-0.201 0-0.229 0.010-0.229 0.083s-0.028 0.083-0.229 0.083c-0.201 0-0.229-0.010-0.229-0.083 0-0.046-0.028-0.083-0.063-0.083-0.044 0-0.063-0.044-0.063-0.146s0.019-0.146 0.063-0.146c0.044 0 0.063-0.044 0.063-0.146 0-0.118 0.016-0.146 0.083-0.146 0.073 0 0.083-0.028 0.083-0.229v-0.229h-0.163c-0.142 0-0.16 0.011-0.141 0.083 0.021 0.079 0.001 0.083-0.421 0.083h-0.442v-0.146c0-0.118-0.016-0.146-0.083-0.146s-0.083-0.028-0.083-0.146c0-0.102-0.019-0.146-0.063-0.146-0.035 0-0.063-0.037-0.063-0.083 0-0.056-0.028-0.083-0.083-0.083-0.046 0-0.083-0.028-0.083-0.063s-0.028-0.063-0.063-0.063c-0.035 0-0.063-0.037-0.063-0.083 0-0.056-0.028-0.083-0.083-0.083-0.046 0-0.083-0.028-0.083-0.063 0-0.048-0.053-0.063-0.229-0.063-0.201 0-0.229-0.010-0.229-0.083s-0.028-0.083-0.208-0.083c-0.157 0-0.208-0.015-0.208-0.063 0-0.044-0.044-0.063-0.146-0.063-0.118 0-0.146-0.016-0.146-0.083s-0.028-0.083-0.146-0.083c-0.102 0-0.146-0.019-0.146-0.063s-0.044-0.063-0.146-0.063c-0.118 0-0.146-0.016-0.146-0.083 0-0.073-0.028-0.083-0.229-0.083-0.176 0-0.229-0.014-0.229-0.063 0-0.050-0.060-0.063-0.292-0.063-0.264 0-0.292-0.008-0.292-0.083 0-0.077-0.028-0.083-0.375-0.083-0.305 0-0.375-0.012-0.375-0.063 0-0.044-0.044-0.063-0.146-0.063-0.118 0-0.146-0.016-0.146-0.083 0-0.046-0.028-0.083-0.063-0.083-0.044 0-0.063-0.044-0.063-0.146 0-0.118-0.016-0.146-0.083-0.146-0.075 0-0.083-0.028-0.083-0.292 0-0.231-0.013-0.292-0.063-0.292-0.048 0-0.063-0.053-0.063-0.229 0-0.201-0.010-0.229-0.083-0.229-0.072 0-0.083-0.028-0.083-0.208 0-0.157-0.015-0.208-0.063-0.208s-0.063-0.053-0.063-0.229c0-0.201-0.010-0.229-0.083-0.229-0.077 0-0.083-0.028-0.083-0.375 0-0.305-0.012-0.375-0.063-0.375-0.050 0-0.063-0.060-0.063-0.292 0-0.264-0.008-0.292-0.083-0.292-0.067 0-0.083-0.028-0.083-0.146 0-0.102-0.019-0.146-0.063-0.146s-0.063-0.044-0.063-0.146v-0.146h-0.458v0.521zM17.042 6.521c0 0.067 0.028 0.083 0.146 0.083 0.102 0 0.146 0.019 0.146 0.063 0 0.034 0.028 0.063 0.063 0.063 0.051 0 0.063 0.069 0.063 0.375s-0.012 0.375-0.063 0.375c-0.034 0-0.063 0.028-0.063 0.063s-0.037 0.063-0.083 0.063c-0.056 0-0.083 0.028-0.083 0.083 0 0.077-0.028 0.083-0.375 0.083s-0.375-0.006-0.375-0.083c0-0.046-0.028-0.083-0.063-0.083-0.075 0-0.085-0.082-0.010-0.087 0.042-0.003 0.042-0.008 0-0.024-0.038-0.015-0.052-0.163-0.052-0.538v-0.517h0.375c0.347 0 0.375 0.006 0.375 0.083zM11.875 7.542c0 0.044 0.044 0.063 0.146 0.063h0.146v0.229c0 0.201 0.010 0.229 0.083 0.229 0.075 0 0.083 0.028 0.083 0.292s-0.008 0.292-0.083 0.292c-0.056 0-0.083 0.028-0.083 0.083 0 0.046-0.028 0.083-0.063 0.083s-0.063 0.028-0.063 0.063c0 0.050-0.060 0.063-0.292 0.063s-0.292-0.013-0.292-0.063c0-0.035-0.037-0.063-0.083-0.063-0.056 0-0.083-0.028-0.083-0.083s-0.028-0.083-0.083-0.083c-0.068 0-0.083-0.028-0.083-0.146 0-0.102-0.019-0.146-0.063-0.146-0.048 0-0.063-0.053-0.063-0.229s0.015-0.229 0.063-0.229c0.034 0 0.063-0.028 0.063-0.063s0.037-0.063 0.083-0.063c0.056 0 0.083-0.028 0.083-0.083s0.028-0.083 0.083-0.083c0.046 0 0.083-0.028 0.083-0.063 0-0.047 0.051-0.063 0.208-0.063s0.208 0.015 0.208 0.063zM21.583 7.687c0 0.067 0.028 0.083 0.146 0.083 0.139 0 0.146 0.007 0.146 0.146 0 0.118 0.016 0.146 0.083 0.146 0.075 0 0.083 0.028 0.083 0.292s-0.008 0.292-0.083 0.292c-0.056 0-0.083 0.028-0.083 0.083 0 0.068-0.028 0.083-0.146 0.083-0.102 0-0.146 0.019-0.146 0.063 0 0.048-0.053 0.063-0.229 0.063s-0.229-0.015-0.229-0.063c0-0.044-0.044-0.063-0.146-0.063-0.118 0-0.146-0.016-0.146-0.083 0-0.046-0.028-0.083-0.063-0.083-0.051 0-0.063-0.069-0.063-0.375s0.012-0.375 0.063-0.375c0.034 0 0.063-0.028 0.063-0.063 0-0.044 0.044-0.063 0.146-0.063 0.118 0 0.146-0.016 0.146-0.083 0-0.073 0.028-0.083 0.229-0.083s0.229 0.010 0.229 0.083zM25.542 10.937c0 0.056 0.028 0.083 0.083 0.083 0.046 0 0.083 0.028 0.083 0.063s0.028 0.063 0.063 0.063c0.051 0 0.063 0.069 0.063 0.375v0.375h-0.146c-0.102 0-0.146 0.019-0.146 0.063 0 0.047-0.051 0.063-0.208 0.063s-0.208-0.015-0.208-0.063c0-0.035-0.037-0.063-0.083-0.063-0.056 0-0.083-0.028-0.083-0.083 0-0.046-0.028-0.083-0.063-0.083-0.050 0-0.063-0.060-0.063-0.292s0.013-0.292 0.063-0.292c0.034 0 0.063-0.028 0.063-0.063s0.037-0.063 0.083-0.063c0.056 0 0.083-0.028 0.083-0.083 0-0.072 0.028-0.083 0.208-0.083s0.208 0.011 0.208 0.083zM8.625 11.167c0 0.118 0.016 0.146 0.083 0.146 0.072 0 0.083 0.028 0.083 0.208s-0.011 0.208-0.083 0.208c-0.067 0-0.083 0.028-0.083 0.146 0 0.080-0.014 0.144-0.031 0.141-0.196-0.031-0.385 0.012-0.385 0.088 0 0.056-0.028 0.083-0.083 0.083s-0.083-0.028-0.083-0.083c0-0.067-0.028-0.083-0.146-0.083-0.139 0-0.146-0.007-0.146-0.146 0-0.102-0.019-0.146-0.063-0.146s-0.063-0.044-0.063-0.146 0.019-0.146 0.063-0.146c0.044 0 0.063-0.044 0.063-0.146 0-0.118 0.016-0.146 0.083-0.146 0.046 0 0.083-0.028 0.083-0.063 0-0.051 0.067-0.063 0.354-0.063h0.354v0.146zM20.417 12.479c0 0.264-0.008 0.292-0.083 0.292-0.046 0-0.083 0.028-0.083 0.063s-0.028 0.063-0.063 0.063c-0.035 0-0.063 0.037-0.063 0.083 0 0.067-0.028 0.083-0.146 0.083-0.102 0-0.146 0.019-0.146 0.063 0 0.048-0.053 0.063-0.229 0.063-0.201 0-0.229 0.010-0.229 0.083 0 0.068-0.028 0.083-0.146 0.083-0.102 0-0.146 0.019-0.146 0.063 0 0.035-0.037 0.063-0.083 0.063-0.056 0-0.083 0.028-0.083 0.083 0 0.067-0.028 0.083-0.146 0.083s-0.146 0.016-0.146 0.083c0 0.046-0.028 0.083-0.063 0.083s-0.063 0.028-0.063 0.063c0 0.035-0.037 0.063-0.083 0.063-0.067 0-0.083 0.028-0.083 0.146 0 0.102-0.019 0.146-0.063 0.146-0.050 0-0.063 0.060-0.063 0.292s0.013 0.292 0.063 0.292c0.044 0 0.063 0.044 0.063 0.146 0 0.118 0.016 0.146 0.083 0.146 0.056 0 0.083 0.028 0.083 0.083 0 0.046 0.028 0.083 0.063 0.083s0.063 0.028 0.063 0.063c0 0.050 0.063 0.063 0.312 0.063s0.313-0.013 0.313-0.063c0-0.050 0.060-0.063 0.292-0.063 0.264 0 0.292-0.008 0.292-0.083 0-0.068 0.028-0.083 0.146-0.083 0.102 0 0.146-0.019 0.146-0.063 0-0.034 0.028-0.063 0.063-0.063s0.063-0.037 0.063-0.083c0-0.056 0.028-0.083 0.083-0.083 0.046 0 0.083-0.028 0.083-0.063s0.028-0.063 0.063-0.063c0.044 0 0.063-0.044 0.063-0.146 0-0.118 0.016-0.146 0.083-0.146 0.056 0 0.083-0.028 0.083-0.083 0-0.046 0.028-0.083 0.063-0.083s0.063-0.028 0.063-0.063c0-0.035 0.037-0.063 0.083-0.063 0.056 0 0.083-0.028 0.083-0.083 0-0.046 0.028-0.083 0.063-0.083 0.044 0 0.063-0.044 0.063-0.146 0-0.118 0.016-0.146 0.083-0.146 0.056 0 0.083-0.028 0.083-0.083 0-0.046 0.028-0.083 0.063-0.083s0.063-0.028 0.063-0.063c0-0.044 0.044-0.063 0.146-0.063 0.118 0 0.146-0.016 0.146-0.083 0-0.056 0.028-0.083 0.083-0.083 0.046 0 0.083-0.028 0.083-0.063 0-0.044 0.044-0.063 0.146-0.063 0.118 0 0.146-0.016 0.146-0.083 0-0.056 0.028-0.083 0.083-0.083 0.046 0 0.083-0.028 0.083-0.063s0.028-0.063 0.063-0.063c0.035 0 0.063-0.037 0.063-0.083 0-0.056 0.028-0.083 0.083-0.083 0.046 0 0.083-0.028 0.083-0.063 0-0.044 0.044-0.063 0.146-0.063 0.118 0 0.146-0.016 0.146-0.083 0-0.072 0.028-0.083 0.208-0.083h0.208v0.292c0 0.232-0.013 0.292-0.063 0.292-0.035 0-0.063 0.037-0.063 0.083 0 0.056-0.028 0.083-0.083 0.083-0.072 0-0.083 0.028-0.083 0.208 0 0.157-0.015 0.208-0.063 0.208-0.035 0-0.063 0.037-0.063 0.083s0.028 0.083 0.063 0.083c0.048 0 0.063 0.053 0.063 0.229 0 0.201 0.010 0.229 0.083 0.229 0.075 0 0.083 0.028 0.083 0.292s-0.008 0.292-0.083 0.292c-0.067 0-0.083 0.028-0.083 0.146 0 0.102-0.019 0.146-0.063 0.146s-0.063 0.044-0.063 0.146c0 0.139-0.007 0.146-0.146 0.146-0.102 0-0.146 0.019-0.146 0.063 0 0.035-0.037 0.063-0.083 0.063-0.056 0-0.083 0.028-0.083 0.083 0 0.068-0.028 0.083-0.146 0.083-0.102 0-0.146 0.019-0.146 0.063 0 0.034-0.028 0.063-0.063 0.063s-0.063 0.037-0.063 0.083c0 0.056-0.028 0.083-0.083 0.083-0.046 0-0.083 0.028-0.083 0.063 0 0.053-0.093 0.063-0.583 0.063s-0.583-0.010-0.583-0.063c0-0.050-0.060-0.063-0.292-0.063h-0.292v0.292c0 0.232 0.013 0.292 0.063 0.292 0.035 0 0.063 0.037 0.063 0.083 0 0.067 0.028 0.083 0.146 0.083h0.146v0.354c0 0.287-0.012 0.354-0.063 0.354-0.038 0-0.063 0.039-0.063 0.1 0 0.080-0.017 0.096-0.083 0.079-0.072-0.019-0.083-0.001-0.083 0.129 0 0.106-0.018 0.151-0.063 0.151s-0.063 0.044-0.063 0.146c0 0.118-0.016 0.146-0.083 0.146-0.046 0-0.083 0.028-0.083 0.063s-0.028 0.063-0.063 0.063c-0.044 0-0.063 0.044-0.063 0.146v0.146h-0.458c-0.38 0-0.458-0.011-0.458-0.063 0-0.047-0.051-0.063-0.208-0.063s-0.208 0.015-0.208 0.063c0 0.035-0.037 0.063-0.083 0.063-0.056 0-0.083 0.028-0.083 0.083 0 0.046-0.028 0.083-0.063 0.083s-0.063 0.037-0.063 0.083c0 0.056-0.028 0.083-0.083 0.083-0.046 0-0.083 0.028-0.083 0.063 0 0.044-0.045 0.063-0.151 0.063-0.13 0-0.148 0.011-0.129 0.083 0.016 0.062 0.001 0.083-0.058 0.083-0.044 0-0.079 0.028-0.079 0.063 0 0.048-0.053 0.063-0.229 0.063h-0.229v0.146c0 0.118 0.016 0.146 0.083 0.146 0.056 0 0.083 0.028 0.083 0.083 0 0.046 0.028 0.083 0.063 0.083s0.063 0.028 0.063 0.063c0 0.035 0.037 0.063 0.083 0.063 0.056 0 0.083 0.028 0.083 0.083 0 0.046 0.028 0.083 0.063 0.083s0.063 0.028 0.063 0.063c0 0.048 0.053 0.063 0.229 0.063h0.229v-0.208c0-0.157 0.015-0.208 0.063-0.208 0.035 0 0.063-0.037 0.063-0.083 0-0.056 0.028-0.083 0.083-0.083 0.046 0 0.083-0.028 0.083-0.063 0-0.051 0.070-0.063 0.375-0.063h0.375v0.146c0 0.102 0.019 0.146 0.063 0.146 0.053 0 0.063 0.093 0.063 0.583s-0.010 0.583-0.063 0.583c-0.047 0-0.063 0.051-0.063 0.208 0 0.181-0.011 0.208-0.083 0.208-0.056 0-0.083 0.028-0.083 0.083 0 0.075-0.028 0.083-0.292 0.083h-0.292v-0.229c0-0.201-0.010-0.229-0.083-0.229-0.067 0-0.083-0.028-0.083-0.146 0-0.102-0.019-0.146-0.063-0.146-0.034 0-0.063-0.028-0.063-0.063s-0.037-0.063-0.083-0.063c-0.046 0-0.083 0.028-0.083 0.063s-0.028 0.063-0.063 0.063c-0.035 0-0.063 0.037-0.063 0.083 0 0.056-0.028 0.083-0.083 0.083-0.072 0-0.083 0.028-0.083 0.208 0 0.157-0.015 0.208-0.063 0.208-0.045 0-0.063 0.046-0.063 0.167v0.167h-0.229c-0.201 0-0.229-0.010-0.229-0.083 0-0.046-0.028-0.083-0.063-0.083s-0.063-0.037-0.063-0.083c0-0.056-0.028-0.083-0.083-0.083-0.072 0-0.083-0.028-0.083-0.208 0-0.157-0.015-0.208-0.063-0.208-0.044 0-0.063-0.044-0.063-0.146 0-0.118-0.016-0.146-0.083-0.146s-0.083-0.028-0.083-0.146c0-0.118 0.016-0.146 0.083-0.146s0.083-0.028 0.083-0.146c0-0.102 0.019-0.146 0.063-0.146 0.050 0 0.063-0.060 0.063-0.292v-0.292h-1.042v0.208c0 0.181 0.011 0.208 0.083 0.208 0.067 0 0.083 0.028 0.083 0.146 0 0.102 0.019 0.146 0.063 0.146s0.063 0.044 0.063 0.146c0 0.118 0.016 0.146 0.083 0.146 0.073 0 0.083 0.028 0.083 0.229s-0.010 0.229-0.083 0.229c-0.067 0-0.083 0.028-0.083 0.146 0 0.102-0.019 0.146-0.063 0.146-0.048 0-0.063 0.053-0.063 0.229 0 0.201-0.010 0.229-0.083 0.229-0.046 0-0.083 0.028-0.083 0.063 0 0.051-0.067 0.063-0.354 0.063h-0.354v-0.583c0-0.556-0.004-0.583-0.083-0.583-0.078 0-0.083-0.028-0.083-0.438s0.005-0.438 0.083-0.438c0.056 0 0.083-0.028 0.083-0.083 0-0.046 0.028-0.083 0.063-0.083s0.063-0.028 0.063-0.063c0-0.035 0.037-0.063 0.083-0.063 0.068 0 0.083-0.028 0.083-0.146s-0.016-0.146-0.083-0.146c-0.056 0-0.083-0.028-0.083-0.083 0-0.046-0.028-0.083-0.063-0.083s-0.063-0.028-0.063-0.063c0-0.035-0.037-0.063-0.083-0.063-0.056 0-0.083-0.028-0.083-0.083 0-0.067-0.028-0.083-0.146-0.083s-0.146-0.016-0.146-0.083c0-0.046-0.028-0.083-0.063-0.083s-0.063-0.028-0.063-0.063c0-0.044-0.044-0.063-0.146-0.063-0.118 0-0.146-0.016-0.146-0.083 0-0.078-0.028-0.083-0.458-0.083-0.38 0-0.458-0.011-0.458-0.063 0-0.034-0.028-0.063-0.063-0.063s-0.063-0.037-0.063-0.083c0-0.056-0.028-0.083-0.083-0.083-0.067 0-0.083-0.028-0.083-0.146 0-0.139-0.007-0.146-0.146-0.146-0.102 0-0.146-0.019-0.146-0.063s-0.044-0.063-0.146-0.063c-0.118 0-0.146-0.016-0.146-0.083 0-0.046-0.028-0.083-0.063-0.083-0.050 0-0.063-0.060-0.063-0.292s0.013-0.292 0.063-0.292c0.044 0 0.063-0.044 0.063-0.146 0-0.118 0.016-0.146 0.083-0.146 0.046 0 0.083-0.028 0.083-0.063 0-0.048-0.053-0.063-0.229-0.063s-0.229 0.015-0.229 0.063c0 0.052-0.086 0.063-0.521 0.063s-0.521-0.010-0.521-0.063c0-0.044-0.044-0.063-0.146-0.063-0.118 0-0.146-0.016-0.146-0.083 0-0.046-0.028-0.083-0.063-0.083s-0.063-0.037-0.063-0.083c0-0.056-0.028-0.083-0.083-0.083-0.071 0-0.083-0.028-0.083-0.185 0-0.102-0.019-0.197-0.041-0.21s-0.031 0.002-0.016 0.039c0.014 0.036 0.004 0.065-0.021 0.065s-0.044-0.014-0.041-0.031c0.052-0.331-0.016-1.427-0.088-1.427-0.071 0-0.083-0.028-0.083-0.19 0-0.118-0.016-0.18-0.042-0.164-0.023 0.014-0.054-0.031-0.068-0.102-0.023-0.113-0.042-0.128-0.171-0.128-0.132 0-0.14-0.007-0.089-0.070 0.039-0.048 0.041-0.060 0.005-0.039-0.029 0.017-0.052 0.011-0.052-0.013s-0.066-0.044-0.146-0.044c-0.139 0-0.146-0.007-0.146-0.146v-0.146h0.583c0.556 0 0.583 0.004 0.583 0.083 0 0.072 0.028 0.083 0.208 0.083 0.157 0 0.208 0.015 0.208 0.063 0 0.035 0.037 0.063 0.083 0.063 0.056 0 0.083 0.028 0.083 0.083s0.028 0.083 0.083 0.083c0.056 0 0.083 0.028 0.083 0.083 0 0.046 0.028 0.083 0.063 0.083s0.063 0.028 0.063 0.063c0 0.035 0.037 0.063 0.083 0.063 0.056 0 0.083 0.028 0.083 0.083 0 0.046 0.028 0.083 0.063 0.083s0.063 0.028 0.063 0.063c0 0.035 0.037 0.063 0.083 0.063 0.056 0 0.083 0.028 0.083 0.083 0 0.046 0.028 0.083 0.063 0.083s0.063 0.028 0.063 0.063c0 0.035 0.037 0.063 0.083 0.063 0.068 0 0.083 0.028 0.083 0.146 0 0.102 0.019 0.146 0.063 0.146 0.035 0 0.063 0.037 0.063 0.083 0 0.056 0.028 0.083 0.083 0.083 0.046 0 0.083 0.028 0.083 0.063 0 0.047 0.051 0.063 0.208 0.063 0.181 0 0.208 0.011 0.208 0.083 0 0.080 0.028 0.083 0.604 0.083s0.604-0.004 0.604-0.083c0-0.046 0.028-0.083 0.063-0.083s0.063-0.028 0.063-0.063c0-0.035 0.037-0.063 0.083-0.063 0.056 0 0.083-0.028 0.083-0.083 0-0.046 0.028-0.083 0.063-0.083 0.052 0 0.063-0.076 0.063-0.438s-0.011-0.438-0.063-0.438c-0.034 0-0.063-0.028-0.063-0.063s-0.037-0.063-0.083-0.063c-0.056 0-0.083-0.028-0.083-0.083 0-0.046-0.028-0.083-0.063-0.083s-0.063-0.037-0.063-0.083c0-0.056-0.028-0.083-0.083-0.083-0.046 0-0.083-0.028-0.083-0.063 0-0.053-0.093-0.063-0.583-0.063-0.556 0-0.583-0.004-0.583-0.083 0-0.056-0.028-0.083-0.083-0.083-0.046 0-0.083-0.028-0.083-0.063s-0.028-0.063-0.063-0.063c-0.035 0-0.063-0.037-0.063-0.083 0-0.056-0.028-0.083-0.083-0.083-0.072 0-0.083-0.028-0.083-0.208v-0.208h0.146c0.102 0 0.146 0.019 0.146 0.063s0.044 0.063 0.146 0.063c0.118 0 0.146 0.016 0.146 0.083 0 0.075 0.028 0.083 0.292 0.083s0.292-0.008 0.292-0.083c0-0.073 0.028-0.083 0.229-0.083s0.229 0.010 0.229 0.083c0 0.056 0.028 0.083 0.083 0.083 0.046 0 0.083 0.028 0.083 0.063s0.028 0.063 0.063 0.063c0.035 0 0.063 0.037 0.063 0.083 0 0.056 0.028 0.083 0.083 0.083 0.046 0 0.083 0.028 0.083 0.063 0 0.047 0.051 0.063 0.208 0.063 0.181 0 0.208 0.011 0.208 0.083 0 0.056 0.028 0.083 0.083 0.083 0.046 0 0.083 0.028 0.083 0.063s0.028 0.063 0.063 0.063c0.045 0 0.063 0.046 0.063 0.167 0 0.163 0.003 0.167 0.146 0.167 0.102 0 0.146 0.019 0.146 0.063s0.044 0.063 0.146 0.063c0.102 0 0.146-0.019 0.146-0.063s0.044-0.063 0.146-0.063c0.118 0 0.146-0.016 0.146-0.083 0-0.077 0.028-0.083 0.375-0.083s0.375 0.006 0.375 0.083c0 0.077 0.028 0.083 0.375 0.083s0.375-0.006 0.375-0.083c0-0.068 0.028-0.083 0.146-0.083s0.146-0.016 0.146-0.083c0-0.046 0.028-0.083 0.063-0.083s0.063-0.028 0.063-0.063c0-0.035 0.037-0.063 0.083-0.063 0.056 0 0.083-0.028 0.083-0.083 0-0.046 0.028-0.083 0.063-0.083s0.063-0.028 0.063-0.063c0-0.044 0.044-0.063 0.146-0.063 0.118 0 0.146-0.016 0.146-0.083 0-0.056 0.028-0.083 0.083-0.083 0.046 0 0.083-0.028 0.083-0.063s0.028-0.063 0.063-0.063c0.035 0 0.063-0.037 0.063-0.083 0-0.069 0.028-0.083 0.167-0.083 0.12 0 0.167-0.017 0.167-0.063 0-0.044 0.044-0.063 0.146-0.063 0.118 0 0.146-0.016 0.146-0.083 0-0.072 0.028-0.083 0.208-0.083 0.157 0 0.208-0.015 0.208-0.063s0.053-0.063 0.229-0.063h0.229v0.292zM21.583 14.312c0 0.056-0.028 0.083-0.083 0.083-0.046 0-0.083 0.028-0.083 0.063s-0.028 0.063-0.063 0.063c-0.048 0-0.063 0.053-0.063 0.229s0.015 0.229 0.063 0.229c0.034 0 0.063 0.028 0.063 0.063 0 0.048 0.053 0.063 0.229 0.063s0.229-0.014 0.229-0.063c0-0.035 0.037-0.063 0.083-0.063 0.056 0 0.083-0.028 0.083-0.083 0-0.046 0.028-0.083 0.063-0.083 0.044 0 0.063-0.044 0.063-0.146s-0.019-0.146-0.063-0.146c-0.034 0-0.063-0.028-0.063-0.063s-0.037-0.063-0.083-0.063c-0.056 0-0.083-0.028-0.083-0.083 0-0.067-0.028-0.083-0.146-0.083s-0.146 0.016-0.146 0.083zM15.708 14.458c0 0.035-0.037 0.063-0.083 0.063-0.067 0-0.083 0.028-0.083 0.146 0 0.102-0.019 0.146-0.063 0.146-0.035 0-0.063 0.037-0.063 0.083 0 0.056-0.028 0.083-0.083 0.083-0.072 0-0.083 0.028-0.083 0.208 0 0.157-0.015 0.208-0.063 0.208-0.044 0-0.063 0.044-0.063 0.146 0 0.12-0.015 0.146-0.087 0.146-0.083 0-0.087 0.019-0.078 0.365 0.015 0.591 0.030 0.552-0.209 0.552-0.181 0-0.208-0.011-0.208-0.083 0-0.056-0.028-0.083-0.083-0.083-0.046 0-0.083-0.028-0.083-0.063 0-0.052-0.086-0.063-0.521-0.063s-0.521 0.010-0.521 0.063c0 0.034-0.028 0.063-0.063 0.063-0.052 0-0.063 0.076-0.063 0.438v0.438h0.438c0.361 0 0.438-0.011 0.438-0.063 0-0.035 0.037-0.063 0.083-0.063s0.083 0.028 0.083 0.063c0 0.044 0.044 0.063 0.146 0.063 0.118 0 0.146 0.016 0.146 0.083 0 0.046 0.028 0.083 0.063 0.083s0.063 0.028 0.063 0.063c0 0.035 0.037 0.063 0.083 0.063 0.067 0 0.083 0.028 0.083 0.146 0 0.102 0.019 0.146 0.063 0.146 0.035 0 0.063 0.037 0.063 0.083 0 0.056 0.028 0.083 0.083 0.083 0.046 0 0.083 0.028 0.083 0.063s0.028 0.063 0.063 0.063c0.035 0 0.063 0.037 0.063 0.083 0 0.067 0.028 0.083 0.146 0.083 0.102 0 0.146 0.019 0.146 0.063 0 0.053 0.118 0.063 0.813 0.063s0.812-0.009 0.812-0.063c0-0.044 0.044-0.063 0.146-0.063 0.118 0 0.146-0.016 0.146-0.083 0-0.056 0.028-0.083 0.083-0.083 0.046 0 0.083-0.028 0.083-0.063s0.028-0.063 0.063-0.063c0.035 0 0.063-0.037 0.063-0.083 0-0.056 0.028-0.083 0.083-0.083 0.046 0 0.083-0.028 0.083-0.063s0.028-0.063 0.063-0.063c0.035 0 0.063-0.037 0.063-0.083 0-0.056 0.028-0.083 0.083-0.083 0.046 0 0.083-0.028 0.083-0.063 0-0.044 0.044-0.063 0.146-0.063 0.118 0 0.146-0.016 0.146-0.083s0.028-0.083 0.146-0.083 0.146 0.016 0.146 0.083c0 0.077 0.028 0.083 0.375 0.083s0.375-0.006 0.375-0.083c0-0.046 0.028-0.083 0.063-0.083s0.063-0.028 0.063-0.063c0-0.035 0.037-0.063 0.083-0.063 0.077 0 0.083-0.028 0.083-0.375v-0.375h-0.292c-0.232 0-0.292-0.013-0.292-0.063 0-0.045-0.046-0.063-0.167-0.063s-0.167 0.017-0.167 0.063c0 0.048-0.053 0.063-0.225 0.063-0.205 0-0.223 0.008-0.203 0.083 0.020 0.078 0.001 0.083-0.275 0.083h-0.297v-0.229c0-0.176 0.015-0.229 0.063-0.229s0.063-0.053 0.063-0.229c0-0.176-0.015-0.229-0.063-0.229s-0.063-0.051-0.063-0.208c0-0.181-0.011-0.208-0.083-0.208-0.056 0-0.083-0.028-0.083-0.083 0-0.046-0.028-0.083-0.063-0.083-0.044 0-0.063-0.044-0.063-0.146 0-0.118-0.016-0.146-0.083-0.146-0.046 0-0.083-0.028-0.083-0.063 0-0.044-0.044-0.063-0.146-0.063-0.118 0-0.146-0.016-0.146-0.083 0-0.046-0.028-0.083-0.063-0.083s-0.063-0.028-0.063-0.063c0-0.053-0.102-0.063-0.667-0.063s-0.667 0.010-0.667 0.063zM26.292 14.75c0 0.034 0.028 0.063 0.063 0.063s0.063 0.037 0.063 0.083c0 0.067 0.028 0.083 0.146 0.083 0.139 0 0.146 0.007 0.146 0.146 0 0.118 0.016 0.146 0.083 0.146s0.083 0.028 0.083 0.146-0.016 0.146-0.083 0.146c-0.067 0-0.083 0.028-0.083 0.146 0 0.102-0.019 0.146-0.063 0.146-0.034 0-0.063 0.028-0.063 0.063 0 0.048-0.053 0.063-0.229 0.063s-0.229-0.015-0.229-0.063c0-0.034-0.028-0.063-0.063-0.063s-0.063-0.037-0.063-0.083c0-0.056-0.028-0.083-0.083-0.083-0.067 0-0.083-0.028-0.083-0.146 0-0.102-0.019-0.146-0.063-0.146-0.047 0-0.063-0.051-0.063-0.208s0.015-0.208 0.063-0.208c0.035 0 0.063-0.037 0.063-0.083 0-0.056 0.028-0.083 0.083-0.083 0.046 0 0.083-0.028 0.083-0.063 0-0.044 0.044-0.063 0.146-0.063s0.146 0.019 0.146 0.063zM11.458 14.896c0 0.056-0.028 0.083-0.083 0.083-0.068 0-0.083 0.028-0.083 0.146s0.016 0.146 0.083 0.146c0.046 0 0.083 0.028 0.083 0.063s0.028 0.063 0.063 0.063c0.034 0 0.063-0.032 0.063-0.071 0-0.055 0.011-0.060 0.050-0.021 0.027 0.028 0.070 0.050 0.094 0.049s0.016-0.019-0.019-0.041c-0.042-0.027-0.045-0.041-0.010-0.041 0.032-0 0.052-0.058 0.052-0.146 0-0.118-0.016-0.146-0.083-0.146-0.056 0-0.083-0.028-0.083-0.083 0-0.046-0.028-0.083-0.063-0.083s-0.063 0.037-0.063 0.083zM11 18.208c0 0.62 0.009 0.729 0.063 0.729 0.048 0 0.063 0.053 0.063 0.229 0 0.201 0.010 0.229 0.083 0.229 0.072 0 0.083 0.028 0.083 0.208s0.011 0.208 0.083 0.208c0.075 0 0.083 0.028 0.083 0.292 0 0.232 0.013 0.292 0.063 0.292 0.044 0 0.063 0.044 0.063 0.146 0 0.118 0.016 0.146 0.083 0.146 0.056 0 0.083 0.028 0.083 0.083 0 0.046 0.028 0.083 0.063 0.083 0.044 0 0.063 0.044 0.063 0.146 0 0.118 0.016 0.146 0.083 0.146s0.083 0.028 0.083 0.146c0 0.102 0.019 0.146 0.063 0.146 0.035 0 0.063 0.037 0.063 0.083 0 0.056 0.028 0.083 0.083 0.083 0.046 0 0.083 0.028 0.083 0.063s0.028 0.063 0.063 0.063c0.054 0 0.063 0.134 0.063 0.958s-0.009 0.958-0.063 0.958c-0.044 0-0.063 0.044-0.063 0.146 0 0.118-0.016 0.146-0.083 0.146-0.056 0-0.083 0.028-0.083 0.083 0 0.067-0.028 0.083-0.146 0.083-0.102 0-0.146 0.019-0.146 0.063 0 0.034-0.028 0.063-0.063 0.063s-0.063 0.037-0.063 0.083c0 0.077-0.028 0.083-0.375 0.083s-0.375-0.006-0.375-0.083c0-0.056-0.028-0.083-0.083-0.083-0.046 0-0.083-0.028-0.083-0.063s-0.028-0.063-0.063-0.063c-0.035 0-0.063-0.037-0.063-0.083 0-0.056-0.028-0.083-0.083-0.083s-0.083-0.028-0.083-0.083c0-0.046-0.028-0.083-0.063-0.083-0.044 0-0.063-0.044-0.063-0.146 0-0.118-0.016-0.146-0.083-0.146s-0.083-0.028-0.083-0.146c0-0.102-0.019-0.146-0.063-0.146-0.047 0-0.063-0.051-0.063-0.208 0-0.181-0.011-0.208-0.083-0.208-0.068 0-0.083-0.028-0.083-0.146 0-0.102-0.019-0.146-0.063-0.146-0.052 0-0.063-0.076-0.063-0.438 0-0.41-0.005-0.438-0.083-0.438-0.080 0-0.083-0.028-0.083-0.75s0.003-0.75 0.083-0.75c0.080 0 0.083-0.028 0.083-0.646 0-0.546 0.010-0.646 0.063-0.646 0.048 0 0.063-0.053 0.063-0.229 0-0.201 0.010-0.229 0.083-0.229 0.067 0 0.083-0.028 0.083-0.146 0-0.102 0.019-0.146 0.063-0.146s0.063-0.044 0.063-0.146c0-0.118 0.016-0.146 0.083-0.146 0.056 0 0.083-0.028 0.083-0.083 0-0.046 0.028-0.083 0.063-0.083s0.063-0.028 0.063-0.063c0-0.048 0.053-0.063 0.229-0.063h0.229v0.729zM22.167 17.542c0 0.035 0.037 0.063 0.083 0.063 0.056 0 0.083 0.028 0.083 0.083 0 0.067 0.028 0.083 0.146 0.083 0.102 0 0.146 0.019 0.146 0.063 0 0.034 0.028 0.063 0.063 0.063 0.044 0 0.063 0.044 0.063 0.146 0 0.118 0.016 0.146 0.083 0.146 0.056 0 0.083 0.028 0.083 0.083 0 0.046 0.028 0.083 0.063 0.083s0.063 0.028 0.063 0.063c0 0.035 0.037 0.063 0.083 0.063 0.056 0 0.083 0.028 0.083 0.083 0 0.046 0.028 0.083 0.063 0.083 0.044 0 0.063 0.044 0.063 0.146 0 0.118 0.016 0.146 0.083 0.146 0.056 0 0.083 0.028 0.083 0.083 0 0.046 0.028 0.083 0.063 0.083s0.063 0.028 0.063 0.063c0 0.035 0.037 0.063 0.083 0.063 0.067 0 0.083 0.028 0.083 0.146 0 0.102 0.019 0.146 0.063 0.146 0.048 0 0.063 0.053 0.063 0.229 0 0.201 0.010 0.229 0.083 0.229 0.080 0 0.083 0.028 0.083 0.813 0 0.694 0.009 0.813 0.063 0.813 0.052 0 0.063 0.083 0.063 0.5s-0.010 0.5-0.063 0.5c-0.035 0-0.063 0.037-0.063 0.083 0 0.056-0.028 0.083-0.083 0.083-0.046 0-0.083 0.028-0.083 0.063s-0.028 0.063-0.063 0.063c-0.035 0-0.063 0.037-0.063 0.083 0 0.056-0.028 0.083-0.083 0.083-0.046 0-0.083 0.028-0.083 0.063s-0.028 0.063-0.063 0.063c-0.044 0-0.063 0.044-0.063 0.146 0 0.118-0.016 0.146-0.083 0.146-0.056 0-0.083 0.028-0.083 0.083 0 0.046-0.028 0.083-0.063 0.083s-0.063 0.028-0.063 0.063c0 0.044-0.044 0.063-0.146 0.063-0.118 0-0.146 0.016-0.146 0.083 0 0.073-0.028 0.083-0.229 0.083s-0.229-0.010-0.229-0.083c0-0.067-0.028-0.083-0.146-0.083-0.102 0-0.146-0.019-0.146-0.063 0-0.034-0.028-0.063-0.063-0.063-0.048 0-0.063-0.053-0.063-0.229 0-0.201-0.010-0.229-0.083-0.229-0.046 0-0.083-0.028-0.083-0.063s-0.037-0.063-0.083-0.063c-0.067 0-0.083-0.028-0.083-0.146 0-0.102-0.019-0.146-0.063-0.146-0.035 0-0.063-0.037-0.063-0.083 0-0.056-0.028-0.083-0.083-0.083-0.067 0-0.083-0.028-0.083-0.146 0-0.098-0.019-0.146-0.059-0.146-0.041 0-0.063-0.066-0.073-0.224-0.018-0.282-0.003-0.36 0.072-0.36 0.033 0 0.059-0.028 0.059-0.063s0.037-0.063 0.083-0.063c0.056 0 0.083-0.028 0.083-0.083 0-0.046 0.028-0.083 0.063-0.083 0.048 0 0.063-0.053 0.063-0.229 0-0.201 0.010-0.229 0.083-0.229 0.072 0 0.083-0.028 0.083-0.208s0.011-0.208 0.083-0.208c0.080 0 0.083-0.028 0.083-0.667 0-0.565 0.010-0.667 0.063-0.667 0.047 0 0.063-0.051 0.063-0.208s-0.015-0.208-0.063-0.208c-0.051 0-0.063-0.069-0.063-0.375 0-0.347-0.006-0.375-0.083-0.375-0.075 0-0.083-0.028-0.083-0.292v-0.292h0.146c0.102 0 0.146 0.019 0.146 0.063zM13.042 18.562c0 0.056 0.028 0.083 0.083 0.083s0.083 0.028 0.083 0.083c0 0.046 0.028 0.083 0.063 0.083 0.044 0 0.063 0.044 0.063 0.146 0 0.118 0.016 0.146 0.083 0.146 0.072 0 0.083 0.028 0.083 0.208 0 0.157 0.015 0.208 0.063 0.208 0.044 0 0.063 0.044 0.063 0.146s-0.019 0.146-0.063 0.146c-0.044 0-0.063 0.044-0.063 0.146 0 0.118-0.016 0.146-0.083 0.146-0.073 0-0.083 0.028-0.083 0.229 0 0.176-0.015 0.229-0.063 0.229-0.052 0-0.063 0.076-0.063 0.438 0 0.41-0.005 0.438-0.083 0.438-0.056 0-0.083 0.028-0.083 0.083 0 0.072-0.028 0.083-0.208 0.083s-0.208-0.011-0.208-0.083c0-0.056-0.028-0.083-0.083-0.083-0.073 0-0.083-0.028-0.083-0.229 0-0.176-0.015-0.229-0.063-0.229s-0.063-0.051-0.063-0.208c0-0.181-0.011-0.208-0.083-0.208-0.075 0-0.083-0.028-0.083-0.292 0-0.232-0.013-0.292-0.063-0.292-0.052 0-0.063-0.076-0.063-0.437s0.011-0.438 0.063-0.438c0.044 0 0.063-0.044 0.063-0.146 0-0.118 0.016-0.146 0.083-0.146 0.056 0 0.083-0.028 0.083-0.083 0-0.046 0.028-0.083 0.063-0.083s0.063-0.037 0.063-0.083c0-0.075 0.028-0.083 0.292-0.083s0.292 0.008 0.292 0.083zM21 18.729c0 0.046 0.028 0.083 0.063 0.083 0.044 0 0.063 0.044 0.063 0.146 0 0.118 0.016 0.146 0.083 0.146 0.081 0 0.083 0.028 0.083 1.083s-0.002 1.083-0.083 1.083c-0.056 0-0.083 0.028-0.083 0.083 0 0.057 0.028 0.083 0.089 0.083 0.102 0 0.096 0.335-0.007 0.431-0.041 0.038-0.045 0.035-0.019-0.014 0.027-0.051 0.023-0.053-0.023-0.010-0.035 0.033-0.183 0.052-0.402 0.052h-0.346v-0.146c0-0.118-0.016-0.146-0.083-0.146-0.076 0-0.083-0.028-0.083-0.313 0-0.25-0.013-0.312-0.063-0.312-0.044 0-0.063-0.044-0.063-0.146 0-0.118-0.016-0.146-0.083-0.146-0.072 0-0.083-0.028-0.083-0.208 0-0.157-0.015-0.208-0.063-0.208s-0.063-0.053-0.063-0.225c0-0.161 0.018-0.232 0.063-0.249 0.047-0.018 0.063-0.093 0.063-0.296 0-0.244 0.009-0.272 0.083-0.272 0.067 0 0.083-0.028 0.083-0.146 0-0.102 0.019-0.146 0.063-0.146 0.034 0 0.063-0.028 0.063-0.063s0.037-0.063 0.083-0.063c0.056 0 0.083-0.028 0.083-0.083 0-0.075 0.028-0.083 0.292-0.083s0.292 0.008 0.292 0.083zM14.542 21.125c0 0.102 0.019 0.146 0.063 0.146 0.045 0 0.063 0.046 0.063 0.167 0 0.139 0.014 0.167 0.083 0.167 0.067 0 0.083 0.028 0.083 0.146 0 0.102 0.019 0.146 0.063 0.146 0.053 0 0.063 0.1 0.063 0.646s-0.010 0.646-0.063 0.646c-0.035 0-0.063 0.037-0.063 0.083 0 0.056-0.028 0.083-0.083 0.083-0.068 0-0.083 0.028-0.083 0.146 0 0.102-0.019 0.146-0.063 0.146-0.034 0-0.063 0.028-0.063 0.063s-0.037 0.063-0.083 0.063c-0.056 0-0.083 0.028-0.083 0.083 0 0.073-0.028 0.083-0.229 0.083s-0.229-0.010-0.229-0.083c0-0.067-0.028-0.083-0.146-0.083-0.139 0-0.146-0.007-0.146-0.146 0-0.102-0.019-0.146-0.063-0.146-0.034 0-0.063-0.028-0.063-0.063s-0.037-0.063-0.083-0.063c-0.079 0-0.083-0.028-0.083-0.521s0.004-0.521 0.083-0.521c0.072 0 0.083-0.028 0.083-0.208 0-0.157 0.015-0.208 0.063-0.208 0.044 0 0.063-0.044 0.063-0.146 0-0.118 0.016-0.146 0.083-0.146 0.056 0 0.083-0.028 0.083-0.083 0-0.046 0.028-0.083 0.063-0.083 0.044 0 0.063-0.044 0.063-0.146 0-0.118 0.016-0.146 0.083-0.146 0.056 0 0.083-0.028 0.083-0.083 0-0.073 0.028-0.083 0.229-0.083h0.229v0.146zM18.042 21.958c0 0.035 0.037 0.063 0.083 0.063 0.067 0 0.083 0.028 0.083 0.146 0 0.102 0.019 0.146 0.063 0.146 0.051 0 0.063 0.069 0.063 0.375 0 0.347 0.006 0.375 0.083 0.375s0.083 0.028 0.083 0.354-0.007 0.354-0.083 0.354c-0.056 0-0.083 0.028-0.083 0.083 0 0.067-0.028 0.083-0.146 0.083s-0.146 0.016-0.146 0.083c0 0.067-0.028 0.083-0.146 0.083s-0.146-0.016-0.146-0.083c0-0.067-0.028-0.083-0.146-0.083-0.139 0-0.146-0.007-0.146-0.146 0-0.102-0.019-0.146-0.063-0.146-0.048 0-0.063-0.053-0.063-0.229 0-0.201-0.010-0.229-0.083-0.229-0.046 0-0.083-0.028-0.083-0.063s0.037-0.063 0.083-0.063c0.073 0 0.083-0.028 0.083-0.229 0-0.176 0.015-0.229 0.063-0.229 0.044 0 0.063-0.044 0.063-0.146 0-0.118 0.016-0.146 0.083-0.146s0.083-0.028 0.083-0.146c0-0.102 0.019-0.146 0.063-0.146 0.034 0 0.063-0.028 0.063-0.063 0-0.044 0.044-0.063 0.146-0.063s0.146 0.019 0.146 0.063zM19.958 21.958c0 0.035 0.037 0.063 0.083 0.063 0.077 0 0.083 0.028 0.083 0.375 0 0.306 0.012 0.375 0.063 0.375 0.052 0 0.063 0.083 0.063 0.5s-0.010 0.5-0.063 0.5c-0.035 0-0.063 0.037-0.063 0.083 0 0.067-0.028 0.083-0.146 0.083s-0.146 0.016-0.146 0.083c0 0.067-0.028 0.083-0.146 0.083s-0.146-0.016-0.146-0.083c0-0.067-0.028-0.083-0.146-0.083-0.139 0-0.146-0.007-0.146-0.146 0-0.118-0.016-0.146-0.083-0.146-0.077 0-0.083-0.028-0.083-0.375s0.006-0.375 0.083-0.375c0.072 0 0.083-0.028 0.083-0.208 0-0.157 0.015-0.208 0.063-0.208s0.063-0.053 0.063-0.229c0-0.201 0.010-0.229 0.083-0.229 0.046 0 0.083-0.028 0.083-0.063 0-0.047 0.051-0.063 0.208-0.063s0.208 0.015 0.208 0.063zM16.417 22.104c0 0.056 0.028 0.083 0.083 0.083 0.080 0 0.083 0.028 0.083 0.646s-0.004 0.646-0.083 0.646c-0.067 0-0.083 0.028-0.083 0.146 0 0.102-0.019 0.146-0.063 0.146-0.035 0-0.063 0.037-0.063 0.083 0 0.056-0.028 0.083-0.083 0.083s-0.083 0.028-0.083 0.083c0 0.072-0.028 0.083-0.208 0.083s-0.208-0.011-0.208-0.083c0-0.067-0.028-0.083-0.146-0.083h-0.146v-0.521c0-0.435 0.010-0.521 0.063-0.521 0.044 0 0.063-0.044 0.063-0.146 0-0.118 0.016-0.146 0.083-0.146 0.057 0 0.083-0.028 0.083-0.088 0-0.066 0.018-0.081 0.073-0.062 0.069 0.024 0.069 0.023 0-0.031-0.089-0.070-0.093-0.11-0.010-0.11 0.044 0 0.063-0.044 0.063-0.146v-0.146h0.292c0.264 0 0.292 0.008 0.292 0.083zM9.833 27.542c0 0.034 0.028 0.063 0.063 0.063s0.063 0.037 0.063 0.083c0 0.056 0.028 0.083 0.083 0.083 0.072 0 0.083 0.028 0.083 0.208s-0.011 0.208-0.083 0.208c-0.056 0-0.083 0.028-0.083 0.083 0 0.046-0.028 0.083-0.063 0.083s-0.063 0.028-0.063 0.063c0 0.048-0.053 0.063-0.229 0.063s-0.229-0.015-0.229-0.063c0-0.034-0.028-0.063-0.063-0.063s-0.063-0.037-0.063-0.083c0-0.056-0.028-0.083-0.083-0.083-0.075 0-0.083-0.028-0.083-0.292s0.008-0.292 0.083-0.292c0.046 0 0.083-0.028 0.083-0.063 0-0.050 0.060-0.063 0.292-0.063s0.292 0.013 0.292 0.063zM23.208 27.833c0 0.034 0.028 0.063 0.063 0.063 0.048 0 0.063 0.053 0.063 0.229s-0.015 0.229-0.063 0.229c-0.034 0-0.063 0.028-0.063 0.063s-0.037 0.063-0.083 0.063c-0.056 0-0.083 0.028-0.083 0.083 0 0.075-0.028 0.083-0.292 0.083s-0.292-0.008-0.292-0.083c0-0.046-0.028-0.083-0.063-0.083-0.050 0-0.063-0.060-0.063-0.292s0.013-0.292 0.063-0.292c0.034 0 0.063-0.028 0.063-0.063 0-0.051 0.069-0.063 0.375-0.063s0.375 0.012 0.375 0.063zM21.417 28.125c0 0.035 0.037 0.063 0.083 0.063 0.056 0 0.083 0.028 0.083 0.083 0 0.046 0.028 0.083 0.063 0.083 0.050 0 0.063 0.060 0.063 0.292s-0.013 0.292-0.063 0.292c-0.034 0-0.063 0.028-0.063 0.063 0 0.051-0.069 0.063-0.375 0.063s-0.375-0.012-0.375-0.063c0-0.034-0.028-0.063-0.063-0.063s-0.063-0.037-0.063-0.083c0-0.056-0.028-0.083-0.083-0.083-0.067 0-0.083-0.028-0.083-0.146s0.016-0.146 0.083-0.146c0.067 0 0.083-0.028 0.083-0.146 0-0.139 0.007-0.146 0.146-0.146 0.102 0 0.146-0.019 0.146-0.063 0-0.047 0.051-0.063 0.208-0.063s0.208 0.015 0.208 0.063zM11.583 28.271c0 0.056 0.028 0.083 0.083 0.083 0.046 0 0.083 0.028 0.083 0.063s0.028 0.063 0.063 0.063c0.035 0 0.063 0.037 0.063 0.083 0 0.056 0.028 0.083 0.083 0.083 0.068 0 0.083 0.028 0.083 0.146s-0.016 0.146-0.083 0.146c-0.067 0-0.083 0.028-0.083 0.146 0 0.102-0.019 0.146-0.063 0.146-0.035 0-0.063 0.037-0.063 0.083 0 0.076-0.028 0.083-0.312 0.083s-0.313-0.007-0.313-0.083c0-0.046-0.028-0.083-0.063-0.083s-0.063-0.037-0.063-0.083c0-0.056-0.028-0.083-0.083-0.083-0.075 0-0.083-0.028-0.083-0.292s0.008-0.292 0.083-0.292c0.046 0 0.083-0.028 0.083-0.063 0-0.044 0.044-0.063 0.146-0.063 0.118 0 0.146-0.016 0.146-0.083s0.028-0.083 0.146-0.083 0.146 0.016 0.146 0.083zM18.333 28.562c0 0.067 0.028 0.083 0.146 0.083 0.139 0 0.146 0.007 0.146 0.146 0 0.118 0.016 0.146 0.083 0.146 0.046 0 0.083 0.028 0.083 0.063s0.028 0.063 0.063 0.063c0.045 0 0.063 0.046 0.063 0.167s-0.017 0.167-0.063 0.167c-0.034 0-0.063 0.028-0.063 0.063s-0.037 0.063-0.083 0.063c-0.056 0-0.083 0.028-0.083 0.083 0 0.046-0.028 0.083-0.063 0.083s-0.063 0.028-0.063 0.063c0 0.044-0.044 0.063-0.146 0.063s-0.146-0.019-0.146-0.063c0-0.044-0.044-0.063-0.146-0.063-0.139 0-0.146-0.007-0.146-0.146 0-0.118-0.016-0.146-0.083-0.146-0.076 0-0.083-0.028-0.083-0.313s0.007-0.313 0.083-0.313c0.046 0 0.083-0.028 0.083-0.063s0.028-0.063 0.063-0.063c0.035 0 0.063-0.037 0.063-0.083 0-0.067 0.028-0.083 0.146-0.083s0.146 0.016 0.146 0.083zM14.667 28.854c0 0.067 0.028 0.083 0.146 0.083 0.102 0 0.146 0.019 0.146 0.063 0 0.035 0.037 0.063 0.083 0.063 0.073 0 0.083 0.028 0.083 0.229s-0.010 0.229-0.083 0.229c-0.056 0-0.083 0.028-0.083 0.083 0 0.046-0.028 0.083-0.063 0.083s-0.063 0.028-0.063 0.063c0 0.048-0.053 0.063-0.229 0.063s-0.229-0.015-0.229-0.063c0-0.044-0.044-0.063-0.146-0.063h-0.146v-0.75h0.146c0.118 0 0.146-0.016 0.146-0.083s0.028-0.083 0.146-0.083c0.118 0 0.146 0.016 0.146 0.083z"></path>
</svg>
