<!-- Generated by IcoMoon.io -->
<svg version="1.1" xmlns="http://www.w3.org/2000/svg" width="1024" height="1024" viewBox="0 0 1024 1024">
<title></title>
<g id="icomoon-ignore">
</g>
<path fill="#000" d="M871.747 93.429c-32.924 26.055-77.854 75.95-91.599 101.708-20.531 38.477-29.2 36.702-64.239-13.156-21.238-30.214-44.325-54.188-64.571-67.026-27.083-17.178-27.316-13.175-1.082 18.925 61.213 74.895 71.576 178.117 23.011 229.187-10.125 10.654-14.592 10.893-34.9 1.915-53.79-23.789-131.299-24.091-187.626-0.72-62.87 26.086-78.714 6.561-78.596-96.803 0.081-66.292 3.575-81.242 28.539-122.12 20.14-32.98 19.687-31.844 10.097-25.565-11.881 7.787-46.564 48.837-69.263 81.985-34.344 50.138-51.276 48.032-82.231-10.253-24.413-45.972-72.219-81.169-110.585-81.422-18.311-0.125-20.908 5.611-3.861 8.519 41.098 7.017 82.596 54.121 72.543 82.323-5.224 14.659-10.826 15.239-39.631 4.131-40.040-15.439-37.837-2.801 2.836 16.335 89.18 41.96 146.628 115.375 105.868 135.304-17.314 8.468-59.966-2.174-73.355-18.301-5.178-6.239-16.265-6.659-16.265-0.611 0 13.048 48.933 43.226 91.296 56.294 25.41 7.843 38.093 14.985 51.542 29.043l9.466 9.894-11.874 12.164c-14.121 14.461-14.582 16.713-3.418 16.713 26.291 0 54.928 45.133 42.897 67.618-1.809 3.375-4.649 20.484-6.321 38.020-1.669 17.536-5.47 36.987-8.444 43.224l-5.403 11.328 19.178 29.982c17.56 27.456 20.862 30.828 39.142 40.023 26.354 13.253 31.82 18.644 37.177 36.678 2.468 8.321 6.885 19.76 9.816 25.422s6.021 20.668 6.872 33.352c3.326 49.628 2.932 48.532 24.405 66.481 24.64 20.589 23.463 22.659 28.129-49.851 4.779-74.208 6.637-86.388 13.403-87.69 7.674-1.483 9.154 13.956 9.2 95.574l0.033 72.161 12.987-12.678c25.407-24.808 37.322-47.764 44.426-85.599 9.127-48.585 27.888-76.927 63.295-95.651 19.509-10.311 22.707-16.713 30.294-60.529l5.967-34.482-8.073-11.843c-22.707-33.303-10.944-91.502 24.683-122.189 12.505-10.773 15.004-14.547 12.606-19.035-10.041-18.765 3.16-42.74 25.487-46.283 53.378-8.461 89.632-28.578 107.957-59.875l6.278-10.72-9.488 6.041c-5.217 3.322-12.386 8.574-15.917 11.671-32.267 28.25-85.167 19.453-85.167-14.169 0-32.427 56.723-101.581 83.309-101.581 1.768 0 11.442-3.077 21.495-6.832 20.12-7.533 19.036-10.236-5.509-13.782-20.516-2.957-28.593-11.267-28.593-29.429 0-23.219 11.186-41.561 54.24-88.956 11.251-12.386 8.012-11.043-12.453 5.157zM640.114 605.336c13.601 17.296 1.614 32.627-30.912 39.527-47.762 10.132-50.189-18.372-3.488-41.013 18.47-8.956 26.458-8.613 34.4 1.485zM469.159 613.437c26.595 16.345 33.332 43.699 9.833 39.936-28.61-4.572-53.972-19.929-53.972-32.675 0-18.197 20.784-21.623 44.141-7.263zM641.049 739.85c-21.833 24.804-25.796 56.328-16.89 134.164 3.807 33.238 3.693 35.047-3.155 49.177-9.127 18.852-6.717 20.895 7.449 6.311 29.414-30.291 48.658-86.719 48.768-143.024 0.116-59.503-11.582-74.577-36.173-46.629zM390.454 753.536c-23.193 49.544-7.707 141.673 30.508 181.571 9.712 10.137 19.096 12.15 15.062 3.225-5.302-11.722-5.377-67.408-0.121-83.442 9.585-29.221 12.825-88.161 6.54-119.032-1.329-6.54-3.331-7.232-20.905-7.232h-19.429l-11.656 24.91z"></path>
</svg>
