<!-- Generated by IcoMoon.io -->
<svg version="1.1" xmlns="http://www.w3.org/2000/svg" width="1024" height="1024" viewBox="0 0 1024 1024">
<title></title>
<g id="icomoon-ignore">
</g>
<path fill="#000" d="M506.942 770.916c-22.24 0-44.308 0-66.588 0-35.553 0-45.098-9.42-45.888-46.216-0.954-40.572 0-80.979 0-121.387s-1.079-43.558-44.019-43.683c-27.423 0-54.807 0-82.23 0-16.924 0-19.246 8.63-12.859 22.858 4.604 9.67 8.544 20.95 11.202 32.731l0.211 1.118c3.94 18.050 6.512 39.040 7.176 60.568v0.539c0 9.873-5.644 25.226-12.859 28.213-4.816 1.821-10.374 2.861-16.182 2.861-7.638 0-14.814-1.821-21.2-5.019l0.25 0.125c-6.262-3.448-7.051-20.036-6.887-30.534 0.328-17.753 2.244-34.849 5.644-51.446l-0.289 1.782c3.776-18.339 16.432-37.922 12.531-53.556-3.275-13.149-26.798-20.036-38.211-32.567s-3.275-41.361 12.984-50.57c1.454-0.539 3.15-0.868 4.941-0.868s3.487 0.328 5.019 0.915l-0.086-0.039c2.486 1.040 4.518 2.658 6.097 4.643l0.039 0.039c17.214 18.339 25.68-6.262 38.211-7.34s19.418 24.437 35.1 10.037c12.195-11.288 20.989-12.070 32.278 0 1.868 2.197 8.755 0 13.321 0 0-4.565 0-10.663-2.486-13.61-11.742-12.531-21.615-30.534-44.183-15.681-4.401 2.986-12.984 0-19.418-1.243s-15.681-5.808-21.287-4.401c-10.827 2.486-16.596 20.825-32.731 5.933s-31.324-26.016-26.016-50.281c0.625-2.369 0.954-5.058 0.954-7.841s-0.328-5.48-0.993-8.052l0.039 0.211c-11.906-45.715 17.55-70.942 47.005-95.543 1.743-1.579 9.709 1.243 12.195 4.229 25.391 29.745 48.71 26.133 65.923-10.499 3.322-6.058 6.637-11.163 10.288-16.018l-0.25 0.375c3.612 4.855 9.248 9.248 10.499 14.728 5.644 23.022 20.825 29.127 43.065 30.245s25.226-17.55 33.192-31.324c1.868-3.275 2.822-7.051 4.565-10.499 3.776-7.215 7.841-14.4 11.742-21.615 3.197 7.88 6.559 14.517 10.374 20.825l-0.375-0.625c10.037 14.564 20.536 28.502 31.324 42.44 2.408 2.861 4.98 5.433 7.716 7.755l0.086 0.086c38.664 37.75 39 44.183 4.565 83.965-25.391 29.127-25.391 29.291 4.065 57.332 2.486 2.486 4.69 5.48 7.051 8.294 21.615 24.89 21.615 24.89 0 50.742-4.69 5.644-10.952 10.037-15.681 15.681-15.681 22.068-14.564 31.324 6.723 49.952 29.909 27.095 29.745 34.31 0 72.974-4.354 7.051-8.341 15.228-11.577 23.772l-0.328 0.993c9.295-5.894 17.386-12.070 24.89-18.918l-0.125 0.125c12.695-14.102 32.567-29.291 33.192-44.637s-18.793-31.324-32.442-43.065-8.63-21.943-2.822-33.52c2.072-3.487 4.44-6.512 7.051-9.248v0c32.567-42.151 33.356-42.893-2.369-80.815-15.681-15.681-16.76-27.259-0.954-42.44 7.34-6.887 10.827-17.839 18.339-24.601 17.839-15.681 22.858-30.534 1.743-47.92-12.984-10.499-9.42-23.358 5.019-25.226 20.825-2.822 22.694-16.924 28.338-31.324 6.136-11.906 12.859-22.193 20.497-31.699l-0.289 0.375c4.565 8.466 8.92 18.504 12.531 28.877l0.453 1.493c2.322 17.261 16.924 30.448 34.599 30.534v0c22.068 1.579 38.703-2.369 40.744-29.127 0-4.69 6.887-8.92 10.499-13.321 3.072 3.487 6.019 7.34 8.794 11.327l0.289 0.414c23.483 39 31.324 40.408 65.634 13.149 2.986-2.158 6.723-3.487 10.788-3.487 1.743 0 3.4 0.25 5.019 0.704l-0.125-0.039c47.005 27.876 61.233 65.298 50.57 123.591-3.901 21.161-36.014 35.389-55.925 31.324-14.102-2.486-38.539 14.4-43.855 8.92-15.681-15.681-26.016-9.873-39.165-1.743-3.361 2.032-6.136 4.729-8.255 7.88l-0.039 0.086c-2.408 4.479-4.941 9.998-7.137 15.681l-0.375 1.079c7.215 0.79 16.924 5.019 20.989 1.743 11.288-8.755 19.418-16.596 29.909 0.954 1.407 2.486 14.728 2.369 17.386-0.954 12.984-15.681 23.483-11.452 35.553 0 2.822 2.822 12.859 3.776 14.4 1.579 16.76-21.451 27.712-9.545 35.225 6.723 2.158 4.479 3.4 9.748 3.4 15.306 0 14.478-8.544 26.97-20.864 32.692l-0.211 0.086c-19.582 8.005-36.968 12.984-14.4 37.585 5.48 5.933 1.868 20.208 2.369 30.534-0.25 4.065-0.375 8.794-0.375 13.563 0 14.4 1.204 28.541 3.565 42.276l-0.211-1.493c3.275 12.531 7.677 24.273-5.308 29.62-4.941 2.158-10.663 3.4-16.674 3.4s-11.781-1.243-16.971-3.526l0.289 0.125c-8.005-4.565-17.55-21.161-14.892-27.548 13.321-31.324-4.065-67.995 19.129-97.739 7.512-9.709 0-19.582-14.564-19.246h-11.742l-101.023 2.822c-1.868 33.192-4.229 66.588-5.48 99.944-0.954 20.825 0 41.823 0 62.648 0.086 0.915 0.125 1.993 0.125 3.072 0 23.608-19.129 42.776-42.776 42.776-1.040 0-2.032-0.039-3.072-0.125h0.125c-23.194 2.986-48.084 2.369-72.849 2.369zM373.767 406.123c0.086 0 0.211 0 0.289 0 7.802 0 15.353-1.040 22.529-2.947l-0.625 0.125c11.577-5.808 22.568-12.695 33.81-19.246-13.149-6.723-26.016-13.774-39.329-20.036-1.704-0.328-3.69-0.539-5.722-0.539s-3.979 0.211-5.933 0.539l0.211-0.039c-14.892 0-27.548 5.933-24.601 21.287 2.369 8.92 14.4 15.971 19.246 20.825zM643.635 407.702c6.598-5.644 20.825-11.906 22.694-20.825 4.229-18.793-10.827-23.483-26.923-23.022-6.598 0-14.892-2.197-19.246 1.079-8.466 7.215-16.018 15.017-22.78 23.483l-0.25 0.328c7.34 4.065 14.4 8.466 21.943 11.906 6.387 2.369 14.642 4.768 23.022 6.723l1.579 0.289z"></path>
</svg>
