<!-- Generated by IcoMoon.io -->
<svg version="1.1" xmlns="http://www.w3.org/2000/svg" width="512" height="512" viewBox="0 0 512 512">
<title>bladeborn-borgits-beastgrabbaz</title>
<g id="icomoon-ignore">
</g>
<path fill="#000" d="M274.823 79.815c-3.262 1.227-4.963 2.757-12.087 10.88-11.481 13.089-21.089 19.9-41.099 29.13-34.73 16.022-34.087 15.311-34.087 37.663 0 9.952-0.827 15.876-3.046 21.849-2.26 6.079-2.522 7.732-2.153 13.578 1.266 20.008 1.236 23.572-0.278 33.651-4.21 28.041-1.316 35.507 14.577 37.605 21.807 2.878 40.157 14.784 53.34 34.609 11.302 16.998 11.554 18.306 10.453 54.438l-0.512 16.793 1.729 3.401c3.44 6.765 8.317 8.932 26.123 11.601 11.574 1.736 22.081 5.279 26.397 8.902 1.52 1.275 7.989 2.622 10.124 2.106 3.673-0.886 6.695-1.678 9.385-2.461 4.748-1.382 13.953-2.661 39.016-5.426 16.368-1.805 35.083-4.757 43.123-6.8 1.506-0.384 4.048-1.018 5.647-1.413 3.704-0.911 7.684-1.907 10.952-2.738 1.413-0.36 3.799-0.954 5.305-1.323s3.928-0.974 5.382-1.345c4.538-1.159 6.622-3.918 10.288-13.62 0.604-1.599 1.562-4.14 2.126-5.647 0.565-1.506 1.524-4.047 2.131-5.647s1.562-4.142 2.121-5.647c6.031-16.243 15.435-33.486 25.197-46.204 9.649-12.572 10.113-16.139 3.748-28.75-1.87-3.707-6.075-15.537-7.121-20.036-0.243-1.044-1.565-3.142-2.935-4.659l-2.495-2.761-7.584 0.311c-12.686 0.522-25.401 3.506-28.976 6.801-2.45 2.258-1.901 3.981 3.080 9.668 11.983 13.677 11.953 13.286 2.418 32.24-2.462 4.894-6.411 12.44-8.776 16.769-2.365 4.33-5.132 9.412-6.149 11.294-11.854 21.946-19.743 27.074-28.86 18.755-8.204-7.486-14.322-6.031-21.694 5.164-10.104 15.344-25.805 19.272-45.26 11.327-4.117-1.681-10.979-5.025-11.979-5.837-0.565-0.459-3.49-2.126-6.502-3.706-9.684-5.079-17.909-10.341-23.503-15.034-3.878-3.253-5.394-5.846-12.398-21.192-11.293-24.748-21.901-40.309-40.225-59.003-5.378-5.487-9.793-10.416-9.811-10.952-1.525-44.775 1.999-57.966 20.833-77.981 22.418-23.823 28.686-26.423 34.642-14.375 4.336 8.775 8.651 9.143 18.746 1.603 29.119-21.748 67.010-16.12 58.334 8.665-2.474 7.064-0.596 11.102 4.414 9.491 14.303-4.597 36.926-19.154 36.926-23.761 0-3.435-3.48-7.509-22.051-25.817-20.957-20.659-19.988-19.951-29.286-21.428-13.279-2.111-25.997-4.453-30.289-5.578-1.413-0.371-3.723-0.959-5.134-1.306-2.916-0.719-14.017-3.984-16.599-4.882-9.521-3.313-21.168-4.66-25.668-2.969zM84.691 237.287c-4.069 0.698-10.766 9.3-10.766 13.83 0 4.275 7.496 9.231 23.957 15.841 20.474 8.22 21.537 10.43 22.892 47.565 0.28 7.69 1.050 12.914 2.572 17.455 0.568 1.694 1.416 4.466 1.888 6.16 0.469 1.694 1.13 3.788 1.467 4.652s0.614 4.074 0.614 7.133c0 9.2-2.868 10.192-9.073 3.139-11.344-12.892-12.769-14.102-15.567-13.214-1.451 0.461-4.793 5.57-4.793 7.329 0 1.192-5.070 8.976-8.797 13.503-4.017 4.881-5.74 8.090-19.004 35.397-6.383 13.141-6.282 13.699 4.675 25.854 13.437 14.904 14.064 14.892 35.105-0.658 12.453-9.204 15.943-10.133 26.866-7.146 14.53 3.974 14.486 3.966 15.168 3.143 1.619-1.95-0.112-5.828-7.512-16.843-9.055-13.477-15.624-28.435-13.445-30.613 1.624-1.624 4.060 0.305 14.036 11.115 12.233 13.255 19.868 19.75 31.624 26.901 2.802 1.704 23.145 11.845 35.935 17.913 15.441 7.325 16.689 9.451 17.481 29.784 0.668 17.122 2.019 22.142 6.983 25.918 9.526 7.25 17.79-3.79 20.424-27.286 0.904-8.053 1.43-11.899 3.658-26.696 4.149-27.578 0.637-33.542-22.194-37.664-41.164-7.433-46.036-9.583-61.339-27.075-21.547-24.632-24.91-38.108-18.686-74.897 4.394-25.976 3.565-30.377-6.696-35.51-8.37-4.189-27.818-9.308-35.46-9.337-4.311-0.016-10.799-1.379-17.82-3.746-5.47-1.845-10.654-2.556-14.195-1.95zM203.7 294.346c-25.597 12.98-33.253 39.374-16.393 56.522 20.359 20.706 55.643-1.126 52.519-32.495-1.704-17.105-22.501-30.936-36.126-24.026zM109.536 379.329c4.68 3.461 5.88 12.022 2.284 16.296-7.136 8.481-16.524 7.747-17.611-1.377-1.423-11.945 7.544-20.672 15.326-14.918z"></path>
</svg>
