<!-- Generated by IcoMoon.io -->
<svg version="1.1" xmlns="http://www.w3.org/2000/svg" width="1024" height="1024" viewBox="0 0 1024 1024">
<title></title>
<g id="icomoon-ignore">
</g>
<path fill="#000" d="M656.746 130.16c-14.693 0.519-30.648 1.629-35.453 2.467-4.803 0.835-17.068 2.138-27.25 2.896-10.185 0.755-25.056 1.929-33.047 2.608-15.699 1.335-54.228 8.327-69.881 12.684-5.329 1.481-16.537 4.238-24.907 6.123-22.669 5.105-39.71 9.761-44.328 12.112-2.258 1.147-11.89 4.752-21.403 8.005-33.054 11.305-73.317 29.725-97.981 44.827-6.322 3.87-13.173 7.966-15.222 9.101-14.174 7.845-39.135 23.541-43.166 27.143-2.662 2.382-7.448 5.648-10.628 7.26-3.183 1.612-6.184 3.57-6.668 4.355-0.482 0.782-8.008 6.778-16.722 13.322s-16.951 13.31-18.307 15.032c-1.354 1.724-5.548 5.782-9.318 9.019-30.375 26.084-54.574 50.697-54.584 55.519-0.015 5.658 16.712 13.436 33.894 15.757 3.804 0.514 10.531 1.834 14.946 2.935s15.002 3.229 23.524 4.732c8.524 1.503 19.545 3.921 24.491 5.377 12.172 3.578 38.507 10.365 51.201 13.195 5.706 1.271 12.557 3.458 15.222 4.859 2.662 1.4 7.333 2.998 10.377 3.546 3.044 0.55 8.96 2.679 13.147 4.732 4.184 2.051 11.347 5.195 15.913 6.985 4.566 1.788 10.563 4.654 13.322 6.369 2.762 1.712 7.282 4.057 10.046 5.214 27.477 11.481 59.898 49.092 79.15 91.827 3.171 7.038 6.364 13.575 7.097 14.53 5.857 7.616 20.426 57.565 24.062 82.501 10.701 73.371 2.606 106.537-22.284 91.305-2.662-1.629-8.889-4.369-13.836-6.089-26.132-9.077-65.334-28.461-88.755-43.887-8.646-5.694-18.836-12.014-22.64-14.043-8.11-4.325-12.779-7.547-38.746-26.744-46.074-34.057-75.894-58.358-85.762-69.888-2.669-3.117-7.277-7.277-10.239-9.24-6.666-4.418-20.882-17.888-29.428-27.884-17.455-20.419-63.87-65.358-66.076-63.975-4.571 2.862-3.329 10.112 3.87 22.56 3.741 6.471 11.293 20.005 16.785 30.078 5.49 10.071 12.55 21.719 15.692 25.884 9.715 12.881 10.969 14.868 17.93 28.427 3.719 7.243 9.467 16.593 12.776 20.779 3.307 4.187 7.443 9.433 9.189 11.659 1.746 2.228 4.732 6.712 6.637 9.968 4.196 7.182 21.698 29.956 35.916 46.736 5.743 6.775 14.362 17.243 19.157 23.261 13.797 17.316 71.193 73.049 85.38 82.903 4.566 3.173 11.417 8.717 15.222 12.319 9.547 9.036 33.69 26.749 42.589 31.247 2.453 1.24 5.911 3.58 7.684 5.202 1.773 1.624 5.509 3.897 8.302 5.051 7.036 2.91 18.293 9.243 29.135 16.396 5.034 3.32 12.267 7.136 16.074 8.48 3.804 1.344 16.773 7.189 28.816 12.991 12.046 5.799 23.566 10.943 25.602 11.43s5.373 1.729 7.414 2.757c2.043 1.028 13.875 5.029 26.293 8.889 12.418 3.863 26.313 8.485 30.879 10.273 4.566 1.79 11.417 3.67 15.222 4.177 3.807 0.509 10.472 2.107 14.815 3.553 36.505 12.158 43.093 4.213 25.312-30.536-2.53-4.946-5.633-12.988-6.892-17.869-1.262-4.881-3.748-12.667-5.528-17.297-8.434-21.958-20.602-70.509-22.745-90.757-0.765-7.231-2.104-19.893-2.976-28.137-1.7-16.106-0.806-58.237 1.654-77.723 2.233-17.703 15.166-55.606 24.549-71.956 3.059-5.329 7.087-12.489 8.953-15.916 1.866-3.424 5.816-9.028 8.777-12.453s8.604-10.331 12.54-15.346c18.098-23.059 66.016-61.71 93.853-75.701 4.515-2.267 11.985-6.096 16.603-8.505 5.117-2.669 11.41-4.691 16.12-5.178l7.728-0.796 4.223 5.828c2.491 3.441 4.493 8.19 4.888 11.595 0.918 7.942 3.186 25.886 5.979 47.28 2.759 21.162 3.137 87.080 0.599 105.168-0.855 6.089-2.516 20.38-3.697 31.761-1.179 11.378-2.781 23.522-3.563 26.982-0.784 3.463-1.98 10.655-2.662 15.981-2.107 16.476-17.27 84.435-26.247 117.623-2.265 8.371-5.711 21.758-7.66 29.749-1.951 7.993-5.134 17.957-7.077 22.141-10.377 22.355 1.279 26.332 16.123 5.502 3.424-4.805 8.405-11.21 11.069-14.233 2.662-3.022 6.089-7.572 7.611-10.112 1.522-2.538 6.291-9.766 10.597-16.064 6.875-10.051 14.696-24.776 28.87-54.345 18.967-39.569 29.196-68.429 51.018-143.914 6.965-24.099 18.337-80.974 25.039-125.234 4.057-26.797 6.834-120.648 4.211-142.426-0.877-7.287-2.129-20.1-2.781-28.471-1.87-24.009-8.298-48.967-21.115-82.012-9.623-24.805-15.964-25.273-32.362-2.389-18.268 25.492-52.635 61.371-85.616 89.386-3.044 2.584-6.347 5.787-7.34 7.116-1.924 2.577-35.984 27.155-41.785 30.151-1.902 0.984-6.573 4.087-10.377 6.9-65.494 48.38-191.656 51.973-263.631 7.504-2.674-1.651-8.278-4.73-12.453-6.839-4.177-2.107-11.215-6.853-15.643-10.543s-9.805-7.747-11.948-9.014c-11.953-7.060-9.642-25.93 4.043-33.008 2.292-1.184 7.292-4.929 11.113-8.324 3.821-3.393 8.965-7.202 11.43-8.463 2.467-1.262 8.22-5.226 12.786-8.816 13.39-10.519 53.695-34.817 72.65-43.794 7.228-3.427 17.504-8.349 22.832-10.943 29.24-14.226 87.574-37.168 107.935-42.445 3.044-0.789 8.96-2.547 13.147-3.909 42.168-13.707 91.169-28.546 100.324-30.382 9.581-1.922 29.988-11.055 29.301-13.115-1.578-4.732-30.991-5.718-98.914-3.312zM542.328 452.547c13.678 4.469 15.295 5.743 20.687 16.296 5.066 9.91-24.308 55.938-38.69 60.628-8.955 2.92-18.79-3.687-25.11-16.875-1.824-3.807-5.163-9.722-7.418-13.147-4.963-7.535-13.829-25.874-13.829-28.609 0-17.197 36.215-27.489 64.359-18.293z"></path>
</svg>
