<!-- Generated by IcoMoon.io -->
<svg version="1.1" xmlns="http://www.w3.org/2000/svg" width="1024" height="1024" viewBox="0 0 1024 1024">
<title></title>
<g id="icomoon-ignore">
</g>
<path fill="#000" d="M491.651 165.175c-66.506 10.397-119.363 51.821-174.698 136.898-15.218 23.391-32.442 43.842-36.933 43.842-5.787 0-40.45-9.61-71.008-19.68-10.783-3.552-19.773-6.289-19.98-6.082-2.629 2.629 16.95 24.745 69.452 78.428 22.093 22.596 40.173 41.589 40.173 42.222 0 0.63-2.908 10.033-6.46 20.903-12.8 39.148-12.658 40.578 4.746 46.875 44.257 16.016 75.406 41.19 97.207 78.564 3.743 6.412 10.432 17.878 14.867 25.477 16.718 28.643 22.603 30.96 30.282 11.916 5.505-13.657 12.808-24.801 32.905-50.203 2.091-2.642 1.032-3.807 14.457 15.979 24.948 36.789 30.191 37.348 47.455 5.059 16.687-31.201 22.34-29.031 52.219 19.994 18.248 29.938 18.666 29.694 48.924-28.074 26.905-51.371 28.975-53.396 70.74-69.393 40.865-15.649 41.998-17.357 35.592-53.869-5.528-31.497-3.791-35.267 36.195-78.585 54.781-59.353 64.142-71.139 59.904-75.38-3.366-3.365-12.193-0.168-53.768 19.48-33.301 15.742-36.56 17.044-38.258 15.284-2.063-2.131-11.626-18.173-20.733-34.743-43.837-79.823-99.75-125.625-173.594-142.206-11.060-2.485-49.855-4.241-59.683-2.708zM379.783 411.881c40.368 13.792 62.25 31.527 68.502 55.519 5.882 22.564-6.926 30.356-30.992 18.85-35.11-16.784-70.37-42.467-73.701-53.689-7.226-24.317 5.044-31.327 36.195-20.685zM683.376 410.054c13.475 9.969 5.715 27.084-21.773 48.046-8.524 6.492-52.986 38.367-56.307 40.364-1.29 0.774-11.81-14.513-16.915-24.599-10.514-20.741-0.7-36.406 31.766-50.696 30.526-13.44 55.735-18.666 63.229-13.119zM158.585 438.891c0.013 1.245 0.689 7.258 1.506 13.353 2.514 18.725 6.236 50.047 12.579 105.818 11.004 96.729 17.482 136.43 26.294 160.959 6.606 18.397 8.924 29.513 10.011 48.048 3.286 55.721 18.36 58.906 36.294 7.67 26.874-76.776 64.006-58.73 93.303 45.353 12.77 45.358 29.348 53.066 31.657 14.712 4.323-71.924 58.158-81.672 78.128-14.151 10.444 35.326 22.031 38.646 24.040 6.893 1.054-16.567 5.999-28.552 17.256-41.797 13.973-16.439 14.332-21.574 5.494-78.729-9.546-61.769-18.464-79.937-26.235-53.462-3.826 13.034-10.211 23.471-22.038 36.020-7.886 8.367-13.92 17.173-19.302 28.151-12.092 24.687-21.084 17.487-32.687-26.131-12.919-48.571-39.508-111.865-46.997-111.865-2.801 0-9.474 21.662-14.909 48.373-12.311 60.523-24.109 79.692-38.928 63.242-21.845-24.253-69.719-113.217-108.332-201.308-7.654-17.461-15.564-35.334-17.567-39.724-5.566-12.137-9.628-16.987-9.58-11.421zM859.763 454.511c-2.104 2.37-20.294 46.378-23.434 56.691-1.466 4.821-13.555 31.152-22.508 49.027-8.849 17.676-11.674 22.976-28.406 53.263-4.592 8.316-14.013 26.227-20.938 39.806-14.279 28.007-16.258 31.181-23.428 37.628-11.028 9.918-20.076 6.47-20.145-7.665-0.024-5.624-4.060-16.862-8.394-23.384-8.463-12.745-12.094-23.838-13.204-40.36-1.564-23.261-4.967-30.404-13.183-27.685-15.698 5.183-41.030 62.090-54.947 123.441-8.705 38.375-19.062 32.743-46.835-25.469-26.337-55.2-31.543-60.148-38.385-36.518-2.203 7.617-3.749 16.277-10.487 58.962-1.753 11.089-4.541 26.73-6.21 34.767-5.489 26.509-5.148 28.248 7.090 36.787 11.743 8.186 16.234 16.154 20.837 36.933 7.396 33.368 22.114 28.712 24.628-7.795 0.971-14.066 3.148-19.704 10.009-25.903 7.274-6.579 22.157-12.816 30.553-12.816 18.514 0 40.102 37.422 40.102 69.518 0 30.566 16.748 5.805 37.411-55.298 15.508-45.864 21.851-53.96 46.4-59.241 22.274-4.789 29.276 6.345 43.645 69.404 8.255 36.225 22.018 19.648 30.287-36.483 3.105-21.090 8.447-45.744 13.22-60.962 17.001-54.293 31.865-157.307 31.987-221.725 0.048-24.806-1.141-30.042-5.654-24.947zM489.333 501.168c7.71 3.52 12.658 23.082 7.835 30.997-6.535 10.716-34.501 8.576-38.542-2.956-1.932-5.518 16.256-26.179 24.963-28.363 3.195-0.803 3.315-0.795 5.752 0.322zM550.133 501.708c17.218 8.17 21.968 29.789 7.407 33.714-12.581 3.387-19.033-2.541-19.033-17.511 0-15.702 3.217-20.19 11.618-16.202z"></path>
</svg>
