<!-- Generated by IcoMoon.io -->
<svg version="1.1" xmlns="http://www.w3.org/2000/svg" width="1024" height="1024" viewBox="0 0 1024 1024">
<title></title>
<g id="icomoon-ignore">
</g>
<path fill="#000" d="M499.466 231.526c0 1.089-0.896 1.986-1.986 1.986-1.103 0-1.99 1.18-1.99 2.646 0 1.764-0.88 2.646-2.646 2.646-1.468 0-2.646 0.882-2.646 1.986 0 1.089-0.896 1.986-1.986 1.986-1.103 0-1.99 1.18-1.99 2.646 0 1.627-0.892 2.661-2.313 2.674-1.278 0.018-3.261 1.948-4.411 4.299-1.222 2.49-3.296 4.448-4.961 4.692-1.804 0.265-2.868 1.371-2.868 2.98 0 1.401-0.896 2.556-1.986 2.556-1.094 0-1.986 0.896-1.986 1.986 0 1.103-1.18 1.986-2.649 1.986-2.139 0-2.646 0.882-2.646 4.632 0 3.233-0.598 4.63-1.986 4.63s-1.986 1.395-1.986 4.632c0 3.75-0.508 4.63-2.649 4.63-2.136 0-2.646 0.882-2.646 4.632 0 3.231-0.598 4.63-1.986 4.63-1.527 0-1.986 1.69-1.986 7.278 0 6.396-0.324 7.278-2.649 7.278-2.136 0-2.646 0.88-2.646 4.63 0 3.233-0.598 4.632-1.986 4.632-1.671 0-1.986 2.94-1.986 18.522 0 17.639-0.124 18.522-2.646 18.522-2.325 0-2.649 0.88-2.649 7.276 0 4.006-0.568 7.278-1.259 7.278s-1.652 2.083-2.135 4.63c-0.819 4.353-1.183 4.632-6.017 4.632-3.69 0-5.144 0.561-5.144 1.986 0 1.094-0.896 1.986-1.986 1.986-1.103 0-1.99 1.18-1.99 2.649 0 2.136-0.88 2.646-4.63 2.646-3.233 0-4.632 0.598-4.632 1.986 0 1.103-1.178 1.986-2.646 1.986-1.764 0-2.646 0.882-2.646 2.649 0 1.466-0.882 2.646-1.986 2.646-1.094 0-1.99 0.896-1.99 1.986 0 1.103-1.178 1.986-2.646 1.986-1.764 0-2.646 0.882-2.646 2.646 0 2.295-0.88 2.649-6.62 2.649-4.997 0-6.618 0.484-6.618 1.986 0 1.39-1.395 1.986-4.632 1.986-3.75 0-4.63 0.508-4.63 2.646 0 2.295-0.882 2.649-6.657 2.649-4.699 0-6.883 0.583-7.418 1.986-0.533 1.392-2.701 1.986-7.236 1.986-5.596 0-6.476 0.361-6.476 2.646 0 2.325-0.882 2.649-7.278 2.649s-7.278-0.324-7.278-2.649c0-2.323-0.88-2.646-7.276-2.646-5.589 0-7.278-0.461-7.278-1.986 0-1.094-0.896-1.986-1.986-1.986-1.103 0-1.99-1.18-1.99-2.649 0-1.759-0.88-2.646-2.646-2.646-1.468 0-2.646-0.88-2.646-1.986 0-1.089-0.896-1.986-1.986-1.986-1.383 0-1.986-1.392-1.986-4.557 0-3.84-0.414-4.471-2.649-4.043-2.065 0.396-2.646-0.2-2.646-2.723 0-1.995-0.761-3.231-1.986-3.231-1.094 0-1.986-0.892-1.986-1.986 0-1.527-1.692-1.986-7.278-1.986h-7.278v4.63c0 3.75 0.505 4.632 2.646 4.632s2.649 0.88 2.649 4.63c0 3.233 0.598 4.632 1.986 4.632s1.986 1.395 1.986 4.63c0 3.75 0.505 4.632 2.646 4.632 1.468 0 2.649 0.88 2.649 1.986 0 1.089 0.892 1.986 1.986 1.986 1.103 0 1.986 1.18 1.986 2.646 0 1.764 0.88 2.649 2.646 2.649s2.649 0.88 2.649 2.646c0 1.468 0.88 2.646 1.986 2.646 1.089 0 1.986 0.896 1.986 1.986 0 1.39 1.395 1.99 4.63 1.99 3.75 0 4.632 0.505 4.632 2.646s0.88 2.646 4.63 2.646c3.233 0 4.632 0.601 4.632 1.986 0 1.39 1.395 1.99 4.63 1.99 3.75 0 4.632 0.505 4.632 2.646 0 2.207 0.88 2.646 5.288 2.646 3.824 0 5.293 0.549 5.293 1.986 0 1.39 1.395 1.986 4.63 1.986 3.75 0 4.632 0.508 4.632 2.649 0 1.466 0.88 2.646 1.986 2.646 1.089 0 1.986 0.896 1.986 1.986 0 1.103 1.18 1.986 2.646 1.986 1.764 0 2.649 0.882 2.649 2.649 0 1.466 0.88 2.646 1.986 2.646 1.652 0 1.986 2.646 1.986 15.876 0 14.992 0.149 15.873 2.646 15.873 2.207 0 2.649 0.882 2.649 5.293 0 3.824 0.549 5.288 1.986 5.288 1.39 0 1.986 1.395 1.986 4.632 0 3.75 0.505 4.63 2.646 4.63 1.468 0 2.649 0.882 2.649 1.986 0 1.094 0.892 1.988 1.986 1.988 1.103 0 1.986 1.176 1.986 2.644 0 1.764 0.88 2.644 2.646 2.644 1.468 0 2.649 0.882 2.649 1.986 0 1.094 0.892 1.988 1.986 1.988 1.103 0 1.986 1.176 1.986 2.644 0 1.764 0.88 2.644 2.646 2.644 1.468 0 2.646 0.882 2.646 1.986 0 1.094 0.896 1.988 1.99 1.988 1.702 0 1.986 4.043 1.986 28.445s-0.284 28.445-1.986 28.445c-1.501 0-1.99 1.618-1.99 6.618 0 4.75-0.514 6.618-1.827 6.618-1.006 0-2.19 1.336-2.631 2.977-0.959 3.568-0.915 24.868 0.042 22.494 0.37-0.908 1.66-1.642 2.875-1.637 1.744 0.018 1.827 0.263 0.409 1.157-1.254 0.795-1.355 1.41-0.335 2.041 2.579 1.595 1.711 6.042-1.183 6.042-2.293 0-2.646 0.882-2.646 6.618 0 4.997-0.484 6.618-1.986 6.618-1.527 0-1.986 1.69-1.986 7.278 0 6.396-0.324 7.278-2.649 7.278-2.123 0-2.646 0.882-2.646 4.467 0 3.908-0.498 4.565-3.997 5.263-3.125 0.624-4.173 1.676-4.795 4.797-0.441 2.197-1.618 3.999-2.621 3.999s-1.819 1.189-1.819 2.644c0 1.764-0.882 2.644-2.649 2.644-2.139 0-2.646 0.882-2.646 4.634 0 3.231-0.598 4.63-1.986 4.63-1.094 0-1.986 0.896-1.986 1.986 0 1.103-1.18 1.988-2.649 1.988-1.713 0-2.646 0.882-2.646 2.495 0 1.809-1.283 2.737-4.63 3.371-2.549 0.477-4.632 1.436-4.632 2.135 0 0.708-5.228 1.264-11.908 1.264-9.703 0-11.908-0.37-11.908-1.988 0-1.089-0.896-1.986-1.986-1.986-1.103 0-1.99-1.176-1.99-2.644 0-1.764-0.88-2.644-2.646-2.644-1.468 0-2.646-0.882-2.646-1.988 0-1.089-0.896-1.986-1.986-1.986-1.527 0-1.99-1.69-1.99-7.278 0-6.396-0.321-7.274-2.646-7.274-2.139 0-2.646-0.882-2.646-4.634 0-3.231-0.598-4.63-1.986-4.63s-1.986-1.395-1.986-4.634c0-3.75-0.508-4.63-2.649-4.63-2.323 0-2.646-0.882-2.646-7.278 0-5.223-0.505-7.278-1.783-7.278-1.324 0-1.993-3.342-2.567-12.9-1.052-17.263 0.189-33.41 2.56-33.41 1.169 0 1.792-1.615 1.792-4.634 0-3.75 0.505-4.63 2.646-4.63 1.468 0 2.649-0.882 2.649-1.988 0-1.089 1.146-1.986 2.535-1.986 3.943 0 6.727-1.427 6.727-3.444 0-1.399 2.23-1.846 9.264-1.846 8.384 0 9.264 0.251 9.264 2.644 0 2.141 0.882 2.644 4.632 2.644 3.231 0 4.63 0.601 4.63 1.986 0 1.39 1.395 1.988 4.632 1.988 3.75 0 4.63 0.505 4.63 2.644 0 1.764 0.882 2.644 2.646 2.644s2.649-0.882 2.649-2.644c0-1.468 0.88-2.644 1.986-2.644 1.501 0 1.986-1.618 1.986-6.618s-0.484-6.618-1.986-6.618c-1.103 0-1.986-1.176-1.986-2.644 0-1.764-0.882-2.644-2.649-2.644-1.759 0-2.646-0.882-2.646-2.644 0-1.468-0.88-2.649-1.986-2.649-1.089 0-1.986-0.894-1.986-1.986 0-1.43-1.468-1.986-5.293-1.986-4.441 0-5.288-0.438-5.288-2.698 0-2.596-0.715-2.691-18.522-2.523-17.273 0.16-18.522 0.344-18.522 2.698 0 2.141-0.992 2.523-6.62 2.523-4.997 0-6.618 0.484-6.618 1.986 0 1.103-1.18 1.986-2.649 1.986-1.759 0-2.646 0.882-2.646 2.649 0 1.465-0.88 2.644-1.986 2.644s-1.986 1.176-1.986 2.644c0 1.764-0.882 2.644-2.649 2.644-2.136 0-2.646 0.882-2.646 4.634 0 3.231-0.598 4.63-1.986 4.63-1.094 0-1.986 0.896-1.986 1.986 0 1.103-1.18 1.988-2.646 1.988-2.136 0-2.646 0.882-2.646 4.63 0 3.058-0.619 4.634-1.829 4.634-3.019 0-3.424 4.506-3.443 38.040-0.018 31.208 0.053 32.083 2.631 32.083 2.141 0 2.646 0.882 2.646 4.63s0.508 4.634 2.646 4.634c2.141 0 2.646 0.882 2.646 4.63 0 3.233 0.598 4.634 1.986 4.634s1.986 1.395 1.986 4.63c0 3.233-0.598 4.634-1.986 4.634-1.103 0-1.986 1.176-1.986 2.644 0 2.325-0.882 2.644-7.278 2.644s-7.278-0.319-7.278-2.644c0-1.69-0.882-2.644-2.442-2.644-2.949 0-6.822-4.004-6.822-7.048 0-1.329-1.054-2.208-2.646-2.208-2.141 0-2.646-0.882-2.646-4.634 0-3.231-0.601-4.63-1.986-4.63-1.094 0-1.988-0.896-1.988-1.986 0-1.103-1.178-1.988-2.646-1.988-1.671 0-2.646-0.882-2.646-2.39 0-1.315-0.875-3.549-1.944-4.961s-1.96-3.613-1.986-4.883c-0.023-1.422-1.069-2.313-2.688-2.313-1.764 0-2.646-0.882-2.646-2.644 0-1.468-0.882-2.649-1.986-2.649-1.387 0-1.988-1.395-1.988-4.63 0-3.75-0.505-4.634-2.646-4.634-1.465 0-2.646-0.882-2.646-1.986 0-1.089-0.896-1.986-1.986-1.986-1.387 0-1.986-1.395-1.986-4.634 0-3.75-0.508-4.63-2.646-4.63s-2.646-0.882-2.646-4.63c0-3.233-0.598-4.634-1.986-4.634-1.103 0-1.986-1.176-1.986-2.644 0-1.764-0.882-2.644-2.646-2.644-1.465 0-2.646-0.882-2.646-1.988 0-1.089-0.896-1.986-1.986-1.986-1.387 0-1.986-1.395-1.986-4.63 0-3.75-0.508-4.634-2.646-4.634-2.39 0-2.646-0.882-2.646-9.264 0-7.351-0.406-9.264-1.986-9.264-1.103 0-1.986-1.176-1.986-2.644 0-1.764-0.882-2.644-2.646-2.644-2.101 0-2.646-0.889-2.666-4.299-0.023-6.287-1.36-10.258-3.443-10.258-1.208 0-1.827-1.571-1.827-4.63 0-2.551-0.631-4.634-1.401-4.634s-1.036-0.593-0.583-1.324c0.451-0.726 0.265-1.324-0.412-1.324s-1.608-2.384-2.078-5.29c-0.547-3.429-1.538-5.293-2.811-5.293-1.555 0-1.967-1.944-1.967-9.264 0-7.351-0.409-9.264-1.988-9.264-3.214 0-2.938-63.687 0.3-67.465 2.986-3.494 25.506-4.089 25.506-0.677 0 1.39 1.395 1.986 4.632 1.986 3.75 0 4.63 0.508 4.63 2.649 0 1.759 0.882 2.646 2.646 2.646 1.468 0 2.646 0.88 2.646 1.986 0 1.094 0.894 1.986 1.986 1.986 1.103 0 1.986 1.18 1.986 2.649 0 1.759 0.882 2.646 2.646 2.646 1.809 0 2.646 0.88 2.646 2.774 0 1.529 2.086 4.86 4.63 7.406 2.546 2.549 4.63 5.463 4.63 6.482s0.896 1.854 1.988 1.854c1.089 0 1.986 1.146 1.986 2.537 0 3.94 1.427 6.727 3.447 6.727 1.012 0 1.844 1.189 1.844 2.644 0 1.468 0.882 2.644 1.988 2.644 1.278 0 1.99 1.291 1.999 3.64 0.025 5.668 1.436 9.592 3.443 9.592 1.334 0 1.827 1.96 1.827 7.274 0 5.589 0.463 7.278 1.988 7.278 1.089 0 1.986 0.896 1.986 1.986 0 1.39 1.395 1.986 4.63 1.986s4.632-0.598 4.632-1.986c0-1.103 1.178-1.986 2.646-1.986 2.479 0 2.646-0.882 2.646-13.896 0-12.646-0.221-13.896-2.454-13.896-2.208 0-2.546-1.657-3.387-16.77-0.512-9.224-1.492-17.815-2.176-19.095s-1.248-5.347-1.248-9.028c0-5.691-0.377-6.703-2.495-6.703-1.809 0-2.737-1.283-3.371-4.632-0.477-2.546-1.371-4.63-1.986-4.63-0.618 0-1.503-2.083-1.988-4.63-0.516-2.772-1.642-4.632-2.791-4.632-1.32 0-1.925-1.462-1.925-4.63 0-3.233-0.601-4.632-1.986-4.632-1.103 0-1.988-1.178-1.988-2.646 0-1.764-0.882-2.646-2.646-2.646-1.671 0-2.646-0.882-2.646-2.393 0-1.318-0.873-3.549-1.944-4.961-1.069-1.41-1.96-3.61-1.986-4.883-0.023-1.422-1.069-2.313-2.688-2.313-2.141 0-2.646-0.88-2.646-4.63 0-3.233-0.598-4.632-1.986-4.632-1.094 0-1.986-0.896-1.986-1.986 0-1.103-1.18-1.986-2.646-1.986-1.764 0-2.646-0.882-2.646-2.649 0-2.136-0.882-2.646-4.63-2.646-3.233 0-4.632-0.598-4.632-1.986s-1.395-1.986-4.63-1.986c-3.75 0-4.632-0.508-4.632-2.646s-0.882-2.649-4.63-2.649c-3.233 0-4.632-0.598-4.632-1.986 0-1.103-1.178-1.986-2.646-1.986-1.764 0-2.646-0.882-2.646-2.646 0-2.139-0.882-2.649-4.632-2.649-3.231 0-4.63-0.598-4.63-1.986 0-1.671-2.945-1.986-18.522-1.986h-18.522v6.62c0 5.735 0.351 6.618 2.644 6.618 2.139 0 2.644 0.882 2.644 4.632s-0.505 4.63-2.644 4.63c-2.489 0-2.644 0.882-2.644 14.557 0 12.055-0.34 14.552-1.986 14.552-1.094 0-1.986 0.896-1.986 1.986 0 1.103-1.18 1.99-2.646 1.99-2.139 0-2.644 0.88-2.644 4.63 0 3.233-0.596 4.632-1.986 4.632-1.618 0-1.986 2.207-1.986 11.908 0 11.028-0.194 11.908-2.646 11.908-2.139 0-2.644 0.88-2.644 4.63 0 3.196-0.608 4.632-1.944 4.632-1.368 0-1.892 1.355-1.776 4.562 0.090 2.509 0.824 4.441 1.613 4.299 0.9-0.16 1.59 3.319 1.829 9.334 0.324 7.932 0.037 9.592-1.65 9.592-1.779 0-2.041 3.62-2.041 27.784 0 23.818 0.284 27.782 1.986 27.782 1.522 0 1.986 1.69 1.986 7.278 0 6.396 0.324 7.278 2.644 7.278 2.395 0 2.646 0.882 2.646 9.264 0 7.351 0.406 9.264 1.986 9.264 1.522 0 1.986 1.69 1.986 7.274 0 6.396 0.324 7.278 2.644 7.278 2.139 0 2.646 0.882 2.646 4.634 0 3.231 0.596 4.63 1.986 4.63s1.986 1.395 1.986 4.634c0 3.75 0.505 4.63 2.644 4.63s2.644 0.882 2.644 4.634c0 3.231 0.601 4.63 1.99 4.63 1.571 0 1.986 1.911 1.986 9.264 0 8.384 0.254 9.264 2.644 9.264 2.139 0 2.644 0.882 2.644 4.63 0 3.233 0.601 4.634 1.99 4.634 1.089 0 1.986 0.896 1.986 1.986 0 1.103 1.178 1.986 2.644 1.986 2.041 0 2.644 0.882 2.644 3.875 0 2.132 0.896 4.769 1.988 5.856 1.089 1.094 1.986 2.623 1.986 3.408 0 0.78 1.187 1.418 2.646 1.418 2.141 0 2.646 0.882 2.646 4.63 0 3.233 0.601 4.634 1.986 4.634 1.103 0 1.988 1.176 1.988 2.644 0 1.457 1.187 3.836 2.646 5.293 1.457 1.455 2.646 3.543 2.646 4.63s0.896 1.986 1.986 1.986c1.094 0 1.988 0.896 1.988 1.986 0 1.103 1.178 1.988 2.646 1.988 1.764 0 2.646 0.882 2.646 2.644s0.882 2.644 2.646 2.644c1.468 0 2.646 0.882 2.646 1.986 0 1.094 0.894 1.988 1.986 1.988 1.136 0 1.986 1.189 1.986 2.772 0 3.608 21.53 25.008 25.161 25.008 1.748 0 2.631 0.889 2.631 2.649s0.882 2.644 2.646 2.644 2.646 0.882 2.646 2.644c0 2.141 0.882 2.644 4.632 2.644 3.231 0 4.63 0.601 4.63 1.988 0 1.089 0.896 1.986 1.988 1.986 1.103 0 1.986 1.176 1.986 2.644 0 1.62 0.899 2.665 2.313 2.691 1.271 0.021 3.473 0.915 4.886 1.986s3.648 1.944 4.961 1.944c1.51 0 2.39 0.973 2.39 2.644 0 1.468 0.882 2.644 1.988 2.644 1.089 0 1.986 0.896 1.986 1.988 0 1.585 1.986 1.986 9.922 1.986 9.038 0 9.922 0.232 9.922 2.644 0 2.141 0.882 2.644 4.632 2.644 3.233 0 4.632 0.601 4.632 1.986 0 1.501 1.615 1.988 6.618 1.988 4.75 0 6.62 0.512 6.62 1.827 0 2.632 4.283 3.429 18.522 3.429 14.033 0 18.522-0.795 18.522-3.277 0-0.927 2.083-2.071 4.63-2.554 2.549-0.477 4.632-1.436 4.632-2.135 0-0.761 11.883-1.271 30.1-1.283 31.557-0.018 36.054-0.444 36.054-3.443 0-1.213 1.571-1.829 4.632-1.829 3.231 0 4.63-0.601 4.63-1.986 0-1.094 0.896-1.988 1.99-1.988 1.101 0 1.986-1.176 1.986-2.644 0-2.141 0.88-2.644 4.63-2.644 3.233 0 4.632-0.601 4.632-1.986 0-1.431 1.466-1.988 5.288-1.988 4.408 0 5.293-0.441 5.293-2.644 0-1.468 0.88-2.644 1.986-2.644 1.094 0 1.986-0.896 1.986-1.986 0-1.39 1.395-1.988 4.632-1.988 3.75 0 4.63-0.505 4.63-2.644 0-1.764 0.882-2.644 2.646-2.644s2.649-0.882 2.649-2.644c0-1.468 0.88-2.649 1.986-2.649 1.089 0 1.986-0.894 1.986-1.986 0-1.103 1.18-1.986 2.646-1.986 1.794 0 2.649-0.882 2.649-2.737 0-1.506 0.892-3.633 1.986-4.727 1.089-1.089 1.986-3.133 1.986-4.538 0-1.674 0.912-2.556 2.646-2.556 1.468 0 2.649-0.882 2.649-1.986 0-1.089 0.892-1.986 1.986-1.986 1.103 0 1.986-1.176 1.986-2.644 0-1.764 0.88-2.644 2.646-2.644 2.139 0 2.649-0.882 2.649-4.634 0-3.231 0.598-4.63 1.986-4.63s1.986-1.395 1.986-4.634c0-3.75 0.505-4.63 2.646-4.63 1.764 0 2.646-0.882 2.646-2.649 0-1.457 0.547-2.644 1.218-2.644s1.608-1.783 2.093-3.971c0.601-2.731 1.667-3.973 3.41-3.973 1.66 0 2.542-0.915 2.542-2.644 0-2.325 0.882-2.644 7.278-2.644s7.278 0.319 7.278 2.644c0 1.468 0.88 2.644 1.986 2.644 1.39 0 1.986 1.395 1.986 4.634 0 3.643 0.528 4.63 2.477 4.63 1.967 0 2.619 1.283 3.179 6.24 0.386 3.436 1.36 6.461 2.155 6.727s1.455 2.523 1.455 5.002c0 3.549 0.538 4.523 2.497 4.523 1.373 0 2.472 0.743 2.439 1.65-0.194 5.138 0.566 7.609 2.342 7.609 1.103 0 1.986 1.18 1.986 2.649 0 1.764 0.882 2.644 2.644 2.644 2.141 0 2.649 0.882 2.649 4.634 0 3.231 0.598 4.63 1.986 4.63 1.089 0 1.986 0.896 1.986 1.986 0 1.103 1.18 1.986 2.644 1.986 1.764 0 2.649 0.882 2.649 2.649 0 1.465 0.882 2.644 1.986 2.644s1.986 1.176 1.986 2.644c0 1.764 0.882 2.644 2.644 2.644 1.468 0 2.649 0.882 2.649 1.988 0 1.089 0.894 1.986 1.986 1.986 1.103 0 1.986 1.176 1.986 2.644 0 2.141 0.882 2.644 4.634 2.644 3.231 0 4.63 0.601 4.63 1.988 0 1.089 0.896 1.986 1.986 1.986 1.094 0 3.177 1.189 4.634 2.644s3.833 2.644 5.29 2.644c1.468 0 2.644 0.882 2.644 1.988s1.18 1.986 2.649 1.986c1.764 0 2.644 0.882 2.644 2.644 0 2.141 0.882 2.644 4.63 2.644 3.233 0 4.634 0.601 4.634 1.986 0 1.692 3.591 1.988 24.398 1.988 14.647 0 24.721 0.519 25.205 1.308 0.466 0.754-0.065 0.971-1.245 0.519-1.129-0.438-2.055-0.128-2.055 0.677 0 0.947 3.726 1.465 10.583 1.465 7.758 0 10.498-0.441 10.256-1.652-0.247-1.243 4.036-1.746 17.201-2.025 16.857-0.356 17.533-0.265 17.533 2.313s0.782 2.684 21.17 2.684c20.287 0 21.17-0.112 21.17-2.644 0-1.652 0.882-2.644 2.348-2.644 1.289 0 3.526-0.819 4.961-1.819s4.538-2.239 6.908-2.751c2.39-0.519 4.299-1.767 4.299-2.811 0-1.395 1.869-1.881 7.274-1.881 5.589 0 7.278-0.463 7.278-1.986 0-1.39 1.395-1.988 4.63-1.988 3.752 0 4.634-0.505 4.634-2.644 0-1.457 0.865-2.644 1.927-2.644 3.72 0 11.238-4.637 11.27-6.943 0.018-1.425 1.050-2.313 2.677-2.313 1.465 0 2.644-0.882 2.644-1.986 0-1.39 1.395-1.988 4.63-1.988 3.75 0 4.634-0.505 4.634-2.644 0-1.468 0.882-2.644 1.986-2.644s1.986-1.18 1.986-2.644c0-1.764 0.882-2.649 2.644-2.649 1.468 0 2.649-0.882 2.649-1.986 0-1.089 0.894-1.986 1.986-1.986 1.103 0 1.986-1.18 1.986-2.644 0-1.764 0.882-2.649 2.644-2.649 1.468 0 2.649-0.882 2.649-1.986 0-1.089 0.894-1.986 1.986-1.986 1.103 0 1.986-1.18 1.986-2.644 0-1.764 0.882-2.649 2.644-2.649 1.468 0 2.649-0.882 2.649-1.986s1.176-1.986 2.644-1.986c1.764 0 2.644-0.882 2.644-2.644 0-1.468 0.882-2.644 1.986-2.644 1.094 0 1.988-0.896 1.988-1.988 0-1.103 1.176-1.986 2.644-1.986 1.794 0 2.644-0.882 2.644-2.737 0-1.506 0.896-3.633 1.986-4.727 1.094-1.089 1.986-3.128 1.986-4.538 0-1.674 0.915-2.554 2.649-2.554 1.465 0 2.644-0.882 2.644-1.988 0-1.089 0.896-1.986 1.986-1.986 1.39 0 1.986-1.395 1.986-4.63 0-3.75 0.508-4.634 2.649-4.634 1.792 0 2.644-0.882 2.644-2.737 0-1.506 0.896-3.633 1.986-4.722 1.094-1.094 1.986-3.133 1.986-4.538 0-1.674 0.915-2.554 2.649-2.554 1.759 0 2.644-0.882 2.644-2.644 0-1.468 0.882-2.649 1.986-2.649 1.094 0 1.986-0.894 1.986-1.986 0-1.103 1.18-1.986 2.649-1.986 1.62 0 2.663-0.899 2.686-2.313 0.021-1.276 0.915-3.473 1.988-4.883 1.071-1.415 1.939-4.538 1.939-6.945 0-3.496 0.533-4.376 2.649-4.376 2.136 0 2.644-0.882 2.644-4.63 0-3.233 0.598-4.634 1.986-4.634 1.525 0 1.986-1.69 1.986-7.278 0-6.396 0.324-7.274 2.644-7.274 2.141 0 2.649-0.882 2.649-4.634 0-3.231 0.598-4.63 1.986-4.63s1.986-1.395 1.986-4.634c0-3.056 0.619-4.63 1.829-4.63 2.078 0 3.414-3.969 3.443-10.216 0.017-3.424 0.444-4.089 2.218-3.408 1.418 0.547 1.881 0.326 1.301-0.615-0.496-0.8-0.298-1.829 0.441-2.288s1.343-5.26 1.343-10.679c0-7.865 0.401-9.841 1.986-9.841 1.732 0 1.988-6.618 1.988-51.603s-0.259-51.605-1.988-51.605c-1.48 0-1.993-1.587-1.999-6.284-0.021-8.168-1.171-12.236-3.443-12.236-1.211 0-1.827-1.571-1.827-4.632 0-3.75-0.508-4.63-2.649-4.63-2.136 0-2.644-0.882-2.644-4.632 0-3.231-0.598-4.63-1.986-4.63-1.103 0-1.986-1.18-1.986-2.649 0-1.759-0.882-2.646-2.649-2.646-2.477 0-2.644-0.88-2.644-13.896 0-11.277 0.366-13.896 1.925-13.896 2.544 0 4.045-8.221 2.495-13.651-1.538-5.398-13.684-7.433-13.684-2.295 0 2.525-0.782 2.719-11.193 2.719-12.285 0-20.468 2.77-20.529 6.943-0.023 1.757-1.148 2.313-4.662 2.313-3.233 0-4.634 0.598-4.634 1.986s-1.395 1.986-4.63 1.986c-3.75 0-4.634 0.508-4.634 2.649 0 1.759-0.882 2.646-2.644 2.646-1.468 0-2.644 0.88-2.644 1.986 0 1.39-1.395 1.986-4.634 1.986-3.75 0-4.63 0.508-4.63 2.646 0 1.764-0.882 2.649-2.649 2.649-1.465 0-2.644 0.88-2.644 1.986 0 1.089-0.896 1.986-1.986 1.986-1.094 0-1.986 0.896-1.986 1.986 0 1.094-1.189 3.177-2.649 4.632s-2.644 3.833-2.644 5.288c0 1.468-0.882 2.649-1.986 2.649-1.39 0-1.986 1.395-1.986 4.63 0 3.75-0.508 4.632-2.644 4.632-1.625 0-2.665 0.899-2.691 2.313-0.021 1.273-0.915 3.475-1.986 4.888s-1.944 3.645-1.944 4.961c0 1.51-0.973 2.393-2.644 2.393-2.141 0-2.649 0.88-2.649 4.632 0 3.231-0.598 4.63-1.986 4.63-1.501 0-1.986 1.615-1.986 6.62 0 5.735-0.354 6.618-2.644 6.618-2.141 0-2.649 0.882-2.649 4.632 0 3.294-0.586 4.63-2.041 4.63-1.122 0-1.948 0.745-1.825 1.652 0.95 7.327-0.232 12.902-2.744 12.902-2.325 0-2.649 0.88-2.649 7.278 0 5.586-0.459 7.276-1.986 7.276-1.501 0-1.986 1.618-1.986 6.62 0 5.735-0.354 6.618-2.644 6.618-2.325 0-2.649 0.882-2.649 7.274 0 5.589-0.459 7.278-1.986 7.278-1.573 0-1.986 1.913-1.986 9.264s0.406 9.264 1.986 9.264c1.094 0 1.986 0.896 1.986 1.986 0 1.39 1.395 1.986 4.634 1.986 3.231 0 4.63-0.598 4.63-1.986 0-1.103 1.18-1.986 2.649-1.986 2.323 0 2.644-0.882 2.644-7.278 0-5.586 0.463-7.274 1.986-7.274 1.373 0 1.986-1.383 1.986-4.478 0-3.366 0.656-4.645 2.649-5.17 2.312-0.603 2.644-1.804 2.644-9.412 0-6.868 0.421-8.724 1.986-8.724 1.39 0 1.986-1.395 1.986-4.632 0-3.75 0.508-4.63 2.649-4.63 1.759 0 2.644-0.882 2.644-2.649 0-1.466 0.882-2.646 1.986-2.646 1.089 0 1.986-0.896 1.986-1.986 0-1.103 1.18-1.986 2.649-1.986 2.136 0 2.644-0.882 2.644-4.632 0-3.231 0.598-4.63 1.986-4.63 1.103 0 1.986-1.18 1.986-2.646 0-1.764 0.882-2.649 2.644-2.649 1.468 0 2.649-0.88 2.649-1.986 0-1.39 1.395-1.986 4.63-1.986 3.75 0 4.634-0.505 4.634-2.646 0-1.468 0.882-2.649 1.986-2.649 1.089 0 1.986-0.892 1.986-1.986 0-1.587 1.986-1.986 9.922-1.986s9.922 0.396 9.922 1.986c0 1.094 0.896 1.986 1.986 1.986 1.103 0 1.986 1.18 1.986 2.649 0 1.759 0.882 2.646 2.649 2.646 1.465 0 2.644 0.88 2.644 1.986 0 1.094 0.896 1.986 1.986 1.986 1.573 0 1.986 1.913 1.986 9.264 0 8.384 0.254 9.264 2.649 9.264 2.323 0 2.644 0.882 2.644 7.278 0 5.589 0.463 7.278 1.986 7.278 1.573 0 1.986 1.911 1.986 9.264 0 7.351-0.406 9.264-1.986 9.264s-1.986 1.911-1.986 9.264c0 8.382-0.254 9.259-2.644 9.259-2.395 0-2.649 0.882-2.649 9.264 0 7.353-0.406 9.264-1.986 9.264-1.39 0-1.986 1.395-1.986 4.634 0 3.75-0.505 4.63-2.644 4.63-2.325 0-2.649 0.882-2.649 7.278 0 5.589-0.459 7.278-1.986 7.278-1.103 0-1.986 1.176-1.986 2.644 0 1.764-0.882 2.644-2.644 2.644-2.293 0-2.644 0.882-2.644 6.618 0 4.997-0.484 6.618-1.988 6.618-1.385 0-1.986 1.395-1.986 4.63 0 3.75-0.505 4.634-2.644 4.634-2.074 0-2.644 0.882-2.644 4.089 0 2.984-0.722 4.285-2.649 4.785-1.457 0.379-2.665 1.667-2.686 2.853s-0.915 3.317-1.988 4.727c-1.071 1.41-1.939 3.645-1.939 4.961 0 1.51-0.973 2.39-2.649 2.39-1.465 0-2.644 0.882-2.644 1.986 0 1.094-0.896 1.986-1.986 1.986-1.39 0-1.986 1.395-1.986 4.634 0 3.75-0.508 4.63-2.649 4.63-2.136 0-2.644 0.882-2.644 4.634 0 3.231-0.598 4.63-1.986 4.63-1.103 0-1.986 1.18-1.986 2.649 0 1.759-0.882 2.644-2.644 2.644s-2.649 0.882-2.649 2.644c0 1.468-0.882 2.644-1.986 2.644-1.089 0-1.986 0.896-1.986 1.988 0 1.103-1.18 1.986-2.644 1.986-2.141 0-2.649 0.882-2.649 4.63 0 3.233-0.598 4.634-1.986 4.634-1.103 0-1.986 1.176-1.986 2.644 0 1.764-0.882 2.644-2.644 2.644-1.468 0-2.649 0.882-2.649 1.986 0 1.094-0.894 1.988-1.986 1.988-1.103 0-1.986 1.176-1.986 2.644 0 1.764-0.882 2.644-2.644 2.644-2.141 0-2.649 0.882-2.649 4.634v4.63h-11.247c-10.364 0-11.247-0.205-11.247-2.644 0-1.764-0.882-2.644-2.644-2.644-1.468 0-2.644-0.882-2.644-1.988 0-1.089 1.061-1.986 2.365-1.986 1.66 0 2.454-1.148 2.656-3.836 0.159-2.111 1.18-5.535 2.255-7.61 1.080-2.066 1.969-5.703 1.974-8.069 0.010-3.414 0.551-4.299 2.656-4.299 2.141 0 2.644-0.882 2.644-4.634 0-2.546 0.593-4.63 1.324-4.63 0.759 0 1.324-3.973 1.324-9.264s-0.566-9.264-1.324-9.264c-0.726 0-1.324-1.189-1.324-2.644s0.631-2.649 1.399-2.649c0.77 0 1.057-0.551 0.64-1.231s-0.194-1.575 0.489-2.001c1.787-1.108 0.947-14.352-0.954-14.983-1.103-0.37-1.573-5.27-1.573-16.296 0-14.884-0.149-15.767-2.644-15.767-2.141 0-2.644-0.882-2.644-4.63 0-3.233-0.601-4.634-1.988-4.634-1.103 0-1.986-1.176-1.986-2.644 0-1.764-0.882-2.644-2.644-2.644s-2.644-0.882-2.644-2.644c0-1.764-0.882-2.649-2.649-2.649-1.465 0-2.644-0.882-2.644-1.986 0-1.089-0.896-1.986-1.986-1.986-1.103 0-1.986-1.18-1.986-2.644 0-2.546-0.882-2.649-23.154-2.649s-23.15 0.102-23.15 2.649c0 2.136-0.882 2.644-4.634 2.644-3.231 0-4.63 0.598-4.63 1.986 0 1.108-1.18 1.986-2.661 1.986-1.465 0-3.682 1.189-4.926 2.649-1.25 1.455-3.326 2.644-4.615 2.644-1.468 0-2.353 0.992-2.353 2.644 0 1.732-0.882 2.644-2.554 2.644-3.892 0-6.708 3.655-6.708 8.696 0 3.154 0.608 4.538 1.986 4.538 1.103 0 1.986 1.176 1.986 2.644 0 1.764 0.882 2.644 2.644 2.644s2.644-0.882 2.644-2.644c0-1.764 0.882-2.644 2.649-2.644 1.465 0 2.644-0.882 2.644-1.988 0-1.278 1.291-1.993 3.64-1.999 5.668-0.025 9.588-1.436 9.588-3.443 0-1.385 2.26-1.829 9.264-1.829 8.384 0 9.264 0.251 9.264 2.644 0 1.794 0.882 2.644 2.739 2.644 3.51 0 6.517 3.015 6.517 6.519 0 1.857 0.854 2.737 2.644 2.737 1.468 0 2.649 0.882 2.649 1.986 0 1.094 0.894 1.988 1.986 1.988 1.357 0 1.993 1.364 1.999 4.299 0.025 6.284 1.36 10.256 3.443 10.256 1.49 0 1.829 4.325 1.829 23.15 0 22.27-0.102 23.154-2.649 23.154-2.136 0-2.644 0.882-2.644 4.63 0 3.233-0.598 4.634-1.986 4.634-1.103 0-1.986 1.176-1.986 2.644 0 1.627-0.896 2.661-2.313 2.677-2.313 0.033-6.943 7.548-6.943 11.27 0 1.061-1.189 1.927-2.644 1.927-1.764 0-2.649 0.882-2.649 2.644 0 1.468-0.882 2.644-1.986 2.644-1.089 0-1.986 0.896-1.986 1.986 0 1.103-1.18 1.988-2.644 1.988-1.764 0-2.649 0.882-2.649 2.644 0 2.504-0.882 2.644-16.54 2.644-15.661 0-16.542-0.14-16.542-2.644 0-1.468-0.882-2.644-1.986-2.644-1.39 0-1.986-1.395-1.986-4.634 0-2.865-1.006-5.635-2.649-7.278-1.457-1.457-2.644-3.543-2.644-4.63 0-1.094-0.896-1.986-1.986-1.986-1.108 0-1.986-1.18-1.986-2.663 0-1.464-1.189-3.678-2.649-4.926s-2.644-3.023-2.644-3.959c0-0.931-0.896-1.69-1.986-1.69-1.103 0-1.986-1.176-1.986-2.644 0-1.764-0.882-2.644-2.649-2.644-2.136 0-2.644-0.882-2.644-4.573 0-5.846-3.962-13.872-6.868-13.914-2.021-0.030-2.278-2.744-2.649-27.382-0.3-20.403-0.829-27.487-2.063-27.894-2.684-0.894-2.355-51.928 0.335-51.928 1.39 0 1.986-1.395 1.986-4.63 0-3.75 0.508-4.634 2.644-4.634 1.764 0 2.649-0.882 2.649-2.644 0-1.468 0.882-2.644 1.986-2.644 1.089 0 1.986-0.896 1.986-1.988 0-1.103 1.18-1.986 2.644-1.986 1.764 0 2.649-0.882 2.649-2.644 0-1.468 0.882-2.644 1.986-2.644 1.089 0 1.986-0.896 1.986-1.988 0-1.103 1.18-1.986 2.644-1.986 2.1 0 2.656-0.899 2.691-4.299 0.021-2.365 0.915-5.456 1.986-6.868 1.071-1.415 1.944-4.837 1.944-7.61 0-4.154 0.463-5.037 2.644-5.037 2.325 0 2.649-0.882 2.649-7.278s-0.324-7.278-2.649-7.278c-2.439 0-2.644-0.88-2.644-11.247s0.205-11.247 2.644-11.247c1.699 0 2.649-0.88 2.649-2.46 0-1.986 1.35-2.626 6.939-3.284 3.815-0.449 7.141-1.43 7.388-2.17 0.244-0.743 3.372-1.35 6.952-1.35 5.626 0 6.506-0.359 6.506-2.646 0-1.764 0.882-2.646 2.649-2.646 1.465 0 2.644-0.882 2.644-1.99 0-1.385 1.395-1.986 4.63-1.986 3.75 0 4.634-0.505 4.634-2.646 0-1.468 0.882-2.646 1.986-2.646 1.094 0 1.986-0.896 1.986-1.99 0-1.101 1.18-1.986 2.649-1.986 1.706 0 2.644-0.88 2.644-2.481 0-1.704 1.254-2.735 3.999-3.282 3.125-0.624 4.173-1.676 4.795-4.795 0.441-2.2 1.618-3.997 2.621-3.997s1.819-1.189 1.819-2.649c0-1.759 0.882-2.646 2.644-2.646 1.468 0 2.649-0.88 2.649-1.986 0-1.089 0.894-1.986 1.986-1.986 1.525 0 1.986-1.69 1.986-7.278 0-6.396 0.324-7.278 2.644-7.278 2.395 0 2.649-0.88 2.649-9.264v-9.264h-4.634c-3.75 0-4.63 0.508-4.63 2.649 0 1.764-0.882 2.646-2.649 2.646-2.136 0-2.644 0.88-2.644 4.63 0 3.233-0.598 4.632-1.986 4.632s-1.986 1.395-1.986 4.63c0 3.75-0.508 4.632-2.649 4.632-2.136 0-2.644 0.88-2.644 4.63 0 3.233-0.598 4.632-1.986 4.632-1.089 0-1.986 0.896-1.986 1.986 0 1.108-1.18 1.986-2.663 1.986-1.464 0-3.678 1.189-4.926 2.646s-3.326 2.649-4.618 2.649c-1.289 0-2.348 0.892-2.348 1.986 0 1.671-2.94 1.986-18.522 1.986s-18.522-0.312-18.522-1.986c0-1.39-1.395-1.986-4.634-1.986-3.165 0-4.63-0.61-4.63-1.925 0-1.149-1.857-2.274-4.634-2.796-2.654-0.498-4.63-1.652-4.63-2.704 0-1.218-1.564-1.836-4.634-1.836-3.75 0-4.63-0.508-4.63-2.649 0-1.759-0.882-2.646-2.649-2.646-1.465 0-2.644-0.88-2.644-1.986 0-1.089-0.896-1.986-1.986-1.986-1.103 0-1.986-1.18-1.986-2.646 0-2.139-0.882-2.649-4.634-2.649-3.231 0-4.63-0.598-4.63-1.986 0-1.103-1.18-1.986-2.644-1.986-1.764 0-2.649-0.882-2.649-2.646 0-2.139-0.882-2.649-4.63-2.649-4.408 0-4.634-0.221-4.634-4.63 0-3.233-0.598-4.632-1.986-4.632s-1.986-1.395-1.986-4.63c0-3.75-0.505-4.632-2.644-4.632-1.457 0-2.649-0.865-2.649-1.925 0-3.72-4.634-11.238-6.943-11.27-2.1-0.030-2.313-1.841-2.313-19.219 0-18.302-0.124-19.189-2.644-19.189-2.141 0-2.644-0.88-2.644-4.63 0-3.233-0.598-4.632-1.986-4.632s-1.986-1.395-1.986-4.63c0-2.87-1.006-5.635-2.649-7.278-1.457-1.457-2.644-3.54-2.644-4.63 0-1.094-0.896-1.99-1.986-1.99-1.39 0-1.986-1.395-1.986-4.63 0-3.75-0.508-4.632-2.649-4.632-2.293 0-2.644-0.88-2.644-6.618 0-4.997-0.484-6.618-1.986-6.618-1.103 0-1.986-1.178-1.986-2.646 0-1.764-0.882-2.646-2.649-2.646-1.759 0-2.644-0.882-2.644-2.646 0-1.457-0.822-2.646-1.82-2.646s-2.562-0.896-3.468-1.986c-0.903-1.094-3.063-1.986-4.79-1.986-2.267 0-3.147-0.743-3.147-2.646 0-1.764-0.882-2.646-2.649-2.646-1.879 0-2.644-0.882-2.644-3.047 0-3.875-2.344-6.219-6.219-6.219-1.82 0-3.047-0.795-3.047-1.986 0-1.615-2.207-1.986-11.908-1.986s-11.908 0.37-11.908 1.986zM434.636 451.162c0 1.103 1.18 1.986 2.649 1.986 1.759 0 2.646 0.882 2.646 2.649 0 1.466 0.88 2.646 1.986 2.646 1.089 0 1.986 0.896 1.986 1.986 0 1.103 1.18 1.986 2.646 1.986 1.764 0 2.649 0.882 2.649 2.649 0 1.466 0.88 2.646 1.986 2.646 1.089 0 1.986 0.896 1.986 1.986 0 1.103 1.18 1.986 2.646 1.986 1.764 0 2.649 0.882 2.649 2.649 0 1.466 0.88 2.646 1.986 2.646 1.607 0 1.986 2.135 1.986 11.247s-0.372 11.247-1.986 11.247c-1.103 0-1.986 1.18-1.986 2.646 0 2.393-0.882 2.649-9.264 2.649-8.384 0-9.264-0.254-9.264-2.649 0-1.759-0.882-2.646-2.646-2.646-2.295 0-2.649-0.88-2.649-6.618 0-4.997-0.484-6.62-1.986-6.62-1.103 0-1.986-1.18-1.986-2.646 0-1.764-0.882-2.649-2.646-2.649-1.468 0-2.649-0.88-2.649-1.986s-1.178-1.986-2.646-1.986c-1.941 0-2.646-0.882-2.646-3.305 0-1.853-0.763-3.307-1.741-3.307-1.131 0-1.844-2.076-2.046-5.95-0.235-4.622 0.152-5.954 1.741-5.954 1.161 0 2.046-1.146 2.046-2.646 0-1.764 0.88-2.649 2.646-2.649 1.468 0 2.646-0.88 2.646-1.986 0-1.39 1.395-1.986 4.632-1.986s4.63 0.598 4.63 1.986zM593.409 451.162c0 1.103 1.18 1.986 2.649 1.986 1.764 0 2.644 0.882 2.644 2.649 0 1.466 0.882 2.646 1.986 2.646 1.094 0 1.986 0.896 1.986 1.986 0 1.103 1.18 1.986 2.649 1.986 2.39 0 2.644 0.882 2.644 9.264s-0.254 9.264-2.644 9.264c-2.141 0-2.649 0.882-2.649 4.632 0 3.231-0.598 4.63-1.986 4.63-1.103 0-1.986 1.18-1.986 2.649 0 2.136-0.882 2.646-4.634 2.646-3.231 0-4.63 0.598-4.63 1.986 0 1.103-1.18 1.986-2.644 1.986-1.764 0-2.649 0.882-2.649 2.646 0 2.139-0.882 2.649-4.63 2.649s-4.63-0.508-4.63-2.649c0-1.759-0.882-2.646-2.649-2.646-1.465 0-2.644-0.88-2.644-1.986 0-1.089-0.896-1.986-1.986-1.986-1.103 0-1.986-1.18-1.986-2.646 0-1.764-0.882-2.649-2.649-2.649-2.293 0-2.644-0.88-2.644-6.618s0.354-6.62 2.644-6.62c1.764 0 2.649-0.882 2.649-2.646 0-1.468 0.882-2.649 1.986-2.649 1.39 0 1.986-1.395 1.986-4.63 0-3.75 0.505-4.632 2.644-4.632s2.649-0.88 2.649-4.63c0-3.233 0.598-4.632 1.986-4.632 1.089 0 1.986-0.892 1.986-1.986 0-1.522 1.69-1.986 7.278-1.986s7.274 0.463 7.274 1.986z"></path>
</svg>
