<!-- Generated by IcoMoon.io -->
<svg version="1.1" xmlns="http://www.w3.org/2000/svg" width="1024" height="1024" viewBox="0 0 1024 1024">
<title></title>
<g id="icomoon-ignore">
</g>
<path fill="#000" d="M387.319 570.651c-5.464 0-12.843-2.413-17.127 0-32.155 25.998-67.037-1.547-100.046 5.464-2.044 0-9.067-8.060-8.558-11.609 4.285-24.451-22.591-31.29-28.368-50.277 0-2.228-15.568-2.91-22.039 0-14.021 5.961-19.669 0-18.122-12.161 2.044-17.127-8.558-28.368-16.262-41.892-9.564-17.127-20.351-10.798-31.646-5.961-5.648 2.413-12.843 11.296-14.715 10.105-10.614-6.654-1.547-13.849 0-21.357s1.547-13.665-1.363-15.894c-19.994-15.568-6.827-25.317 4.598-36.428 14.347-13.665 27.871-28.552 42.573-41.892 5.832-5.28 14.531-12.161 21.216-11.48 25.998 2.738 42.757-13.849 58.976-27.871 16.986-16.348 32.61-33.745 46.901-52.236l0.823-1.093c4.598-5.28 9.423-10.614 14.347-15.568 2.413-3.548 6.415-5.832 10.927-5.832s8.558 2.272 10.927 5.789l0.043 0.043c9.748 11.793 17.127 25.133 28.368 36.244 30.694 34.47 62.156 66.128 95.22 96l1.050 0.952c11.296 9.564 27.545 19.313 11.793 38.3-1.179 1.547 1.731 8.060 4.101 10.927 24.267 27.545 48.049 55.416 73.366 81.924 14.887 15.396 19.313 14.715 35.747 1.179s36.938-30.283 54.734-46.177c12.701-12.247 23.045-26.919 30.283-43.267l0.368-0.866c6.654-13.849 29.233-19.669 43.623-30.596 6.016-5.605 10.657-12.615 13.383-20.492l0.086-0.368c17.938-46.858 40.854-92.169 40.161-144.135-0.313-0.78-0.497-1.688-0.497-2.597 0-3.776 3.051-6.827 6.827-6.827 3.235 0 5.961 2.272 6.654 5.323v0.043c28.055 27.373 59.517 52.506 68.4 93.716 3.094 13.524 3.917 27.686 8.201 40.713 2.64 15.439 11.609 28.368 24.040 36.299l0.227 0.141c10.246 5.28 7.876 17.938-2.554 23.954-4.101 1.547-9.423 3.192-14.844 4.555l-1.093 0.227c-35.249 13.849-43.623 40.161-24.095 72.856 6.47 9.835 11.609 21.216 14.844 33.377l0.184 0.823c4.285 21.91 0 25.133-25.133 21.216-3.831-0.866-8.201-1.363-12.701-1.363-17.895 0-33.973 7.747-45.041 20.080l-0.043 0.043c-12.984 15.028-20.86 11.296-33.021 0-9.239-7.649-19.951-14.076-31.517-18.717l-0.823-0.27c-21.541-10.43-24.961-8.558-30.596 15.028-4.457 18.49-4.285 18.306-17.072 8.201-6.513-4.966-10.614-18.804-22.591-5.28s-15.028 16.262 0 32.837c22.407 25.133 45.993 49.596 68.4 75.054 14.844 14.248 27.416 30.78 37.11 49.044l0.497 1.050c3.96 13.383 12.843 24.224 24.549 30.651l0.27 0.141c15.212 7.876 12.984 22.72 9.564 37.435-4.058 14.715-17.3 25.317-33.021 25.317-0.411 0-0.823 0-1.234 0h0.043c-13.665 1.363-31.646-5.961-31.787-20.535 0-19.172-11.793-25.642-22.904-36.244-11.111-11.891-20.946-25.133-29.19-39.479l-0.54-1.050c-22.266-33.604-47.128-62.752-75.097-88.621l-0.313-0.27c-8.558-8.201-14.531-6.513-17.938 4.966 0 2.738-3.235 4.782-4.285 7.336-4.598 7.833-12.929 12.984-22.493 12.984-3.462 0-6.784-0.681-9.835-1.915l0.184 0.043c-0.952-0.184-2.044-0.27-3.137-0.27-3.831 0-7.379 1.277-10.246 3.419l0.043-0.043c-11.252 8.883-21.314 17.809-30.78 27.318v0c-22.223 22.591-44.998 44.814-64.98 68.4-12.474 15.212-34.2 21.91-37.294 47.356-1.363 13.524-35.747 17.072-48.546 6.654s-18.306-34.2-6.329-43.623c18.988-14.715 27.189-37.975 51.327-49.768s39.663-35.931 58.976-54.734c13.156-12.984 26.508-25.826 38.982-39.479 4.101-4.598 9.748-14.347 7.876-17.072-3.008-4.555-4.825-10.105-4.825-16.121 0-11.977 7.152-22.309 17.441-26.864l0.184-0.086c16.078-10.246 8.883-13.665 1.363-22.72-17.127-20.535-32.653-41.892-48.915-62.936-37.975-6.329-57.785-37.975-85.472-59.658-12.658-10.246-26.508 0-34.2 8.374-6.654 7.011-10.743 16.575-10.743 27.048 0 2.228 0.184 4.414 0.54 6.556l-0.043-0.227c10.884 21.498 22.904 39.989 36.569 57.061l-0.497-0.638c14.758 18.22 36.158 30.553 60.48 33.291l0.411 0.043c7.011 1.547 10.798 4.457 5.648 10.614-6.784 11.382-19.031 18.945-33.064 18.945-2.099 0-4.144-0.184-6.145-0.497l0.227 0.043zM757.543 766.61c-6.697 2.738-12.345 5.507-17.711 8.699l0.595-0.313c-2.738 1.872-5.961 7.508-4.966 9.423 2.142 5.15 6.059 9.153 10.97 11.382l0.141 0.043c0.54 0.086 1.179 0.086 1.817 0.086 4.782 0 9.012-2.142 11.836-5.562v-0.043c2.683-5.562 4.371-12.020 4.598-18.902v-0.086c-0.368-1.179-4.285-2.91-7.336-4.782zM361.99 804.77c3.646-5.193 6.968-11.068 9.65-17.3l0.227-0.638c1.050-5.648-15.028-20.178-18.49-17.072-2.64 2.781-4.285 6.513-4.285 10.614 0 0.78 0.043 1.547 0.184 2.272v-0.086c3.917 8.515 8.244 15.808 13.254 22.591l-0.227-0.368z"></path>
</svg>
