<!-- Generated by IcoMoon.io -->
<svg version="1.1" xmlns="http://www.w3.org/2000/svg" width="1024" height="1024" viewBox="0 0 1024 1024">
<title></title>
<g id="icomoon-ignore">
</g>
<path fill="#000" d="M507.073 122.669c0 2.917-1.005 3.062-21.326 3.062-17.917 0-21.326 0.349-21.326 2.289 0 1.773-1.94 2.289-8.367 2.289-7.366 0-8.367 0.379-8.367 3.062 0 2.743-1.005 3.062-10.662 3.062s-10.662 0.273-10.662 3.062c0 2.743-1.005 3.062-10.662 3.062-8.473 0-10.662 0.485-10.662 2.289 0 1.593-1.593 2.289-5.319 2.289-4.305 0-5.319 0.591-5.319 3.062s-1.005 3.062-5.319 3.062c-3.714 0-5.319 0.697-5.319 2.289s-1.593 2.289-5.319 2.289c-4.305 0-5.319 0.591-5.319 3.062 0 2.016-1.005 3.062-3.062 3.062-1.698 0-3.062 1.005-3.062 2.289 0 1.593-1.593 2.289-5.319 2.289-4.305 0-5.319 0.591-5.319 3.062 0 1.698-1.005 3.062-2.289 3.062s-2.289 1.046-2.289 2.289c0 1.288-1.349 2.289-3.062 2.289-2.016 0-3.062 1.005-3.062 3.062 0 1.698-1.005 3.062-2.289 3.062s-2.289 1.046-2.289 2.289c0 1.394-1.425 2.289-3.683 2.289-2.917 0-3.505 0.621-2.88 3.062 0.561 2.122 0.030 3.062-1.667 3.062-1.349 0-2.471 1.046-2.471 2.289s-1.349 2.289-3.062 2.289c-2.016 0-3.062 1.005-3.062 3.062s-1.005 3.062-3.062 3.062c-1.698 0-3.062 1.005-3.062 2.289s-1.046 2.289-2.289 2.289c-1.593 0-2.289 1.593-2.289 5.319 0 4.305-0.591 5.319-3.062 5.319-2.016 0-3.062 1.005-3.062 3.062 0 1.698-1.005 3.062-2.289 3.062s-2.289 1.046-2.289 2.289c0 1.288-1.349 2.289-3.062 2.289-2.774 0-3.062 1.005-3.062 11.428 0 9.14-0.455 11.428-2.289 11.428-1.593 0-2.289 1.593-2.289 5.319 0 4.305-0.591 5.319-3.062 5.319-2.637 0-3.062 1.005-3.062 7.609 0 5.76-0.561 7.609-2.289 7.609s-2.289 1.94-2.289 8.367c0 7.366-0.379 8.367-3.062 8.367-2.88 0-3.062 1.005-3.062 19.037 0 15.907-0.379 19.037-2.289 19.037s-2.289 2.774-2.289 15.976 0.379 15.976 2.289 15.976c1.91 0 2.289 3.062 2.289 18.264v18.264h-10.662c-9.655 0-10.662 0.273-10.662 3.062 0 2.471-1.005 3.062-5.319 3.062s-5.319-0.591-5.319-3.062c0-1.698-1.005-3.062-2.289-3.062s-2.289 1.349-2.289 3.062c0 2.531-1.005 3.062-6.078 3.062-4.411 0-6.078 0.621-6.078 2.289 0 1.25-1.046 2.289-2.289 2.289-1.593 0-2.289 1.593-2.289 5.319 0 4.305-0.591 5.319-3.062 5.319-2.819 0-3.062 1.005-3.062 13.717s0.212 13.687 3.062 13.687c2.016 0 3.062 1.005 3.062 3.062 0 1.698 1.005 3.062 2.289 3.062s2.289 1.046 2.289 2.289c0 1.637 1.698 2.289 6.078 2.289 5.074 0 6.078 0.515 6.078 3.062 0 2.637 1.005 3.062 7.609 3.062 5.76 0 7.609 0.561 7.609 2.289 0 1.288 1.349 2.289 3.062 2.289 2.819 0 3.062 1.005 3.062 13.717 0 11.152 0.417 13.717 2.289 13.717 1.25 0 2.289 1.046 2.289 2.289s-1.046 2.289-2.289 2.289c-1.593 0-2.289 1.593-2.289 5.319v5.319h-8.367c-6.427 0-8.367-0.515-8.367-2.289 0-1.25-1.046-2.289-2.289-2.289-2.046 0-2.956-1.804-2.471-4.971 0.106-0.621-1.182-1.152-2.85-1.152-2.016 0-3.062 1.005-3.062 3.062s-1.005 3.062-3.062 3.062c-1.698 0-3.062 1.005-3.062 2.289s-1.046 2.289-2.289 2.289c-1.91 0-2.289 3.471-2.289 22.084s0.349 22.084 2.289 22.084c1.25 0 2.289 1.046 2.289 2.289 0 1.637 1.698 2.289 6.078 2.289s6.078-0.621 6.078-2.289c0-1.25 1.046-2.289 2.289-2.289s2.289-1.349 2.289-3.062c0-2.471 1.005-3.062 5.319-3.062s5.319 0.591 5.319 3.062c0 2.016 1.005 3.062 3.062 3.062 2.88 0 3.062 1.005 3.062 21.326 0 17.917 0.349 21.326 2.289 21.326 1.25 0 2.289 1.046 2.289 2.289s1.319 2.289 2.956 2.289c1.879 0 3.122 1.25 3.471 3.441 0.273 1.879 1.349 3.26 2.395 3.062s1.879 0.697 1.879 1.985c0 1.394-0.728 1.94-1.773 1.288s-1.349-0.417-0.662 0.662c0.591 0.97 2.743 1.773 4.79 1.773 3.228 0 3.714 0.697 3.714 5.319 0 5.074 0.243 5.319 5.319 5.319 3.714 0 5.319 0.697 5.319 2.289 0 1.25 1.046 2.289 2.289 2.289s2.289 1.349 2.289 3.062c0 2.016 1.005 3.062 3.062 3.062 2.743 0 3.062 1.005 3.062 10.662s-0.273 10.662-3.062 10.662c-2.471 0-3.062 1.005-3.062 5.319 0 3.714-0.697 5.319-2.289 5.319-1.25 0-2.289 1.046-2.289 2.289s-1.349 2.289-3.062 2.289c-2.743 0-3.062 1.005-3.062 10.662 0 8.473-0.485 10.662-2.289 10.662-1.25 0-2.289 1.349-2.289 3.062 0 2.016-1.005 3.062-3.062 3.062-2.471 0-3.062 1.005-3.062 5.319 0 4.38 0.561 5.319 3.122 5.319 2.083 0 3.062 0.907 2.88 2.672-0.697 6.942 0 7.988 5.417 7.988h5.319v8.367c0 7.366-0.379 8.367-3.062 8.367-2.471 0-3.062 1.005-3.062 5.319 0 3.714-0.697 5.319-2.289 5.319-1.25 0-2.289 1.046-2.289 2.289s-1.349 2.289-3.062 2.289c-2.016 0-3.062 1.005-3.062 3.062 0 1.698-1.005 3.062-2.289 3.062s-2.289 1.046-2.289 2.289c0 1.288-1.349 2.289-3.062 2.289-2.016 0-3.062 1.005-3.062 3.062 0 2.471-1.005 3.062-5.319 3.062-3.714 0-5.319 0.697-5.319 2.289 0 1.25-1.046 2.289-2.289 2.289-1.593 0-2.289 1.593-2.289 5.319 0 5.074 0.243 5.319 5.319 5.319 3.714 0 5.319-0.697 5.319-2.289 0-1.74 1.879-2.289 7.609-2.289 6.593 0 7.609-0.417 7.609-3.062 0-2.471 1.005-3.062 5.319-3.062 3.714 0 5.319-0.697 5.319-2.289 0-1.288 1.349-2.289 3.062-2.289 2.016 0 3.062-1.005 3.062-3.062 0-2.471 1.005-3.062 5.319-3.062 3.714 0 5.319-0.697 5.319-2.289 0-1.74 1.879-2.289 7.609-2.289 6.593 0 7.609-0.417 7.609-3.062 0-2.016 1.005-3.062 3.062-3.062 1.698 0 3.062-1.005 3.062-2.289s1.349-2.289 3.062-2.289c2.016 0 3.062-1.005 3.062-3.062 0-1.698 1.005-3.062 2.289-3.062s2.289-1.046 2.289-2.289c0-1.25-1.046-2.289-2.289-2.289-1.593 0-2.289-1.593-2.289-5.319 0-4.305-0.591-5.319-3.062-5.319-2.016 0-3.062-1.005-3.062-3.062s-1.005-3.062-3.062-3.062c-2.471 0-3.062-1.005-3.062-5.319s0.591-5.319 3.062-5.319c2.016 0 3.062-1.005 3.062-3.062s1.005-3.062 3.062-3.062c1.698 0 3.062-1.005 3.062-2.289s1.046-2.289 2.289-2.289c1.25 0 2.289-1.349 2.289-3.062 0-2.016 1.005-3.062 3.062-3.062 1.698 0 3.062-1.005 3.062-2.289s1.046-2.289 2.289-2.289c1.288 0 2.289-1.349 2.289-3.062 0-2.016 1.005-3.062 3.062-3.062 1.698 0 3.062-1.005 3.062-2.289s1.046-2.289 2.289-2.289c1.25 0 2.289 1.046 2.289 2.289 0 1.593 1.593 2.289 5.319 2.289 4.305 0 5.319 0.591 5.319 3.062 0 2.016 1.005 3.062 3.062 3.062 1.698 0 3.062 1.005 3.062 2.289s1.046 2.289 2.289 2.289c1.593 0 2.289 1.593 2.289 5.319s-0.697 5.319-2.289 5.319c-1.637 0-2.289 1.698-2.289 6.078 0 5.074-0.515 6.078-3.062 6.078-2.471 0-3.062 1.005-3.062 5.319 0 3.714-0.697 5.319-2.289 5.319s-2.289 1.593-2.289 5.319c0 4.305-0.591 5.319-3.062 5.319-1.698 0-3.062 1.005-3.062 2.289s-1.046 2.289-2.289 2.289c-1.74 0-2.289 1.94-2.289 8.367s0.515 8.367 2.289 8.367c1.25 0 2.289 1.046 2.289 2.289s1.349 2.289 3.062 2.289c2.016 0 3.062 1.005 3.062 3.062 0 1.698 1.005 3.062 2.289 3.062s2.289 1.046 2.289 2.289c0 1.25 1.349 2.289 3.062 2.289 2.016 0 3.062 1.005 3.062 3.062 0 1.698 1.005 3.062 2.289 3.062s2.289 1.046 2.289 2.289c0 1.288 1.349 2.289 3.062 2.289 2.016 0 3.062 1.005 3.062 3.062 0 1.698 1.005 3.062 2.289 3.062s2.289 1.046 2.289 2.289c0 1.25-1.046 2.289-2.289 2.289-1.637 0-2.289 1.698-2.289 6.078 0 5.074-0.515 6.078-3.062 6.078-1.698 0-3.062 1.005-3.062 2.289s-1.046 2.289-2.289 2.289c-1.288 0-2.289 1.349-2.289 3.062 0 2.016-1.005 3.062-3.062 3.062-2.471 0-3.062 1.005-3.062 5.319 0 3.714-0.697 5.319-2.289 5.319s-2.289 1.593-2.289 5.319c0 4.305-0.591 5.319-3.062 5.319s-3.062 1.005-3.062 5.319c0 3.714-0.697 5.319-2.289 5.319-1.25 0-2.289 1.005-2.289 2.289s-1.349 2.289-3.062 2.289c-2.471 0-3.062 1.005-3.062 5.319s-0.591 5.319-2.986 5.319c-1.94 0-2.713 0.76-2.183 2.152 0.485 1.288-0.417 2.531-2.329 3.162-1.74 0.561-3.162 1.985-3.162 3.198s-1.046 2.183-2.289 2.183c-1.288 0-2.289 1.349-2.289 3.062 0 2.016-1.005 3.062-3.062 3.062-1.698 0-3.062 1.005-3.062 2.289s-1.349 2.289-3.062 2.289c-2.471 0-3.062 1.005-3.062 5.319 0 5.214 0.136 5.319 6.078 5.319 4.411 0 6.078-0.621 6.078-2.289 0-1.25 1.046-2.289 2.289-2.289s2.289-1.349 2.289-3.062c0-2.471 1.005-3.062 5.319-3.062 3.714 0 5.319-0.697 5.319-2.289 0-1.288 1.349-2.289 3.062-2.289 2.016 0 3.062-1.005 3.062-3.062 0-1.698 1.005-3.062 2.289-3.062s2.289-1.046 2.289-2.289c0-1.288 1.349-2.289 3.062-2.289 2.016 0 3.062-1.005 3.062-3.062 0-1.698 1.005-3.062 2.289-3.062s2.289-1.005 2.289-2.289c0-1.593 1.593-2.289 5.319-2.289 4.305 0 5.319-0.591 5.319-3.062 0-2.016 1.005-3.062 3.062-3.062 1.698 0 3.062-1.005 3.062-2.289s1.046-2.289 2.289-2.289c1.288 0 2.289-1.349 2.289-3.062 0-2.471 1.005-3.062 5.319-3.062 3.714 0 5.319-0.697 5.319-2.289 0-1.25 1.349-2.289 3.062-2.289 2.016 0 3.062-1.005 3.062-3.062 0-1.698 1.005-3.062 2.289-3.062s2.289-1.046 2.289-2.289c0-1.288 1.349-2.289 3.062-2.289 2.016 0 3.062-1.005 3.062-3.062 0-1.698 1.005-3.062 2.289-3.062s2.289-1.046 2.289-2.289c0-1.288 1.349-2.289 3.062-2.289 2.016 0 3.062-1.005 3.062-3.062s1.005-3.062 3.062-3.062c1.698 0 3.062-1.005 3.062-2.289s1.046-2.289 2.289-2.289c1.288 0 2.289-1.349 2.289-3.062 0-2.016 1.005-3.062 3.062-3.062s3.062-1.005 3.062-3.062c0-1.698 1.005-3.062 2.289-3.062 1.593 0 2.289-1.593 2.289-5.319s-0.697-5.319-2.289-5.319c-1.25 0-2.289-1.046-2.289-2.289s-1.349-2.289-3.062-2.289c-2.016 0-3.062-1.005-3.062-3.062 0-1.698-1.005-3.062-2.289-3.062s-2.289-1.046-2.289-2.289c0-1.288-1.349-2.289-3.062-2.289-2.016 0-3.062-1.005-3.062-3.062s-1.005-3.062-3.062-3.062c-1.698 0-3.062-1.005-3.062-2.289s-1.046-2.289-2.289-2.289c-1.288 0-2.289-1.349-2.289-3.062 0-2.016-1.005-3.062-3.062-3.062-2.471 0-3.062-1.005-3.062-5.319s0.591-5.319 3.062-5.319c1.698 0 3.062-1.005 3.062-2.289s1.046-2.289 2.289-2.289c1.288 0 2.289-1.349 2.289-3.062 0-2.016 1.005-3.062 3.062-3.062 1.698 0 3.062-1.005 3.062-2.289 0-1.593 1.593-2.289 5.319-2.289s5.319 0.697 5.319 2.289c0 1.593 1.593 2.289 5.319 2.289 4.305 0 5.319 0.591 5.319 3.062 0 2.016 1.005 3.062 3.062 3.062 1.698 0 3.062 1.005 3.062 2.289s1.046 2.289 2.289 2.289c1.25 0 2.289-1.046 2.289-2.289 0-1.593 1.593-2.289 5.319-2.289 4.305 0 5.319-0.591 5.319-3.062 0-2.672 1.005-3.062 8.367-3.062s8.367 0.379 8.367 3.062c0 2.88 1.005 3.062 21.326 3.062 17.917 0 21.326 0.349 21.326 2.289 0 1.25 1.349 2.289 3.062 2.289s3.062-1.005 3.062-2.289c0-1.74 1.879-2.289 7.609-2.289 6.593 0 7.609-0.417 7.609-3.062 0-2.471 1.005-3.062 5.319-3.062s5.319 0.591 5.319 3.062 1.005 3.062 5.319 3.062 5.319-0.591 5.319-3.062 1.005-3.062 5.319-3.062c3.714 0 5.319-0.697 5.319-2.289s1.593-2.289 5.319-2.289c3.714 0 5.319 0.697 5.319 2.289s1.593 2.289 5.319 2.289c4.305 0 5.319 0.591 5.319 3.062 0 2.016 1.005 3.062 3.062 3.062 1.698 0 3.062 1.005 3.062 2.289s1.349 2.289 3.062 2.289c2.672 0 3.062 1.005 3.062 8.367s-0.379 8.367-3.062 8.367c-1.698 0-3.062 1.005-3.062 2.289 0 1.593-1.593 2.289-5.319 2.289-5.074 0-5.319 0.243-5.319 5.319 0 4.305-0.591 5.319-3.062 5.319-2.016 0-3.062 1.005-3.062 3.062 0 2.471-1.005 3.062-5.319 3.062-3.714 0-5.319 0.697-5.319 2.289 0 1.25-1.046 2.289-2.289 2.289-1.593 0-2.289 1.593-2.289 5.319s0.697 5.319 2.289 5.319c1.288 0 2.289 1.349 2.289 3.062 0 2.016 1.005 3.062 3.062 3.062s3.062 1.005 3.062 3.062c0 1.698 1.005 3.062 2.289 3.062s2.289 1.046 2.289 2.289c0 1.288 1.349 2.289 3.062 2.289 2.016 0 3.062 1.005 3.062 3.062 0 1.698 1.005 3.062 2.289 3.062s2.289 1.046 2.289 2.289c0 1.288 1.349 2.289 3.062 2.289 2.016 0 3.062 1.005 3.062 3.062s1.005 3.062 3.062 3.062c1.698 0 3.062 1.005 3.062 2.289s1.046 2.289 2.289 2.289c1.25 0 2.289 1.349 2.289 3.062 0 2.016 1.005 3.062 3.062 3.062 1.698 0 3.062 1.005 3.062 2.289s1.046 2.289 2.289 2.289c1.288 0 2.289 1.349 2.289 3.062 0 2.471 1.005 3.062 5.319 3.062 3.714 0 5.319 0.697 5.319 2.289 0 1.288 1.349 2.289 3.062 2.289 2.016 0 3.062 1.005 3.062 3.062 0 1.698 1.005 3.062 2.289 3.062s2.289 1.046 2.289 2.289c0 1.288 1.349 2.289 3.062 2.289 2.016 0 3.062 1.005 3.062 3.062 0 2.471 1.005 3.062 5.319 3.062 3.714 0 5.319 0.697 5.319 2.289 0 1.25 1.046 2.289 2.289 2.289s2.289 1.349 2.289 3.062c0 2.016 1.005 3.062 3.062 3.062 1.698 0 3.062 1.005 3.062 2.289s1.046 2.289 2.289 2.289c1.288 0 2.289 1.349 2.289 3.062 0 2.016 1.005 3.062 3.062 3.062 1.698 0 3.062 1.005 3.062 2.289 0 1.74 1.879 2.289 7.609 2.289s7.609-0.561 7.609-2.289c0-1.25-1.046-2.289-2.289-2.289-1.593 0-2.289-1.593-2.289-5.319 0-4.305-0.591-5.319-3.062-5.319-2.016 0-3.062-1.005-3.062-3.062 0-1.698-1.005-3.062-2.289-3.062-1.593 0-2.289-1.593-2.289-5.319 0-4.305-0.591-5.319-3.062-5.319-1.698 0-3.062-1.005-3.062-2.289s-1.046-2.289-2.289-2.289c-1.288 0-2.289-1.349-2.289-3.062 0-2.016-1.005-3.062-3.062-3.062-2.471 0-3.062-1.005-3.062-5.319 0-3.714-0.697-5.319-2.289-5.319-2.228 0-2.956-2.471-2.329-8.2 0.243-2.228-0.417-2.672-2.88-2.046-2.819 0.728-3.162 0.172-3.162-5.108 0-4.274-0.621-5.942-2.289-5.942-1.25 0-2.289-1.046-2.289-2.289s-1.349-2.289-3.062-2.289c-2.471 0-3.062-1.005-3.062-5.319 0-3.714-0.697-5.319-2.289-5.319-1.637 0-2.289-1.698-2.289-6.078 0-5.074-0.515-6.078-3.062-6.078-2.637 0-3.062-1.005-3.062-7.609s0.417-7.609 3.062-7.609c2.016 0 3.062-1.005 3.062-3.062 0-1.698 1.005-3.062 2.289-3.062s2.289-1.046 2.289-2.289c0-1.288 1.349-2.289 3.062-2.289 2.016 0 3.062-1.005 3.062-3.062 0-1.698 1.005-3.062 2.289-3.062s2.289-1.046 2.289-2.289c0-1.288 1.349-2.289 3.062-2.289 2.016 0 3.062-1.005 3.062-3.062 0-1.698 1.005-3.062 2.289-3.062 1.593 0 2.289-1.593 2.289-5.319s-0.697-5.319-2.289-5.319c-1.74 0-2.289-1.879-2.289-7.609 0-6.593-0.417-7.609-3.062-7.609-2.471 0-3.062-1.005-3.062-5.319 0-3.714-0.697-5.319-2.289-5.319-1.288 0-2.289-1.349-2.289-3.062 0-2.016-1.005-3.062-3.062-3.062-2.819 0-3.062-1.005-3.062-13.717v-13.717h5.319c3.714 0 5.319-0.697 5.319-2.289s1.593-2.289 5.319-2.289c3.714 0 5.319 0.697 5.319 2.289 0 1.288 1.349 2.289 3.062 2.289 2.016 0 3.062 1.005 3.062 3.062 0 1.698 1.005 3.062 2.289 3.062 1.593 0 2.289 1.593 2.289 5.319 0 5.074 0.243 5.319 5.319 5.319 3.714 0 5.319 0.697 5.319 2.289 0 1.288 1.349 2.289 3.062 2.289 2.016 0 3.062 1.005 3.062 3.062 0 1.698 1.005 3.062 2.289 3.062 1.773 0 2.289 1.94 2.289 8.367s-0.515 8.367-2.289 8.367c-1.25 0-2.289 1.046-2.289 2.289s-1.349 2.289-3.062 2.289c-2.016 0-3.062 1.005-3.062 3.062 0 1.698-1.005 3.062-2.289 3.062s-2.289 1.046-2.289 2.289c0 1.25 1.046 2.289 2.289 2.289s2.289 1.349 2.289 3.062c0 2.016 1.005 3.062 3.062 3.062 1.698 0 3.062 1.005 3.062 2.289s1.046 2.289 2.289 2.289c1.288 0 2.289 1.349 2.289 3.062 0 2.531 1.005 3.062 6.078 3.062 4.411 0 6.078 0.621 6.078 2.289 0 1.25 1.046 2.289 2.289 2.289s2.289 1.349 2.289 3.062c0 2.471 1.005 3.062 5.319 3.062 3.714 0 5.319 0.697 5.319 2.289s1.593 2.289 5.319 2.289c4.305 0 5.319 0.591 5.319 3.062s1.005 3.062 5.319 3.062c3.714 0 5.319 0.697 5.319 2.289 0 1.288 1.349 2.289 3.062 2.289 2.016 0 3.062 1.005 3.062 3.062 0 2.471 1.005 3.062 5.319 3.062h5.319v-8.367c0-7.366-0.379-8.367-3.062-8.367-1.698 0-3.062-1.005-3.062-2.289s-1.046-2.289-2.289-2.289c-1.288 0-2.289-1.349-2.289-3.062 0-2.016-1.005-3.062-3.062-3.062-1.698 0-3.062-1.005-3.062-2.289s-1.046-2.289-2.289-2.289c-1.288 0-2.289-1.349-2.289-3.062 0-2.016-1.005-3.062-3.062-3.062-2.471 0-3.062-1.005-3.062-5.319 0-3.714-0.697-5.319-2.289-5.319s-2.289-1.593-2.289-5.319c0-4.305-0.591-5.319-3.062-5.319-1.698 0-3.062-1.005-3.062-2.289s1.349-2.289 3.062-2.289c2.471 0 3.062-1.005 3.062-5.319 0-3.714 0.697-5.319 2.289-5.319 1.288 0 2.289-1.349 2.289-3.062 0-2.016 1.005-3.062 3.062-3.062 2.471 0 3.062-1.005 3.062-5.319s-0.591-5.319-3.062-5.319c-2.471 0-3.062-1.005-3.062-5.319 0-3.714-0.697-5.319-2.289-5.319-1.74 0-2.289-1.94-2.289-8.367 0-7.366-0.379-8.367-3.062-8.367s-3.062-1.005-3.062-7.609c0-5.76-0.561-7.609-2.289-7.609-1.288 0-2.289-1.349-2.289-3.062 0-2.016-1.005-3.062-3.062-3.062-2.637 0-3.062-1.005-3.062-7.609s0.417-7.609 3.062-7.609c2.016 0 3.062-1.005 3.062-3.062 0-1.698 1.005-3.062 2.289-3.062s2.289-1.046 2.289-2.289c0-1.288 1.349-2.289 3.062-2.289 2.016 0 3.062-1.005 3.062-3.062 0-1.698 1.005-3.062 2.289-3.062s2.289-1.046 2.289-2.289c0-1.288 1.349-2.289 3.062-2.289 2.016 0 3.062-1.005 3.062-3.062 0-1.698 1.005-3.062 2.289-3.062s2.289-1.349 2.289-3.062c0-2.016 1.005-3.062 3.062-3.062 2.471 0 3.062-1.005 3.062-5.319 0-3.714 0.697-5.319 2.289-5.319 1.74 0 2.289-1.879 2.289-7.609s-0.561-7.609-2.289-7.609c-1.804 0-2.289-2.183-2.289-10.662s0.485-10.662 2.289-10.662c1.288 0 2.289-1.349 2.289-3.062 0-2.672 1.005-3.062 8.367-3.062s8.367 0.379 8.367 3.062c0 2.743 1.005 3.062 10.662 3.062h10.662v-54.808h-8.367c-7.366 0-8.367 0.379-8.367 3.062 0 1.698-1.005 3.062-2.289 3.062s-2.289 1.046-2.289 2.289c0 1.593-1.593 2.289-5.319 2.289s-5.319-0.697-5.319-2.289c0-1.288-1.349-2.289-3.062-2.289-2.88 0-3.062-1.005-3.062-19.037s0.172-19.037 3.062-19.037c1.698 0 3.062-1.005 3.062-2.289 0-1.74 1.879-2.289 7.609-2.289 6.593 0 7.609-0.417 7.609-3.062 0-2.471 1.005-3.062 5.319-3.062 5.074 0 5.319-0.243 5.319-5.319 0-4.305 0.591-5.319 3.062-5.319s3.062-1.005 3.062-5.319c0-4.305 0.591-5.319 3.062-5.319 2.743 0 3.062-1.005 3.062-10.662s-0.273-10.662-3.062-10.662c-2.471 0-3.062-1.005-3.062-5.319s-0.591-5.319-3.062-5.319c-2.016 0-3.062-1.005-3.062-3.062 0-2.917-1.005-3.062-21.326-3.062h-21.326v-42.616c0-36.884-0.318-42.616-2.289-42.616-1.879 0-2.289-2.531-2.289-13.611 0-12.262-0.318-13.687-3.062-14.551-2.713-0.864-3.062-2.289-3.062-13.064 0-9.731-0.455-12.084-2.289-12.084-1.593 0-2.289-1.593-2.289-5.319 0-4.305-0.591-5.319-3.062-5.319s-3.062-1.005-3.062-5.319c0-3.714-0.697-5.319-2.289-5.319-1.637 0-2.289-1.698-2.289-6.078 0-5.074-0.515-6.078-3.062-6.078-1.698 0-3.062-1.005-3.062-2.289s-1.046-2.289-2.289-2.289c-1.288 0-2.289-1.349-2.289-3.062 0-2.016-1.005-3.062-3.062-3.062-2.471 0-3.062-1.005-3.062-5.319s-0.591-5.319-3.062-5.319-3.062-1.005-3.062-5.319c0-3.714-0.697-5.319-2.289-5.319s-2.289-1.593-2.289-5.319c0-4.305-0.591-5.319-3.062-5.319-1.698 0-3.062-1.005-3.062-2.289s-1.046-2.289-2.289-2.289c-1.288 0-2.289-1.349-2.289-3.062 0-2.016-1.005-3.062-3.062-3.062-1.698 0-3.062-1.005-3.062-2.289s-1.046-2.289-2.289-2.289c-1.288 0-2.289-1.349-2.289-3.062 0-2.016-1.005-3.062-3.062-3.062-1.698 0-3.062-1.005-3.062-2.289s-1.046-2.289-2.289-2.289c-1.25 0-2.289-1.349-2.289-3.062 0-2.016-1.005-3.062-3.062-3.062-1.698 0-3.062-1.005-3.062-2.289 0-1.593-1.593-2.289-5.319-2.289-4.305 0-5.319-0.591-5.319-3.062 0-1.698-1.005-3.062-2.289-3.062s-2.289-1.046-2.289-2.289c0-1.74-1.94-2.289-8.367-2.289-7.366 0-8.367-0.379-8.367-3.062 0-2.471-1.005-3.062-5.319-3.062s-5.319-0.591-5.319-3.062c0-2.819-1.005-3.062-13.717-3.062-11.152 0-13.717-0.417-13.717-2.289 0-1.804-2.183-2.289-10.662-2.289-9.655 0-10.662-0.273-10.662-3.062 0-2.956-1.005-3.062-31.985-3.062s-31.985 0.106-31.985 3.062zM625.848 206.371c0 4.759 0.485 5.866 2.289 5.172 1.593-0.621 2.289 0.106 2.289 2.329 0 1.838-0.97 3.198-2.289 3.198-1.74 0-2.289 1.879-2.289 7.609 0 6.593-0.417 7.609-3.062 7.609-2.531 0-3.062 1.005-3.062 6.078 0 4.411-0.621 6.078-2.289 6.078-1.74 0-2.289 1.879-2.289 7.609 0 6.593-0.417 7.609-3.062 7.609s-3.062 1.005-3.062 8.367-0.379 8.367-3.062 8.367c-1.698 0-3.062 1.005-3.062 2.289s1.349 2.289 3.062 2.289c2.743 0 3.062 1.005 3.062 10.662s-0.273 10.662-3.062 10.662c-2.471 0-3.062 1.005-3.062 5.319 0 3.714-0.697 5.319-2.289 5.319-1.25 0-2.289 1.349-2.289 3.062 0 2.016-1.005 3.062-3.062 3.062-2.672 0-3.062 1.005-3.062 8.367 0 6.427-0.515 8.367-2.289 8.367s-2.289 1.879-2.289 7.609c0 6.593-0.417 7.609-3.062 7.609-2.016 0-3.062 1.005-3.062 3.062 0 1.698-1.005 3.062-2.289 3.062s-2.289 1.046-2.289 2.289c0 1.593-1.593 2.289-5.319 2.289h-5.319v8.367c0 7.366-0.379 8.367-3.062 8.367s-3.062 1.005-3.062 7.609c0 5.76-0.561 7.609-2.289 7.609-1.288 0-2.289 1.349-2.289 3.062 0 2.016-1.005 3.062-3.062 3.062-1.698 0-3.062 1.005-3.062 2.289s-1.046 2.289-2.289 2.289c-1.288 0-2.289 1.349-2.289 3.062 0 2.471-1.005 3.062-5.319 3.062-3.714 0-5.319 0.697-5.319 2.289s-1.593 2.289-5.319 2.289c-4.305 0-5.319 0.591-5.319 3.062 0 2.85-1.005 3.062-16.74 3.062s-16.74-0.172-16.74-3.062c0-2.471-1.005-3.062-5.319-3.062-3.714 0-5.319-0.697-5.319-2.289 0-1.25-1.046-2.289-2.289-2.289s-2.289-1.349-2.289-3.062c0-2.016-1.005-3.062-3.062-3.062-1.698 0-3.062-1.005-3.062-2.289s-1.046-2.289-2.289-2.289c-1.25 0-2.289-1.349-2.289-3.062 0-2.016-1.005-3.062-3.062-3.062-1.698 0-3.062-1.005-3.062-2.289s-1.046-2.289-2.289-2.289c-1.593 0-2.289-1.593-2.289-5.319 0-4.305-0.591-5.319-3.062-5.319-2.819 0-3.062-1.005-3.062-13.717 0-11.152-0.417-13.717-2.289-13.717-1.25 0-2.289-1.046-2.289-2.289s-1.349-2.289-3.062-2.289c-2.471 0-3.062-1.005-3.062-5.319 0-3.714-0.697-5.319-2.289-5.319s-2.289-1.698-2.289-6.078c0-5.074-0.515-6.078-3.062-6.078-2.743 0-3.062-1.005-3.062-10.662s-0.273-10.662-3.062-10.662c-1.698 0-3.062-1.005-3.062-2.289s-1.046-2.289-2.289-2.289c-1.593 0-2.289-1.593-2.289-5.319 0-4.305-0.591-5.319-3.062-5.319s-3.062-1.005-3.062-5.319c0-3.714-0.697-5.319-2.289-5.319-1.91 0-2.289-3.471-2.289-22.084s0.349-22.084 2.289-22.084c1.804 0 2.289-2.183 2.289-10.662v-10.662h5.319c5.074 0 5.319 0.243 5.319 5.319 0 4.305 0.591 5.319 3.062 5.319 2.672 0 3.062 1.005 3.062 8.367s0.379 8.367 3.062 8.367c2.672 0 3.062 1.005 3.062 8.367 0 6.427 0.515 8.367 2.289 8.367 1.25 0 2.289 1.046 2.289 2.289s1.349 2.289 3.062 2.289c2.016 0 3.062 1.005 3.062 3.062 0 1.698 1.005 3.062 2.289 3.062s2.289 1.046 2.289 2.289c0 1.288 1.349 2.289 3.062 2.289 2.471 0 3.062 1.005 3.062 5.319 0 3.714 0.697 5.319 2.289 5.319s2.289 1.593 2.289 5.319c0 4.305 0.591 5.319 3.062 5.319 2.016 0 3.062 1.005 3.062 3.062 0 1.698 1.005 3.062 2.289 3.062s2.289 1.046 2.289 2.289c0 1.288 1.349 2.289 3.062 2.289 2.471 0 3.062 1.005 3.062 5.319 0 3.714 0.697 5.319 2.289 5.319 1.288 0 2.289 1.349 2.289 3.062 0 2.016 1.005 3.062 3.062 3.062 1.698 0 3.062 1.005 3.062 2.289s1.046 2.289 2.289 2.289c1.288 0 2.289 1.349 2.289 3.062 0 2.672 1.005 3.062 8.367 3.062s8.367-0.379 8.367-3.062c0-2.743 1.005-3.062 10.662-3.062 8.473 0 10.662-0.485 10.662-2.289 0-1.288 1.349-2.289 3.062-2.289 2.016 0 3.062-1.005 3.062-3.062 0-1.698 1.005-3.062 2.289-3.062s2.289-1.046 2.289-2.289c0-1.25 1.349-2.289 3.062-2.289 2.471 0 3.062-1.005 3.062-5.319 0-3.714 0.697-5.319 2.289-5.319 1.288 0 2.289-1.349 2.289-3.062 0-2.016 1.005-3.062 3.062-3.062 1.698 0 3.062-1.005 3.062-2.289s1.046-2.289 2.289-2.289c1.288 0 2.289-1.349 2.289-3.062 0-2.016 1.005-3.062 3.062-3.062 1.698 0 3.062-1.005 3.062-2.289s1.046-2.289 2.289-2.289c1.593 0 2.289-1.593 2.289-5.319 0-4.305 0.591-5.319 3.062-5.319 2.672 0 3.062-1.005 3.062-8.367 0-6.427 0.515-8.367 2.289-8.367 1.25 0 2.289-1.046 2.289-2.289s1.349-2.289 3.062-2.289c2.016 0 3.062-1.005 3.062-3.062 0-1.698 1.005-3.062 2.289-3.062 1.593 0 2.289-1.593 2.289-5.319 0-4.305 0.591-5.319 3.062-5.319s3.062-1.005 3.062-5.319c0-3.714 0.697-5.319 2.289-5.319 1.288 0 2.289-1.349 2.289-3.062 0-2.016 1.005-3.062 3.062-3.062 2.471 0 3.062-1.005 3.062-5.319v-5.319h16.74v6.048zM432.467 456.085c0 2.637 1.005 3.062 7.609 3.062 5.76 0 7.609 0.561 7.609 2.289 0 1.593 1.593 2.289 5.319 2.289 4.305 0 5.319 0.591 5.319 3.062 0 2.016 1.005 3.062 3.062 3.062 1.698 0 3.062 1.005 3.062 2.289s1.046 2.289 2.289 2.289c1.804 0 2.289 2.183 2.289 10.662s-0.485 10.662-2.289 10.662c-1.804 0-2.289 2.183-2.289 10.662 0 9.655-0.273 10.662-3.062 10.662-2.531 0-3.062 1.005-3.062 6.078 0 4.411-0.621 6.078-2.289 6.078-1.25 0-2.289 1.046-2.289 2.289s-1.349 2.289-3.062 2.289c-2.016 0-3.062 1.005-3.062 3.062 0 2.471-1.005 3.062-5.319 3.062-3.714 0-5.319 0.697-5.319 2.289s-1.593 2.289-5.319 2.289c-4.305 0-5.319 0.591-5.319 3.062 0 2.917-1.005 3.062-24.555 3.062-22.857 0-24.418-0.172-22.474-2.574 1.425-1.74 1.495-2.228 0.172-1.425-1.046 0.621-1.91 0.417-1.91-0.485s-1.046-1.593-2.289-1.593-2.289-1.046-2.289-2.289-1.593-2.289-5.319-2.289c-4.305 0-5.319-0.591-5.319-3.062 0-2.016-1.005-3.062-3.062-3.062-1.698 0-3.062-1.005-3.062-2.289s-1.046-2.289-2.289-2.289c-1.288 0-2.289-1.349-2.289-3.062 0-2.016-1.005-3.062-3.062-3.062-2.471 0-3.062-1.005-3.062-5.319 0-3.714-0.697-5.319-2.289-5.319-1.773 0-2.289-1.94-2.289-8.367 0-7.366-0.379-8.367-3.062-8.367-2.743 0-3.062-1.005-3.062-10.662s0.273-10.662 3.062-10.662c2.471 0 3.062-1.005 3.062-5.319 0-3.714 0.697-5.319 2.289-5.319 1.25 0 2.289-1.046 2.289-2.289s1.349-2.289 3.062-2.289c2.016 0 3.062-1.005 3.062-3.062 0-2.956 1.005-3.062 40.36-3.062s40.36 0.074 40.36 3.062zM657.8 456.085c0 1.698 1.005 3.062 2.289 3.062s2.289 1.046 2.289 2.289c0 1.25 1.319 2.289 2.956 2.289 1.879 0 3.122 1.25 3.471 3.441 0.273 1.879 1.394 3.228 2.471 3.016s1.838 0.455 1.698 1.531c-1.046 7.882 0.243 13.338 3.162 13.338 2.672 0 3.062 1.005 3.062 8.367s-0.379 8.367-3.062 8.367c-2.471 0-3.062 1.005-3.062 5.319 0 3.714-0.697 5.319-2.289 5.319s-2.289 1.593-2.289 5.319c0 4.305-0.591 5.319-3.062 5.319-2.016 0-3.062 1.005-3.062 3.062 0 1.698-1.005 3.062-2.289 3.062s-2.289 1.046-2.289 2.289c0 1.593-1.593 2.289-5.319 2.289-4.305 0-5.319 0.591-5.319 3.062 0 2.016-1.005 3.062-3.062 3.062-1.698 0-3.062 1.005-3.062 2.289 0 1.804-2.183 2.289-10.662 2.289-9.685 0-10.662 0.273-10.662 3.092 0 2.574-0.864 3.016-5.319 2.743-3.82-0.243-5.214-1.005-4.927-2.713 0.318-1.91-1.698-2.427-10.662-2.819-8.442-0.349-11.049-0.97-11.049-2.672s-2.046-2.228-8.367-2.228c-7.366 0-8.367-0.379-8.367-3.062 0-1.698-1.005-3.062-2.289-3.062s-2.289-1.046-2.289-2.289c0-1.288-1.349-2.289-3.062-2.289-2.531 0-3.062-1.005-3.062-6.078 0-4.411-0.621-6.078-2.289-6.078-1.74 0-2.289-1.879-2.289-7.609 0-6.593-0.417-7.609-3.062-7.609-2.88 0-3.062-1.005-3.062-19.037s0.172-19.037 3.062-19.037c1.698 0 3.062-1.005 3.062-2.289 0-1.593 1.593-2.289 5.319-2.289 4.305 0 5.319-0.591 5.319-3.062 0-2.986 1.005-3.062 45.668-3.062s45.668 0.074 45.668 3.062zM517.729 536.797c0 2.016 1.005 3.062 3.062 3.062 1.698 0 3.062 1.005 3.062 2.289s1.046 2.289 2.289 2.289c1.74 0 2.289 1.94 2.289 8.367 0 7.366 0.379 8.367 3.062 8.367 2.743 0 3.062 1.005 3.062 10.489 0 7.917 0.561 10.701 2.289 11.353 1.561 0.591 2.289 3.062 2.289 7.776 0 5.866 0.455 6.912 3.062 6.912 2.672 0 3.062 1.005 3.062 8.367s-0.379 8.367-3.062 8.367c-2.016 0-3.062 1.005-3.062 3.062 0 1.698-1.005 3.062-2.289 3.062s-2.289 1.046-2.289 2.289c0 1.74-1.94 2.289-8.367 2.289s-8.367-0.515-8.367-2.289c0-1.288-1.349-2.289-3.062-2.289-2.819 0-3.062-1.005-3.062-13.717 0-11.152-0.417-13.717-2.289-13.717-1.288 0-2.289-1.349-2.289-3.062 0-2.016-1.005-3.062-3.062-3.062s-3.062 1.005-3.062 3.062c0 1.698-1.005 3.062-2.289 3.062-1.879 0-2.289 2.531-2.289 13.717v13.717h-8.367c-7.366 0-8.367-0.379-8.367-3.062 0-1.698-1.005-3.062-2.289-3.062s-2.289-1.349-2.289-3.062c0-2.016-1.005-3.062-3.062-3.062-2.743 0-3.062-1.005-3.062-10.662s0.273-10.662 3.062-10.662c2.471 0 3.062-1.005 3.062-5.319 0-3.714 0.697-5.319 2.289-5.319 1.74 0 2.289-1.879 2.289-7.609 0-6.593 0.417-7.609 3.062-7.609s3.062-1.005 3.062-8.367c0-6.427 0.515-8.367 2.289-8.367 1.593 0 2.289-1.593 2.289-5.319v-5.319h13.717c12.672 0 13.717 0.212 13.717 3.062zM641.059 590.074c0 2.471 1.005 3.062 5.319 3.062h5.319v10.662c0 8.473-0.485 10.662-2.289 10.662-1.288 0-2.289 1.349-2.289 3.062 0 2.471-1.005 3.062-5.319 3.062-3.714 0-5.319 0.697-5.319 2.289 0 1.288-1.349 2.289-3.062 2.289-2.016 0-3.062 1.005-3.062 3.062 0 1.698-1.005 3.062-2.289 3.062s-2.289 1.046-2.289 2.289c0 1.773-1.94 2.289-8.367 2.289s-8.367-0.515-8.367-2.289c0-1.288-1.349-2.289-3.062-2.289-2.774 0-3.062-1.005-3.062-11.428s0.273-11.428 3.062-11.428c2.471 0 3.062-1.005 3.062-5.319 0-5.074 0.243-5.319 5.319-5.319 3.714 0 5.319-0.697 5.319-2.289s1.593-2.289 5.319-2.289c4.305 0 5.319-0.591 5.319-3.062s1.005-3.062 5.319-3.062c4.305 0 5.319 0.591 5.319 3.062zM367.033 606.050c0 1.593 1.593 2.289 5.319 2.289 4.305 0 5.319 0.591 5.319 3.062s1.005 3.062 5.319 3.062c5.074 0 5.319 0.243 5.319 5.319 0 4.305 0.591 5.319 3.062 5.319 2.016 0 3.062 1.005 3.062 3.062 0 1.698 1.005 3.062 2.289 3.062s2.289 1.046 2.289 2.289c0 1.288 1.349 2.289 3.062 2.289 2.471 0 3.062 1.005 3.062 5.319 0 3.714 0.697 5.319 2.289 5.319 1.288 0 2.289 1.349 2.289 3.062s-1.005 3.062-2.289 3.062c-1.25 0-2.289 1.046-2.289 2.289 0 1.74-1.94 2.289-8.367 2.289s-8.367-0.515-8.367-2.289c0-1.25-1.046-2.289-2.289-2.289s-2.289-1.349-2.289-3.062c0-2.016-1.005-3.062-3.062-3.062-1.698 0-3.062-1.005-3.062-2.289s-1.046-2.289-2.289-2.289c-1.288 0-2.289-1.349-2.289-3.062 0-2.016-1.005-3.062-3.062-3.062-1.698 0-3.062-1.005-3.062-2.289s-1.046-2.289-2.289-2.289c-1.288 0-2.289-1.349-2.289-3.062 0-2.471-1.005-3.062-5.319-3.062-3.714 0-5.319-0.697-5.319-2.289 0-1.288-1.349-2.289-3.062-2.289-2.672 0-3.062-1.005-3.062-8.367v-8.367h10.662c8.442 0 10.662 0.485 10.662 2.289z"></path>
</svg>
