<!-- Generated by IcoMoon.io -->
<svg version="1.1" xmlns="http://www.w3.org/2000/svg" width="1024" height="1024" viewBox="0 0 1024 1024">
<title></title>
<g id="icomoon-ignore">
</g>
<path fill="#000" d="M442.168 200.935c0 21.286 3.423 32.574 0 38.801-22.817 33.206 2.566 55.798 17.457 79.244 7.874 12.55 25.158 30.237 34.519 28.356 19.394-3.828 9.587-26.42 9.352-40.276-0.167-2.221-0.345-4.85-0.345-7.476 0-25.098 10.327-47.81 26.93-64.068v0c20.026-19.394 32.184-39.825 17.682-69.263-2.974-5.989 3.423-20.026 9.817-25.79 2.165-0.69 4.623-1.082 7.191-1.082 6.109 0 11.633 2.281 15.866 6.049v0c11.529 17.682 38.97 18.314 42.618 42.618s-15.344 33.662-26.811 48.787c-17.233 19.454-27.787 45.184-27.787 73.376 0 17.628 4.113 34.345 11.468 49.126l-0.285-0.63c1.487 3.198 2.791 6.621 4.053 9.817 4.053-2.791 9.352-4.91 11.529-8.497 5.195-9.127 10.389-20.086 14.891-31.379l0.69-1.879c6.786-20.146 23.734-35.142 44.558-39.135l0.345-0.060c32.469-4.85 58.649-27.382 68.633-57.342l0.167-0.63c8.106-21.286 16.201-11.693 24.303-1.936s10.839 17.682 16.828 26.192c4.338 5.074 6.966 11.633 6.966 18.884 0 11.693-6.846 21.737-16.772 26.42l-0.167 0.060c-21.286 12.386-35.997 32.409-63.904 33.662-20.251 1.261-36.281 17.578-37.088 37.828v0.060c0 3.423 0 7.018 0 10.674-2.117 13.013-10.444 35.142-6.162 37.708 18.944 11.919 23.446-12.775 35.997-19.627 20.026-10.674 38.801-23.446 63.904-12.775 8.445 4.449 18.485 7.018 29.151 7.018 24.079 0 45.019-13.298 55.918-32.919l0.167-0.345c9.187-14.034 16.603-1.261 18.539 3.828 14.891 43.653 0 92.659-55.406 85.238-5.134 0-11.529 1.711-15.746 0-53.455-27.049-73.945 18.314-102.241 46.221-1.711 1.711 0 6.394 0 9.587 1.202 0.119 2.626 0.167 4.053 0.167s2.853-0.060 4.217-0.167h-0.167c3.708-0.855 6.966-2.117 9.982-3.708l-0.225 0.119c40.276-21.286 74.802 0 105.035 21.286 14.726 9.352 21.286 12.775 34.519 4.053 5.929-5.54 13.013-9.921 20.88-12.67l0.404-0.119c0.345 0 0.69 0 1.082 0 8.445 0 16.093 3.543 21.51 9.187v0c2.626 3.932 4.217 8.842 4.217 14.095 0 3.021-0.51 5.989-1.487 8.678l0.060-0.167c-6.786 13.298-14.262 24.765-22.877 35.323l0.285-0.345c-7.131 12.442-20.311 20.656-35.427 20.656-9.817 0-18.77-3.483-25.79-9.247l0.060 0.060c-7.251-5.134-12.386-13.013-19.394-18.090-12.835-9.532-28.986-15.236-46.506-15.236-22.997 0-43.702 9.873-58.023 25.622l-0.060 0.060c-2.165 2.506-4.217 5.305-6.049 8.27l-0.167 0.285c3.543 2.056 7.7 3.648 12.038 4.623l0.285 0.060c31.719 1.082 49.411 21.286 65.21 45.184 19.801 29.213 38.338 59.45 78.624 63.904 2.974 0 8.731 13.405 7.251 15.344-10.494 14.262-22.997 26.36-37.199 36.117l-0.51 0.345c-5.54 2.056-11.871 3.307-18.539 3.307-21.105 0-39.372-12.157-48.218-29.843l-0.119-0.285c-4.338-14.095-8.497-25.384-13.24-36.402l0.915 2.341c-7.018-11.529-16.201-26.42-27.502-29.843-21.798-5.764-47.87-10.444-74.578-13.061l-2.117-0.167c-0.225 1.202-0.345 2.626-0.345 4.053s0.119 2.853 0.345 4.217v-0.167s3.592 0 4.683 1.711c27.502 31.093 47.698 63.904 38.563 108.638-5.305 25.79 16.201 36.854 28.986 53.065 5.54 7.018 11.529 20.026 8.497 26.015-5.989 7.925-14.952 13.298-25.158 14.488h-0.167c-47.93 6.786-67.327-11.3-68.181-60.93 0-7.251 0-14.262 0-21.286 0-0.855 0.060-1.879 0.060-2.974 0-41.132-26.478-76.055-63.274-88.663l-0.69-0.167c-3.198-1.261-15.116 9.587-14.488 11.3 17.233 42.618 2.566 79.020-17.457 114.852-5.54 6.732-8.842 15.401-8.842 24.873 0 10.899 4.449 20.82 11.633 27.953v0c15.344 15.344 0 22.592-9.587 26.192-26.645 8.963-42.618-9.187-58.139-26.811-6.681-8.902-10.674-20.146-10.674-32.289 0-9.817 2.626-19.056 7.191-26.99l-0.119 0.285c2.566-4.449 7.874-7.476 10.444-12.157 8.497-14.726 24.709-31.093 21.286-44.51-7.071-27.154-17.233-51.008-30.292-72.866l0.69 1.261s-13.24 2.791-13.405 4.91c-3.423 43.878-32.574 66.47-66.47 87.757-20.88 10.042-35.090 30.982-35.090 55.286 0 3.878 0.345 7.64 1.023 11.348l-0.060-0.404c1.487 8.497-4.053 10.674-13.013 7.874-24.243-7.476-41.703-29.273-42.618-55.286v-0.119c-3.423-21.286 0-42.618 27.049-49.867 6.162-1.711 10.206-11.919 16.201-13.013 48.382-8.963 49.411-46.671 51.743-83.297-0.794-8.963-2.791-17.173-5.764-24.933l0.225 0.63c-5.989 4.97-11.348 10.266-16.258 16.033l-0.167 0.167c-10.614 15.297-28.011 25.158-47.75 25.158-2.45 0-4.91-0.167-7.251-0.452h0.285c-34.060-2.341-66.873 0-85.238 37.483-5.195 5.929-12.727 9.637-21.165 9.637-1.772 0-3.543-0.167-5.195-0.452h0.167c-7.018-3.198-11.3-16.438-13.405-26.015-0.69-4.789-1.142-10.266-1.142-15.866s0.404-11.123 1.202-16.486l-0.060 0.63c0-0.167 0-0.345 0-0.51 0-24.709 20.026-44.735 44.735-44.735 0.915 0 1.772 0 2.686 0.060h-0.119c2.402-0.345 5.195-0.57 7.985-0.57s5.591 0.225 8.27 0.57l-0.285-0.060c49.411 12.157 73.945-23.623 100.986-53.229 12.386-13.24 5.764-29.213-11.3-28.986-37.259 0-73.091 0-103.555-28.132-8.106-7.476-27.049-3.423-41.132-4.278s-24.709 0-37.088 0-16.378-8.731-10.674-17.914c12.442-18.884 24.813-35.202 38.23-50.663l-0.51 0.57c4.449-5.419 11.184-8.902 18.659-8.902 5.591 0 10.729 1.879 14.831 5.074l-0.060-0.060c13.298 7.821 24.648 15.581 35.427 23.958l-0.69-0.51c24.079 19.394 47.525 35.772 80.337 16.201 11.408-4.683 24.765-8.445 38.625-10.554l0.975-0.119c6.846-2.117 21.286-2.974 1.711-11.063-10.839-4.449-19.394-14.726-30.237-20.026-25.051-12.098-43.938-33.715-52.21-60.021l-0.167-0.69c-6.846-26.015-29.558-45.080-56.937-46.446h-0.167c-18.539-1.261-21.286-10.674-8.963-24.303 11.3-13.24 28.071-21.625 46.731-21.625 20.026 0 37.828 9.587 49.012 24.424l0.119 0.167c7.355 10.778 13.584 23.222 18.030 36.402l0.345 1.082c14.488 42.618 53.922 44.959 87.982 55.406 2.341 0 9.982-10.444 12.386-17.057 1.261-3.423-2.974-9.982-6.394-13.405-28.356-27.667-44.735-56.025-26.015-98.189 10.444-23.446-4.278-47.93-21.286-66.873-11.919-13.013-1.082-21.286 7.64-23.222 6.786-3.138 14.726-5.020 23.052-5.020 14.034 0 26.869 5.195 36.687 13.81l-0.060-0.060c6.559 7.018 11.529 15.63 14.382 25.098l0.119 0.452z"></path>
</svg>
