<!-- Generated by IcoMoon.io -->
<svg version="1.1" xmlns="http://www.w3.org/2000/svg" width="1024" height="1024" viewBox="0 0 1024 1024">
<title></title>
<g id="icomoon-ignore">
</g>
<path fill="#000" d="M373.73 507.448c-8.001-30.415 6.255-59.726 27.229-86.619 17.568-22.929 42.158-39.645 70.533-47.058l0.894-0.21c11.911-3.575 25.61-5.614 39.824-5.614 48.887 0 92.065 24.338 118.095 61.513l0.294 0.473c17.61 22.036 28.291 50.369 28.291 81.131 0 22.33-5.614 43.357-15.486 61.776l0.336-0.683c-20.764 47.646-67.054 80.531-121.123 81.509h-0.126c-60.367 3.364-102.83-24.338-135.968-72.068-15.066-21.615-13.447-45.007-12.805-74.15z"></path>
<path fill="#000" d="M292.694 410.232c0-96.101 33.317-153.241 86.955-200.677 6.855-5.572 14.718-10.25 23.224-13.699l0.599-0.21c5.194-1.745 11.186-2.975 17.399-3.364h0.21c-1.104 5.908-1.913 11.996-3.533 17.957-3.059 11.354-6.255 22.761-9.788 34.115-3.101 7.485-4.888 16.212-4.888 25.316 0 22.383 10.808 42.2 27.44 54.627l0.168 0.126c4.174 3.185 9.441 4.804 13.615 7.833 14.718 11.228 13.615 15.234-4.636 25.61-57.35 32.843-94.493 78.965-95.124 148.437-0.936 5.236-2.471 9.914-4.636 14.256l0.126-0.294-10.25-11.060c-22.971-25.19-37.017-58.832-37.017-95.765 0-1.104 0-2.25 0.042-3.364v0.168z"></path>
<path fill="#000" d="M719.016 630.737c11.060 50.453-14.887 90.793-38.121 129.712-20.164 33.653-53.481 56.834-83.896 81.509-1.913 1.619-6.897 0-10.25-0.978 0 0-0.978-4.468 0-6.55 6.718-17.147 14.718-33.947 20.501-51.389 13.951-41.78 4.468-66.286-32.034-89.846-16.001-9.914-16.001-10.892 0-19.702 43.693-22.551 77.808-58.538 97.468-102.441l0.557-1.356c2.933-11.27 4.636-24.254 4.636-37.606 0-0.515 0-1.020 0-1.535v0.084c1.703-4.468 3.911-8.337 6.634-11.785l-0.084 0.084c3.185 2.25 7.527 3.827 9.147 6.897 18.724 32.507 35.23 65.813 25.484 104.912z"></path>
</svg>
