<!-- Generated by IcoMoon.io -->
<svg version="1.1" xmlns="http://www.w3.org/2000/svg" width="1024" height="1024" viewBox="0 0 1024 1024">
<title></title>
<g id="icomoon-ignore">
</g>
<path fill="#000" d="M500.801 134.595c-2.905 11.297-4.034 30.374-5.265 88.736-2.274 108.396-8.008 133.528-38.063 166.947-32.235 35.845-26.054 80.588 13.934 100.817 64 32.377 128.565-25.474 96.968-86.891-3.953-7.686-7.141-11.755-23.552-30.063-14.285-15.939-17.89-25.92-18.955-52.535-2.375-59.1-14.266-162.489-21.675-188.55-0.973-3.411-2.264-2.824-3.391 1.545zM235.297 254.301c-35.044 1.818-41.198 3.31-41.188 9.978 0.025 14.248 16.246 64.61 23.326 72.436 2.57 2.839 7.213 2.215 16.788-2.264 30.022-14.053 48.19 13.394 63.217 95.506 7.114 38.858 19.216 40.416 29.364 3.774 5.149-18.583 13.924-36.404 26.971-54.766 4.979-7.005 9.051-13.173 9.051-13.703s-5.312-12.052-11.798-25.606c-25.281-52.784-24.248-53.84 29.424-30.009 37.996 16.866 79.79 14.721 89.356-4.589 2.637-5.315 2.656-12.171 0.078-23.256-1.097-4.713-2.307-11.214-2.687-14.445-0.8-6.789-1.302-7.086-14.871-8.962-32.595-4.502-162.071-6.941-217.039-4.092zM541.211 263.133c1.608 23.41 3.943 33.109 9.963 41.418 12.402 17.122 44.19 18.843 80.717 4.376 5.645-2.234 16.043-6.384 23.119-9.223 28.736-11.533 29.703-9.76 13.351 24.456-17.573 36.781-18.033 44.473-3.951 66.406 8.026 12.503 12.506 22.511 18.882 42.135 7.605 23.422 10.92 28.707 16.714 26.672 6.695-2.358 10.837-14.116 16.165-45.941 10.492-62.673 23.261-83.523 49.93-81.538 28.407 2.12 28.597 1.958 42.808-35.938 10.021-26.709 9.743-32.716-1.722-37.293-11.409-4.55-16.556-4.741-144.861-5.197l-121.801-0.433 0.691 10.099zM425.947 353.33c-32.74 17.649-62.116 56.41-76.13 100.457l-6.382 20.062-18.854 2.295c-49.43 6.015-114.562 12.118-185.739 17.406-21.055 1.562-38.139 2.983-37.969 3.161 0.172 0.169 19.254 1.707 42.398 3.407 82.209 6.047 196.763 16.861 198.529 18.74 0.134 0.144 2.882 9.281 6.111 20.308 19.796 67.636 36.984 85.647 115.771 121.325l23.179 10.495 2.358 48.043c6.179 125.916 10.406 169.416 16.842 173.435 4.062 2.538 4.47 0.096 6.98-41.542 1.57-26.085 6.422-85.303 11.333-138.307 2.252-24.296 4.090-44.779 4.090-45.524s11.599-7.152 25.768-14.24c67.758-33.899 90.966-54.298 104.357-91.728 15.25-42.628 38.483-51.842 138.396-54.875 35.556-1.076 54.458-2.12 75.616-4.169 12.923-1.251 50.092-5.946 50.526-6.384 0.162-0.162-39.616-3.437-88.39-7.281-168.902-13.316-158.425-10.982-168.934-37.701-16.131-41.010-38.234-72.284-62.493-88.428-24.104-16.040-28.038-10.918-11.036 14.376 12.921 19.224 17.347 31.612 18.188 50.905 2.215 50.813-33.907 101.068-81.869 113.872-91.328 24.382-164.885-98.586-104.21-174.209 14.189-17.689 14.554-20.88 1.565-13.881zM675.352 587.596c-0.975 0.567-6.609 8.309-12.528 17.2-12.966 19.492-24.111 32.4-36.872 42.713-19.796 15.992-19.758 15.838-12.528 57.114 10.145 57.93 8.106 57.808-53.726-3.231-13.419-13.247-16.714-16.023-17.17-14.46-1.036 3.581-4.697 23.47-5.754 31.255-2.935 21.662-6.731 88.497-5.080 89.565 1.314 0.859 64.426 3.067 86.278 3.019 31.759-0.069 35.184-1.907 28.667-15.42-6.607-13.708-4.074-32.98 15.076-114.796 18.626-79.585 21.237-97.375 13.643-92.959zM332.359 596.382c-1.934 7.709 2.985 33.803 23.759 125.923 10.603 47.033 11.809 62.468 5.647 72.38-6.453 10.375-4.764 10.854 42.208 12.004 35.431 0.869 49.869 1.94 57.874 4.311 11.057 3.269 11.568 0.821 11.568-55.253 0-75.282-1.93-76.964-42.617-37.088-38.98 38.197-38.557 38.579-37.060-33.388 0.631-30.271 1.132-28.961-18.489-47.995-8.259-8.010-18.482-18.859-22.724-24.111-15.751-19.51-18.843-22.083-20.176-16.783z"></path>
</svg>
