<!-- Generated by IcoMoon.io -->
<svg version="1.1" xmlns="http://www.w3.org/2000/svg" width="1024" height="1024" viewBox="0 0 1024 1024">
<title></title>
<g id="icomoon-ignore">
</g>
<path fill="#000" d="M387.481 81.305c-2.193 5.296-7.192 11.727-11.104 14.292s-10.118 10.586-13.785 17.825c-3.667 7.236-11.531 21.387-17.475 31.453s-12.3 24.201-14.127 31.417-5.323 18.073-7.773 24.121c-23.906 59.007-21.484 185.439 3.739 195.027 30.207 11.484 34.93 31.183 7.475 31.183-22.694 0-77.57-45.12-95.954-78.89-9.608-17.654-7.999-56.87 3.221-78.567 6.153-11.898 5.847-27.593-0.581-30.061-7.026-2.695-45.15 36.727-45.211 46.751-0.027 3.984-2.598 15.408-5.712 25.385-4.249 13.612-5.073 22.242-3.296 34.561 1.303 9.027 3.328 24.192 4.5 33.696 1.199 9.724 5.312 22.090 9.412 28.279 14.101 21.291 15.689 27.469 8.991 34.903-9.724 10.785-55.172 3.229-67.11-11.157-2.232-2.692-5.753-4.896-7.823-4.896-16.629 0-58.409-57.467-64.295-88.435-7.054-37.11-10.082-39.055-16.050-10.3-12.689 61.12 27.719 172.695 72.86 201.191 6.607 4.174 12.016 8.792 12.016 10.269 0 2.417 10.545 10.523 34.192 26.281 14.598 9.729 47.498 4.031 47.498-8.23 0-7.387 31.541-24.090 41.254-21.842 22.892 5.293 48.787 14.477 54.124 19.191 10.314 9.112 24.013 32.875 24.013 41.653 0 10.498 11.198 43.392 16.995 49.925 5.053 5.698 11.231 26.463 11.283 37.922 0.019 4.32 1.506 13.157 3.307 19.635l3.271 11.782h17.442c20.985 0 32.814 10.085 39.97 34.071 2.4 8.046 7.327 20.293 10.953 27.223 7.541 14.419 8.517 20.486 11.637 72.233 2.907 48.283 20.993 77.080 61.203 97.456 35.895 18.188 94.546-39.287 89.98-88.173-2.458-26.309 4.69-73.448 13.229-87.263 3.645-5.902 6.641-14.1 6.652-18.213 0.066-28.59 16.43-45.125 35.098-35.47 14.642 7.569 19.478-0.636 27.033-45.844 2.59-15.494 6.864-31.842 21.768-83.26 15.039-51.884 98.018-72.404 123.478-30.535 6.927 11.385 24.314 14.843 35.942 7.146 31.963-21.162 62.526-51.934 67.764-68.229 2.13-6.632 5.899-14.383 8.376-17.227 2.477-2.841 7.147-13.444 10.382-23.564 3.232-10.115 8.035-24.052 10.669-30.963 3.309-8.677 4.836-24.424 4.929-50.848 0.209-58.034-8.368-72.158-13.959-22.983-5.335 46.941-54.452 94.21-103.655 99.754-24.909 2.808-29.684-19.671-10.104-47.561 5.643-8.037 6.39-14.127 6.552-53.411 0.256-62.324-10.787-87.773-51.033-117.601l-9.829-7.283-3.808 8.357c-3.378 7.418-3.006 8.966 3.307 13.727 10.057 7.586 20.31 46.93 17.692 67.879-7.376 58.996-51.818 114.677-91.524 114.677-32.475 0-31.45-32.172 1.251-39.165 13.278-2.838 14.907-6.555 19.332-44.092 2.036-17.279 4.309-35.308 5.053-40.058 0.744-4.753 0.061-12.044-1.518-16.199-1.582-4.155-4.489-19.357-6.461-33.773-1.97-14.419-6.235-32.577-9.476-40.353-3.238-7.776-7.256-21.914-8.925-31.417-4.896-27.865-36.702-89.184-49.217-94.888-3.893-1.775-8.542-6.244-10.327-9.936-4.395-9.073-5.084 12.735-0.763 24.102 3.587 9.443 14.278 90.771 13.912 105.857-0.675 27.769-7.274 60.354-15.706 77.54-8.021 16.345-8.985 21.635-9.098 49.87-0.143 36.669-5.354 48.779-33.437 77.76-25.57 26.383-27.526 30.731-22.514 50.052 11.507 44.362-5.817 66.876-42.557 55.312-11.856-3.734-16.736-3.86-27.036-0.697-50.757 15.582-79.794-12.68-60.431-58.828 5.919-14.11 3.568-27.62-6.134-35.25-7.754-6.101-27.29-33.495-37.349-52.386-4.064-7.63-6.439-20.759-7.759-42.877-1.686-28.303-2.821-32.977-10.115-41.645-17.698-21.035-17.913-129.435-0.358-182.259 7.271-21.892-0.278-44.613-8.352-25.124zM631.031 633.799c5.133 16.18-23.669 44.165-45.45 44.165-6.274 0-6.888-1.146-5.18-9.691 5.345-26.73 44.604-53.463 50.63-34.473zM446.508 639.791c30.695 32.445 29.763 51.363-1.496 30.312-15.249-10.268-25.556-26.066-21.398-32.795 3.293-5.326 16.904-3.852 22.895 2.483zM538.328 699.772c4.395 10.608-0.876 32.836-7.291 30.742-5.841-1.912-9.349-21.627-5.571-31.343 4.318-11.113 8.084-10.936 12.862 0.601zM539.869 822.921c0.846 27.168-2.945 77.498-6.073 80.629-5.624 5.621-8.219-9.107-8.52-48.343-0.185-24.044-1.436-46.701-2.783-50.352-1.681-4.546-0.832-8.258 2.692-11.782 9.131-9.134 13.763 0.278 14.686 29.849zM570.716 843.451c-2.582 28.538-7.668 36.677-13.441 21.5-5.177-13.62-3.924-49.402 2.028-57.902l5.186-7.407 4.345 8.291c3.337 6.371 3.772 14.594 1.882 35.514zM502.569 807.256c3.574 5.778 4.191 47.101 0.901 60.002-8.327 32.621-14.416-5.988-9.415-59.696 0.46-4.927 5.549-5.111 8.515-0.306z"></path>
</svg>
