<!-- Generated by IcoMoon.io -->
<svg version="1.1" xmlns="http://www.w3.org/2000/svg" width="1024" height="1024" viewBox="0 0 1024 1024">
<title></title>
<g id="icomoon-ignore">
</g>
<path fill="#000" d="M731.607 152.623c-10.658 2.507-11.823 3.762-33.189 35.796-14.62 21.906-22.145 32.608-24.168 34.367-5.661 4.926-16.873 26.491-14.62 28.137 8.628 6.305 99.159 7.727 109.056 1.709 5.097-3.096 16.754-22.093 22.068-35.944 14.506-37.824 6.522-52.040-34.628-61.658-17.717-4.142-17.293-4.1-24.515-2.406zM211.274 160.483c-23.103 5.069-31.516 23.188-25.263 54.446 0.674 3.374 1.78 8.989 2.45 12.469 2.639 13.719 8.3 26.945 17.481 40.888 7.592 11.542 29.173 42.149 35.327 50.111 3.178 4.123 8.696 12.147 12.255 17.858 15.301 24.529 18.568 29.661 28.923 45.498 6.011 9.183 13.539 20.332 16.738 24.759 8.943 12.395 35.751 48.311 36.544 48.952 1.043 0.85 9.574 13.945 11.267 17.279 0.801 1.585 4.332 6.77 7.843 11.517s9.935 14.344 14.272 21.309 10.475 16.297 13.636 20.736c3.168 4.438 8.743 12.99 12.398 19.005 7.907 13.017 15.772 24.661 22.701 33.586 2.779 3.582 7.51 11.358 10.513 17.279 16.196 31.978 31.453 28.907 43.816-8.814 3.806-11.6 6.723-18.322 11.782-27.146 5.601-9.769 4.428-18.708-3.942-30.052-6.375-8.641-14.26-21.328-20.681-33.255-7.166-13.314-10.246-18.225-29.947-47.826-10.108-15.171-19.576-30.181-21.036-33.352s-4.4-7.686-6.53-10.050c-2.13-2.364-5.757-8.060-8.069-12.673-2.315-4.613-10.534-17.968-18.276-29.691-7.744-11.721-16.558-25.2-19.583-29.944-3.033-4.753-6.44-9.673-7.582-10.942s-4.258-6.454-6.941-11.517c-7.125-13.491-28.747-45.979-41.010-61.622-0.743-0.952-5.413-6.718-10.37-12.818-4.959-6.101-14.517-18.017-21.243-26.493-35.311-44.508-44.423-52.354-57.468-49.493zM516.528 290.354c-5.384 0.226-36.742 0.938-69.688 1.591-69.19 1.36-70.849 1.472-70.822 4.968 0.041 6.104 5.454 16.955 14.655 29.383 3.582 4.843 8.9 12.689 11.827 17.445 7.136 11.602 17.369 25.321 24.594 32.955l5.925 6.261 40.316-1.205c71.929-2.152 126.52-4.475 167.024-7.095 12.676-0.82 31.336-1.506 41.473-1.51 16.713-0.023 22.076 0.498 42.62 4.15 30.214 5.372 103.951 5.798 129.591 0.757 11.891-2.336 40.036-23.496 46.952-35.295 5.677-9.687 4.323-21-4.692-39.197-5.581-11.269-4.483-10.945-40.482-11.938-32.597-0.9-322.294-1.973-339.289-1.258zM153.104 293.232c-30.88 10.25-44.695 52.557-22.8 69.802 8.538 6.732 31.067 15.012 47.562 17.492 4.753 0.713 11.517 1.8 15.042 2.41 10.98 1.915 42.587 1.445 44.921-0.669 5.114-4.626-9.439-30.88-28.373-51.181-3.852-4.125-8.718-10.097-10.824-13.269-16.44-24.765-27.314-30.641-45.528-24.583zM641.51 411.167c-52.051 4.835-57.431 8.193-74.647 46.61-1.557 3.487-4.197 9.312-5.851 12.953-1.651 3.641-4.359 9.605-6.015 13.245-1.645 3.644-4.499 9.863-6.33 13.82-1.83 3.96-4.888 10.565-6.786 14.687s-4.965 10.727-6.809 14.687c-5.484 11.782-9.315 21.829-9.315 24.442 0 1.348-0.44 2.948-0.977 3.541s-1.78 3.171-2.771 5.699c-3.113 8.005-8.673 19.779-25.844 54.719-18.881 38.41-17.8 36.040-21.089 46.071-5.666 17.282-17.053 39.356-25.8 50.039-2.276 2.779-4.158 5.746-4.168 6.597-0.023 1.588-2.034 5.339-12.871 23.992-3.492 6.015-9.288 16.513-12.865 23.315-9.723 18.471-10.994 20.659-14.585 25.211-3.465 4.393-4.573 6.258-12.591 21.163-2.726 5.069-6.739 11.55-8.936 14.395-10.16 13.224 10.196 46.073 28.546 46.073 18.455-0.003 54.654-22.69 59.716-37.438 1.83-5.339 4.83-9.896 18.815-28.632 10.21-13.674 28.835-40.955 33.138-48.547 1.258-2.224 3.402-5.977 4.753-8.358 10.97-19.204 28.182-52.196 32.317-61.928 1.073-2.529 3.041-7.155 4.37-10.287s4.174-10.901 6.33-17.279c4.114-12.187 9.030-25.749 13.179-36.356 1.368-3.49 7.592-16.702 13.843-29.375 13.719-27.822 18.166-37.644 23.645-52.315 1.049-2.799 4.112-8.763 6.809-13.248 2.697-4.483 6.109-11.269 7.592-15.071 1.472-3.806 5.149-11.575 8.163-17.279 3.011-5.699 6.34-12.953 7.403-16.124 2.714-8.113 5.024-12.868 9.792-20.162 2.276-3.487 5.331-8.707 6.776-11.602 1.448-2.901 4.703-8.002 7.231-11.352 7.367-9.742 8.495-15.071 4.56-21.534-2.284-3.757-2.025-3.672-19.11-5.54-1.902-0.203-10.708 0.293-19.577 1.117zM588.913 712.19c-7.466 8.371-24.289 37.432-30.676 53.007-9.684 23.604 3.44 43.944 53.323 82.642 33.836 26.245 42.948 28.824 56.746 16.053 20.838-19.294 13.586-49.133-23.929-98.558-5.19-6.83-18.744-25.389-26.51-36.288-11.044-15.499-18.13-22.46-22.847-22.46-0.608 0-3.357 2.521-6.105 5.609z"></path>
</svg>
