<!-- Generated by IcoMoon.io -->
<svg version="1.1" xmlns="http://www.w3.org/2000/svg" width="1024" height="1024" viewBox="0 0 1024 1024">
<title></title>
<g id="icomoon-ignore">
</g>
<path fill="#000" d="M333.685 259.073c9.365 0.542 20.348 0.809 31.412 0.809s22.006-0.317 32.937-0.901l-1.525 0.041c1.975-0.225 4.217-0.358 6.54-0.358 24.114 0 45.086 13.623 55.619 33.562l0.184 0.358c9.949 14.074 20.614 26.438 32.313 37.686l0.092 0.092c12.774 13.081 22.18 12.415 31.729-4.217 14.473-21.955 32.129-40.419 52.61-55.342l0.624-0.399c10.399-8.291 23.756-13.265 38.27-13.265 4.299 0 8.475 0.45 12.507 1.259l-0.399-0.092c5.066 0.133 11.023 0.225 17.032 0.225 20.256 0 40.286-0.85 60.143-2.559l-2.6 0.184c24.514 0 49.201 2.692 73.541 5.374 5.066 1.525 9.007 5.2 10.89 9.949l0.041 0.133c9.048 29.887 0 60.092 0 90.163 0 11.249-31.729 24.688-49.385 23.173-8.874-0.45-17.165-2.2-24.913-5.066l0.583 0.184c-6.858-2.999-14.882-4.79-23.306-4.79-7.308 0-14.299 1.3-20.747 3.716l0.399-0.133c-6.366 2.108-13.715 3.316-21.33 3.316-8.557 0-16.714-1.525-24.329-4.299l0.491 0.184c-3.808-1.433-8.25-2.242-12.815-2.242-11.249 0-21.371 4.933-28.28 12.815l-0.041 0.041c-16.806 12.59-16.806 21.822-2.016 38.27 21.822 25.68 44.145 43.828 82.773 30.204 16.806-6.233 41.995 7.707 60.45 2.2 22.18-6.54 40.47 4.35 60.634 3.541 3.183 0 10.266 8.915 9.59 10.082-9.232 15.281 0 29.222 0.983 43.828 0.225 1.341 0.358 2.866 0.358 4.483 0 13.173-9.099 24.196-21.33 27.246l-0.184 0.041c-11.965 4.033-25.772 6.366-40.112 6.366v0c-11.924-1.167-26.172-13.265-32.088 2.866-2.692 7.216 8.557 21.648 16.806 30.389 16.806 18.464 33.562 35.271 51.535 52.876s32.579 41.136 20.164 70.183c0 1.167 0 2.692 0 4.033-2.334 18.464-4.524 36.929-6.899 55.393l-61.801 4.217c-14.115 0-20.164-6.366-19.99-20.164 0-20.972 0-41.995 0-62.968 0-9.048-1.658-16.806-13.265-16.806s-16.806 6.049-16.806 17.789c0 19.498 0 39.119 0 58.618s-8.065 24.688-25.189 24.022-33.562 0-50.368 0c-14.115 0-20.297-6.366-19.99-20.297s0-30.747 0-46.028c0.041-1.259 0.041-2.774 0.041-4.258 0-7.308-0.45-14.524-1.3-21.597l0.092 0.85c0-2.999-5.875-7.891-7.891-7.39s-11.249 4.882-11.423 7.891c-1.167 22.313-1.842 44.677-1.167 67.174 0 18.464-7.707 24.196-25.005 24.196-75.066 0-71.524 3.183-70.675-65.967 0-9.724 0-19.498 0-29.222s-6.725-7.574-12.59-8.741c-8.383-1.658-9.232 1.842-9.048 8.25 0 15.465 0 30.88 0 46.161 0 0.542 0 1.208 0 1.883 0 9.549-1.208 18.782-3.541 27.605l0.184-0.758c-4.033 12.098-10.757 23.347-27.021 20.655-1.208-0.133-2.641-0.184-4.125-0.184s-2.866 0.092-4.299 0.225h0.184c-64.984 0-56.243 6.049-56.918-54.902 0-9.724 0-19.631 0-29.396s-2.999-15.957-14.248-15.957-15.599 4.217-15.599 14.606c0 20.972 0 41.995 0 62.783 0 15.599-5.875 22.671-22.006 22.989-81.432 0.85-73.357 2.016-73.899-67.174-0.184-1.791-0.266-3.9-0.266-6.049 0-16.898 6.008-32.354 15.957-44.452l-0.092 0.133c17.615-20.655 29.222-46.335 54.401-60.951 6.233-5.241 11.249-11.74 14.657-19.14l0.133-0.358c3.674-6.233 6.366-12.907 9.59-19.498-6.766-2.2-14.79-3.941-23.040-4.974l-0.624-0.041c-13.081 0-26.53 2.866-39.437 1.658-16.806-1.341-27.697-8.25-25.496-28.372 0.983-8.915-4.524-18.28-4.524-27.513 0-30.88 3.541-35.271 33.562-37.287 16.806-0.983 35.087 0 52.702 0 3.224 0.317 6.95 0.491 10.706 0.491 12.231 0 24.022-1.842 35.138-5.241l-0.85 0.225c11.607-5.374 15.599-6.54 26.847 1.341 3.992 2.917 8.966 4.708 14.34 4.708 9.191 0 17.206-5.107 21.33-12.641l0.041-0.133c7.39-10.931 21.515-16.806 31.238-26.53 4.841-3.275 7.973-8.741 7.973-14.923 0-7.349-4.391-13.623-10.706-16.448l-0.133-0.041c-17.881-12.282-39.928-19.58-63.766-19.58-8.874 0-17.523 1.034-25.854 2.958l0.758-0.133c-10.931 3.449-23.48 5.425-36.52 5.425s-25.588-1.975-37.42-5.65l0.901 0.225c-5.65-1.3-12.149-2.057-18.782-2.057-2.149 0-4.258 0.092-6.315 0.225h0.266c-32.579-2.016-36.254-5.374-37.287-36.254q0-18.823 0-37.779c0-33.562 12.948-43.828 46.028-41.32 24.831 1.842 50.368 2.866 74.882 4.217zM471.397 561.293v-2.016l93.704 1.167c4.483-0.399 8.608-1.116 12.641-2.149l-0.542 0.133c-2.2-3.992-4.299-7.349-6.591-10.573l0.225 0.317c-14.923-17.973-30.204-35.578-45.169-53.377s-20.972-17.789-37.287 0c-10.082 11.249-21.33 21.515-31.729 33.562s-16.806 20.481-26.346 30.88z"></path>
</svg>
