<!-- Generated by IcoMoon.io -->
<svg version="1.1" xmlns="http://www.w3.org/2000/svg" width="1024" height="1024" viewBox="0 0 1024 1024">
<title></title>
<g id="icomoon-ignore">
</g>
<path fill="#000" d="M409.352 113.858c-5.659 6.098-16.974 18.238-25.142 26.971-8.173 8.733-17.207 18.715-20.076 22.189-2.873 3.469-8.746 9.263-13.057 12.874-12.060 10.111-21.828 24.418-37.246 54.561-7.772 15.199-15.658 29.389-17.516 31.547-1.867 2.153-7.201 11.551-11.857 20.883-4.658 9.336-11.834 21.869-15.941 27.855-8.015 11.69-11.445 25.124-14.005 54.89-0.887 10.332-4.030 26.779-6.98 36.552-4.55 15.071-5.565 27.277-6.696 80.689l-1.335 62.93 6.644 15.384c3.659 8.463 8.033 23.277 9.734 32.922 1.698 9.642 4.74 18.901 6.754 20.578 2.014 1.673 5.997 7.878 8.852 13.791s8.769 15.445 13.137 21.193c12.991 17.064 31.761 46.363 35.639 55.637 1.989 4.761 7.096 13.452 11.343 19.319s7.768 11.958 7.819 13.537c0.873 26.673 85.165 51.492 108.697 32.001 28.34-23.481 95.891-24.221 162.476-1.792 18.487 6.226 43.36 6.779 67.938 1.513 22.818-4.891 68.47 2.331 94.077 14.882 37.381 18.323 83.508 11.198 115.963-17.912 35.354-31.711 39.285-38.668 40.101-70.945 0.567-22.585 1.691-28.808 7.069-39.159 8.289-15.944 10.824-32.143 6.619-42.294-4.324-10.442-4.462-10.39-25.145 8.696-28.088 25.931-41.502 29.023-48.918 11.286-6.173-14.769-10.888-16.592-19.966-7.714-15.486 15.141-46.948 5.885-46.948-13.809 0-32.648 47.917-75.441 78.921-70.484 15.107 2.415 24.13-3.469 29.332-19.118 4.971-14.97 7.442-17.438 19.058-19.058 10.46-1.458 12.787 1.106 18.825 20.69 3.643 11.839 6.128 15.617 11.53 17.559 14.362 5.168 20.039-13.26 17.251-55.998-0.887-13.635-0.578-34.769 0.695-46.959 3.273-31.412 1.232-40.814-13.031-60.014-11.092-14.922-12.154-17.658-12.559-32.321-0.745-27.131-14.842-46.018-34.373-46.052-6.644-0.011-64.617 12.572-81.22 17.628-39.563 12.049-96.216-2.724-129.947-33.884-10.584-9.775-28.794-11.82-80.663-9.055-77.983 4.157-100.558-4.445-144.903-55.212-7.896-9.041-15.395-18.407-16.668-20.809-1.273-2.407-4.644-6.95-7.489-10.097-6.281-6.943-14.711-34.776-18.014-59.463-3.949-29.539-12.216-34.253-28.774-16.396zM140.57 276.915c-5.35 0.807-8.797 4.615-15.418 17.027-10.678 20.039-32.433 42.821-42.953 44.985-16.85 3.467-20.153 6.95-28.52 30.099l-8.027 22.189v255.829l7.085 15.118c3.895 8.314 8.387 22.411 9.979 31.325s5.579 20.905 8.859 26.651c3.28 5.743 6.729 13.605 7.656 17.479 0.928 3.87 11.962 19.291 24.516 34.268 12.559 14.977 30.463 36.831 39.795 48.568 9.336 11.733 20.011 25.090 23.728 29.688 3.714 4.594 12.522 16.704 19.577 26.909 28.906 41.829 35.279 45.272 60.272 32.573 21.614-10.984 45.374-9.197 69.858 5.248l9.711 5.728 5.485-5.485c5.218-5.222 5.334-6.477 2.39-25.833-6.281-41.271-5.691-42.996 22.608-66.519 10.78-8.957 9.377-17.822-4.889-30.834-5.51-5.022-11.839-13.653-14.064-19.182s-6.909-12.296-10.406-15.047c-3.492-2.75-7.099-8.409-8.015-12.572-0.917-4.171-4.822-11.009-8.685-15.199-7.106-7.707-13.507-17.607-22.29-34.464-2.655-5.099-6.918-11.617-9.478-14.49s-7.099-10.507-10.097-16.965c-2.997-6.459-7.681-14.682-10.413-18.276-17.377-22.839-34.053-52.081-35.733-62.654-1.026-6.459-3.968-17.621-6.532-24.8-6.729-18.816-8.022-29.59-5.332-44.381 5.775-31.783 7.951-49.441 10.525-85.624 1.807-25.407 4.498-43.607 7.853-53.151 15.265-43.421 9.921-55.708-24.21-55.708-24.687 0-30.106-3.565-45.385-29.827-7.983-13.736-8.838-14.293-19.454-12.689zM690.931 334.964c18.864 11.503 15.413 28.401-5.136 25.117-17.384-2.779-36.675-22.146-27.711-27.823 6.365-4.027 24.208-2.557 32.842 2.706zM129.179 406.714c8.362 3.492 9.873 5.928 12.296 19.753 2.459 14.039-15.472 29.473-27.037 23.284-15.445-8.267-16.956-28.18-3.099-40.905 7.568-6.95 6.582-6.834 17.838-2.132zM144.763 586.804c22.229 9.288 21.284 41.41-1.375 46.775-30.2 7.142-44.014-29.099-17.298-45.394 9.921-6.047 7.86-5.894 18.672-1.382zM236.704 731.521c5.245 6.888 4.27 30.084-1.568 37.283-10.881 13.432-40.080 7.219-42.727-9.089-4.754-29.284 27.728-49.96 44.29-28.193z"></path>
</svg>
