<!-- Generated by IcoMoon.io -->
<svg version="1.1" xmlns="http://www.w3.org/2000/svg" width="1024" height="1024" viewBox="0 0 1024 1024">
<title></title>
<g id="icomoon-ignore">
</g>
<path fill="#000" d="M430.823 197.142c-4.476 4.821-13.422 14.423-19.882 21.329-6.463 6.906-13.608 14.799-15.876 17.546-2.271 2.744-6.916 7.324-10.327 10.181-9.537 7.996-17.261 19.31-29.454 43.147-6.146 12.021-12.384 23.24-13.852 24.949-1.478 1.702-5.695 9.134-9.376 16.515-3.683 7.384-9.36 17.294-12.606 22.027-6.339 9.245-9.051 19.869-11.075 43.409-0.7 8.17-3.187 21.176-5.521 28.907-3.598 11.918-4.401 21.571-5.295 63.811l-1.055 49.766 5.254 12.165c2.895 6.694 6.352 18.409 7.699 26.037 1.342 7.626 3.749 14.947 5.34 16.274 1.591 1.324 4.741 6.229 6.999 10.906s6.936 12.213 10.388 16.76c10.272 13.494 25.118 36.666 28.185 43.998 1.573 3.764 5.612 10.637 8.97 15.277s6.143 9.456 6.183 10.705c0.69 21.093 67.349 40.72 85.959 25.309 22.412-18.57 75.831-19.154 128.489-1.417 14.62 4.924 34.29 5.362 53.726 1.198 18.046-3.869 54.149 1.845 74.398 11.768 29.562 14.491 66.040 8.855 91.704-14.166 27.958-25.078 31.067-30.579 31.712-56.105 0.448-17.86 1.337-22.782 5.589-30.969 6.554-12.608 8.56-25.418 5.236-33.447-3.421-8.256-3.527-8.215-19.884 6.876-22.213 20.508-32.822 22.951-38.686 8.925-4.882-11.679-8.61-13.122-15.79-6.1-12.246 11.972-37.127 4.653-37.127-10.919 0-25.818 37.893-59.66 62.412-55.74 11.948 1.909 19.081-2.744 23.195-15.118 3.93-11.838 5.886-13.789 15.071-15.071 8.273-1.155 10.111 0.876 14.889 16.362 2.88 9.363 4.846 12.351 9.119 13.887 11.357 4.086 15.846-10.488 13.643-44.283-0.7-10.783-0.456-27.497 0.551-37.135 2.588-24.841 0.974-32.276-10.305-47.46-8.771-11.8-9.612-13.965-9.932-25.561-0.591-21.455-11.739-36.392-27.183-36.42-5.254-0.008-51.1 9.942-64.23 13.94-31.289 9.529-76.090-2.153-102.764-26.795-8.369-7.729-22.772-9.346-63.789-7.16-61.671 3.286-79.524-3.515-114.592-43.663-6.246-7.15-12.173-14.555-13.18-16.455-1.007-1.903-3.673-5.496-5.924-7.986-4.967-5.491-11.634-27.502-14.247-47.024-3.122-23.359-9.66-27.089-22.754-12.966zM218.266 326.089c-4.232 0.639-6.956 3.648-12.193 13.464-8.444 15.846-25.649 33.862-33.968 35.576-13.326 2.742-15.939 5.496-22.553 23.802l-6.347 17.546v202.315l5.604 11.956c3.079 6.576 6.632 17.724 7.89 24.771s4.411 16.531 7.004 21.077c2.593 4.54 5.322 10.758 6.055 13.822 0.733 3.061 9.459 15.257 19.388 27.1 9.932 11.843 24.089 29.126 31.47 38.409 7.384 9.28 15.826 19.841 18.766 23.477 2.938 3.633 9.902 13.21 15.481 21.281 22.86 33.079 27.9 35.801 47.664 25.76 17.092-8.686 35.881-7.273 55.246 4.151l7.679 4.529 4.336-4.336c4.126-4.129 4.217-5.123 1.891-20.43-4.967-32.638-4.499-34.003 17.88-52.603 8.525-7.082 7.417-14.094-3.867-24.385-4.358-3.97-9.363-10.796-11.121-15.171s-5.463-9.725-8.23-11.901c-2.76-2.175-5.614-6.651-6.339-9.942-0.725-3.3-3.812-8.708-6.868-12.021-5.619-6.095-10.68-13.925-17.626-27.256-2.1-4.033-5.469-9.185-7.497-11.46s-5.614-8.31-7.986-13.416c-2.371-5.106-6.073-11.609-8.235-14.454-13.741-18.061-26.931-41.188-28.26-49.549-0.811-5.106-3.139-13.935-5.166-19.614-5.322-14.879-6.344-23.399-4.215-35.098 4.567-25.134 6.289-39.099 8.323-67.712 1.428-20.091 3.557-34.486 6.211-42.034 12.072-34.338 7.845-44.056-19.146-44.056-19.522 0-23.807-2.82-35.893-23.588-6.312-10.863-6.989-11.304-15.385-10.033zM653.501 371.997c14.917 9.096 12.19 22.46-4.063 19.864-13.746-2.196-29.003-17.515-21.916-22.004 5.035-3.185 19.144-2.022 25.972 2.14zM209.258 428.739c6.614 2.76 7.807 4.688 9.725 15.622 1.944 11.103-12.236 23.308-21.38 18.414-12.213-6.538-13.409-22.286-2.452-32.349 5.984-5.496 5.206-5.405 14.106-1.687zM221.582 571.158c17.578 7.346 16.833 32.749-1.088 36.991-23.882 5.649-34.808-23.013-13.681-35.899 7.845-4.781 6.216-4.66 14.768-1.093zM294.29 685.602c4.149 5.448 3.378 23.791-1.241 29.484-8.605 10.622-31.697 5.708-33.791-7.188-3.759-23.157 21.928-39.509 35.025-22.296z"></path>
</svg>
