<!-- Generated by IcoMoon.io -->
<svg version="1.1" xmlns="http://www.w3.org/2000/svg" width="1024" height="1024" viewBox="0 0 1024 1024">
<title></title>
<g id="icomoon-ignore">
</g>
<path fill="#000" d="M568.87 2.207c-8.953 1.167-18.424 3.248-21.041 4.626-2.616 1.376-12.453 3.31-21.855 4.289-66.407 6.943-126.51 30.272-195.136 75.749-16.92 11.208-31.483 20.382-32.366 20.382-0.879 0-8.343 4.565-16.583 10.148-8.236 5.583-19.923 12.667-25.967 15.74-6.042 3.073-16.341 11.817-22.886 19.438-15.596 18.158-51.601 65.619-51.601 68.022 0 1.033-4.142 6.836-9.204 12.894-5.065 6.060-9.207 12.449-9.207 14.198 0 1.747-3.312 7.847-7.362 13.558-9.41 13.261-36.284 70.628-38.745 82.708-1.029 5.061-3.962 13.347-6.514 18.409-12.712 25.229-14.946 259.7-2.893 303.773 3.165 11.573 6.864 29.626 8.215 40.117 2.682 20.765 8.475 34.841 14.343 34.841 2.050 0 5.38 2.359 7.402 5.242 4.399 6.281 7.145 4.302 7.145-5.157 0-27.457 19.5-13.623 38.803 27.528 2.712 5.787 11.959 23.905 20.545 40.261s17.737 34.109 20.339 39.449c2.604 5.344 6.395 12.673 8.427 16.288 2.034 3.615 7.179 13.083 11.438 21.041 4.259 7.954 15.259 25.59 24.451 39.192 9.189 13.598 18.886 28.097 21.552 32.218 2.662 4.121 5.717 7.492 6.786 7.492 1.067 0 5.651 5.166 10.184 11.478 15.991 22.27 35.738 22.882 24.696 0.766-17.312-34.663 0.147-41.962 26.647-11.141 12.102 14.076 37.295 36.505 58.734 52.291 14.581 10.736 32.641 5.892 22.848-6.131-12.348-15.163-28.254-32.88-30.218-33.664-10.044-4.008-47.244-70.277-42.253-75.268 2.899-2.902 13.516-1.358 15.565 2.261 5.898 10.409 27.227 25.747 31.211 22.444 4.746-3.94 2.834-16.999-3.551-24.234-4.361-4.943-15.213-24.445-24.491-44.005-23.44-49.419-26.789-58.125-31.752-82.554-2.975-14.625-7.139-29.959-9.253-34.075-5.42-10.54-7.914-61.966-3.521-72.574 9.33-22.523 26.758-4.684 59.585 60.989 3.434 6.87 7.44 12.491 8.901 12.491s5.255 5.344 8.427 11.873c6.694 13.775 10.926 14.006 12.064 0.652 0.57-6.716-0.686-10.81-4.375-14.26-3.183-2.975-6.365-11.428-8.251-21.935-1.691-9.404-5.24-20.649-7.887-24.987s-5.617-13.807-6.597-21.041c-0.981-7.231-4.847-26.761-8.595-43.395-15.185-67.412-7.654-127.571 19.754-157.775 3.27-3.603 5.944-7.414 5.944-8.475 0-4.142 29.804-10.559 41.557-8.947 28.952 3.968 39.128 36.82 24.46 78.963-12.658 36.366-4.222 67.886 23.269 86.936l10.429 7.228 7.041-5.54c5.46-4.293 10.748-5.54 23.52-5.54h16.479l12.918 14.138c21.861 23.917 33.349 51.104 31.189 73.803-0.975 10.218-2.423 25.769-3.226 34.556-1.982 21.739 2.519 47.989 12.447 72.62 12.501 31.008 15.125 27.855 18.32-22.003 3.083-48.069 5.693-51.325 25.959-32.372 13.963 13.062 14.934 12.86 22.184-4.636 4.305-10.397 6.772-11.566 15.045-7.139 3.956 2.114 5.089 5.558 5.089 15.458 0 18.976 3.891 20.914 29.301 14.6 10.144-2.519 13.717 10.050 11.422 40.185-1.677 22.027 0.796 37.494 5.994 37.494 4.302 0 23.606-33.251 26.721-46.025 1.761-7.234 5.57-18.477 8.457-24.984 6.443-14.523 8.714-40.47 5.484-62.736-4.572-31.526 9.557-73.055 32.356-95.123l9.456-9.153 25.484 0.6c32.38 0.763 38.065-1.462 44.057-17.241 2.568-6.76 6.94-15.384 9.717-19.169 6.953-9.468 6.885-27.867-0.153-41.365-5.344-10.255-5.398-11.273-1.443-25.925 2.267-8.389 5.378-19.99 6.919-25.775 1.617-6.092 2.883-40.412 3.003-81.53l0.205-71.011-12.511-24.987c-6.885-13.743-17.75-33.269-24.15-43.395s-15.562-24.876-20.363-32.779c-16.304-26.844-26.675-37.859-41.806-44.388-7.844-3.386-17.811-7.988-22.153-10.228-40.5-20.912-116.763-31.14-164.998-22.132-28.063 5.24-85.358 35.941-100.669 53.942-7.216 8.487-17.097 19.138-21.957 23.672-22.619 21.099-43.102 55.443-46.779 78.433-5.583 34.918-28.483 31.351-41.333-6.435-30.15-88.673 27.941-219.665 101.039-227.843 23.385-2.616 23.7-2.81 37.688-22.766 17.609-25.122 82.018-28.023 106.966-4.816 4.164 3.873 9.912 6.251 15.125 6.251 8.674 0 11.416-4.268 4.458-6.94-2.169-0.833-3.946-3.141-3.946-5.132 0-7.492-22.166-26.832-36.82-32.126-7.957-2.874-19.199-7.071-24.984-9.33-11.288-4.403-32.182-4.957-58.363-1.547zM624.182 465.027c25.741 11.386 28.483 18.314 16.445 41.545-20.63 39.808-94.323 2.616-78.182-39.459 4.308-11.229 38.456-12.385 61.737-2.086zM832.024 475.653c11.263 8.861 8.257 27.423-6.63 40.896-26.703 24.172-84.886-2.138-64.329-29.090 7.17-9.404 9.045-10.286 30.549-14.411 21.056-4.042 32.938-3.276 40.412 2.604zM709.068 547.881c4.67 7.127 7.939 36.308 5.261 46.978-1.655 6.585-2.117 6.716-18.096 5.147-21.666-2.126-22.172-2.883-15.492-23.225 3.116-9.498 5.669-20.407 5.669-24.24 0-16.549 13.101-19.242 22.659-4.66z"></path>
</svg>
