<!-- Generated by IcoMoon.io -->
<svg version="1.1" xmlns="http://www.w3.org/2000/svg" width="100" height="100" viewBox="0 0 32 32">
<title>image2vector-2</title>
<path fill="#000" d="M16.095 2.841c0 0.047-0.047 0.072-0.138 0.072-0.146 0-0.196 0.068-0.196 0.267 0 0.084-0.026 0.115-0.096 0.115-0.053 0-0.095 0.032-0.095 0.072s-0.032 0.072-0.072 0.072c-0.040 0-0.072 0.042-0.072 0.095 0 0.064-0.032 0.095-0.095 0.095-0.077 0-0.096 0.032-0.096 0.167s0.018 0.167 0.096 0.167c0.083 0 0.095 0.032 0.095 0.239 0 0.18 0.018 0.239 0.072 0.239 0.040 0 0.072 0.042 0.072 0.096 0 0.064 0.032 0.096 0.095 0.096 0.083 0 0.096 0.032 0.096 0.239 0 0.18 0.017 0.239 0.072 0.239 0.060 0 0.072 0.109 0.072 0.692s-0.011 0.692-0.072 0.692c-0.039 0-0.072 0.032-0.072 0.072s-0.042 0.072-0.096 0.072c-0.064 0-0.095 0.032-0.095 0.096 0 0.077-0.032 0.096-0.167 0.096s-0.167-0.018-0.167-0.096c0-0.089-0.032-0.096-0.501-0.096-0.414 0-0.502-0.013-0.502-0.072 0-0.054-0.058-0.072-0.239-0.072-0.207 0-0.239-0.013-0.239-0.096 0-0.084-0.032-0.096-0.263-0.096s-0.263-0.012-0.263-0.096c0-0.064-0.032-0.096-0.095-0.096-0.053 0-0.095-0.032-0.095-0.072 0-0.050-0.050-0.072-0.167-0.072-0.135 0-0.167-0.018-0.167-0.096s-0.032-0.096-0.167-0.096c-0.117 0-0.167-0.022-0.167-0.072 0-0.039-0.032-0.072-0.072-0.072s-0.072-0.042-0.072-0.096c0-0.053-0.027-0.096-0.060-0.096-0.040-0-0.036-0.016 0.012-0.047 0.039-0.025 0.049-0.047 0.021-0.047s-0.079 0.026-0.114 0.059c-0.053 0.049-0.059 0.044-0.035-0.024 0.022-0.061 0.004-0.084-0.065-0.084-0.062 0-0.094-0.032-0.094-0.096 0-0.077-0.032-0.096-0.167-0.096-0.159 0-0.167-0.008-0.167-0.167 0-0.135-0.018-0.167-0.095-0.167-0.053 0-0.095-0.032-0.095-0.072 0-0.050-0.050-0.072-0.167-0.072s-0.167 0.022-0.167 0.072c0 0.050-0.050 0.072-0.167 0.072-0.135 0-0.167 0.018-0.167 0.096 0 0.064 0.032 0.096 0.096 0.096 0.053 0 0.095 0.032 0.095 0.072s0.032 0.072 0.072 0.072c0.040 0 0.072 0.042 0.072 0.096 0 0.064 0.032 0.096 0.095 0.096 0.077 0 0.096 0.032 0.096 0.167 0 0.117 0.022 0.167 0.072 0.167 0.039 0 0.072 0.032 0.072 0.072s0.042 0.072 0.095 0.072c0.077 0 0.095 0.032 0.095 0.167 0 0.117 0.022 0.167 0.072 0.167 0.040 0 0.072 0.042 0.072 0.096 0 0.064 0.032 0.096 0.096 0.096s0.095 0.032 0.095 0.096c0 0.053 0.032 0.096 0.072 0.096s0.072 0.032 0.072 0.072c0 0.040 0.042 0.072 0.095 0.072 0.064 0 0.096 0.032 0.096 0.096 0 0.053 0.032 0.096 0.072 0.096s0.072 0.032 0.072 0.072c0 0.050 0.050 0.072 0.167 0.072 0.135 0 0.167 0.018 0.167 0.096 0 0.064 0.032 0.096 0.095 0.096 0.053 0 0.096 0.032 0.096 0.072s0.032 0.072 0.072 0.072c0.040 0 0.072 0.042 0.072 0.096 0 0.070 0.032 0.096 0.118 0.096s0.11 0.020 0.090 0.072c-0.021 0.056 0.011 0.072 0.145 0.072 0.14 0 0.172 0.018 0.172 0.096 0 0.064 0.032 0.096 0.096 0.096 0.053 0 0.095 0.032 0.095 0.072 0 0.050 0.050 0.072 0.167 0.072 0.135 0 0.167 0.018 0.167 0.096 0 0.086 0.032 0.095 0.334 0.095 0.265 0 0.334 0.015 0.334 0.072 0 0.058 0.077 0.072 0.406 0.072 0.374 0 0.406 0.008 0.406 0.095 0 0.064 0.032 0.096 0.095 0.096 0.083 0 0.096 0.032 0.096 0.239 0 0.18 0.017 0.239 0.072 0.239 0.058 0 0.072 0.080 0.072 0.43s-0.013 0.43-0.072 0.43c-0.050 0-0.072 0.050-0.072 0.167 0 0.135-0.018 0.167-0.096 0.167-0.086 0-0.095 0.032-0.095 0.334 0 0.265-0.015 0.334-0.072 0.334-0.055 0-0.072 0.061-0.072 0.263 0 0.231-0.012 0.263-0.095 0.263-0.053 0-0.096 0.032-0.096 0.072s-0.032 0.072-0.072 0.072c-0.040 0-0.072 0.042-0.072 0.096 0 0.088-0.032 0.095-0.43 0.095s-0.43-0.007-0.43-0.095c0-0.077-0.032-0.096-0.167-0.096-0.117 0-0.167-0.022-0.167-0.072s-0.050-0.072-0.167-0.072c-0.135 0-0.167-0.018-0.167-0.096 0-0.084-0.032-0.095-0.263-0.095-0.202 0-0.263-0.017-0.263-0.072s-0.058-0.072-0.239-0.072c-0.207 0-0.239-0.013-0.239-0.095 0-0.077-0.032-0.096-0.167-0.096-0.117 0-0.167-0.022-0.167-0.072 0-0.047-0.047-0.072-0.14-0.072-0.159 0-0.239-0.085-0.14-0.148 0.045-0.029 0.018-0.042-0.089-0.042-0.106-0.001-0.155-0.024-0.155-0.072 0-0.050-0.050-0.072-0.167-0.072-0.135 0-0.167-0.018-0.167-0.096 0-0.053-0.032-0.095-0.072-0.095s-0.072-0.032-0.072-0.072c0-0.050-0.050-0.072-0.167-0.072-0.135 0-0.167-0.018-0.167-0.095 0-0.084-0.032-0.096-0.263-0.096-0.202 0-0.263-0.017-0.263-0.072 0-0.040-0.042-0.072-0.096-0.072-0.064 0-0.095-0.032-0.095-0.096 0-0.077-0.032-0.095-0.167-0.095-0.117 0-0.167-0.022-0.167-0.072s-0.050-0.072-0.167-0.072c-0.135 0-0.167-0.018-0.167-0.095s-0.032-0.096-0.167-0.096-0.167-0.018-0.167-0.095c0-0.053-0.032-0.096-0.072-0.096s-0.072-0.032-0.072-0.072c0-0.050-0.050-0.072-0.167-0.072-0.092 0-0.167-0.023-0.167-0.050s-0.020-0.039-0.044-0.024c-0.024 0.015-0.072-0.038-0.107-0.117-0.052-0.117-0.092-0.144-0.219-0.144h-0.155v0.334c0 0.303 0.009 0.334 0.096 0.334 0.064 0 0.095 0.032 0.095 0.096 0 0.077 0.032 0.095 0.167 0.095 0.159 0 0.167 0.008 0.167 0.167 0 0.117 0.022 0.167 0.072 0.167 0.039 0 0.072 0.032 0.072 0.072s0.042 0.072 0.096 0.072c0.064 0 0.095 0.032 0.095 0.096 0 0.077 0.032 0.095 0.167 0.095 0.117 0 0.167 0.022 0.167 0.072 0 0.039 0.032 0.072 0.072 0.072s0.072 0.042 0.072 0.095c0 0.064 0.032 0.096 0.095 0.096 0.053 0 0.095 0.032 0.095 0.072s0.032 0.072 0.072 0.072c0.040 0 0.072 0.043 0.072 0.096 0 0.064 0.032 0.095 0.096 0.095 0.053 0 0.095 0.032 0.095 0.072 0 0.050 0.050 0.072 0.167 0.072 0.135 0 0.167 0.018 0.167 0.096 0 0.064 0.032 0.095 0.095 0.095 0.053 0 0.096 0.032 0.096 0.072 0 0.050 0.050 0.072 0.167 0.072 0.135 0 0.167 0.018 0.167 0.095s0.032 0.096 0.167 0.096c0.117 0 0.167 0.022 0.167 0.072 0 0.039 0.032 0.072 0.072 0.072s0.072 0.042 0.072 0.096c0 0.077 0.032 0.095 0.167 0.095 0.117 0 0.167 0.022 0.167 0.072s0.050 0.072 0.167 0.072c0.135 0 0.167 0.018 0.167 0.095 0 0.064 0.032 0.096 0.095 0.096 0.053 0 0.096 0.032 0.096 0.072s0.032 0.072 0.072 0.072c0.040 0 0.072 0.042 0.072 0.095 0 0.084 0.032 0.095 0.263 0.095s0.263 0.012 0.263 0.096c0 0.053 0.032 0.095 0.072 0.095s0.072 0.032 0.072 0.072c0 0.050 0.050 0.072 0.167 0.072 0.135 0 0.167 0.018 0.167 0.096 0 0.087 0.032 0.095 0.358 0.095 0.287 0 0.358 0.014 0.358 0.072 0 0.050 0.050 0.072 0.167 0.072 0.135 0 0.167 0.018 0.167 0.095 0 0.053 0.032 0.096 0.072 0.096 0.059 0 0.072 0.088 0.072 0.501s-0.012 0.501-0.072 0.501c-0.054 0-0.072 0.058-0.072 0.239 0 0.207-0.013 0.239-0.095 0.239-0.064 0-0.096 0.032-0.096 0.095 0 0.053-0.032 0.096-0.072 0.096-0.050 0-0.072 0.050-0.072 0.167 0 0.135-0.018 0.167-0.096 0.167-0.064 0-0.095 0.032-0.095 0.096 0 0.091-0.032 0.095-0.669 0.095s-0.669-0.005-0.669-0.095-0.032-0.096-0.669-0.096-0.669-0.005-0.669-0.095c0-0.088-0.032-0.096-0.43-0.096-0.35 0-0.43-0.013-0.43-0.072 0-0.060-0.098-0.072-0.597-0.072-0.565 0-0.597-0.005-0.597-0.096 0-0.088-0.032-0.095-0.406-0.095-0.329 0-0.406-0.014-0.406-0.072 0-0.055-0.061-0.072-0.263-0.072-0.231 0-0.263-0.012-0.263-0.095 0-0.077-0.032-0.096-0.167-0.096-0.117 0-0.167-0.022-0.167-0.072 0-0.058-0.080-0.072-0.43-0.072-0.398 0-0.43-0.007-0.43-0.095 0-0.077-0.032-0.096-0.167-0.096-0.117 0-0.167-0.022-0.167-0.072 0-0.039-0.032-0.072-0.072-0.072s-0.072-0.042-0.072-0.096c0-0.064-0.032-0.095-0.096-0.095-0.053 0-0.096-0.032-0.096-0.072 0-0.054-0.058-0.072-0.239-0.072-0.207 0-0.239-0.013-0.239-0.095 0-0.064-0.032-0.096-0.096-0.096s-0.096 0.032-0.096 0.096c0 0.053-0.032 0.095-0.072 0.095-0.050 0-0.072 0.050-0.072 0.167s0.022 0.167 0.072 0.167c0.039 0 0.072 0.032 0.072 0.072 0 0.050 0.050 0.072 0.167 0.072 0.135 0 0.167 0.018 0.167 0.096 0 0.064 0.032 0.095 0.096 0.095 0.053 0 0.096 0.032 0.096 0.072 0 0.050 0.050 0.072 0.167 0.072 0.135 0 0.167 0.018 0.167 0.096s0.032 0.095 0.167 0.095c0.117 0 0.167 0.022 0.167 0.072s0.050 0.072 0.167 0.072c0.135 0 0.167 0.018 0.167 0.095 0 0.053 0.032 0.096 0.072 0.096s0.072 0.032 0.072 0.072c0 0.040 0.042 0.072 0.096 0.072 0.064 0 0.096 0.032 0.096 0.096 0 0.077 0.032 0.095 0.167 0.095s0.167 0.018 0.167 0.096c0 0.077 0.032 0.095 0.167 0.095 0.117 0 0.167 0.022 0.167 0.072 0 0.040 0.042 0.072 0.096 0.072 0.064 0 0.095 0.032 0.095 0.095 0 0.077 0.032 0.096 0.167 0.096 0.117 0 0.167 0.022 0.167 0.072 0 0.058 0.077 0.072 0.406 0.072 0.374 0 0.406 0.008 0.406 0.096 0 0.077 0.032 0.096 0.167 0.096 0.117 0 0.167 0.022 0.167 0.072 0 0.055 0.061 0.072 0.263 0.072 0.231 0 0.263 0.012 0.263 0.096s0.032 0.096 0.263 0.096c0.202 0 0.263 0.017 0.263 0.072 0 0.058 0.077 0.072 0.406 0.072 0.374 0 0.406 0.007 0.406 0.096 0 0.086 0.032 0.096 0.334 0.096 0.265 0 0.334 0.015 0.334 0.072s0.077 0.072 0.394 0.075c0.217 0.002 0.368 0.014 0.337 0.027s-0.044 0.057-0.029 0.097c0.023 0.060 0.041 0.053 0.096-0.039 0.067-0.112 0.067-0.112 0.045-0.006-0.021 0.102-0.008 0.107 0.278 0.107 0.36 0 0.607 0.044 0.571 0.101-0.014 0.023 0.018 0.042 0.072 0.042 0.087 0 0.098 0.029 0.098 0.263 0 0.231 0.012 0.263 0.095 0.263s0.096 0.032 0.096 0.263c0 0.231-0.012 0.263-0.096 0.263-0.077 0-0.095 0.032-0.095 0.167s0.018 0.167 0.095 0.167c0.083 0 0.096 0.032 0.096 0.239 0 0.18 0.017 0.239 0.072 0.239 0.040 0 0.072 0.042 0.072 0.096s-0.032 0.096-0.072 0.096c-0.054 0-0.072 0.058-0.072 0.239v0.239h-0.167c-0.135 0-0.167 0.018-0.167 0.096 0 0.084-0.032 0.096-0.263 0.096-0.202 0-0.263 0.017-0.263 0.072 0 0.058-0.080 0.072-0.43 0.072-0.398 0-0.43 0.007-0.43 0.096 0 0.090-0.033 0.096-0.561 0.099-0.309 0.002-0.534 0.015-0.502 0.028 0.175 0.070-0.008 0.103-0.609 0.109-0.572 0.005-0.669-0.004-0.669-0.067 0-0.061-0.075-0.073-0.43-0.073-0.398 0-0.43-0.007-0.43-0.096 0-0.089-0.032-0.096-0.501-0.096-0.414 0-0.502-0.013-0.502-0.072 0-0.057-0.069-0.072-0.334-0.072-0.303 0-0.334-0.009-0.334-0.096 0-0.084-0.032-0.096-0.263-0.096-0.202 0-0.263-0.017-0.263-0.072s-0.058-0.072-0.239-0.072c-0.207 0-0.239-0.013-0.239-0.096 0-0.084-0.032-0.096-0.263-0.096-0.202 0-0.263-0.017-0.263-0.072s-0.058-0.072-0.239-0.072c-0.207 0-0.239-0.013-0.239-0.096 0-0.077-0.032-0.096-0.167-0.096-0.117 0-0.167-0.022-0.167-0.072 0-0.055-0.061-0.072-0.263-0.072-0.244 0-0.284-0.022-0.271-0.147 0.002-0.015-0.114-0.032-0.257-0.038-0.234-0.009-0.26-0.001-0.26 0.087 0 0.055-0.031 0.098-0.072 0.098s-0.072 0.032-0.072 0.072c0 0.039 0.032 0.072 0.072 0.072s0.072 0.042 0.072 0.096c0 0.080 0.032 0.096 0.191 0.096 0.138 0 0.191 0.020 0.191 0.072 0 0.039 0.032 0.072 0.072 0.072s0.072 0.043 0.072 0.096c0 0.064 0.032 0.096 0.096 0.096 0.053 0 0.096 0.032 0.096 0.072 0 0.050 0.050 0.072 0.167 0.072 0.135 0 0.167 0.018 0.167 0.096s0.032 0.096 0.167 0.096c0.117 0 0.167 0.022 0.167 0.072s0.050 0.072 0.167 0.072c0.135 0 0.167 0.018 0.167 0.096s0.032 0.096 0.167 0.096c0.117 0 0.167 0.022 0.167 0.072s0.050 0.072 0.167 0.072c0.135 0 0.167 0.018 0.167 0.096 0 0.088 0.032 0.096 0.433 0.096 0.332 0 0.425 0.014 0.399 0.060-0.027 0.048-0.021 0.048 0.031 0 0.086-0.080 0.141-0.075 0.141 0.012 0 0.057 0.069 0.072 0.334 0.072 0.302 0 0.334 0.009 0.334 0.096 0 0.077 0.032 0.096 0.167 0.096 0.117 0 0.167 0.022 0.167 0.072 0 0.057 0.069 0.072 0.334 0.072 0.303 0 0.334 0.009 0.334 0.096s0.032 0.096 0.334 0.096c0.302 0 0.334 0.009 0.334 0.096 0 0.094 0.032 0.096 2.293 0.096h2.293v0.167c0 0.117 0.022 0.167 0.072 0.167 0.059 0 0.072 0.088 0.072 0.501 0 0.47 0.006 0.502 0.095 0.502 0.077 0 0.096 0.032 0.096 0.167 0 0.117 0.022 0.167 0.072 0.167s0.072 0.050 0.072 0.167c0 0.135 0.018 0.167 0.095 0.167 0.091 0 0.095 0.032 0.095 0.669 0 0.563 0.011 0.669 0.072 0.669 0.050 0 0.072 0.050 0.072 0.167 0 0.135 0.018 0.167 0.096 0.167 0.064 0 0.095 0.032 0.095 0.096 0 0.053 0.032 0.096 0.072 0.096 0.054 0 0.072 0.058 0.072 0.239 0 0.207 0.013 0.239 0.095 0.239 0.084 0 0.096 0.032 0.096 0.263 0 0.202 0.017 0.263 0.072 0.263 0.050 0 0.072 0.050 0.072 0.167 0 0.135 0.018 0.167 0.096 0.167 0.053 0 0.096 0.032 0.096 0.072s0.032 0.072 0.072 0.072c0.040 0 0.072 0.042 0.072 0.096 0 0.064 0.032 0.096 0.096 0.096 0.053 0 0.096 0.032 0.096 0.072s0.042 0.072 0.096 0.072c0.064 0 0.096 0.032 0.096 0.096 0 0.053 0.032 0.096 0.072 0.096s0.072 0.042 0.072 0.096c0 0.064 0.032 0.096 0.096 0.096 0.086 0 0.096 0.032 0.096 0.334 0 0.265 0.015 0.334 0.072 0.334 0.054 0 0.072 0.058 0.072 0.239v0.239h0.167c0.135 0 0.167 0.018 0.167 0.096 0 0.084 0.032 0.096 0.263 0.096 0.202 0 0.263 0.017 0.263 0.072 0 0.039 0.032 0.072 0.072 0.072s0.072 0.042 0.072 0.096c0 0.089 0.032 0.096 0.501 0.096h0.502v-0.334c0-0.265-0.015-0.334-0.072-0.334-0.055 0-0.072-0.061-0.072-0.263 0-0.231-0.012-0.263-0.096-0.263-0.083 0-0.096-0.032-0.096-0.239 0-0.18-0.017-0.239-0.072-0.239-0.052 0-0.072-0.053-0.072-0.191 0-0.159-0.016-0.191-0.096-0.191-0.053 0-0.096-0.032-0.096-0.072s-0.032-0.072-0.072-0.072c-0.050 0-0.072-0.050-0.072-0.167 0-0.135-0.018-0.167-0.096-0.167-0.088 0-0.096-0.032-0.096-0.43 0-0.35-0.013-0.43-0.072-0.43-0.057 0-0.072-0.069-0.072-0.334 0-0.302-0.009-0.334-0.096-0.334-0.089 0-0.096-0.032-0.096-0.501 0-0.414-0.012-0.502-0.072-0.502-0.050 0-0.072-0.050-0.072-0.167 0-0.135-0.018-0.167-0.096-0.167-0.091 0-0.096-0.032-0.096-0.669s0.005-0.669 0.096-0.669c0.077 0 0.096-0.032 0.096-0.167 0-0.117 0.022-0.167 0.072-0.167 0.057 0 0.072-0.069 0.072-0.334 0-0.302 0.009-0.334 0.096-0.334 0.064 0 0.096-0.032 0.096-0.096 0-0.053 0.032-0.096 0.072-0.096s0.072-0.042 0.072-0.096c0-0.064 0.032-0.096 0.096-0.096 0.053 0 0.096-0.032 0.096-0.072 0-0.061 2.554-0.127 2.949-0.075 0.033 0.004 0.058-0.031 0.056-0.078-0.002-0.051-0.014-0.061-0.028-0.026-0.013 0.033-0.044 0.048-0.069 0.032-0.12-0.074 0.055-0.116 0.485-0.116 0.443 0 0.475 0.006 0.475 0.096 0 0.084 0.032 0.096 0.263 0.096s0.263-0.012 0.263-0.096c0-0.086 0.032-0.096 0.334-0.096 0.265 0 0.334-0.015 0.334-0.072 0-0.054 0.058-0.072 0.239-0.072 0.207 0 0.239-0.013 0.239-0.096 0-0.077 0.032-0.096 0.167-0.096 0.117 0 0.167-0.022 0.167-0.072s0.050-0.072 0.167-0.072c0.135 0 0.167-0.018 0.167-0.096 0-0.084 0.032-0.096 0.263-0.096 0.202 0 0.263-0.017 0.263-0.072 0-0.050 0.050-0.072 0.167-0.072 0.14 0 0.168-0.017 0.172-0.108 0.004-0.1 0.007-0.101 0.036-0.012 0.017 0.053 0.062 0.102 0.099 0.11 0.055 0.012 0.057 0.001 0.008-0.058-0.050-0.061-0.040-0.077 0.064-0.103 0.068-0.017 0.124-0.061 0.124-0.098s0.043-0.066 0.096-0.066c0.064 0 0.096-0.032 0.096-0.096 0-0.077 0.032-0.096 0.167-0.096 0.117 0 0.167-0.022 0.167-0.072 0-0.039 0.032-0.072 0.072-0.072s0.072-0.042 0.072-0.096c0-0.064 0.032-0.096 0.096-0.096 0.053 0 0.096-0.032 0.096-0.072 0-0.050 0.050-0.072 0.167-0.072 0.135 0 0.167-0.018 0.167-0.096 0-0.053 0.032-0.096 0.072-0.096s0.072-0.032 0.072-0.072c0-0.040 0.042-0.072 0.096-0.072 0.064 0 0.096-0.032 0.096-0.096 0-0.053 0.028-0.096 0.063-0.096s0.092-0.074 0.128-0.165c0.036-0.091 0.083-0.154 0.104-0.14s0.040-0.030 0.040-0.098c0-0.077 0.027-0.122 0.072-0.122 0.050 0 0.072-0.050 0.072-0.167 0-0.135 0.018-0.167 0.096-0.167 0.053 0 0.096-0.032 0.096-0.072s0.032-0.072 0.072-0.072c0.057 0 0.072-0.069 0.072-0.334v-0.334h-0.167c-0.159 0-0.167 0.008-0.167 0.167 0 0.117-0.022 0.167-0.072 0.167-0.039 0-0.072 0.032-0.072 0.072 0 0.050-0.050 0.072-0.167 0.072-0.135 0-0.167 0.018-0.167 0.096 0 0.064-0.032 0.096-0.096 0.096-0.053 0-0.096 0.032-0.096 0.072s-0.032 0.072-0.072 0.072c-0.040 0-0.072 0.043-0.072 0.096 0 0.064-0.032 0.096-0.096 0.096-0.053 0-0.096 0.032-0.096 0.072 0 0.050-0.050 0.072-0.167 0.072-0.135 0-0.167 0.018-0.167 0.096 0 0.053-0.032 0.096-0.072 0.096s-0.072 0.042-0.072 0.096c0 0.077-0.032 0.096-0.167 0.096-0.117 0-0.167 0.022-0.167 0.072s-0.050 0.072-0.167 0.072c-0.135 0-0.167 0.018-0.167 0.096 0 0.080-0.032 0.096-0.191 0.096-0.138 0-0.191 0.020-0.191 0.072 0 0.050-0.050 0.072-0.167 0.072-0.135 0-0.167 0.018-0.167 0.096 0 0.086-0.032 0.096-0.334 0.096-0.265 0-0.334 0.015-0.334 0.072 0 0.060-0.096 0.072-0.573 0.072-0.541 0-0.573 0.005-0.573 0.096 0 0.088-0.032 0.096-0.43 0.096-0.35 0-0.43 0.013-0.43 0.072 0 0.062-0.155 0.072-1.11 0.072-0.717 0-1.136 0.019-1.182 0.052-0.059 0.042-0.056 0.046 0.019 0.022 0.076-0.025 0.081-0.018 0.030 0.043-0.096 0.116-0.431 0.098-0.431-0.023 0-0.092-0.032-0.096-0.86-0.096-0.732 0-0.86-0.011-0.86-0.072 0-0.039-0.032-0.072-0.072-0.072-0.059 0-0.072-0.088-0.072-0.502s0.012-0.501 0.072-0.501c0.052 0 0.072-0.053 0.072-0.191 0-0.186 0.004-0.191 0.167-0.191 0.117 0 0.167-0.022 0.167-0.072s0.050-0.072 0.167-0.072c0.135 0 0.167-0.018 0.167-0.096 0-0.090 0.032-0.096 0.525-0.096 0.435 0 0.525-0.012 0.525-0.072 0-0.057 0.069-0.072 0.334-0.072 0.302 0 0.334-0.009 0.334-0.096 0-0.077 0.032-0.096 0.167-0.096 0.117 0 0.167-0.022 0.167-0.072s0.050-0.072 0.167-0.072c0.135 0 0.167-0.018 0.167-0.096s0.032-0.096 0.167-0.096c0.117 0 0.167-0.022 0.167-0.072s0.050-0.072 0.167-0.072c0.135 0 0.167-0.018 0.167-0.096 0-0.083 0.032-0.096 0.239-0.096 0.18 0 0.239-0.018 0.239-0.072 0-0.050 0.050-0.072 0.167-0.072 0.135 0 0.167-0.018 0.167-0.096 0-0.080 0.032-0.096 0.191-0.096 0.138 0 0.191-0.020 0.191-0.072 0-0.039 0.032-0.072 0.072-0.072s0.072-0.042 0.072-0.095c0-0.077 0.032-0.096 0.167-0.096 0.117 0 0.167-0.022 0.167-0.072 0-0.040 0.042-0.072 0.096-0.072 0.064 0 0.096-0.032 0.096-0.096 0-0.053 0.032-0.095 0.072-0.095s0.072-0.032 0.072-0.072c0-0.050 0.050-0.072 0.167-0.072 0.135 0 0.167-0.018 0.167-0.095 0-0.064 0.032-0.096 0.096-0.096s0.096-0.032 0.096-0.095c0-0.053 0.032-0.096 0.072-0.096s0.072-0.032 0.072-0.072c0-0.050 0.050-0.072 0.167-0.072 0.135 0 0.167-0.018 0.167-0.096 0-0.084 0.032-0.095 0.263-0.095 0.202 0 0.263-0.017 0.263-0.072 0-0.039 0.032-0.072 0.072-0.072 0.050 0 0.072-0.050 0.072-0.167 0-0.135 0.018-0.167 0.096-0.167 0.064 0 0.096-0.032 0.096-0.095s0.032-0.096 0.096-0.096c0.053 0 0.096-0.032 0.096-0.072s0.032-0.072 0.072-0.072c0.055 0 0.072-0.061 0.072-0.263 0-0.231 0.012-0.263 0.096-0.263 0.077 0 0.096-0.032 0.096-0.167 0-0.117 0.022-0.167 0.072-0.167 0.039 0 0.072-0.032 0.072-0.072s0.042-0.072 0.096-0.072c0.084 0 0.096-0.032 0.096-0.263s-0.012-0.263-0.096-0.263c-0.064 0-0.096 0.032-0.096 0.096 0 0.053-0.032 0.095-0.072 0.095-0.054 0-0.072 0.058-0.072 0.239v0.239h-0.263c-0.231 0-0.263 0.012-0.263 0.095 0 0.064-0.032 0.096-0.096 0.096-0.053 0-0.096 0.032-0.096 0.072s-0.032 0.072-0.072 0.072c-0.040 0-0.072 0.042-0.072 0.096 0 0.064-0.032 0.095-0.096 0.095-0.053 0-0.096 0.032-0.096 0.072s-0.032 0.072-0.072 0.072c-0.040 0-0.072 0.042-0.072 0.095 0 0.064-0.032 0.096-0.096 0.096-0.053 0-0.096 0.032-0.096 0.072 0 0.054-0.058 0.072-0.239 0.072-0.207 0-0.239 0.013-0.239 0.096 0 0.064-0.032 0.095-0.096 0.095-0.053 0-0.096 0.032-0.096 0.072 0 0.050-0.050 0.072-0.167 0.072-0.135 0-0.167 0.018-0.167 0.096 0 0.083-0.032 0.095-0.239 0.095-0.18 0-0.239 0.018-0.239 0.072s-0.061 0.072-0.263 0.072c-0.231 0-0.263 0.012-0.263 0.095 0 0.086-0.032 0.096-0.334 0.096-0.265 0-0.334 0.015-0.334 0.072 0 0.050-0.050 0.072-0.167 0.072-0.135 0-0.167 0.018-0.167 0.096 0 0.087-0.251 0.139-0.49 0.101-0.020-0.003-0.033 0.010-0.030 0.030 0.020 0.129-0.021 0.155-0.244 0.155-0.18 0-0.239 0.018-0.239 0.072 0 0.060-0.109 0.072-0.692 0.072-0.661 0-0.692 0.004-0.692 0.095 0 0.088-0.032 0.096-0.406 0.096-0.329 0-0.406 0.014-0.406 0.072 0 0.057-0.069 0.072-0.334 0.072s-0.334-0.015-0.334-0.072c0-0.040-0.043-0.072-0.096-0.072-0.088 0-0.096-0.032-0.096-0.43s0.007-0.43 0.096-0.43c0.077 0 0.096-0.032 0.096-0.167 0-0.117 0.022-0.167 0.072-0.167 0.040 0 0.072-0.042 0.072-0.095 0-0.077 0.032-0.096 0.167-0.096 0.117 0 0.167-0.022 0.167-0.072 0-0.055 0.061-0.072 0.263-0.072 0.231 0 0.263-0.012 0.263-0.095 0-0.086 0.032-0.096 0.334-0.096 0.265 0 0.334-0.015 0.334-0.072 0-0.050 0.050-0.072 0.167-0.072 0.135 0 0.167-0.018 0.167-0.096s0.032-0.095 0.167-0.095c0.117 0 0.167-0.022 0.167-0.072 0-0.055 0.061-0.072 0.263-0.072 0.231 0 0.263-0.012 0.263-0.095 0-0.077 0.032-0.096 0.167-0.096 0.117 0 0.167-0.022 0.167-0.072 0-0.039 0.032-0.072 0.072-0.072s0.072-0.043 0.072-0.096c0-0.077 0.032-0.095 0.167-0.095 0.117 0 0.167-0.022 0.167-0.072 0-0.040 0.042-0.072 0.096-0.072 0.064 0 0.096-0.032 0.096-0.095 0-0.053 0.032-0.096 0.072-0.096s0.072-0.032 0.072-0.072c0-0.040 0.042-0.072 0.096-0.072 0.064 0 0.096-0.032 0.096-0.095 0-0.053 0.032-0.096 0.072-0.096s0.072-0.042 0.072-0.095c0-0.064 0.032-0.095 0.096-0.095 0.083 0 0.096-0.032 0.096-0.239v-0.239h-0.263c-0.202 0-0.263 0.017-0.263 0.072s-0.058 0.072-0.239 0.072c-0.207 0-0.239 0.013-0.239 0.095 0 0.077-0.032 0.096-0.167 0.096-0.117 0-0.167 0.022-0.167 0.072s-0.050 0.072-0.167 0.072c-0.135 0-0.167 0.018-0.167 0.095 0 0.086-0.032 0.095-0.334 0.095s-0.334 0.009-0.334 0.096c0 0.077-0.032 0.095-0.167 0.095-0.117 0-0.167 0.022-0.167 0.072 0 0.052-0.053 0.072-0.191 0.072-0.159 0-0.191 0.016-0.191 0.096 0 0.088-0.032 0.095-0.406 0.095s-0.406-0.008-0.406-0.095c0-0.064-0.032-0.096-0.096-0.096-0.089 0-0.096-0.032-0.096-0.501s0.006-0.502 0.096-0.502c0.092 0 0.096-0.032 0.096-0.764 0-0.647 0.011-0.764 0.072-0.764 0.057 0 0.072-0.069 0.072-0.334 0-0.303 0.009-0.334 0.096-0.334 0.092 0 0.096-0.032 0.096-0.764s-0.004-0.764-0.096-0.764c-0.077 0-0.096-0.032-0.096-0.167s0.018-0.167 0.096-0.167c0.083 0 0.096-0.032 0.096-0.239s-0.013-0.239-0.096-0.239c-0.086 0-0.096-0.032-0.096-0.334 0-0.265-0.015-0.334-0.072-0.334-0.055 0-0.072-0.061-0.072-0.263 0-0.231-0.012-0.263-0.096-0.263-0.090 0-0.096-0.032-0.096-0.597 0-0.499-0.012-0.597-0.072-0.597-0.050 0-0.072-0.050-0.072-0.167 0-0.135-0.018-0.167-0.096-0.167-0.087 0-0.124-0.079-0.099-0.211 0.005-0.024-0.025-0.016-0.066 0.018-0.066 0.055-0.074 0.031-0.074-0.207s-0.011-0.268-0.096-0.268c-0.086 0-0.096-0.032-0.096-0.334 0-0.265-0.015-0.334-0.072-0.334-0.040 0-0.072-0.042-0.072-0.096 0-0.064-0.032-0.095-0.096-0.095-0.053 0-0.096-0.032-0.096-0.072 0-0.059-0.088-0.072-0.501-0.072s-0.502 0.013-0.502 0.072z"></path>
</svg>
