<!-- Generated by IcoMoon.io -->
<svg version="1.1" xmlns="http://www.w3.org/2000/svg" width="1024" height="1024" viewBox="0 0 1024 1024">
<title>factions-chaos-horns-of-hashut</title>
<path fill="#000" d="M833.027 22.946c11.473 56.647 12.19 84.611 4.303 124.049-16.492 78.158-30.116 87.48-136.239 96.802-108.275 9.322-349.92-10.756-391.507-32.268-11.473-5.736-27.248-10.756-35.135-10.756-20.077 0-58.081-24.379-72.421-47.325-13.623-20.795-17.209-83.177-7.17-123.332 5.020-20.077 4.303-22.946-7.17-22.946-18.643 0.717-53.778 32.268-81.744 73.856-22.229 33.702-22.946 37.286-18.643 82.46 9.322 89.63 11.473 93.934 58.081 145.561 37.286 40.155 50.194 62.384 78.876 129.785 17.926 44.458 45.891 100.386 60.948 124.049 22.229 34.418 93.216 187.866 93.216 200.774 0 5.736 35.852 83.894 59.515 131.937 25.813 51.628 82.46 124.766 98.953 128.351 14.34 2.867 104.689-105.406 116.88-140.541 5.736-15.059 22.946-53.778 39.439-86.046 30.116-60.231 45.891-101.104 54.495-143.41 2.867-12.907 14.34-44.458 25.813-69.554 11.473-25.813 20.795-50.194 20.795-54.495 0-13.623 50.194-107.556 79.593-150.58 59.515-84.611 80.31-193.602 53.061-272.478-10.756-29.399-76.724-106.84-91.782-106.84-3.586 0-5.020 10.756-2.151 22.946zM610.741 352.789c104.689 10.756 128.351 22.946 131.937 67.403 2.151 29.399-1.434 40.872-51.628 160.62-14.34 32.985-25.813 63.817-25.813 68.837 0 4.303-5.736 15.776-12.907 25.096s-19.36 32.985-26.531 52.344c-12.907 35.135-78.158 111.859-94.65 111.859-21.512 0-79.593-98.953-94.65-161.336-5.020-20.077-17.926-53.778-29.399-75.29-64.534-126.201-86.764-200.774-69.554-235.909 7.17-15.059 15.059-19.36 40.872-22.229 43.739-5.020 130.502-1.434 232.325 8.604z"></path>
</svg>
