<!-- Generated by IcoMoon.io -->
<svg version="1.1" xmlns="http://www.w3.org/2000/svg" width="512" height="512" viewBox="0 0 512 512">
<g id="icomoon-ignore">
</g>
<title>Teratic Cohort</title>
<path fill="#000" d="M196.593 85.951c-1.939 1.569-2.639 3.674-3.136 9.427-1.2 13.903-10.611 15.355-12.056 1.859-1.031-9.638-9.66-11.004-19.328-3.066l-2.66 2.185 3.143 5.668c5.001 9.018 3.821 15.359-2.612 14.044-3.562-0.729-4.739-2.234-8.346-10.663-3.2-7.48-13.445-9.885-18.465-4.338-2.506 2.769-1.186 9.767 2.438 12.918 2.857 2.484 3.873 10.222 1.532 11.668-2.951 1.823-7.897-0.834-10.813-5.807-2.716-4.635-3.352-5.065-7.474-5.065-9.261 0-13.027 13.35-5.65 20.026 6.853 6.202 9.715 16.275 5.421 19.088-3.594 2.355-5.733 1.081-9.623-5.734-6.472-11.34-11.441-14.219-18.405-10.665-12.087 6.17-12.468 19.911-0.647 23.327 4.159 1.202 5.897 2.407 7.088 4.916 0.867 1.827 2.48 4.352 3.582 5.608 5.258 5.99 4.297 14.792-1.737 15.923-8.363 1.569-15.984-7.438-24.595-29.065-5.685-14.278-13.16-14.538-20.419-0.713l-3.526 6.716 2.562 4.562c1.41 2.511 3.9 5.689 5.533 7.064 4.056 3.416 15.883 20.866 15.883 23.435 0 6.827-13.026 4.137-20.337-4.202-14.229-16.225-14.867-17.166-16.25-23.908-1.721-8.385-2.673-9.527-7.939-9.527-7.718 0-8.44 1.96-7.79 21.131 0.669 19.701-0.069 18.44 16.176 27.565 6.364 3.577 12.794 7.321 14.289 8.326 1.494 1.003 5.138 3.368 8.095 5.252 8.184 5.218 10.457 6.975 27.14 20.971 17.567 14.738 21.124 16.666 28.833 15.604 12.423-1.707 15.657-5.685 15.926-19.577 0.23-11.939 0.874-13.418 8.541-19.603 23.452-18.917 64.319-15.379 66.7 5.776 1.223 10.87-7.172 12.030-11.536 1.59-4.1-9.806-16.467-9.135-18.369 0.998-0.926 4.934 1.186 8.302 8.511 13.563 5.677 4.079 7.781 8.504 6.286 13.219-1.484 4.675-10.875 1.947-17.762-5.161-7.198-7.426-16.697-3.976-18.719 6.804-1.311 6.993 1.363 9.649 13.816 13.717 3.25 1.062 6.594 2.755 7.428 3.76 0.834 1.007 3.186 2.527 5.23 3.382 4.003 1.674 4.569 3.343 2.224 6.55-1.944 2.659-8.51 1.053-15.759-3.86-10.478-7.101-17.031-4.2-17.031 7.541 0 11.419 1.655 13.649 10.765 14.5 23.462 2.191 25.146 25.147 4.001 54.494-9.225 12.804-9.294 16.781-0.41 23.558 2.063 1.573 4.311 4.468 4.995 6.431 4.594 13.18 16.494 9.998 24.983-6.675 4.863-9.551 13.683-11.45 19.407-4.175 4.438 5.637 4.772 6.952 5.831 22.719l0.901 13.428 5.036 4.337c12.776 11.002 30.219 13.302 46.892 6.182 14.745-6.296 16.842-9.657 16.955-27.166 0.072-11.123 3.574-18.004 11.671-22.928 5.815-3.536 10.863-0.142 13.596 9.15 4.487 15.24 20.634 18.834 25.014 5.564 0.693-2.099 3.23-5.401 5.639-7.337 7.717-6.202 6.882-15.526-1.908-21.343-4.173-2.761-4.716-3.769-7.577-14.074-1.695-6.106-3.858-13.671-4.808-16.813-4.779-15.805-0.868-22.603 13.466-23.409 13.32-0.75 15.373-2.74 14.988-14.529-0.435-13.36-6.623-16.735-17.353-9.462-3.009 2.038-6.51 3.406-8.716 3.406-12.818 0-1.471-14.284 14.551-18.317 7.175-1.807 9.345-4.43 9.345-11.304 0-14.829-13.796-19.285-22.197-7.17-5.159 7.439-7.551 9.286-12.096 9.332-7.34 0.075-7.122-6.626 0.408-12.525 13.981-10.953 15.817-16.827 7.002-22.393l-4.469-2.821-3.95 3.013c-2.174 1.657-5.027 4.753-6.341 6.88-2.272 3.675-8.618 6.827-10.38 5.159-2.837-2.691-2.041-7.847 2.13-13.776 7.197-10.233 8.574-10.857 25.037-11.323 20.499-0.582 27.522 1.761 40.13 13.377l4.858 4.476v9.46c0 18.438 12.037 27.719 28.751 22.167 6.151-2.043 8.216-3.859 23.241-20.452 5.656-6.248 11.494-12.414 12.975-13.704s3.654-3.236 4.831-4.322c5.267-4.858 22.848-15.692 29.481-18.168 9.755-3.637 11.559-6.869 11.559-20.69 0-16.138-6.844-19.435-16.471-7.933-12.272 14.665-28.721 28.698-30.871 26.334-3.944-4.337 4.197-18.692 13.257-23.378 4.337-2.243 10.036-11.13 9.305-14.506-2.772-12.767-21.952-16.021-24.895-4.225-2.755 11.047-18.601 27.344-26.628 27.385-11.24 0.056-4.987-15.014 10.014-24.137 14.202-8.637 2.342-32.113-12.376-24.504-2.294 1.186-3.664 3.309-5.122 7.928-2.599 8.241-8.671 12.772-12.283 9.161-3.009-3.008-1.23-9.056 4.665-15.866 7.526-8.697 8.316-13.751 2.887-18.445-7.5-6.484-13.549-4.915-16.495 4.277-1.902 5.93-8.76 8.201-9.845 3.258-0.508-2.315-0.034-4.16 1.659-6.451 4.185-5.659 5.461-17.031 2.293-20.404-5.524-5.88-14.651-2.543-16.462 6.019-2.115 10.001-6.341 15.181-11.717 14.36-4.99-0.761-5.557-3.517-2.074-10.068 6.045-11.368 3.406-18.246-7.439-19.4-7.122-0.756-8-0.347-11.054 5.159-4.244 7.65-11.751 5.484-11.751-3.392 0-10.989-14.558-12.633-17.776-2.005-5.073 16.752-9.709 17.959-16.327 4.255-3.57-7.391-8.268-8.145-16.623-2.669l-4.445 2.914 0.673 9.531c0.723 10.245 2.531 15.026 7.784 20.567 9.382 9.902 9.767 40.77 0.725 58.229-0.981 1.894-2.65 6.423-3.708 10.065-2.091 7.195-3.027 7.912-12.009 9.202-18.349 2.635-30.84-48.109-18.25-74.13 1.826-3.772 3.67-8.398 4.102-10.283 0.433-1.886 1.736-5.222 2.895-7.412 8.369-15.797-8.955-26.388-21.3-13.019-7.454 8.073-14.299 6.127-14.299-4.066 0-8.617-7.6-13.251-13.669-8.335zM275.11 321.096c5.876 1.81-3.423 15.179-12.284 17.661-13.46 3.772-33.102-9.502-26.262-17.745 1.315-1.586 33.353-1.517 38.546 0.084zM262.745 363.873c1.39 8.712 0.027 11.036-7.156 12.202-8.278 1.344-9.982-2.281-6.452-13.713 3.865-12.514 11.503-11.666 13.608 1.512z"></path>
</svg>
