<!-- Generated by IcoMoon.io -->
<svg version="1.1" xmlns="http://www.w3.org/2000/svg" width="1024" height="1024" viewBox="0 0 1024 1024">
<title>faction-chaos-chaos-legionnaires</title>
<path fill="#000" d="M268.844 14.057c7.382 15.585 6.562 63.16-0.82 151.749-4.102 44.294-1.641 66.442 12.304 112.376 10.663 31.99 25.428 63.981 33.63 71.362 9.023 7.382 15.585 19.686 15.585 26.249 0 7.382 5.742 19.686 13.945 27.889 12.304 13.945 12.304 15.585 0 29.53-18.046 19.686-3.281 53.317 28.71 65.621 29.53 10.663 29.53 24.608-1.641 35.271-13.124 4.922-24.608 11.484-24.608 14.765s-13.124 11.484-28.71 17.226c-36.912 14.765-68.082 54.958-74.644 97.611-4.102 27.889-3.281 33.63 8.202 33.63 7.382 0 13.124-4.922 13.124-10.663 0-18.046 34.451-44.294 73.003-55.778 34.451-10.663 36.091-9.843 54.958 12.304 27.069 31.171 23.787 84.487-9.843 158.31-6.562 13.945-11.484 31.99-11.484 39.373 0 13.124 1.641 13.124 20.506 0.82 27.069-17.226 32.81-16.406 66.442 9.023 22.967 17.226 27.889 25.428 24.608 40.193-3.281 11.484 1.641 29.53 11.484 45.934 9.023 14.765 16.406 41.013 16.406 58.238 0 47.575 18.867 33.63 28.71-21.326 4.922-24.608 10.663-48.395 14.765-51.677 3.281-3.281 5.742-18.046 5.742-31.99 0-45.934 33.63-62.34 84.487-41.013 10.663 4.102 13.945 1.641 13.945-10.663 0-9.843-3.281-19.686-8.202-22.147-4.102-2.461-8.202-11.484-8.202-19.686 0-7.382-7.382-29.53-16.406-48.395-14.765-30.35-15.585-39.373-7.382-69.722 12.304-47.575 20.506-54.958 60.699-54.958 27.889 0 41.013 4.922 62.34 24.608 32.81 31.99 51.677 27.889 39.373-7.382-4.922-13.945-17.226-32.81-26.249-41.013-36.912-33.63-96.791-74.644-109.095-74.644-18.867 0-10.663-27.889 9.023-31.171 37.732-7.382 50.036-43.474 20.506-59.059-23.787-13.124-20.506-20.506 23.787-63.981 71.362-68.082 90.229-143.546 58.238-231.315-21.326-57.418-21.326-91.87 0-110.735 23.787-21.326 8.202-33.63-22.147-18.046-33.63 18.046-44.294 42.654-46.755 116.478-3.281 95.15-24.608 127.141-50.036 77.925-13.945-26.249-20.506-29.53-33.63-16.406-9.023 9.023-77.105-35.271-77.105-50.036 0-13.945-31.99-7.382-36.912 8.202-2.461 8.202-17.226 22.147-33.63 30.35-28.71 15.585-29.53 15.585-40.193 0-13.945-18.046-36.912-12.304-36.912 10.663 0 21.326-8.202 41.834-17.226 41.834-18.046 0-31.99-59.879-27.069-115.657 5.742-55.778 5.742-55.778-23.787-85.307-31.171-31.171-53.317-38.552-41.834-14.765zM426.334 406.963c10.663 3.281 18.046 11.484 18.046 21.326 0 24.608-44.294 17.226-47.575-8.202-3.281-18.867 0-20.506 29.53-13.124zM627.298 406.963c10.663 10.663-11.484 36.091-31.171 36.091-14.765 0-20.506-4.102-20.506-15.585 0-18.046 38.552-33.63 51.677-20.506zM534.609 471.764c12.304 23.787 12.304 24.608-18.046 31.99-21.326 4.922-22.967 3.281-22.967-18.867 0-21.326 7.382-30.35 25.428-32.81 2.461-0.82 9.843 8.202 15.585 19.686zM551.014 601.364c18.046-3.281 23.787-0.82 28.71 13.124 7.382 22.967-19.686 89.409-38.552 94.331-8.202 1.641-14.765 10.663-14.765 20.506 0 21.326-13.945 22.147-20.506 1.641-3.281-9.843-9.843-14.765-16.406-11.484-8.202 2.461-15.585-4.102-21.326-18.867-4.922-13.124-14.765-30.35-21.326-38.552-20.506-22.147-3.281-50.856 36.091-60.699 17.226-4.922 34.451-4.922 38.552-1.641s17.226 4.102 29.53 1.641z"></path>
</svg>
