<!-- Generated by IcoMoon.io -->
<svg version="1.1" xmlns="http://www.w3.org/2000/svg" width="512" height="512" viewBox="0 0 512 512">
<g id="icomoon-ignore">
</g>
<path fill="#000" d="M464.67 45.475c-4.796 3.228-5.837 5.826-7.502 18.706-1.515 11.721-3.873 17.082-11.507 26.174-5.028 5.989-21.43 9.043-59.455 11.072-66.543 3.55-66.329 3.51-77.528 15.035-3.147 3.24-7.93 7.023-10.628 8.406-2.738 1.405-6.070 4.239-7.546 6.42-6.096 9.012-24.030 23.938-29.697 24.717-8.868 1.22-14.753-0.869-21.628-7.674-3.273-3.239-10.867-10.602-16.876-16.363-6.010-5.76-12.238-12.195-13.839-14.299-8.387-11.016-27.848-14.049-90.852-14.165-44.956-0.082-46.4-0.608-57.344-20.864-2.709-5.014-4.474-9.85-4.934-13.528-2.034-16.224-4.644-18.763-12.446-12.096-11.54 9.858-16.557 28.479-16.030 59.482l0.324 18.973 4.273 8.186c3.802 7.284 4.72 8.326 8.325 9.445 2.228 0.692 9.514 2.974 16.189 5.071l12.136 3.813 6.075-3.427c25.904-14.607 35.238-15.282 52.032-3.772 17.213 11.798 19.868 32.526 6.086 47.518-8.587 9.339-8.886 18.806-1.006 31.902 5.391 8.959 5.578 9.060 26.579 14.213 10.636 2.609 23.513 6.393 28.618 8.407 5.615 2.217 11.538 3.786 15.002 3.974l5.724 0.311 2.082-4.162c6.548-13.095 2.227-20.694-12.407-21.822-12.025-0.927-15.077-2.411-19.902-9.677-9.909-14.925-6.103-28.286 8.068-28.333 0.976-0.004 3.456 1.135 5.51 2.528 2.055 1.394 6.633 3.619 10.174 4.944 7.975 2.983 32.675 26.725 36.493 35.076 4.488 9.82 2.445 30.028-3.208 31.74-1.77 0.536-14.593 2.691-16.106 2.707-2.942 0.031-2.863 4.519 0.16 9.083 1.753 2.645 3.187 5.396 3.187 6.113 0 1.389 8.204 8.569 15.089 13.207 2.29 1.541 5.359 3.769 6.822 4.946 6.97 5.62 20.767 1.38 27.603-8.484 1.89-2.728 5.009-5.272 8.83-7.2 8.584-4.333 11.401-11.593 7.182-18.514-2.18-3.576-3.106-3.715-10.62-1.601-2.512 0.707-6.56-3.95-7.849-9.026-1.211-4.774 0.14-10.492 4.372-18.498 1.419-2.685 3.255-6.519 4.079-8.524 3.763-9.139 26.334-30.414 39.815-37.528 19.76-10.427 31.075 9.329 15.116 26.391-6.135 6.558-6.683 6.811-19.747 9.109-22.972 4.042-23.983 23.881-1.219 23.881 1.563 0 7.357-2.11 12.875-4.69 9.87-4.611 26.513-8.828 34.877-8.835 16.72-0.016 26.373-26.462 16.146-44.231-10.627-18.462-6.255-37.751 11.249-49.638 17.716-12.029 29.735-12.27 46.413-0.928 12.432 8.453 20.507 8.302 28.606-0.536 1.853-2.023 6.638-5.669 10.63-8.101 9.531-5.805 10.536-7.761 12.659-24.633 3.001-23.854-1.016-51.751-9.77-67.835-3.052-5.606-4.623-6.020-9.752-2.566zM96.958 235.191c-1.677 1.678-2.092 3.661-3.669 17.596-2.899 25.599 0.165 40.78 9.972 49.39 4.192 3.682 6.309 3.801 26.513 1.51 7.422-0.841 10.874 0.856 16.033 7.886 6.553 8.926 1.165 12.359-20.529 13.087-7.428 0.248-16.216 1.155-19.53 2.013-8.846 2.292-8.889 2.276-17.689-6.764-13.373-13.737-18.718-10.079-17.318 11.852 1.894 29.678 6.621 34.38 28.686 28.534 19.688-5.215 31.888-3.728 37.958 4.632 2.973 4.091 2.815 18.041-0.278 24.705-6.482 13.969 11.738 22.559 23.606 11.127 5.541-5.337 9.411-11.96 10.059-17.218 0.89-7.202 3.56-15.608 6.824-21.476 1.595-2.867 3.716-8.258 4.714-11.978 2.633-9.816 4.173-12.303 9.101-14.696l4.4-2.138 5.917 2.616c4.287 1.896 6.717 3.807 8.823 6.938 1.599 2.376 6.31 8.144 10.471 12.818 11.639 13.072 15.331 25.844 10.309 35.658-2.958 5.777-5.367 19.659-6.941 39.975-0.765 9.882-1.887 15.852-4.669 24.849-5.51 17.82-5.534 17.703 6.165 29.974 17.939 18.817 24.256 19.252 40.234 2.769 13.382-13.803 14.123-18.344 8.803-53.95-1.54-10.303-3.192-23.416-3.671-29.138-0.557-6.639-1.671-12.245-3.079-15.486-4.2-9.675-0.153-22.23 11.041-34.237 3.899-4.181 8.328-9.746 9.842-12.365 4.993-8.634 14.476-12.406 24.082-9.58 4.583 1.349 12.467 23.558 15.428 43.461 2.431 16.351 15.985 27.031 27.103 21.359 4.89-2.495 5-2.94 4.738-19.242-0.397-24.716 16.005-35.171 40.019-25.51 18.626 7.493 28.325-1.202 29.699-26.624 0.889-16.445-5.493-21.226-14.297-10.711-7.098 8.478-9.664 9.072-27.543 6.378-3.892-0.587-6.622-0.313-10.829 1.081-8.618 2.858-15.234 2.45-21.214-1.305-6.303-3.957-6.591-4.817-3.791-11.327 4.162-9.673 13.729-13.23 30.39-11.298 17.091 1.983 23.307-3.799 28.464-26.471 3.795-16.687-2.83-43.036-9.728-38.685-1.858 1.173-1.771 1.023-6.397 10.822-8.147 17.258-14.091 21.464-29.788 21.079-8.918-0.219-12.571 0.271-25.539 3.426-17.695 4.306-17.958 4.457-28.604 16.368-4.49 5.022-10.535 10.709-13.433 12.635-2.899 1.925-6.786 5.39-8.639 7.7-2.784 3.47-4.384 4.425-9.227 5.51-5.569 1.245-6.070 1.633-10.159 7.846-9.403 14.286-28.729 13.368-37.238-1.772-1.451-2.582-3.974-5.111-6.263-6.279-2.108-1.076-7.264-4.933-11.456-8.573s-10.032-7.91-12.98-9.492c-2.947-1.58-7.547-5.409-10.221-8.507-7.632-8.842-27.543-16.134-49.183-18.013-19.242-1.671-27.136-7.645-31.874-24.125-1.96-6.814-10.21-12.043-13.62-8.634zM292.785 365.087c-2.442 2.442-4.257 14.342-3.313 21.738 0.452 3.546 0.89 13.941 0.97 23.099 0.222 24.968 1.443 27.841 9.483 22.31 12.749-8.772 21.091-32.462 14.481-41.126-1.426-1.873-3.26-6.253-4.072-9.735-2.832-12.136-12.618-21.219-17.55-16.287zM200.97 365.145c-0.572 0.204-2.233 0.63-3.692 0.949-3.304 0.721-6.759 6.61-8.371 14.272-0.651 3.092-2.649 8.668-4.439 12.387-6.159 12.803-4.29 25.047 6.089 39.892 5.583 7.986 6.344 8.485 11.47 7.524 6.728-1.262 7.010-2.501 7.956-35.041 1.065-36.615-0.387-43.050-9.013-39.984z"></path>
</svg>
