<!-- Generated by IcoMoon.io -->
<svg version="1.1" xmlns="http://www.w3.org/2000/svg" width="1024" height="1024" viewBox="0 0 1024 1024">
<title></title>
<g id="icomoon-ignore">
</g>
<path fill="#000" d="M255.608 131.513c-2.672 1.070-4.85 2.349-4.85 2.833 0 3.164 6.832 16.279 9.723 18.694 13.556 11.251 15.166 61.253 3.332 103.547-14.774 52.773-1.615 88.839 36.937 101.239 4.356 1.398 9.045 3.91 10.423 5.561 1.381 1.661 6.070 4.175 10.423 5.596 7.591 2.476 18.039 12.578 27.334 26.415 2.376 3.536 6.014 8.943 8.080 12.018 2.068 3.075 3.772 7.552 3.778 9.944 0.005 2.389 2.048 8.138 4.534 12.774 2.929 5.469 5.15 15.12 6.307 27.497 1.164 12.469 3.25 21.486 5.999 26.063 2.326 3.844 5.871 12.089 7.886 18.294 6.712 20.701 14.766 16.18 15.484-8.678 0.27-9.142 1.857-18.893 3.645-22.357 1.752-3.385 4.251-10.036 5.556-14.779 4.779-17.311 25.014-27.79 42.302-21.911 9.471 3.217 10.041 0.471 10.426-50.249 0.425-55.919 2.119-52.093-24.061-54.162-21.595-1.712-49.526-15.085-70.367-33.702-18.152-16.223-20.561-21.738-31.588-72.642-8.551-39.431-33.404-76.409-55.901-83.152-4.384-1.307-9.725-4.34-11.88-6.715-4.295-4.74-6.215-5.036-13.5-2.109zM758.878 131.233c-23.498 8.268-47.034 26.476-55.214 42.737-2.863 5.685-6.826 12.807-8.806 15.826-3.721 5.652-12.308 39.248-16.753 65.499-5.938 35.065-52.549 72.807-91.81 74.323-25.928 1.006-25.732 0.777-23.768 27.235 0.879 11.901 1.826 31.858 2.096 44.352 0.632 29.581 2.267 32.696 16.942 32.261 19.249-0.573 20.668-0.173 29.584 8.482 10.716 10.398 15.64 25.088 15.968 47.648 0.283 19.298 1.426 21.578 10.849 21.578 7.425 0 11.954-6.686 11.954-17.65 0-2.236 2.376-9.697 5.27-16.585 3.788-9.004 5.693-18.666 6.781-34.4 1.192-17.321 2.343-22.632 5.52-25.51 2.208-2.002 5.084-7.606 6.399-12.451 1.302-4.845 5.675-12.469 9.702-16.926s7.326-9.109 7.326-10.337c0-1.23 4.598-4.203 10.224-6.608 5.627-2.407 11.847-6.124 13.821-8.243 1.977-2.122 7.351-4.46 11.918-5.199 16.993-2.72 35.885-28.893 38.547-53.397 1.281-11.811-3.51-41.685-10.701-66.648-3.826-13.296-4.751-60.942-1.358-69.86 1.116-2.934 6.554-11.289 12.071-18.551 12.448-16.371 9.85-23.358-6.554-17.596zM498.61 299.057c-2.448 5.708-6.309 14.336-8.566 19.153s-4.111 10.67-4.111 12.996c0 2.326-2.007 10.999-4.46 19.277-15.734 53.056-6.709 154.792 15.174 171.229 4.147 3.11 9.57 7.986 12.064 10.831 6.022 6.883 13.261 5.033 25.882-6.597 21.142-19.481 21.835-24.563 16.778-121.579-2.591-49.679-3.368-55.445-8.332-61.482-1.465-1.778-4.226-8.574-6.159-15.108-10.95-37.133-28.88-50.585-38.269-28.72zM272.445 371.874c-3.311 3.986-0.953 8.357 10.543 19.507 4.883 4.733 9.769 11.997 10.905 16.208 3.355 12.453 1.090 76.903-3.153 89.571-7.046 21.063-6.9 58.37 0.28 72.158 10.298 19.772 21.807 20.699 28.554 2.282 4.651-12.711 16.132-15.069 24.402-5.026 17.461 21.203 30.421 26.601 40.562 16.886l5.943-5.696 5.010 7.17c2.746 3.938 6.134 7.876 7.517 8.724 4.656 2.901 24.675 21.901 24.675 23.429 0 5.166-12.137 3.953-22.044-2.208-25.414-15.795-40.812-4.124-25.454 19.295 18.116 27.622 21.43 31.473 32.039 37.141 4.509 2.407 8.365 7.068 11.063 13.363 2.978 6.954 6.414 10.828 12.25 13.826 7.081 3.635 8.531 5.757 11.493 16.84 3.245 12.122 3.673 12.65 9.817 12.076 19.002-1.77 23.027 0.759 27.214 17.077 4.371 17.066 17.143 19.237 23.46 3.986 6.551-15.821 20.523-16.855 28.050-2.096 6.363 12.474 18.58 12.117 23.618-0.675 1.022-2.618 3.016-7.84 4.417-11.615 2.349-6.312 3.271-6.834 11.526-6.47 8.819 0.382 9.061 0.194 14.608-11.192 3.194-6.546 9.914-15.227 15.467-19.983 5.405-4.623 12.871-13.345 16.59-19.384 4.939-8.031 9.040-11.878 15.227-14.31 4.654-1.829 8.966-4.919 9.585-6.855 0.616-1.946 4.516-8.808 8.673-15.263 8.194-12.726 9.764-23.386 4.249-28.901-3.492-3.495-6.661-2.863-19.341 3.864-13.977 7.41-34.894 2.97-21.965-4.654 4.119-2.433 11.59-9.855 16.605-16.496 9.42-12.479 10.703-13.047 27.418-12.135 5.734 0.316 8.895-1.566 18.019-10.681 15.806-15.803 27.087-15.451 32.533 1.037 4.178 12.65 14.703 16.256 23.070 7.886 7.639-7.639 6.893-85.024-0.94-97.734-0.471-0.764-1.811-14.84-2.978-31.288-2.552-35.872-0.183-48.713 11.279-60.991 13.060-13.989 13.559-15.034 8.941-18.534-15.309-11.585-59.918 21.402-64.098 47.399-0.759 4.705-3.533 11.48-6.169 15.041-3.938 5.326-5.069 10.614-6.325 29.683-1.162 17.688-2.58 24.894-5.938 30.335-2.427 3.923-5.461 11.957-6.753 17.848-1.289 5.894-4.353 13.485-6.804 16.858-2.448 3.383-5.568 10.663-6.936 16.18l-2.481 10.041-9.71-0.672c-8.261-0.573-11.327 0.476-20.487 7.018-5.93 4.223-11.952 7.69-13.38 7.69-11.878 0-21.241 24.897-16.702 44.436 3.194 13.73 2.69 15.979-3.551 15.979-12.242 0-10.905-51.772 1.421-54.867 3.798-0.955 5.232-2.792 5.232-6.717 0-3.737 1.62-6.022 5.245-7.402 2.878-1.095 9.865-6.424 15.533-11.852l10.288-9.858-2.677-12.953c-1.472-7.122-3.266-22.729-4.002-34.686-1.253-20.627-1.689-22.184-8.561-30.396-3.976-4.766-8.133-10.25-9.234-12.204-1.832-3.258-2.613-3.217-9.529 0.484-9.216 4.929-11.452 10.433-13.309 32.645-1.972 23.666-10.326 40.636-29.298 59.577-17.685 17.65-34.265 22.354-34.273 9.743-0.003-2.784-11.86-14.389-25.531-24.968-14.99-11.613-19.886-21.323-21.975-43.68-5.263-56.123-40.674-30.944-44.411 31.586l-1.516 25.253 9.677 9.277c5.321 5.105 11.778 10.395 14.351 11.773s4.677 4.488 4.677 6.906c0 5.51-10.872 4.035-19.42-2.629-9.865-7.7-19.774-11.058-28.511-9.662-8.844 1.419-10.446-0.29-13.414-14.241-0.675-3.176-2.713-7.262-4.509-9.058-3.727-3.727-15.118-29.92-19.341-44.492-8.984-30.951-14.053-51.668-14.053-57.425 0-4.16-1.926-8.362-5.278-11.516-2.909-2.728-5.879-7.67-6.605-10.989-1.566-7.119-17.999-24.731-25.172-26.978-2.761-0.864-7.756-3.867-11.108-6.666-6.995-5.846-20.956-6.967-25.072-2.002zM461.696 589.937c8.48 24.578 8.454 27.092-0.471 34.1-10.14 7.958-12.841 6.011-10.996-7.945 2.14-16.083 1.437-27.362-2.142-34.53-4.104-8.228-4.109-8.212 2.624-7.412 5.031 0.591 6.429 2.613 10.986 15.788zM699.558 588.602c-6.584 1.862-10.729 9.532-10.772 19.909-0.015 4.6-2.137 10.892-5.163 15.352-2.822 4.16-6.345 11.226-7.812 15.696s-4.99 11.539-7.812 15.699c-2.822 4.157-5.128 8.739-5.128 10.176s-5.115 9.799-11.356 18.574c-14.563 20.472-23.075 36.922-26.135 50.486-2.183 9.677-3.368 11.241-11.641 15.215-5.107 2.45-11.671 8.044-14.725 12.535-6.185 9.101-10.293 8.151-12.731-2.934-2.568-11.671-7.015-12.385-11.61-1.859-2.257 5.173-7.891 13.049-12.517 17.494l-8.406 8.080-18.264-1.821c-10.046-1.004-20.515-0.998-23.256 0.010-15.867 5.828-35.31-3.574-39.719-19.188-3.721-13.172-6.931-13.638-12.188-1.763-5.306 11.997-6.162 12.059-16.205 1.205-4.394-4.746-11.814-10.584-16.496-12.97-5.848-2.983-8.91-6.185-9.802-10.248-3.721-17.018-22.647-50.331-38.71-68.115-1.959-2.168-4.608-7.028-5.889-10.782-1.281-3.767-5.082-10.033-8.459-13.928-3.368-3.892-6.131-8.859-6.131-11.040 0-2.168-1.997-6.475-4.432-9.575s-6.169-10.754-8.294-17.015c-9.911-29.173-25.406-23.684-22.688 8.034 0.914 10.678 1.482 23.302 1.258 28.048-0.224 4.743 1.48 14.937 3.778 22.66 2.3 7.71 4.837 17.639 5.642 22.054 0.805 4.412 4.030 12.186 7.176 17.262 3.148 5.077 7.17 12.066 8.943 15.535s6.86 10.097 11.31 14.741c4.45 4.641 8.090 9.236 8.090 10.207 0 0.968 2.983 2.812 6.638 4.078 7.764 2.713 6.524 6.742-2.066 6.742-3.581 0-7.998-2.16-11.042-5.398-2.784-2.968-6.276-5.398-7.759-5.398-4.608 0-15.966-10.943-20.426-19.695-9.764-19.14-21.325-9.178-15.828 13.643 9.198 38.193 29.52 65.66 66.123 89.39 22.487 14.58 54.551 42.923 61.003 53.93 10.286 17.553 19.807 10.227 17.283-13.302-3.75-35.070 25.684-42.714 47.19-12.25 8.531 12.076 19.178 11.305 25.803-1.872 3.108-6.18 20.892-17.181 28.661-17.736 9.853-0.703 16.374 13.342 13.735 29.566-4.544 27.93 8.643 36.362 21.427 13.702 5.874-10.4 17.308-21.993 32.482-32.908 61.057-43.919 71.516-54.77 81.055-84.15 2.695-8.312 6.5-19.417 8.439-24.685 9.471-25.648-12.456-32.014-22.996-6.669-2.484 5.976-5.599 10.869-6.926 10.877-1.33 0.010-6.669 3.408-11.88 7.552-10.416 8.278-13.533 9.078-17.375 4.442-2.063-2.486-1.541-3.767 2.664-6.516 10.821-7.089 22.525-19.749 24.025-25.989 0.858-3.556 3.459-8.51 5.785-10.999 2.489-2.672 5.12-10.092 6.409-18.088 1.2-7.461 3.482-16.109 5.069-19.204 2.007-3.93 3.12-18.070 3.681-46.594 0.866-44.454 1.093-43.647-11.050-40.223zM533.578 613.825c2.295 2.071 6.256 4.832 8.798 6.124 6.984 3.543 9.825 9.134 6.972 13.679-4.002 6.35-8.388 5.421-17.499-3.683-11.822-11.822-19.797-11.926-30.747-0.423-10.186 10.708-19.509 13.049-19.433 4.883 0.173-19.792 36.754-34.296 51.91-20.579z"></path>
</svg>
