<!-- Generated by IcoMoon.io -->
<svg version="1.1" xmlns="http://www.w3.org/2000/svg" width="1024" height="1024" viewBox="0 0 1024 1024">
<title></title>
<g id="icomoon-ignore">
</g>
<path fill="#000" d="M705.678 106.293c-41.719 28.818-76.081 52.629-76.361 52.913s15.286 22.689 34.587 49.791c19.303 27.102 34.852 49.667 34.557 50.143-0.296 0.479-21.555 19.115-47.241 41.412-25.688 22.297-50.297 43.726-54.687 47.619l-7.985 7.080-38.454-67.796c-21.152-37.286-38.832-67.416-39.293-66.953s-17.71 30.573-38.333 66.91c-20.625 36.339-37.952 66.22-38.507 66.406-0.958 0.318-107.343-91.328-109.387-94.234-0.66-0.937 10.315-17.234 34.037-50.549l35.013-49.165-2.493-2.016c-5.084-4.119-149.22-103.084-149.589-102.711-0.211 0.213 5.276 9.462 12.193 20.554 31.922 51.197 58.061 95.869 59.537 101.751 0.632 2.518-51.784 63.844-82.712 96.768l-3.359 3.579 56.309 56.92c67.201 67.934 62.037 60.616 62.577 88.657 0.678 35.214-4.385 57.315-17.028 74.319l-5.549 7.467-28.671 12.645c-63.102 27.832-127.251 56.953-127.074 57.686 0.103 0.428 26.559 15.497 58.79 33.489l58.604 32.713 5.304 13.898c30.030 78.665 86.542 141.795 144.879 161.844 11.396 3.916 9.886 1.92 20.703 27.386 7.678 18.077 43.879 100.727 52.67 120.252 1.34 2.978 2.589 5.247 2.775 5.040 0.545-0.605 36.72-82.824 51.653-117.401l13.77-31.881 9.020-2.997c59.679-19.823 113.665-79.6 145.781-161.423l5.863-14.933 118.659-66.101-8.225-3.762c-4.523-2.069-38.108-17.073-74.635-33.343-77.951-34.72-79.928-35.838-85.307-48.333-11.078-25.722-15.543-67.292-9.6-89.335l1.812-6.722 57.23-57.305c35.989-36.037 56.998-57.867 56.604-58.82-0.344-0.832-19.195-22.469-41.895-48.081s-41.93-47.373-42.732-48.361c-2.616-3.212 36.862-72.523 70.887-124.449 1.084-1.656 1.789-3.001 1.563-2.988-0.225 0.014-34.543 23.603-76.262 52.421zM524.97 358.309c18.285 9.465 22.432 33.849 8.221 48.34-18.966 19.339-51.985 6.218-51.882-20.615 0.087-22.946 23.802-38.005 43.662-27.725zM536.724 456.703c91.498 17.3 136.5 123.425 85.738 202.193-49.516 76.837-162.415 80.693-216.989 7.409-72.415-97.24 12.056-232.14 131.251-209.603zM479.109 551.141c-17.676 35.35-31.915 64.841-31.64 65.537 0.467 1.191 40.528 44.796 56.62 61.631l7.366 7.705 5.638-6.076c3.1-3.343 17.626-19.005 32.28-34.809l26.643-28.733-64.77-129.524-32.137 64.268zM328.367 556.444c20.063 10.919 21.328 38.965 2.332 51.743-20.872 14.038-49.14-2.685-46.869-27.729 1.998-22.041 25.189-34.543 44.537-24.013zM718.531 554.169c16.872 5.748 25.147 26.073 17.218 42.28-10.835 22.148-42.933 22.464-54.045 0.536-12.381-24.43 11.002-51.617 36.827-42.816zM523.951 752.94c10.409 4.461 17.522 15.534 17.589 27.379 0.16 27.855-33.228 41.206-52.233 20.886-22.545-24.1 4.174-61.326 34.644-48.265z"></path>
</svg>
