<!-- Generated by IcoMoon.io -->
<svg version="1.1" xmlns="http://www.w3.org/2000/svg" width="1024" height="1024" viewBox="0 0 1024 1024">
<title></title>
<g id="icomoon-ignore">
</g>
<path fill="#000" d="M504.156 123.805c-4.453 15.52-18.684 56.983-31.603 92.155-28.054 76.344-28.633 84.482-6.652 94.134 13.494 5.92 16.926 13.528 16.926 37.518 0 37.109-23.104 44.631-57.954 18.852-27.951-20.67-37.491-16.728-57.516 23.738-17.864 36.114-8.346 50.878 13.837 21.457 44.131-58.511 118.673 53.605 86.626 130.296-6.191 14.808-10.608 32.994-9.817 40.415 3.382 31.774-19.305 85.638-35.115 83.379-24.777-3.549-25.245-46.675-0.679-62.774 42.682-27.968 6.682-122.743-46.902-123.481-43.919-0.606-66.497 51.473-31.73 73.189 17.705 11.050 22.569-10.322 6.106-26.786-15.437-15.437 4.342-28.626 27.274-18.174 39.703 18.092 49.020 99.421 11.39 99.421-20.442 0-38.534 69.708-25.558 98.477 22.698 50.34-1.909 78.285-38.597 43.817-21.554-20.249-24.726-67.871-6.793-101.945 12.675-24.101 9.541-53.422-9.767-91.129-13.376-26.13-45.811-36.494-35.307-11.282 24.3 58.317 17.716 121.722-10.114 97.522-21.057-18.31-30.982-8.346-22.454 22.539 4.123 14.916 5.828 37.593 3.797 50.391-2.32 14.638 1.976 34.866 11.593 54.546 17.514 35.854 13.817 66.423-8.746 72.315-20.29 5.308-23.087 0.548-23.087-39.234 0-39.182-13.499-63.049-44.838-79.255-24.154-12.49-24.981 3.633-2.017 39.247 9.707 15.055 9.178 20.046-4.997 47.243-37.17 71.317 58.317 159.707 101.439 93.89 12.923-19.734 38.506-24.53 62.434-11.726 8.812 4.709 23.118 3.666 42.764-3.135 35.895-12.422 66.998-7.32 97.936 16.063 28.434 21.499 40.715 21.928 72.459 2.576 26.092-15.911 69.5-20.15 77.296-7.555 7.119 11.519 45.884 8.937 56.418-3.764 14.166-17.067 32.218-13.679 60.189 11.282 60.501 54.019 148.377-10.976 113.218-83.745-19.013-39.358-19.010-40.534 0.132-67.418 22.392-31.453-2.649-30.35-36.756 1.614-21.493 20.145-24.656 27.642-22.754 53.946 2.367 32.841-8.499 43.693-27.759 27.698-14.714-12.211-14.066-55.61 1.014-68.127 9.219-7.649 10.998-18.028 7.566-44.174-3.052-23.298-0.906-41.041 6.759-55.722 14.638-28.054 14.813-27.69-10.634-22.594-35.386 7.079-49.446-32.11-26.975-75.199 14.17-27.166 14.16-34.868-0.044-34.868-6.211 0-11.282 4.55-11.282 10.114s-6.776 16.249-15.049 23.738c-16.406 14.846-22.092 88.789-7.519 97.792 15.834 9.79 8.482 67.937-10.896 86.146-29.022 27.268-44.382 16.119-38.464-27.898 8.991-66.889 6.15-85.97-17.904-120.091-26.172-37.123-27.586-46.661-11.522-77.709 14.951-28.921 44.896-30.877 51.793-3.388 5.7 22.721 27.004 25.262 27.004 3.223 0-52.714-83.52-56.854-109.676-5.434-15.914 31.278-14.090 29.644-27.342 24.562-6.214-2.379-15.636-17.517-20.96-33.636-23.168-70.221 42.822-136.939 97.174-98.239 28.834 20.528 34.988 9.117 15.373-28.515-19.078-36.597-35.646-44.493-50.096-23.877-12.142 17.336-23.668 18.852-50.414 6.678-33.691-15.355-33.768-54.142-0.13-66.933 20.839-7.928 22.881-24.384 6.838-55.151-6.178-11.848-11.24-25.849-11.24-31.109s-5.414-27.721-12.035-49.917c-25.11-84.234-32.497-91.684-45.63-45.996zM614.105 610.377c26.746 38.87 27.898 46.237 8.829 56.443-17.434 9.329-34.991-7.585-42.435-40.87-2.782-12.408-6.652-28.492-8.611-35.733-6.977-25.722 19.266-13.19 42.217 20.16z"></path>
</svg>
