<!-- Generated by IcoMoon.io -->
<svg version="1.1" xmlns="http://www.w3.org/2000/svg" width="1024" height="1024" viewBox="0 0 1024 1024">
<title>factions-chaos-rotmire-creed</title>
<path fill="#000" d="M384.569 15.584c-65.629 20.136-104.409 36.543-104.409 44.001 0 3.729-5.22 5.966-11.187 5.966s-32.814 20.882-60.408 46.238c-61.9 57.425-89.494 113.359-100.68 202.106-9.695 73.832-2.983 234.175 11.932 276.684 14.17 40.272 14.17 71.595-0.746 82.782-11.187 8.204-10.441 13.424 11.932 55.188 32.069 59.662 58.917 82.782 97.697 82.782 44.001 0 71.595 17.153 80.544 50.713 4.475 14.916 8.204 32.069 8.204 36.543 0 5.22 5.22 22.373 11.932 38.781 8.204 21.628 20.136 33.56 49.221 49.221 32.814 17.899 47.73 20.882 102.172 22.373 35.052 0 71.595 5.22 80.544 9.695 14.17 7.458 20.136 7.458 35.052-2.237 11.187-7.458 24.611-10.441 37.289-6.712 16.407 3.729 25.357-0.746 52.95-29.085 31.323-31.323 33.56-35.797 33.56-73.832 0-50.713 14.17-66.374 64.883-70.849 60.408-5.22 66.374-8.204 97.697-50.713 32.069-42.509 38.035-61.154 23.119-76.070-11.187-11.187-9.695-47.73 3.729-125.291 20.136-117.833 11.932-278.176-17.899-341.567-35.052-73.832-140.207-167.055-242.379-215.53-45.493-20.882-59.662-23.865-129.766-26.102-65.629-2.237-88.748 0.746-134.986 14.916zM350.263 233.352c-50.713 93.223-76.815 130.512-92.477 130.512-3.729 0-7.458-5.22-7.458-11.932 0-13.424 42.509-117.833 58.917-144.681 17.153-28.34 78.307-81.29 85.765-74.578 3.729 3.729-16.407 47.73-44.747 100.68zM571.014 136.401c0 2.237-19.39 39.526-43.255 83.527-23.119 44.747-50.713 96.951-61.154 117.087-21.628 42.509-64.883 88.748-76.070 82.036-12.678-7.458-1.492-49.967 23.119-90.239 12.678-20.882 23.119-41.764 23.119-46.238 0-13.424 58.917-98.443 87.256-126.037 22.373-20.882 46.984-31.323 46.984-20.136zM657.525 275.116c-5.966 31.323-44.001 105.155-81.29 157.36-37.289 53.696-46.984 55.934-42.509 9.695 1.492-21.628 57.425-129.020 83.527-161.834 28.34-35.797 46.984-38.035 40.272-5.22zM318.195 512.274c109.63 37.289 130.512 58.171 110.375 107.392-18.645 44.001-41.018 56.679-102.172 57.425-37.289 0-59.662-3.729-72.341-11.932-27.594-17.899-48.476-56.679-48.476-90.985 0-24.611 4.475-33.56 26.102-52.95 31.323-26.848 33.56-27.594 86.51-8.949zM793.257 520.477c46.238 33.56 51.459 79.798 14.17 134.986-12.678 19.39-23.119 26.102-42.509 27.594-75.324 7.458-139.461-29.085-146.919-84.273l-3.729-29.831 54.442-35.797c30.577-19.39 63.391-35.052 74.578-35.052 10.441 0 32.814 9.695 49.967 22.373zM564.302 722.584c35.052 60.408 36.543 88.002 5.22 99.189-17.153 5.966-22.373 4.475-34.306-10.441-13.424-17.153-14.916-17.153-26.848-5.22-17.153 17.153-25.357 15.661-42.509-4.475-18.645-22.373-17.899-35.797 8.204-86.51 33.56-67.866 46.984-66.374 90.239 7.458z"></path>
</svg>
