<!-- Generated by IcoMoon.io -->
<svg version="1.1" xmlns="http://www.w3.org/2000/svg" width="100" height="100" viewBox="0 0 32 32">
<title>image2vector-1</title>
<path fill="#000" d="M11.16 6.321c0 0.125-0.017 0.155-0.088 0.155-0.059 0-0.088 0.030-0.088 0.088 0 0.049-0.029 0.088-0.066 0.088s-0.066 0.030-0.066 0.066c0 0.037-0.039 0.066-0.088 0.066-0.059 0-0.088 0.030-0.088 0.088 0 0.049-0.030 0.088-0.066 0.088s-0.066 0.030-0.066 0.066c0 0.037-0.039 0.066-0.088 0.066-0.059 0-0.088 0.030-0.088 0.088 0 0.049-0.030 0.088-0.066 0.088s-0.066 0.030-0.066 0.066c0 0.046-0.047 0.066-0.155 0.066-0.125 0-0.155 0.017-0.155 0.088 0 0.059-0.029 0.088-0.088 0.088-0.049 0-0.088 0.030-0.088 0.066s-0.030 0.066-0.066 0.066c-0.037 0-0.066 0.039-0.066 0.088 0 0.059-0.029 0.088-0.088 0.088-0.049 0-0.088 0.030-0.088 0.066s-0.030 0.066-0.066 0.066c-0.037 0-0.066 0.039-0.066 0.088 0 0.059-0.029 0.088-0.088 0.088-0.049 0-0.088 0.029-0.088 0.066s-0.039 0.066-0.088 0.066c-0.059 0-0.088 0.029-0.088 0.088 0 0.072-0.029 0.088-0.155 0.088-0.108 0-0.155 0.020-0.155 0.066s-0.047 0.066-0.155 0.066c-0.125 0-0.155 0.017-0.155 0.088 0 0.049-0.029 0.088-0.066 0.088s-0.066 0.030-0.066 0.066c0 0.037-0.039 0.066-0.088 0.066-0.074 0-0.088 0.029-0.088 0.177v0.177h-0.179c-0.132 0-0.171 0.015-0.146 0.055 0.023 0.038 0.009 0.036-0.042-0.005-0.068-0.055-0.075-0.045-0.075 0.099 0 0.131-0.016 0.16-0.088 0.16-0.049 0-0.088 0.029-0.088 0.066 0 0.046-0.047 0.066-0.155 0.066-0.125 0-0.155 0.017-0.155 0.088 0 0.049-0.030 0.088-0.066 0.088s-0.066 0.030-0.066 0.066c0 0.046-0.047 0.066-0.155 0.066-0.125 0-0.155 0.017-0.155 0.088 0 0.059-0.029 0.088-0.088 0.088-0.049 0-0.088 0.029-0.088 0.066s-0.030 0.066-0.066 0.066c-0.037 0-0.066 0.039-0.066 0.088 0 0.059-0.029 0.088-0.088 0.088-0.049 0-0.088 0.029-0.088 0.066s-0.039 0.066-0.088 0.066c-0.059 0-0.088 0.030-0.088 0.088 0 0.049-0.030 0.088-0.066 0.088s-0.066 0.030-0.066 0.066c0 0.046-0.047 0.066-0.155 0.066-0.125 0-0.155 0.017-0.155 0.088 0 0.059-0.029 0.088-0.088 0.088-0.049 0-0.088 0.030-0.088 0.066 0 0.046-0.047 0.066-0.155 0.066-0.125 0-0.155 0.017-0.155 0.088 0 0.049-0.029 0.088-0.066 0.088s-0.066 0.030-0.066 0.066c0 0.036 0.030 0.066 0.066 0.066s0.066 0.039 0.066 0.088c0 0.059 0.029 0.088 0.088 0.088s0.088 0.029 0.088 0.088c0 0.049 0.030 0.088 0.066 0.088s0.066 0.030 0.066 0.066c0 0.037 0.039 0.066 0.088 0.066 0.059 0 0.088 0.029 0.088 0.088 0 0.077 0.029 0.088 0.221 0.088 0.167 0 0.221 0.016 0.221 0.066 0 0.037 0.039 0.066 0.088 0.066 0.059 0 0.088 0.029 0.088 0.088s0.029 0.088 0.088 0.088c0.072 0 0.088 0.029 0.088 0.155 0 0.085 0.015 0.152 0.033 0.149 0.138-0.022 0.276 0.014 0.276 0.072 0 0.037 0.030 0.066 0.066 0.066 0.046 0 0.066 0.047 0.066 0.155 0 0.125 0.017 0.155 0.088 0.155 0.059 0 0.088 0.029 0.088 0.088 0 0.072 0.029 0.088 0.155 0.088s0.155-0.017 0.155-0.088c0-0.072 0.029-0.088 0.155-0.088 0.108 0 0.155-0.020 0.155-0.066 0-0.054 0.071-0.066 0.376-0.066h0.376v0.155c0 0.108-0.020 0.155-0.066 0.155-0.050 0-0.066 0.054-0.066 0.221 0 0.191-0.012 0.221-0.088 0.221-0.059 0-0.088 0.030-0.088 0.088s0.030 0.088 0.088 0.088c0.072 0 0.088 0.029 0.088 0.155 0 0.108 0.020 0.155 0.066 0.155 0.036 0 0.066 0.030 0.066 0.066s0.039 0.066 0.088 0.066c0.059 0 0.088 0.029 0.088 0.088 0 0.049 0.030 0.088 0.066 0.088 0.046 0 0.066 0.047 0.066 0.155 0 0.125 0.017 0.155 0.088 0.155 0.059 0 0.088 0.030 0.088 0.088 0 0.049 0.030 0.088 0.066 0.088s0.066 0.030 0.066 0.066c0 0.037 0.039 0.066 0.088 0.066 0.059 0 0.088 0.029 0.088 0.088s0.029 0.088 0.088 0.088c0.049 0 0.088 0.030 0.088 0.066s0.030 0.066 0.066 0.066c0.046 0 0.066 0.047 0.066 0.155 0 0.125 0.017 0.155 0.088 0.155 0.059 0 0.088 0.029 0.088 0.088 0 0.049 0.030 0.088 0.066 0.088s0.066 0.030 0.066 0.066c0 0.037 0.039 0.066 0.088 0.066 0.059 0 0.088 0.029 0.088 0.088 0 0.049 0.029 0.088 0.066 0.088s0.066 0.030 0.066 0.066c0 0.046 0.047 0.066 0.155 0.066 0.147 0 0.155 0.007 0.155 0.155 0 0.125 0.017 0.155 0.088 0.155 0.059 0 0.088 0.029 0.088 0.088 0 0.049 0.029 0.088 0.066 0.088s0.066-0.039 0.066-0.088c0-0.078 0.029-0.088 0.243-0.088s0.243 0.011 0.243 0.088c0 0.049 0.029 0.088 0.066 0.088s0.066 0.030 0.066 0.066c0 0.037 0.039 0.066 0.088 0.066 0.074 0 0.088 0.030 0.088 0.177s-0.015 0.177-0.088 0.177c-0.080 0-0.088 0.029-0.088 0.309v0.309h0.155c0.108 0 0.155 0.020 0.155 0.066 0 0.037 0.039 0.066 0.088 0.066 0.059 0 0.088 0.030 0.088 0.088s0.030 0.088 0.088 0.088c0.049 0 0.088 0.029 0.088 0.066s0.030 0.066 0.066 0.066c0.037 0 0.066 0.039 0.066 0.088 0 0.059 0.030 0.088 0.088 0.088 0.049 0 0.088 0.030 0.088 0.066s0.030 0.066 0.066 0.066c0.037 0 0.066 0.039 0.066 0.088 0 0.059 0.030 0.088 0.088 0.088 0.072 0 0.088 0.030 0.088 0.155 0 0.108 0.020 0.155 0.066 0.155 0.036 0 0.066 0.030 0.066 0.066s0.039 0.066 0.088 0.066c0.059 0 0.088 0.029 0.088 0.088 0 0.049 0.030 0.088 0.066 0.088s0.066 0.030 0.066 0.066c0 0.037 0.039 0.066 0.088 0.066 0.059 0 0.088 0.029 0.088 0.088 0 0.049 0.030 0.088 0.066 0.088 0.046 0 0.066 0.047 0.066 0.155 0 0.125 0.017 0.155 0.088 0.155 0.059 0 0.088 0.029 0.088 0.088 0 0.049 0.029 0.088 0.066 0.088s0.066 0.030 0.066 0.066c0 0.037 0.039 0.066 0.088 0.066 0.059 0 0.088 0.029 0.088 0.088 0 0.049 0.029 0.088 0.066 0.088 0.046 0 0.066 0.047 0.066 0.155 0 0.147 0.007 0.155 0.155 0.155 0.108 0 0.155 0.020 0.155 0.066s0.047 0.066 0.155 0.066c0.108 0 0.155-0.020 0.155-0.066 0-0.053 0.066-0.066 0.332-0.066h0.332v0.309c0 0.28-0.008 0.309-0.088 0.309-0.077 0-0.088 0.029-0.088 0.221v0.221h0.155c0.125 0 0.155 0.017 0.155 0.088 0 0.059 0.030 0.088 0.088 0.088 0.049 0 0.088 0.030 0.088 0.066s0.030 0.066 0.066 0.066c0.037 0 0.066 0.039 0.066 0.088 0 0.059 0.030 0.088 0.088 0.088 0.072 0 0.088 0.030 0.088 0.155 0 0.108 0.020 0.155 0.066 0.155 0.037 0 0.066 0.039 0.066 0.088 0 0.072 0.030 0.088 0.155 0.088s0.155-0.017 0.155-0.088c0-0.059 0.029-0.088 0.088-0.088s0.088-0.029 0.088-0.088c0-0.049 0.030-0.088 0.066-0.088s0.066-0.030 0.066-0.066c0-0.037 0.039-0.066 0.088-0.066 0.059 0 0.088-0.029 0.088-0.088 0-0.049 0.030-0.088 0.066-0.088s0.066-0.030 0.066-0.066c0-0.037 0.039-0.066 0.088-0.066 0.059 0 0.088-0.029 0.088-0.088 0-0.049 0.029-0.088 0.066-0.088s0.066-0.030 0.066-0.066c0-0.037 0.039-0.066 0.088-0.066 0.059 0 0.088-0.030 0.088-0.088s0.029-0.088 0.088-0.088c0.049 0 0.088-0.029 0.088-0.066s0.030-0.066 0.066-0.066c0.037 0 0.066-0.039 0.066-0.088 0-0.059 0.029-0.088 0.088-0.088 0.049 0 0.088-0.029 0.088-0.066 0-0.046 0.047-0.066 0.155-0.066 0.125 0 0.155-0.017 0.155-0.088 0-0.049 0.029-0.088 0.066-0.088s0.066-0.030 0.066-0.066c0-0.037 0.039-0.066 0.088-0.066 0.059 0 0.088-0.029 0.088-0.088 0-0.049 0.029-0.088 0.066-0.088s0.066-0.030 0.066-0.066c0-0.037 0.039-0.066 0.088-0.066 0.072 0 0.088-0.029 0.088-0.155 0-0.147 0.007-0.155 0.155-0.155 0.125 0 0.155-0.017 0.155-0.088s0.029-0.088 0.155-0.088c0.125 0 0.155 0.017 0.155 0.088s0.029 0.088 0.155 0.088c0.125 0 0.155-0.017 0.155-0.088s0.030-0.088 0.155-0.088c0.108 0 0.155-0.020 0.155-0.066 0-0.051 0.056-0.066 0.243-0.066s0.243 0.015 0.243 0.066c0 0.036 0.030 0.066 0.066 0.066s0.066 0.039 0.066 0.088c0 0.059 0.029 0.088 0.088 0.088 0.049 0 0.088 0.029 0.088 0.066s0.030 0.066 0.066 0.066c0.037 0 0.066 0.039 0.066 0.088 0 0.059 0.029 0.088 0.088 0.088 0.049 0 0.088 0.029 0.088 0.066s0.030 0.066 0.066 0.066c0.037 0 0.066 0.039 0.066 0.088 0 0.059 0.029 0.088 0.088 0.088 0.049 0 0.088 0.029 0.088 0.066s0.030 0.066 0.066 0.066c0.037 0 0.066 0.039 0.066 0.088 0 0.059 0.029 0.088 0.088 0.088 0.049 0 0.088 0.029 0.088 0.066s0.030 0.066 0.066 0.066c0.037 0 0.066 0.039 0.066 0.088 0 0.059 0.029 0.088 0.088 0.088 0.049 0 0.088 0.029 0.088 0.066s0.030 0.066 0.066 0.066c0.037 0 0.066 0.039 0.066 0.088 0 0.059 0.029 0.088 0.088 0.088 0.072 0 0.088 0.029 0.088 0.155 0 0.108 0.020 0.155 0.066 0.155 0.036 0 0.066 0.030 0.066 0.066s0.039 0.066 0.088 0.066c0.059 0 0.088 0.029 0.088 0.088 0 0.072 0.029 0.088 0.155 0.088 0.147 0 0.155 0.007 0.155 0.155 0 0.125 0.017 0.155 0.088 0.155 0.059 0 0.088 0.030 0.088 0.088 0 0.077 0.029 0.088 0.221 0.088 0.167 0 0.221 0.016 0.221 0.066 0 0.037 0.039 0.066 0.088 0.066 0.059 0 0.088 0.029 0.088 0.088 0 0.049 0.029 0.088 0.066 0.088s0.066 0.030 0.066 0.066c0 0.037 0.039 0.066 0.088 0.066 0.059 0 0.088 0.029 0.088 0.088 0 0.049 0.030 0.088 0.066 0.088 0.050 0 0.066 0.054 0.066 0.221s-0.016 0.221-0.066 0.221c-0.046 0-0.066 0.047-0.066 0.155 0 0.125-0.017 0.155-0.088 0.155-0.078 0-0.088 0.029-0.088 0.243s0.011 0.243 0.088 0.243c0.049 0 0.088 0.029 0.088 0.066s0.030 0.066 0.066 0.066c0.046 0 0.066 0.047 0.066 0.155 0 0.147 0.007 0.155 0.155 0.155 0.125 0 0.155 0.017 0.155 0.088 0 0.059 0.029 0.088 0.088 0.088s0.088 0.029 0.088 0.088c0 0.081 0.030 0.088 0.376 0.088s0.376-0.007 0.376-0.088c0-0.074 0.029-0.088 0.177-0.088s0.177-0.015 0.177-0.088c0-0.072 0.029-0.088 0.155-0.088 0.108 0 0.155-0.020 0.155-0.066 0-0.036 0.030-0.066 0.066-0.066s0.066-0.039 0.066-0.088c0-0.059 0.029-0.088 0.088-0.088 0.049 0 0.088-0.029 0.088-0.066s0.030-0.066 0.066-0.066c0.037 0 0.066-0.039 0.066-0.088 0-0.059 0.029-0.088 0.088-0.088 0.081 0 0.088-0.030 0.088-0.376s-0.007-0.376-0.088-0.376c-0.059 0-0.088-0.029-0.088-0.088 0-0.049-0.030-0.088-0.066-0.088-0.055 0-0.066-0.081-0.066-0.464v-0.464h0.155c0.125 0 0.155-0.017 0.155-0.088s0.029-0.088 0.155-0.088h0.155v-0.53c0-0.519-0.002-0.53-0.099-0.535-0.075-0.004-0.080-0.010-0.022-0.025 0.083-0.022 0.109-0.146 0.031-0.146-0.026 0-0.036 0.018-0.022 0.040s-0.025 0.017-0.085-0.011c-0.061-0.028-0.11-0.076-0.111-0.106-0-0.034-0.061-0.055-0.155-0.055-0.125 0-0.155-0.017-0.155-0.088s-0.029-0.088-0.155-0.088c-0.125 0-0.155 0.017-0.155 0.088s-0.029 0.088-0.155 0.088c-0.108 0-0.155 0.020-0.155 0.066 0 0.048-0.049 0.066-0.177 0.066-0.147 0-0.177 0.015-0.177 0.088 0 0.072-0.030 0.088-0.155 0.088s-0.155-0.017-0.155-0.088c0-0.072-0.030-0.088-0.155-0.088-0.108 0-0.155-0.020-0.155-0.066 0-0.036-0.030-0.066-0.066-0.066s-0.066-0.039-0.066-0.088c0-0.059-0.029-0.088-0.088-0.088-0.049 0-0.088-0.030-0.088-0.066s-0.030-0.066-0.066-0.066c-0.037 0-0.066-0.039-0.066-0.088 0-0.059-0.029-0.088-0.088-0.088-0.049 0-0.088-0.030-0.088-0.066s-0.030-0.066-0.066-0.066c-0.037 0-0.066-0.039-0.066-0.088 0-0.072-0.029-0.088-0.155-0.088-0.108 0-0.155-0.020-0.155-0.066 0-0.037-0.039-0.066-0.088-0.066-0.059 0-0.088-0.029-0.088-0.088 0-0.049-0.029-0.088-0.066-0.088s-0.066-0.030-0.066-0.066c0-0.037-0.039-0.066-0.088-0.066-0.059 0-0.088-0.029-0.088-0.088 0-0.049-0.029-0.088-0.066-0.088s-0.066-0.039-0.066-0.088c0-0.059-0.030-0.088-0.088-0.088-0.049 0-0.088-0.030-0.088-0.066s-0.039-0.066-0.088-0.066c-0.059 0-0.088-0.029-0.088-0.088 0-0.049-0.029-0.088-0.066-0.088-0.046 0-0.066-0.047-0.066-0.155 0-0.125-0.017-0.155-0.088-0.155-0.049 0-0.088-0.029-0.088-0.066 0-0.046-0.047-0.066-0.155-0.066-0.125 0-0.155-0.017-0.155-0.088 0-0.049-0.030-0.088-0.066-0.088s-0.066-0.030-0.066-0.066c0-0.037-0.039-0.066-0.088-0.066-0.083 0-0.088-0.029-0.088-0.464 0-0.383-0.012-0.464-0.066-0.464-0.037 0-0.066-0.039-0.066-0.088 0-0.059-0.029-0.088-0.088-0.088-0.049 0-0.088-0.030-0.088-0.066s-0.030-0.066-0.066-0.066c-0.048 0-0.066-0.049-0.066-0.177 0-0.173-0.004-0.177-0.155-0.177-0.108 0-0.155-0.020-0.155-0.066 0-0.051-0.056-0.066-0.243-0.066-0.214 0-0.243-0.011-0.243-0.088 0-0.049-0.029-0.088-0.066-0.088s-0.066-0.030-0.066-0.066c0-0.037-0.039-0.066-0.088-0.066-0.059 0-0.088-0.029-0.088-0.088 0-0.049-0.029-0.088-0.066-0.088s-0.066-0.030-0.066-0.066c0-0.037-0.039-0.066-0.088-0.066-0.059 0-0.088-0.029-0.088-0.088s-0.029-0.088-0.088-0.088c-0.049 0-0.088-0.030-0.088-0.066s-0.030-0.066-0.066-0.066c-0.037 0-0.066-0.039-0.066-0.088 0-0.059-0.029-0.088-0.088-0.088-0.049 0-0.088-0.029-0.088-0.066s-0.030-0.066-0.066-0.066c-0.046 0-0.066-0.047-0.066-0.155 0-0.125-0.017-0.155-0.088-0.155-0.059 0-0.088-0.029-0.088-0.088 0-0.049-0.029-0.088-0.066-0.088s-0.066-0.030-0.066-0.066c0-0.037-0.039-0.066-0.088-0.066-0.059 0-0.088-0.029-0.088-0.088 0-0.049-0.029-0.088-0.066-0.088s-0.066-0.030-0.066-0.066c0-0.037-0.039-0.066-0.088-0.066-0.059 0-0.088-0.030-0.088-0.088 0-0.049-0.030-0.088-0.066-0.088-0.046 0-0.066-0.047-0.066-0.155 0-0.147-0.007-0.155-0.155-0.155-0.125 0-0.155-0.017-0.155-0.088 0-0.059-0.029-0.088-0.088-0.088-0.072 0-0.088-0.029-0.088-0.155 0-0.108-0.020-0.155-0.066-0.155-0.036 0-0.066-0.030-0.066-0.066s-0.039-0.066-0.088-0.066c-0.059 0-0.088-0.030-0.088-0.088 0-0.049-0.029-0.088-0.066-0.088s-0.066-0.030-0.066-0.066c0-0.037-0.039-0.066-0.088-0.066-0.059 0-0.088-0.030-0.088-0.088s-0.029-0.088-0.088-0.088c-0.049 0-0.088-0.030-0.088-0.066s-0.030-0.066-0.066-0.066c-0.037 0-0.066-0.039-0.066-0.088 0-0.059-0.029-0.088-0.088-0.088-0.049 0-0.088-0.030-0.088-0.066s-0.030-0.066-0.066-0.066c-0.046 0-0.066-0.047-0.066-0.155 0-0.125-0.017-0.155-0.088-0.155-0.059 0-0.088-0.029-0.088-0.088 0-0.072-0.029-0.088-0.155-0.088-0.108 0-0.155-0.020-0.155-0.066 0-0.037-0.030-0.066-0.066-0.066-0.046 0-0.066-0.047-0.066-0.155 0-0.125-0.017-0.155-0.088-0.155-0.059 0-0.088-0.029-0.088-0.088 0-0.049-0.029-0.088-0.066-0.088s-0.066-0.039-0.066-0.088c0-0.059-0.030-0.088-0.088-0.088-0.049 0-0.088-0.029-0.088-0.066s-0.030-0.066-0.066-0.066c-0.046 0-0.066-0.047-0.066-0.155 0-0.125-0.017-0.155-0.088-0.155-0.059 0-0.088-0.029-0.088-0.088 0-0.049-0.029-0.088-0.066-0.088s-0.066-0.030-0.066-0.066c0-0.037-0.039-0.066-0.088-0.066-0.072 0-0.088-0.029-0.088-0.155 0-0.108-0.020-0.155-0.066-0.155-0.037 0-0.066-0.039-0.066-0.088 0-0.059-0.029-0.088-0.088-0.088-0.049 0-0.088-0.029-0.088-0.066s-0.039-0.066-0.088-0.066c-0.059 0-0.088-0.030-0.088-0.088 0-0.049-0.029-0.088-0.066-0.088s-0.066-0.030-0.066-0.066c0-0.037-0.039-0.066-0.088-0.066-0.059 0-0.088-0.030-0.088-0.088 0-0.049-0.030-0.088-0.066-0.088-0.046 0-0.066-0.047-0.066-0.155 0-0.125-0.017-0.155-0.088-0.155-0.049 0-0.088-0.030-0.088-0.066s-0.030-0.066-0.066-0.066c-0.037 0-0.066-0.039-0.066-0.088 0-0.059-0.029-0.088-0.088-0.088-0.070 0-0.089-0.030-0.089-0.144-0-0.109-0.011-0.128-0.044-0.077-0.024 0.036-0.046 0.051-0.049 0.033s-0.011-0.053-0.017-0.077c-0.006-0.024-0.014-0.084-0.017-0.133-0.004-0.057-0.037-0.088-0.094-0.088-0.049 0-0.088-0.030-0.088-0.066s-0.030-0.066-0.066-0.066c-0.037 0-0.066-0.039-0.066-0.088 0-0.059-0.029-0.088-0.088-0.088-0.072 0-0.088-0.030-0.088-0.155 0-0.108-0.020-0.155-0.066-0.155-0.037 0-0.066-0.030-0.066-0.066s-0.039-0.066-0.088-0.066c-0.059 0-0.088-0.029-0.088-0.088 0-0.049-0.029-0.088-0.066-0.088-0.046 0-0.066-0.047-0.066-0.155 0-0.125-0.017-0.155-0.088-0.155-0.049 0-0.088-0.029-0.088-0.066s-0.030-0.066-0.066-0.066c-0.037 0-0.066-0.039-0.066-0.088 0-0.059-0.030-0.088-0.088-0.088-0.049 0-0.088-0.029-0.088-0.066s-0.030-0.066-0.066-0.066c-0.037 0-0.066-0.039-0.066-0.088 0-0.059-0.030-0.088-0.088-0.088-0.072 0-0.088-0.029-0.088-0.155s-0.017-0.155-0.088-0.155c-0.072 0-0.088-0.029-0.088-0.155v-0.155h-0.442v0.155z"></path>
</svg>
