<!-- Generated by IcoMoon.io -->
<svg version="1.1" xmlns="http://www.w3.org/2000/svg" width="512" height="512" viewBox="0 0 512 512">
<title>factions-order-stormcast-eternals-ruination</title>
<g id="icomoon-ignore">
</g>
<path fill="#000" d="M238.546 68.426c-8.131 8.69-24.565 24.032-36.523 34.091-32.237 27.124-39.702 34.752-66.679 68.142-26.481 32.776-31.303 37.786-64.427 66.958-11.948 10.521-21.764 19.521-21.815 20.001-0.197 1.856 33.092 37.186 37.654 39.964 2.657 1.615 29.364 27.525 59.35 57.575l54.52 54.637-10.577-15.975c-5.817-8.786-15.364-23.95-21.219-33.695-11.064-18.42-30.063-47.354-53.603-81.637l-13.736-20.001 12.438-12.802c6.842-7.042 17.917-16.95 24.612-22.018 6.697-5.069 20.393-17.577 30.436-27.8 16.388-16.681 56.566-49.554 60.563-49.554 2.405 0 3.796 30.491 3.891 85.218 0.091 53.547 1.554 77.452 6.807 111.305 1.855 11.957 5.871 42.088 8.923 66.958 3.054 24.87 6.054 46.627 6.668 48.35 0.616 1.723 3.641-17.062 6.724-41.74s7.19-55.184 9.123-67.79c5.472-35.67 6.797-57.481 7.582-124.909 0.401-34.436 1.288-66.275 1.969-70.757l1.236-8.149 21 15.857c11.55 8.721 31.75 26.084 44.889 38.583s32.502 30.552 43.031 40.118c10.527 9.566 19.187 18.009 19.24 18.762 0.127 1.76-19.906 31.756-25.829 38.678-2.479 2.896-12.724 18.397-22.769 34.448s-25.153 39.789-33.579 52.75c-8.425 12.962-14.986 23.901-14.578 24.306 0.406 0.408 23.894-22.571 52.193-51.060 28.3-28.49 61.665-61.873 74.146-74.188s22.692-23.332 22.692-24.482c0-1.151-12.802-13.529-28.448-27.507-23.902-21.353-33.088-31.126-57.488-61.163-26.904-33.12-31.302-37.656-59.813-61.709-16.926-14.278-36.895-32.673-44.372-40.877-16.645-18.263-16.086-18.282-34.232 1.113z"></path>
</svg>
