<!-- Generated by IcoMoon.io -->
<svg version="1.1" xmlns="http://www.w3.org/2000/svg" width="1024" height="1024" viewBox="0 0 1024 1024">
<title></title>
<g id="icomoon-ignore">
</g>
<path fill="#000" d="M520.009 181.439c-11.362 3.694-22.815 13.547-24.178 20.806-3.829 20.426 1.81 86.459 8.441 98.837 2.249 4.197 4.11 8.955 4.135 10.57 0.232 15.987 15.392 23.954 22.672 11.923 1.7-2.805 5.427-8.592 8.281-12.865s6.31-10.573 7.681-14.009c1.373-3.433 3.689-7.234 5.144-8.441 1.458-1.207 4.886-6.698 7.617-12.194 2.734-5.498 6.468-12.62 8.301-15.821 6.088-10.621 4.623-35.154-2.816-47.113-3.354-5.394-6.619-11.443-7.252-13.447-3.607-11.364-26.060-22.136-38.031-18.251zM400.912 204.749c-13.087 1.128-24.531 8.832-24.531 16.513 0 1.059-2.53 4.584-5.623 7.837-7.614 8.008-9.488 17.22-4.378 21.483 6.754 5.631 26.18 25.255 36.201 36.574 5.337 6.032 16.691 17.074 25.23 24.548l15.53 13.582 2.336-5.345c2.905-6.639 3.385-83.697 0.579-93.655-3.42-12.143-19.678-24.559-30.090-22.979-1.067 0.163-7.928 0.814-15.254 1.447zM659.759 207.506c-23.17 7.77-48.642 32.523-52.305 50.83-1.276 6.387-4.442 18.272-7.035 26.409-12.995 40.775-7.157 45.722 30.884 26.144 56.614-29.135 64.755-36.135 68.374-58.751 4.972-31.111-14.678-53.089-39.918-44.627zM292.605 245.277c-2.496 2.976-7.487 11.489-11.083 18.925-3.599 7.431-8.186 16.691-10.19 20.574-4.472 8.651-4.556 12.6-0.429 20.12 1.756 3.201 9.077 17.322 16.268 31.382s15.354 28.551 18.144 32.211c2.787 3.658 5.070 7.538 5.070 8.62s5.56 7.987 12.357 15.341c6.795 7.359 15.313 16.704 18.925 20.776 16.536 18.631 30.955 11.405 25.153-12.597-2.221-9.172-4.031-18.445-4.031-20.612 0-2.16-1.817-9.468-4.033-16.232-2.818-8.587-4.531-20.893-5.682-40.757-1.115-19.3-2.624-30.35-4.694-34.353-1.682-3.244-3.055-8.166-3.055-10.93 0-23.395-39.775-47.882-52.719-32.461zM732.544 312.957c-2.136 0.452-5.835 1.238-8.219 1.743-5.455 1.164-35.491 28.347-47.096 42.623-4.804 5.912-11.354 13.677-14.555 17.263-3.201 3.589-8.878 10.282-12.617 14.884-3.737 4.6-10.565 12.5-15.175 17.554-15.944 17.478-10.039 26.213 13.792 20.413 6.632-1.616 18.175-3.548 25.646-4.293s20.459-3.403 28.862-5.912c8.401-2.502 24.993-5.557 36.875-6.785 11.885-1.228 23.433-3.354 25.666-4.727 2.231-1.373 7.581-3.446 11.893-4.607 25.524-6.874 34.325-41.49 18.2-71.613-6.644-12.418-40.689-21.322-63.266-16.543zM216.252 319.422c-36.176 9.166-52.954 49.212-30.013 71.616 33.891 33.089 32.191 32.227 82.418 41.891 25.524 4.916 33.549-6.144 17.554-24.199-2.364-2.665-5.797-8.921-7.625-13.901s-4.505-9.501-5.95-10.057c-1.442-0.551-3.717-4.342-5.052-8.419-1.335-4.074-4.919-12.326-7.956-18.325-3.040-6.004-5.526-11.773-5.526-12.827 0-11.778-25.243-28.977-37.85-25.779zM779.129 445.6c-13.011 1.943-31.609 7.875-50.462 16.102-8.541 3.724-17.715 7.428-20.38 8.235-2.668 0.804-10.387 4.396-17.146 7.982-6.759 3.579-13.748 6.553-15.527 6.599-6.213 0.168-22.853 17.011-20.556 20.801 3.053 5.049 18.177 12.104 25.98 12.125 11.699 0.028 50.73 5.667 67.034 9.685 49.281 12.145 81.839 6.535 105.619-18.208 29.238-30.417-19.229-71.575-74.562-63.32zM180.972 476.921c-3.39 3.597-8.38 8.082-11.096 9.976-6.269 4.373-10.093 16.413-7.586 23.928 1.623 4.875 6.18 9.018 23.788 21.626 13.725 9.833 31.897 2.742 64.527-25.181 18.167-15.545 17.123-21.473-4.299-24.51-6.946-0.985-16.316-3.714-20.829-6.062-5.537-2.884-13.113-4.605-23.275-5.292l-15.071-1.021-6.165 6.537zM321.062 547.883c-5.34 1.616-16.255 4.684-24.265 6.823s-16.306 5.473-18.437 7.418c-2.136 1.945-6.422 4.168-9.526 4.937-30.521 7.579-73.52 43.793-86.245 72.645-7.362 16.681-3.124 81.52 5.32 81.52 16.452 0 80.144-49.62 91.177-71.034 2.803-5.437 11.211-18.864 18.683-29.835 7.469-10.971 15.331-22.739 17.47-26.151 3.867-6.188 9.046-13.105 18.652-24.931 5.251-6.458 12.189-18.813 11.088-19.742-6.272-5.263-10.923-5.585-23.915-1.649zM717.022 579.16c-11.134 1.368-12.97 6.387-7.607 20.753 1.598 4.271 4.544 13.879 6.55 21.347 2.004 7.472 6.573 19.964 10.144 27.757l6.496 14.167 17.889 7.668c30.116 12.908 38.077 10.629 45.061-12.888 8.794-29.62 3.837-49.127-14.721-57.914-6.167-2.923-14.828-7.905-19.244-11.073-5.868-4.214-11.642-6.267-21.447-7.627-7.38-1.024-14.292-2.098-15.362-2.379-1.067-0.288-4.559-0.202-7.76 0.194zM633.426 595.206c-2.844 3.14-3.814 8.888-5.008 29.536-0.814 14.098-1.943 28.257-2.509 31.463-4.646 26.279-0.96 53.39 8.704 64.050 4.066 4.485 21.258 41.74 21.258 46.064 0 1.6 1.851 5.261 4.11 8.135 2.264 2.872 5.626 9.325 7.466 14.333 5.955 16.153 32.421 25.031 51.078 17.138 24.993-10.578 31.144-70.86 10.057-98.587-4.722-6.21-9.932-14.506-11.574-18.44s-4.722-8.365-6.841-9.85-5.141-5.189-6.713-8.235c-8.196-15.847-54.761-73.227-63.009-77.638-2.637-1.409-4.36-0.911-7.025 2.029zM365.467 649.025c-8.669 7.152-25.541 20.704-37.49 30.118-16.324 12.858-22.652 19.134-25.442 25.23-2.042 4.464-5.603 10.45-7.908 13.309-11.982 14.843-9.113 84.284 3.686 89.147 21.151 8.041 86.222-41.26 90.5-68.566 0.715-4.567 3.135-13.759 5.368-20.421 6.246-18.611 2.777-67.892-5.376-76.405-6.759-7.053-4.829-7.681-23.333 7.581zM569.062 670.184c-7.778 1.501-25.187 35.673-33.368 65.485-2.262 8.23-5.914 18.504-8.122 22.833-5.817 11.405-4.176 21.779 7.609 47.92 13.445 29.827 21.414 37.493 34.644 33.319 3.025-0.955 11.16-2.251 18.085-2.887 15.088-1.378 17.245-3.26 24.316-21.174 9.973-25.278 7.962-44.844-8.033-78.278-3.658-7.65-8.020-18.499-9.685-24.109-1.667-5.618-4.168-12.023-5.552-14.241-1.384-2.221-3.556-7.528-4.819-11.798-4.031-13.61-6.308-18.445-8.559-18.177-1.205 0.148-4.14 0.638-6.517 1.103zM460.13 698.964c-3.324 2.793-7.173 8.934-8.942 14.254-1.705 5.141-5.261 12.27-7.903 15.849-2.639 3.576-4.796 7.298-4.796 8.276 0 0.97-5.286 12.293-11.739 25.153-19.354 38.537-17.498 61.717 6.103 76.272 12.286 7.579 17.781 6.136 25.947-6.798 2.616-4.151 5.761-8.163 6.984-8.916s4.094-5.414 6.387-10.353c2.29-4.939 6.348-12.041 9.021-15.775 7.071-9.896 6.698-35.882-0.906-63.083-2.984-10.678-6.642-23.995-8.135-29.603-3.099-11.632-4.002-12.028-12.020-5.276z"></path>
</svg>
