<!-- Generated by IcoMoon.io -->
<svg version="1.1" xmlns="http://www.w3.org/2000/svg" width="1024" height="1024" viewBox="0 0 1024 1024">
<title></title>
<g id="icomoon-ignore">
</g>
<path fill="#000" d="M433.189 744.249l-4.264-5.015-5.756-11.877 11.321-11.512c11.491-11.512 17.802-18.194 24.664-24.69l16.686-14.67c14.088-13.178 19.834-19.114 25.214-25.251l3.523-6.872-17.051-14.855c-18.924-15.956-31.531-26.732-44.328-37.308l-10.189-4.275-10.385 8.539c-11.501 12.253-19.104 20.791-26.891 29.341l-4.82 4.079-10.761 11.332c-12.983 12.993-21.511 21.532-30.034 30.071l-9.835 9.094c-10.75 10.396-16.686 16.337-22.616 21.908l-11.681 10.216c-15.945 15.411-25.77 25.992-36.165 36.022l-8.147 5.38c-9.459 8.539-14.66 14.475-20.585 19.871l-15.765 13.919c-10.385 8.734-13.543 9.835-16.13 11.332l-15.205 10.581c-16.141 8.539-24.849 11.512-33.388 14.855l-8.708 3.158-4.46 2.418 9.835 3.148 11.126 2.053c11.491 1.661 20.029 3.338 28.552 4.079l20.77 0.921c20.029-0.18 29.854-0.545 39.493-1.481l15.945-1.481c17.987-5.2 28.187-9.094 38.392-13.374l20.95-9.655c15.58-7.978 20.029-12.073 25.225-14.855l40.239-27.473c6.486-5.2 12.607-10.956 19.289-16.152l10.75-7.798zM536.664 534.638l0.561-0.376 6.486 3.338c9.644 7.994 16.321 14.115 23.368 19.871l11.126 8.539 6.666 4.095 10.2-1.116 3.158-6.692 12.787-11.321c24.664-24.13 42.836-43.445 66.204-56.814l4.079-5.2-7.422-11.697-3.338-6.872 3.899-12.438-0.365-9.655 10.75-9.835c17.062-4.46 27.071-2.973 37.091-2.598l1.857 0.365 8.708 8.354c10.761 18.569 13.543 33.060 5.005 47.91l-2.042 3.899 9.835-1.857 7.967-7.057c9.459-7.237 14.099-15.231 17.622-23.585l7.227-20.791c0.18-20.791-0.365-29.526-2.598-38.424l-3.523-5.756-15.765 7.422-16.31-5.005-12.422-15.972 7.422-7.237 2.963-5.576 11.681-16.337c15.39-20.246 25.77-33.605 35.975-46.794l1.857-1.481 14.829-14.115c14.84-7.057 21.886-7.798 28.372-9.835l5.745-2.598 7.798-20.236-12.062-3.338-20.029-7.613 5.38-11.697 1.116-3.899 1.301-4.835 4.82-5.38 15.39-7.613c10.565-7.237 15.39-8.719 20.585-9.475l9.449-0.741 11.681 3.338 4.079 0.936-1.857-5.576-6.11-7.237c-10.020-8.354-17.622-13.919-28.187-11.697h-1.677c-16.31-3.899-29.293 2.598-38.377 13.178l-34.673 27.849c-3.338 2.418-4.46 5.015-5.015 8.354l-0.545 13.189-10.020-0.196-12.983 11.147-0.921 14.295c-6.486 9.655-11.501 17.633-17.802 24.69l-26.51 27.849c-6.862 7.433-13.358 15.231-20.585 22.468l-5.941 4.82-9.084 0.936c-16.686 7.057-30.594 6.862-43.942 1.106l-9.644-7.602 1.481-9.851c-27.447 4.835-56.935 29.161-56.935 65.167l3.338-2.042 18.543-12.618c23.733-8.914 43.212 0 44.498 16.337l-0.741 7.057-11.671 11.321c-11.877 1.857-17.247 2.598-22.442 3.534l-1.857 0.561-32.256 33.605c-4.82 5.2-4.64 10.020 0.365 15.035l1.481 1.481 3.899 12.813-7.602 10.956-12.607 11.136-4.82 14.295 2.042 6.497zM277.979 491.558l-5.56-16.337c0.741-15.787 2.783-22.844 7.237-28.589l14.088-12.448c12.062-6.682 16.13-9.094 21.326-7.602l12.422 3.338c10.565 9.279 17.062 12.618 22.431 17.077l9.279 10.591-5.941 14.66-6.121 9.835-3.148 6.872 4.82 6.872 14.649 13.734c12.046 10.020 18.363 14.115 23.923 18.934l14.829 12.628c21.701 18.934 36.155 31.563 50.439 44.185l15.205 14.49c20.209 19.114 33.012 30.811 45.614 42.884l10.761 11.321c14.464 13.189 23.913 20.611 32.631 28.6l16.321 15.956c14.088 14.115 20.029 20.246 25.955 26.367l1.301 2.973-4.82 11.321 4.64 11.697 11.126 7.237c12.046 9.851 20.585 18.389 30.229 25.442l37.636 24.13c12.983 7.237 26.51 14.115 40.429 19.495l37.636 10.396c9.084 1.857 18.363 2.233 27.632 2.418l21.511-0.365c19.664-0.936 28.563-0.936 37.091-2.793l18.167-6.317 9.279-3.703-11.681-4.64-10.581-3.158-15.75-8.174c-12.983-7.798-18.924-12.253-25.045-16.527l-5.37-4.64c-9.835-8.354-17.247-14.295-24.108-20.611l-7.422-8.539-5.745-5.56-6.682-2.973-10.2-10.216c-9.824-9.655-15.57-15.411-21.326-20.791l-8.528-7.237c-13.908-13.189-23.368-23.209-33.372-32.303l-139.085-124.399c-4.629-4.264-9.269-6.497-15.57-6.301l-10.2-0.376-13.543-10.216c-11.866-12.993-19.273-21.717-26.875-30.251l-6.862-7.057-7.798-20.246c9.835-12.803 9.644-17.257 5.2-21.908l-26.526-28.589c-4.068-4.64-9.449-6.862-15.009-8.354l-9.644-0.741-13.723-7.237-3.338-12.253 2.783-9.655 8.904-4.46 13.908-3.158c16.686 3.899 27.267 9.835 35.414 19.495l3.338 3.534 2.598 1.301-1.116-7.613c-1.106-20.416-8.147-33.97-19.469-45.857l-2.783-3.714-19.469-11.136c-12.803-6.121-17.062-7.798-21.691-5.941l0.545 1.677-5.56 23.574c-15.39 0.376-20.95 0.18-26.33-0.561l-12.607-5.015-19.844-19.855-8.163-9.094-9.449-7.253c-11.501-11.321-19.844-19.675-27.632-28.214l-17.427-16.527c-4.82-15.035-7.057-18.009-9.094-20.611l-4.264-4.82-7.967-4.079-3.158-16.347c-17.802-14.295-27.447-25.807-37.456-36.763l-7.237-6.682-17.247-2.042c-11.866 0.741-17.612 0.741-22.992 1.677l-19.093 8.343c-8.719 10.771-9.644 13.75-11.321 16.908l8.343-2.598 12.242-1.301 11.681 0.741 15.025 7.422c12.607 7.613 20.209 10.771 20.209 21.548l-0.18 10.761-9.279 10.956-14.088-3.338-2.418-7.433-1.106-0.741-0.561 2.598 4.079 17.088 6.486 14.855 15.39 5.56c13.358 2.598 19.664 5.756 24.664 10.216l11.126 12.628 7.237 7.237 10.189-0.936c11.321 19.13 19.104 32.123 26.526 45.117l7.787 13.554-0.741 15.035-12.607 7.433-15.39-0.18-12.422 3.158c-3.338 13.734-3.534 22.273-3.534 30.811l2.042 15.231c3.338 13.919 7.057 20.236 10.385 26.357l11.136 13.75z"></path>
<path fill="#000" d="M277.979 491.558l-14.464-10.771c-7.787-13.919-11.491-20.236-13.168-26.912l-3.888-14.67c0.18-16.712 0.365-25.251 2.407-33.605l3.714-7.978h14.649l16.871-1.492 7.422-10.396-4.264-17.818c-11.321-19.686-19.104-32.684-26.706-45.497l-5.941-7.042-9.269 1.481-10.761-13.93c-11.126-10.020-17.427-13.178-24.473-14.475l-12.983-2.783-11.491-7.798c-3.899-10.956-5.56-19.13-7.602-26.923v-2.598l0.741-1.481 1.481 1.846 5.745 8.549h13.723l5.941-14.67c0-16.712-7.602-19.871-14.66-23.95l-11.491-6.682-13.168-4.46-12.062-0.196-11.491 2.418-2.042-5.015 16.871-17.077c16.506-3.158 22.251-3.158 27.812-3.158l12.422 0.561 14.84 4.46c13.528 14.67 22.992 26.172 34.493 35.271l6.862 11.332 3.338 13.178 10.009 3.714 5.941 7.613c4.82 15.035 14.268 22.833 22.251 31.563l16.13 16.892c11.501 11.321 15.58 13.734 18.924 16.892l14.649 16.152c7.227 6.497 10.565 7.237 14.088 8.914l5.941 10.020 19.093 1.857c15.4-0.376 23.923-13.178 21.146-23.389l-0.376-1.301 8.539-1.301c12.787 6.121 21.511 11.321 30.409 16.337l3.148 3.158c12.803 13.374 19.844 27.108 20.77 43.635l1.116 7.422-0.376 4.079-3.888-3.158c-9.644-11.501-20.209-17.453-32.086-20.236l-10.385 0.561-11.306 3.158-8.163 5.015-2.598 11.136 8.539 13.554 15.765 1.857c10.189 2.783 15.39 5.005 19.649 9.459l26.51 28.6c4.46 4.82 4.64 9.094 0.936 13.919l-6.682 15.972 11.866 15.776c10.761 12.253 17.987 20.987 25.785 29.341l8.528 9.459 14.649 6.132c11.126-0.561 15.765 1.857 20.405 5.941l139.074 124.388c10.2 9.094 19.649 19.13 29.489 28.409l8.343 7.237c9.824 9.29 15.57 14.855 21.326 20.426l7.787 8.539 9.459 6.692 4.809 2.598 7.978 9.644c10.941 10.216 18.363 16.152 25.59 22.103l5.2 4.82 15.009 10.581c12.983 7.809 19.844 11.512 26.526 15.046l4.444 1.301 13.908 5.2 5.756 2.963-18.183 7.433c-17.792 4.079-26.695 3.899-35.599 4.46l-21.511 1.116c-20.029-0.376-29.489-0.936-38.392-2.793l-37.636-10.396c-13.919-5.38-27.447-12.253-40.429-19.495l-37.636-24.13c-9.644-7.057-18.363-15.596-27.447-23.209l-6.121-3.714-12.242-9.655 4.079-11.697 0.18-9.475-12.787-13.358c-14.088-14.115-22.066-22.468-30.409-30.081l-17.987-15.411c-14.649-13.178-19.664-19.114-25.41-24.51l-38.012-35.647c-7.602-7.237-15.025-14.66-22.807-21.717l-43.016-37.879c-7.422-6.497-14.649-12.813-22.251-18.934l-12.062-8.914c-12.046-10.031-17.987-15.596-24.108-21.352l-4.82-5.38-2.042-6.132 5.015-7.798 5.005-10.216 1.106-17.257c-11.306-9.094-17.792-12.253-22.992-16.908l-11.306-6.121-15.58-0.921c-12.046 6.682-20.389 11.136-26.15 18.934l-6.301 12.813c-0.741 15.776-1.481 24.69 4.64 32.113z"></path>
<path fill="#000" d="M536.664 534.638l-0.376-2.598-3.703-9.475 13.908-12.813 7.602-10.581 3.338-14.67-2.598-7.613-5.941-10.581c15.4-16.337 25.965-27.288 36.53-38.244l1.677-1.116 11.491-1.857 17.062-4.82 7.422-11.332c-1.677-20.236-21.146-29.33-34.869-24.13l-19.093 8.719-11.126 8.549c-1.677-34.906 27.632-59.231 55.258-65.352v2.783l2.026 13.554c19.664 8.539 33.388 8.539 46.915 2.963l5.56-2.963 10.385-1.857c9.459-9.475 15.956-17.268 22.807-24.69l26.526-27.849c6.121-7.057 11.306-15.046 16.506-22.844l1.481-4.46 5.38-17.998 8.528-5.015 9.269-6.682 2.783-12.073c15.205-11.136 27.632-18.749 37.652-30.631 9.084-10.771 22.066-17.268 37.456-13.374l1.677 0.365 18.908 3.158c10.009 8.354 12.422 10.771 14.284 13.374l2.587 5.015 0.741 2.963-7.227-3.338-13.168-1.116-14.649 2.793c-10.581 7.237-17.247 9.835-23.548 13.554l-4.275 3.523-2.963 5.015-1.106 4.64-1.677 3.158-2.042 14.855 19.664 3.338 8.147 13.554-9.084 12.438-16.13 3.714c-14.84 7.057-24.473 10.396-29.113 20.236l-1.677 1.492-31.335 40.842c-5.38 6.862-10.385 14.115-15.39 21.167l-2.598 4.64-2.222 4.079-6.682 15.596 16.686 7.613c11.321 3.899 16.686-0.376 22.627-2.042l6.862-0.376 3.899 22.288c-0.196 20.791-3.158 31.372-7.422 41.583l-8.163 16.337-11.126 9.29-10.565 8.719-4.64-3.714c9.644-16.702 6.862-31.187-1.116-45.106l-7.227-8.354-5.2-4.835-20.77-2.042c-17.051 4.46-22.066 9.094-27.071 13.734l-0.561 2.598 1.301 14.115-4.82 7.798 5.941 9.29 4.079 10.761c-26.706 15.411-44.873 34.541-63.797 53.1l-11.866 10.956-7.422 6.692-7.042 7.237-6.301 0.365-11.681-8.354c-12.422-10.2-19.093-16.337-26.15-22.093l-5.925-3.899-3.523-1.481z"></path>
<path fill="#000" d="M433.189 744.249l-10.565 7.422c-11.681 9.29-17.987 14.855-24.484 20.246l-40.614 28.029c-5.185 2.783-9.824 6.872-15.009 9.655l-20.585 10.396c-20.585 8.734-30.97 12.628-41.355 15.596l-15.57 2.973c-17.622 1.481-27.267 2.042-36.906 2.042l-20.77-0.18c-18.908-1.492-27.447-3.158-35.975-4.46l-6.121-0.561-12.787-3.158-4.82-2.222 8.708-3.354c12.607-5.005 21.326-7.978 29.489-12.253l15.57-10.020 13.543-7.798c10.385-8.734 18.363-15.596 26.15-22.648l11.126-11.332c9.459-8.539 14.088-10.581 17.427-13.919l30.605-30.642c5.56-5.38 11.671-10.2 17.236-15.596l11.877-11.512c10.75-10.396 15.945-14.66 20.574-19.299l17.247-17.088c12.983-12.993 17.062-17.633 21.521-22.093l5.005-4.079c10.009-10.771 17.427-19.495 25.41-27.849l7.787-7.253 12.983-3.899c16.31 13.554 28.917 24.325 41.535 35.097l12.607 10.581 11.126 11.877-15.205 16.712c-14.088 13.189-22.627 20.426-30.774 28.044l-13.358 13.178c-11.491 11.512-16.31 16.337-21.13 21.167l-0.196 8.914 5.941 6.862z"></path>
</svg>
