<!-- Generated by IcoMoon.io -->
<svg version="1.1" xmlns="http://www.w3.org/2000/svg" width="100" height="100" viewBox="0 0 32 32">
<title>image2vector-4</title>
<path fill="#000" d="M22.297 4c0 0.046-0.027 0.082-0.062 0.082s-0.061 0.028-0.061 0.061c0 0.034-0.036 0.062-0.082 0.062-0.066 0-0.082 0.027-0.082 0.144s-0.016 0.144-0.082 0.144c-0.055 0-0.082 0.027-0.082 0.082 0 0.046-0.027 0.082-0.061 0.082s-0.062 0.028-0.062 0.062c0 0.050-0.068 0.062-0.369 0.062-0.342 0-0.369 0.006-0.369 0.082 0 0.046-0.027 0.082-0.061 0.082s-0.062 0.028-0.062 0.061c0 0.034-0.036 0.062-0.082 0.062-0.077 0-0.082 0.027-0.082 0.451 0 0.374-0.011 0.451-0.062 0.451-0.034 0-0.061 0.028-0.061 0.062s-0.036 0.061-0.082 0.061c-0.055 0-0.082 0.027-0.082 0.082 0 0.046-0.027 0.082-0.062 0.082s-0.062 0.028-0.062 0.062c0 0.043-0.043 0.062-0.144 0.062h-0.144v0.287c0 0.228 0.013 0.287 0.062 0.287s0.061 0.059 0.061 0.287c0 0.228-0.013 0.287-0.061 0.287-0.034 0-0.062 0.036-0.062 0.082 0 0.055-0.027 0.082-0.082 0.082-0.046 0-0.082 0.027-0.082 0.062s-0.028 0.061-0.062 0.061c-0.047 0-0.061 0.052-0.061 0.226s0.014 0.226 0.061 0.226c0.043 0 0.062 0.043 0.062 0.144 0 0.116 0.016 0.144 0.082 0.144 0.076 0 0.082 0.027 0.082 0.369 0 0.301 0.011 0.369 0.062 0.369 0.043 0 0.061 0.043 0.061 0.144 0 0.116 0.016 0.144 0.082 0.144s0.082 0.027 0.082 0.144c0 0.1 0.019 0.144 0.062 0.144 0.051 0 0.062 0.084 0.062 0.513s-0.010 0.513-0.062 0.513c-0.043 0-0.062 0.043-0.062 0.144 0 0.116-0.016 0.144-0.082 0.144-0.046 0-0.082 0.027-0.082 0.062 0 0.049-0.059 0.062-0.287 0.062s-0.287-0.013-0.287-0.062c0-0.043-0.043-0.062-0.144-0.062-0.116 0-0.144-0.016-0.144-0.082 0-0.055-0.027-0.082-0.082-0.082-0.046 0-0.082-0.027-0.082-0.062 0-0.047-0.050-0.062-0.205-0.062-0.178 0-0.205-0.011-0.205-0.082 0-0.066-0.027-0.082-0.139-0.082-0.086 0-0.148-0.024-0.163-0.062-0.014-0.036-0.075-0.062-0.148-0.062-0.097 0-0.124-0.018-0.124-0.082 0-0.055-0.027-0.082-0.082-0.082-0.066 0-0.082-0.027-0.082-0.144 0-0.1-0.019-0.144-0.062-0.144-0.052 0-0.062-0.107-0.062-0.718 0-0.691-0.003-0.718-0.082-0.718-0.046 0-0.082 0.027-0.082 0.062s-0.028 0.062-0.061 0.062c-0.034 0-0.062 0.036-0.062 0.082 0 0.055-0.027 0.082-0.082 0.082-0.046 0-0.082 0.027-0.082 0.062s-0.028 0.062-0.062 0.062c-0.034 0-0.061 0.036-0.061 0.082 0 0.055-0.027 0.082-0.082 0.082-0.074 0-0.082 0.027-0.082 0.287 0 0.228-0.013 0.287-0.061 0.287-0.043 0-0.062 0.043-0.062 0.144v0.144h-0.738v-0.144c0-0.116-0.016-0.144-0.082-0.144s-0.082-0.027-0.082-0.144v-0.144h-0.41v0.144c0 0.137-0.007 0.144-0.144 0.144-0.1 0-0.144 0.019-0.144 0.062 0 0.034-0.036 0.062-0.082 0.062s-0.082-0.027-0.082-0.062c0-0.043-0.043-0.062-0.144-0.062h-0.144v-0.226c0-0.173-0.014-0.226-0.062-0.226-0.034 0-0.062-0.028-0.062-0.062 0-0.043-0.043-0.062-0.144-0.062s-0.144 0.019-0.144 0.062c0 0.034-0.036 0.062-0.082 0.062-0.055 0-0.082 0.027-0.082 0.082s-0.027 0.082-0.082 0.082c-0.066 0-0.082 0.027-0.082 0.144 0 0.1-0.019 0.144-0.062 0.144s-0.062 0.043-0.062 0.144v0.144h-0.574c-0.547 0-0.574-0.004-0.574-0.082 0-0.066-0.027-0.082-0.144-0.082-0.1 0-0.144-0.019-0.144-0.062 0-0.034-0.036-0.062-0.082-0.062s-0.082 0.027-0.082 0.062c0 0.035-0.037 0.062-0.085 0.062-0.067 0-0.080 0.019-0.062 0.092 0.013 0.051 0.013 0.070 0 0.043-0.068-0.146-0.141 0.009-0.141 0.3 0 0.242-0.012 0.303-0.062 0.303-0.034 0-0.062 0.036-0.062 0.082 0 0.066-0.027 0.082-0.144 0.082-0.1 0-0.144 0.019-0.144 0.062 0 0.047-0.052 0.062-0.226 0.062s-0.226-0.014-0.226-0.062c0-0.047-0.052-0.062-0.226-0.062s-0.226 0.014-0.226 0.062c0 0.034-0.028 0.062-0.062 0.062-0.049 0-0.062 0.059-0.062 0.287 0 0.26-0.008 0.287-0.082 0.287-0.055 0-0.082 0.027-0.082 0.082 0 0.046-0.027 0.082-0.062 0.082s-0.062 0.028-0.062 0.062c0 0.043-0.043 0.062-0.144 0.062-0.116 0-0.144 0.016-0.144 0.082 0 0.074-0.027 0.082-0.287 0.082s-0.287-0.008-0.287-0.082c0-0.055-0.027-0.082-0.082-0.082-0.046 0-0.082-0.027-0.082-0.062 0-0.047-0.052-0.062-0.226-0.062h-0.226v0.287c0 0.26 0.008 0.287 0.082 0.287 0.066 0 0.082 0.027 0.082 0.144s-0.016 0.144-0.082 0.144c-0.046 0-0.082 0.027-0.082 0.062s-0.028 0.062-0.062 0.062c-0.034 0-0.062 0.036-0.062 0.082 0 0.055-0.027 0.082-0.082 0.082s-0.082-0.027-0.082-0.082c0-0.066-0.027-0.082-0.144-0.082-0.1 0-0.144-0.019-0.144-0.062 0-0.034-0.028-0.062-0.062-0.062s-0.062-0.036-0.062-0.082c0-0.055-0.027-0.082-0.082-0.082-0.046 0-0.082-0.027-0.082-0.062 0-0.043-0.043-0.062-0.144-0.062s-0.144 0.019-0.144 0.062c0 0.034-0.028 0.062-0.062 0.062-0.043 0-0.061 0.043-0.061 0.144 0 0.116-0.016 0.144-0.082 0.144-0.055 0-0.082 0.027-0.082 0.082 0 0.046-0.027 0.082-0.062 0.082s-0.061 0.028-0.061 0.062c0 0.043-0.043 0.062-0.144 0.062s-0.144-0.019-0.144-0.062-0.043-0.062-0.144-0.062h-0.144v-0.226c0-0.198-0.010-0.226-0.082-0.226-0.046 0-0.082-0.027-0.082-0.062s-0.028-0.062-0.062-0.062-0.062 0.028-0.062 0.062c0 0.044-0.046 0.062-0.164 0.062-0.137 0-0.164 0.014-0.164 0.082 0 0.071-0.027 0.082-0.205 0.082s-0.205-0.011-0.205-0.082c0-0.060-0.027-0.082-0.101-0.082-0.068 0-0.094-0.018-0.080-0.055 0.015-0.039-0.021-0.056-0.124-0.060-0.108-0.004-0.145 0.011-0.145 0.060 0 0.046 0.028 0.060 0.096 0.047 0.081-0.016 0.093-0.004 0.077 0.077-0.013 0.068 0.001 0.096 0.048 0.096 0.048 0 0.066 0.039 0.066 0.144 0 0.116 0.016 0.144 0.082 0.144s0.082 0.027 0.082 0.144c0 0.1 0.019 0.144 0.061 0.144 0.034 0 0.062 0.036 0.062 0.082 0 0.066 0.027 0.082 0.144 0.082 0.1 0 0.144 0.019 0.144 0.062 0 0.034 0.036 0.062 0.082 0.062 0.055 0 0.082 0.027 0.082 0.082s0.027 0.082 0.082 0.082c0.046 0 0.082 0.027 0.082 0.062s0.028 0.062 0.062 0.062c0.056 0 0.080 0.050 0.065 0.136-0.003 0.019 0.013 0.022 0.037 0.007s0.032-0.044 0.019-0.065c-0.013-0.021-0.006-0.038 0.015-0.038s0.050 0.028 0.063 0.062c0.013 0.034 0.052 0.062 0.087 0.062s0.063 0.028 0.063 0.062c0 0.047 0.052 0.062 0.226 0.062 0.198 0 0.226 0.010 0.226 0.082 0 0.079 0.027 0.082 0.862 0.082s0.862-0.003 0.862-0.082c0-0.072 0.027-0.082 0.226-0.082 0.173 0 0.226-0.014 0.226-0.062s0.050-0.062 0.205-0.062c0.178 0 0.205-0.011 0.205-0.082 0-0.066 0.027-0.082 0.144-0.082 0.1 0 0.144-0.019 0.144-0.062s0.043-0.062 0.144-0.062c0.116 0 0.144-0.016 0.144-0.082 0-0.055 0.027-0.082 0.082-0.082 0.046 0 0.082-0.027 0.082-0.062 0-0.047 0.050-0.062 0.205-0.062 0.178 0 0.205-0.011 0.205-0.082 0-0.066 0.027-0.082 0.144-0.082s0.144-0.016 0.144-0.082c0-0.055 0.027-0.082 0.082-0.082 0.046 0 0.082-0.027 0.082-0.062 0-0.047 0.052-0.062 0.226-0.062 0.198 0 0.226-0.010 0.226-0.082 0-0.077 0.027-0.082 0.431-0.082 0.356 0 0.431-0.011 0.431-0.062 0-0.049 0.059-0.062 0.287-0.062 0.26 0 0.287-0.008 0.287-0.082 0-0.077 0.027-0.082 0.431-0.082 0.356 0 0.431-0.011 0.431-0.062 0-0.049 0.061-0.062 0.304-0.062 0.284 0 0.302-0.005 0.282-0.082-0.019-0.071-0.001-0.082 0.127-0.082 0.121 0 0.148 0.015 0.148 0.082 0 0.074 0.027 0.082 0.287 0.082 0.228 0 0.287 0.013 0.287 0.062s0.059 0.062 0.287 0.062c0.26 0 0.287 0.008 0.287 0.082 0 0.066 0.027 0.082 0.144 0.082 0.1 0 0.144 0.019 0.144 0.062 0 0.044 0.046 0.062 0.164 0.062 0.137 0 0.164 0.014 0.164 0.082 0 0.071 0.027 0.082 0.205 0.082 0.155 0 0.205 0.015 0.205 0.062 0 0.034 0.036 0.062 0.082 0.062 0.055 0 0.082 0.027 0.082 0.082 0 0.066 0.027 0.082 0.144 0.082s0.144 0.016 0.144 0.082c0 0.046 0.027 0.082 0.062 0.082 0.046 0 0.062 0.050 0.062 0.205 0 0.178 0.011 0.205 0.082 0.205 0.055 0 0.082 0.027 0.082 0.082s-0.027 0.082-0.082 0.082c-0.046 0-0.082 0.027-0.082 0.062s-0.028 0.062-0.062 0.062c-0.034 0-0.062 0.036-0.062 0.082 0 0.074-0.027 0.082-0.287 0.082s-0.287-0.008-0.287-0.082c0-0.066-0.027-0.082-0.144-0.082-0.1 0-0.144-0.019-0.144-0.062 0-0.044-0.046-0.062-0.164-0.062-0.137 0-0.164-0.014-0.164-0.082 0-0.066-0.027-0.082-0.144-0.082-0.1 0-0.144-0.019-0.144-0.062 0-0.051-0.082-0.062-0.492-0.062-0.465 0-0.492-0.005-0.492-0.082 0-0.079-0.027-0.082-0.8-0.082s-0.8 0.003-0.8 0.082c0 0.077-0.027 0.082-0.431 0.082-0.356 0-0.431 0.011-0.431 0.062 0 0.047-0.052 0.062-0.226 0.062-0.198 0-0.226 0.010-0.226 0.082 0 0.071-0.027 0.082-0.205 0.082-0.155 0-0.205 0.015-0.205 0.062 0 0.043-0.043 0.062-0.144 0.062-0.116 0-0.144 0.016-0.144 0.082 0 0.068-0.027 0.082-0.164 0.082-0.119 0-0.164 0.017-0.164 0.062 0 0.034-0.028 0.062-0.062 0.062s-0.062 0.036-0.062 0.082c0 0.066-0.027 0.082-0.144 0.082-0.1 0-0.144 0.019-0.144 0.062 0 0.034-0.036 0.062-0.082 0.062-0.055 0-0.082 0.027-0.082 0.082 0 0.071-0.027 0.082-0.205 0.082-0.155 0-0.205 0.015-0.205 0.062 0 0.043-0.043 0.062-0.144 0.062-0.116 0-0.144 0.016-0.144 0.082 0 0.055-0.027 0.082-0.082 0.082-0.066 0-0.082 0.027-0.082 0.144 0 0.1-0.019 0.144-0.062 0.144-0.034 0-0.062 0.028-0.062 0.062s-0.036 0.062-0.082 0.062c-0.068 0-0.082 0.027-0.082 0.164 0 0.119-0.017 0.164-0.062 0.164-0.034 0-0.062 0.028-0.062 0.062s-0.036 0.062-0.082 0.062c-0.066 0-0.082 0.027-0.082 0.144 0 0.1-0.019 0.144-0.062 0.144-0.034 0-0.062 0.036-0.062 0.082 0 0.055-0.027 0.082-0.082 0.082-0.066 0-0.082 0.027-0.082 0.144s-0.016 0.144-0.082 0.144c-0.066 0-0.082 0.027-0.082 0.144 0 0.1-0.019 0.144-0.062 0.144s-0.062 0.043-0.062 0.144c0 0.116-0.016 0.144-0.082 0.144-0.046 0-0.082 0.027-0.082 0.062s-0.028 0.061-0.062 0.061c-0.049 0-0.062 0.059-0.062 0.287 0 0.26-0.008 0.287-0.082 0.287-0.072 0-0.082 0.027-0.082 0.226 0 0.173-0.014 0.226-0.062 0.226s-0.062 0.052-0.062 0.226c0 0.198-0.010 0.226-0.082 0.226-0.079 0-0.082 0.027-0.082 0.779s0.003 0.779 0.082 0.779c0.077 0 0.082 0.027 0.082 0.451 0 0.374 0.011 0.451 0.062 0.451 0.044 0 0.062 0.045 0.062 0.16 0 0.127 0.015 0.158 0.072 0.154s0.074 0.033 0.084 0.189c0.009 0.137 0.030 0.195 0.072 0.195 0.044 0 0.059 0.056 0.059 0.226 0 0.198 0.010 0.226 0.082 0.226 0.066 0 0.082 0.027 0.082 0.144 0 0.1 0.019 0.144 0.062 0.144s0.062 0.043 0.062 0.144c0 0.116 0.016 0.144 0.082 0.144s0.082 0.027 0.082 0.144 0.016 0.144 0.082 0.144 0.082 0.027 0.082 0.144c0 0.1 0.019 0.144 0.062 0.144 0.034 0 0.062 0.036 0.062 0.082 0 0.055 0.027 0.082 0.082 0.082 0.046 0 0.082 0.027 0.082 0.062s0.028 0.061 0.062 0.061c0.034 0 0.062 0.036 0.062 0.082 0 0.055 0.027 0.082 0.082 0.082 0.046 0 0.082 0.027 0.082 0.062s0.028 0.062 0.062 0.062c0.034 0 0.062 0.036 0.062 0.082 0 0.055 0.027 0.082 0.082 0.082 0.046 0 0.082 0.027 0.082 0.061s0.028 0.062 0.062 0.062c0.034 0 0.062 0.036 0.062 0.082 0 0.055 0.027 0.082 0.082 0.082 0.046 0 0.082 0.027 0.082 0.062 0 0.043 0.043 0.061 0.144 0.061 0.116 0 0.144 0.016 0.144 0.082 0 0.046 0.027 0.082 0.062 0.082s0.062 0.028 0.062 0.062c0 0.043 0.043 0.062 0.144 0.062 0.116 0 0.144 0.016 0.144 0.082 0 0.055 0.027 0.082 0.082 0.082 0.046 0 0.082 0.027 0.082 0.061 0 0.047 0.052 0.062 0.226 0.062 0.198 0 0.226 0.010 0.226 0.082 0 0.066 0.027 0.082 0.144 0.082 0.1 0 0.144 0.019 0.144 0.062 0 0.046 0.050 0.061 0.205 0.061 0.178 0 0.205 0.011 0.205 0.082 0 0.081 0.027 0.082 1.744 0.082s1.744-0.001 1.744-0.082c0-0.071 0.027-0.082 0.205-0.082 0.155 0 0.205-0.015 0.205-0.061s0.052-0.062 0.226-0.062c0.198 0 0.226-0.010 0.226-0.082s0.027-0.082 0.226-0.082c0.173 0 0.226-0.014 0.226-0.062 0-0.034 0.028-0.061 0.061-0.061s0.062-0.036 0.062-0.082c0-0.066 0.027-0.082 0.144-0.082 0.1 0 0.144-0.019 0.144-0.062s0.043-0.062 0.144-0.062c0.116 0 0.144-0.016 0.144-0.082 0-0.055 0.027-0.082 0.082-0.082 0.046 0 0.082-0.027 0.082-0.061 0-0.043 0.043-0.062 0.144-0.062 0.116 0 0.144-0.016 0.144-0.082 0-0.046 0.027-0.082 0.062-0.082s0.061-0.028 0.061-0.062c0-0.034 0.036-0.061 0.082-0.061 0.055 0 0.082-0.027 0.082-0.082 0-0.046 0.027-0.082 0.062-0.082s0.062-0.028 0.062-0.062c0-0.034 0.036-0.062 0.082-0.062 0.055 0 0.082-0.027 0.082-0.082 0-0.046 0.027-0.082 0.061-0.082s0.062-0.028 0.062-0.061c0-0.034 0.036-0.062 0.082-0.062 0.055 0 0.082-0.027 0.082-0.082s0.027-0.082 0.082-0.082c0.046 0 0.082-0.027 0.082-0.062s0.028-0.061 0.062-0.061c0.034 0 0.061-0.036 0.061-0.082 0-0.066 0.027-0.082 0.144-0.082s0.144 0.016 0.144 0.082c0 0.055 0.027 0.082 0.082 0.082 0.071 0 0.082 0.027 0.082 0.205s-0.011 0.205-0.082 0.205c-0.077 0-0.082 0.027-0.082 0.431s0.005 0.431 0.082 0.431c0.074 0 0.082 0.027 0.082 0.287 0 0.228 0.013 0.287 0.062 0.287s0.061 0.059 0.061 0.287c0 0.26 0.008 0.287 0.082 0.287 0.068 0 0.082 0.027 0.082 0.164 0 0.119 0.017 0.164 0.062 0.164 0.034 0 0.062 0.028 0.062 0.062s0.036 0.061 0.082 0.061c0.066 0 0.082 0.027 0.082 0.144 0 0.1 0.019 0.144 0.061 0.144s0.062 0.043 0.062 0.144c0 0.116 0.016 0.144 0.082 0.144 0.055 0 0.082 0.027 0.082 0.082 0 0.046 0.027 0.082 0.062 0.082s0.061 0.028 0.061 0.062c0 0.034 0.036 0.061 0.082 0.061 0.055 0 0.082 0.027 0.082 0.082 0 0.066 0.027 0.082 0.144 0.082 0.1 0 0.144 0.019 0.144 0.062 0 0.034 0.028 0.062 0.061 0.062s0.062 0.036 0.062 0.082c0 0.066 0.027 0.082 0.144 0.082 0.1 0 0.144 0.019 0.144 0.061 0 0.044 0.046 0.062 0.164 0.062 0.137 0 0.164 0.014 0.164 0.082 0 0.071 0.027 0.082 0.205 0.082 0.155 0 0.205 0.015 0.205 0.062 0 0.053 0.116 0.061 0.8 0.061s0.8-0.009 0.8-0.061c0-0.043 0.043-0.062 0.144-0.062 0.116 0 0.144-0.016 0.144-0.082 0-0.055 0.027-0.082 0.082-0.082 0.046 0 0.082-0.027 0.082-0.062s0.028-0.061 0.061-0.061c0.034 0 0.062-0.036 0.062-0.082 0-0.055 0.027-0.082 0.082-0.082 0.046 0 0.082-0.027 0.082-0.062s0.028-0.062 0.062-0.062c0.034 0 0.061-0.036 0.061-0.082 0-0.055 0.027-0.082 0.082-0.082 0.046 0 0.082-0.027 0.082-0.061s0.028-0.062 0.062-0.062c0.047 0 0.062-0.052 0.062-0.226 0-0.198 0.010-0.226 0.082-0.226 0.066 0 0.082-0.027 0.082-0.144 0-0.1 0.019-0.144 0.061-0.144 0.050 0 0.062-0.068 0.062-0.369 0-0.342 0.006-0.369 0.082-0.369 0.066 0 0.082-0.027 0.082-0.144s-0.016-0.144-0.082-0.144c-0.078 0-0.082-0.027-0.082-0.492 0-0.41-0.010-0.492-0.062-0.492-0.034 0-0.061-0.036-0.061-0.082 0-0.055-0.027-0.082-0.082-0.082-0.046 0-0.082-0.027-0.082-0.062s-0.028-0.062-0.062-0.062c-0.034 0-0.062-0.036-0.062-0.082 0-0.055-0.027-0.082-0.082-0.082-0.046 0-0.082-0.027-0.082-0.061s-0.028-0.062-0.061-0.062c-0.034 0-0.062-0.036-0.062-0.082 0-0.055-0.027-0.082-0.082-0.082-0.046 0-0.082-0.027-0.082-0.062 0-0.053-0.116-0.061-0.8-0.061s-0.8 0.009-0.8 0.061c0 0.043-0.043 0.062-0.144 0.062-0.116 0-0.144 0.016-0.144 0.082 0 0.046-0.027 0.082-0.062 0.082-0.043 0-0.062 0.043-0.062 0.144 0 0.116-0.016 0.144-0.082 0.144-0.046 0-0.082 0.027-0.082 0.062s-0.028 0.062-0.061 0.062c-0.047 0-0.062 0.052-0.062 0.226 0 0.124-0.018 0.226-0.041 0.226s-0.041 0.028-0.041 0.062c0 0.034 0.018 0.061 0.041 0.061 0.024 0 0.041 0.15 0.041 0.369 0 0.301 0.011 0.369 0.062 0.369 0.034 0 0.061 0.028 0.061 0.062s0.036 0.061 0.082 0.061c0.055 0 0.082 0.027 0.082 0.082 0 0.046 0.027 0.082 0.062 0.082s0.062 0.028 0.062 0.062c0 0.043 0.043 0.062 0.144 0.062 0.116 0 0.144 0.016 0.144 0.082 0 0.072 0.027 0.082 0.226 0.082s0.226-0.010 0.226-0.082c0-0.046 0.027-0.082 0.062-0.082 0.046 0 0.062-0.050 0.062-0.205s-0.015-0.205-0.062-0.205c-0.034 0-0.062-0.036-0.062-0.082 0-0.066-0.027-0.082-0.144-0.082-0.1 0-0.144-0.019-0.144-0.062 0-0.034-0.036-0.061-0.082-0.061-0.074 0-0.082-0.027-0.082-0.287s0.008-0.287 0.082-0.287c0.055 0 0.082-0.027 0.082-0.082 0-0.046 0.027-0.082 0.062-0.082s0.061-0.028 0.061-0.062c0-0.050 0.068-0.061 0.369-0.061s0.369 0.011 0.369 0.061c0 0.034 0.028 0.062 0.062 0.062s0.061 0.036 0.061 0.082c0 0.055 0.027 0.082 0.082 0.082 0.066 0 0.082 0.027 0.082 0.144s0.016 0.144 0.082 0.144c0.078 0 0.082 0.027 0.082 0.574s-0.004 0.574-0.082 0.574c-0.066 0-0.082 0.027-0.082 0.144 0 0.137-0.007 0.144-0.144 0.144-0.116 0-0.144 0.016-0.144 0.082 0 0.055-0.027 0.082-0.082 0.082-0.046 0-0.082 0.027-0.082 0.062 0 0.043-0.043 0.062-0.144 0.062-0.116 0-0.144 0.016-0.144 0.082 0 0.076-0.027 0.082-0.349 0.082s-0.349-0.006-0.349-0.082c0-0.066-0.027-0.082-0.144-0.082-0.1 0-0.144-0.019-0.144-0.062s-0.043-0.062-0.144-0.062c-0.116 0-0.144-0.016-0.144-0.082 0-0.051-0.027-0.082-0.072-0.082-0.039-0-0.093-0.046-0.119-0.102s-0.031-0.102-0.010-0.102c0.020 0 0.037-0.018 0.037-0.040s-0.028-0.029-0.062-0.016c-0.045 0.017-0.061-0.005-0.061-0.083 0-0.080-0.021-0.107-0.082-0.107-0.046 0-0.082-0.027-0.082-0.062s-0.036-0.062-0.082-0.062c-0.066 0-0.082-0.027-0.082-0.144 0-0.1-0.019-0.144-0.061-0.144-0.047 0-0.062-0.052-0.062-0.226 0-0.198-0.010-0.226-0.082-0.226-0.077 0-0.082-0.027-0.082-0.431s0.005-0.431 0.082-0.431c0.066 0 0.082-0.027 0.082-0.144 0-0.1 0.019-0.144 0.062-0.144s0.061-0.043 0.061-0.144c0-0.116 0.016-0.144 0.082-0.144 0.046 0 0.082-0.027 0.082-0.062s0.036-0.061 0.082-0.061c0.055 0 0.082-0.027 0.082-0.082 0-0.046 0.027-0.082 0.061-0.082 0.043 0 0.062-0.043 0.062-0.144 0-0.11 0.017-0.144 0.072-0.144 0.040 0 0.095-0.037 0.123-0.082 0.029-0.046 0.096-0.082 0.153-0.082 0.064 0 0.102-0.023 0.102-0.062 0-0.052 0.091-0.061 0.574-0.061h0.574v-0.144c0-0.116-0.016-0.144-0.082-0.144-0.055 0-0.082-0.027-0.082-0.082 0-0.066-0.027-0.082-0.144-0.082h-0.144v-0.574h0.144c0.1 0 0.144-0.019 0.144-0.061 0-0.034 0.036-0.062 0.082-0.062s0.082 0.027 0.082 0.062c0 0.051 0.075 0.061 0.431 0.061s0.431-0.011 0.431-0.061c0-0.034 0.036-0.062 0.082-0.062 0.072 0 0.082-0.027 0.082-0.226v-0.226h-0.308c-0.246 0-0.308-0.012-0.308-0.062 0-0.034-0.028-0.061-0.061-0.061s-0.062-0.036-0.062-0.082c0-0.055-0.027-0.082-0.082-0.082-0.066 0-0.082-0.027-0.082-0.144s0.016-0.144 0.082-0.144c0.055 0 0.082-0.027 0.082-0.082 0-0.046 0.027-0.082 0.062-0.082s0.061-0.028 0.061-0.062c0-0.051 0.078-0.061 0.451-0.061 0.424 0 0.451-0.005 0.451-0.082 0-0.046 0.027-0.082 0.062-0.082s0.062-0.028 0.062-0.062c0-0.034 0.036-0.062 0.082-0.062 0.055 0 0.082-0.027 0.082-0.082 0-0.046 0.027-0.082 0.061-0.082s0.062-0.028 0.062-0.061c0-0.034-0.028-0.062-0.062-0.062s-0.061-0.036-0.061-0.082c0-0.055-0.027-0.082-0.082-0.082s-0.082 0.027-0.082 0.082c0 0.071-0.027 0.082-0.205 0.082s-0.205-0.011-0.205-0.082c0-0.066-0.027-0.082-0.144-0.082-0.1 0-0.144-0.019-0.144-0.062 0-0.034-0.036-0.061-0.082-0.061-0.072 0-0.082-0.027-0.082-0.226s0.010-0.226 0.082-0.226c0.046 0 0.082-0.027 0.082-0.061 0-0.043 0.043-0.062 0.144-0.062 0.116 0 0.144-0.016 0.144-0.082 0-0.071 0.027-0.082 0.205-0.082 0.155 0 0.205-0.015 0.205-0.062 0-0.034 0.036-0.061 0.082-0.061 0.066 0 0.082-0.027 0.082-0.144s-0.016-0.144-0.082-0.144c-0.055 0-0.082-0.027-0.082-0.082 0-0.076-0.027-0.082-0.349-0.082s-0.349-0.006-0.349-0.082c0-0.055-0.027-0.082-0.082-0.082-0.046 0-0.082-0.027-0.082-0.062s-0.036-0.061-0.082-0.061c-0.055 0-0.082-0.027-0.082-0.082 0-0.046-0.027-0.082-0.061-0.082-0.051 0-0.062-0.082-0.062-0.492s0.010-0.492 0.062-0.492c0.034 0 0.061-0.036 0.061-0.082 0-0.055 0.027-0.082 0.082-0.082 0.046 0 0.082-0.027 0.082-0.062s0.036-0.061 0.082-0.061c0.055 0 0.082-0.027 0.082-0.082 0-0.046 0.027-0.082 0.061-0.082 0.051 0 0.081-0.091 0.069-0.209-0.001-0.013 0.022-0.024 0.053-0.024s0.046 0.025 0.034 0.055c-0.012 0.030-0 0.055 0.024 0.055s0.045-0.037 0.045-0.082c0-0.055-0.027-0.082-0.082-0.082-0.046 0-0.082-0.027-0.082-0.062 0-0.047-0.052-0.062-0.226-0.062s-0.226 0.014-0.226 0.062c0 0.043-0.043 0.062-0.144 0.062s-0.144-0.019-0.144-0.062-0.043-0.062-0.144-0.062c-0.116 0-0.144-0.016-0.144-0.082 0-0.046-0.027-0.082-0.062-0.082-0.049 0-0.062-0.059-0.062-0.287s0.013-0.287 0.062-0.287c0.034 0 0.062-0.036 0.062-0.082 0-0.055 0.027-0.082 0.082-0.082 0.046 0 0.082-0.027 0.082-0.062s0.028-0.062 0.061-0.062c0.034 0 0.062-0.036 0.062-0.082 0-0.055 0.027-0.082 0.082-0.082 0.046 0 0.082-0.027 0.082-0.062s0.028-0.062 0.062-0.062c0.043 0 0.061-0.043 0.061-0.144v-0.144h-0.205c-0.155 0-0.205 0.015-0.205 0.062 0 0.049-0.059 0.062-0.287 0.062s-0.287-0.013-0.287-0.062c0-0.043-0.043-0.062-0.144-0.062-0.116 0-0.144-0.016-0.144-0.082s-0.027-0.082-0.144-0.082c-0.1 0-0.144-0.019-0.144-0.062s-0.043-0.062-0.144-0.062c-0.116 0-0.144-0.016-0.144-0.082 0-0.055-0.027-0.082-0.082-0.082-0.046 0-0.082-0.027-0.082-0.062s-0.028-0.062-0.062-0.062c-0.043 0-0.061-0.043-0.061-0.144 0-0.116-0.016-0.144-0.082-0.144-0.055 0-0.082-0.027-0.082-0.082s-0.027-0.082-0.082-0.082c-0.055 0-0.082-0.027-0.082-0.082 0-0.046-0.027-0.082-0.061-0.082-0.043 0-0.062-0.043-0.062-0.144 0-0.116-0.016-0.144-0.082-0.144s-0.082-0.027-0.082-0.144c0-0.116 0.016-0.144 0.082-0.144s0.082-0.027 0.082-0.144c0-0.137 0.007-0.144 0.144-0.144 0.1 0 0.144-0.019 0.144-0.062 0-0.053 0.116-0.062 0.8-0.062 0.773 0 0.8-0.003 0.8-0.082 0-0.046 0.027-0.082 0.062-0.082s0.062-0.028 0.062-0.062c0-0.043 0.043-0.062 0.144-0.062 0.116 0 0.144-0.016 0.144-0.082 0-0.055 0.027-0.082 0.082-0.082 0.046 0 0.082-0.027 0.082-0.062 0-0.039 0.041-0.063 0.113-0.065 0.062-0.002 0.090-0.013 0.062-0.024-0.077-0.031-0.061-0.137 0.020-0.136 0.062 0.001 0.063 0.007 0.010 0.044-0.055 0.039-0.055 0.042 0 0.027 0.034-0.009 0.067-0.057 0.075-0.106 0.008-0.056 0.042-0.089 0.092-0.089 0.052 0 0.079-0.028 0.079-0.082 0-0.046 0.027-0.082 0.061-0.082 0.043 0 0.062-0.043 0.062-0.144v-0.144h-0.369c-0.342 0-0.369 0.006-0.369 0.082s-0.027 0.082-0.431 0.082-0.431-0.005-0.431-0.082c0-0.066-0.027-0.082-0.144-0.082-0.1 0-0.144-0.019-0.144-0.062 0-0.034-0.028-0.062-0.062-0.062s-0.062-0.036-0.062-0.082c0-0.055-0.027-0.082-0.082-0.082s-0.082-0.027-0.082-0.082c0-0.046-0.027-0.082-0.061-0.082s-0.062-0.028-0.062-0.062c0-0.034-0.036-0.062-0.082-0.062-0.066 0-0.082-0.027-0.082-0.144 0-0.1-0.019-0.144-0.062-0.144-0.047 0-0.061-0.052-0.061-0.226 0-0.198-0.010-0.226-0.082-0.226-0.066 0-0.082-0.027-0.082-0.144s-0.016-0.144-0.082-0.144c-0.079 0-0.082-0.027-0.082-0.8s0.003-0.8 0.082-0.8c0.066 0 0.082-0.027 0.082-0.144s0.016-0.144 0.082-0.144c0.046 0 0.082-0.027 0.082-0.062s0.028-0.062 0.061-0.062c0.044 0 0.062-0.044 0.062-0.15v-0.15l0.092 0.078c0.075 0.064 0.081 0.065 0.036 0.006-0.037-0.047-0.040-0.072-0.010-0.072 0.025 0 0.046-0.037 0.046-0.082s0.027-0.082 0.062-0.082c0.034 0 0.061-0.028 0.061-0.062 0-0.043 0.043-0.061 0.144-0.061 0.116 0 0.144-0.016 0.144-0.082 0-0.055 0.027-0.082 0.082-0.082 0.046 0 0.082-0.027 0.082-0.062 0-0.043 0.043-0.062 0.144-0.062 0.116 0 0.144-0.016 0.144-0.082 0-0.071 0.027-0.082 0.205-0.082 0.155 0 0.205-0.015 0.205-0.061 0-0.034 0.036-0.062 0.082-0.062 0.055 0 0.082-0.027 0.082-0.082 0-0.074 0.027-0.082 0.287-0.082s0.287 0.008 0.287 0.082c0 0.066 0.027 0.082 0.144 0.082 0.1 0 0.144 0.019 0.144 0.062s0.043 0.061 0.144 0.061c0.116 0 0.144 0.016 0.144 0.082s0.027 0.082 0.144 0.082c0.1 0 0.144 0.019 0.144 0.062 0 0.034 0.036 0.062 0.082 0.062 0.066 0 0.082 0.027 0.082 0.144 0 0.1 0.019 0.144 0.061 0.144 0.051 0 0.062 0.084 0.062 0.513s-0.010 0.513-0.062 0.513c-0.034 0-0.061 0.028-0.061 0.062s-0.036 0.061-0.082 0.061c-0.055 0-0.082 0.027-0.082 0.082 0 0.066-0.027 0.082-0.144 0.082s-0.144 0.016-0.144 0.082c0 0.078-0.027 0.082-0.574 0.082-0.483 0-0.574 0.010-0.574 0.062 0 0.034-0.036 0.062-0.082 0.062-0.055 0-0.082 0.027-0.082 0.082s0.027 0.082 0.082 0.082c0.046 0 0.082 0.027 0.082 0.062 0 0.046 0.050 0.062 0.205 0.062 0.178 0 0.205 0.011 0.205 0.082 0 0.078 0.027 0.082 0.513 0.082s0.513-0.004 0.513-0.082c0-0.066 0.027-0.082 0.144-0.082 0.1 0 0.144-0.019 0.144-0.062s0.043-0.062 0.144-0.062c0.116 0 0.144-0.016 0.144-0.082 0-0.055 0.027-0.082 0.082-0.082 0.046 0 0.082-0.027 0.082-0.062s0.028-0.062 0.061-0.062c0.034 0 0.062-0.036 0.062-0.082 0-0.055 0.027-0.082 0.082-0.082 0.066 0 0.082-0.027 0.082-0.144 0-0.1 0.019-0.144 0.061-0.144 0.034 0 0.062-0.036 0.062-0.082 0-0.055 0.027-0.082 0.082-0.082 0.079 0 0.082-0.027 0.082-0.862s-0.003-0.862-0.082-0.862c-0.046 0-0.082-0.027-0.082-0.062s-0.028-0.061-0.062-0.061c-0.043 0-0.061-0.043-0.061-0.144 0-0.116-0.016-0.144-0.082-0.144-0.055 0-0.082-0.027-0.082-0.082 0-0.046-0.027-0.082-0.062-0.082s-0.061-0.036-0.061-0.082c0-0.055-0.027-0.082-0.082-0.082-0.066 0-0.082-0.027-0.082-0.144 0-0.137-0.007-0.144-0.144-0.144-0.1 0-0.144-0.019-0.144-0.062 0-0.046-0.050-0.062-0.205-0.062s-0.205 0.015-0.205 0.062c0 0.043-0.043 0.062-0.144 0.062s-0.144-0.019-0.144-0.062-0.043-0.062-0.144-0.062c-0.116 0-0.144-0.016-0.144-0.082 0-0.055-0.027-0.082-0.082-0.082-0.046 0-0.082-0.027-0.082-0.061s-0.036-0.062-0.082-0.062c-0.055 0-0.082-0.027-0.082-0.082 0-0.074-0.027-0.082-0.287-0.082-0.246 0-0.287 0.010-0.287 0.072-0 0.039-0.046 0.093-0.103 0.119s-0.092 0.031-0.080 0.011c0.012-0.020-0.006-0.026-0.041-0.012s-0.064 0.041-0.064 0.061-0.092 0.037-0.205 0.037c-0.155 0-0.205-0.015-0.205-0.061 0-0.034-0.036-0.062-0.082-0.062-0.055 0-0.082-0.027-0.082-0.082 0-0.046-0.027-0.082-0.062-0.082s-0.062-0.028-0.062-0.062c0-0.034-0.036-0.061-0.082-0.061-0.055 0-0.082-0.027-0.082-0.082 0-0.066-0.027-0.082-0.144-0.082s-0.144 0.016-0.144 0.082zM15.2 14.995c0 0.072 0.027 0.082 0.226 0.082 0.173 0 0.226 0.014 0.226 0.062s0.050 0.062 0.205 0.062c0.178 0 0.205 0.011 0.205 0.082 0 0.066 0.027 0.082 0.144 0.082 0.1 0 0.144 0.019 0.144 0.062s0.047 0.063 0.154 0.066c0.085 0.003 0.172 0.007 0.195 0.010 0.052 0.007 0.074 0.088 0.024 0.088-0.021 0-0.053 0.016-0.072 0.035s0.003 0.031 0.048 0.026c0.196-0.021 0.267 0.001 0.267 0.083 0 0.066 0.027 0.082 0.144 0.082 0.1 0 0.144 0.019 0.144 0.062 0 0.034 0.028 0.062 0.061 0.062s0.062 0.036 0.062 0.082c0 0.055 0.027 0.082 0.082 0.082 0.046 0 0.082 0.027 0.082 0.061s0.028 0.062 0.062 0.062c0.034 0 0.061 0.036 0.061 0.082 0 0.055 0.027 0.082 0.082 0.082 0.046 0 0.082 0.027 0.082 0.061s0.028 0.062 0.062 0.062c0.034 0 0.062 0.036 0.062 0.082 0 0.055 0.027 0.082 0.082 0.082 0.046 0 0.082 0.027 0.082 0.062s0.028 0.061 0.061 0.061c0.034 0 0.062 0.036 0.062 0.082 0 0.055 0.027 0.082 0.082 0.082 0.046 0 0.082 0.027 0.082 0.061s0.028 0.062 0.062 0.062c0.043 0 0.061 0.043 0.061 0.144 0 0.116 0.016 0.144 0.082 0.144s0.082 0.027 0.082 0.144c0 0.1 0.019 0.144 0.062 0.144s0.062 0.043 0.062 0.144c0 0.116 0.016 0.144 0.082 0.144 0.068 0 0.082 0.027 0.082 0.164 0 0.119 0.017 0.164 0.061 0.164 0.047 0 0.062 0.050 0.062 0.205 0 0.178 0.011 0.205 0.082 0.205 0.076 0 0.082 0.027 0.082 0.369s0.006 0.369 0.082 0.369c0.078 0 0.082 0.027 0.082 0.517 0 0.438-0.009 0.514-0.060 0.494-0.033-0.013-0.071-0.005-0.084 0.016s0.014 0.039 0.060 0.039c0.046 0 0.084 0.018 0.084 0.041s-0.014 0.039-0.031 0.036c-0.117-0.018-0.133 0.017-0.133 0.292 0 0.26-0.008 0.287-0.082 0.287-0.072 0-0.082 0.027-0.082 0.226 0 0.173-0.014 0.226-0.062 0.226-0.043 0-0.061 0.043-0.061 0.144 0 0.116-0.016 0.144-0.082 0.144-0.071 0-0.082 0.027-0.082 0.205 0 0.155-0.015 0.205-0.062 0.205-0.034 0-0.062 0.036-0.062 0.082 0 0.055-0.027 0.082-0.082 0.082-0.076 0-0.112 0.113-0.085 0.261 0.004 0.020-0.022 0.025-0.057 0.012-0.044-0.017-0.063 0.001-0.063 0.057 0 0.053-0.028 0.081-0.082 0.081-0.066 0-0.082 0.027-0.082 0.144 0 0.1-0.019 0.144-0.062 0.144-0.034 0-0.061 0.036-0.061 0.082 0 0.066-0.027 0.082-0.144 0.082s-0.144 0.016-0.144 0.082c0 0.055-0.027 0.082-0.082 0.082-0.046 0-0.082 0.027-0.082 0.061s-0.028 0.062-0.061 0.062c-0.034 0-0.062 0.036-0.062 0.082 0 0.055-0.027 0.082-0.082 0.082-0.046 0-0.082 0.027-0.082 0.062s-0.028 0.061-0.062 0.061c-0.034 0-0.061 0.036-0.061 0.082 0 0.066-0.027 0.082-0.144 0.082-0.1 0-0.144 0.019-0.144 0.062 0 0.044-0.046 0.062-0.164 0.062-0.137 0-0.164 0.014-0.164 0.082 0 0.066-0.027 0.082-0.144 0.082-0.1 0-0.144 0.019-0.144 0.061 0 0.034-0.028 0.062-0.062 0.062s-0.062 0.036-0.062 0.082c0 0.077-0.027 0.082-0.431 0.082-0.356 0-0.431 0.011-0.431 0.062 0 0.053-0.132 0.061-0.944 0.061s-0.944-0.009-0.944-0.061c0-0.050-0.068-0.062-0.369-0.062-0.342 0-0.369-0.006-0.369-0.082 0-0.066-0.027-0.082-0.144-0.082-0.1 0-0.144-0.019-0.144-0.062s-0.043-0.061-0.144-0.061c-0.116 0-0.144-0.016-0.144-0.082 0-0.046-0.027-0.082-0.062-0.082s-0.062-0.028-0.062-0.062c0-0.043-0.043-0.062-0.144-0.062-0.116 0-0.144-0.016-0.144-0.082 0-0.068-0.027-0.082-0.164-0.082-0.119 0-0.164-0.017-0.164-0.061 0-0.034-0.028-0.062-0.062-0.062s-0.062-0.036-0.062-0.082c0-0.055-0.027-0.082-0.082-0.082-0.046 0-0.082-0.027-0.082-0.062s-0.028-0.061-0.062-0.061c-0.034 0-0.062-0.036-0.062-0.082 0-0.055-0.027-0.082-0.082-0.082s-0.082-0.027-0.082-0.082c0-0.046-0.027-0.082-0.062-0.082-0.043 0-0.062-0.043-0.062-0.144 0-0.116-0.016-0.144-0.082-0.144-0.046 0-0.082-0.027-0.082-0.062s-0.028-0.061-0.062-0.061c-0.034 0-0.062-0.036-0.062-0.082 0-0.055-0.027-0.082-0.082-0.082-0.066 0-0.082-0.027-0.082-0.144 0-0.1-0.019-0.144-0.062-0.144s-0.062-0.043-0.062-0.144c0-0.116-0.016-0.144-0.082-0.144s-0.082-0.027-0.082-0.144c0-0.1-0.019-0.144-0.062-0.144s-0.062-0.043-0.062-0.144c0-0.116-0.016-0.144-0.082-0.144-0.074 0-0.082-0.027-0.082-0.287 0-0.228-0.013-0.287-0.062-0.287-0.053 0-0.062-0.139-0.062-1.005s0.009-1.005 0.062-1.005c0.049 0 0.062-0.059 0.062-0.287 0-0.26 0.008-0.287 0.082-0.287 0.068 0 0.082-0.027 0.082-0.164 0-0.119 0.017-0.164 0.062-0.164 0.043 0 0.062-0.043 0.062-0.144 0-0.116 0.016-0.144 0.082-0.144s0.082-0.027 0.082-0.144c0-0.1 0.019-0.144 0.062-0.144s0.062-0.043 0.062-0.144c0-0.116 0.016-0.144 0.082-0.144 0.046 0 0.082-0.027 0.082-0.062s0.028-0.061 0.062-0.061c0.043 0 0.062-0.043 0.062-0.144 0-0.116 0.016-0.144 0.082-0.144 0.055 0 0.082-0.027 0.082-0.082 0-0.066 0.027-0.082 0.144-0.082 0.1 0 0.144-0.019 0.144-0.062 0-0.034 0.028-0.061 0.062-0.061s0.062-0.036 0.062-0.082c0-0.055 0.027-0.082 0.082-0.082 0.046 0 0.082-0.027 0.082-0.062s0.028-0.061 0.062-0.061c0.034 0 0.062-0.036 0.062-0.082 0-0.055 0.027-0.082 0.082-0.082 0.046 0 0.082-0.027 0.082-0.062 0-0.043 0.043-0.062 0.144-0.062 0.116 0 0.144-0.016 0.144-0.082s0.027-0.082 0.144-0.082c0.116 0 0.144-0.016 0.144-0.082 0-0.055 0.027-0.082 0.082-0.082 0.046 0 0.082-0.027 0.082-0.062 0-0.043 0.043-0.062 0.144-0.062 0.116 0 0.144-0.016 0.144-0.082 0-0.071 0.027-0.082 0.205-0.082 0.155 0 0.205-0.015 0.205-0.062 0-0.049 0.059-0.062 0.287-0.062 0.26 0 0.287-0.008 0.287-0.082 0-0.079 0.027-0.082 0.8-0.082s0.8 0.003 0.8 0.082zM20.287 15.425c0 0.034 0.028 0.062 0.062 0.062s0.062 0.036 0.062 0.082c0 0.055 0.027 0.082 0.082 0.082s0.082 0.027 0.082 0.082c0 0.046 0.027 0.082 0.061 0.082s0.062 0.028 0.062 0.062c0 0.034 0.036 0.062 0.082 0.062 0.066 0 0.082 0.027 0.082 0.144 0 0.1 0.019 0.144 0.062 0.144 0.034 0 0.061 0.036 0.061 0.082 0 0.055 0.027 0.082 0.082 0.082 0.066 0 0.082 0.027 0.082 0.144 0 0.1 0.019 0.144 0.062 0.144s0.062 0.043 0.062 0.144c0 0.116 0.016 0.144 0.082 0.144s0.082 0.027 0.082 0.144c0 0.1 0.019 0.144 0.061 0.144 0.047 0 0.062 0.050 0.062 0.205 0 0.177 0.011 0.205 0.081 0.205 0.076 0 0.082 0.034 0.092 0.523 0.009 0.426 0.022 0.521 0.070 0.511 0.050-0.011 0.050-0.003 0 0.059-0.037 0.046-0.040 0.061-0.007 0.041 0.040-0.024 0.051 0.087 0.051 0.505 0 0.449-0.010 0.536-0.061 0.536-0.047 0-0.062 0.052-0.062 0.226 0 0.198-0.010 0.226-0.082 0.226-0.046 0-0.082 0.027-0.082 0.061s-0.028 0.062-0.062 0.062c-0.043 0-0.061 0.043-0.061 0.144 0 0.116-0.016 0.144-0.082 0.144-0.055 0-0.082 0.027-0.082 0.082 0 0.046-0.027 0.082-0.062 0.082s-0.062 0.036-0.062 0.082c0 0.066-0.027 0.082-0.144 0.082-0.14 0-0.144-0.004-0.144-0.164 0-0.137-0.014-0.164-0.082-0.164-0.046 0-0.082-0.027-0.082-0.061s0.036-0.062 0.082-0.062c0.076 0 0.082-0.027 0.082-0.369s-0.006-0.369-0.082-0.369c-0.079 0-0.082-0.027-0.082-0.636 0-0.538-0.009-0.636-0.062-0.636-0.049 0-0.061-0.062-0.061-0.308 0-0.28-0.007-0.308-0.082-0.308-0.071 0-0.082-0.027-0.082-0.205 0-0.155-0.015-0.205-0.062-0.205-0.043 0-0.062-0.043-0.062-0.144 0-0.116-0.016-0.144-0.082-0.144s-0.082-0.027-0.082-0.144c0-0.1-0.019-0.144-0.061-0.144-0.034 0-0.062-0.036-0.062-0.082 0-0.055-0.027-0.082-0.082-0.082-0.066 0-0.082-0.027-0.082-0.144 0-0.1-0.019-0.144-0.062-0.144s-0.061-0.043-0.061-0.144c0-0.116-0.016-0.144-0.082-0.144-0.077 0-0.082-0.027-0.082-0.431v-0.431h0.369c0.301 0 0.369 0.011 0.369 0.062z"></path>
</svg>
