<!-- Generated by IcoMoon.io -->
<svg version="1.1" xmlns="http://www.w3.org/2000/svg" width="1024" height="1024" viewBox="0 0 1024 1024">
<title>Skaven</title>
<g id="icomoon-ignore">
</g>
<path fill="#000" d="M-0.042 172.416c12.384 3.872 24.736 7.936 37.184 11.648 18.336 5.472 36.992 9.088 56.128 9.728 20 0.64 40.032 0.928 60.032 1.312 6.464 0.128 12.896 0 20.672 0-4.448-9.152-8.192-18.176-13.056-26.624-6.592-11.456-14.368-22.208-20.864-33.728-3.776-6.688-5.6-14.464-9.088-21.312-6.208-12.352-12.992-24.352-19.488-36.512-0.992-1.824-1.792-3.776-3.040-6.592 8.32 0 15.84-0.384 23.328 0.096 15.904 0.928 31.84 3.36 47.744 3.456 26.88 0.096 53.792-0.992 80.672-2.016 6.048-0.224 8.544 1.248 9.824 7.488 5.6 27.872 11.328 55.776 21.664 82.432 4.384 11.36 8.384 22.912 12.96 34.24 0.512 1.248 3.456 2.112 5.344 2.208 24.704 0.736 49.44 0.896 74.080 2.112 26.272 1.312 52.416 1.312 78.656-1.408 15.072-1.536 30.4-0.8 45.6-1.024 32.544-0.416 65.152-1.088 97.696-1.088 24.128 0 48.256 0.608 72.384 1.248 11.424 0.32 22.784 1.504 34.144 2.336 3.968 0.288 6.176-0.896 7.904-4.96 2.048-4.832 6.304-8.64 8.416-13.408 2.112-4.672 2.24-10.208 4.032-15.072 3.776-10.464 8.544-20.672 12.064-31.232 6.4-19.136 14.112-37.92 14.784-58.56 0.032-1.184 2.208-3.232 3.424-3.264 24.544-0.736 49.088-1.344 73.664-1.792 2.432-0.032 4.896 1.536 7.392 1.504 11.968-0.128 23.904-0.928 35.808-0.896 14.368 0.032 28.704 0.576 43.008 1.248 4.448 0.224 4.576 3.264 1.792 7.52-8.224 12.48-17.152 24.704-23.648 38.080-5.984 12.352-8.832 26.144-13.696 39.040-4.992 13.28-10.752 26.24-16.544 40.352 7.328-0.512 14.4-0.704 21.376-1.504 14.88-1.792 29.728-3.648 44.608-5.856 20-2.944 39.936-6.272 59.904-9.44 7.712-1.216 15.392-2.464 23.104-3.52 1.248-0.192 3.36 0.384 3.872 1.248 0.576 0.992 0.032 2.944-0.608 4.16-0.992 1.856-2.4 3.552-3.68 5.248-2.72 3.552-3.776 7.008-2.848 11.84 2.016 10.304-2.752 18.88-8.512 27.040-1.696 2.336-3.008 4.896-4.48 7.392-3.008 4.96-6.048 9.856-8.928 14.912-2.816 4.864-5.6 9.728-8.192 14.72-8.736 17.152-17.056 34.496-26.080 51.488-4.352 8.192-16.288 11.552-27.36 8.544-19.072-5.152-38.4-9.504-58.112-9.344-18.656 0.128-37.28 2.656-55.872 2.944-7.936 0.096-9.76 4.48-12.352 10.048-5.152 11.072-11.072 21.792-16.192 32.928-3.968 8.64-6.816 17.76-10.656 26.464-2.656 5.984-6.112 11.648-9.216 17.44-3.968 7.52-7.84 15.136-11.872 22.688-6.592 12.288-13.312 24.544-19.968 36.8-6.912 12.768-13.856 25.568-20.704 38.336-7.616 14.208-15.328 28.384-22.784 42.688-9.088 17.44-15.936 35.712-21.696 54.528-4.16 13.568-11.040 25.952-19.136 37.792-6.88 10.048-12.256 21.12-17.92 32-10.528 20.16-20.768 40.416-31.008 60.704-2.912 5.696-6.112 11.456-7.776 17.568-1.12 4.16-0.896 9.504 0.8 13.408 12.896 30.112 26.592 59.808 50.592 83.232 6.272 6.112 11.52 13.376 18.048 19.136 6.368 5.568 13.6 10.144 20.864 14.592 4.864 3.008 5.28 4.736 0.992 8.544-5.76 5.152-13.376 9.632-16.288 16.192-4.96 11.072-14.72 17.024-22.016 25.536-9.024 10.56-19.264 20.352-26.592 32-3.68 5.888-7.616 11.264-12.192 16.32-2.56 2.848-4.896 5.984-7.68 8.704-7.584 7.616-15.424 14.912-22.88 22.624-8.928 9.312-14.496 8.128-18.624-4.544-8.288-25.312-16.416-50.688-24.736-76-0.64-1.952-2.016-3.68-2.944-5.568-1.632-3.328-3.936-6.592-4.544-10.112-1.088-6.592-3.36-10.304-8.416-10.976s-10.752 2.848-13.056 7.84c-6.176 13.376-12.576 26.592-18.624 40.032-3.616 8-6.56 16.288-10.112 24.224-6.624 14.912-13.248 29.824-20.544 44.416-1.408 2.816-5.76 4.128-7.84 5.568-5.952-5.664-11.52-10.656-16.704-15.936-5.056-5.152-9.76-10.56-14.592-15.936-13.664-15.136-27.36-30.304-40.864-45.536-2.144-2.432-4.384-5.344-5.152-8.32-2.336-9.248-8.288-15.808-15.296-21.472-6.912-5.6-14.272-10.752-21.568-15.84-4.288-3.008-5.984-7.168-5.792-12.032 0.192-4.48 3.008-6.816 7.392-7.808 1.536-0.32 2.912-1.824 4.128-3.040 32.608-32.416 61.216-68.096 86.688-106.304 3.456-5.184 5.952-10.976 9.6-16.032 5.952-8.128 7.712-16.192 3.648-25.952-7.616-18.176-13.568-37.184-21.824-55.040-10.848-23.424-23.488-46.048-34.976-69.216-4.16-8.32-7.808-16.96-10.816-25.824-5.056-14.976-14.976-27.136-22.304-40.672-13.472-24.864-25.152-50.752-37.792-76.128-4.992-10.016-10.656-19.68-15.744-29.632-15.488-29.984-30.816-60.032-46.208-90.080-2.816-5.504-5.952-10.912-8.32-16.608-2.56-6.048-7.168-7.712-13.056-7.616-9.728 0.192-19.552-0.096-29.216 0.704-8.288 0.64-16.704 1.632-24.544 4.064-20.704 6.464-41.152 13.92-61.76 20.768-8.64 2.848-7.84 1.792-13.856-4.736-9.088-9.92-19.872-18.176-29.216-27.872-4.448-4.64-7.712-10.624-10.624-16.416-4.16-8.32-7.584-17.056-11.168-25.664-4.896-11.648-9.344-23.488-14.624-34.944-3.616-7.712-8.032-15.072-12.64-22.272-5.952-9.248-12.352-18.272-18.72-27.264-1.696-2.24-4.064-4.032-6.080-6.048 0-2.336 0-4.672 0-7.008zM390.518 309.76c1.696 5.344 3.328 8.736 3.84 12.352 3.872 25.44 14.688 48.448 26.336 70.784 10.048 19.264 21.376 37.92 33.824 55.968 13.088 19.040 24.096 39.552 35.392 59.776 7.488 13.408 14.176 27.296 20.768 41.184 5.6 11.776 10.56 23.904 15.808 35.872 0.704-0.032 1.408-0.096 2.112-0.128 6.4-13.152 12.864-26.24 19.168-39.36 10.432-21.696 20.48-43.584 31.296-65.088 7.2-14.368 13.248-29.408 24.32-41.632 3.424-3.744 5.152-9.088 7.2-13.888 4.16-9.536 8.032-19.232 11.968-28.896 1.696-4.128 3.040-8.384 4.736-12.544 1.536-3.776 2.848-7.712 4.992-11.136 10.976-17.056 20.48-34.752 25.12-54.752 1.44-6.208 1.408-6.784-4.768-6.976-20.8-0.704-41.632-1.6-62.464-1.92-24.928-0.416-49.696-2.432-74.784-0.576-26.784 2.016-53.792 1.024-80.704 1.248-7.936 0.032-15.936-0.224-23.936-0.32-6.304-0.032-12.64 0-20.16 0z"></path>
</svg>
