<!-- Generated by IcoMoon.io -->
<svg version="1.1" xmlns="http://www.w3.org/2000/svg" width="1024" height="1024" viewBox="0 0 1024 1024">
<title></title>
<g id="icomoon-ignore">
</g>
<path d="M529.852 147.492c-12.837 18.086-22.748 35.208-35.794 49.6-17.509 19.45-41.445 24.118-66.908 23.338-6.811-0.194-13.808 3.497-20.23 6.228-1.947 0.78-3.099 4.668-3.888 7.387-3.099 11.286-5.642 22.748-8.75 34.038-2.715 9.92-1.364 12.837 8.75 15.758 1.754 0.584 3.693 1.364 5.253 2.523 23.728 17.701 44.738 38.12 64.968 59.911 10.31 11.286 15.172 21.596 13.808 36.582-0.584 6.811 2.907 13.808 4.473 20.816 7.003-2.523 14.198-4.863 21.206-7.771 1.56-0.584 2.715-3.497 3.099-5.448 4.863-19.646 7.195-38.51-9.92-54.269-5.058-4.668-7.963-11.685-12.645-16.933-5.058-5.642-10.505-11.286-16.741-15.758-13.418-9.335-27.035-18.281-35.794-32.859-2.139-3.693-6.618-5.838-11.091-9.725 3.099-4.863 5.838-10.31 9.725-14.588 4.278-4.863 9.725-6.032 16.741-4.083 7.771 2.139 16.342 2.139 24.312 3.302 4.083 0.584 8.75 0.974 11.877 3.099 14.978 11.091 31.515 18.671 49.406 23.923 7.195 2.139 13.223 7.579 19.84 11.48 13.808 7.963 27.035 16.933 41.637 23.533 20.426 9.335 36.182 24.312 53.098 37.926 3.888 3.099 8.166 7.195 12.645 8.166 4.668 0.974 11.48 0.584 14.588-2.139 14.978-13.223 29.37-27.035 42.984-41.445 3.888-4.083 6.228-11.48 5.838-16.933-0.39-4.863-5.642-9.335-8.556-14.002-4.083 3.099-8.36 5.838-12.069 9.53-11.286 10.896-21.98 22.364-33.454 33.259-4.083 3.693-8.945 4.083-13.613-0.78-5.642-5.838-11.685-11.091-18.086-16.148s-7.963-8.75-1.56-16.148c25.483-30.15 49.99-61.081 74.888-91.804 11.48-14.002 24.702-21.4 42.984-13.418 2.331 0.974 5.058 1.364 7.579 1.17 9.335-0.78 14.392 4.668 14.978 12.837 0.584 8.945 6.228 7.963 6.422 15.368s7.387 29.956-0.584 53.293c-7.387 15.172-14.392 28.98-20.816 43.178-3.888 8.36-6.228 17.509-10.505 25.483-5.838 10.699-13.029 20.62-19.646 30.93-3.693 5.642-7.003 11.48-10.505 17.317-8.36 14.002-16.741 28.006-25.288 41.829-10.31 16.933-21.4 33.259-30.735 50.576-4.473 8.36-7.195 18.476-8.36 28.006-3.497 29.956 5.253 58.546 11.48 87.325 4.278 20.62 11.091 39.876 20.426 58.741 4.278 8.556 2.331 15.562-5.058 22.172-17.701 15.952-35.404 31.899-52.316 48.626-22.556 22.364-44.543 45.518-66.332 68.662-16.537 17.509-32.475 35.404-48.431 53.488-3.099 3.497-5.058 7.963-8.36 13.223-1.56-0.584-4.668-0.78-6.228-2.523-7.387-7.963-14.782-16.148-21.4-24.897-22.94-29.956-44.933-60.69-68.857-90.062-7.579-9.335-19.256-15.562-29.566-22.748-14.978-10.699-30.345-21.010-45.518-31.32-5.058-3.497-10.115-6.618-15.562-9.53-5.838-3.099-7.003-7.387-3.497-12.453 10.896-15.368 15.368-32.091 16.741-51.16 1.364-19.256 7.579-38.12 11.685-57.19 0.584-3.099 1.17-6.422 1.17-9.53 0.584-17.317 0.974-34.818 1.947-52.124 0.194-2.907 1.947-5.838 3.497-8.36 7.579-11.286 8.166-18.281-0.39-27.803-10.115-11.286-21.4-21.596-32.283-32.091-7.387-7.195-13.223-16.537-25.678-16.342-1.754 0-4.473-3.693-5.448-6.228-8.945-22.556-22.94-41.829-37.926-60.69-5.838-7.387-9.53-16.148-20.036-19.646-5.253-1.754-5.838-8.75-2.331-14.198 1.17-1.947 2.907-3.302 4.278-5.253 10.505-13.808 10.31-14.588-5.448-23.728-8.945-5.253-9.14-12.645-1.364-20.036 2.715-2.523 5.642-6.422 5.838-9.725 1.17-16.537 13.223-27.035 21.010-39.876 11.286-18.671 22.364-37.542 33.648-56.218 2.907-4.668 6.618-8.75 9.335-13.418 2.715-4.863 4.083-10.31 6.811-15.368 1.56-2.907 4.083-7.387 6.618-7.579 15.562-1.56 30.735-3.302 46.492 2.523 15.172 5.642 31.707 10.31 47.644 9.92 17.509-0.39 33.259 5.253 49.796 7.387 17.701 2.331 35.404 5.838 52.903 8.945 4.278-0.194 7.771 0.974 15.172 2.907zM537.243 751.258c0.974-10.896-7.387-19.061-23.143-20.62-9.92-0.974-21.206 10.896-21.596 21.596-0.39 10.31 12.453 26.458 21.010 26.651 9.335 0.194 23.728-16.537 23.728-27.611z"></path>
<path d="M262.627 764.286c14.782-15.758 28.786-30.345 42.021-45.323 3.497-3.888 5.253-9.335 7.579-14.392 2.907-6.228 6.422-7.003 12.069-2.907 3.693 2.715 8.945 3.099 12.645 5.642 10.505 7.003 21.98 13.613 30.93 22.364 35.988 34.624 69.442 71.196 97.052 113.010 12.261 18.671 23.923 37.734 35.794 56.614 3.888 6.228 7.003 7.003 13.613 2.139 28.006-21.206 45.323-51.16 67.1-77.802 12.261-14.978 25.288-29.176 38.12-43.374 14.978-16.741 30.15-33.259 45.128-49.99 10.699-11.877 21.010-24.312 31.899-35.988 6.811-7.387 9.14-6.618 13.808 2.139 9.14 17.125 18.281 34.234 27.803 51.356 2.139 3.888 5.058 7.579 8.36 10.505 6.618 5.838 4.473 9.725-1.17 14.782-21.596 19.84-43.958 38.9-63.798 60.69-18.671 20.62-33.844 44.543-51.74 66.138-19.84 23.923-40.461 47.26-62.054 69.832-17.317 18.281-36.378 34.818-54.659 52.124-3.693 3.497-18.476 2.715-21.98-2.139-7.963-11.091-15.172-22.94-22.748-34.428-15.952-23.533-31.515-47.26-52.903-66.716-8.556-7.771-14.392-18.671-21.010-28.59-18.476-27.803-44.933-47.644-69.052-69.636-18.671-17.125-38.705-32.667-58.156-49.211-1.947-1.56-3.099-4.473-4.668-6.811zM508.491 984.862c15.368 0.974 22.556-15.172 23.338-28.59 0.78-11.48-9.92-21.010-21.4-20.816-14.198 0.194-30.345 12.837-30.15 23.338 0.194 11.091 16.537 28.59 28.2 26.068zM632.005 847.341c0.194-11.685-8.556-19.646-21.98-20.036-11.48-0.39-24.312 12.645-24.507 24.897-0.194 11.48 12.453 25.678 22.748 25.678 11.685 0 23.533-15.368 23.728-30.54zM672.855 761.372c0 1.947-0.194 3.888 0 5.838 0.78 8.945 7.579 16.741 16.933 18.866 8.36 1.947 16.342 0.39 20.23-7.387 5.058-10.115 7.963-21.206 3.302-32.475-1.17-2.715-3.693-5.253-6.228-6.811-19.256-10.31-34.234-0.584-34.234 21.98zM355.604 766.62c0-14.588-8.75-25.678-19.45-26.651-11.48-1.17-23.338 8.945-23.728 22.556-0.39 10.896 12.645 22.364 24.507 22.364 9.335-0.194 18.671-9.14 18.671-18.281zM412.591 868.351c12.837 0.194 19.256-5.838 19.256-18.476 0.194-13.223-10.505-24.118-23.533-24.312-11.286-0.194-16.537 5.253-16.741 17.317-0.194 16.342 7.003 25.288 21.010 25.483z"></path>
<path d="M718.75 158.961c-4.278 5.448-8.36 12.069-14.198 17.125-14.198 12.837-23.533 28.786-34.234 44.348-12.069 17.509-28.2 32.091-43.374 47.26-2.139 2.139-8.945 2.331-12.261 0.78-15.758-7.579-31.32-15.952-46.876-24.118-7.963-4.278-7.195-6.228-1.364-13.418 15.758-19.646 30.54-40.266 45.908-60.3 12.645-16.537 25.678-32.667 39.095-48.626 1.754-2.139 5.642-3.302 8.556-3.302 13.223 0.194 26.458 1.364 39.486 1.56 6.811 0.194 10.699 2.715 12.261 9.53 1.947 9.14 4.278 18.086 7.003 29.176z"></path>
<path d="M572.678 35.25c12.453 1.947 24.702 3.099 36.378 6.422 3.693 0.974 6.422 7.771 7.963 12.453 3.693 10.505 7.003 21.206 8.945 32.091 0.974 5.058 0.194 11.685-2.523 15.952-12.261 19.45-25.288 38.51-38.316 57.382-8.945 12.837-18.281 25.483-27.803 37.926-6.422 8.556-12.837 17.317-20.036 25.093-5.838 6.422-20.62 2.139-23.533-6.228-0.584-1.56 1.17-5.058 2.715-6.228 17.893-12.645 28.006-31.707 39.29-49.406 4.278-7.003 7.003-14.978 9.53-22.748s-2.715-15.562-12.069-17.509c-13.808-2.907-27.803-4.863-41.637-7.579-3.497-0.584-7.003-1.56-10.115-3.099-4.668-2.331-7.771-4.668-3.099-10.896 11.877-15.758 22.748-32.475 34.234-48.431 6.422-8.945 16.933-10.505 26.843-12.453 4.863-0.974 9.335-1.947 13.223-2.715z"></path>
<path d="M354.63 84.657c1.754-3.888 2.331-6.422 3.888-8.36 11.685-15.562 23.728-31.125 35.598-46.492 3.099-4.083 6.228-8.36 9.53-12.069 5.253-5.838 11.091-9.725 19.45-12.645 16.741-5.642 33.259-4.083 49.99-5.058 7.579-0.39 10.896 3.099 13.613 8.945 3.693 8.556 7.963 16.741 11.48 25.483 1.17 2.715 0.974 7.003-0.39 9.725-8.945 15.952-18.476 31.515-27.419 47.452-3.099 5.642-7.003 8.75-13.808 7.771-21.010-2.907-42.021-5.642-62.824-8.556-12.645-1.947-25.093-4.083-39.095-6.228z"></path>
</svg>
