<!-- Generated by IcoMoon.io -->
<svg version="1.1" xmlns="http://www.w3.org/2000/svg" width="1024" height="1024" viewBox="0 0 1024 1024">
<title></title>
<g id="icomoon-ignore">
</g>
<path fill="#000" d="M523.392 0.106c1.344 2.592 3.584 5.088 3.904 7.776 4.352 37.92 8.512 75.872 12.576 113.824 0.416 3.904 2.4 5.152 5.984 5.632 33.664 4.64 64.896 16.224 94.368 32.864 18.368 10.368 35.072 22.976 50.528 37.344 5.408 5.088 6.912 5.696 13.024 1.632 16.48-10.88 32.992-21.76 48.96-33.44 26.336-19.232 55.52-33.792 83.008-51.040 1.408-0.896 3.36-0.992 6.464-1.888-2.016 2.752-3.040 4.288-4.224 5.728-15.872 19.456-31.968 38.784-47.648 58.4-12.576 15.712-24.608 31.84-36.928 47.712-5.152 6.656-10.336 13.344-15.616 19.872-2.88 3.584-2.848 6.848-0.864 10.88 8.32 16.768 16.576 33.6 24.352 50.592 7.104 15.456 9.568 32.192 12.096 48.896 0.288 2.016 0.704 4.096 0.736 6.144 0.128 4.096 2.208 6.368 6.112 7.104 10.336 1.888 20.608 3.744 30.944 5.632 23.968 4.48 47.936 9.024 71.904 13.376 6.080 1.088 12.352 0.992 18.368 2.24 6.24 1.28 12.32 3.616 18.432 5.472 0 0.48 0 0.992 0 1.472-7.584 1.76-15.104 3.84-22.72 5.28-15.712 2.976-31.584 5.088-47.2 8.448-21.12 4.576-42.080 10.080-63.136 15.008-7.456 1.76-11.264 5.472-12.864 13.696-5.024 25.952-10.88 51.808-23.104 75.68-8.448 16.48-18.432 31.84-30.912 45.536-6.496 7.136-6.528 7.84-1.664 16.096 19.872 33.952 39.808 67.936 59.68 101.952 0.96 1.632 1.856 3.264 3.264 5.888-2.336 0-4.224 0.544-5.6-0.096-4.96-2.336-10.112-4.48-14.432-7.712-27.104-20.352-53.952-41.024-80.928-61.536-9.408-7.136-10.112-7.008-20.608-1.12-16.192 9.088-31.872 19.328-48.832 26.496-25.792 10.976-53.312 15.808-81.376 16.864-10.688 0.416-21.312 0.992-31.968 1.28-4.608 0.128-6.24 2.016-6.272 6.624s1.536 6.624 6.208 6.752c8.896 0.256 16.608 3.84 23.616 9.152 11.2 8.48 21.184 18.016 28.256 30.368 5.472 9.6 9.376 19.328 8.384 30.784-0.704 7.968 0.864 8.96 8.704 8.992 9.12 0.032 18.24 0.384 27.36-0.096 2.848-0.128 6.464-1.792 8.16-4 11.2-14.432 25.6-21.952 43.808-24.224 33.28-4.224 64.064 3.488 93.824 17.344 9.984 4.64 16.736 12.384 18.208 24 0.224 1.728 2.24 3.904 3.904 4.608 12.48 4.896 24.96 9.76 37.696 13.952 3.584 1.152 8.384 0.992 11.872-0.416 12.384-4.992 24.576-4.608 35.84 1.76 16.128 9.152 32.352 18.464 47.136 29.504 14.112 10.528 22.592 25.312 21.728 44.032-0.16 3.968-0.256 7.904 0.032 11.872 1.76 21.472-10.4 35.936-24.928 49.024-6.464 5.856-14.816 7.008-23.296 6.496-6.016-0.384-11.968-1.536-17.984-1.6-2.72 0-6.272 1.088-7.968 3.008-8.448 9.728-16.256 20-24.608 29.856-3.712 4.384-4.992 9.024-4.992 14.624 0 6.656-0.224 13.472-1.536 19.968-3.616 17.472-16.512 29.216-34.24 30.784-29.312 2.528-58.688 4.576-88.032-0.096-5.6-0.896-11.264-1.12-16.928-1.792-9.856-1.152-18.112-5.728-24.384-13.12-2.752-3.232-4.576-7.648-5.76-11.84-1.888-6.528-5.152-9.984-11.776-10.112-8.768-0.224-17.568-0.128-26.336-0.224-5.504-0.032-8.384 3.744-11.52 7.584-6.496 7.904-13.312 15.648-20.224 23.232-3.104 3.392-7.2 4.576-12 4.768-10.208 0.416-19.616-0.896-28.608-6.464-16.192-10.016-33.44-18.464-49.024-29.376-12-8.384-22.368-19.2-32.864-29.504-6.272-6.208-6.976-14.24-3.84-22.592 2.88-7.744 2.624-8-5.28-11.136-3.648-1.472-7.264-3.040-10.816-4.896-4.128-2.144-6.592-1.504-8.032 3.264-1.024 3.392-2.784 6.656-4.608 9.728-6.592 10.944-15.648 16.96-29.056 17.12-27.872 0.288-55.712 1.472-83.616 2.080-8.96 0.16-16.736-3.264-23.456-9.248-5.344-4.768-6.464-4.64-12.608-0.96-7.488 4.512-15.008 9.088-22.816 13.088-15.744 8.096-31.616 15.872-47.52 23.68-17.952 8.768-37.056 1.728-46.144-16.192-6.752-13.312 0.64-34.656 17.184-36.192 2.784-0.256 5.632-2.464 8-4.352 13.024-10.368 27.328-18.496 43.296-23.424 2.88-0.896 6.080-1.536 8.992-1.216 2.208 0.256 5.632 2.080 5.952 3.648 0.48 2.496-0.544 5.984-2.24 7.968-2.496 2.912-6.080 5.024-9.344 7.264-7.904 5.376-15.872 10.688-23.584 17.312 1.248 0 2.656 0.384 3.744-0.032 5.536-2.272 11.2-4.448 16.48-7.232 10.752-5.728 21.312-11.904 32-17.728 3.328-1.792 4.832-4.16 4.384-7.872-0.48-3.904-0.768-7.872-1.376-11.776-3.136-20 7.232-34.688 27.104-38.528 16.704-3.168 33.28-6.912 50.048-9.632 19.136-3.104 38.432-5.6 57.696-7.744 12.064-1.344 33.536 12.096 37.696 23.424 1.408 3.872 1.28 8.48 1.088 12.704-0.256 5.344 1.92 7.776 6.848 9.856 12.128 5.088 23.872 11.136 35.936 16.48 1.664 0.736 4.64 0.288 6.24-0.768 6.72-4.48 12.992-9.6 19.68-14.112 6.496-4.448 13.088-3.584 19.136 0.992 5.76 4.352 11.232 9.12 17.12 13.312 8.832 6.24 18.176 11.712 26.752 18.24 13.12 9.952 26.112 20.128 38.592 30.912 4.832 4.16 9.12 7.392 15.744 6.88 4.96-0.384 9.984-0.128 14.976-0.096 2.976 0 4.48-1.344 4.576-4.288 0.288-10.976 6.208-18.464 14.816-24.608 11.744-8.352 24.544-12.768 39.040-12.704 19.968 0.128 39.936 0.224 59.904-0.288 14.592-0.352 25.984 5.152 35.2 16.096 5.28 6.272 6.272 6.24 11.904 0.096 7.712-8.352 15.328-16.768 23.136-24.992 3.168-3.36 3.392-5.888 0.48-9.728-10.752-14.080-21.12-28.416-31.584-42.688-4.16-5.728-4.768-12.064-2.72-18.624 1.152-3.712 0.224-6.976-3.040-8.384-9.568-4.128-19.328-7.84-29.184-11.264-1.376-0.48-4 1.024-5.376 2.336-9.248 8.608-20.256 12-32.672 11.616-18.016-0.544-36.192-0.352-54.080-2.208-11.84-1.216-23.616-4.64-34.944-8.512-5.728-1.952-10.816-6.592-15.392-10.848s-9.216-7.072-15.648-7.776c-13.824-1.536-27.584-3.776-41.28-6.112-4.832-0.832-8.224 0.64-11.52 3.904-9.6 9.568-20.352 17.44-33.088 22.368-11.072 4.288-22.24 5.472-33.92 3.008-18.56-3.968-36.064-10.208-50.688-22.848-9.696-8.352-16.384-18.464-18.56-31.296-0.224-1.344-0.352-2.88-1.088-3.968-5.376-8.224-2.496-15.872 0.608-24 7.36-19.264 19.968-33.92 37.536-44.48 0.896-0.512 1.728-1.248 2.656-1.536 12.352-4.288 13.856-14.848 14.976-25.696 0.384-3.648-1.92-4.64-4.832-5.472-11.52-3.36-23.072-6.848-34.592-10.208-24.32-7.008-45.696-19.68-65.792-34.688-5.472-4.096-10.272-4.704-16.064-1.344-25.312 14.624-50.592 29.184-75.936 43.68-12.832 7.36-25.696 14.592-38.592 21.76-1.76 0.992-3.904 1.344-5.888 1.984-0.256-0.384-0.512-0.768-0.736-1.152 1.088-1.472 2.112-2.976 3.232-4.384 25.856-33.056 51.776-66.112 77.6-99.232 5.536-7.104 5.536-9.12-0.032-16.32-24.8-31.808-40.32-67.808-48.416-107.104-2.368-11.584-3.36-23.488-4.608-35.296-0.544-5.152-2.88-8.032-7.84-9.472-34.56-9.824-69.024-19.968-104.608-25.312-9.472-1.408-19.264-1.248-28.096-5.728 0-0.704 0-1.376 0-2.080 4.608-1.28 9.12-3.392 13.824-3.776 16.384-1.472 32.864-2.496 49.312-3.488 13.568-0.832 27.168-0.992 40.672-2.144 9.568-0.832 19.008-3.136 28.576-4.128 8.832-0.896 10.624-1.888 12.064-10.72 5.632-34.24 18.208-65.824 36.96-94.88 4.256-6.624 4.096-11.84-0.288-18.304-19.104-28.128-37.856-56.576-56.672-84.96-1.28-1.984-2.080-4.256-3.104-6.4 0.512-0.416 1.024-0.896 1.504-1.344 6.944 4.288 13.984 8.384 20.736 12.992 22.496 15.392 42.688 34.208 67.648 46.048 3.968 1.888 7.072 3.232 10.496-0.544 20.8-22.72 47.136-37.056 74.752-49.408 25.184-11.264 51.52-18.080 78.848-21.216 6.144-0.736 9.408-3.776 10.944-9.728 4.992-19.456 10.208-38.848 15.52-58.208 5.376-19.552 10.976-38.976 16.48-58.496 0.352 0 0.704 0 1.024 0zM482.272 586.634c0.736 0.032 1.472 0.096 2.208 0.128 1.792 2.976 4.128 5.76 5.28 8.96 3.136 8.512 6.016 17.216 8.576 25.92 0.96 3.264 2.528 4.512 5.76 4.288 12.704-0.736 25.472-0.64 38.080-2.24 41.728-5.248 79.104-21.216 112.192-47.2 3.648-2.88 5.12-6.368 4.128-10.816-0.544-2.656-1.408-5.28-2.016-8-1.472-6.4 1.664-10.272 8.192-9.472 2.912 0.352 5.888 1.76 8.48 3.328 4.16 2.528 7.36 1.952 10.208-1.952 6.336-8.608 12.768-17.088 19.072-25.696 23.456-32.064 35.904-68.16 39.776-107.488 0.384-3.968-0.736-6.496-4.224-8.448-3.872-2.208-7.712-4.608-11.232-7.328-3.872-2.976-3.84-5.504 0.384-8 3.36-1.984 7.2-3.232 10.88-4.576 3.52-1.28 5.472-3.36 4.896-7.328-1.952-13.088-3.136-26.336-5.888-39.232-6.016-28.416-18.080-54.336-34.24-78.4-2.4-3.616-4.864-5.024-8.864-2.336-2.4 1.6-5.12 2.848-7.872 3.84-2.112 0.768-4.48 0.864-6.72 1.28-0.352-2.272-1.216-4.608-0.896-6.784 0.768-5.248 1.856-10.496 3.232-15.616 1.12-4.224-0.096-7.328-3.168-10.112-4.992-4.512-9.728-9.248-14.752-13.696-37.664-33.088-81.504-51.712-131.328-56.416-5.088-0.48-8.608 0.832-11.008 5.472-2.272 4.416-4.864 8.736-7.584 12.864-2.976 4.576-6.528 4.512-8.896-0.256-2.144-4.416-3.84-9.152-5.088-13.888-0.864-3.264-2.24-4.832-5.632-4.48-3.904 0.384-7.872 0.704-11.776 1.216-53.312 6.656-98.528 29.728-136.576 67.424-3.456 3.456-4.096 6.752-1.984 11.072 2.624 5.408 5.408 10.848 7.104 16.512 0.704 2.368-0.736 5.952-2.336 8.128-0.736 0.992-4.48 0.608-6.4-0.224-3.456-1.472-6.592-3.712-9.856-5.6-6.496-3.712-9.856-2.88-13.504 3.648-6.080 10.752-12.128 21.568-17.888 32.544-10.592 20.192-16.128 41.92-19.328 64.384-0.736 5.248 0.96 8.256 6.368 9.024 3.040 0.416 6.144 0.992 9.024 1.984 2.144 0.704 4.032 2.144 6.080 3.264-1.152 2.112-1.856 4.96-3.648 6.144-4.032 2.752-8.448 5.376-13.088 6.72-5.12 1.472-7.072 3.872-6.912 9.024 1.248 53.888 19.136 101.504 52.896 143.424 3.136 3.904 6.24 4.736 10.656 2.592 8.352-4.096 16.704-8.096 25.184-11.84 4.256-1.888 9.408-5.76 13.184-1.088 3.36 4.224-1.408 8.224-3.776 11.776-5.824 8.704-11.776 17.248-17.984 26.24 31.424 26.688 66.688 44.32 107.712 52.32 3.328-8.448 6.464-16.576 9.824-24.608 1.536-3.616 3.52-7.008 5.28-10.496zM392.896 866.186c-3.872-7.328-9.216-7.392-14.848-6.496-23.872 3.84-47.776 7.648-71.648 11.584-4.032 0.64-8.384 1.12-11.904 2.976-2.464 1.28-3.744 4.768-5.6 7.328 2.144 0.992 4.16 2.4 6.4 2.88 7.136 1.472 11.072 6.592 9.76 13.76-0.704 3.872-1.792 7.648-3.040 11.392-1.76 5.408-0.416 7.584 5.28 7.264 16.928-0.896 33.792-1.952 50.688-3.040 6.144-0.384 12.352-0.992 18.464-1.888 3.648-0.512 7.52-2.080 7.52-6.4 0-4.896-4.352-3.712-7.456-3.968-5.12-0.384-6.848-2.112-6.368-7.2 0.544-5.824 1.664-11.584 2.208-17.376 0.512-5.408 3.488-7.072 8.512-7.488 4-0.352 7.84-2.112 12-3.328zM673.024 985.578c3.648 0.896 5.728 1.664 7.84 1.888 5.824 0.64 11.744 0.544 17.44 1.664 24.128 4.736 48.384 1.792 72.544 1.28 2.848-0.032 6.976-0.096 6.368-4.736-0.608-4.256-4.128-3.84-7.328-3.328-9.696 1.504-21.376-6.016-24.128-15.52-2.528-8.768 0.384-16.064 8.224-20.512 3.488-1.984 3.776-4.224 0.416-6.496-1.728-1.152-4.032-1.632-6.208-1.952-20.64-2.976-41.44-0.832-62.176-0.992-2.080 0-4.128 0.768-7.488 1.472 2.656 2.88 4.288 5.024 6.272 6.752 6.016 5.28 8.704 11.904 5.824 19.424-1.76 4.608-5.28 8.64-8.48 12.576-2.208 2.656-5.152 4.832-9.12 8.48zM711.84 788.906c-0.896-2.24-1.408-3.872-2.144-5.376-4.608-9.472-3.36-14.944 4.704-21.632 1.152-0.992 2.72-2.976 2.4-3.872-0.416-1.248-2.4-2.464-3.904-2.784-6.72-1.472-13.472-2.656-20.224-3.872-16.928-3.040-33.728-6.112-51.072-2.528-7.232 1.504-7.84 1.76-5.12 8.832 2.752 7.2 5.408 14.464 8.032 21.696 1.6 4.384 4.256 7.232 9.088 8.032 17.6 2.976 35.296 4.224 53.152 2.848 1.504-0.128 2.976-0.736 5.12-1.28zM506.848 909.61c-0.416 5.856-0.736 9.952-1.088 14.016-0.736 9.28-4.704 13.632-13.856 15.136-1.216 0.224-2.624-0.096-3.52 0.48-1.984 1.216-5.216 2.848-5.216 4.288 0 2.4 1.504 5.824 3.488 7.104 10.624 6.88 21.696 13.184 32.48 19.84 8.768 5.376 17.472 10.976 26.176 16.48 2.528 1.632 5.088 2.528 7.232-0.416 2.080-2.784 0.896-5.152-1.344-7.264-0.384-0.352-0.768-0.704-1.12-1.088-4-4.16-4.992-17.216-1.408-21.696 0.864-1.088 2.496-1.664 3.904-2.080 5.728-1.408 7.008-5.152 2.624-9.28-3.616-3.392-7.904-5.984-11.936-8.96-7.456-5.504-14.88-11.008-22.336-16.512-4.256-3.040-8.576-6.112-14.112-10.080zM871.264 883.018c4.288-1.344 8.032-2.336 11.712-3.648 5.344-1.952 7.264-5.248 4.864-10.464-3.584-7.744-7.648-15.328-12.256-22.496-4.032-6.336-8.736-12.384-13.888-17.824-5.376-5.632-11.392-10.848-17.696-15.392-4.352-3.136-7.136-1.536-10.272 2.752-4.224 5.76-8.768 11.36-13.6 16.64-2.272 2.528-2.208 4.288-0.16 6.592 6.528 7.264 13.024 14.624 19.712 21.76 1.152 1.248 3.52 2.624 4.832 2.24 8.224-2.464 14.496 3.168 21.632 4.992 1.952 0.512 3.392 4.288 4.352 6.848 0.832 2.368 0.544 5.024 0.832 8zM477.824 778.474c0.16-0.416 0.288-0.896 0.48-1.344 0.864 0 1.728 0.032 2.592 0 5.856-0.224 11.488-3.52 12.384-8.992 0.384-2.272-2.752-5.536-4.896-7.776-3.584-3.744-4.352-7.584-0.992-11.456 3.104-3.584 7.072-6.4 10.272-9.856 1.472-1.536 3.52-4.576 2.912-5.664-1.76-3.328-4.48-6.208-7.328-8.736-0.48-0.416-3.744 1.632-5.12 3.104-2.784 3.008-5.024 6.592-7.84 9.568-4.608 4.96-10.72 5.6-16.736 3.904-5.28-1.472-6.24-6.368-6.464-11.232 0-0.352-0.032-0.704-0.128-1.024-0.832-4.224-3.584-5.472-6.272-2.24-4.032 4.832-8.224 9.952-10.688 15.616-4.096 9.344 0.992 21.088 12.32 27.104 7.872 4.16 16.96 6.112 25.472 9.024z"></path>
</svg>
