<!-- Generated by IcoMoon.io -->
<svg version="1.1" xmlns="http://www.w3.org/2000/svg" width="1024" height="1024" viewBox="0 0 1024 1024">
<title></title>
<g id="icomoon-ignore">
</g>
<path fill="#000" d="M478.568-0.137c5.184 11.168 10.56 22.272 15.52 33.568 9.28 21.12 18.112 42.432 27.584 63.424 6.656 14.72 14.176 29.056 21.312 43.552 1.376 2.72 2.88 5.344 4.288 8.064 8.256 16.256 16.544 32.544 24.8 48.864 4.096 8.064 2.56 12.8-5.856 16.512-10.368 4.576-14.368 14.176-19.136 23.2-0.352 0.64 1.216 3.2 2.304 3.616 8.736 3.136 17.536 6.176 26.464 8.8 10.848 3.136 19.424 9.632 27.712 16.896 3.488 3.040 7.2 5.856 11.008 8.512 2.88 1.952 5.056 1.408 5.824-2.496 1.088-5.376 2.336-10.624-0.928-15.808-1.92-3.104 0.32-4.928 2.944-5.792 8.64-2.816 17.376-5.376 26.304-8.16 1.568 2.848 2.848 5.216 4.128 7.584 3.936 7.040 11.936 10.944 19.872 9.824 3.36-0.48 5.408-2.112 6.304-5.632 1.6-6.336 0.832-12.032-3.488-17.184-1.216-1.44-2.24-3.040-3.616-4.928 3.744-1.6 7.072-3.296 10.528-4.384 0.992-0.32 2.72 0.768 3.744 1.632 3.2 2.816 5.888 6.464 9.44 8.672 5.088 3.168 9.44 1.536 13.824-2.624 4.736-4.448 9.76-8.736 15.296-12.128 8.16-4.928 9.344-6.624 7.392-16.288-0.16-0.768-0.16-1.568-0.288-3.008 2.208 0.192 4.224 0.288 6.176 0.608 5.408 0.896 10.080-0.48 12.96-5.248 4.416-7.296 11.072-11.424 18.752-14.24 4.384-1.6 8.704-3.2 13.12-4.672 4-1.312 8.032-2.528 9.024-7.456 0.128-0.576 0.736-1.056 1.152-1.472 4.128-4 17.664-3.904 21.76 0.096 2.688 2.624 2.176 5.504 0.896 8.416-14.656 32.768-29.088 65.632-44.224 98.176-4.736 10.24-11.808 19.392-17.024 29.408-5.824 11.2-10.784 22.88-10.048 36 0.32 5.504-1.44 7.712-7.104 7.744-9.152 0.032-18.304-0.128-27.456-0.16-0.608 0-1.152 0.288-2.464 0.608 1.088 1.76 1.952 3.168 2.848 4.576 5.824 9.408 12.576 18.4 17.088 28.352 3.36 7.392 4.16 16.032 5.568 24.192s3.424 9.824 10.592 5.792c4.928-2.784 9.12-6.944 13.6-10.56 3.584-2.848 7.072-5.824 10.592-8.704 0.48-0.416 1.216-0.8 1.312-1.312 1.568-6.176 5.984-4.576 9.888-3.456 9.312 2.688 18.304 5.792 23.68 15.040 1.088 1.888 4.48 3.008 7.040 3.456 22.4 3.968 44.864 7.456 67.264 11.648 11.488 2.112 22.688 5.888 34.208 7.744 12.16 1.952 23.392 6.432 34.656 10.912 9.792 3.936 19.424 8.416 29.248 12.32 4.288 1.696 8.832 2.88 13.376 3.68 4.992 0.896 8.32 3.296 11.072 7.52 2.624 3.936 1.376 6.272-2.016 8.192-7.776 4.448-15.52 8.992-23.52 13.056-26.976 13.728-54.176 27.008-81.056 40.992-9.92 5.184-19.2 11.616-28.512 17.856-3.136 2.080-5.152 2.016-7.872-0.352-3.136-2.72-6.528-5.184-10.048-7.456-7.264-4.736-12.288-4.768-18.176-0.448-6.752 4.928-9.92 12.448-7.936 19.712 1.056 3.808 2.688 7.456 4.128 11.392-8.256 4.128-16.544 8.32-24.832 12.448-8.48 4.224-16.288 8.672-17.728 19.584-0.8 5.888-2.816 6.496-7.84 3.424-2.656-1.632-4.992-3.936-7.264-6.112-3.488-3.296-5.952-2.848-7.232 1.76-1.92 6.944-3.36 14.048-5.408 20.96-1.952 6.592-4.448 12.96-6.688 19.456-0.416 1.12-0.64 2.24-1.312 4.64 7.104-3.776 13.408-2.656 19.52-0.736 2.496 0.8 5.312 2.4 6.752 4.48 2.976 4.32 5.024 9.28 7.616 13.888 8 14.24 15.68 28.672 24.16 42.624 9.472 15.616 19.392 31.040 29.696 46.112 6.208 9.12 13.92 17.216 20.384 26.208 8.704 12.096 17.184 24.352 25.056 37.056 2.368 3.808 2.816 9.088 3.136 13.76 0.288 4.16-1.952 5.216-5.344 2.784-4.544-3.296-9.184-2.464-14.24-1.76-3.52 0.48-7.616 0-10.912-1.376-15.808-6.496-30.944-15.616-47.328-19.744-23.648-5.952-44.832-16.928-66.72-26.624-9.888-4.384-19.712-8.48-30.496-9.792-1.568-0.192-3.040-0.896-4.608-1.312-8.896-2.56-17.728-5.472-26.72-7.616-4.32-1.056-6.432-3.008-6.592-7.392-0.16-4.16-0.64-8.32-0.928-12.48-0.256-3.808-2.368-4.864-5.504-3.296-1.952 0.96-3.808 2.464-5.216 4.096-13.152 15.744-30.304 25.536-49.056 32.832-2.304 0.896-5.056 0.768-7.584 0.736-6.624-0.096-12.672 1.472-17.984 5.664-1.472 1.152-3.264 2.208-5.056 2.656-9.44 2.304-18.912 4.608-28.416 6.464-4.064 0.768-4.832 3.648-3.168 5.696 6.304 7.904 11.328 17.248 20.832 22.080 3.488 1.76 4.096 3.776 2.080 6.816-2.464 3.776-4.896 7.552-7.584 11.168-11.008 14.88-20.8 30.432-25.824 48.576-1.76 6.432-7.584 8.224-13.44 9.28-3.008 0.512-6.048 0.576-9.12 0.928-3.936 0.48-5.888 3.456-4.288 7.136 2.080 4.864 5.248 8.512 10.784 10.144 2.976 0.896 5.728 3.264 7.936 5.536 0.736 0.768 0 3.84-0.992 5.216-5.088 6.976-10.592 13.728-15.744 20.672-1.472 2.016-2.4 4.448-3.488 6.752-2.656 5.408-5.312 10.848-7.776 16.352-1.216 2.72-2.080 5.632-3.008 8.48-1.536 4.64-2.208 9.792-4.672 13.888-3.84 6.432-6.016 12.96-6.048 20.448-0.032 3.648-0.288 7.456-1.28 10.944-1.536 5.248-5.824 6.144-8.64 1.6-3.328-5.344-6.272-11.2-8.032-17.216-4.544-15.36-8.256-30.944-12.48-46.4-0.8-2.88-1.888-5.856-3.488-8.384-16.032-25.28-26.816-52.896-35.136-81.44-5.632-19.296-15.264-35.712-28.768-50.368-8.096-8.736-6.752-7.936 1.408-14.304 9.12-7.072 17.472-15.136 25.888-23.040 1.792-1.696 2.56-4.448 4.224-7.552-4.768-0.512-8.384-0.928-11.968-1.28-26.304-2.528-50.752-10.56-73.024-24.832-4.256-2.72-8.48-5.248-13.92-5.856-3.648-0.416-7.072-3.424-10.432-5.536-3.2-2.016-6.208-4.384-9.824-6.944-1.632 10.592-4.672 20.256 2.080 29.536 2.464 3.36-0.16 5.792-3.328 6.944-9.728 3.68-19.456 7.296-29.248 10.752-6.496 2.304-13.28 3.776-19.68 6.272-44.8 17.408-90.624 32.16-134.24 52.64-5.088 2.4-11.040 3.488-16.704 4.16-2.24 0.288-5.824-1.568-6.944-3.52s-1.056-6.016 0.288-7.84c8.8-11.552 18.304-22.624 27.232-34.112 13.92-17.984 28.352-35.68 40.992-54.592 3.936-5.888 6.656-8.832 13.696-9.408 8.704-0.736 13.28-8.896 10.72-17.408-1.056-3.488-0.48-6.144 1.472-8.992 7.072-10.144 14.048-20.352 20.928-30.592 2.24-3.328 4.992-5.152 9.12-5.248 8.64-0.256 9.312-1.28 7.552-9.824-0.128-0.608 0-1.248 0-2.24 3.808-0.736 7.552-1.536 11.296-2.112 3.808-0.608 5.024-2.368 3.264-5.984-6.784-14.080-6.144-29.312-6.624-44.352-0.192-5.792 0-11.552-0.192-17.344-0.032-1.248-1.088-2.4-1.632-3.648-1.312 0.672-3.328 1.088-3.904 2.176-1.152 2.336-1.536 5.056-2.368 7.584-0.96 2.88-2.080 5.728-3.136 8.576-2.56-0.96-5.376-1.536-7.616-2.944-8.96-5.568-17.312-12.32-26.72-16.864-8.384-4-18.016-5.344-26.944-8.352-19.584-6.592-39.104-13.44-58.56-20.352-3.296-1.152-6.336-3.040-9.408-4.832-4.064-2.336-7.84-4.32-13.056-3.488-2.656 0.448-6.144-1.6-8.64-3.36-6.176-4.448-12.64-6.592-20.48-6.976-7.552-0.352-15.040-2.944-22.304-5.376-2.080-0.672-3.968-4.128-4.416-6.592-0.256-1.44 2.208-4.096 4-5.024 23.616-12.288 47.392-24.16 70.944-36.576 22.112-11.648 44.032-23.776 65.952-35.776 4.064-2.24 7.68-5.312 11.712-7.584 7.456-4.256 14.848-8.864 22.72-12.192 10.56-4.416 17.664-10.912 19.872-22.624 2.784-14.72 7.264-28.896 15.648-41.6 0.992-1.536 0.576-5.216-0.64-6.656-2.368-2.784-4.608-7.232-9.76-4.832-2.88 1.376-5.824 2.784-8.576 4.32-3.52 2.016-6.368 1.28-8.032-2.208-3.040-6.496-6.496-12.96-8.384-19.84-7.616-27.648-15.008-55.36-21.888-83.2-5.312-21.44-9.76-43.104-14.528-64.704-0.512-2.336-1.088-4.896-0.608-7.136 0.448-2.016 1.888-4.384 3.584-5.376 1.696-0.96 5.056-1.376 6.304-0.32 8.352 7.040 18.72 9.632 28.352 13.984 14.016 6.272 27.584 13.536 41.536 19.936 11.328 5.216 22.816 10.144 34.432 14.656 10.4 4 20.256 8.576 29.344 15.2 5.088 3.744 11.36 5.888 17.024 8.896 3.264 1.728 6.592 3.424 9.472 5.632 7.040 5.376 7.232 10.528 1.248 16.992-1.728 1.856-3.296 3.936-4.416 6.144-0.48 0.96-0.16 3.264 0.576 3.744 0.896 0.576 2.656 0 3.936-0.352 0.672-0.192 1.152-1.056 1.696-1.696 9.44-11.424 21.6-18.944 35.2-24.448 8.32-3.36 16.576-6.912 24.8-10.432 4.416-1.92 5.632-4.224 2.72-7.712-4-4.896-8.96-9.12-13.728-13.312-0.96-0.832-3.168-0.032-4.576-0.608-2.528-0.992-5.536-1.92-7.104-3.904-0.96-1.216-0.32-4.608 0.736-6.432 6.656-11.36 13.472-22.56 20.48-33.728 18.816-30.016 36.352-60.64 50.688-93.248 11.392-25.984 22.752-51.904 32.96-78.368 0.576-0.096 1.216-0.096 1.856-0.096zM614.44 466.263c0.128 0 0.256 0 0.32 0 0-11.232 0.128-22.464-0.032-33.664-0.256-18.464 0.672-37.344-6.272-54.688-6.432-15.968-15.168-31.040-23.136-46.368-1.28-2.496-3.616-4.48-5.632-6.528-5.216-5.216-10.624-10.24-15.808-15.456-5.792-5.856-11.392-12.032-19.456-14.528-19.584-6.048-39.264-11.808-58.976-17.344-2.24-0.64-5.088 0.768-7.616 1.376-3.936 0.928-8 3.168-11.776 2.784-17.056-1.856-33.344-0.608-47.872 9.504-11.712 8.16-23.2 16.608-34.912 24.8s-17.536 20.672-21.28 33.312c-3.936 13.248-5.536 27.36-6.496 41.28-2.784 40.192-4.672 80.416-7.136 120.64-0.192 3.296-1.44 7.232-3.616 9.6-5.216 5.664-2.848 12.192-3.424 18.432-0.256 2.784 0.288 5.728-0.672 8.224-2.976 7.872-6.496 15.52-9.76 23.296-0.256 0.608-0.352 1.248-0.576 1.792-1.76 4.576-3.168 9.344-5.376 13.728-3.104 6.144-3.328 7.392 1.632 12.128 6.176 5.888 10.56 12.8 13.44 20.8 1.568 4.384 3.328 8.704 5.472 12.8 3.904 7.584 11.936 12.512 18.656 11.008 13.888-3.136 24.32 4.064 33.184 12.352 5.792 5.408 10.72 12 16.928 17.248 2.528 2.112 3.776 5.824 5.504 8.864 0.768 1.376 0.992 3.136 1.952 4.384 11.168 14.24 11.808 30.656 9.92 47.648-0.608 5.408-1.152 10.848-1.536 16.288-0.192 2.976 0.288 5.856 3.904 6.816 3.424 0.928 5.984-0.416 7.776-3.264 2.368-3.808 4.672-7.68 6.944-11.52 2.24-3.776 5.184-4.384 8.64-1.568 1.952 1.6 3.584 3.744 5.568 5.312 1.92 1.472 4.224 2.528 6.304 3.776 0.8-2.304 1.952-4.48 2.4-6.88 1.088-5.824 1.856-11.712 2.72-17.536 0.576-3.776 1.856-4.128 4.928-1.632 6.368 5.056 8.256 11.968 8.864 19.52 0.32 4.224 1.856 7.424 6.592 8.16 4.672 0.736 8.192-0.896 10.72-4.736 0.608-0.928 0.896-2.048 1.472-3.008 0.448-0.736 1.088-1.568 1.792-1.792 2.208-0.8 15.68 4.16 16.864 6.144 0.32 0.512 0.416 1.216 0.48 1.856 0.448 4.128 3.104 6.816 6.784 6.976 4.128 0.16 3.808-4.224 4.384-6.944 4.256-20.864 8.064-41.856 12.64-62.656 1.6-7.232 3.296-15.68 8-20.672 9.408-9.952 20.704-18.144 31.616-26.528 8.864-6.88 18.4-12.832 27.456-19.52 2.528-1.856 4.288-4.736 6.528-6.944 1.568-1.536 3.2-3.648 5.088-3.968 4.416-0.8 4.48-3.2 4.384-6.912-0.192-6.016-1.12-12.672 0.992-17.984 3.36-8.512 2.464-15.296-2.496-22.56-8.352-12.256-14.176-25.664-15.040-40.544-1.152-18.432-1.44-36.736-2.080-55.040zM711.976 524.343c7.616 0.128 10.144-0.8 15.744-5.312 0.832-0.672 1.92-1.6 2.848-1.6 3.584 0.096 4.928-2.112 5.376-4.992 1.632-11.040 3.488-22.112 4.448-33.248 0.448-4.928-1.632-9.792-5.856-13.12-5.664-4.448-11.264-8.992-17.216-13.088-1.6-1.088-4.48-1.216-6.432-0.64-3.328 0.96-6.304 3.008-9.568 4.32-9.824 3.968-16.576 10.688-19.136 21.184-0.96 4.064-1.952 8.064-2.88 12.128-1.728 7.552-1.568 14.88 4.256 20.672 8 8.064 17.536 13.312 28.416 13.632zM483.208 833.431c9.408 0.448 17.888-1.536 24.288-9.088 0.512-0.608 1.216-1.248 1.888-1.408 7.52-1.856 8.384-7.424 7.68-13.728-0.416-3.456-1.248-6.88-1.888-10.304-0.192-1.056-0.928-2.24-0.64-3.136 1.44-4.736-0.928-8.16-4.256-10.688-4.16-3.2-8.704-6.016-13.312-8.576-1.216-0.672-4.288-0.288-4.832 0.608-2.4 4-6.048 4.896-10.144 5.344-3.968 0.448-7.936 1.088-11.936 1.632-10.432 1.472-17.056 8.192-18.464 18.56-0.32 2.368-0.768 4.736-1.28 7.072-1.76 7.936 0.192 12.96 7.136 17.088 7.936 4.64 16.544 7.072 25.76 6.624zM228.712 526.647c0.096 0.352 0.128 0.736 0.192 1.088 4.096-1.216 8.256-2.304 12.32-3.68 3.616-1.28 6.976-3.584 10.688-4.256 7.584-1.408 9.952-7.072 10.464-13.12 0.8-9.216-0.96-18.272-6.528-26.080-4.32-6.048-9.92-8.48-17.728-9.088-8.256-0.64-15.968-0.256-23.552 2.496-10.368 3.776-17.696 17.472-14.368 27.936 2.24 7.104 5.792 13.856 9.312 20.48 1.056 1.92 3.808 3.744 6.016 4.064 4.288 0.64 8.8 0.192 13.216 0.192zM512.072 202.775c-0.96-6.176-9.728-19.040-15.488-21.28-1.248-0.48-2.848-0.32-4.16-0.096-3.264 0.672-6.464 1.696-9.76 2.368-18.816 4.064-28.992 15.776-28.288 32.704 0.448 11.072 8.256 20.192 19.104 22.368 9.12 1.792 18.144 1.952 26.816-1.952 1.696-0.768 3.776-2.368 4.224-3.968 2.784-9.984 5.088-20.064 7.584-30.144zM213.448 466.167c2.176 0.352 4.256 0.992 6.336 0.992 5.536-0.064 11.040-0.32 16.544-0.768 0.64-0.032 1.856-2.496 1.6-2.72-1.248-1.312-2.784-3.168-4.384-3.296-4.704-0.416-9.472-0.064-14.24-0.064-3.456 0-5.248 1.792-5.856 5.856zM556.072 778.327c2.112 1.44 3.008 2.56 3.616 2.464 6.912-1.696 13.824-3.456 20.576-5.632 0.896-0.288 1.056-2.944 1.568-4.448-1.6-0.416-3.36-1.44-4.736-1.056-4.288 1.248-8.416 2.976-12.576 4.64-2.528 1.056-4.992 2.336-8.48 4zM549.64 777.751c-5.216 0-9.984-0.032-14.784 0.032-2.56 0.032-4.736 1.28-4.096 4.064 0.608 2.496 2.304 4.736 3.52 7.104 1.536-1.216 2.976-2.624 4.608-3.616 1.856-1.088 3.968-2.688 5.824-2.528 4.288 0.416 5.696-0.992 4.896-5.056zM575.656 730.071c-3.136 2.944-4.736 8.064-4.576 14.784 0.032 1.28 0.576 3.296 1.44 3.648 1.152 0.512 3.136 0.192 4.32-0.48 5.792-3.264 5.216-12.992-1.216-17.952zM660.36 721.367c-6.144 0.576-17.568 11.36-17.184 15.968 8.48-0.16 17.568-8.416 17.184-15.968zM852.456 486.967c7.232 0.608 12-5.824 9.28-12.416-0.32-0.768-3.328-1.44-3.52-1.12-2.784 4.128-6.688 7.84-5.728 13.536zM564.424 204.695c-1.152-2.848-2.016-5.248-3.168-7.456-0.512-0.96-1.728-2.336-2.496-2.24-0.96 0.128-2.112 1.376-2.528 2.4-1.728 4.512 0.832 7.552 3.936 10.688 1.44-1.152 2.784-2.24 4.256-3.36zM439.464 880.471c0.256-0.64 0.48-1.248 0.736-1.888-1.76-3.008-3.488-6.016-5.248-9.024-1.44-2.4-4.288-1.728-4.224-0.096 0.128 3.040 1.472 6.304 3.2 8.896 0.896 1.312 3.648 1.44 5.536 2.080zM487.656 173.911c-1.76-1.312-2.944-2.72-3.456-2.528-3.040 1.12-6.016 2.496-8.832 4.128-0.448 0.256 0.032 2.176 0.128 3.328 2.528-0.32 5.184-0.288 7.584-1.056 1.44-0.512 2.56-2.176 4.576-3.904zM859.176 466.519c1.792 1.92 2.688 3.616 4 4.096 1.888 0.672 4.928-4.16 4.288-7.456-0.32-1.568-2.016-2.848-3.104-4.256-1.6 2.4-3.264 4.832-5.216 7.616zM352.264 345.143c-2.464 3.584-4.416 5.792-5.472 8.384-0.288 0.736 2.048 2.528 3.168 3.84 1.792-2.24 3.904-4.32 5.216-6.816 0.352-0.736-1.376-2.624-2.944-5.408zM480.008 975.063c0.064-0.64 0.416-1.312 0.256-1.888-0.352-1.088-1.056-2.080-1.568-3.136-0.992 0.768-2.304 1.376-2.88 2.336-0.736 1.152-1.536 2.976-1.088 3.968 0.8 1.952 2.496 3.584 3.776 5.344 0.512-1.728 1.056-3.488 1.536-5.216 0.064-0.448 0-0.928 0-1.408zM727.112 650.103c2.624-3.456 4.768-6.272 7.040-9.28-1.44-1.248-2.496-2.112-4-3.424-1.088 4.288-7.872 6.272-3.008 12.672zM249.384 334.231c-7.744 1.408-9.728 4.544-6.368 10.624 2.208-3.648 4-6.656 6.368-10.624zM455.528 927.799c2.72-2.4 2.368-3.904-2.816-8.48-0.96 0.928-1.952 1.888-3.36 3.264 2.368 1.952 4.256 3.584 6.176 5.216zM442.024 890.327c-2.304 3.040-3.36 5.664-0.416 7.584 0.96 0.608 3.2-0.8 5.568-1.536-2.176-2.528-3.488-4.096-5.184-6.048zM247.304 459.991c3.904 1.088 5.504 6.72 11.008 1.696-3.968-0.576-5.696-5.728-11.008-1.696zM826.568 477.943c0.8-3.264 1.28-5.216 1.76-7.136-2.208 0.064-4.416 0.16-6.624 0.256-0.128 0.576-0.256 1.088-0.32 1.632 1.312 1.312 2.624 2.656 5.184 5.248zM318.792 576.503c-0.608-0.192-1.248-0.416-1.856-0.64-1.536 1.28-3.008 2.624-4.608 3.936 1.856 2.24 3.488 4.224 5.632 1.472 0.896-1.12 0.608-3.168 0.832-4.768zM697.8 442.423c-1.056 2.656-1.792 4.704-2.624 6.72 2.368-0.832 4.704-1.632 8-2.816-2.24-1.6-3.264-2.336-5.376-3.904zM892.68 431.511c-1.056 1.12-1.92 2.080-3.008 3.296 1.376 1.28 2.464 2.336 3.68 3.52 1.312-1.248 2.368-2.24 3.584-3.424-1.6-1.28-2.816-2.208-4.256-3.424zM392.456 745.015c4.128-5.152 3.744-6.496-2.016-8.064 0.64 2.56 1.248 4.928 2.016 8.064zM388.712 206.999c0.576-0.032 1.088-0.128 1.632-0.16 0.128-1.568 0.256-3.168 0.416-4.736-1.76 0.288-3.52 0.576-6.368 1.056 2.080 1.856 3.2 2.848 4.32 3.84z"></path>
<path fill="#000" d="M437.32 624.855c-21.28-0.8-42.112-4-62.016-11.776-2.336-0.896-4.672-2.336-6.368-4.096-4.736-4.768-9.184-9.824-13.696-14.88-3.264-3.68-4.416-7.744-3.040-12.832 2.304-8.544 6.272-15.744 13.984-20.512 2.88-1.792 4.48-3.808 2.4-7.552-0.576-0.992 0.64-4.064 1.888-4.832 6.528-4.096 13.568-5.632 21.024-2.24 9.6 4.384 19.296 8.576 28.864 13.088 13.056 6.144 25.984 12.448 38.944 18.656 0.448 0.192 0.832 0.448 1.28 0.64 9.824 4.736 9.952 5.504 4.608 14.784-2.624 4.576-4.224 9.728-6.944 14.208-3.040 4.992-6.368 9.984-10.464 14.080-2.496 2.464-6.72 3.168-10.112 4.704-0.16-0.448-0.256-0.96-0.32-1.44zM367.368 575.799c4.256-3.904 4.256-3.936 0.96-6.816-1.12 1.248-2.304 2.496-3.584 3.84 0.992 1.152 1.792 2.080 2.624 2.976z"></path>
<path fill="#000" d="M544.264 612.087c-9.184-1.248-17.056-3.584-23.36-10.24-3.84-4.064-8.096-7.744-12.256-11.552-2.080-1.92-2.688-3.584-0.256-5.984 1.44-1.408 2.080-3.84 2.56-5.952 0.992-4.416 3.488-5.984 8-5.632 2.24 0.192 4.832-0.608 6.944-1.568 17.984-8.192 33.504-21.088 52.64-27.136 4.704-1.472 8.64-1.6 12.672 1.28 9.152 6.432 15.808 19.936 13.6 28.384-1.952 7.616-6.528 12.992-14.080 15.776-2.208 0.8-4.256 2.112-6.304 3.36-6.944 4.288-13.536 9.28-20.832 12.832-5.984 2.976-12.832 4.32-19.36 6.368z"></path>
<path fill="#000" d="M461.256 687.287c-0.96-3.904-2.368-7.136-2.496-10.464-0.32-8-0.128-16 0-24.032 0.128-9.792 4.096-18.24 9.184-26.368 1.6-2.56 1.44-6.176 2.464-9.216 0.608-1.888 1.44-4.576 2.944-5.184 3.936-1.632 8.192-2.88 12.416-3.296 6.144-0.64 10.272 2.4 12.928 7.936 1.728 3.584 4 6.816 5.728 10.4 2.080 4.448 4.992 8.896 5.536 13.664 1.6 13.312 2.208 26.784 3.168 40.192 0.288 4.064-0.48 7.456-5.632 7.584-0.16 0-0.352 0.032-0.448 0.128-6.016 6.208-10.208 1.792-14.688-2.368-7.52-6.88-15.84-7.68-24.736-2.528-1.728 0.992-3.424 1.92-6.368 3.616zM482.536 650.071c3.104-1.568 6.016-7.936 4.896-10.464-0.352-0.768-1.28-1.632-2.048-1.728-0.736-0.096-1.92 0.64-2.24 1.376-1.792 3.456-2.72 7.072-0.608 10.848zM470.76 664.855c-0.64 0-1.28 0-1.92-0.032-0.128 3.2-0.288 6.432-0.416 9.632 1.12-0.256 2.848-0.128 3.328-0.832 2.080-3.040 2.016-6.144-0.992-8.736z"></path>
</svg>
