<!-- Generated by IcoMoon.io -->
<svg version="1.1" xmlns="http://www.w3.org/2000/svg" width="1024" height="1024" viewBox="0 0 1024 1024">
<title></title>
<g id="icomoon-ignore">
</g>
<path fill="#000" d="M388.124 990.281c8.128-34.208 17.28-67.584 23.744-101.632 2.816-15.456 0.32-31.872-0.32-47.808-0.16-6.304-0.32-13.12-2.816-18.592-4.8-10.144-11.296-19.584-17.6-28.896-3.328-4.992-7.808-9.312-12.128-13.44-12.96-12.608-28.064-12.608-44.16-7.136-16.096 5.632-34.048-1.312-39.68-16.096-1.984-5.152-1.504-11.296-1.504-17.088 0.32-22.592-4.32-44-13.28-64.576-1.664-4-3.648-8.128-6.464-11.456-16.608-19.264-24.416-41.664-25.408-67.072-0.32-11.136-2.496-22.24-3.168-33.536-0.16-3.648 0.672-7.808 2.144-11.136 4.16-8.64 8.8-17.088 13.6-25.408 1.312-2.336 4.16-4 7.648-7.136 0-8.288-0.32-18.432 0-28.736 0.512-11.776 1.984-23.584 1.984-35.36 0-7.808-1.664-15.776-2.656-23.904 3.648 2.816 7.456 5.824 11.616 8.64 5.632 4 11.456 6.464 19.104 5.312 5.632-0.992 11.776 0.992 17.6 2.496 29.056 6.976 58.784 4.8 88.16 5.312 10.144 0.16 20.256 2.144 30.4 2.496 4.8 0.16 9.792-1.664 14.784-1.984 4.16-0.32 8.48 0.16 12.608 0.32 0 0.832 0 1.824 0 2.656-1.824 0.672-3.648 1.312-6.816 2.336 1.504 0.832 2.336 1.824 3.328 1.984 8.8 1.664 17.6 3.808 26.56 4.64 6.816 0.672 13.792-0.32 20.576-1.152 12.128-1.504 24.416-3.328 36.544-4.8 4.32-0.512 8.8-0.832 13.12-1.152 17.76-1.312 35.52-2.976 53.312-4 9.952-0.672 20.256-1.312 30.208-0.16 20.928 2.496 41.344 1.312 61.92-3.488 34.528-7.968 70.080-12.448 102.784-26.912 5.824 5.472 7.968 21.92 4.64 30.88-1.312 3.488-1.824 7.296-2.656 10.944-1.824 7.808-4.64 15.616-4.992 23.584-0.672 19.584 0.832 40.512 13.6 55.456 18.592 22.080 12.96 42.688 2.816 64.576-13.12 28.736-27.072 57.28-39.36 86.496-5.472 13.12-7.648 27.744-11.616 41.504-2.144 7.296-4.8 14.432-7.648 21.6-2.144 5.472-6.464 5.312-11.616 4-9.312-2.336-18.752-5.152-28.064-4.992-16.448 0.32-30.208 8.64-39.52 21.76-4.16 5.632-3.488 14.624-6.144 21.6-6.144 16.768-3.328 33.888-2.336 50.816 2.144 39.008 13.792 76.064 26.080 112.736 1.312 4.16 1.664 6.976-2.144 9.952-14.624 11.296-28.736 22.912-43.328 33.888-3.808 2.816-9.312 3.328-13.6 5.632-19.936 11.136-41.504 8.96-62.944 8.96-21.6 0-43.168 1.152-64.576-0.32-16.608-1.152-33.376-4.16-49.312-8.64-24.064-6.816-47.488-15.616-71.232-23.744-1.152 0.512-1.984-0.32-1.824-0.16zM713.084 607.049c-0.512 0-1.152-0.16-1.664-0.16 0-5.824 0.16-11.616 0-17.44-0.512-18.752-13.952-30.208-32.384-27.072-10.304 1.824-20.416 4.32-30.4 7.296-17.76 5.472-34.688 12.96-46.816 28.064-8.64 10.624-7.296 23.072-5.472 35.52 0.32 1.824 2.336 3.808 4 4.992 4.64 3.328 9.632 6.464 14.624 9.312 18.272 10.464 38.848 9.952 58.784 10.944 8.96 0.512 18.592-4.16 27.072-8.128 6.464-2.976 8.96-9.312 8.64-17.44-0.32-8.64 2.336-17.28 3.648-25.888zM399.58 660.201c0 0 0 0 0 0 1.344-0.16 2.816-0.32 4.16-0.16 20.768 2.976 38.176-6.464 56.128-14.112 2.336-0.992 5.152-2.976 6.144-5.152 6.144-12.608 7.808-39.68-11.136-49.312-11.968-6.144-23.904-12.608-36.352-17.6-8.128-3.328-17.28-5.152-26.080-5.824-6.656-0.512-13.6 2.144-20.416 2.336-5.824 0.16-8.64 3.168-11.776 7.648-11.136 16.096-11.776 34.048-7.648 51.648 4.8 20.096 15.104 33.536 37.024 30.72 3.328-0.512 6.656-0.16 9.952-0.16zM535.228 776.425c2.336 2.976 3.328 5.632 5.312 6.976 18.432 11.968 31.040 11.296 37.536-6.304 2.496-6.976 1.504-16.096-0.32-23.584-3.648-15.776-9.12-31.040-13.28-46.656-4-15.456-16.256-20.576-29.376-24.416-6.144-1.824-28.384 10.304-32.032 16.096-15.104 25.088-20.768 52.48-19.264 81.536 0.32 8.48 4 11.776 12.608 11.776 14.112 0.16 27.552-1.664 38.848-15.456z"></path>
<path fill="#000" d="M229.212 294.057c9.472 0 18.752-0.16 28.224 0.16 1.984 0 4 1.312 5.984 1.984 5.824 1.984 11.456 4 17.28 6.144 1.984 0.672 3.808 1.664 5.824 2.496 4.64 1.984 9.472 3.648 14.112 5.824 2.144 1.152 4 3.168 7.648 4.16-4.48-7.296-7.808-15.776-13.44-21.92-14.112-15.264-27.904-30.208-34.688-50.144-1.824-5.632-2.816-11.616-3.168-17.6-1.504-27.904-7.968-53.952-27.904-74.72-9.472-9.952-20.096-18.752-29.728-29.568 10.944 5.312 22.592 9.792 32.864 15.936 16.928 10.304 34.528 20.256 45.504 37.696 7.968 12.8 15.776 25.888 22.4 39.36 7.456 15.264 17.92 27.744 32.384 36.704 3.328 1.984 7.648 2.816 11.616 3.168 1.152 0.16 4-3.168 3.808-4.64-0.992-14.112-1.824-28.384-4-42.496-1.344-8.288-5.152-16.096-7.648-23.424 11.136 2.336 18.272 12.128 24.256 23.232 0.32 0.672 0.672 1.504 0.832 2.336 1.984 5.984 4.64 11.616 11.776 11.456 4.48-0.16 10.144-13.28 8.8-18.752-2.976-13.28-9.632-22.080-23.072-28.064-26.080-11.776-50.976-26.080-76.224-39.52-31.040-16.256-56.288-39.008-75.040-68.416-13.28-20.576-12.608-42.496-4.16-65.088 0.672 2.496 1.664 4.8 1.824 7.296 3.648 28.224 18.752 47.488 44.32 59.264 39.68 18.112 79.040 36.704 118.56 54.976 14.112 6.656 28.384 13.44 44.992 12.288 3.168-14.624-6.464-23.232-15.264-30.72-5.984-5.152-15.104-6.656-22.752-9.952-10.624-4.48-19.744-10.304-25.568-20.928-3.488-6.464-12.448-9.312-13.28-18.112-0.832-7.968-1.664-15.936-2.336-23.744 0.672-0.16 1.504-0.32 2.144-0.32 2.144 3.808 3.808 8.128 6.656 11.456s7.136 5.312 10.144 8.288c7.488 7.648 16.768 9.792 26.912 10.624 6.656 0.512 13.952 0.832 19.936 3.648 15.936 7.296 34.208 9.952 45.664 26.080 4.16 5.984 13.12 8.288 18.592 13.44 12.608 12.288 24.736 25.248 36.704 38.176 5.312 5.632 11.136 8.64 18.944 7.808 9.632-0.832 12.96-5.152 8.64-14.432-3.648-7.968-7.968-15.776-13.28-22.752-8.64-11.456-18.944-21.6-32.544-27.744 14.112 1.664 28.736 1.984 42.336 5.472 13.12 3.488 24.064 12.448 32.224 23.584 16.256 22.592 31.392 45.984 47.808 68.256 4.64 6.304 11.968 11.776 19.264 14.432 12.8 4.8 24.416-6.464 20.416-19.936-3.808-12.608-10.144-24.576-14.944-36.032 22.24 9.472 34.688 28.896 43.68 51.808 9.632 24.416-3.168 46.336-7.648 69.088 8.96 1.984 22.592-4 28.064-9.472 12.8-12.608 13.6-28.576 13.952-44.832 0-3.328 1.312-6.656 1.984-9.792 0.832 0 1.824-0.16 2.656-0.16 1.504 4 2.976 7.968 4.64 11.776 10.304 21.92 9.312 45.344 7.648 68.256-0.672 8.48-7.648 16.608-11.776 24.896-1.504 2.816-2.976 5.824-5.152 9.952 10.304 0 18.272-3.648 24.896-8.48 10.304-7.456 16.096-18.272 17.28-31.392 0.32-3.648 3.488-6.976 5.824-11.456 12.128 17.92 10.784 35.2 8.96 52.96-1.824 19.104-16.608 29.376-24.736 42.688 3.488 5.984 6.464 12.128 10.464 17.44 1.984 2.656 5.632 3.808 9.12 6.144-3.488 0.992-6.144 2.336-8.96 2.336-5.472 0.16-11.296 0.512-16.448-0.832-6.304-1.504-12.128-4.64-18.112-7.296-2.144-0.992-4.8-2.336-5.824-4.32-3.648-6.656-9.472-8.128-16.096-9.792-7.968-1.984-15.616-5.984-24.416-9.472 5.472-3.808 8.96-6.144 11.296-7.808-6.976-3.648-13.952-6.464-20.096-10.784-8.8-6.144-0.672-13.952-0.16-21.92-14.272 3.488-20.256-8.48-29.216-14.432-13.792-9.12-27.904-16.096-44.672-16.928-3.328-0.16-6.816-1.984-9.952-3.488-16.096-7.296-20.416-8.128-40.512-6.656 4.64 1.824 7.648 2.976 10.624 4.16-0.16 0.512-0.16 0.992-0.32 1.504-5.152-0.832-10.304-1.664-15.456-2.336-7.136-0.992-14.624-3.168-21.6-2.496-24.576 1.824-47.808 9.472-67.232 24.256-8.64 6.464-16.448 6.304-25.408 7.456-4.48 0.512-9.472 1.504-13.12 3.808-13.28 8.128-26.24 16.928-39.008 25.888-5.152 3.648-7.136 8.48-7.296 15.776-0.16 6.816-5.632 13.792-9.472 20.416-3.328 5.824-7.648 11.296-11.456 16.768-6.976 9.792-12.96 20.576-25.888 23.904-1.504 0.32-2.496 2.336-4 2.816-5.472 1.824-11.616 5.632-16.608 4.48-7.456-1.664-10.624-9.12-10.304-16.928 0.512-11.456-4.992-20.768-11.136-29.568-5.312-7.648-12.128-14.432-18.944-22.24 8.288-3.648 15.936-3.168 22.24 0.16 6.464 3.328 11.776 8.96 18.592 12.8-6.144-11.616-11.776-23.584-18.272-35.040-6.464-11.136-14.624-20.576-27.744-24.256-5.152-1.504-10.144-3.328-15.104-5.152-0.32 0-0.16-0.512-0.16-0.992z"></path>
<path fill="#000" d="M364.38 383.561c11.968-2.656 23.904-5.312 36.032-7.968 14.944-3.168 29.216-3.808 43.168 5.632 5.632 3.808 13.952 3.648 21.088 5.312 0.32-0.832 0.512-1.664 0.832-2.656-3.168-2.496-6.976-4.48-8.96-7.648-1.504-2.336-2.144-7.968-0.992-8.8 4.64-3.328 10.304-5.312 15.616-7.648 6.656-2.976 15.456-0.512 20.096-8.288 0.32-0.672 1.152-1.312 1.824-1.504 17.92-3.488 36.352-8.64 54.304-3.808 9.312 2.496 16.768 11.616 25.568 17.92-4.992 7.648-8.96 13.952-13.12 20.256 0.32 0.512 0.512 0.992 0.832 1.504 2.976-1.664 5.984-3.168 8.8-4.992 6.144-4 11.776-8.8 18.432-12.128 21.76-10.944 44.832-9.12 68.064-6.656 7.968 0.832 16.256 0.512 23.904 2.496 7.456 1.984 14.272 6.144 21.248 9.472 1.152 0.512 2.336 2.144 3.488 2.144 12.8-0.32 21.92 8.48 32.544 12.96 10.784 4.64 18.944 12.8 24.736 24.576-5.984 2.336-11.136 4.8-16.608 6.304-14.624 3.808-29.216 7.136-44 10.464-3.488 0.832-7.136 0.16-10.624 0.672-8.8 1.504-17.76 3.328-26.56 4.992-10.464 1.824-20.416 6.656-31.392-0.32-4.992-3.168-12.8-1.824-19.104-3.328-3.808-0.992-7.648-2.976-11.136-4.992-5.312-2.976-10.144-7.296-15.776-9.472-9.312-3.488-19.264-5.824-28.896-8.64-0.992-0.32-2.144-1.152-2.336-1.984-1.984-7.136-7.648-5.984-12.8-6.144-7.136-0.32-14.624-1.664-16.608 8.48-0.16 0.672-1.984 1.152-4 0.832 1.984-2.496 3.808-4.992 7.808-9.952-15.264-1.152-28.224-2.144-41.184-3.168 0 0.512 0 0.992-0.16 1.504 9.792 4.992 19.744 9.952 30.72 15.616-3.808 4.48-6.816 7.808-10.304 11.776 29.376-9.12 54.976 2.496 81.184 11.296-24.896 3.488-46.176 20.416-72.736 17.44-8.128-0.832-16.608 2.656-25.088 4.16-2.336 0.512-4.8 0.672-9.312 1.312 9.472-7.456 3.648-13.44 0.16-18.432-1.664-2.336-7.456-2.336-11.456-2.144-20.576 0.672-41.344 2.656-61.92 1.984-18.112-0.512-36.352-2.496-53.952-5.984-11.296-2.336-21.92-8.48-32.384-13.792-1.824-0.992-3.168-6.976-1.984-8.96 5.152-9.472 12.448-17.28 22.752-21.408 6.976-2.816 13.952-5.472 20.928-8.288h-0.832z"></path>
<path fill="#000" d="M654.62 351.529c-15.936 1.312-33.888 1.504-51.136 4.64-15.104 2.816-26.72-3.328-39.2-8.96-2.496-1.152-5.152-3.648-6.144-6.304-3.168-8.128-6.464-16.448-8.128-24.896-1.824-8.8 2.816-13.6 11.968-15.264 4.8-0.832 9.952-1.664 14.272-3.648 11.776-5.312 23.744-3.808 35.52-1.312 4 0.832 7.968 3.168 11.296 5.824 7.136 5.984 13.952 12.448 20.768 18.944 4.64 4.48 10.784 8.288 5.312 17.088-1.312 2.336 3.328 8.48 5.472 13.952z"></path>
<path fill="#000" d="M560.988 288.905c-3.808 3.488-7.136 6.144-9.952 9.312-5.824 6.304-12.8 11.968-14.624 21.248-0.512 2.496-2.496 5.472-4.64 6.464-10.464 4.64-20.928 9.312-31.872 12.608-3.488 0.992-8.64-1.664-12.288-3.808-7.808-4.48-15.264-9.472-22.592-14.624-7.648-5.472-6.816-14.112-1.984-21.408 9.12-13.44 23.744-12.448 36.352-16.608 3.648-1.152 7.968-0.512 11.296-1.824 18.432-7.296 33.696 1.824 50.304 8.64z"></path>
<path fill="#000" d="M370.684 351.849c2.336-13.952 13.28-18.432 22.752-24.416 5.984-3.808 12.128-7.456 18.272-11.296 8.64-5.312 32.224-4 41.184 2.496 0.832 0.672 1.664 1.312 2.656 1.984 12.608 9.312 12.608 12.96-0.16 22.752-11.616 8.96-25.248 11.136-39.2 13.28-5.632 0.832-11.456 1.504-17.088 2.656-10.944 2.336-20.416 0-28.384-7.456z"></path>
<path fill="#000" d="M364.54 383.401c-3.168-1.152-6.304-2.496-9.472-3.648 1.824-2.976 3.488-6.304 5.472-9.12 7.296-10.144 15.776-10.464 25.888-3.488 2.496 1.664 7.136 0.32 10.784 0.32 0.32 0.832 0.832 1.504 1.152 2.336-4.16 2.336-8.128 4.992-12.448 6.656-7.136 2.656-14.432 4.8-21.6 7.136 0 0 0.16-0.16 0.16-0.16z"></path>
<path fill="#000" d="M436.124 304.201c3.488-1.824 7.136-3.648 12.448-6.304 0 3.488 0.512 7.136-0.16 7.296-3.488 1.312-7.296 1.664-11.136 2.496-0.32-1.152-0.832-2.336-1.152-3.488z"></path>
</svg>
