<!-- Generated by IcoMoon.io -->
<svg version="1.1" xmlns="http://www.w3.org/2000/svg" width="1024" height="1024" viewBox="0 0 1024 1024">
<title></title>
<g id="icomoon-ignore">
</g>
<path fill="#000" d="M176.48 400.404c-0.8 0.192-0.384 0 0 0 21.504 3.2 40.416 0.992 56.96-16.32 16.32-17.12 35.456-31.456 53.152-47.584 10.144-9.152 17.728-9.76 26.688 0.608 5.984 6.976 10.56 14.944 18.528 22.496 0.384-5.76 1.6-11.552 0.8-16.928-2.976-16.32-22.112-30.848-37.632-26.272-9.344 2.784-17.536 10.944-25.472 17.536-18.72 15.744-36.64 32.256-55.168 48.192-10.368 8.96-23.296 5.184-35.232 5.376-6.176 0.192-12.352-1.6-18.304-2.976-10.944-2.784-15.136-11.936-11.136-22.496 3.584-9.76 5.984-20.096 9.568-29.856 3.392-8.768 9.76-16.928 11.136-25.888 2.592-18.528 2.784-37.44 3.776-56.16 0.192-2.176-0.384-4.576 0.192-6.784 9.568-37.248 21.504-73.664 45.184-104.736 8.576-11.136 19.712-20.32 30.272-29.856 10.944-10.144 23.296-19.104 33.664-29.856 14.336-14.528 32.064-22.912 50.368-30.080 35.232-13.536 66.688-36.832 105.12-41.824 28.064-3.584 56.544-7.36 84.832-6.976 22.688 0.384 45.408 7.36 68.096 11.136 4.576 0.8 9.344 0.384 13.728 1.6 20.704 5.984 42.4 9.952 59.936 23.904 1.984 1.6 4.384 2.976 6.976 3.584 28.672 6.784 52.96 21.696 74.88 40.832 15.936 13.952 33.056 27.072 46.208 43.2 11.744 14.528 21.312 32.064 27.072 49.76 11.136 34.656 18.912 70.496 28.48 105.92 2.592 9.76 5.376 19.712 8.96 29.056 1.6 3.968 5.568 7.36 8.768 10.56 14.528 14.144 10.752 43.2-6.976 51.776-2.976 1.408-7.168 0.992-12.352 1.792-4.384 17.12-21.504 12.544-34.656 14.528-15.136 2.4-29.056-0.8-41.216-13.344-16.928-17.536-36.448-32.64-54.752-48.576-6.56-5.568-13.152-10.56-22.688-10.144-21.504 0.384-36.832 22.112-29.472 45.792 3.584-5.184 6.176-9.344 9.152-13.344 2.784-3.968 5.568-8.16 8.96-11.744 7.776-8.352 14.336-8.96 22.912-1.6 20.896 18.304 42.016 36.224 62.112 55.36 14.944 14.336 32.448 13.152 50.176 10.368 10.144-1.6 19.904-5.984 31.072-9.568-3.968 8.352-8.576 16.512-11.744 25.088-5.184 14.944-11.936 29.856-13.728 45.184-4.384 38.432-6.176 77.056-9.344 115.488-2.176 26.272-5.376 52.352-7.968 78.656-0.992 10.144-2.176 20.32-2.4 30.464-0.8 28.672-10.56 55.552-15.52 83.424-1.984 11.36-0.608 23.104-1.984 34.656-1.792 12.928-4.576 25.696-7.968 38.432-1.984 7.968-6.368 15.328-8.768 23.104-4.768 15.744-16.736 24.704-29.28 33.44-25.472 17.728-50.976 35.040-72.288 58.144-9.152 9.952-20.512 17.728-30.848 26.496-6.56 5.568-13.152 10.944-19.328 16.928-10.144 9.76-25.088 6.368-36.224 13.344-4.384 2.784-9.568 4.384-14.528 5.984-4.768 1.6-9.76 4.192-14.528 4.192-37.824 0.192-75.872 0.192-113.696-0.384-6.368-0.192-13.536-3.2-18.72-6.976-8.96-6.56-16.512-15.328-25.28-22.304-20.512-16.128-41.408-31.648-62.304-47.2-18.112-13.536-35.84-28.064-54.944-40.032-16.736-10.56-21.888-28.672-31.456-43.616-6.56-10.144-6.368-25.28-7.168-38.432-2.4-40.416-9.76-79.84-20.32-119.072-3.584-13.344-4.192-27.488-7.776-40.608-6.784-23.904-8.768-48-8.16-72.48 0.384-22.112 0.384-44.192-0.992-66.304-1.184-20.32-2.784-40.832-6.784-60.928-5.184-21.888-12.544-43.2-18.528-65.12zM691.36 506.932c-0.608 0.384-1.408 0.608-1.984 0.992 0-4.992 0.608-9.952-0.192-14.72-0.384-2.4-2.976-5.568-5.376-6.368-1.792-0.608-4.576 2.4-6.976 3.2-3.584 1.184-8.576 3.968-10.752 2.592-2.592-1.6-4.192-7.36-3.392-10.56 2.784-10.368 2.784-19.904-4.992-29.664-1.6 5.984-2.176 11.36-4.576 15.936-4.192 7.776-8.576 15.936-14.72 22.112-2.592 2.592-9.76 0.384-15.744 0.384 0.992-4.768 1.792-7.776 2.176-10.56 1.184-13.152 2.4-26.272 2.976-39.424 0-1.984-2.976-4.192-4.576-6.176-1.408 1.984-3.584 3.968-3.776 5.984-1.408 10.144-2.592 20.32-3.584 30.464-1.184 11.744-8.768 19.52-18.112 24.48-4.576 2.4-11.552 0.384-17.728 0.384 0-19.904 0.192-39.424-0.192-58.944 0-3.2-2.784-6.368-4.192-9.568-1.6 3.2-4.192 6.368-4.384 9.76-0.384 11.552 0.992 23.296-0.384 34.848-0.992 7.776-3.392 18.528-8.768 21.504-8.576 4.992-20.096 5.376-30.656 6.56-7.168 0.992-15.52-5.76-14.944-11.552 1.6-15.328 3.968-30.464 5.76-45.6 0.384-3.2 1.184-7.168-0.192-9.568-1.408-2.592-5.184-4.768-8.16-5.184-1.408-0.192-4.992 4.384-4.768 6.784 0.608 17.536 1.984 35.232 2.4 52.768 0 2.4-2.976 7.168-4.576 7.168-13.344 0.608-27.264 5.984-40.224-3.584-3.392-17.92-4.384-36.64 2.176-55.36 0.992-2.976-0.8-6.976-1.408-10.368-1.408 0-2.592 0-3.968 0-6.784 18.912-6.56 39.040-6.976 58.944-7.968 0.8-14.944 1.408-21.504 1.984-12.736-15.52-15.744-33.664-15.744-52.96-1.984 1.792-3.776 3.776-3.584 5.568 0.8 15.936 2.176 31.872 2.976 47.968 0.192 2.4-0.8 6.56-1.984 6.784-3.968 0.8-16.512-10.56-17.728-14.944-2.592-9.152-5.376-18.304-7.968-27.488-0.992 0-1.792 0.192-2.784 0.192 0 7.36 0 14.72 0 22.112-0.192 6.976 0.992 14.528-0.992 21.12-1.6 5.376-22.496 6.368-26.080 1.184-3.776-5.568-6.176-12.352-9.344-18.528-0.608 0-0.992 0-1.6-0.192 0 5.76 0 11.552 0 17.536-2.4-2.976-2.976-6.56-4.384-9.568s-3.584-7.36-5.984-7.968c-3.2-0.608-8.768 0.992-10.144 3.584-7.168 11.552-15.328 23.296-12.16 38.432-4.992-1.792-8.576-1.984-7.552 4.992 0.384 2.4 0.192 5.184-0.384 7.552-4.992 22.304-10.368 44.608-14.944 67.104-1.792 8.16-4.576 17.312-2.784 24.896 6.976 29.472 14.72 58.72 23.904 87.392 4.576 14.336 12.16 28.064 20.096 41.024 4.576 7.168 12.736 11.936 19.328 17.92 0.992-0.608 1.984-1.184 3.2-1.792-2.976-9.952-3.2-18.72 4.384-27.072 6.176-6.976 9.952-16.32 14.72-24.704 1.184 0.192 2.4 0.192 3.584 0.384 0.992 3.776 2.784 7.552 3.2 11.36 2.4 19.52 4.384 39.232 6.976 58.72 0.8 5.984 3.968 11.552 11.136 9.344 5.984-1.792 8.768-5.984 7.36-13.728-3.2-16.128-4.576-32.64-6.56-48.992-0.8-7.168 4.192-10.752 9.952-11.36 9.76-0.992 19.712-0.192 31.648-0.192 1.184 15.936 2.176 33.856 4.192 51.776 0.8 7.168 3.584 14.336 5.568 21.504 1.6-0.192 3.2-0.384 4.576-0.384 0.992-4.576 2.784-9.152 2.592-13.728-0.8-18.112-2.4-36.224-3.2-54.368-0.384-10.944 5.184-16.32 15.936-16.32 6.368 0 12.736-0.384 18.912 0.384 2.976 0.384 7.168 2.4 8.16 4.768 3.392 9.76 7.36 19.904 8.16 30.272 0.8 11.936-1.984 24.096-2.176 36.224 0 3.776 3.392 7.552 5.184 11.36 2.784-2.176 7.36-3.968 7.968-6.56 1.6-6.784 1.792-14.144 1.984-21.312 0.384-14.528 0.192-29.056 0.384-43.616 0.192-11.36 3.584-14.528 14.528-14.336 7.968 0.192 15.936 0.192 23.904 0.192 8.768 0 14.944 0.8 17.12 12.544 1.184 6.976-1.184 9.76-2.784 14.944-5.376 17.12-8.576 34.848-12.736 52.352 5.184 1.792 9.568 3.392 15.52 5.376 2.784-18.72 5.376-36.448 8.16-54.144 0.992-6.784 2.4-13.536 4.576-20.096 0.8-2.176 3.968-4.576 6.368-4.992 13.344-1.984 25.888 9.152 25.696 22.496 0 3.392-0.384 6.56-0.384 9.952 0 13.952 0 27.872 0 44.608 3.392-6.176 6.784-10.144 7.552-14.528 2.176-11.936 3.2-24.096 4.992-36.224 0.608-4.576 1.792-9.152 2.784-13.952 1.408 0 2.784 0 4.192 0 3.584 12.928 11.36 24.288 11.552 38.624 0 3.968 3.2 8.96 6.56 11.36 1.792 1.184 9.152-1.6 10.144-4.192 6.976-16.736 13.728-33.44 18.72-50.784 5.184-18.112 7.776-37.248 12.544-55.552 2.784-10.56 8.96-20.32 11.552-31.072 5.184-21.312 8.96-42.816 13.152-64.512 0.384-1.6-0.8-3.776-1.6-5.376-2.592-5.376-5.984-10.56-7.552-16.32-4.384-14.144-8.16-28.48-12.16-42.624-3.584 7.776-4.992 15.744-7.968 22.912-0.992 2.592-5.984 5.376-8.768 5.184-2.176-0.192-4.192-4.768-4.992-6.176 5.984-3.584 12.16-5.184 13.952-8.96 0.8-2.592-4.192-7.968-6.368-12.16zM492.48 139.156c-12.928 9.152-24.48 15.744-30.272 30.464-9.568 23.904-17.312 48-21.12 73.472-1.184 8.352 2.976 15.52 11.36 16.512 5.76 0.608 11.744 0.192 17.536 0.992 11.936 1.792 19.328-6.976 27.488-12.736 2.176-1.6 2.784-6.56 2.784-9.952 0.384-10.56-0.384-21.312 0.192-31.872 0.8-9.952 2.784-19.712 4.384-29.472 0.992 0.192 1.792 0.192 2.784 0.384 2.176 21.696 4.768 43.392 6.56 65.312 1.184 13.344 6.56 17.92 19.52 16.128 5.184-0.8 10.56 0.192 15.744 0.8 8.96 1.184 14.144-2.4 16.928-10.944 4.384-14.144 0.8-27.488-4.192-40.224-4.992-12.544-11.552-24.48-17.536-36.832-3.584-7.36-6.56-15.136-10.56-22.304-1.6-2.784-5.376-4.576-6.976-5.76-1.408 5.376-2.592 9.568-3.776 13.728-4.992-2.4-10.144-4.992-15.136-7.36-10.144-1.6-10.368 5.984-8.96 14.336-12.928-4.192-15.328-11.136-6.784-24.704zM628.448 137.588c-0.384 12.16 1.408 23.296 9.568 32.64 3.392 3.968 6.976 7.776 9.952 12.16 12.16 18.112 28.48 28.288 50.784 29.856 25.472 1.792 40.608-14.144 55.168-30.656 5.184-5.76 5.568-13.536 0.8-21.312-4.576-7.168-6.976-15.936-12.16-22.496-4.768-6.176-11.136-12.736-18.112-14.944-16.928-5.376-34.656-7.776-51.776-12.16-6.176-1.6-12.16-4.768-18.112-7.552-11.744-5.76-18.912-2.784-22.112 10.144-1.984 8.16-2.592 16.32-3.968 24.288zM303.104 225.972c12.928-1.984 23.104-2.176 32.256-5.184 7.968-2.592 15.136-7.968 22.112-12.736 13.152-9.152 23.104-21.312 28.288-36.64 4.576-13.728 1.792-26.080-5.376-38.816-4.384-7.776-8.768-9.76-16.512-7.968-16.512 3.776-31.456 12.736-49.184 13.152-8.96 0.192-18.112 4.576-26.688 8.352-12.352 5.376-20.096 15.744-26.272 27.264-9.152 17.12-0.8 39.808 15.136 44.992 9.344 2.976 18.912 5.376 26.272 7.552z"></path>
</svg>
