<!-- Generated by IcoMoon.io -->
<svg version="1.1" xmlns="http://www.w3.org/2000/svg" width="566" height="1024" viewBox="0 0 566 1024">
<title></title>
<g id="icomoon-ignore">
</g>
<path d="M300.296 147.619c-12.836 18.088-22.756 35.203-35.787 49.595-17.504 19.449-41.427 24.117-66.905 23.339-6.807-0.194-13.809 3.501-20.227 6.224-1.945 0.778-3.112 4.668-3.89 7.391-3.112 11.281-5.64 22.756-8.752 34.036-2.723 9.919-1.361 12.836 8.752 15.754 1.75 0.583 3.695 1.361 5.251 2.528 23.728 17.699 44.733 38.12 64.96 59.904 10.308 11.281 15.17 21.589 13.809 36.564-0.583 6.807 2.917 13.809 4.473 20.811 7.002-2.528 14.198-4.862 21.2-7.78 1.556-0.583 2.723-3.501 3.112-5.446 4.862-19.644 7.196-38.509-9.919-54.263-5.057-4.668-7.974-11.67-12.642-16.921-5.057-5.64-10.503-11.281-16.726-15.754-13.42-9.336-27.034-18.282-35.787-32.869-2.139-3.695-6.613-5.835-11.086-9.725 3.112-4.862 5.835-10.308 9.725-14.587 4.279-4.862 9.725-6.029 16.726-4.084 7.78 2.139 16.337 2.139 24.311 3.306 4.084 0.583 8.752 0.972 11.864 3.112 14.976 11.086 31.508 18.671 49.401 23.923 7.196 2.139 13.225 7.585 19.838 11.475 13.809 7.974 27.034 16.921 41.621 23.534 20.422 9.336 36.175 24.311 53.096 37.926 3.89 3.112 8.169 7.196 12.642 8.169 4.668 0.972 11.475 0.583 14.587-2.139 14.976-13.225 29.368-27.034 42.983-41.427 3.89-4.084 6.224-11.475 5.835-16.921-0.389-4.862-5.64-9.336-8.558-14.003-4.084 3.112-8.363 5.835-12.058 9.53-11.281 10.892-21.978 22.367-33.453 33.258-4.084 3.695-8.947 4.084-13.614-0.778-5.64-5.835-11.67-11.086-18.088-16.143s-7.974-8.752-1.556-16.143c25.478-30.146 49.984-61.070 74.879-91.8 11.475-14.003 24.7-21.394 42.983-13.42 2.334 0.972 5.057 1.361 7.585 1.167 9.336-0.778 14.392 4.668 14.976 12.836 0.583 8.947 6.224 7.974 6.418 15.365s7.391 29.952-0.583 53.291c-7.391 15.17-14.392 28.979-20.811 43.177-3.89 8.363-6.224 17.504-10.503 25.478-5.835 10.697-13.031 20.616-19.644 30.924-3.695 5.64-7.002 11.475-10.503 17.31-8.363 14.003-16.726 28.007-25.284 41.816-10.308 16.921-21.394 33.258-30.73 50.568-4.473 8.363-7.196 18.477-8.363 28.007-3.501 29.952 5.251 58.542 11.475 87.327 4.279 20.616 11.086 39.871 20.422 58.737 4.279 8.558 2.334 15.559-5.057 22.172-17.699 15.948-35.398 31.897-52.318 48.623-22.561 22.367-44.539 45.511-66.322 68.656-16.532 17.504-32.48 35.398-48.428 53.485-3.112 3.501-5.057 7.974-8.363 13.225-1.556-0.583-4.668-0.778-6.224-2.528-7.391-7.974-14.781-16.143-21.394-24.895-22.95-29.952-44.928-60.681-68.85-90.050-7.585-9.336-19.255-15.559-29.563-22.756-14.976-10.697-30.341-21.005-45.511-31.313-5.057-3.501-10.114-6.613-15.559-9.53-5.835-3.112-7.002-7.391-3.501-12.447 10.892-15.365 15.365-32.091 16.726-51.151 1.361-19.255 7.585-38.12 11.67-57.181 0.583-3.112 1.167-6.418 1.167-9.53 0.583-17.31 0.972-34.814 1.945-52.124 0.194-2.917 1.945-5.835 3.501-8.363 7.585-11.281 8.169-18.282-0.389-27.812-10.114-11.281-21.394-21.589-32.286-32.091-7.391-7.196-13.225-16.532-25.673-16.337-1.75 0-4.473-3.695-5.446-6.224-8.947-22.561-22.95-41.816-37.926-60.681-5.835-7.391-9.53-16.143-20.033-19.644-5.251-1.75-5.835-8.752-2.334-14.198 1.167-1.945 2.917-3.306 4.279-5.251 10.503-13.809 10.308-14.587-5.446-23.728-8.947-5.251-9.141-12.642-1.361-20.033 2.723-2.528 5.64-6.418 5.835-9.725 1.167-16.532 13.225-27.034 21.005-39.871 11.281-18.671 22.367-37.537 33.647-56.208 2.917-4.668 6.613-8.752 9.336-13.42 2.723-4.862 4.084-10.308 6.807-15.365 1.556-2.917 4.084-7.391 6.613-7.585 15.559-1.556 30.73-3.306 46.484 2.528 15.17 5.64 31.702 10.308 47.651 9.919 17.504-0.389 33.258 5.251 49.79 7.391 17.699 2.334 35.398 5.835 52.902 8.947 4.279-0.194 7.78 0.972 15.17 2.917zM307.686 751.322c0.972-10.892-7.391-19.060-23.145-20.616-9.919-0.972-21.2 10.892-21.589 21.589-0.389 10.308 12.447 26.451 21.005 26.645 9.336 0.194 23.728-16.532 23.728-27.618z"></path>
<path d="M33.647 764.353c14.781-15.754 28.785-30.341 42.010-45.317 3.501-3.89 5.251-9.336 7.585-14.392 2.917-6.224 6.418-7.002 12.058-2.917 3.695 2.723 8.947 3.112 12.642 5.64 10.503 7.002 21.978 13.614 30.924 22.367 35.981 34.62 69.434 71.184 97.051 113 12.253 18.671 23.923 37.731 35.787 56.597 3.89 6.224 7.002 7.002 13.614 2.139 28.007-21.2 45.317-51.151 67.1-77.797 12.253-14.976 25.284-29.174 38.12-43.372 14.976-16.726 30.146-33.258 45.122-49.984 10.697-11.864 21.005-24.311 31.897-35.981 6.807-7.391 9.141-6.613 13.809 2.139 9.141 17.115 18.282 34.231 27.812 51.346 2.139 3.89 5.057 7.585 8.363 10.503 6.613 5.835 4.473 9.725-1.167 14.781-21.589 19.838-43.955 38.898-63.793 60.681-18.671 20.616-33.842 44.539-51.735 66.127-19.838 23.923-40.454 47.262-62.043 69.823-17.31 18.282-36.37 34.814-54.652 52.124-3.695 3.501-18.477 2.723-21.978-2.139-7.974-11.086-15.17-22.95-22.756-34.425-15.948-23.534-31.508-47.262-52.902-66.711-8.558-7.78-14.392-18.671-21.005-28.59-18.477-27.812-44.928-47.651-69.045-69.628-18.671-17.115-38.704-32.675-58.153-49.206-1.945-1.556-3.112-4.473-4.668-6.807zM279.485 984.907c15.365 0.972 22.561-15.17 23.339-28.59 0.778-11.475-9.919-21.005-21.394-20.811-14.198 0.194-30.341 12.836-30.146 23.339 0.194 11.086 16.532 28.59 28.201 26.062zM402.987 847.401c0.194-11.67-8.558-19.644-21.978-20.033-11.475-0.389-24.311 12.642-24.506 24.895-0.194 11.475 12.447 25.673 22.756 25.673 11.67 0 23.534-15.365 23.728-30.535zM443.831 761.436c0 1.945-0.194 3.89 0 5.835 0.778 8.947 7.585 16.726 16.921 18.866 8.363 1.945 16.337 0.389 20.227-7.391 5.057-10.114 7.974-21.2 3.306-32.48-1.167-2.723-3.695-5.251-6.224-6.807-19.255-10.308-34.231-0.583-34.231 21.978zM126.614 766.687c0-14.587-8.752-25.673-19.449-26.645-11.475-1.167-23.339 8.947-23.728 22.561-0.389 10.892 12.642 22.367 24.506 22.367 9.336-0.194 18.671-9.141 18.671-18.282zM183.6 868.406c12.836 0.194 19.255-5.835 19.255-18.477 0.194-13.225-10.503-24.117-23.534-24.311-11.281-0.194-16.532 5.251-16.726 17.31-0.194 16.337 7.002 25.284 21.005 25.478z"></path>
<path d="M489.731 159.094c-4.279 5.446-8.363 12.058-14.198 17.115-14.198 12.836-23.534 28.785-34.231 44.344-12.058 17.504-28.201 32.091-43.372 47.262-2.139 2.139-8.947 2.334-12.253 0.778-15.754-7.585-31.313-15.948-46.873-24.117-7.974-4.279-7.196-6.224-1.361-13.42 15.754-19.644 30.535-40.26 45.9-60.292 12.642-16.532 25.673-32.675 39.093-48.623 1.75-2.139 5.64-3.306 8.558-3.306 13.225 0.194 26.451 1.361 39.482 1.556 6.807 0.194 10.697 2.723 12.253 9.53 1.945 9.141 4.279 18.088 7.002 29.174z"></path>
<path d="M343.667 35.398c12.447 1.945 24.7 3.112 36.37 6.418 3.695 0.972 6.418 7.78 7.974 12.447 3.695 10.503 7.002 21.2 8.947 32.091 0.972 5.057 0.194 11.67-2.528 15.948-12.253 19.449-25.284 38.509-38.315 57.375-8.947 12.836-18.282 25.478-27.812 37.926-6.418 8.558-12.836 17.31-20.033 25.089-5.835 6.418-20.616 2.139-23.534-6.224-0.583-1.556 1.167-5.057 2.723-6.224 17.893-12.642 28.007-31.702 39.287-49.401 4.279-7.002 7.002-14.976 9.53-22.756s-2.723-15.559-12.058-17.504c-13.809-2.917-27.812-4.862-41.621-7.585-3.501-0.583-7.002-1.556-10.114-3.112-4.668-2.334-7.78-4.668-3.112-10.892 11.864-15.754 22.756-32.48 34.231-48.428 6.418-8.947 16.921-10.503 26.84-12.447 4.862-0.972 9.336-1.945 13.225-2.723z"></path>
<path d="M125.642 84.798c1.75-3.89 2.334-6.418 3.89-8.363 11.67-15.559 23.728-31.119 35.592-46.484 3.112-4.084 6.224-8.363 9.53-12.058 5.251-5.835 11.086-9.725 19.449-12.642 16.726-5.64 33.258-4.084 49.984-5.057 7.585-0.389 10.892 3.112 13.614 8.947 3.695 8.558 7.974 16.726 11.475 25.478 1.167 2.723 0.972 7.002-0.389 9.725-8.947 15.948-18.477 31.508-27.423 47.456-3.112 5.64-7.002 8.752-13.809 7.78-21.005-2.917-42.010-5.64-62.821-8.558-12.642-1.945-25.089-4.084-39.093-6.224z"></path>
</svg>
