<!-- Generated by IcoMoon.io -->
<svg version="1.1" xmlns="http://www.w3.org/2000/svg" width="1024" height="1024" viewBox="0 0 1024 1024">
<title></title>
<g id="icomoon-ignore">
</g>
<path fill="#000" d="M864.902 6.695c-8.468 3.845-12.424 11.418-14.072 26.941-2.621 24.666-24.338 65.818-54.935 104.090-10.895 13.629-1.659 6.812-105.51 77.878-29.097 19.912-76.457 52.337-105.244 72.054-28.785 19.717-62.833 43-75.661 51.74s-23.452 15.985-23.608 16.102c-0.156 0.115 2.148 1.797 5.12 3.738 7.063 4.613 15.219 13.007 27.379 28.18 17.812 22.231 21.181 22.669 48.010 6.236 20.657-12.654 116.39-76.465 173.788-115.84 107.958-74.063 111.276-75.999 142.502-83.164 5.944-1.364 12.344-2.954 14.221-3.535 6.182-1.915 28.093-3.412 49.93-3.412 29.578-0.003 37.673-3.389 41.6-17.416 3.853-13.763 4.152-13.184-46.277-88.968-52.347-78.666-57.459-83.607-77.243-74.624zM898.031 232.579c-28.964 6.088-29.617 6.456-112.893 63.852-105.311 72.581-196.959 133.407-214.044 142.062-31.741 16.079-60.099 6.359-87.688-30.062-16.177-21.358-34.117-27.702-56.415-19.95-14.3 4.972-136.52 83.233-149.916 95.995-7.898 7.524-8.343 7.416-19.868-4.803-6.172-6.541-16.243-23.332-16.243-27.080 0-0.243 4.36-0.563 9.687-0.714 40.87-1.142 63.201-13.811 58.342-33.106-3.387-13.458-13.783-17.531-32.189-12.613-42.55 11.369-71.626 2.186-87.071-27.502-10.79-20.741-34.212-20.529-39.839 0.366-3.768 13.99 16.988 44.518 39.611 58.263 6.735 4.091 6.979 4.406 8.241 10.719 6.566 32.796 23.578 60.006 46.643 74.606l5.107 3.233 0.494 16.102c2.084 68.155-2.744 85.064-35.633 124.759-29.417 35.502-61.947 63.148-118.989 101.128-19.354 12.887-36.864 25.446-41.431 29.716-28.147 26.319-26.46 53.809 5.381 87.608 32.141 34.12 118.093 119.035 125.507 123.994 24.402 16.32 43.633 15.283 73.29-3.955 70.817-45.942 112.433-95.316 129.078-153.144l3.144-10.921 12.155-5.814c6.684-3.197 18.514-8.589 26.291-11.983 48.064-20.974 68.948-32.238 79.644-42.957 27.671-27.727 37.476-85.745 25.464-150.651l-2.739-14.792 3.039-2.273c20.209-15.137 201.777-138.652 286.469-194.877 70.612-46.876 78.569-54.385 91.11-85.975 10.54-26.547 12.081-66.243 3.791-97.743-1.324-5.038-0.842-4.997-17.531-1.487zM497.092 659.723c3.689 39.247-2.662 75.535-15.78 90.125-5.734 6.377-81.853 45.125-84.065 42.79-0.402-0.425 2.949-57.254 3.612-61.235l0.689-4.137 5.368 3.615c16.576 11.154 55.117 13.773 66.143 4.495 11.507-9.682 8.102-29.123-6.036-34.465-1.761-0.666-8.929-1.213-15.928-1.216-14.884-0.008-20.040-1.188-25.016-5.727l-3.638-3.315 3.912-3.156c2.15-1.736 17.751-12.764 34.665-24.509s31.276-21.875 31.913-22.51c1.661-1.661 2.609 2.716 4.163 19.246z"></path>
</svg>
